<svg width="1697" height="647" viewBox="0 0 1697 647" fill="none" xmlns="http://www.w3.org/2000/svg">
<path d="M112.649 38.7959L112.649 459.943" stroke="#38D6B8" stroke-width="3"/>
<path d="M112.649 38.7959L112.649 459.943" stroke="black" stroke-opacity="0.2" stroke-width="3"/>
<rect x="62.6996" y="123.464" width="96.1585" height="55.0254" rx="27.5127" fill="#A9E9DD"/>
<rect x="62.6996" y="123.464" width="96.1585" height="55.0254" rx="27.5127" stroke="#38D6B8" stroke-width="2"/>
<rect x="62.6996" y="123.464" width="96.1585" height="55.0254" rx="27.5127" stroke="black" stroke-opacity="0.2" stroke-width="2"/>
<path d="M102.705 156.177H118.705V162.952H102.705V156.177ZM115.455 158.652H105.98V160.502H115.455V158.652ZM101.28 141.677H120.13V144.177H101.28V141.677ZM110.755 144.752C115.73 144.752 118.505 145.877 118.505 148.052C118.505 150.227 115.73 151.352 110.755 151.352C105.78 151.352 103.005 150.227 103.005 148.052C103.005 145.877 105.78 144.752 110.755 144.752ZM110.755 146.977C107.88 146.977 106.555 147.277 106.555 148.052C106.555 148.802 107.88 149.127 110.755 149.127C113.63 149.127 114.93 148.802 114.93 148.052C114.93 147.277 113.63 146.977 110.755 146.977ZM109.08 139.877H112.405V143.452H109.08V139.877ZM100.28 152.452H121.205V155.002H100.28V152.452ZM109.08 150.552H112.405V153.802H109.08V150.552Z" fill="#424242" fill-opacity="0.8"/>
<rect x="1" y="243.124" width="219.558" height="55.0254" rx="27.5127" fill="#CFEFE9"/>
<rect x="1" y="243.124" width="219.558" height="55.0254" rx="27.5127" fill="white" fill-opacity="0.6"/>
<rect x="1" y="243.124" width="219.558" height="55.0254" rx="27.5127" stroke="#38D6B8" stroke-width="2"/>
<rect x="1" y="243.124" width="219.558" height="55.0254" rx="27.5127" stroke="black" stroke-opacity="0.2" stroke-width="2"/>
<path d="M48.9249 260.787H50.7499V262.037C50.7499 266.362 46.3499 269.462 41.6499 270.262L40.8249 268.587C44.9499 267.962 48.9249 265.262 48.9249 262.037V260.787ZM49.2999 260.787H51.0999V262.037C51.0999 265.187 55.1249 267.962 59.1999 268.587L58.3749 270.262C53.7249 269.462 49.2999 266.312 49.2999 262.037V260.787ZM48.9249 273.987H50.9749V282.587H48.9249V273.987ZM39.7999 272.712H60.2249V274.437H39.7999V272.712ZM79.2229 259.987H81.3229V272.112H79.2229V259.987ZM66.7479 273.237H68.7979V275.987H79.2729V273.237H81.3229V282.287H66.7479V273.237ZM68.7979 277.637V280.612H79.2729V277.637H68.7979ZM69.1979 261.062C72.6229 261.062 75.0729 263.187 75.0729 266.262C75.0729 269.362 72.6229 271.487 69.1979 271.487C65.7729 271.487 63.2979 269.362 63.2979 266.262C63.2979 263.187 65.7729 261.062 69.1979 261.062ZM69.1979 262.787C66.9479 262.787 65.3229 264.212 65.3229 266.262C65.3229 268.312 66.9479 269.737 69.1979 269.737C71.4479 269.737 73.0729 268.312 73.0729 266.262C73.0729 264.212 71.4479 262.787 69.1979 262.787ZM89.421 278.012C89.2876 278.595 89.1043 279.229 88.871 279.912C88.6543 280.595 88.4126 281.27 88.146 281.937C87.896 282.62 87.646 283.262 87.396 283.862H85.421C85.571 283.212 85.721 282.52 85.871 281.787C86.021 281.07 86.1626 280.362 86.296 279.662C86.4293 278.962 86.5293 278.32 86.596 277.737H89.246L89.421 278.012ZM98.2407 263.212H99.9157V266.887C99.9157 271.662 97.0407 276.462 93.4407 278.237L92.2407 276.587C95.5157 275.037 98.2407 270.787 98.2407 266.887V263.212ZM98.6407 263.212H100.316V266.887C100.316 270.712 103.041 274.612 106.366 276.037L105.191 277.687C101.541 275.987 98.6407 271.587 98.6407 266.887V263.212ZM92.9907 262.287H105.616V264.037H92.9907V262.287ZM108.666 259.987H110.741V282.587H108.666V259.987ZM124.414 271.237H126.489V274.662H124.414V271.237ZM115.264 270.012H135.664V271.612H115.264V270.012ZM124.439 259.837H126.489V262.587H124.439V259.837ZM124.339 262.787H126.164V263.137C126.164 266.687 121.939 268.587 116.939 269.012L116.339 267.412C120.789 267.137 124.339 265.562 124.339 263.137V262.787ZM124.764 262.787H126.589V263.137C126.589 265.562 130.139 267.137 134.564 267.412L133.964 269.012C128.964 268.587 124.764 266.687 124.764 263.137V262.787ZM117.339 261.962H133.589V263.537H117.339V261.962ZM117.714 273.662H133.064V278.637H119.814V281.362H117.764V277.162H131.014V275.237H117.714V273.662ZM117.764 280.762H133.739V282.337H117.764V280.762ZM154.712 259.987H156.787V282.587H154.712V259.987ZM148.087 262.412H150.137C150.137 268.962 147.187 274.687 139.637 278.387L138.537 276.712C145.062 273.562 148.087 268.762 148.087 262.762V262.412ZM139.562 262.412H148.987V264.112H139.562V262.412ZM161.235 272.412H181.735V274.112H161.235V272.412ZM163.835 260.562H179.085V266.037H165.935V269.087H163.885V264.512H177.06V262.187H163.835V260.562ZM163.885 268.412H179.585V270.037H163.885V268.412ZM170.435 269.262H172.51V273.262H170.435V269.262ZM163.51 275.837H179.235V282.387H177.16V277.537H163.51V275.837Z" fill="#424242" fill-opacity="0.7"/>
<rect x="13.153" y="332.869" width="196.187" height="55.0254" rx="27.5127" fill="#CFEFE9"/>
<rect x="13.153" y="332.869" width="196.187" height="55.0254" rx="27.5127" fill="white" fill-opacity="0.6"/>
<rect x="13.153" y="332.869" width="196.187" height="55.0254" rx="27.5127" stroke="#38D6B8" stroke-width="2"/>
<rect x="13.153" y="332.869" width="196.187" height="55.0254" rx="27.5127" stroke="black" stroke-opacity="0.2" stroke-width="2"/>
<path d="M60.9494 355.182H65.3494V356.907H60.9494V355.182ZM60.9494 362.057H65.3494V363.782H60.9494V362.057ZM69.1494 349.732H71.1494V372.332H69.1494V349.732ZM64.7244 350.207H66.6744V371.207H64.7244V350.207ZM57.0244 351.607C59.9494 351.607 61.8494 354.632 61.8494 359.482C61.8494 364.332 59.9494 367.357 57.0244 367.357C54.0994 367.357 52.2244 364.332 52.2244 359.482C52.2244 354.632 54.0994 351.607 57.0244 351.607ZM57.0244 353.532C55.2494 353.532 54.0994 355.832 54.0994 359.482C54.0994 363.132 55.2494 365.432 57.0244 365.432C58.8244 365.432 59.9494 363.132 59.9494 359.482C59.9494 355.832 58.8244 353.532 57.0244 353.532ZM80.4974 351.107H82.1974V353.882C82.1974 358.307 79.7474 361.832 75.9474 363.307L74.8474 361.657C78.2974 360.432 80.4974 357.382 80.4974 353.882V351.107ZM80.8474 351.107H82.5474V353.957C82.5474 357.032 84.7974 359.932 88.0974 361.107L87.0724 362.732C83.3474 361.382 80.8474 357.932 80.8474 353.957V351.107ZM90.3974 349.707H92.4724V366.407H90.3974V349.707ZM91.8224 356.657H95.8224V358.382H91.8224V356.657ZM78.4474 370.132H93.4724V371.832H78.4474V370.132ZM78.4474 364.832H80.5224V370.957H78.4474V364.832ZM112.949 357.807H117.274V359.532H112.949V357.807ZM108.724 351.857H110.349V356.157C110.349 360.882 108.374 365.457 105.074 367.482L103.774 365.907C106.874 364.082 108.724 360.032 108.724 356.157V351.857ZM109.124 351.857H110.724V356.082C110.724 359.707 112.424 363.557 115.399 365.357L114.199 366.982C110.949 364.982 109.124 360.482 109.124 356.082V351.857ZM121.249 349.732H123.249V372.332H121.249V349.732ZM116.674 350.207H118.624V371.207H116.674V350.207ZM127.022 362.682H147.522V364.382H127.022V362.682ZM136.172 363.732H138.222V372.332H136.172V363.732ZM137.222 350.632C141.947 350.632 145.122 352.557 145.122 355.582C145.122 358.607 141.947 360.532 137.222 360.532C132.522 360.532 129.322 358.607 129.322 355.582C129.322 352.557 132.522 350.632 137.222 350.632ZM137.222 352.307C133.772 352.307 131.422 353.582 131.422 355.582C131.422 357.582 133.772 358.857 137.222 358.857C140.672 358.857 142.997 357.582 142.997 355.582C142.997 353.582 140.672 352.307 137.222 352.307ZM166.495 349.732H168.57V372.332H166.495V349.732ZM159.87 352.157H161.92C161.92 358.707 158.97 364.432 151.42 368.132L150.32 366.457C156.845 363.307 159.87 358.507 159.87 352.507V352.157ZM151.345 352.157H160.77V353.857H151.345V352.157Z" fill="#424242" fill-opacity="0.7"/>
<rect x="1" y="422.614" width="219.558" height="55.0254" rx="27.5127" fill="#CFEFE9"/>
<rect x="1" y="422.614" width="219.558" height="55.0254" rx="27.5127" fill="white" fill-opacity="0.6"/>
<rect x="1" y="422.614" width="219.558" height="55.0254" rx="27.5127" stroke="#38D6B8" stroke-width="2"/>
<rect x="1" y="422.614" width="219.558" height="55.0254" rx="27.5127" stroke="black" stroke-opacity="0.2" stroke-width="2"/>
<path d="M48.733 445.752H53.758V447.427H48.733V445.752ZM48.558 451.427H53.708V453.102H48.558V451.427ZM57.183 439.477H59.183V462.077H57.183V439.477ZM52.658 440.052H54.608V460.927H52.658V440.052ZM47.608 442.327H49.608C49.608 448.252 47.233 453.577 41.158 457.202L39.958 455.727C45.233 452.527 47.608 448.027 47.608 442.702V442.327ZM40.958 442.327H48.433V444.027H40.958V442.327ZM63.806 441.527H77.031V443.077H63.806V441.527ZM70.431 443.952C73.681 443.952 75.806 445.252 75.806 447.302C75.806 449.377 73.681 450.677 70.431 450.677C67.206 450.677 65.081 449.377 65.081 447.302C65.081 445.252 67.206 443.952 70.431 443.952ZM70.431 445.402C68.406 445.402 67.031 446.127 67.031 447.302C67.031 448.452 68.406 449.227 70.431 449.227C72.506 449.227 73.831 448.452 73.831 447.302C73.831 446.127 72.506 445.402 70.431 445.402ZM69.381 439.327H71.481V442.352H69.381V439.327ZM69.381 449.852H71.481V452.927H69.381V449.852ZM79.381 439.502H81.456V454.627H79.381V439.502ZM66.306 455.677H81.456V462.077H79.381V457.327H66.306V455.677ZM63.356 453.927L63.081 452.252C67.231 452.252 72.831 452.227 77.581 451.577L77.731 453.027C72.806 453.852 67.431 453.927 63.356 453.927ZM101.283 448.402H105.558V450.102H101.283V448.402ZM96.6826 445.252H98.2826V446.427C98.2826 450.927 96.4076 455.477 93.1076 457.452L91.8826 455.877C94.9326 454.102 96.6826 450.127 96.6826 446.427V445.252ZM97.0576 445.252H98.6576V446.427C98.6576 450.027 100.458 453.752 103.508 455.402L102.333 456.952C99.0076 455.102 97.0576 450.827 97.0576 446.427V445.252ZM92.5076 443.627H102.833V445.352H92.5076V443.627ZM96.6826 440.277H98.6826V444.952H96.6826V440.277ZM109.258 439.477H111.258V462.077H109.258V439.477ZM104.733 440.002H106.683V460.927H104.733V440.002ZM117.506 441.777H131.856V443.477H117.506V441.777ZM115.081 457.202H135.506V458.952H115.081V457.202ZM130.956 441.777H132.981V444.552C132.981 447.877 132.981 450.952 132.031 455.577L129.981 455.377C130.956 451.027 130.956 447.802 130.956 444.552V441.777ZM131.481 448.027V449.577L117.206 450.352L116.906 448.627L131.481 448.027ZM153.379 439.477H155.454V462.077H153.379V439.477ZM154.954 448.752H159.154V450.502H154.954V448.752ZM137.954 443.077H151.279V444.777H137.954V443.077ZM144.704 446.652C147.904 446.652 150.204 448.802 150.204 451.852C150.204 454.902 147.904 457.052 144.704 457.052C141.529 457.052 139.204 454.902 139.204 451.852C139.204 448.802 141.529 446.652 144.704 446.652ZM144.704 448.377C142.654 448.377 141.179 449.802 141.179 451.852C141.179 453.877 142.654 455.327 144.704 455.327C146.754 455.327 148.229 453.877 148.229 451.852C148.229 449.802 146.754 448.377 144.704 448.377ZM143.629 439.752H145.704V443.852H143.629V439.752ZM177.527 439.477H179.602V462.077H177.527V439.477ZM170.902 441.902H172.952C172.952 448.452 170.002 454.177 162.452 457.877L161.352 456.202C167.877 453.052 170.902 448.252 170.902 442.252V441.902ZM162.377 441.902H171.802V443.602H162.377V441.902Z" fill="#424242" fill-opacity="0.7"/>
<path d="M968 134L968 528" stroke="#2DAB93" stroke-width="3"/>
<rect x="905.928" y="111.312" width="124" height="56" rx="28" fill="#A9E9DD"/>
<rect x="905.928" y="111.312" width="124" height="56" rx="28" stroke="#38D6B8" stroke-width="2"/>
<rect x="905.928" y="111.312" width="124" height="56" rx="28" stroke="black" stroke-opacity="0.2" stroke-width="2"/>
<path d="M954.855 134.487H959.555V137.137H954.855V134.487ZM954.73 140.262H959.455V142.912H954.73V140.262ZM962.705 128.387H965.88V151.537H962.705V128.387ZM957.93 128.887H961.03V150.512H957.93V128.887ZM952.705 131.112H955.905C955.905 137.687 953.93 142.937 947.48 146.737L945.605 144.412C950.83 141.237 952.705 137.387 952.705 131.787V131.112ZM946.93 131.112H953.83V133.762H946.93V131.112ZM969.703 130.087H983.303V132.462H969.703V130.087ZM976.503 133.012C979.953 133.012 982.253 134.387 982.253 136.487C982.253 138.612 979.953 139.962 976.503 139.962C973.053 139.962 970.753 138.612 970.753 136.487C970.753 134.387 973.053 133.012 976.503 133.012ZM976.503 135.212C974.953 135.212 973.928 135.637 973.928 136.487C973.928 137.312 974.953 137.762 976.503 137.762C978.078 137.762 979.078 137.312 979.078 136.487C979.078 135.637 978.078 135.212 976.503 135.212ZM974.828 128.237H978.178V131.287H974.828V128.237ZM974.828 138.737H978.178V141.962H974.828V138.737ZM984.878 128.412H988.228V144.087H984.878V128.412ZM972.228 144.987H988.228V151.537H984.878V147.537H972.228V144.987ZM969.453 143.637L969.053 141.112C973.228 141.112 978.778 141.087 983.503 140.487L983.753 142.712C978.853 143.562 973.528 143.637 969.453 143.637Z" fill="#424242" fill-opacity="0.8"/>
<rect x="855.446" y="231" width="223" height="56" rx="28" fill="#CFEFE9"/>
<rect x="855.446" y="231" width="223" height="56" rx="28" fill="white" fill-opacity="0.6"/>
<rect x="855.446" y="231" width="223" height="56" rx="28" stroke="#38D6B8" stroke-width="2"/>
<rect x="855.446" y="231" width="223" height="56" rx="28" stroke="black" stroke-opacity="0.2" stroke-width="2"/>
<path d="M896.15 266.3H916.625V268.025H896.15V266.3ZM905.25 260.825H907.3V266.875H905.25V260.825ZM905.2 249.85H907V251.6C907 256.425 902.375 260.15 897.825 261.1L896.95 259.375C900.925 258.65 905.2 255.325 905.2 251.6V249.85ZM905.575 249.85H907.375V251.6C907.375 255.35 911.675 258.65 915.65 259.375L914.75 261.1C910.2 260.15 905.575 256.425 905.575 251.6V249.85ZM935.548 248.325H937.623V270.975H935.548V248.325ZM920.423 250.25H922.473V256.225H928.998V250.25H931.073V265.525H920.423V250.25ZM922.473 257.875V263.825H928.998V257.875H922.473ZM944.721 261.9H946.771V264.525H957.821V261.9H959.896V270.65H944.721V261.9ZM946.771 266.125V268.975H957.821V266.125H946.771ZM942.121 258.65H962.546V260.325H942.121V258.65ZM951.296 248.6H953.071V249.6C953.071 253.525 948.696 256.35 944.046 257.05L943.296 255.425C947.371 254.875 951.296 252.45 951.296 249.6V248.6ZM951.621 248.6H953.396V249.6C953.396 252.4 957.371 254.875 961.396 255.425L960.621 257.05C956.021 256.35 951.621 253.475 951.621 249.6V248.6ZM966.344 250.1H976.344V251.8H966.344V250.1ZM969.744 255.15H971.794V260.8H969.744V255.15ZM975.519 250.1H977.569V251.3C977.569 252.775 977.569 255.025 976.969 258L974.944 257.775C975.519 254.8 975.519 252.75 975.519 251.3V250.1ZM980.644 248.35H982.719V265.375H980.644V248.35ZM981.769 255.7H985.944V257.425H981.769V255.7ZM968.444 268.75H983.444V270.45H968.444V268.75ZM968.444 263.8H970.494V269.275H968.444V263.8ZM965.194 261.775L964.969 260.075C968.994 260.075 974.544 259.975 979.119 259.35L979.269 260.85C974.569 261.675 969.169 261.775 965.194 261.775ZM1000.15 258.95H1002.22V261.85H1000.15V258.95ZM1009.67 248.375H1011.75V263.525H1009.67V248.375ZM1010.87 255.2H1015.05V256.925H1010.87V255.2ZM994.371 262.875L994.096 261.175C998.146 261.175 1003.65 261.175 1008.32 260.5L1008.5 261.975C1003.67 262.825 998.321 262.85 994.371 262.875ZM996.896 264.65H1011.75V270.95H1009.67V266.3H996.896V264.65ZM994.671 250.4H1007.65V251.95H994.671V250.4ZM1001.17 252.825C1004.35 252.825 1006.42 254.1 1006.42 256.175C1006.42 258.25 1004.35 259.525 1001.17 259.525C997.971 259.525 995.896 258.25 995.896 256.175C995.896 254.1 997.971 252.825 1001.17 252.825ZM1001.17 254.25C999.146 254.25 997.846 254.975 997.846 256.175C997.846 257.325 999.146 258.075 1001.17 258.075C1003.17 258.075 1004.47 257.325 1004.47 256.175C1004.47 254.975 1003.17 254.25 1001.17 254.25ZM1000.15 248.175H1002.22V251.15H1000.15V248.175ZM1033.67 248.375H1035.77V264.875H1033.67V248.375ZM1021.24 268.75H1036.44V270.45H1021.24V268.75ZM1021.24 263.175H1023.29V269.325H1021.24V263.175ZM1023.64 249.925C1027.02 249.925 1029.52 252.225 1029.52 255.5C1029.52 258.75 1027.02 261.075 1023.64 261.075C1020.27 261.075 1017.74 258.75 1017.74 255.5C1017.74 252.225 1020.27 249.925 1023.64 249.925ZM1023.64 251.725C1021.44 251.725 1019.77 253.275 1019.77 255.5C1019.77 257.7 1021.44 259.25 1023.64 259.25C1025.84 259.25 1027.52 257.7 1027.52 255.5C1027.52 253.275 1025.84 251.725 1023.64 251.725Z" fill="#424242" fill-opacity="0.7"/>
<rect x="878.817" y="320.745" width="177" height="56" rx="28" fill="#CFEFE9"/>
<rect x="878.817" y="320.745" width="177" height="56" rx="28" fill="white" fill-opacity="0.6"/>
<rect x="878.817" y="320.745" width="177" height="56" rx="28" stroke="#38D6B8" stroke-width="2"/>
<rect x="878.817" y="320.745" width="177" height="56" rx="28" stroke="black" stroke-opacity="0.2" stroke-width="2"/>
<path d="M928.269 344.37H933.294V346.045H928.269V344.37ZM928.094 350.045H933.244V351.72H928.094V350.045ZM936.719 338.095H938.719V360.695H936.719V338.095ZM932.194 338.67H934.144V359.545H932.194V338.67ZM927.144 340.945H929.144C929.144 346.87 926.769 352.195 920.694 355.82L919.494 354.345C924.769 351.145 927.144 346.645 927.144 341.32V340.945ZM920.494 340.945H927.969V342.645H920.494V340.945ZM943.342 340.145H956.567V341.695H943.342V340.145ZM949.967 342.57C953.217 342.57 955.342 343.87 955.342 345.92C955.342 347.995 953.217 349.295 949.967 349.295C946.742 349.295 944.617 347.995 944.617 345.92C944.617 343.87 946.742 342.57 949.967 342.57ZM949.967 344.02C947.942 344.02 946.567 344.745 946.567 345.92C946.567 347.07 947.942 347.845 949.967 347.845C952.042 347.845 953.367 347.07 953.367 345.92C953.367 344.745 952.042 344.02 949.967 344.02ZM948.917 337.945H951.017V340.97H948.917V337.945ZM948.917 348.47H951.017V351.545H948.917V348.47ZM958.917 338.12H960.992V353.245H958.917V338.12ZM945.842 354.295H960.992V360.695H958.917V355.945H945.842V354.295ZM942.892 352.545L942.617 350.87C946.767 350.87 952.367 350.845 957.117 350.195L957.267 351.645C952.342 352.47 946.967 352.545 942.892 352.545ZM977.519 348.695H979.594V351.595H977.519V348.695ZM987.044 338.12H989.119V353.27H987.044V338.12ZM988.244 344.945H992.419V346.67H988.244V344.945ZM971.744 352.62L971.469 350.92C975.519 350.92 981.019 350.92 985.694 350.245L985.869 351.72C981.044 352.57 975.694 352.595 971.744 352.62ZM974.269 354.395H989.119V360.695H987.044V356.045H974.269V354.395ZM972.044 340.145H985.019V341.695H972.044V340.145ZM978.544 342.57C981.719 342.57 983.794 343.845 983.794 345.92C983.794 347.995 981.719 349.27 978.544 349.27C975.344 349.27 973.269 347.995 973.269 345.92C973.269 343.845 975.344 342.57 978.544 342.57ZM978.544 343.995C976.519 343.995 975.219 344.72 975.219 345.92C975.219 347.07 976.519 347.82 978.544 347.82C980.544 347.82 981.844 347.07 981.844 345.92C981.844 344.72 980.544 343.995 978.544 343.995ZM977.519 337.92H979.594V340.895H977.519V337.92ZM1011.04 338.12H1013.14V354.62H1011.04V338.12ZM998.617 358.495H1013.82V360.195H998.617V358.495ZM998.617 352.92H1000.67V359.07H998.617V352.92ZM1001.02 339.67C1004.39 339.67 1006.89 341.97 1006.89 345.245C1006.89 348.495 1004.39 350.82 1001.02 350.82C997.642 350.82 995.117 348.495 995.117 345.245C995.117 341.97 997.642 339.67 1001.02 339.67ZM1001.02 341.47C998.817 341.47 997.142 343.02 997.142 345.245C997.142 347.445 998.817 348.995 1001.02 348.995C1003.22 348.995 1004.89 347.445 1004.89 345.245C1004.89 343.02 1003.22 341.47 1001.02 341.47Z" fill="#424242" fill-opacity="0.7"/>
<rect x="805.9" y="410.49" width="321" height="56" rx="28" fill="#CFEFE9"/>
<rect x="805.9" y="410.49" width="321" height="56" rx="28" fill="white" fill-opacity="0.6"/>
<rect x="805.9" y="410.49" width="321" height="56" rx="28" stroke="#38D6B8" stroke-width="2"/>
<rect x="805.9" y="410.49" width="321" height="56" rx="28" stroke="black" stroke-opacity="0.2" stroke-width="2"/>
<path d="M851.781 441.815H853.906V450.44H851.781V441.815ZM859.556 441.815H861.681V450.44H859.556V441.815ZM846.531 440.69H867.031V442.415H846.531V440.69ZM856.731 428.74C861.456 428.74 864.631 430.64 864.631 433.665C864.631 436.665 861.456 438.59 856.731 438.59C852.031 438.59 848.831 436.665 848.831 433.665C848.831 430.64 852.031 428.74 856.731 428.74ZM856.731 430.415C853.281 430.415 850.931 431.69 850.931 433.665C850.931 435.64 853.281 436.915 856.731 436.915C860.181 436.915 862.506 435.64 862.506 433.665C862.506 431.69 860.181 430.415 856.731 430.415ZM875.079 429.79H876.779V433.84C876.779 438.84 874.079 443.715 870.504 445.615L869.229 443.965C872.504 442.315 875.079 437.965 875.079 433.84V429.79ZM875.454 429.79H877.129V433.84C877.129 437.815 879.654 441.94 882.854 443.54L881.579 445.19C878.079 443.315 875.454 438.69 875.454 433.84V429.79ZM884.829 427.84H886.929V450.44H884.829V427.84ZM886.429 436.99H890.629V438.74H886.429V436.99ZM898.552 430.165H900.277V431.965C900.277 436.115 897.727 439.59 893.927 440.94L892.852 439.315C896.252 438.115 898.552 435.165 898.552 431.965V430.165ZM898.952 430.165H900.677V431.965C900.677 435.015 903.027 437.765 906.377 438.89L905.302 440.515C901.552 439.24 898.952 435.915 898.952 431.965V430.165ZM908.977 427.84H911.077V441.515H908.977V427.84ZM895.977 442.715H911.077V450.44H908.977V444.415H895.977V442.715ZM893.402 429.415H905.777V431.09H893.402V429.415ZM924.7 435.865H926.75V440.065H924.7V435.865ZM915.525 439.09H935.95V440.765H915.525V439.09ZM925.725 442.615C930.575 442.615 933.475 444.015 933.475 446.515C933.475 449.015 930.575 450.39 925.725 450.39C920.875 450.39 917.975 449.015 917.975 446.515C917.975 444.015 920.875 442.615 925.725 442.615ZM925.725 444.215C922.175 444.215 920.075 445.04 920.075 446.515C920.075 447.99 922.175 448.79 925.725 448.79C929.3 448.79 931.375 447.99 931.375 446.515C931.375 445.04 929.3 444.215 925.725 444.215ZM924.4 429.69H926.25V430.365C926.25 433.99 922.1 436.44 917.4 437.015L916.65 435.34C920.725 434.94 924.4 432.915 924.4 430.365V429.69ZM925.275 429.69H927.1V430.365C927.1 432.915 930.775 434.94 934.85 435.34L934.1 437.015C929.425 436.44 925.275 433.99 925.275 430.365V429.69ZM917.4 428.865H934.125V430.54H917.4V428.865ZM944.651 445.79H965.126V447.515H944.651V445.79ZM953.751 440.315H955.801V446.365H953.751V440.315ZM953.701 429.34H955.501V431.09C955.501 435.915 950.876 439.64 946.326 440.59L945.451 438.865C949.426 438.14 953.701 434.815 953.701 431.09V429.34ZM954.076 429.34H955.876V431.09C955.876 434.84 960.176 438.14 964.151 438.865L963.251 440.59C958.701 439.64 954.076 435.915 954.076 431.09V429.34ZM984.05 427.815H986.125V450.465H984.05V427.815ZM968.925 429.74H970.975V435.715H977.5V429.74H979.575V445.015H968.925V429.74ZM970.975 437.365V443.315H977.5V437.365H970.975ZM993.223 441.39H995.273V444.015H1006.32V441.39H1008.4V450.14H993.223V441.39ZM995.273 445.615V448.465H1006.32V445.615H995.273ZM990.623 438.14H1011.05V439.815H990.623V438.14ZM999.798 428.09H1001.57V429.09C1001.57 433.015 997.198 435.84 992.548 436.54L991.798 434.915C995.873 434.365 999.798 431.94 999.798 429.09V428.09ZM1000.12 428.09H1001.9V429.09C1001.9 431.89 1005.87 434.365 1009.9 434.915L1009.12 436.54C1004.52 435.84 1000.12 432.965 1000.12 429.09V428.09ZM1014.85 429.59H1024.85V431.29H1014.85V429.59ZM1018.25 434.64H1020.3V440.29H1018.25V434.64ZM1024.02 429.59H1026.07V430.79C1026.07 432.265 1026.07 434.515 1025.47 437.49L1023.45 437.265C1024.02 434.29 1024.02 432.24 1024.02 430.79V429.59ZM1029.15 427.84H1031.22V444.865H1029.15V427.84ZM1030.27 435.19H1034.45V436.915H1030.27V435.19ZM1016.95 448.24H1031.95V449.94H1016.95V448.24ZM1016.95 443.29H1019V448.765H1016.95V443.29ZM1013.7 441.265L1013.47 439.565C1017.5 439.565 1023.05 439.465 1027.62 438.84L1027.77 440.34C1023.07 441.165 1017.67 441.265 1013.7 441.265ZM1048.65 438.44H1050.72V441.34H1048.65V438.44ZM1058.17 427.865H1060.25V443.015H1058.17V427.865ZM1059.37 434.69H1063.55V436.415H1059.37V434.69ZM1042.87 442.365L1042.6 440.665C1046.65 440.665 1052.15 440.665 1056.82 439.99L1057 441.465C1052.17 442.315 1046.82 442.34 1042.87 442.365ZM1045.4 444.14H1060.25V450.44H1058.17V445.79H1045.4V444.14ZM1043.17 429.89H1056.15V431.44H1043.17V429.89ZM1049.67 432.315C1052.85 432.315 1054.92 433.59 1054.92 435.665C1054.92 437.74 1052.85 439.015 1049.67 439.015C1046.47 439.015 1044.4 437.74 1044.4 435.665C1044.4 433.59 1046.47 432.315 1049.67 432.315ZM1049.67 433.74C1047.65 433.74 1046.35 434.465 1046.35 435.665C1046.35 436.815 1047.65 437.565 1049.67 437.565C1051.67 437.565 1052.97 436.815 1052.97 435.665C1052.97 434.465 1051.67 433.74 1049.67 433.74ZM1048.65 427.665H1050.72V430.64H1048.65V427.665ZM1082.17 427.865H1084.27V444.365H1082.17V427.865ZM1069.75 448.24H1084.95V449.94H1069.75V448.24ZM1069.75 442.665H1071.8V448.815H1069.75V442.665ZM1072.15 429.415C1075.52 429.415 1078.02 431.715 1078.02 434.99C1078.02 438.24 1075.52 440.565 1072.15 440.565C1068.77 440.565 1066.25 438.24 1066.25 434.99C1066.25 431.715 1068.77 429.415 1072.15 429.415ZM1072.15 431.215C1069.95 431.215 1068.27 432.765 1068.27 434.99C1068.27 437.19 1069.95 438.74 1072.15 438.74C1074.35 438.74 1076.02 437.19 1076.02 434.99C1076.02 432.765 1074.35 431.215 1072.15 431.215Z" fill="#424242" fill-opacity="0.7"/>
<rect x="893.775" y="500.235" width="147" height="56" rx="28" fill="#CFEFE9"/>
<rect x="893.775" y="500.235" width="147" height="56" rx="28" fill="white" fill-opacity="0.6"/>
<rect x="893.775" y="500.235" width="147" height="56" rx="28" stroke="#38D6B8" stroke-width="2"/>
<rect x="893.775" y="500.235" width="147" height="56" rx="28" stroke="black" stroke-opacity="0.2" stroke-width="2"/>
<path d="M936.628 518.535H951.178V520.21H936.628V518.535ZM934.028 525.985H954.503V527.685H934.028V525.985ZM949.828 518.535H951.853V519.985C951.853 521.61 951.853 523.71 951.253 526.51L949.228 526.285C949.828 523.535 949.828 521.585 949.828 519.985V518.535ZM936.428 529.91H951.928V535.66H938.553V538.81H936.478V534.06H949.878V531.585H936.428V529.91ZM936.478 538.26H952.503V539.935H936.478V538.26ZM961.726 519.385H963.351V522.26C963.351 525.56 961.576 529.185 958.301 530.71L957.201 529.16C960.101 527.81 961.726 524.76 961.726 522.26V519.385ZM962.176 519.385H963.801V522.26C963.801 524.635 965.226 527.86 968.126 529.31L967.201 530.985C963.751 529.36 962.176 525.41 962.176 522.26V519.385ZM970.626 519.385H972.226V522.26C972.226 525.56 970.676 529.41 967.201 530.985L966.301 529.31C969.201 527.91 970.626 524.785 970.626 522.26V519.385ZM971.101 519.385H972.701V522.26C972.701 525.01 974.301 527.885 977.251 529.16L976.126 530.71C972.826 529.235 971.101 525.835 971.101 522.26V519.385ZM957.001 535.435H977.501V537.16H957.001V535.435ZM996.474 517.585H998.549V540.185H996.474V517.585ZM989.849 520.01H991.899C991.899 526.56 988.949 532.285 981.399 535.985L980.299 534.31C986.824 531.16 989.849 526.36 989.849 520.36V520.01ZM981.324 520.01H990.749V521.71H981.324V520.01Z" fill="#424242" fill-opacity="0.7"/>
<path d="M1313.45 134.15V605.778" stroke="#2DAB93" stroke-width="3"/>
<rect x="1241.54" y="111.312" width="147" height="56" rx="28" fill="#A9E9DD"/>
<rect x="1241.54" y="111.312" width="147" height="56" rx="28" stroke="#38D6B8" stroke-width="2"/>
<rect x="1241.54" y="111.312" width="147" height="56" rx="28" stroke="black" stroke-opacity="0.2" stroke-width="2"/>
<path d="M1282.64 130.262H1290.69V132.912H1282.64V130.262ZM1288.86 130.262H1291.96V132.112C1291.96 134.262 1291.96 136.787 1291.21 140.212L1288.14 139.912C1288.86 136.562 1288.86 134.212 1288.86 132.112V130.262ZM1290.59 134.587V136.912L1282.44 137.562L1282.06 134.962L1290.59 134.587ZM1298.64 128.387H1301.79V151.537H1298.64V128.387ZM1294.01 128.762H1297.11V150.462H1294.01V128.762ZM1290.34 143.187H1295.01V145.662H1290.34V143.187ZM1285.54 140.912H1288.69V149.737H1285.54V140.912ZM1281.56 142.287L1281.21 139.562C1284.29 139.562 1289.24 139.512 1292.86 138.962L1293.06 141.412C1289.36 142.162 1284.59 142.287 1281.56 142.287ZM1313.14 129.712H1316.04V131.387C1316.04 136.412 1312.46 140.862 1306.46 142.037L1305.04 139.287C1310.26 138.387 1313.14 134.712 1313.14 131.387V129.712ZM1313.81 129.712H1316.69V131.387C1316.69 134.787 1319.54 138.387 1324.79 139.287L1323.36 142.037C1317.36 140.862 1313.81 136.487 1313.81 131.387V129.712ZM1304.56 146.012H1325.51V148.712H1304.56V146.012ZM1330.01 140.312H1346.29V142.912H1330.01V140.312ZM1327.56 146.187H1348.51V148.887H1327.56V146.187ZM1330.01 130.062H1346.09V132.737H1333.39V141.037H1330.01V130.062ZM1332.36 135.162H1345.56V137.737H1332.36V135.162Z" fill="#424242" fill-opacity="0.8"/>
<rect x="1215.36" y="230.971" width="200" height="56" rx="28" fill="#CFEFE9"/>
<rect x="1215.36" y="230.971" width="200" height="56" rx="28" fill="white" fill-opacity="0.6"/>
<rect x="1215.36" y="230.971" width="200" height="56" rx="28" stroke="#38D6B8" stroke-width="2"/>
<rect x="1215.36" y="230.971" width="200" height="56" rx="28" stroke="black" stroke-opacity="0.2" stroke-width="2"/>
<path d="M1258.66 249.246H1273.86V256.946H1258.66V249.246ZM1271.81 250.921H1260.69V255.271H1271.81V250.921ZM1256.04 259.771H1276.46V261.446H1256.04V259.771ZM1265.24 256.496H1267.29V260.396H1265.24V256.496ZM1258.31 263.771H1273.94V270.921H1271.86V265.471H1258.31V263.771ZM1284.71 260.571H1286.79V267.021H1284.71V260.571ZM1291.69 260.571H1293.74V267.021H1291.69V260.571ZM1279.06 266.471H1299.54V268.196H1279.06V266.471ZM1280.84 250.396H1297.61V252.096H1280.84V250.396ZM1280.89 259.446H1297.59V261.121H1280.89V259.446ZM1284.36 251.771H1286.44V259.796H1284.36V251.771ZM1292.06 251.771H1294.11V259.796H1292.06V251.771ZM1309.09 250.346H1319.46V260.821H1309.09V250.346ZM1317.44 252.021H1311.11V259.146H1317.44V252.021ZM1323.61 248.296H1325.69V264.871H1323.61V248.296ZM1325.04 255.196H1329.04V256.921H1325.04V255.196ZM1311.61 268.721H1326.71V270.421H1311.61V268.721ZM1311.61 263.296H1313.69V269.446H1311.61V263.296ZM1331.16 257.746H1351.59V259.446H1331.16V257.746ZM1333.86 254.246H1349.16V255.921H1333.86V254.246ZM1333.86 249.046H1348.91V250.746H1335.91V255.596H1333.86V249.046ZM1333.61 261.396H1348.96V266.721H1335.71V269.571H1333.66V265.171H1346.91V263.021H1333.61V261.396ZM1333.66 269.021H1349.64V270.671H1333.66V269.021ZM1370.61 248.321H1372.68V270.921H1370.61V248.321ZM1363.98 250.746H1366.03C1366.03 257.296 1363.08 263.021 1355.53 266.721L1354.43 265.046C1360.96 261.896 1363.98 257.096 1363.98 251.096V250.746ZM1355.46 250.746H1364.88V252.446H1355.46V250.746Z" fill="#424242" fill-opacity="0.7"/>
<rect x="1215.36" y="320.716" width="200" height="56" rx="28" fill="#CFEFE9"/>
<rect x="1215.36" y="320.716" width="200" height="56" rx="28" fill="white" fill-opacity="0.6"/>
<rect x="1215.36" y="320.716" width="200" height="56" rx="28" stroke="#38D6B8" stroke-width="2"/>
<rect x="1215.36" y="320.716" width="200" height="56" rx="28" stroke="black" stroke-opacity="0.2" stroke-width="2"/>
<path d="M1262.06 339.791C1265.39 339.791 1267.74 342.866 1267.74 347.666C1267.74 352.491 1265.39 355.566 1262.06 355.566C1258.74 355.566 1256.39 352.491 1256.39 347.666C1256.39 342.866 1258.74 339.791 1262.06 339.791ZM1262.06 341.666C1259.86 341.666 1258.36 344.016 1258.36 347.666C1258.36 351.341 1259.86 353.741 1262.06 353.741C1264.24 353.741 1265.76 351.341 1265.76 347.666C1265.76 344.016 1264.24 341.666 1262.06 341.666ZM1271.34 338.066H1273.44V360.666H1271.34V338.066ZM1272.94 347.091H1277.14V348.841H1272.94V347.091ZM1295.46 338.041H1297.54V360.691H1295.46V338.041ZM1285.61 339.791C1288.96 339.791 1291.36 342.866 1291.36 347.666C1291.36 352.491 1288.96 355.566 1285.61 355.566C1282.29 355.566 1279.89 352.491 1279.89 347.666C1279.89 342.866 1282.29 339.791 1285.61 339.791ZM1285.61 341.666C1283.41 341.666 1281.86 344.016 1281.86 347.666C1281.86 351.341 1283.41 353.741 1285.61 353.741C1287.84 353.741 1289.36 351.341 1289.36 347.666C1289.36 344.016 1287.84 341.666 1285.61 341.666ZM1304.46 339.141H1319.01V340.841H1304.46V339.141ZM1317.88 339.141H1319.93V341.066C1319.93 343.141 1319.93 345.466 1319.31 348.541L1317.26 348.391C1317.88 345.341 1317.88 343.116 1317.88 341.066V339.141ZM1318.48 343.266V344.816L1304.21 345.491L1303.91 343.716L1318.48 343.266ZM1302.06 350.041H1322.46V351.741H1302.06V350.041ZM1310.33 346.791H1312.41V351.116H1310.33V346.791ZM1304.66 358.616H1320.43V360.316H1304.66V358.616ZM1304.66 353.666H1306.73V359.316H1304.66V353.666ZM1342.74 343.391H1348.44V345.116H1342.74V343.391ZM1336.81 339.441H1338.49V342.216C1338.49 346.591 1336.04 350.241 1332.26 351.766L1331.19 350.116C1334.54 348.866 1336.81 345.666 1336.81 342.216V339.441ZM1337.21 339.441H1338.89V342.291C1338.89 345.441 1341.09 348.416 1344.36 349.616L1343.24 351.216C1339.64 349.816 1337.21 346.316 1337.21 342.291V339.441ZM1347.66 338.091H1349.74V354.991H1347.66V338.091ZM1335.21 358.466H1350.29V360.166H1335.21V358.466ZM1335.21 353.116H1337.29V359.266H1335.21V353.116ZM1355.11 348.866H1356.56C1360.11 348.866 1362.21 348.791 1364.73 348.291L1364.93 349.991C1362.33 350.491 1360.18 350.591 1356.56 350.591H1355.11V348.866ZM1355.11 339.716H1363.86V341.416H1357.11V349.791H1355.11V339.716ZM1356.48 344.216H1363.58V345.841H1356.48V344.216ZM1371.21 338.066H1373.18V351.766H1371.21V338.066ZM1367.56 343.966H1371.83V345.666H1367.56V343.966ZM1366.23 338.491H1368.18V351.641H1366.23V338.491ZM1358.03 352.966H1373.18V360.666H1371.13V354.666H1358.03V352.966Z" fill="#424242" fill-opacity="0.7"/>
<rect x="1226.58" y="410.461" width="177" height="56" rx="28" fill="#CFEFE9"/>
<rect x="1226.58" y="410.461" width="177" height="56" rx="28" fill="white" fill-opacity="0.6"/>
<rect x="1226.58" y="410.461" width="177" height="56" rx="28" stroke="#38D6B8" stroke-width="2"/>
<rect x="1226.58" y="410.461" width="177" height="56" rx="28" stroke="black" stroke-opacity="0.2" stroke-width="2"/>
<path d="M1284.43 427.811H1286.43V450.411H1284.43V427.811ZM1280.63 437.011H1284.98V438.711H1280.63V437.011ZM1279.31 428.311H1281.26V449.261H1279.31V428.311ZM1268.36 430.536H1270.43V443.586H1268.36V430.536ZM1268.36 442.761H1269.81C1272.13 442.761 1274.73 442.611 1277.68 442.036L1277.91 443.836C1274.83 444.436 1272.23 444.561 1269.81 444.561H1268.36V442.761ZM1295.3 435.461H1297.35V439.736H1295.3V435.461ZM1303.6 435.461H1305.65V439.736H1303.6V435.461ZM1290.25 438.986H1310.68V440.661H1290.25V438.986ZM1300.45 442.361C1305.3 442.361 1308.2 443.786 1308.2 446.361C1308.2 448.936 1305.3 450.386 1300.45 450.386C1295.6 450.386 1292.7 448.936 1292.7 446.361C1292.7 443.786 1295.6 442.361 1300.45 442.361ZM1300.45 443.961C1296.93 443.961 1294.8 444.836 1294.8 446.361C1294.8 447.911 1296.93 448.761 1300.45 448.761C1304 448.761 1306.1 447.911 1306.1 446.361C1306.1 444.836 1304 443.961 1300.45 443.961ZM1300.48 428.211C1305.38 428.211 1308.43 429.786 1308.43 432.436C1308.43 435.061 1305.38 436.611 1300.48 436.611C1295.55 436.611 1292.53 435.061 1292.53 432.436C1292.53 429.786 1295.55 428.211 1300.48 428.211ZM1300.48 429.836C1296.88 429.836 1294.65 430.786 1294.65 432.436C1294.65 434.061 1296.88 435.011 1300.48 435.011C1304.08 435.011 1306.3 434.061 1306.3 432.436C1306.3 430.786 1304.08 429.836 1300.48 429.836ZM1335.81 427.811H1337.91V439.936H1335.81V427.811ZM1323.33 441.061H1325.38V443.811H1335.86V441.061H1337.91V450.111H1323.33V441.061ZM1325.38 445.461V448.436H1335.86V445.461H1325.38ZM1325.78 428.886C1329.21 428.886 1331.66 431.011 1331.66 434.086C1331.66 437.186 1329.21 439.311 1325.78 439.311C1322.36 439.311 1319.88 437.186 1319.88 434.086C1319.88 431.011 1322.36 428.886 1325.78 428.886ZM1325.78 430.611C1323.53 430.611 1321.91 432.036 1321.91 434.086C1321.91 436.136 1323.53 437.561 1325.78 437.561C1328.03 437.561 1329.66 436.136 1329.66 434.086C1329.66 432.036 1328.03 430.611 1325.78 430.611ZM1343.3 439.011H1344.93C1349.38 439.011 1351.58 438.936 1354.28 438.461L1354.5 440.136C1351.7 440.636 1349.45 440.711 1344.93 440.711H1343.3V439.011ZM1343.25 429.161H1353V435.586H1345.35V440.036H1343.3V433.961H1350.95V430.861H1343.25V429.161ZM1358.88 427.836H1360.95V441.711H1358.88V427.836ZM1354.5 431.161H1359.35V432.861H1354.5V431.161ZM1354.5 435.836H1359.35V437.536H1354.5V435.836ZM1345.83 442.936H1360.95V450.461H1358.88V444.636H1345.83V442.936Z" fill="#424242" fill-opacity="0.7"/>
<rect x="1226.58" y="500.206" width="177" height="56" rx="28" fill="#CFEFE9"/>
<rect x="1226.58" y="500.206" width="177" height="56" rx="28" fill="white" fill-opacity="0.6"/>
<rect x="1226.58" y="500.206" width="177" height="56" rx="28" stroke="#38D6B8" stroke-width="2"/>
<rect x="1226.58" y="500.206" width="177" height="56" rx="28" stroke="black" stroke-opacity="0.2" stroke-width="2"/>
<path d="M1282.56 517.531H1284.66V540.156H1282.56V517.531ZM1284.08 526.706H1288.26V528.431H1284.08V526.706ZM1276.78 519.981H1278.81C1278.81 526.406 1275.86 532.206 1268.56 535.881L1267.41 534.281C1273.66 531.106 1276.78 526.281 1276.78 520.306V519.981ZM1268.46 519.981H1277.86V521.681H1268.46V519.981ZM1299.9 519.081H1302.08C1302.08 524.831 1298 528.931 1291.43 530.731L1290.6 529.106C1296.4 527.506 1299.9 524.181 1299.9 519.981V519.081ZM1291.75 519.081H1301.18V520.756H1291.75V519.081ZM1293.78 532.056H1308.85V540.106H1306.78V533.731H1293.78V532.056ZM1306.78 517.556H1308.85V531.031H1306.78V517.556ZM1301.15 521.581H1307.2V523.281H1301.15V521.581ZM1300.93 526.381H1307.05V528.081H1300.93V526.381ZM1335.81 517.556H1337.91V529.681H1335.81V517.556ZM1323.33 530.806H1325.38V533.556H1335.86V530.806H1337.91V539.856H1323.33V530.806ZM1325.38 535.206V538.181H1335.86V535.206H1325.38ZM1325.78 518.631C1329.21 518.631 1331.66 520.756 1331.66 523.831C1331.66 526.931 1329.21 529.056 1325.78 529.056C1322.36 529.056 1319.88 526.931 1319.88 523.831C1319.88 520.756 1322.36 518.631 1325.78 518.631ZM1325.78 520.356C1323.53 520.356 1321.91 521.781 1321.91 523.831C1321.91 525.881 1323.53 527.306 1325.78 527.306C1328.03 527.306 1329.66 525.881 1329.66 523.831C1329.66 521.781 1328.03 520.356 1325.78 520.356ZM1343.3 528.756H1344.93C1349.38 528.756 1351.58 528.681 1354.28 528.206L1354.5 529.881C1351.7 530.381 1349.45 530.456 1344.93 530.456H1343.3V528.756ZM1343.25 518.906H1353V525.331H1345.35V529.781H1343.3V523.706H1350.95V520.606H1343.25V518.906ZM1358.88 517.581H1360.95V531.456H1358.88V517.581ZM1354.5 520.906H1359.35V522.606H1354.5V520.906ZM1354.5 525.581H1359.35V527.281H1354.5V525.581ZM1345.83 532.681H1360.95V540.206H1358.88V534.381H1345.83V532.681Z" fill="#424242" fill-opacity="0.7"/>
<rect x="1226.58" y="589.951" width="177" height="56" rx="28" fill="#CFEFE9"/>
<rect x="1226.58" y="589.951" width="177" height="56" rx="28" fill="white" fill-opacity="0.6"/>
<rect x="1226.58" y="589.951" width="177" height="56" rx="28" stroke="#38D6B8" stroke-width="2"/>
<rect x="1226.58" y="589.951" width="177" height="56" rx="28" stroke="black" stroke-opacity="0.2" stroke-width="2"/>
<path d="M1276.22 608.101H1278.05V609.351C1278.05 613.676 1273.65 616.776 1268.95 617.576L1268.12 615.901C1272.25 615.276 1276.22 612.576 1276.22 609.351V608.101ZM1276.6 608.101H1278.4V609.351C1278.4 612.501 1282.42 615.276 1286.5 615.901L1285.67 617.576C1281.02 616.776 1276.6 613.626 1276.6 609.351V608.101ZM1276.22 621.301H1278.27V629.901H1276.22V621.301ZM1267.1 620.026H1287.52V621.751H1267.1V620.026ZM1302.15 613.151H1307.25V614.876H1302.15V613.151ZM1306.6 607.301H1308.67V620.776H1306.6V607.301ZM1301.25 621.451C1305.9 621.451 1308.77 623.026 1308.77 625.676C1308.77 628.351 1305.9 629.876 1301.25 629.876C1296.57 629.876 1293.7 628.351 1293.7 625.676C1293.7 623.026 1296.57 621.451 1301.25 621.451ZM1301.25 623.076C1297.85 623.076 1295.77 624.026 1295.77 625.676C1295.77 627.301 1297.85 628.251 1301.25 628.251C1304.65 628.251 1306.72 627.301 1306.72 625.676C1306.72 624.026 1304.65 623.076 1301.25 623.076ZM1295.85 609.576H1297.55V611.401C1297.55 615.576 1295 619.151 1291.25 620.551L1290.17 618.901C1293.52 617.676 1295.85 614.651 1295.85 611.401V609.576ZM1296.25 609.576H1297.92V611.401C1297.92 614.326 1300.12 617.126 1303.4 618.276L1302.35 619.926C1298.67 618.601 1296.25 615.201 1296.25 611.401V609.576ZM1290.8 608.951H1302.87V610.651H1290.8V608.951ZM1316.72 625.326C1316.59 625.91 1316.4 626.543 1316.17 627.226C1315.95 627.91 1315.71 628.585 1315.44 629.251C1315.19 629.935 1314.94 630.576 1314.69 631.176H1312.72C1312.87 630.526 1313.02 629.835 1313.17 629.101C1313.32 628.385 1313.46 627.676 1313.59 626.976C1313.73 626.276 1313.83 625.635 1313.89 625.051H1316.54L1316.72 625.326ZM1325.11 608.451H1326.81V610.776C1326.81 615.051 1324.36 618.576 1320.56 620.026L1319.49 618.351C1322.89 617.126 1325.11 614.151 1325.11 610.776V608.451ZM1325.49 608.451H1327.16V610.926C1327.16 613.976 1329.41 616.801 1332.66 617.926L1331.61 619.576C1327.94 618.226 1325.49 614.851 1325.49 610.926V608.451ZM1335.01 607.301H1337.09V620.976H1335.01V607.301ZM1336.51 613.251H1340.44V615.001H1336.51V613.251ZM1322.41 622.101H1337.09V629.901H1335.01V623.826H1322.41V622.101ZM1359.74 607.301H1361.74V629.901H1359.74V607.301ZM1351.51 615.401H1355.84V617.126H1351.51V615.401ZM1355.21 607.826H1357.16V628.751H1355.21V607.826ZM1347.16 610.801H1348.76V613.676C1348.76 618.626 1346.86 623.301 1343.54 625.401L1342.26 623.851C1345.41 621.951 1347.16 617.826 1347.16 613.676V610.801ZM1347.59 610.801H1349.19V613.676C1349.19 617.601 1350.89 621.526 1353.99 623.326L1352.71 624.851C1349.41 622.851 1347.59 618.401 1347.59 613.676V610.801ZM1342.89 609.926H1353.21V611.651H1342.89V609.926Z" fill="#424242" fill-opacity="0.7"/>
<path d="M1597.65 134.15L1597.65 531.926" stroke="#2DAB93" stroke-width="3"/>
<rect x="1502.36" y="111.312" width="193" height="56" rx="28" fill="#A9E9DD"/>
<rect x="1502.36" y="111.312" width="193" height="56" rx="28" stroke="#38D6B8" stroke-width="2"/>
<rect x="1502.36" y="111.312" width="193" height="56" rx="28" stroke="black" stroke-opacity="0.2" stroke-width="2"/>
<path d="M1543.06 130.562H1554.14V145.912H1543.06V130.562ZM1550.86 133.162H1546.34V143.287H1550.86V133.162ZM1557.16 128.387H1560.51V151.537H1557.16V128.387ZM1559.76 137.112H1563.86V139.862H1559.76V137.112ZM1581.24 128.362H1584.59V151.587H1581.24V128.362ZM1572.11 129.987C1575.61 129.987 1578.19 133.187 1578.19 138.237C1578.19 143.337 1575.61 146.537 1572.11 146.537C1568.61 146.537 1566.04 143.337 1566.04 138.237C1566.04 133.187 1568.61 129.987 1572.11 129.987ZM1572.11 133.012C1570.39 133.012 1569.21 134.837 1569.21 138.237C1569.21 141.687 1570.39 143.537 1572.11 143.537C1573.84 143.537 1574.99 141.687 1574.99 138.237C1574.99 134.837 1573.84 133.012 1572.11 133.012ZM1605.28 128.387H1608.46V151.537H1605.28V128.387ZM1598.51 136.812H1601.61V139.737H1598.51V136.812ZM1600.68 128.837H1603.81V150.462H1600.68V128.837ZM1588.53 130.987H1599.06V133.637H1588.53V130.987ZM1588.48 146.287L1588.13 143.587C1591.03 143.587 1595.91 143.512 1599.41 143.037L1599.63 145.437C1596.03 146.212 1591.33 146.287 1588.48 146.287ZM1589.96 132.687H1592.93V144.287H1589.96V132.687ZM1594.61 132.687H1597.61V144.287H1594.61V132.687ZM1627.23 128.362H1630.58V151.587H1627.23V128.362ZM1618.11 129.987C1621.61 129.987 1624.18 133.187 1624.18 138.237C1624.18 143.337 1621.61 146.537 1618.11 146.537C1614.61 146.537 1612.03 143.337 1612.03 138.237C1612.03 133.187 1614.61 129.987 1618.11 129.987ZM1618.11 133.012C1616.38 133.012 1615.21 134.837 1615.21 138.237C1615.21 141.687 1616.38 143.537 1618.11 143.537C1619.83 143.537 1620.98 141.687 1620.98 138.237C1620.98 134.837 1619.83 133.012 1618.11 133.012ZM1639.93 132.037H1642.58V134.637C1642.58 139.987 1640.4 145.212 1636.05 147.187L1634.18 144.562C1638.05 142.837 1639.93 138.562 1639.93 134.637V132.037ZM1640.68 132.037H1643.3V134.637C1643.3 138.387 1645.15 142.387 1649.03 143.987L1647.23 146.612C1642.83 144.712 1640.68 139.787 1640.68 134.637V132.037ZM1635.1 130.612H1648.08V133.337H1635.1V130.612ZM1650.23 128.387H1653.58V151.537H1650.23V128.387Z" fill="#424242" fill-opacity="0.8"/>
<rect x="1502.36" y="230.971" width="193" height="56" rx="28" fill="#CFEFE9"/>
<rect x="1502.36" y="230.971" width="193" height="56" rx="28" fill="white" fill-opacity="0.6"/>
<rect x="1502.36" y="230.971" width="193" height="56" rx="28" stroke="#38D6B8" stroke-width="2"/>
<rect x="1502.36" y="230.971" width="193" height="56" rx="28" stroke="black" stroke-opacity="0.2" stroke-width="2"/>
<path d="M1543.61 250.796H1553.84V252.471H1543.61V250.796ZM1547.14 257.246H1549.19V264.896H1547.14V257.246ZM1552.99 250.796H1555.01V251.996C1555.01 253.846 1555.01 256.796 1554.36 260.996L1552.31 260.796C1552.99 256.721 1552.99 253.821 1552.99 251.996V250.796ZM1557.86 248.321H1559.91V270.921H1557.86V248.321ZM1559.36 257.771H1563.54V259.521H1559.36V257.771ZM1542.61 265.996L1542.36 264.246C1546.46 264.246 1551.91 264.171 1556.49 263.596L1556.59 265.121C1551.91 265.871 1546.61 265.971 1542.61 265.996ZM1565.61 266.271H1586.09V267.996H1565.61V266.271ZM1574.71 260.796H1576.76V266.846H1574.71V260.796ZM1574.66 249.821H1576.46V251.571C1576.46 256.396 1571.84 260.121 1567.29 261.071L1566.41 259.346C1570.39 258.621 1574.66 255.296 1574.66 251.571V249.821ZM1575.04 249.821H1576.84V251.571C1576.84 255.321 1581.14 258.621 1585.11 259.346L1584.21 261.071C1579.66 260.121 1575.04 256.396 1575.04 251.571V249.821ZM1605.01 248.296H1607.08V270.946H1605.01V248.296ZM1589.88 250.221H1591.93V256.196H1598.46V250.221H1600.53V265.496H1589.88V250.221ZM1591.93 257.846V263.796H1598.46V257.846H1591.93ZM1617.58 251.546H1619.26V255.221C1619.26 259.996 1616.38 264.796 1612.78 266.571L1611.58 264.921C1614.86 263.371 1617.58 259.121 1617.58 255.221V251.546ZM1617.98 251.546H1619.66V255.221C1619.66 259.046 1622.38 262.946 1625.71 264.371L1624.53 266.021C1620.88 264.321 1617.98 259.921 1617.98 255.221V251.546ZM1612.33 250.621H1624.96V252.371H1612.33V250.621ZM1628.01 248.321H1630.08V270.921H1628.01V248.321ZM1643.73 249.121H1645.55V250.371C1645.55 254.696 1641.15 257.796 1636.45 258.596L1635.63 256.921C1639.75 256.296 1643.73 253.596 1643.73 250.371V249.121ZM1644.1 249.121H1645.9V250.371C1645.9 253.521 1649.93 256.296 1654 256.921L1653.18 258.596C1648.53 257.796 1644.1 254.646 1644.1 250.371V249.121ZM1643.73 262.321H1645.78V270.921H1643.73V262.321ZM1634.6 261.046H1655.03V262.771H1634.6V261.046Z" fill="#424242" fill-opacity="0.7"/>
<rect x="1522.92" y="320.716" width="154" height="56" rx="28" fill="#CFEFE9"/>
<rect x="1522.92" y="320.716" width="154" height="56" rx="28" fill="white" fill-opacity="0.6"/>
<rect x="1522.92" y="320.716" width="154" height="56" rx="28" stroke="#38D6B8" stroke-width="2"/>
<rect x="1522.92" y="320.716" width="154" height="56" rx="28" stroke="black" stroke-opacity="0.2" stroke-width="2"/>
<path d="M1580.78 338.066H1582.78V360.666H1580.78V338.066ZM1576.98 347.266H1581.33V348.966H1576.98V347.266ZM1575.65 338.566H1577.6V359.516H1575.65V338.566ZM1564.7 340.791H1566.78V353.841H1564.7V340.791ZM1564.7 353.016H1566.15C1568.48 353.016 1571.08 352.866 1574.03 352.291L1574.25 354.091C1571.18 354.691 1568.58 354.816 1566.15 354.816H1564.7V353.016ZM1604.78 343.916H1609.88V345.641H1604.78V343.916ZM1609.23 338.066H1611.3V351.541H1609.23V338.066ZM1603.88 352.216C1608.53 352.216 1611.4 353.791 1611.4 356.441C1611.4 359.116 1608.53 360.641 1603.88 360.641C1599.2 360.641 1596.33 359.116 1596.33 356.441C1596.33 353.791 1599.2 352.216 1603.88 352.216ZM1603.88 353.841C1600.48 353.841 1598.4 354.791 1598.4 356.441C1598.4 358.066 1600.48 359.016 1603.88 359.016C1607.28 359.016 1609.35 358.066 1609.35 356.441C1609.35 354.791 1607.28 353.841 1603.88 353.841ZM1598.48 340.341H1600.18V342.166C1600.18 346.341 1597.63 349.916 1593.88 351.316L1592.8 349.666C1596.15 348.441 1598.48 345.416 1598.48 342.166V340.341ZM1598.88 340.341H1600.55V342.166C1600.55 345.091 1602.75 347.891 1606.03 349.041L1604.98 350.691C1601.3 349.366 1598.88 345.966 1598.88 342.166V340.341ZM1593.43 339.716H1605.5V341.416H1593.43V339.716ZM1615.72 356.066H1636.2V357.791H1615.72V356.066ZM1624.87 350.666H1626.95V356.566H1624.87V350.666ZM1618.12 339.666H1620.17V343.691H1631.7V339.666H1633.75V351.216H1618.12V339.666ZM1620.17 345.366V349.516H1631.7V345.366H1620.17Z" fill="#424242" fill-opacity="0.7"/>
<rect x="1522.92" y="410.461" width="154" height="56" rx="28" fill="#CFEFE9"/>
<rect x="1522.92" y="410.461" width="154" height="56" rx="28" fill="white" fill-opacity="0.6"/>
<rect x="1522.92" y="410.461" width="154" height="56" rx="28" stroke="#38D6B8" stroke-width="2"/>
<rect x="1522.92" y="410.461" width="154" height="56" rx="28" stroke="black" stroke-opacity="0.2" stroke-width="2"/>
<path d="M1580.78 427.811H1582.78V450.411H1580.78V427.811ZM1576.98 437.011H1581.33V438.711H1576.98V437.011ZM1575.65 428.311H1577.6V449.261H1575.65V428.311ZM1564.7 430.536H1566.78V443.586H1564.7V430.536ZM1564.7 442.761H1566.15C1568.48 442.761 1571.08 442.611 1574.03 442.036L1574.25 443.836C1571.18 444.436 1568.58 444.561 1566.15 444.561H1564.7V442.761ZM1603.23 442.311H1604.98V443.036C1604.98 446.936 1600.85 449.611 1596.25 450.336L1595.5 448.711C1599.5 448.161 1603.23 445.886 1603.23 443.036V442.311ZM1603.5 442.311H1605.28V443.036C1605.28 445.886 1609 448.161 1613 448.711L1612.23 450.336C1607.68 449.611 1603.5 446.936 1603.5 443.036V442.311ZM1593.73 429.361H1595.68V432.911H1600.5V429.361H1602.48V439.886H1593.73V429.361ZM1595.68 434.536V438.211H1600.5V434.536H1595.68ZM1609.8 427.836H1611.78V443.186H1609.8V427.836ZM1606.23 433.661H1610.5V435.386H1606.23V433.661ZM1604.93 428.261H1606.9V441.186H1604.93V428.261ZM1621.7 431.036H1623.37V434.711C1623.37 439.486 1620.5 444.286 1616.9 446.061L1615.7 444.411C1618.97 442.861 1621.7 438.611 1621.7 434.711V431.036ZM1622.1 431.036H1623.77V434.711C1623.77 438.536 1626.5 442.436 1629.82 443.861L1628.65 445.511C1625 443.811 1622.1 439.411 1622.1 434.711V431.036ZM1616.45 430.111H1629.07V431.861H1616.45V430.111ZM1632.12 427.811H1634.2V450.411H1632.12V427.811Z" fill="#424242" fill-opacity="0.7"/>
<rect x="1514.51" y="500.206" width="170" height="56" rx="28" fill="#CFEFE9"/>
<rect x="1514.51" y="500.206" width="170" height="56" rx="28" fill="white" fill-opacity="0.6"/>
<rect x="1514.51" y="500.206" width="170" height="56" rx="28" stroke="#38D6B8" stroke-width="2"/>
<rect x="1514.51" y="500.206" width="170" height="56" rx="28" stroke="black" stroke-opacity="0.2" stroke-width="2"/>
<path d="M1554.76 535.656H1575.24V537.381H1554.76V535.656ZM1563.91 530.806H1565.99V536.381H1563.91V530.806ZM1557.24 519.231H1572.71V526.081H1559.36V530.606H1557.31V524.406H1570.66V520.906H1557.24V519.231ZM1557.31 529.731H1573.24V531.431H1557.31V529.731ZM1579.96 519.956H1594.51V521.631H1579.96V519.956ZM1577.76 535.131H1598.19V536.856H1577.76V535.131ZM1593.41 519.956H1595.44V522.206C1595.44 525.106 1595.44 528.331 1594.59 533.206L1592.51 533.006C1593.41 528.381 1593.41 525.006 1593.41 522.206V519.956ZM1606.76 519.281C1610.09 519.281 1612.44 522.356 1612.44 527.156C1612.44 531.981 1610.09 535.056 1606.76 535.056C1603.44 535.056 1601.09 531.981 1601.09 527.156C1601.09 522.356 1603.44 519.281 1606.76 519.281ZM1606.76 521.156C1604.56 521.156 1603.06 523.506 1603.06 527.156C1603.06 530.831 1604.56 533.231 1606.76 533.231C1608.94 533.231 1610.46 530.831 1610.46 527.156C1610.46 523.506 1608.94 521.156 1606.76 521.156ZM1616.04 517.556H1618.14V540.156H1616.04V517.556ZM1617.64 526.581H1621.84V528.331H1617.64V526.581ZM1623.73 527.881H1644.23V529.581H1623.73V527.881ZM1632.91 528.606H1634.93V532.056H1632.91V528.606ZM1632.86 533.106H1634.63V533.806C1634.63 537.256 1630.63 539.531 1625.91 540.081L1625.23 538.481C1629.31 538.056 1632.86 536.206 1632.86 533.806V533.106ZM1633.21 533.106H1634.98V533.806C1634.98 536.281 1638.51 538.081 1642.61 538.481L1641.93 540.081C1637.23 539.531 1633.21 537.331 1633.21 533.806V533.106ZM1633.96 517.881C1638.86 517.881 1641.91 519.406 1641.91 522.031C1641.91 524.656 1638.86 526.181 1633.96 526.181C1629.03 526.181 1626.01 524.656 1626.01 522.031C1626.01 519.406 1629.03 517.881 1633.96 517.881ZM1633.96 519.481C1630.33 519.481 1628.13 520.406 1628.13 522.031C1628.13 523.631 1630.33 524.581 1633.96 524.581C1637.56 524.581 1639.78 523.631 1639.78 522.031C1639.78 520.406 1637.56 519.481 1633.96 519.481Z" fill="#424242" fill-opacity="0.7"/>
<path d="M535.197 144.901L535.197 202.393" stroke="#38D6B8" stroke-width="3" stroke-linejoin="round"/>
<path d="M535.197 144.901L535.197 202.393" stroke="black" stroke-opacity="0.2" stroke-width="3" stroke-linejoin="round"/>
<rect x="445.05" y="111.312" width="176.555" height="55.0254" rx="27.5127" fill="#A9E9DD"/>
<rect x="445.05" y="111.312" width="176.555" height="55.0254" rx="27.5127" stroke="#38D6B8" stroke-width="2"/>
<rect x="445.05" y="111.312" width="176.555" height="55.0254" rx="27.5127" stroke="black" stroke-opacity="0.2" stroke-width="2"/>
<path d="M492.271 128.574H495.196V129.649C495.196 134.099 491.696 137.874 485.621 138.774L484.321 136.099C489.646 135.399 492.271 132.374 492.271 129.649V128.574ZM492.896 128.574H495.796V129.649C495.796 132.349 498.446 135.399 503.746 136.099L502.471 138.774C496.396 137.874 492.896 134.099 492.896 129.649V128.574ZM492.296 142.574H495.596V151.049H492.296V142.574ZM483.571 140.474H504.496V143.174H483.571V140.474ZM522.445 127.899H525.795V140.349H522.445V127.899ZM510.395 141.349H513.67V143.499H522.495V141.349H525.795V150.799H510.395V141.349ZM513.67 146.049V148.149H522.495V146.049H513.67ZM513.195 128.849C516.795 128.849 519.47 131.124 519.47 134.324C519.47 137.524 516.795 139.799 513.195 139.799C509.595 139.799 506.895 137.524 506.895 134.324C506.895 131.124 509.595 128.849 513.195 128.849ZM513.195 131.599C511.42 131.599 510.145 132.624 510.145 134.324C510.145 136.049 511.42 137.049 513.195 137.049C514.945 137.049 516.22 136.049 516.22 134.324C516.22 132.624 514.945 131.599 513.195 131.599ZM537.993 130.974L531.743 148.824H528.718L534.968 130.974H537.993ZM544.688 131.549H547.338V134.149C547.338 139.499 545.163 144.724 540.813 146.699L538.938 144.074C542.813 142.349 544.688 138.074 544.688 134.149V131.549ZM545.438 131.549H548.063V134.149C548.063 137.899 549.913 141.899 553.788 143.499L551.988 146.124C547.588 144.224 545.438 139.299 545.438 134.149V131.549ZM539.863 130.124H552.838V132.849H539.863V130.124ZM554.988 127.899H558.338V151.049H554.988V127.899ZM570.911 139.674H574.236V143.024H570.911V139.674ZM562.161 137.724H583.011V140.149H562.161V137.724ZM570.911 127.874H574.211V130.674H570.911V127.874ZM570.711 130.824H573.636V131.274C573.636 134.599 570.261 136.799 563.861 137.149L562.936 134.674C568.586 134.449 570.711 132.874 570.711 131.274V130.824ZM571.486 130.824H574.411V131.274C574.411 132.874 576.536 134.449 582.161 134.674L581.236 137.149C574.861 136.799 571.486 134.599 571.486 131.274V130.824ZM564.111 129.699H581.036V132.124H564.111V129.699ZM564.511 141.549H580.511V147.274H567.811V149.474H564.536V145.049H577.236V143.949H564.511V141.549ZM564.536 148.474H581.111V150.899H564.536V148.474Z" fill="#424242" fill-opacity="0.8"/>
<path d="M397.308 458.54V201.926H670.282V552.492" stroke="#2DAB93" stroke-width="3" stroke-linecap="round" stroke-linejoin="round"/>
<rect x="315.107" y="243.124" width="166.272" height="55.0254" rx="27.5127" fill="#CFEFE9"/>
<rect x="315.107" y="243.124" width="166.272" height="55.0254" rx="27.5127" fill="white" fill-opacity="0.2"/>
<rect x="315.107" y="243.124" width="166.272" height="55.0254" rx="27.5127" stroke="#38D6B8" stroke-width="2"/>
<rect x="315.107" y="243.124" width="166.272" height="55.0254" rx="27.5127" stroke="black" stroke-opacity="0.2" stroke-width="2"/>
<path d="M353.497 277.987H373.972V279.712H353.497V277.987ZM362.647 272.137H364.722V278.462H362.647V272.137ZM355.872 261.862H371.472V272.512H355.872V261.862ZM369.472 263.537H357.897V270.837H369.472V263.537ZM382.495 261.712C385.82 261.712 388.17 264.787 388.17 269.587C388.17 274.412 385.82 277.487 382.495 277.487C379.17 277.487 376.82 274.412 376.82 269.587C376.82 264.787 379.17 261.712 382.495 261.712ZM382.495 263.587C380.295 263.587 378.795 265.937 378.795 269.587C378.795 273.262 380.295 275.662 382.495 275.662C384.67 275.662 386.195 273.262 386.195 269.587C386.195 265.937 384.67 263.587 382.495 263.587ZM391.77 259.987H393.87V282.587H391.77V259.987ZM393.37 269.012H397.57V270.762H393.37V269.012ZM399.493 277.987H419.968V279.712H399.493V277.987ZM408.643 272.587H410.718V278.487H408.643V272.587ZM401.893 261.587H403.943V265.612H415.468V261.587H417.518V273.137H401.893V261.587ZM403.943 267.287V271.437H415.468V267.287H403.943ZM438.941 259.987H441.016V282.587H438.941V259.987ZM432.316 262.412H434.366C434.366 268.962 431.416 274.687 423.866 278.387L422.766 276.712C429.291 273.562 432.316 268.762 432.316 262.762V262.412ZM423.791 262.412H433.216V264.112H423.791V262.412Z" fill="#424242" fill-opacity="0.7"/>
<rect x="297" y="333" width="202" height="55" rx="27.5" fill="#CFEFE9"/>
<rect x="297" y="333" width="202" height="55" rx="27.5" fill="white" fill-opacity="0.6"/>
<rect x="297" y="333" width="202" height="55" rx="27.5" stroke="#38D6B8" stroke-width="2"/>
<rect x="297" y="333" width="202" height="55" rx="27.5" stroke="black" stroke-opacity="0.2" stroke-width="2"/>
<path d="M338.004 354H344.054V355.7H338.004V354ZM337.804 358.7H343.904V360.4H337.804V358.7ZM343.704 349.85H345.779V363.4H343.704V349.85ZM336.629 351.55H338.854C338.854 357.375 334.829 361.45 328.329 363.4L327.479 361.725C333.254 360.05 336.629 356.725 336.629 352.45V351.55ZM328.654 351.55H338.054V353.25H328.654V351.55ZM338.429 363.65C343.004 363.65 345.904 365.275 345.904 368C345.904 370.725 343.004 372.35 338.429 372.35C333.854 372.35 330.954 370.725 330.954 368C330.954 365.275 333.854 363.65 338.429 363.65ZM338.429 365.275C335.129 365.275 333.004 366.3 333.004 368C333.004 369.7 335.129 370.7 338.429 370.7C341.754 370.7 343.879 369.7 343.879 368C343.879 366.3 341.754 365.275 338.429 365.275ZM367.377 349.85H369.377V372.45H367.377V349.85ZM359.152 357.95H363.477V359.675H359.152V357.95ZM362.852 350.375H364.802V371.3H362.852V350.375ZM354.802 353.35H356.402V356.225C356.402 361.175 354.502 365.85 351.177 367.95L349.902 366.4C353.052 364.5 354.802 360.375 354.802 356.225V353.35ZM355.227 353.35H356.827V356.225C356.827 360.15 358.527 364.075 361.627 365.875L360.352 367.4C357.052 365.4 355.227 360.95 355.227 356.225V353.35ZM350.527 352.475H360.852V354.2H350.527V352.475ZM388.625 349.85H390.7V363.175H388.625V349.85ZM389.825 355.625H394V357.35H389.825V355.625ZM376.075 364.2H390.7V368.775H378.15V371.175H376.125V367.4H388.675V365.675H376.075V364.2ZM376.125 370.725H391.575V372.2H376.125V370.725ZM379.1 359.125H381.175V362H379.1V359.125ZM373.3 362.675L373.05 361.15C377.075 361.15 382.625 361.125 387.275 360.475L387.45 361.8C382.625 362.65 377.25 362.675 373.3 362.675ZM373.625 351.575H386.6V353.05H373.625V351.575ZM380.125 353.75C383.325 353.75 385.375 354.85 385.375 356.725C385.375 358.6 383.325 359.7 380.125 359.7C376.9 359.7 374.85 358.6 374.85 356.725C374.85 354.85 376.9 353.75 380.125 353.75ZM380.125 355.125C378.1 355.125 376.8 355.725 376.8 356.725C376.8 357.725 378.1 358.35 380.125 358.35C382.15 358.35 383.425 357.725 383.425 356.725C383.425 355.725 382.15 355.125 380.125 355.125ZM379.1 349.625H381.175V352.35H379.1V349.625ZM396.198 360.975H416.623V362.675H396.198V360.975ZM405.373 357.35H407.423V361.675H405.373V357.35ZM398.773 356.7H414.248V358.4H398.773V356.7ZM398.773 350.875H414.073V352.55H400.823V357.7H398.773V350.875ZM406.373 364.3C411.198 364.3 414.123 365.775 414.123 368.35C414.123 370.975 411.198 372.425 406.373 372.425C401.548 372.425 398.623 370.975 398.623 368.35C398.623 365.775 401.548 364.3 406.373 364.3ZM406.373 365.9C402.848 365.9 400.723 366.8 400.723 368.35C400.723 369.925 402.848 370.8 406.373 370.8C409.923 370.8 412.023 369.925 412.023 368.35C412.023 366.8 409.923 365.9 406.373 365.9ZM431.2 360.45H433.275V363.35H431.2V360.45ZM440.725 349.875H442.8V365.025H440.725V349.875ZM441.925 356.7H446.1V358.425H441.925V356.7ZM425.425 364.375L425.15 362.675C429.2 362.675 434.7 362.675 439.375 362L439.55 363.475C434.725 364.325 429.375 364.35 425.425 364.375ZM427.95 366.15H442.8V372.45H440.725V367.8H427.95V366.15ZM425.725 351.9H438.7V353.45H425.725V351.9ZM432.225 354.325C435.4 354.325 437.475 355.6 437.475 357.675C437.475 359.75 435.4 361.025 432.225 361.025C429.025 361.025 426.95 359.75 426.95 357.675C426.95 355.6 429.025 354.325 432.225 354.325ZM432.225 355.75C430.2 355.75 428.9 356.475 428.9 357.675C428.9 358.825 430.2 359.575 432.225 359.575C434.225 359.575 435.525 358.825 435.525 357.675C435.525 356.475 434.225 355.75 432.225 355.75ZM431.2 349.675H433.275V352.65H431.2V349.675ZM464.723 349.875H466.823V366.375H464.723V349.875ZM452.298 370.25H467.498V371.95H452.298V370.25ZM452.298 364.675H454.348V370.825H452.298V364.675ZM454.698 351.425C458.073 351.425 460.573 353.725 460.573 357C460.573 360.25 458.073 362.575 454.698 362.575C451.323 362.575 448.798 360.25 448.798 357C448.798 353.725 451.323 351.425 454.698 351.425ZM454.698 353.225C452.498 353.225 450.823 354.775 450.823 357C450.823 359.2 452.498 360.75 454.698 360.75C456.898 360.75 458.573 359.2 458.573 357C458.573 354.775 456.898 353.225 454.698 353.225Z" fill="#424242" fill-opacity="0.7"/>
<rect x="326.325" y="422.614" width="142.901" height="55.0254" rx="27.5127" fill="#CFEFE9"/>
<rect x="326.325" y="422.614" width="142.901" height="55.0254" rx="27.5127" fill="white" fill-opacity="0.6"/>
<rect x="326.325" y="422.614" width="142.901" height="55.0254" rx="27.5127" stroke="#38D6B8" stroke-width="2"/>
<rect x="326.325" y="422.614" width="142.901" height="55.0254" rx="27.5127" stroke="black" stroke-opacity="0.2" stroke-width="2"/>
<path d="M367.128 440.427H381.678V442.102H367.128V440.427ZM364.528 447.877H385.003V449.577H364.528V447.877ZM380.328 440.427H382.353V441.877C382.353 443.502 382.353 445.602 381.753 448.402L379.728 448.177C380.328 445.427 380.328 443.477 380.328 441.877V440.427ZM366.928 451.802H382.428V457.552H369.053V460.702H366.978V455.952H380.378V453.477H366.928V451.802ZM366.978 460.152H383.003V461.827H366.978V460.152ZM392.226 441.277H393.851V444.152C393.851 447.452 392.076 451.077 388.801 452.602L387.701 451.052C390.601 449.702 392.226 446.652 392.226 444.152V441.277ZM392.676 441.277H394.301V444.152C394.301 446.527 395.726 449.752 398.626 451.202L397.701 452.877C394.251 451.252 392.676 447.302 392.676 444.152V441.277ZM401.126 441.277H402.726V444.152C402.726 447.452 401.176 451.302 397.701 452.877L396.801 451.202C399.701 449.802 401.126 446.677 401.126 444.152V441.277ZM401.601 441.277H403.201V444.152C403.201 446.902 404.801 449.777 407.751 451.052L406.626 452.602C403.326 451.127 401.601 447.727 401.601 444.152V441.277ZM387.501 457.327H408.001V459.052H387.501V457.327ZM426.975 439.477H429.05V462.077H426.975V439.477ZM420.35 441.902H422.4C422.4 448.452 419.45 454.177 411.9 457.877L410.8 456.202C417.325 453.052 420.35 448.252 420.35 442.252V441.902ZM411.825 441.902H421.25V443.602H411.825V441.902Z" fill="#424242" fill-opacity="0.7"/>
<rect x="587.146" y="243.124" width="166.272" height="55.0254" rx="27.5127" fill="#CFEFE9"/>
<rect x="587.146" y="243.124" width="166.272" height="55.0254" rx="27.5127" fill="white" fill-opacity="0.2"/>
<rect x="587.146" y="243.124" width="166.272" height="55.0254" rx="27.5127" stroke="#38D6B8" stroke-width="2"/>
<rect x="587.146" y="243.124" width="166.272" height="55.0254" rx="27.5127" stroke="black" stroke-opacity="0.2" stroke-width="2"/>
<path d="M641.186 259.962H643.261V282.612H641.186V259.962ZM642.336 268.862H646.511V270.587H642.336V268.862ZM626.186 274.937H627.186C628.461 274.937 630.161 274.912 632.111 274.462L632.311 276.187C630.236 276.662 628.561 276.687 627.186 276.687H626.186V274.937ZM626.186 262.362H631.886V264.037H628.236V275.787H626.186V262.362ZM633.161 274.937H634.261C636.461 274.937 638.036 274.887 639.861 274.412L640.061 276.137C638.136 276.612 636.586 276.687 634.261 276.687H633.161V274.937ZM633.161 262.362H639.161V264.037H635.211V275.812H633.161V262.362ZM648.534 278.087H669.009V279.812H648.534V278.087ZM657.684 273.237H659.759V278.812H657.684V273.237ZM651.009 261.662H666.484V268.512H653.134V273.037H651.084V266.837H664.434V263.337H651.009V261.662ZM651.084 272.162H667.009V273.862H651.084V272.162ZM671.532 277.987H692.007V279.712H671.532V277.987ZM680.682 272.587H682.757V278.487H680.682V272.587ZM673.932 261.587H675.982V265.612H687.507V261.587H689.557V273.137H673.932V261.587ZM675.982 267.287V271.437H687.507V267.287H675.982ZM710.98 259.987H713.055V282.587H710.98V259.987ZM704.355 262.412H706.405C706.405 268.962 703.455 274.687 695.905 278.387L694.805 276.712C701.33 273.562 704.355 268.762 704.355 262.762V262.412ZM695.83 262.412H705.255V264.112H695.83V262.412Z" fill="#424242" fill-opacity="0.7"/>
<rect x="560.036" y="332.869" width="219.558" height="55.0254" rx="27.5127" fill="#CFEFE9"/>
<rect x="560.036" y="332.869" width="219.558" height="55.0254" rx="27.5127" fill="white" fill-opacity="0.6"/>
<rect x="560.036" y="332.869" width="219.558" height="55.0254" rx="27.5127" stroke="#38D6B8" stroke-width="2"/>
<rect x="560.036" y="332.869" width="219.558" height="55.0254" rx="27.5127" stroke="black" stroke-opacity="0.2" stroke-width="2"/>
<path d="M608.619 352.082H610.644C610.644 358.607 608.444 364.607 600.344 368.632L599.219 367.032C606.369 363.507 608.619 358.457 608.619 352.307V352.082ZM600.444 352.082H609.844V353.757H600.444V352.082ZM608.294 357.682V359.282L599.644 360.132L599.319 358.282L608.294 357.682ZM614.294 349.707H616.394V372.332H614.294V349.707ZM615.819 358.882H619.994V360.607H615.819V358.882ZM631.392 358.282H635.642V360.007H631.392V358.282ZM622.842 365.207H624.292C627.767 365.207 629.842 365.132 632.342 364.632L632.542 366.332C629.967 366.832 627.817 366.907 624.292 366.907H622.842V365.207ZM622.842 352.457H631.217V354.132H624.817V365.782H622.842V352.457ZM624.217 358.557H630.192V360.207H624.217V358.557ZM639.192 349.732H641.192V372.332H639.192V349.732ZM634.642 350.257H636.617V371.182H634.642V350.257ZM647.165 351.982H661.715V353.707H647.165V351.982ZM645.015 367.457H665.44V369.182H645.015V367.457ZM652.94 359.382H655.015V368.307H652.94V359.382ZM660.94 351.982H662.99V354.232C662.99 357.032 662.99 360.132 662.165 364.707L660.09 364.432C660.94 360.107 660.94 356.932 660.94 354.232V351.982ZM684.463 349.707H686.538V372.357H684.463V349.707ZM669.313 365.182H671.188C674.963 365.182 678.338 365.032 682.338 364.382L682.563 366.082C678.463 366.757 675.063 366.907 671.188 366.907H669.313V365.182ZM669.263 351.832H679.713V359.907H671.388V365.832H669.313V358.207H677.613V353.532H669.263V351.832ZM708.69 355.057H714.39V356.782H708.69V355.057ZM702.765 351.107H704.44V353.882C704.44 358.257 701.99 361.907 698.215 363.432L697.14 361.782C700.49 360.532 702.765 357.332 702.765 353.882V351.107ZM703.165 351.107H704.84V353.957C704.84 357.107 707.04 360.082 710.315 361.282L709.19 362.882C705.59 361.482 703.165 357.982 703.165 353.957V351.107ZM713.615 349.757H715.69V366.657H713.615V349.757ZM701.165 370.132H716.24V371.832H701.165V370.132ZM701.165 364.782H703.24V370.932H701.165V364.782ZM721.063 360.532H722.513C726.063 360.532 728.163 360.457 730.688 359.957L730.888 361.657C728.288 362.157 726.138 362.257 722.513 362.257H721.063V360.532ZM721.063 351.382H729.813V353.082H723.063V361.457H721.063V351.382ZM722.438 355.882H729.538V357.507H722.438V355.882ZM737.163 349.732H739.138V363.432H737.163V349.732ZM733.513 355.632H737.788V357.332H733.513V355.632ZM732.188 350.157H734.138V363.307H732.188V350.157ZM723.988 364.632H739.138V372.332H737.088V366.332H723.988V364.632Z" fill="#424242" fill-opacity="0.7"/>
<rect x="567" y="423" width="206" height="55" rx="27.5" fill="#CFEFE9"/>
<rect x="567" y="423" width="206" height="55" rx="27.5" fill="white" fill-opacity="0.6"/>
<rect x="567" y="423" width="206" height="55" rx="27.5" stroke="#38D6B8" stroke-width="2"/>
<rect x="567" y="423" width="206" height="55" rx="27.5" stroke="black" stroke-opacity="0.2" stroke-width="2"/>
<path d="M610.004 444H616.054V445.7H610.004V444ZM609.804 448.7H615.904V450.4H609.804V448.7ZM615.704 439.85H617.779V453.4H615.704V439.85ZM608.629 441.55H610.854C610.854 447.375 606.829 451.45 600.329 453.4L599.479 451.725C605.254 450.05 608.629 446.725 608.629 442.45V441.55ZM600.654 441.55H610.054V443.25H600.654V441.55ZM610.429 453.65C615.004 453.65 617.904 455.275 617.904 458C617.904 460.725 615.004 462.35 610.429 462.35C605.854 462.35 602.954 460.725 602.954 458C602.954 455.275 605.854 453.65 610.429 453.65ZM610.429 455.275C607.129 455.275 605.004 456.3 605.004 458C605.004 459.7 607.129 460.7 610.429 460.7C613.754 460.7 615.879 459.7 615.879 458C615.879 456.3 613.754 455.275 610.429 455.275ZM639.377 439.85H641.377V462.45H639.377V439.85ZM631.152 447.95H635.477V449.675H631.152V447.95ZM634.852 440.375H636.802V461.3H634.852V440.375ZM626.802 443.35H628.402V446.225C628.402 451.175 626.502 455.85 623.177 457.95L621.902 456.4C625.052 454.5 626.802 450.375 626.802 446.225V443.35ZM627.227 443.35H628.827V446.225C628.827 450.15 630.527 454.075 633.627 455.875L632.352 457.4C629.052 455.4 627.227 450.95 627.227 446.225V443.35ZM622.527 442.475H632.852V444.2H622.527V442.475ZM660.625 439.85H662.7V453.175H660.625V439.85ZM661.825 445.625H666V447.35H661.825V445.625ZM648.075 454.2H662.7V458.775H650.15V461.175H648.125V457.4H660.675V455.675H648.075V454.2ZM648.125 460.725H663.575V462.2H648.125V460.725ZM651.1 449.125H653.175V452H651.1V449.125ZM645.3 452.675L645.05 451.15C649.075 451.15 654.625 451.125 659.275 450.475L659.45 451.8C654.625 452.65 649.25 452.675 645.3 452.675ZM645.625 441.575H658.6V443.05H645.625V441.575ZM652.125 443.75C655.325 443.75 657.375 444.85 657.375 446.725C657.375 448.6 655.325 449.7 652.125 449.7C648.9 449.7 646.85 448.6 646.85 446.725C646.85 444.85 648.9 443.75 652.125 443.75ZM652.125 445.125C650.1 445.125 648.8 445.725 648.8 446.725C648.8 447.725 650.1 448.35 652.125 448.35C654.15 448.35 655.425 447.725 655.425 446.725C655.425 445.725 654.15 445.125 652.125 445.125ZM651.1 439.625H653.175V442.35H651.1V439.625ZM668.198 450.975H688.623V452.675H668.198V450.975ZM677.373 447.35H679.423V451.675H677.373V447.35ZM670.773 446.7H686.248V448.4H670.773V446.7ZM670.773 440.875H686.073V442.55H672.823V447.7H670.773V440.875ZM678.373 454.3C683.198 454.3 686.123 455.775 686.123 458.35C686.123 460.975 683.198 462.425 678.373 462.425C673.548 462.425 670.623 460.975 670.623 458.35C670.623 455.775 673.548 454.3 678.373 454.3ZM678.373 455.9C674.848 455.9 672.723 456.8 672.723 458.35C672.723 459.925 674.848 460.8 678.373 460.8C681.923 460.8 684.023 459.925 684.023 458.35C684.023 456.8 681.923 455.9 678.373 455.9ZM703.2 450.45H705.275V453.35H703.2V450.45ZM712.725 439.875H714.8V455.025H712.725V439.875ZM713.925 446.7H718.1V448.425H713.925V446.7ZM697.425 454.375L697.15 452.675C701.2 452.675 706.7 452.675 711.375 452L711.55 453.475C706.725 454.325 701.375 454.35 697.425 454.375ZM699.95 456.15H714.8V462.45H712.725V457.8H699.95V456.15ZM697.725 441.9H710.7V443.45H697.725V441.9ZM704.225 444.325C707.4 444.325 709.475 445.6 709.475 447.675C709.475 449.75 707.4 451.025 704.225 451.025C701.025 451.025 698.95 449.75 698.95 447.675C698.95 445.6 701.025 444.325 704.225 444.325ZM704.225 445.75C702.2 445.75 700.9 446.475 700.9 447.675C700.9 448.825 702.2 449.575 704.225 449.575C706.225 449.575 707.525 448.825 707.525 447.675C707.525 446.475 706.225 445.75 704.225 445.75ZM703.2 439.675H705.275V442.65H703.2V439.675ZM736.723 439.875H738.823V456.375H736.723V439.875ZM724.298 460.25H739.498V461.95H724.298V460.25ZM724.298 454.675H726.348V460.825H724.298V454.675ZM726.698 441.425C730.073 441.425 732.573 443.725 732.573 447C732.573 450.25 730.073 452.575 726.698 452.575C723.323 452.575 720.798 450.25 720.798 447C720.798 443.725 723.323 441.425 726.698 441.425ZM726.698 443.225C724.498 443.225 722.823 444.775 722.823 447C722.823 449.2 724.498 450.75 726.698 450.75C728.898 450.75 730.573 449.2 730.573 447C730.573 444.775 728.898 443.225 726.698 443.225Z" fill="#424242" fill-opacity="0.7"/>
<rect x="598.364" y="512.359" width="142.901" height="55.0254" rx="27.5127" fill="#CFEFE9"/>
<rect x="598.364" y="512.359" width="142.901" height="55.0254" rx="27.5127" fill="white" fill-opacity="0.6"/>
<rect x="598.364" y="512.359" width="142.901" height="55.0254" rx="27.5127" stroke="#38D6B8" stroke-width="2"/>
<rect x="598.364" y="512.359" width="142.901" height="55.0254" rx="27.5127" stroke="black" stroke-opacity="0.2" stroke-width="2"/>
<path d="M639.168 530.172H653.718V531.847H639.168V530.172ZM636.568 537.622H657.043V539.322H636.568V537.622ZM652.368 530.172H654.393V531.622C654.393 533.247 654.393 535.347 653.793 538.147L651.768 537.922C652.368 535.172 652.368 533.222 652.368 531.622V530.172ZM638.968 541.547H654.468V547.297H641.093V550.447H639.018V545.697H652.418V543.222H638.968V541.547ZM639.018 549.897H655.043V551.572H639.018V549.897ZM664.266 531.022H665.891V533.897C665.891 537.197 664.116 540.822 660.841 542.347L659.741 540.797C662.641 539.447 664.266 536.397 664.266 533.897V531.022ZM664.716 531.022H666.341V533.897C666.341 536.272 667.766 539.497 670.666 540.947L669.741 542.622C666.291 540.997 664.716 537.047 664.716 533.897V531.022ZM673.166 531.022H674.766V533.897C674.766 537.197 673.216 541.047 669.741 542.622L668.841 540.947C671.741 539.547 673.166 536.422 673.166 533.897V531.022ZM673.641 531.022H675.241V533.897C675.241 536.647 676.841 539.522 679.791 540.797L678.666 542.347C675.366 540.872 673.641 537.472 673.641 533.897V531.022ZM659.541 547.072H680.041V548.797H659.541V547.072ZM699.014 529.222H701.089V551.822H699.014V529.222ZM692.389 531.647H694.439C694.439 538.197 691.489 543.922 683.939 547.622L682.839 545.947C689.364 542.797 692.389 537.997 692.389 531.997V531.647ZM683.864 531.647H693.289V533.347H683.864V531.647Z" fill="#424242" fill-opacity="0.7"/>
<rect x="28.1104" y="1" width="166.272" height="55.0254" rx="27.5127" fill="#5EDCC4"/>
<rect x="28.1104" y="1" width="166.272" height="55.0254" rx="27.5127" stroke="#38D6B8" stroke-width="2"/>
<rect x="28.1104" y="1" width="166.272" height="55.0254" rx="27.5127" stroke="black" stroke-opacity="0.2" stroke-width="2"/>
<path d="M74.8501 18.9127H77.7501V20.5877C77.7501 25.6127 74.1751 30.0627 68.1751 31.2377L66.7501 28.4877C71.9751 27.5877 74.8501 23.9127 74.8501 20.5877V18.9127ZM75.5251 18.9127H78.4001V20.5877C78.4001 23.9877 81.2501 27.5877 86.5001 28.4877L85.0751 31.2377C79.0751 30.0627 75.5251 25.6877 75.5251 20.5877V18.9127ZM66.2751 35.2127H87.2251V37.9127H66.2751V35.2127ZM91.0732 18.2127H108.323V20.6877H91.0732V18.2127ZM91.2482 23.6377H108.148V26.1127H91.2482V23.6377ZM94.0232 19.1877H97.3482V25.2377H94.0232V19.1877ZM102.048 19.1877H105.373V25.2377H102.048V19.1877ZM89.2482 27.3127H110.173V29.9127H89.2482V27.3127ZM91.6482 31.1877H107.648V36.9377H94.9482V39.0877H91.6732V34.7127H104.373V33.5627H91.6482V31.1877ZM91.6732 38.1627H108.248V40.5877H91.6732V38.1627ZM112.871 32.8877H114.496C117.246 32.8877 119.671 32.8377 122.521 32.3877L122.771 35.0627C119.821 35.5627 117.321 35.6377 114.496 35.6377H112.871V32.8877ZM112.846 19.8377H121.621V28.7877H116.096V33.8877H112.871V26.1627H118.396V22.4877H112.846V19.8377ZM128.971 17.5877H132.121V40.7377H128.971V17.5877ZM125.871 26.3377H129.721V28.9877H125.871V26.3377ZM123.796 17.9877H126.871V39.6377H123.796V17.9877ZM141.069 18.5377H143.794V19.7377C143.794 23.7127 141.644 27.0627 137.069 28.2377L135.544 25.6377C139.444 24.7127 141.069 22.2377 141.069 19.7377V18.5377ZM141.794 18.5377H144.519V19.7377C144.519 22.1377 146.119 24.3627 149.944 25.2127L148.469 27.7877C143.919 26.7127 141.794 23.6127 141.794 19.7377V18.5377ZM141.194 30.6127H144.519V40.0377H141.194V30.6127ZM151.319 17.5877H154.619V40.7377H151.319V17.5877ZM135.719 32.3377L135.319 29.6377C139.419 29.6377 145.119 29.5877 149.994 28.8877L150.219 31.2877C145.219 32.2627 139.769 32.3377 135.719 32.3377Z" fill="white"/>
</svg>
