<svg width="360" height="800" viewBox="0 0 360 800" fill="none" xmlns="http://www.w3.org/2000/svg">
<g clip-path="url(#clip0_988_6592)">
<rect width="360" height="800" fill="white"/>
<path d="M24.836 20H23.471V13.838C23.471 13.6213 23.471 13.422 23.471 13.24C23.4797 13.0493 23.4883 12.8673 23.497 12.694C23.5057 12.512 23.5143 12.3387 23.523 12.174C23.4103 12.2867 23.2933 12.395 23.172 12.499C23.0507 12.603 22.912 12.7243 22.756 12.863L21.742 13.682L21.04 12.798L23.692 10.718H24.836V20ZM34.2905 15.346C34.2905 16.1 34.2298 16.7717 34.1085 17.361C33.9958 17.9503 33.8138 18.453 33.5625 18.869C33.3198 19.2763 32.9948 19.5883 32.5875 19.805C32.1888 20.0217 31.7078 20.13 31.1445 20.13C30.4338 20.13 29.8488 19.9393 29.3895 19.558C28.9301 19.1767 28.5878 18.6307 28.3625 17.92C28.1371 17.2007 28.0245 16.3427 28.0245 15.346C28.0245 14.3407 28.1241 13.4827 28.3235 12.772C28.5315 12.0613 28.8651 11.5197 29.3245 11.147C29.7838 10.7657 30.3905 10.575 31.1445 10.575C31.8551 10.575 32.4401 10.7657 32.8995 11.147C33.3675 11.5197 33.7141 12.0613 33.9395 12.772C34.1735 13.4827 34.2905 14.3407 34.2905 15.346ZM29.4025 15.346C29.4025 16.152 29.4588 16.8237 29.5715 17.361C29.6841 17.8983 29.8661 18.3013 30.1175 18.57C30.3775 18.8387 30.7198 18.973 31.1445 18.973C31.5691 18.973 31.9071 18.843 32.1585 18.583C32.4185 18.3143 32.6048 17.9113 32.7175 17.374C32.8388 16.828 32.8995 16.152 32.8995 15.346C32.8995 14.54 32.8388 13.8727 32.7175 13.344C32.6048 12.8067 32.4185 12.4037 32.1585 12.135C31.9071 11.8663 31.5691 11.732 31.1445 11.732C30.7198 11.732 30.3775 11.8663 30.1175 12.135C29.8661 12.4037 29.6841 12.8067 29.5715 13.344C29.4588 13.8727 29.4025 14.54 29.4025 15.346ZM35.7629 19.233C35.7629 18.895 35.8496 18.6567 36.0229 18.518C36.1962 18.3793 36.4042 18.31 36.6469 18.31C36.8982 18.31 37.1106 18.3793 37.2839 18.518C37.4572 18.6567 37.5439 18.895 37.5439 19.233C37.5439 19.571 37.4572 19.8137 37.2839 19.961C37.1106 20.1083 36.8982 20.182 36.6469 20.182C36.4042 20.182 36.1962 20.1083 36.0229 19.961C35.8496 19.8137 35.7629 19.571 35.7629 19.233ZM35.7629 13.773C35.7629 13.4177 35.8496 13.1707 36.0229 13.032C36.1962 12.8933 36.4042 12.824 36.6469 12.824C36.8982 12.824 37.1106 12.8933 37.2839 13.032C37.4572 13.1707 37.5439 13.4177 37.5439 13.773C37.5439 14.1023 37.4572 14.3407 37.2839 14.488C37.1106 14.6353 36.8982 14.709 36.6469 14.709C36.4042 14.709 36.1962 14.6353 36.0229 14.488C35.8496 14.3407 35.7629 14.1023 35.7629 13.773ZM45.2716 20H39.0316V18.934L41.4236 16.503C41.8916 16.0263 42.2816 15.6147 42.5936 15.268C42.9056 14.9127 43.1396 14.5747 43.2956 14.254C43.4516 13.9247 43.5296 13.5693 43.5296 13.188C43.5296 12.7113 43.3909 12.356 43.1136 12.122C42.8363 11.8793 42.4766 11.758 42.0346 11.758C41.6099 11.758 41.2286 11.8403 40.8906 12.005C40.5526 12.161 40.2016 12.382 39.8376 12.668L39.0966 11.745C39.3479 11.5283 39.6166 11.3333 39.9026 11.16C40.1973 10.9867 40.5223 10.848 40.8776 10.744C41.2416 10.64 41.6403 10.588 42.0736 10.588C42.6629 10.588 43.1699 10.692 43.5946 10.9C44.0193 11.0993 44.3443 11.3853 44.5696 11.758C44.8036 12.1307 44.9206 12.5683 44.9206 13.071C44.9206 13.4437 44.8643 13.7947 44.7516 14.124C44.6389 14.4447 44.4743 14.761 44.2576 15.073C44.0496 15.385 43.7939 15.7013 43.4906 16.022C43.1873 16.3427 42.8536 16.6807 42.4896 17.036L40.7606 18.713V18.778H45.2716V20ZM52.711 20H46.471V18.934L48.863 16.503C49.331 16.0263 49.721 15.6147 50.033 15.268C50.345 14.9127 50.579 14.5747 50.735 14.254C50.891 13.9247 50.969 13.5693 50.969 13.188C50.969 12.7113 50.8304 12.356 50.553 12.122C50.2757 11.8793 49.916 11.758 49.474 11.758C49.0494 11.758 48.668 11.8403 48.33 12.005C47.992 12.161 47.641 12.382 47.277 12.668L46.536 11.745C46.7874 11.5283 47.056 11.3333 47.342 11.16C47.6367 10.9867 47.9617 10.848 48.317 10.744C48.681 10.64 49.0797 10.588 49.513 10.588C50.1024 10.588 50.6094 10.692 51.034 10.9C51.4587 11.0993 51.7837 11.3853 52.009 11.758C52.243 12.1307 52.36 12.5683 52.36 13.071C52.36 13.4437 52.3037 13.7947 52.191 14.124C52.0784 14.4447 51.9137 14.761 51.697 15.073C51.489 15.385 51.2334 15.7013 50.93 16.022C50.6267 16.3427 50.293 16.6807 49.929 17.036L48.2 18.713V18.778H52.711V20Z" fill="black"/>
<path d="M299.233 17.2332L297.833 15.7998C298.522 15.1109 299.311 14.5832 300.2 14.2165C301.089 13.8498 302.022 13.6665 303 13.6665C303.978 13.6665 304.914 13.8527 305.809 14.2252C306.703 14.5976 307.489 15.1336 308.167 15.8332L306.767 17.2332C306.267 16.7332 305.692 16.3472 305.041 16.0752C304.391 15.8032 303.711 15.6669 303 15.6665C302.289 15.6665 301.608 15.8027 300.959 16.0752C300.309 16.3476 299.734 16.7336 299.233 17.2332ZM296.4 14.3998L295 12.9998C296.056 11.9221 297.275 11.0969 298.659 10.5245C300.042 9.95206 301.489 9.66606 303 9.6665C304.511 9.6665 305.958 9.95273 307.342 10.5252C308.726 11.0976 309.945 11.9225 311 12.9998L309.6 14.3998C308.722 13.5221 307.714 12.8472 306.575 12.3752C305.436 11.9032 304.244 11.6669 303 11.6665C301.756 11.6665 300.564 11.9027 299.425 12.3752C298.286 12.8476 297.277 13.5225 296.4 14.3998ZM303 20.9998L300.65 18.6332C300.961 18.3221 301.32 18.0832 301.725 17.9165C302.131 17.7498 302.556 17.6665 303 17.6665C303.444 17.6665 303.87 17.7498 304.275 17.9165C304.681 18.0832 305.039 18.3221 305.35 18.6332L303 20.9998Z" fill="black"/>
<rect x="319.35" y="11.35" width="16.4905" height="7.44286" rx="1.65" stroke="black" stroke-width="0.7"/>
<rect x="320" y="12" width="12" height="6" rx="2" fill="black"/>
<rect x="336.44" y="13.0596" width="1.30952" height="4.02381" rx="0.25" fill="black" stroke="black" stroke-width="0.5"/>
<rect x="271" y="15" width="3" height="6" rx="0.5" fill="black"/>
<rect x="275" y="13" width="3" height="8" rx="0.5" fill="black"/>
<rect x="279" y="11" width="3" height="10" rx="0.5" fill="black"/>
<rect x="283" y="9" width="3" height="12" rx="0.5" fill="black"/>
<path d="M33.576 80.456C33.576 81.1067 33.528 81.7573 33.432 82.408C33.336 83.048 33.1653 83.656 32.92 84.232C32.6853 84.7973 32.3493 85.304 31.912 85.752C31.4853 86.1893 30.936 86.536 30.264 86.792C29.6027 87.0373 28.7973 87.16 27.848 87.16C27.624 87.16 27.3627 87.1493 27.064 87.128C26.7653 87.1173 26.5147 87.0907 26.312 87.048V85.112C26.5253 85.1547 26.7493 85.192 26.984 85.224C27.2187 85.256 27.4533 85.272 27.688 85.272C28.4027 85.272 28.9893 85.1867 29.448 85.016C29.9173 84.8453 30.2853 84.6 30.552 84.28C30.8187 83.96 31.0107 83.5813 31.128 83.144C31.256 82.7067 31.3307 82.2267 31.352 81.704H31.256C31.1067 81.9493 30.9253 82.1733 30.712 82.376C30.5093 82.5787 30.248 82.7387 29.928 82.856C29.6187 82.9733 29.2187 83.032 28.728 83.032C28.0773 83.032 27.512 82.8933 27.032 82.616C26.552 82.328 26.1787 81.9173 25.912 81.384C25.6453 80.84 25.512 80.184 25.512 79.416C25.512 78.584 25.6667 77.8747 25.976 77.288C26.296 76.6907 26.7493 76.2373 27.336 75.928C27.9227 75.608 28.6107 75.448 29.4 75.448C29.9867 75.448 30.5307 75.5493 31.032 75.752C31.544 75.9547 31.9867 76.264 32.36 76.68C32.744 77.0853 33.0427 77.6027 33.256 78.232C33.4693 78.8613 33.576 79.6027 33.576 80.456ZM29.448 77.384C28.9787 77.384 28.5947 77.544 28.296 77.864C27.9973 78.184 27.848 78.6907 27.848 79.384C27.848 79.9387 27.976 80.376 28.232 80.696C28.488 81.016 28.8773 81.176 29.4 81.176C29.7627 81.176 30.072 81.096 30.328 80.936C30.5947 80.776 30.8027 80.5787 30.952 80.344C31.1013 80.0987 31.176 79.848 31.176 79.592C31.176 79.3253 31.1387 79.064 31.064 78.808C30.9893 78.5413 30.8773 78.3013 30.728 78.088C30.5893 77.8747 30.4133 77.704 30.2 77.576C29.9867 77.448 29.736 77.384 29.448 77.384ZM47.0843 73.64V81.016H44.9563V73.64H47.0843ZM37.1003 77.432C37.1003 78.488 37.9163 79.096 39.0043 79.096C40.0923 79.096 40.8763 78.488 40.8763 77.432C40.8763 76.392 40.0923 75.768 39.0043 75.768C37.9163 75.768 37.1003 76.392 37.1003 77.432ZM42.9243 77.432C42.9243 79.4 41.2443 80.808 39.0043 80.808C36.7483 80.808 35.0523 79.4 35.0523 77.432C35.0523 75.48 36.7483 74.072 39.0043 74.072C41.2443 74.072 42.9243 75.48 42.9243 77.432ZM39.3723 86.568H47.4523V88.2H37.2763V84.136H44.9883V83.24H37.2603V81.624H47.0843V85.64H39.3723V86.568Z" fill="black" fill-opacity="0.87"/>
<rect y="30" width="360" height="30" fill="white"/>
<rect y="30" width="60" height="30" fill="black" fill-opacity="0.1"/>
<rect x="60" y="30" width="60" height="30" fill="white"/>
<path d="M10.55 48.834H19.559V49.593H10.55V48.834ZM14.576 46.26H15.489V49.043H14.576V46.26ZM11.595 41.739H18.459V46.425H11.595V41.739ZM17.579 42.476H12.486V45.688H17.579V42.476ZM23.3091 41.673C24.7721 41.673 25.8061 43.026 25.8061 45.138C25.8061 47.261 24.7721 48.614 23.3091 48.614C21.8461 48.614 20.8121 47.261 20.8121 45.138C20.8121 43.026 21.8461 41.673 23.3091 41.673ZM23.3091 42.498C22.3411 42.498 21.6811 43.532 21.6811 45.138C21.6811 46.755 22.3411 47.811 23.3091 47.811C24.2661 47.811 24.9371 46.755 24.9371 45.138C24.9371 43.532 24.2661 42.498 23.3091 42.498ZM27.3901 40.914H28.3141V50.858H27.3901V40.914ZM28.0941 44.885H29.9421V45.655H28.0941V44.885ZM30.7883 48.834H39.7973V49.593H30.7883V48.834ZM34.8143 46.458H35.7273V49.054H34.8143V46.458ZM31.8443 41.618H32.7463V43.389H37.8173V41.618H38.7193V46.7H31.8443V41.618ZM32.7463 44.126V45.952H37.8173V44.126H32.7463ZM48.1454 40.914H49.0584V50.858H48.1454V40.914ZM45.2304 41.981H46.1324C46.1324 44.863 44.8344 47.382 41.5124 49.01L41.0284 48.273C43.8994 46.887 45.2304 44.775 45.2304 42.135V41.981ZM41.4794 41.981H45.6264V42.729H41.4794V41.981Z" fill="white"/>
<path d="M77.436 40.903H78.349V50.869H77.436V40.903ZM77.942 44.819H79.779V45.578H77.942V44.819ZM70.836 47.492H71.276C71.837 47.492 72.585 47.481 73.443 47.283L73.531 48.042C72.618 48.251 71.881 48.262 71.276 48.262H70.836V47.492ZM70.836 41.959H73.344V42.696H71.738V47.866H70.836V41.959ZM73.905 47.492H74.389C75.357 47.492 76.05 47.47 76.853 47.261L76.941 48.02C76.094 48.229 75.412 48.262 74.389 48.262H73.905V47.492ZM73.905 41.959H76.545V42.696H74.807V47.877H73.905V41.959ZM80.6691 48.878H89.6781V49.637H80.6691V48.878ZM84.6951 46.744H85.6081V49.197H84.6951V46.744ZM81.7581 41.651H88.5671V44.665H82.6931V46.656H81.7911V43.928H87.6651V42.388H81.7581V41.651ZM81.7911 46.271H88.7981V47.019H81.7911V46.271ZM90.7883 48.834H99.7973V49.593H90.7883V48.834ZM94.8143 46.458H95.7273V49.054H94.8143V46.458ZM91.8443 41.618H92.7463V43.389H97.8173V41.618H98.7193V46.7H91.8443V41.618ZM92.7463 44.126V45.952H97.8173V44.126H92.7463ZM108.145 40.914H109.058V50.858H108.145V40.914ZM105.23 41.981H106.132C106.132 44.863 104.834 47.382 101.512 49.01L101.028 48.273C103.899 46.887 105.23 44.775 105.23 42.135V41.981ZM101.479 41.981H105.626V42.729H101.479V41.981Z" fill="black" fill-opacity="0.1"/>
<g filter="url(#filter0_d_988_6592)">
<circle cx="315" cy="685" r="25" fill="black" fill-opacity="0.34"/>
<path fill-rule="evenodd" clip-rule="evenodd" d="M324.486 674.687C323.83 674.031 322.94 673.662 322.012 673.662C321.084 673.662 320.194 674.031 319.537 674.687L318.712 675.513L324.487 681.288L325.311 680.463C325.636 680.138 325.894 679.752 326.07 679.327C326.246 678.903 326.336 678.448 326.336 677.988C326.336 677.528 326.246 677.073 326.07 676.648C325.894 676.224 325.636 675.838 325.311 675.513L324.486 674.687ZM322.837 682.938L317.062 677.163L306.456 687.769C306.224 688.001 306.062 688.294 305.989 688.613L304.788 693.811C304.743 694.004 304.749 694.205 304.803 694.395C304.858 694.586 304.96 694.759 305.1 694.899C305.24 695.039 305.413 695.141 305.604 695.196C305.794 695.25 305.995 695.256 306.188 695.211L311.387 694.012C311.706 693.938 311.999 693.776 312.23 693.544L322.837 682.938Z" fill="white"/>
</g>
<rect y="92" width="360" height="50" fill="white"/>
<path d="M67.304 118.206L66.156 118.052C66.66 115.63 66.674 113.908 66.674 112.69H63.538V111.766H67.794V112.62C67.794 113.866 67.808 115.616 67.304 118.206ZM61.704 118.248L60.556 118.052C61.284 115.602 61.396 113.796 61.41 112.69H58.624V111.766H62.53V112.2C62.53 113.194 62.544 115.168 61.704 118.248ZM64.238 120.264H69.082V121.202H57.742V120.264H63.104V116.204H64.238V120.264ZM79.3569 114.552V113.096H73.2529V114.552H79.3569ZM80.4909 110.772V115.462H72.1189V110.772H73.2529V112.2H79.3569V110.772H80.4909ZM81.9749 117.562H76.8649V119.032H80.5749V123.05H79.4269V119.956H71.8809V119.032H75.7169V117.562H70.6069V116.624H81.9749V117.562ZM91.2558 116.274L90.7518 117.184C89.2538 116.75 88.0918 115.826 87.5038 114.608C86.9578 115.938 85.7818 116.96 84.2838 117.45L83.7238 116.554C85.6138 115.952 86.9158 114.496 86.9158 112.83V112.774H84.0598V111.85H86.9158V110.394H88.0638V111.85H90.8918V112.774H88.0498V112.83C88.0498 114.37 89.4078 115.756 91.2558 116.274ZM92.6698 121.944V120.348H86.8458V121.944H92.6698ZM92.6698 119.452V117.982H93.8038V122.868H85.7118V117.982H86.8458V119.452H92.6698ZM92.6558 110.492H93.8038V117.408H92.6558V110.492Z" fill="black" fill-opacity="0.87"/>
<path d="M301.976 114.342C301.976 114.79 301.892 115.177 301.724 115.504C301.556 115.831 301.314 116.097 300.996 116.302C300.688 116.507 300.324 116.652 299.904 116.736V116.792C300.707 116.885 301.304 117.137 301.696 117.548C302.088 117.959 302.284 118.495 302.284 119.158C302.284 119.737 302.149 120.255 301.878 120.712C301.608 121.16 301.188 121.51 300.618 121.762C300.058 122.014 299.335 122.14 298.448 122.14C297.926 122.14 297.44 122.098 296.992 122.014C296.544 121.939 296.115 121.799 295.704 121.594V120.446C296.124 120.651 296.577 120.815 297.062 120.936C297.548 121.048 298.014 121.104 298.462 121.104C299.358 121.104 300.002 120.931 300.394 120.586C300.796 120.231 300.996 119.746 300.996 119.13C300.996 118.71 300.884 118.374 300.66 118.122C300.446 117.861 300.128 117.669 299.708 117.548C299.288 117.427 298.784 117.366 298.196 117.366H297.23V116.316H298.21C298.761 116.316 299.218 116.237 299.582 116.078C299.956 115.919 300.236 115.7 300.422 115.42C300.618 115.131 300.716 114.799 300.716 114.426C300.716 113.941 300.553 113.567 300.226 113.306C299.9 113.035 299.456 112.9 298.896 112.9C298.542 112.9 298.22 112.937 297.93 113.012C297.641 113.077 297.37 113.175 297.118 113.306C296.876 113.427 296.628 113.572 296.376 113.74L295.76 112.9C296.003 112.713 296.278 112.541 296.586 112.382C296.904 112.223 297.254 112.097 297.636 112.004C298.019 111.911 298.434 111.864 298.882 111.864C299.928 111.864 300.702 112.097 301.206 112.564C301.72 113.031 301.976 113.623 301.976 114.342ZM310.408 116.988C310.408 117.8 310.347 118.523 310.226 119.158C310.105 119.793 309.909 120.334 309.638 120.782C309.377 121.221 309.031 121.557 308.602 121.79C308.182 122.023 307.673 122.14 307.076 122.14C306.329 122.14 305.709 121.935 305.214 121.524C304.729 121.113 304.365 120.525 304.122 119.76C303.889 118.985 303.772 118.061 303.772 116.988C303.772 115.905 303.879 114.981 304.094 114.216C304.318 113.451 304.673 112.867 305.158 112.466C305.643 112.055 306.283 111.85 307.076 111.85C307.823 111.85 308.443 112.055 308.938 112.466C309.433 112.867 309.801 113.451 310.044 114.216C310.287 114.981 310.408 115.905 310.408 116.988ZM305.004 116.988C305.004 117.903 305.069 118.663 305.2 119.27C305.34 119.877 305.559 120.334 305.858 120.642C306.166 120.941 306.572 121.09 307.076 121.09C307.58 121.09 307.981 120.941 308.28 120.642C308.588 120.343 308.812 119.891 308.952 119.284C309.092 118.668 309.162 117.903 309.162 116.988C309.162 116.073 309.092 115.317 308.952 114.72C308.812 114.113 308.588 113.661 308.28 113.362C307.981 113.054 307.58 112.9 307.076 112.9C306.572 112.9 306.166 113.054 305.858 113.362C305.559 113.661 305.34 114.113 305.2 114.72C305.069 115.317 305.004 116.073 305.004 116.988ZM318.42 116.988C318.42 117.8 318.359 118.523 318.238 119.158C318.116 119.793 317.92 120.334 317.65 120.782C317.388 121.221 317.043 121.557 316.614 121.79C316.194 122.023 315.685 122.14 315.088 122.14C314.341 122.14 313.72 121.935 313.226 121.524C312.74 121.113 312.376 120.525 312.134 119.76C311.9 118.985 311.784 118.061 311.784 116.988C311.784 115.905 311.891 114.981 312.106 114.216C312.33 113.451 312.684 112.867 313.17 112.466C313.655 112.055 314.294 111.85 315.088 111.85C315.834 111.85 316.455 112.055 316.95 112.466C317.444 112.867 317.813 113.451 318.056 114.216C318.298 114.981 318.42 115.905 318.42 116.988ZM313.016 116.988C313.016 117.903 313.081 118.663 313.212 119.27C313.352 119.877 313.571 120.334 313.87 120.642C314.178 120.941 314.584 121.09 315.088 121.09C315.592 121.09 315.993 120.941 316.292 120.642C316.6 120.343 316.824 119.891 316.964 119.284C317.104 118.668 317.174 117.903 317.174 116.988C317.174 116.073 317.104 115.317 316.964 114.72C316.824 114.113 316.6 113.661 316.292 113.362C315.993 113.054 315.592 112.9 315.088 112.9C314.584 112.9 314.178 113.054 313.87 113.362C313.571 113.661 313.352 114.113 313.212 114.72C313.081 115.317 313.016 116.073 313.016 116.988ZM326.431 116.988C326.431 117.8 326.371 118.523 326.249 119.158C326.128 119.793 325.932 120.334 325.661 120.782C325.4 121.221 325.055 121.557 324.625 121.79C324.205 122.023 323.697 122.14 323.099 122.14C322.353 122.14 321.732 121.935 321.237 121.524C320.752 121.113 320.388 120.525 320.145 119.76C319.912 118.985 319.795 118.061 319.795 116.988C319.795 115.905 319.903 114.981 320.117 114.216C320.341 113.451 320.696 112.867 321.181 112.466C321.667 112.055 322.306 111.85 323.099 111.85C323.846 111.85 324.467 112.055 324.961 112.466C325.456 112.867 325.825 113.451 326.067 114.216C326.31 114.981 326.431 115.905 326.431 116.988ZM321.027 116.988C321.027 117.903 321.093 118.663 321.223 119.27C321.363 119.877 321.583 120.334 321.881 120.642C322.189 120.941 322.595 121.09 323.099 121.09C323.603 121.09 324.005 120.941 324.303 120.642C324.611 120.343 324.835 119.891 324.975 119.284C325.115 118.668 325.185 117.903 325.185 116.988C325.185 116.073 325.115 115.317 324.975 114.72C324.835 114.113 324.611 113.661 324.303 113.362C324.005 113.054 323.603 112.9 323.099 112.9C322.595 112.9 322.189 113.054 321.881 113.362C321.583 113.661 321.363 114.113 321.223 114.72C321.093 115.317 321.027 116.073 321.027 116.988ZM331.405 116.806H332.567V119.62H331.405V116.806ZM337.019 110.436H338.181V120.068H337.019V110.436ZM329.543 121.86H338.489V122.812H329.543V121.86ZM329.543 119.13H330.705V122.126H329.543V119.13ZM327.905 117.24L327.751 116.288C330.089 116.288 333.225 116.26 335.913 115.91L335.997 116.764C333.267 117.198 330.201 117.24 327.905 117.24ZM334.443 117.912H337.313V118.766H334.443V117.912ZM331.867 110.954C333.715 110.954 334.975 111.822 334.975 113.152C334.975 114.496 333.715 115.364 331.867 115.364C330.005 115.364 328.745 114.496 328.745 113.152C328.745 111.822 330.005 110.954 331.867 110.954ZM331.867 111.822C330.677 111.822 329.851 112.34 329.851 113.152C329.851 113.964 330.677 114.482 331.867 114.482C333.043 114.482 333.869 113.964 333.869 113.152C333.869 112.34 333.043 111.822 331.867 111.822Z" fill="black" fill-opacity="0.87"/>
<line y1="142.5" x2="360" y2="142.5" stroke="black" stroke-opacity="0.1"/>
<rect width="24" height="24" transform="translate(20 105)" fill="white"/>
<path d="M38.06 128H39.72C40.56 128 41.25 127.35 41.35 126.53L43 110.05H38V106H36.03V110.05H31.06L31.36 112.39C33.07 112.86 34.67 113.71 35.63 114.65C37.07 116.07 38.06 117.54 38.06 119.94V128ZM21 127V126H36.03V127C36.03 127.54 35.58 128 35 128H22C21.45 128 21 127.54 21 127ZM36.03 120C36.03 112 21 112 21 120H36.03ZM21 122H36V124H21V122Z" fill="black" fill-opacity="0.34"/>
<rect y="143" width="360" height="50" fill="white"/>
<path d="M66.926 170.816V167.204H64.826V166.266H66.926V164.796H64.826V163.872H66.926V161.492H68.088V170.816H66.926ZM60.472 163.424V167.946C61.088 167.932 61.732 167.904 62.362 167.876V163.424H60.472ZM65.12 167.652L65.19 168.506C62.782 168.884 59.94 168.926 57.91 168.926L57.784 167.974C58.26 167.974 58.806 167.974 59.366 167.96V163.424H58.12V162.5H64.728V163.424H63.482V167.806C64.042 167.764 64.602 167.708 65.12 167.652ZM61.186 172.818H68.41V173.756H60.038V170.06H61.186V172.818ZM74.6949 162.402C76.6549 162.402 78.0549 163.592 78.0549 165.356C78.0549 167.106 76.6549 168.31 74.6949 168.31C72.7489 168.31 71.3349 167.106 71.3349 165.356C71.3349 163.592 72.7489 162.402 74.6949 162.402ZM74.6949 163.382C73.4069 163.382 72.4549 164.18 72.4549 165.356C72.4549 166.518 73.4069 167.33 74.6949 167.33C75.9969 167.33 76.9349 166.518 76.9349 165.356C76.9349 164.18 75.9969 163.382 74.6949 163.382ZM79.7069 161.478H80.8549V174.064H79.7069V161.478ZM70.8449 171.306L70.7049 170.34C72.9869 170.34 76.1369 170.326 78.8809 169.906L78.9789 170.76C76.1509 171.278 73.1129 171.306 70.8449 171.306ZM90.9058 167.526L90.3318 168.422C88.9318 167.918 87.8538 166.868 87.3078 165.58C86.7618 167.022 85.6138 168.17 84.1438 168.702L83.5418 167.806C85.4038 167.134 86.7058 165.468 86.7058 163.69V163.214H83.9058V162.276H90.6118V163.214H87.8538V163.676C87.8538 165.314 89.0858 166.882 90.9058 167.526ZM86.8038 170.354V172.944H92.7258V170.354H86.8038ZM85.6838 173.868V169.444H93.8458V173.868H85.6838ZM92.6838 161.478H93.8458V168.828H92.6838V165.58H90.2058V164.628H92.6838V161.478ZM100.701 162.78H106.343C106.343 166.42 105.069 169.738 100.659 171.978L100.015 171.068C102.297 169.948 103.683 168.506 104.453 166.84L100.267 167.232L100.057 166.238L104.803 165.93C105.041 165.23 105.153 164.488 105.209 163.718H100.701V162.78ZM109.199 161.492H110.347V174.036H109.199V167.456H106.301V166.518H109.199V161.492ZM115.708 163.76V169.934C116.394 169.92 117.094 169.892 117.808 169.864V163.76H115.708ZM118.928 163.76V169.794C119.614 169.766 120.3 169.696 120.958 169.612L121.028 170.452C118.326 170.886 115.302 170.914 113.02 170.928L112.894 169.962C113.426 169.962 114 169.962 114.602 169.948V163.76H113.202V162.836H120.314V163.76H118.928ZM122.05 161.492H123.198V174.036H122.05V161.492Z" fill="black" fill-opacity="0.87"/>
<path d="M301.976 165.342C301.976 165.79 301.892 166.177 301.724 166.504C301.556 166.831 301.314 167.097 300.996 167.302C300.688 167.507 300.324 167.652 299.904 167.736V167.792C300.707 167.885 301.304 168.137 301.696 168.548C302.088 168.959 302.284 169.495 302.284 170.158C302.284 170.737 302.149 171.255 301.878 171.712C301.608 172.16 301.188 172.51 300.618 172.762C300.058 173.014 299.335 173.14 298.448 173.14C297.926 173.14 297.44 173.098 296.992 173.014C296.544 172.939 296.115 172.799 295.704 172.594V171.446C296.124 171.651 296.577 171.815 297.062 171.936C297.548 172.048 298.014 172.104 298.462 172.104C299.358 172.104 300.002 171.931 300.394 171.586C300.796 171.231 300.996 170.746 300.996 170.13C300.996 169.71 300.884 169.374 300.66 169.122C300.446 168.861 300.128 168.669 299.708 168.548C299.288 168.427 298.784 168.366 298.196 168.366H297.23V167.316H298.21C298.761 167.316 299.218 167.237 299.582 167.078C299.956 166.919 300.236 166.7 300.422 166.42C300.618 166.131 300.716 165.799 300.716 165.426C300.716 164.941 300.553 164.567 300.226 164.306C299.9 164.035 299.456 163.9 298.896 163.9C298.542 163.9 298.22 163.937 297.93 164.012C297.641 164.077 297.37 164.175 297.118 164.306C296.876 164.427 296.628 164.572 296.376 164.74L295.76 163.9C296.003 163.713 296.278 163.541 296.586 163.382C296.904 163.223 297.254 163.097 297.636 163.004C298.019 162.911 298.434 162.864 298.882 162.864C299.928 162.864 300.702 163.097 301.206 163.564C301.72 164.031 301.976 164.623 301.976 165.342ZM310.408 167.988C310.408 168.8 310.347 169.523 310.226 170.158C310.105 170.793 309.909 171.334 309.638 171.782C309.377 172.221 309.031 172.557 308.602 172.79C308.182 173.023 307.673 173.14 307.076 173.14C306.329 173.14 305.709 172.935 305.214 172.524C304.729 172.113 304.365 171.525 304.122 170.76C303.889 169.985 303.772 169.061 303.772 167.988C303.772 166.905 303.879 165.981 304.094 165.216C304.318 164.451 304.673 163.867 305.158 163.466C305.643 163.055 306.283 162.85 307.076 162.85C307.823 162.85 308.443 163.055 308.938 163.466C309.433 163.867 309.801 164.451 310.044 165.216C310.287 165.981 310.408 166.905 310.408 167.988ZM305.004 167.988C305.004 168.903 305.069 169.663 305.2 170.27C305.34 170.877 305.559 171.334 305.858 171.642C306.166 171.941 306.572 172.09 307.076 172.09C307.58 172.09 307.981 171.941 308.28 171.642C308.588 171.343 308.812 170.891 308.952 170.284C309.092 169.668 309.162 168.903 309.162 167.988C309.162 167.073 309.092 166.317 308.952 165.72C308.812 165.113 308.588 164.661 308.28 164.362C307.981 164.054 307.58 163.9 307.076 163.9C306.572 163.9 306.166 164.054 305.858 164.362C305.559 164.661 305.34 165.113 305.2 165.72C305.069 166.317 305.004 167.073 305.004 167.988ZM318.42 167.988C318.42 168.8 318.359 169.523 318.238 170.158C318.116 170.793 317.92 171.334 317.65 171.782C317.388 172.221 317.043 172.557 316.614 172.79C316.194 173.023 315.685 173.14 315.088 173.14C314.341 173.14 313.72 172.935 313.226 172.524C312.74 172.113 312.376 171.525 312.134 170.76C311.9 169.985 311.784 169.061 311.784 167.988C311.784 166.905 311.891 165.981 312.106 165.216C312.33 164.451 312.684 163.867 313.17 163.466C313.655 163.055 314.294 162.85 315.088 162.85C315.834 162.85 316.455 163.055 316.95 163.466C317.444 163.867 317.813 164.451 318.056 165.216C318.298 165.981 318.42 166.905 318.42 167.988ZM313.016 167.988C313.016 168.903 313.081 169.663 313.212 170.27C313.352 170.877 313.571 171.334 313.87 171.642C314.178 171.941 314.584 172.09 315.088 172.09C315.592 172.09 315.993 171.941 316.292 171.642C316.6 171.343 316.824 170.891 316.964 170.284C317.104 169.668 317.174 168.903 317.174 167.988C317.174 167.073 317.104 166.317 316.964 165.72C316.824 165.113 316.6 164.661 316.292 164.362C315.993 164.054 315.592 163.9 315.088 163.9C314.584 163.9 314.178 164.054 313.87 164.362C313.571 164.661 313.352 165.113 313.212 165.72C313.081 166.317 313.016 167.073 313.016 167.988ZM326.431 167.988C326.431 168.8 326.371 169.523 326.249 170.158C326.128 170.793 325.932 171.334 325.661 171.782C325.4 172.221 325.055 172.557 324.625 172.79C324.205 173.023 323.697 173.14 323.099 173.14C322.353 173.14 321.732 172.935 321.237 172.524C320.752 172.113 320.388 171.525 320.145 170.76C319.912 169.985 319.795 169.061 319.795 167.988C319.795 166.905 319.903 165.981 320.117 165.216C320.341 164.451 320.696 163.867 321.181 163.466C321.667 163.055 322.306 162.85 323.099 162.85C323.846 162.85 324.467 163.055 324.961 163.466C325.456 163.867 325.825 164.451 326.067 165.216C326.31 165.981 326.431 166.905 326.431 167.988ZM321.027 167.988C321.027 168.903 321.093 169.663 321.223 170.27C321.363 170.877 321.583 171.334 321.881 171.642C322.189 171.941 322.595 172.09 323.099 172.09C323.603 172.09 324.005 171.941 324.303 171.642C324.611 171.343 324.835 170.891 324.975 170.284C325.115 169.668 325.185 168.903 325.185 167.988C325.185 167.073 325.115 166.317 324.975 165.72C324.835 165.113 324.611 164.661 324.303 164.362C324.005 164.054 323.603 163.9 323.099 163.9C322.595 163.9 322.189 164.054 321.881 164.362C321.583 164.661 321.363 165.113 321.223 165.72C321.093 166.317 321.027 167.073 321.027 167.988ZM331.405 167.806H332.567V170.62H331.405V167.806ZM337.019 161.436H338.181V171.068H337.019V161.436ZM329.543 172.86H338.489V173.812H329.543V172.86ZM329.543 170.13H330.705V173.126H329.543V170.13ZM327.905 168.24L327.751 167.288C330.089 167.288 333.225 167.26 335.913 166.91L335.997 167.764C333.267 168.198 330.201 168.24 327.905 168.24ZM334.443 168.912H337.313V169.766H334.443V168.912ZM331.867 161.954C333.715 161.954 334.975 162.822 334.975 164.152C334.975 165.496 333.715 166.364 331.867 166.364C330.005 166.364 328.745 165.496 328.745 164.152C328.745 162.822 330.005 161.954 331.867 161.954ZM331.867 162.822C330.677 162.822 329.851 163.34 329.851 164.152C329.851 164.964 330.677 165.482 331.867 165.482C333.043 165.482 333.869 164.964 333.869 164.152C333.869 163.34 333.043 162.822 331.867 162.822Z" fill="black" fill-opacity="0.87"/>
<line y1="193.5" x2="360" y2="193.5" stroke="black" stroke-opacity="0.1"/>
<path d="M38.06 179H39.72C40.56 179 41.25 178.35 41.35 177.53L43 161.05H38V157H36.03V161.05H31.06L31.36 163.39C33.07 163.86 34.67 164.71 35.63 165.65C37.07 167.07 38.06 168.54 38.06 170.94V179ZM21 178V177H36.03V178C36.03 178.54 35.58 179 35 179H22C21.45 179 21 178.54 21 178ZM36.03 171C36.03 163 21 163 21 171H36.03ZM21 173H36V175H21V173Z" fill="black" fill-opacity="0.34"/>
<rect y="194" width="360" height="50" fill="white"/>
<path d="M60.85 221.172C61.816 221.172 62.516 220.374 62.516 219.254C62.516 218.162 61.816 217.364 60.85 217.364C59.87 217.364 59.184 218.162 59.184 219.254C59.184 220.374 59.87 221.172 60.85 221.172ZM60.85 216.398C62.404 216.398 63.538 217.574 63.538 219.254C63.538 220.962 62.404 222.124 60.85 222.124C59.296 222.124 58.162 220.962 58.162 219.254C58.162 217.574 59.296 216.398 60.85 216.398ZM61.41 212.842V214.62H63.958V215.558H57.728V214.62H60.276V212.842H61.41ZM67.276 212.464H68.382V225.022H67.276V218.708H65.666V224.42H64.588V212.758H65.666V217.77H67.276V212.464ZM80.9109 212.492V221.732H79.7629V212.492H80.9109ZM78.2649 218.596L78.3769 219.534C76.3749 219.87 74.6949 219.954 72.2869 219.954H71.2789V216.132H75.8149V214.298H71.2369V213.374H76.9489V217H72.3989V219.016C74.6949 219.016 76.3329 218.932 78.2649 218.596ZM73.8689 223.818H81.2609V224.756H72.7209V221.018H73.8689V223.818ZM92.6278 212.478H93.7758V225.064H92.6278V212.478ZM87.1538 213.444C89.0158 213.444 90.3458 215.152 90.3458 217.826C90.3458 220.5 89.0158 222.208 87.1538 222.208C85.2918 222.208 83.9618 220.5 83.9618 217.826C83.9618 215.152 85.2918 213.444 87.1538 213.444ZM87.1538 214.48C85.9218 214.48 85.0538 215.796 85.0538 217.826C85.0538 219.87 85.9218 221.186 87.1538 221.186C88.3718 221.186 89.2398 219.87 89.2398 217.826C89.2398 215.796 88.3718 214.48 87.1538 214.48ZM102.619 221.144V223.818H110.179V224.756H101.471V221.144H102.619ZM106.273 219.086H111.383V220.01H100.015V219.086H105.125V217.448H101.443V213.122H109.969V214.046H102.591V216.51H110.081V217.448H106.273V219.086Z" fill="black" fill-opacity="0.87"/>
<path d="M284.286 224H283.082V217.014C283.082 216.743 283.082 216.515 283.082 216.328C283.092 216.141 283.101 215.969 283.11 215.81C283.12 215.642 283.129 215.469 283.138 215.292C282.989 215.441 282.854 215.567 282.732 215.67C282.611 215.773 282.457 215.903 282.27 216.062L281.206 216.93L280.562 216.104L283.264 214.004H284.286V224ZM294.65 218.988C294.65 219.8 294.589 220.523 294.468 221.158C294.347 221.793 294.151 222.334 293.88 222.782C293.619 223.221 293.273 223.557 292.844 223.79C292.424 224.023 291.915 224.14 291.318 224.14C290.571 224.14 289.951 223.935 289.456 223.524C288.971 223.113 288.607 222.525 288.364 221.76C288.131 220.985 288.014 220.061 288.014 218.988C288.014 217.905 288.121 216.981 288.336 216.216C288.56 215.451 288.915 214.867 289.4 214.466C289.885 214.055 290.525 213.85 291.318 213.85C292.065 213.85 292.685 214.055 293.18 214.466C293.675 214.867 294.043 215.451 294.286 216.216C294.529 216.981 294.65 217.905 294.65 218.988ZM289.246 218.988C289.246 219.903 289.311 220.663 289.442 221.27C289.582 221.877 289.801 222.334 290.1 222.642C290.408 222.941 290.814 223.09 291.318 223.09C291.822 223.09 292.223 222.941 292.522 222.642C292.83 222.343 293.054 221.891 293.194 221.284C293.334 220.668 293.404 219.903 293.404 218.988C293.404 218.073 293.334 217.317 293.194 216.72C293.054 216.113 292.83 215.661 292.522 215.362C292.223 215.054 291.822 214.9 291.318 214.9C290.814 214.9 290.408 215.054 290.1 215.362C289.801 215.661 289.582 216.113 289.442 216.72C289.311 217.317 289.246 218.073 289.246 218.988ZM298.028 222.53C297.944 222.857 297.837 223.211 297.706 223.594C297.575 223.977 297.431 224.355 297.272 224.728C297.123 225.111 296.973 225.47 296.824 225.806H295.914C296.007 225.451 296.096 225.069 296.18 224.658C296.273 224.257 296.357 223.86 296.432 223.468C296.507 223.067 296.567 222.703 296.614 222.376H297.93L298.028 222.53ZM306.408 218.988C306.408 219.8 306.347 220.523 306.226 221.158C306.105 221.793 305.909 222.334 305.638 222.782C305.377 223.221 305.031 223.557 304.602 223.79C304.182 224.023 303.673 224.14 303.076 224.14C302.329 224.14 301.709 223.935 301.214 223.524C300.729 223.113 300.365 222.525 300.122 221.76C299.889 220.985 299.772 220.061 299.772 218.988C299.772 217.905 299.879 216.981 300.094 216.216C300.318 215.451 300.673 214.867 301.158 214.466C301.643 214.055 302.283 213.85 303.076 213.85C303.823 213.85 304.443 214.055 304.938 214.466C305.433 214.867 305.801 215.451 306.044 216.216C306.287 216.981 306.408 217.905 306.408 218.988ZM301.004 218.988C301.004 219.903 301.069 220.663 301.2 221.27C301.34 221.877 301.559 222.334 301.858 222.642C302.166 222.941 302.572 223.09 303.076 223.09C303.58 223.09 303.981 222.941 304.28 222.642C304.588 222.343 304.812 221.891 304.952 221.284C305.092 220.668 305.162 219.903 305.162 218.988C305.162 218.073 305.092 217.317 304.952 216.72C304.812 216.113 304.588 215.661 304.28 215.362C303.981 215.054 303.58 214.9 303.076 214.9C302.572 214.9 302.166 215.054 301.858 215.362C301.559 215.661 301.34 216.113 301.2 216.72C301.069 217.317 301.004 218.073 301.004 218.988ZM314.42 218.988C314.42 219.8 314.359 220.523 314.238 221.158C314.116 221.793 313.92 222.334 313.65 222.782C313.388 223.221 313.043 223.557 312.614 223.79C312.194 224.023 311.685 224.14 311.088 224.14C310.341 224.14 309.72 223.935 309.226 223.524C308.74 223.113 308.376 222.525 308.134 221.76C307.9 220.985 307.784 220.061 307.784 218.988C307.784 217.905 307.891 216.981 308.106 216.216C308.33 215.451 308.684 214.867 309.17 214.466C309.655 214.055 310.294 213.85 311.088 213.85C311.834 213.85 312.455 214.055 312.95 214.466C313.444 214.867 313.813 215.451 314.056 216.216C314.298 216.981 314.42 217.905 314.42 218.988ZM309.016 218.988C309.016 219.903 309.081 220.663 309.212 221.27C309.352 221.877 309.571 222.334 309.87 222.642C310.178 222.941 310.584 223.09 311.088 223.09C311.592 223.09 311.993 222.941 312.292 222.642C312.6 222.343 312.824 221.891 312.964 221.284C313.104 220.668 313.174 219.903 313.174 218.988C313.174 218.073 313.104 217.317 312.964 216.72C312.824 216.113 312.6 215.661 312.292 215.362C311.993 215.054 311.592 214.9 311.088 214.9C310.584 214.9 310.178 215.054 309.87 215.362C309.571 215.661 309.352 216.113 309.212 216.72C309.081 217.317 309.016 218.073 309.016 218.988ZM322.431 218.988C322.431 219.8 322.371 220.523 322.249 221.158C322.128 221.793 321.932 222.334 321.661 222.782C321.4 223.221 321.055 223.557 320.625 223.79C320.205 224.023 319.697 224.14 319.099 224.14C318.353 224.14 317.732 223.935 317.237 223.524C316.752 223.113 316.388 222.525 316.145 221.76C315.912 220.985 315.795 220.061 315.795 218.988C315.795 217.905 315.903 216.981 316.117 216.216C316.341 215.451 316.696 214.867 317.181 214.466C317.667 214.055 318.306 213.85 319.099 213.85C319.846 213.85 320.467 214.055 320.961 214.466C321.456 214.867 321.825 215.451 322.067 216.216C322.31 216.981 322.431 217.905 322.431 218.988ZM317.027 218.988C317.027 219.903 317.093 220.663 317.223 221.27C317.363 221.877 317.583 222.334 317.881 222.642C318.189 222.941 318.595 223.09 319.099 223.09C319.603 223.09 320.005 222.941 320.303 222.642C320.611 222.343 320.835 221.891 320.975 221.284C321.115 220.668 321.185 219.903 321.185 218.988C321.185 218.073 321.115 217.317 320.975 216.72C320.835 216.113 320.611 215.661 320.303 215.362C320.005 215.054 319.603 214.9 319.099 214.9C318.595 214.9 318.189 215.054 317.881 215.362C317.583 215.661 317.363 216.113 317.223 216.72C317.093 217.317 317.027 218.073 317.027 218.988ZM330.443 219.898H332.991V212.478H334.139V222.04H332.991V220.752H330.443V219.898ZM327.881 213.836C326.691 213.836 325.879 214.368 325.879 215.166C325.879 215.978 326.691 216.51 327.881 216.51C329.071 216.51 329.883 215.978 329.883 215.166C329.883 214.368 329.071 213.836 327.881 213.836ZM327.881 217.364C326.047 217.364 324.787 216.51 324.787 215.166C324.787 213.85 326.047 212.982 327.881 212.982C329.715 212.982 330.975 213.85 330.975 215.166C330.975 216.51 329.715 217.364 327.881 217.364ZM327.433 221.592V219.17C326.187 219.226 324.983 219.24 323.947 219.24L323.793 218.288C326.117 218.288 329.225 218.26 331.885 217.924L331.983 218.75C330.877 218.918 329.715 219.044 328.581 219.114V221.592H327.433ZM326.733 223.818H334.461V224.756H325.585V221.102H326.733V223.818Z" fill="black" fill-opacity="0.87"/>
<line y1="244.5" x2="360" y2="244.5" stroke="black" stroke-opacity="0.1"/>
<rect y="245" width="360" height="50" fill="white"/>
<path d="M61.088 272.186C62.292 272.186 63.146 270.87 63.146 268.826C63.146 266.796 62.292 265.48 61.088 265.48C59.87 265.48 59.016 266.796 59.016 268.826C59.016 270.87 59.87 272.186 61.088 272.186ZM61.088 264.444C62.936 264.444 64.238 266.152 64.238 268.826C64.238 271.5 62.936 273.208 61.088 273.208C59.24 273.208 57.924 271.5 57.924 268.826C57.924 266.152 59.24 264.444 61.088 264.444ZM69.474 268.49V269.456H67.402V276.036H66.254V263.492H67.402V268.49H69.474ZM79.4829 267.314V265.368H72.0069V264.444H80.6029V268.238H73.1689V270.282H80.8969V271.22H72.0349V267.314H79.4829ZM70.6069 273.502H82.0169V274.454H70.6069V273.502ZM88.7218 272.074V268.77H85.1378V272.074H88.7218ZM88.7218 267.86V264.542H89.8418V273.012H84.0038V264.542H85.1378V267.86H88.7218ZM95.2318 268.42V269.386H93.1598V276.022H92.0118V263.492H93.1598V268.42H95.2318ZM105.507 263.478H106.655V276.064H105.507V263.478ZM100.033 264.444C101.895 264.444 103.225 266.152 103.225 268.826C103.225 271.5 101.895 273.208 100.033 273.208C98.1707 273.208 96.8407 271.5 96.8407 268.826C96.8407 266.152 98.1707 264.444 100.033 264.444ZM100.033 265.48C98.8007 265.48 97.9327 266.796 97.9327 268.826C97.9327 270.87 98.8007 272.186 100.033 272.186C101.251 272.186 102.119 270.87 102.119 268.826C102.119 266.796 101.251 265.48 100.033 265.48ZM119.338 270.254V271.178H110.714V264.57H119.212V265.494H111.876V267.356H118.932V268.266H111.876V270.254H119.338ZM109.244 273.474H120.64V274.412H109.244V273.474Z" fill="black" fill-opacity="0.87"/>
<path d="M286.585 275H279.977V273.978L282.595 271.332C283.099 270.828 283.523 270.38 283.869 269.988C284.214 269.596 284.475 269.213 284.653 268.84C284.83 268.457 284.919 268.042 284.919 267.594C284.919 267.043 284.755 266.628 284.429 266.348C284.102 266.059 283.677 265.914 283.155 265.914C282.669 265.914 282.24 265.998 281.867 266.166C281.503 266.334 281.129 266.567 280.747 266.866L280.089 266.04C280.35 265.816 280.635 265.615 280.943 265.438C281.26 265.261 281.601 265.121 281.965 265.018C282.338 264.915 282.735 264.864 283.155 264.864C283.78 264.864 284.317 264.971 284.765 265.186C285.213 265.401 285.558 265.709 285.801 266.11C286.053 266.502 286.179 266.973 286.179 267.524C286.179 267.916 286.118 268.289 285.997 268.644C285.875 268.989 285.703 269.33 285.479 269.666C285.255 270.002 284.984 270.343 284.667 270.688C284.349 271.033 283.999 271.393 283.617 271.766L281.531 273.824V273.88H286.585V275ZM294.638 269.988C294.638 270.8 294.578 271.523 294.456 272.158C294.335 272.793 294.139 273.334 293.868 273.782C293.607 274.221 293.262 274.557 292.832 274.79C292.412 275.023 291.904 275.14 291.306 275.14C290.56 275.14 289.939 274.935 289.444 274.524C288.959 274.113 288.595 273.525 288.352 272.76C288.119 271.985 288.002 271.061 288.002 269.988C288.002 268.905 288.11 267.981 288.324 267.216C288.548 266.451 288.903 265.867 289.388 265.466C289.874 265.055 290.513 264.85 291.306 264.85C292.053 264.85 292.674 265.055 293.168 265.466C293.663 265.867 294.032 266.451 294.274 267.216C294.517 267.981 294.638 268.905 294.638 269.988ZM289.234 269.988C289.234 270.903 289.3 271.663 289.43 272.27C289.57 272.877 289.79 273.334 290.088 273.642C290.396 273.941 290.802 274.09 291.306 274.09C291.81 274.09 292.212 273.941 292.51 273.642C292.818 273.343 293.042 272.891 293.182 272.284C293.322 271.668 293.392 270.903 293.392 269.988C293.392 269.073 293.322 268.317 293.182 267.72C293.042 267.113 292.818 266.661 292.51 266.362C292.212 266.054 291.81 265.9 291.306 265.9C290.802 265.9 290.396 266.054 290.088 266.362C289.79 266.661 289.57 267.113 289.43 267.72C289.3 268.317 289.234 269.073 289.234 269.988ZM302.65 269.988C302.65 270.8 302.589 271.523 302.468 272.158C302.347 272.793 302.151 273.334 301.88 273.782C301.619 274.221 301.273 274.557 300.844 274.79C300.424 275.023 299.915 275.14 299.318 275.14C298.571 275.14 297.951 274.935 297.456 274.524C296.971 274.113 296.607 273.525 296.364 272.76C296.131 271.985 296.014 271.061 296.014 269.988C296.014 268.905 296.121 267.981 296.336 267.216C296.56 266.451 296.915 265.867 297.4 265.466C297.885 265.055 298.525 264.85 299.318 264.85C300.065 264.85 300.685 265.055 301.18 265.466C301.675 265.867 302.043 266.451 302.286 267.216C302.529 267.981 302.65 268.905 302.65 269.988ZM297.246 269.988C297.246 270.903 297.311 271.663 297.442 272.27C297.582 272.877 297.801 273.334 298.1 273.642C298.408 273.941 298.814 274.09 299.318 274.09C299.822 274.09 300.223 273.941 300.522 273.642C300.83 273.343 301.054 272.891 301.194 272.284C301.334 271.668 301.404 270.903 301.404 269.988C301.404 269.073 301.334 268.317 301.194 267.72C301.054 267.113 300.83 266.661 300.522 266.362C300.223 266.054 299.822 265.9 299.318 265.9C298.814 265.9 298.408 266.054 298.1 266.362C297.801 266.661 297.582 267.113 297.442 267.72C297.311 268.317 297.246 269.073 297.246 269.988ZM306.028 273.53C305.944 273.857 305.837 274.211 305.706 274.594C305.575 274.977 305.431 275.355 305.272 275.728C305.123 276.111 304.973 276.47 304.824 276.806H303.914C304.007 276.451 304.096 276.069 304.18 275.658C304.273 275.257 304.357 274.86 304.432 274.468C304.507 274.067 304.567 273.703 304.614 273.376H305.93L306.028 273.53ZM314.408 269.988C314.408 270.8 314.347 271.523 314.226 272.158C314.105 272.793 313.909 273.334 313.638 273.782C313.377 274.221 313.031 274.557 312.602 274.79C312.182 275.023 311.673 275.14 311.076 275.14C310.329 275.14 309.709 274.935 309.214 274.524C308.729 274.113 308.365 273.525 308.122 272.76C307.889 271.985 307.772 271.061 307.772 269.988C307.772 268.905 307.879 267.981 308.094 267.216C308.318 266.451 308.673 265.867 309.158 265.466C309.643 265.055 310.283 264.85 311.076 264.85C311.823 264.85 312.443 265.055 312.938 265.466C313.433 265.867 313.801 266.451 314.044 267.216C314.287 267.981 314.408 268.905 314.408 269.988ZM309.004 269.988C309.004 270.903 309.069 271.663 309.2 272.27C309.34 272.877 309.559 273.334 309.858 273.642C310.166 273.941 310.572 274.09 311.076 274.09C311.58 274.09 311.981 273.941 312.28 273.642C312.588 273.343 312.812 272.891 312.952 272.284C313.092 271.668 313.162 270.903 313.162 269.988C313.162 269.073 313.092 268.317 312.952 267.72C312.812 267.113 312.588 266.661 312.28 266.362C311.981 266.054 311.58 265.9 311.076 265.9C310.572 265.9 310.166 266.054 309.858 266.362C309.559 266.661 309.34 267.113 309.2 267.72C309.069 268.317 309.004 269.073 309.004 269.988ZM322.42 269.988C322.42 270.8 322.359 271.523 322.238 272.158C322.116 272.793 321.92 273.334 321.65 273.782C321.388 274.221 321.043 274.557 320.614 274.79C320.194 275.023 319.685 275.14 319.088 275.14C318.341 275.14 317.72 274.935 317.226 274.524C316.74 274.113 316.376 273.525 316.134 272.76C315.9 271.985 315.784 271.061 315.784 269.988C315.784 268.905 315.891 267.981 316.106 267.216C316.33 266.451 316.684 265.867 317.17 265.466C317.655 265.055 318.294 264.85 319.088 264.85C319.834 264.85 320.455 265.055 320.95 265.466C321.444 265.867 321.813 266.451 322.056 267.216C322.298 267.981 322.42 268.905 322.42 269.988ZM317.016 269.988C317.016 270.903 317.081 271.663 317.212 272.27C317.352 272.877 317.571 273.334 317.87 273.642C318.178 273.941 318.584 274.09 319.088 274.09C319.592 274.09 319.993 273.941 320.292 273.642C320.6 273.343 320.824 272.891 320.964 272.284C321.104 271.668 321.174 270.903 321.174 269.988C321.174 269.073 321.104 268.317 320.964 267.72C320.824 267.113 320.6 266.661 320.292 266.362C319.993 266.054 319.592 265.9 319.088 265.9C318.584 265.9 318.178 266.054 317.87 266.362C317.571 266.661 317.352 267.113 317.212 267.72C317.081 268.317 317.016 269.073 317.016 269.988ZM330.431 269.988C330.431 270.8 330.371 271.523 330.249 272.158C330.128 272.793 329.932 273.334 329.661 273.782C329.4 274.221 329.055 274.557 328.625 274.79C328.205 275.023 327.697 275.14 327.099 275.14C326.353 275.14 325.732 274.935 325.237 274.524C324.752 274.113 324.388 273.525 324.145 272.76C323.912 271.985 323.795 271.061 323.795 269.988C323.795 268.905 323.903 267.981 324.117 267.216C324.341 266.451 324.696 265.867 325.181 265.466C325.667 265.055 326.306 264.85 327.099 264.85C327.846 264.85 328.467 265.055 328.961 265.466C329.456 265.867 329.825 266.451 330.067 267.216C330.31 267.981 330.431 268.905 330.431 269.988ZM325.027 269.988C325.027 270.903 325.093 271.663 325.223 272.27C325.363 272.877 325.583 273.334 325.881 273.642C326.189 273.941 326.595 274.09 327.099 274.09C327.603 274.09 328.005 273.941 328.303 273.642C328.611 273.343 328.835 272.891 328.975 272.284C329.115 271.668 329.185 270.903 329.185 269.988C329.185 269.073 329.115 268.317 328.975 267.72C328.835 267.113 328.611 266.661 328.303 266.362C328.005 266.054 327.603 265.9 327.099 265.9C326.595 265.9 326.189 266.054 325.881 266.362C325.583 266.661 325.363 267.113 325.223 267.72C325.093 268.317 325.027 269.073 325.027 269.988ZM338.443 270.898H340.991V263.478H342.139V273.04H340.991V271.752H338.443V270.898ZM335.881 264.836C334.691 264.836 333.879 265.368 333.879 266.166C333.879 266.978 334.691 267.51 335.881 267.51C337.071 267.51 337.883 266.978 337.883 266.166C337.883 265.368 337.071 264.836 335.881 264.836ZM335.881 268.364C334.047 268.364 332.787 267.51 332.787 266.166C332.787 264.85 334.047 263.982 335.881 263.982C337.715 263.982 338.975 264.85 338.975 266.166C338.975 267.51 337.715 268.364 335.881 268.364ZM335.433 272.592V270.17C334.187 270.226 332.983 270.24 331.947 270.24L331.793 269.288C334.117 269.288 337.225 269.26 339.885 268.924L339.983 269.75C338.877 269.918 337.715 270.044 336.581 270.114V272.592H335.433ZM334.733 274.818H342.461V275.756H333.585V272.102H334.733V274.818Z" fill="black" fill-opacity="0.87"/>
<line y1="295.5" x2="360" y2="295.5" stroke="black" stroke-opacity="0.1"/>
<rect y="296" width="360" height="50" fill="white"/>
<path d="M63.622 320.162L63.734 321.086C62.292 321.38 61.102 321.436 59.086 321.436H58.288V315.402H63.132V316.326H59.394V317.908H62.992V318.79H59.394V320.498C61.186 320.498 62.306 320.428 63.622 320.162ZM59.898 323.676V322.752H68.34V327.036H67.192V323.676H59.898ZM67.234 314.492H68.34V322.094H67.234V318.692H65.554V322.01H64.462V314.716H65.554V317.754H67.234V314.492ZM75.0729 315.57V317.824C75.0729 320.12 76.5709 322.43 78.4329 323.27L77.7469 324.194C76.3189 323.494 75.1149 322.01 74.5129 320.218C73.9389 322.108 72.7349 323.676 71.2649 324.432L70.5649 323.494C72.4129 322.612 73.9389 320.204 73.9389 317.824V315.57H75.0729ZM79.7489 314.478H80.8969V327.064H79.7489V314.478ZM92.6278 314.478H93.7758V327.05H92.6278V314.478ZM84.2138 315.542H85.3478V318.86H88.9878V315.542H90.1218V324.012H84.2138V315.542ZM85.3478 319.77V323.074H88.9878V319.77H85.3478Z" fill="black" fill-opacity="0.87"/>
<path d="M280.286 326H279.082V319.014C279.082 318.743 279.082 318.515 279.082 318.328C279.092 318.141 279.101 317.969 279.11 317.81C279.12 317.642 279.129 317.469 279.138 317.292C278.989 317.441 278.854 317.567 278.732 317.67C278.611 317.773 278.457 317.903 278.27 318.062L277.206 318.93L276.562 318.104L279.264 316.004H280.286V326ZM290.608 326H284V324.978L286.618 322.332C287.122 321.828 287.547 321.38 287.892 320.988C288.237 320.596 288.499 320.213 288.676 319.84C288.853 319.457 288.942 319.042 288.942 318.594C288.942 318.043 288.779 317.628 288.452 317.348C288.125 317.059 287.701 316.914 287.178 316.914C286.693 316.914 286.263 316.998 285.89 317.166C285.526 317.334 285.153 317.567 284.77 317.866L284.112 317.04C284.373 316.816 284.658 316.615 284.966 316.438C285.283 316.261 285.624 316.121 285.988 316.018C286.361 315.915 286.758 315.864 287.178 315.864C287.803 315.864 288.34 315.971 288.788 316.186C289.236 316.401 289.581 316.709 289.824 317.11C290.076 317.502 290.202 317.973 290.202 318.524C290.202 318.916 290.141 319.289 290.02 319.644C289.899 319.989 289.726 320.33 289.502 320.666C289.278 321.002 289.007 321.343 288.69 321.688C288.373 322.033 288.023 322.393 287.64 322.766L285.554 324.824V324.88H290.608V326ZM294.028 324.53C293.944 324.857 293.837 325.211 293.706 325.594C293.575 325.977 293.431 326.355 293.272 326.728C293.123 327.111 292.973 327.47 292.824 327.806H291.914C292.007 327.451 292.096 327.069 292.18 326.658C292.273 326.257 292.357 325.86 292.432 325.468C292.507 325.067 292.567 324.703 292.614 324.376H293.93L294.028 324.53ZM302.408 320.988C302.408 321.8 302.347 322.523 302.226 323.158C302.105 323.793 301.909 324.334 301.638 324.782C301.377 325.221 301.031 325.557 300.602 325.79C300.182 326.023 299.673 326.14 299.076 326.14C298.329 326.14 297.709 325.935 297.214 325.524C296.729 325.113 296.365 324.525 296.122 323.76C295.889 322.985 295.772 322.061 295.772 320.988C295.772 319.905 295.879 318.981 296.094 318.216C296.318 317.451 296.673 316.867 297.158 316.466C297.643 316.055 298.283 315.85 299.076 315.85C299.823 315.85 300.443 316.055 300.938 316.466C301.433 316.867 301.801 317.451 302.044 318.216C302.287 318.981 302.408 319.905 302.408 320.988ZM297.004 320.988C297.004 321.903 297.069 322.663 297.2 323.27C297.34 323.877 297.559 324.334 297.858 324.642C298.166 324.941 298.572 325.09 299.076 325.09C299.58 325.09 299.981 324.941 300.28 324.642C300.588 324.343 300.812 323.891 300.952 323.284C301.092 322.668 301.162 321.903 301.162 320.988C301.162 320.073 301.092 319.317 300.952 318.72C300.812 318.113 300.588 317.661 300.28 317.362C299.981 317.054 299.58 316.9 299.076 316.9C298.572 316.9 298.166 317.054 297.858 317.362C297.559 317.661 297.34 318.113 297.2 318.72C297.069 319.317 297.004 320.073 297.004 320.988ZM310.42 320.988C310.42 321.8 310.359 322.523 310.238 323.158C310.116 323.793 309.92 324.334 309.65 324.782C309.388 325.221 309.043 325.557 308.614 325.79C308.194 326.023 307.685 326.14 307.088 326.14C306.341 326.14 305.72 325.935 305.226 325.524C304.74 325.113 304.376 324.525 304.134 323.76C303.9 322.985 303.784 322.061 303.784 320.988C303.784 319.905 303.891 318.981 304.106 318.216C304.33 317.451 304.684 316.867 305.17 316.466C305.655 316.055 306.294 315.85 307.088 315.85C307.834 315.85 308.455 316.055 308.95 316.466C309.444 316.867 309.813 317.451 310.056 318.216C310.298 318.981 310.42 319.905 310.42 320.988ZM305.016 320.988C305.016 321.903 305.081 322.663 305.212 323.27C305.352 323.877 305.571 324.334 305.87 324.642C306.178 324.941 306.584 325.09 307.088 325.09C307.592 325.09 307.993 324.941 308.292 324.642C308.6 324.343 308.824 323.891 308.964 323.284C309.104 322.668 309.174 321.903 309.174 320.988C309.174 320.073 309.104 319.317 308.964 318.72C308.824 318.113 308.6 317.661 308.292 317.362C307.993 317.054 307.592 316.9 307.088 316.9C306.584 316.9 306.178 317.054 305.87 317.362C305.571 317.661 305.352 318.113 305.212 318.72C305.081 319.317 305.016 320.073 305.016 320.988ZM318.431 320.988C318.431 321.8 318.371 322.523 318.249 323.158C318.128 323.793 317.932 324.334 317.661 324.782C317.4 325.221 317.055 325.557 316.625 325.79C316.205 326.023 315.697 326.14 315.099 326.14C314.353 326.14 313.732 325.935 313.237 325.524C312.752 325.113 312.388 324.525 312.145 323.76C311.912 322.985 311.795 322.061 311.795 320.988C311.795 319.905 311.903 318.981 312.117 318.216C312.341 317.451 312.696 316.867 313.181 316.466C313.667 316.055 314.306 315.85 315.099 315.85C315.846 315.85 316.467 316.055 316.961 316.466C317.456 316.867 317.825 317.451 318.067 318.216C318.31 318.981 318.431 319.905 318.431 320.988ZM313.027 320.988C313.027 321.903 313.093 322.663 313.223 323.27C313.363 323.877 313.583 324.334 313.881 324.642C314.189 324.941 314.595 325.09 315.099 325.09C315.603 325.09 316.005 324.941 316.303 324.642C316.611 324.343 316.835 323.891 316.975 323.284C317.115 322.668 317.185 321.903 317.185 320.988C317.185 320.073 317.115 319.317 316.975 318.72C316.835 318.113 316.611 317.661 316.303 317.362C316.005 317.054 315.603 316.9 315.099 316.9C314.595 316.9 314.189 317.054 313.881 317.362C313.583 317.661 313.363 318.113 313.223 318.72C313.093 319.317 313.027 320.073 313.027 320.988ZM326.443 321.898H328.991V314.478H330.139V324.04H328.991V322.752H326.443V321.898ZM323.881 315.836C322.691 315.836 321.879 316.368 321.879 317.166C321.879 317.978 322.691 318.51 323.881 318.51C325.071 318.51 325.883 317.978 325.883 317.166C325.883 316.368 325.071 315.836 323.881 315.836ZM323.881 319.364C322.047 319.364 320.787 318.51 320.787 317.166C320.787 315.85 322.047 314.982 323.881 314.982C325.715 314.982 326.975 315.85 326.975 317.166C326.975 318.51 325.715 319.364 323.881 319.364ZM323.433 323.592V321.17C322.187 321.226 320.983 321.24 319.947 321.24L319.793 320.288C322.117 320.288 325.225 320.26 327.885 319.924L327.983 320.75C326.877 320.918 325.715 321.044 324.581 321.114V323.592H323.433ZM322.733 325.818H330.461V326.756H321.585V323.102H322.733V325.818Z" fill="black" fill-opacity="0.87"/>
<line y1="346.5" x2="360" y2="346.5" stroke="black" stroke-opacity="0.1"/>
<rect y="347" width="360" height="50" fill="white"/>
<path d="M62.082 367.704V369.16C62.082 371.246 63.552 373.528 65.372 374.396L64.686 375.292C63.286 374.578 62.082 373.08 61.508 371.344C60.962 373.192 59.744 374.802 58.316 375.558L57.644 374.648C59.436 373.766 60.934 371.386 60.934 369.16V367.704H58.092V366.766H64.938V367.704H62.082ZM66.94 365.478H68.088V378.05H66.94V370.98H64.224V370.042H66.94V365.478ZM73.1409 374.326V376.944H79.4549V374.326H73.1409ZM72.0209 377.868V373.402H80.5889V377.868H72.0209ZM80.2109 370.77H82.0169V371.694H70.6069V370.77H79.0489C79.4129 369.202 79.4129 368.054 79.4129 367.074H72.0629V366.15H80.5469V367.074C80.5469 368.054 80.5469 369.202 80.2109 370.77Z" fill="black" fill-opacity="0.87"/>
<path d="M288.978 377L293.08 368.124H287.69V367.004H294.396V367.956L290.336 377H288.978ZM302.408 371.988C302.408 372.8 302.347 373.523 302.226 374.158C302.105 374.793 301.909 375.334 301.638 375.782C301.377 376.221 301.031 376.557 300.602 376.79C300.182 377.023 299.673 377.14 299.076 377.14C298.329 377.14 297.709 376.935 297.214 376.524C296.729 376.113 296.365 375.525 296.122 374.76C295.889 373.985 295.772 373.061 295.772 371.988C295.772 370.905 295.879 369.981 296.094 369.216C296.318 368.451 296.673 367.867 297.158 367.466C297.643 367.055 298.283 366.85 299.076 366.85C299.823 366.85 300.443 367.055 300.938 367.466C301.433 367.867 301.801 368.451 302.044 369.216C302.287 369.981 302.408 370.905 302.408 371.988ZM297.004 371.988C297.004 372.903 297.069 373.663 297.2 374.27C297.34 374.877 297.559 375.334 297.858 375.642C298.166 375.941 298.572 376.09 299.076 376.09C299.58 376.09 299.981 375.941 300.28 375.642C300.588 375.343 300.812 374.891 300.952 374.284C301.092 373.668 301.162 372.903 301.162 371.988C301.162 371.073 301.092 370.317 300.952 369.72C300.812 369.113 300.588 368.661 300.28 368.362C299.981 368.054 299.58 367.9 299.076 367.9C298.572 367.9 298.166 368.054 297.858 368.362C297.559 368.661 297.34 369.113 297.2 369.72C297.069 370.317 297.004 371.073 297.004 371.988ZM310.42 371.988C310.42 372.8 310.359 373.523 310.238 374.158C310.116 374.793 309.92 375.334 309.65 375.782C309.388 376.221 309.043 376.557 308.614 376.79C308.194 377.023 307.685 377.14 307.088 377.14C306.341 377.14 305.72 376.935 305.226 376.524C304.74 376.113 304.376 375.525 304.134 374.76C303.9 373.985 303.784 373.061 303.784 371.988C303.784 370.905 303.891 369.981 304.106 369.216C304.33 368.451 304.684 367.867 305.17 367.466C305.655 367.055 306.294 366.85 307.088 366.85C307.834 366.85 308.455 367.055 308.95 367.466C309.444 367.867 309.813 368.451 310.056 369.216C310.298 369.981 310.42 370.905 310.42 371.988ZM305.016 371.988C305.016 372.903 305.081 373.663 305.212 374.27C305.352 374.877 305.571 375.334 305.87 375.642C306.178 375.941 306.584 376.09 307.088 376.09C307.592 376.09 307.993 375.941 308.292 375.642C308.6 375.343 308.824 374.891 308.964 374.284C309.104 373.668 309.174 372.903 309.174 371.988C309.174 371.073 309.104 370.317 308.964 369.72C308.824 369.113 308.6 368.661 308.292 368.362C307.993 368.054 307.592 367.9 307.088 367.9C306.584 367.9 306.178 368.054 305.87 368.362C305.571 368.661 305.352 369.113 305.212 369.72C305.081 370.317 305.016 371.073 305.016 371.988ZM318.431 371.988C318.431 372.8 318.371 373.523 318.249 374.158C318.128 374.793 317.932 375.334 317.661 375.782C317.4 376.221 317.055 376.557 316.625 376.79C316.205 377.023 315.697 377.14 315.099 377.14C314.353 377.14 313.732 376.935 313.237 376.524C312.752 376.113 312.388 375.525 312.145 374.76C311.912 373.985 311.795 373.061 311.795 371.988C311.795 370.905 311.903 369.981 312.117 369.216C312.341 368.451 312.696 367.867 313.181 367.466C313.667 367.055 314.306 366.85 315.099 366.85C315.846 366.85 316.467 367.055 316.961 367.466C317.456 367.867 317.825 368.451 318.067 369.216C318.31 369.981 318.431 370.905 318.431 371.988ZM313.027 371.988C313.027 372.903 313.093 373.663 313.223 374.27C313.363 374.877 313.583 375.334 313.881 375.642C314.189 375.941 314.595 376.09 315.099 376.09C315.603 376.09 316.005 375.941 316.303 375.642C316.611 375.343 316.835 374.891 316.975 374.284C317.115 373.668 317.185 372.903 317.185 371.988C317.185 371.073 317.115 370.317 316.975 369.72C316.835 369.113 316.611 368.661 316.303 368.362C316.005 368.054 315.603 367.9 315.099 367.9C314.595 367.9 314.189 368.054 313.881 368.362C313.583 368.661 313.363 369.113 313.223 369.72C313.093 370.317 313.027 371.073 313.027 371.988ZM326.443 372.898H328.991V365.478H330.139V375.04H328.991V373.752H326.443V372.898ZM323.881 366.836C322.691 366.836 321.879 367.368 321.879 368.166C321.879 368.978 322.691 369.51 323.881 369.51C325.071 369.51 325.883 368.978 325.883 368.166C325.883 367.368 325.071 366.836 323.881 366.836ZM323.881 370.364C322.047 370.364 320.787 369.51 320.787 368.166C320.787 366.85 322.047 365.982 323.881 365.982C325.715 365.982 326.975 366.85 326.975 368.166C326.975 369.51 325.715 370.364 323.881 370.364ZM323.433 374.592V372.17C322.187 372.226 320.983 372.24 319.947 372.24L319.793 371.288C322.117 371.288 325.225 371.26 327.885 370.924L327.983 371.75C326.877 371.918 325.715 372.044 324.581 372.114V374.592H323.433ZM322.733 376.818H330.461V377.756H321.585V374.102H322.733V376.818Z" fill="black" fill-opacity="0.87"/>
<line y1="397.5" x2="360" y2="397.5" stroke="black" stroke-opacity="0.1"/>
<rect y="398" width="360" height="50" fill="white"/>
<path d="M60.514 420.72H61.662V423.114H60.514V420.72ZM65.162 420.72H66.31V423.114H65.162V420.72ZM57.686 422.694H69.124V423.632H57.686V422.694ZM63.398 424.584C66.114 424.584 67.738 425.382 67.738 426.824C67.738 428.266 66.114 429.078 63.398 429.078C60.682 429.078 59.058 428.266 59.058 426.824C59.058 425.382 60.682 424.584 63.398 424.584ZM63.398 425.48C61.424 425.48 60.234 425.97 60.234 426.824C60.234 427.692 61.424 428.168 63.398 428.168C65.386 428.168 66.562 427.692 66.562 426.824C66.562 425.97 65.386 425.48 63.398 425.48ZM63.412 416.66C66.156 416.66 67.864 417.542 67.864 419.026C67.864 420.496 66.156 421.364 63.412 421.364C60.654 421.364 58.96 420.496 58.96 419.026C58.96 417.542 60.654 416.66 63.412 416.66ZM63.412 417.57C61.396 417.57 60.15 418.102 60.15 419.026C60.15 419.936 61.396 420.468 63.412 420.468C65.428 420.468 66.674 419.936 66.674 419.026C66.674 418.102 65.428 417.57 63.412 417.57ZM70.5789 423.1H82.0169V424.038H70.5789V423.1ZM75.7169 421.028H76.8649V423.576H75.7169V421.028ZM72.0209 420.496H80.7009V421.448H72.0209V420.496ZM72.0209 417.066H80.5889V418.018H73.1829V420.902H72.0209V417.066ZM72.0349 427.86H80.8129V428.812H72.0349V427.86ZM72.0349 425.172H73.1969V428.182H72.0349V425.172Z" fill="black" fill-opacity="0.87"/>
<path d="M298.924 421.868C299.606 421.868 300.198 421.985 300.702 422.218C301.206 422.451 301.594 422.787 301.864 423.226C302.144 423.655 302.284 424.183 302.284 424.808C302.284 425.499 302.135 426.096 301.836 426.6C301.538 427.095 301.108 427.477 300.548 427.748C299.998 428.009 299.33 428.14 298.546 428.14C298.033 428.14 297.548 428.093 297.09 428C296.642 427.907 296.264 427.771 295.956 427.594V426.432C296.292 426.637 296.698 426.801 297.174 426.922C297.66 427.034 298.122 427.09 298.56 427.09C299.055 427.09 299.484 427.015 299.848 426.866C300.222 426.707 300.511 426.469 300.716 426.152C300.922 425.825 301.024 425.419 301.024 424.934C301.024 424.281 300.824 423.781 300.422 423.436C300.021 423.081 299.386 422.904 298.518 422.904C298.257 422.904 297.958 422.927 297.622 422.974C297.286 423.021 297.016 423.067 296.81 423.114L296.194 422.722L296.572 418.004H301.584V419.124H297.622L297.384 422.022C297.543 421.994 297.758 421.961 298.028 421.924C298.299 421.887 298.598 421.868 298.924 421.868ZM310.408 422.988C310.408 423.8 310.347 424.523 310.226 425.158C310.105 425.793 309.909 426.334 309.638 426.782C309.377 427.221 309.031 427.557 308.602 427.79C308.182 428.023 307.673 428.14 307.076 428.14C306.329 428.14 305.709 427.935 305.214 427.524C304.729 427.113 304.365 426.525 304.122 425.76C303.889 424.985 303.772 424.061 303.772 422.988C303.772 421.905 303.879 420.981 304.094 420.216C304.318 419.451 304.673 418.867 305.158 418.466C305.643 418.055 306.283 417.85 307.076 417.85C307.823 417.85 308.443 418.055 308.938 418.466C309.433 418.867 309.801 419.451 310.044 420.216C310.287 420.981 310.408 421.905 310.408 422.988ZM305.004 422.988C305.004 423.903 305.069 424.663 305.2 425.27C305.34 425.877 305.559 426.334 305.858 426.642C306.166 426.941 306.572 427.09 307.076 427.09C307.58 427.09 307.981 426.941 308.28 426.642C308.588 426.343 308.812 425.891 308.952 425.284C309.092 424.668 309.162 423.903 309.162 422.988C309.162 422.073 309.092 421.317 308.952 420.72C308.812 420.113 308.588 419.661 308.28 419.362C307.981 419.054 307.58 418.9 307.076 418.9C306.572 418.9 306.166 419.054 305.858 419.362C305.559 419.661 305.34 420.113 305.2 420.72C305.069 421.317 305.004 422.073 305.004 422.988ZM318.42 422.988C318.42 423.8 318.359 424.523 318.238 425.158C318.116 425.793 317.92 426.334 317.65 426.782C317.388 427.221 317.043 427.557 316.614 427.79C316.194 428.023 315.685 428.14 315.088 428.14C314.341 428.14 313.72 427.935 313.226 427.524C312.74 427.113 312.376 426.525 312.134 425.76C311.9 424.985 311.784 424.061 311.784 422.988C311.784 421.905 311.891 420.981 312.106 420.216C312.33 419.451 312.684 418.867 313.17 418.466C313.655 418.055 314.294 417.85 315.088 417.85C315.834 417.85 316.455 418.055 316.95 418.466C317.444 418.867 317.813 419.451 318.056 420.216C318.298 420.981 318.42 421.905 318.42 422.988ZM313.016 422.988C313.016 423.903 313.081 424.663 313.212 425.27C313.352 425.877 313.571 426.334 313.87 426.642C314.178 426.941 314.584 427.09 315.088 427.09C315.592 427.09 315.993 426.941 316.292 426.642C316.6 426.343 316.824 425.891 316.964 425.284C317.104 424.668 317.174 423.903 317.174 422.988C317.174 422.073 317.104 421.317 316.964 420.72C316.824 420.113 316.6 419.661 316.292 419.362C315.993 419.054 315.592 418.9 315.088 418.9C314.584 418.9 314.178 419.054 313.87 419.362C313.571 419.661 313.352 420.113 313.212 420.72C313.081 421.317 313.016 422.073 313.016 422.988ZM326.431 422.988C326.431 423.8 326.371 424.523 326.249 425.158C326.128 425.793 325.932 426.334 325.661 426.782C325.4 427.221 325.055 427.557 324.625 427.79C324.205 428.023 323.697 428.14 323.099 428.14C322.353 428.14 321.732 427.935 321.237 427.524C320.752 427.113 320.388 426.525 320.145 425.76C319.912 424.985 319.795 424.061 319.795 422.988C319.795 421.905 319.903 420.981 320.117 420.216C320.341 419.451 320.696 418.867 321.181 418.466C321.667 418.055 322.306 417.85 323.099 417.85C323.846 417.85 324.467 418.055 324.961 418.466C325.456 418.867 325.825 419.451 326.067 420.216C326.31 420.981 326.431 421.905 326.431 422.988ZM321.027 422.988C321.027 423.903 321.093 424.663 321.223 425.27C321.363 425.877 321.583 426.334 321.881 426.642C322.189 426.941 322.595 427.09 323.099 427.09C323.603 427.09 324.005 426.941 324.303 426.642C324.611 426.343 324.835 425.891 324.975 425.284C325.115 424.668 325.185 423.903 325.185 422.988C325.185 422.073 325.115 421.317 324.975 420.72C324.835 420.113 324.611 419.661 324.303 419.362C324.005 419.054 323.603 418.9 323.099 418.9C322.595 418.9 322.189 419.054 321.881 419.362C321.583 419.661 321.363 420.113 321.223 420.72C321.093 421.317 321.027 422.073 321.027 422.988ZM331.405 422.806H332.567V425.62H331.405V422.806ZM337.019 416.436H338.181V426.068H337.019V416.436ZM329.543 427.86H338.489V428.812H329.543V427.86ZM329.543 425.13H330.705V428.126H329.543V425.13ZM327.905 423.24L327.751 422.288C330.089 422.288 333.225 422.26 335.913 421.91L335.997 422.764C333.267 423.198 330.201 423.24 327.905 423.24ZM334.443 423.912H337.313V424.766H334.443V423.912ZM331.867 416.954C333.715 416.954 334.975 417.822 334.975 419.152C334.975 420.496 333.715 421.364 331.867 421.364C330.005 421.364 328.745 420.496 328.745 419.152C328.745 417.822 330.005 416.954 331.867 416.954ZM331.867 417.822C330.677 417.822 329.851 418.34 329.851 419.152C329.851 419.964 330.677 420.482 331.867 420.482C333.043 420.482 333.869 419.964 333.869 419.152C333.869 418.34 333.043 417.822 331.867 417.822Z" fill="black" fill-opacity="0.87"/>
<line y1="448.5" x2="360" y2="448.5" stroke="black" stroke-opacity="0.1"/>
<path d="M22 225.832V227.5C22 228.879 25.3594 230 29.5 230C33.6406 230 37 228.879 37 227.5V225.832C35.3867 226.969 32.4375 227.5 29.5 227.5C26.5625 227.5 23.6133 226.969 22 225.832ZM34.5 215C38.6406 215 42 213.879 42 212.5C42 211.121 38.6406 210 34.5 210C30.3594 210 27 211.121 27 212.5C27 213.879 30.3594 215 34.5 215ZM22 221.734V223.75C22 225.129 25.3594 226.25 29.5 226.25C33.6406 226.25 37 225.129 37 223.75V221.734C35.3867 223.062 32.4336 223.75 29.5 223.75C26.5664 223.75 23.6133 223.062 22 221.734ZM38.25 222.164C40.4883 221.73 42 220.926 42 220V218.332C41.0938 218.973 39.7617 219.41 38.25 219.68V222.164ZM29.5 216.25C25.3594 216.25 22 217.648 22 219.375C22 221.102 25.3594 222.5 29.5 222.5C33.6406 222.5 37 221.102 37 219.375C37 217.648 33.6406 216.25 29.5 216.25ZM38.0664 218.449C40.4102 218.027 42 217.199 42 216.25V214.582C40.6133 215.562 38.2305 216.09 35.7227 216.215C36.875 216.773 37.7227 217.523 38.0664 218.449Z" fill="black" fill-opacity="0.34"/>
<path d="M22 276.832V278.5C22 279.879 25.3594 281 29.5 281C33.6406 281 37 279.879 37 278.5V276.832C35.3867 277.969 32.4375 278.5 29.5 278.5C26.5625 278.5 23.6133 277.969 22 276.832ZM34.5 266C38.6406 266 42 264.879 42 263.5C42 262.121 38.6406 261 34.5 261C30.3594 261 27 262.121 27 263.5C27 264.879 30.3594 266 34.5 266ZM22 272.734V274.75C22 276.129 25.3594 277.25 29.5 277.25C33.6406 277.25 37 276.129 37 274.75V272.734C35.3867 274.062 32.4336 274.75 29.5 274.75C26.5664 274.75 23.6133 274.062 22 272.734ZM38.25 273.164C40.4883 272.73 42 271.926 42 271V269.332C41.0938 269.973 39.7617 270.41 38.25 270.68V273.164ZM29.5 267.25C25.3594 267.25 22 268.648 22 270.375C22 272.102 25.3594 273.5 29.5 273.5C33.6406 273.5 37 272.102 37 270.375C37 268.648 33.6406 267.25 29.5 267.25ZM38.0664 269.449C40.4102 269.027 42 268.199 42 267.25V265.582C40.6133 266.562 38.2305 267.09 35.7227 267.215C36.875 267.773 37.7227 268.523 38.0664 269.449Z" fill="black" fill-opacity="0.34"/>
<path d="M25 321L26.5 316.5H37.5L39 321M37.5 326C37.1022 326 36.7206 325.842 36.4393 325.561C36.158 325.279 36 324.898 36 324.5C36 324.102 36.158 323.721 36.4393 323.439C36.7206 323.158 37.1022 323 37.5 323C37.8978 323 38.2794 323.158 38.5607 323.439C38.842 323.721 39 324.102 39 324.5C39 324.898 38.842 325.279 38.5607 325.561C38.2794 325.842 37.8978 326 37.5 326ZM26.5 326C26.1022 326 25.7206 325.842 25.4393 325.561C25.158 325.279 25 324.898 25 324.5C25 324.102 25.158 323.721 25.4393 323.439C25.7206 323.158 26.1022 323 26.5 323C26.8978 323 27.2794 323.158 27.5607 323.439C27.842 323.721 28 324.102 28 324.5C28 324.898 27.842 325.279 27.5607 325.561C27.2794 325.842 26.8978 326 26.5 326ZM38.92 316C38.72 315.42 38.16 315 37.5 315H26.5C25.84 315 25.28 315.42 25.08 316L23 322V330C23 330.265 23.1054 330.52 23.2929 330.707C23.4804 330.895 23.7348 331 24 331H25C25.2652 331 25.5196 330.895 25.7071 330.707C25.8946 330.52 26 330.265 26 330V329H38V330C38 330.265 38.1054 330.52 38.2929 330.707C38.4804 330.895 38.7348 331 39 331H40C40.2652 331 40.5196 330.895 40.7071 330.707C40.8946 330.52 41 330.265 41 330V322L38.92 316Z" fill="black" fill-opacity="0.34"/>
<path d="M41.1875 368.257C41.15 368.164 41.1106 368.07 41.0703 367.976C40.4654 366.581 39.4865 365.381 38.2419 364.507H40.25C40.4489 364.507 40.6397 364.428 40.7803 364.288C40.921 364.147 41 363.956 41 363.757C41 363.558 40.921 363.368 40.7803 363.227C40.6397 363.086 40.4489 363.007 40.25 363.007H30.5C28.4263 363.01 26.4295 363.792 24.906 365.199C23.3825 366.606 22.4438 368.534 22.2763 370.601C21.6284 370.762 21.0528 371.135 20.6405 371.66C20.2282 372.185 20.0028 372.832 20 373.5C20 373.699 20.079 373.89 20.2197 374.03C20.3603 374.171 20.5511 374.25 20.75 374.25C20.9489 374.25 21.1397 374.171 21.2803 374.03C21.421 373.89 21.5 373.699 21.5 373.5C21.5002 373.226 21.5751 372.958 21.7167 372.724C21.8583 372.49 22.0612 372.299 22.3034 372.172C22.4901 373.855 23.1918 375.439 24.3125 376.708L25.49 380.004C25.5941 380.296 25.7859 380.548 26.039 380.726C26.2921 380.904 26.5942 381 26.9037 381H28.0963C28.4057 381 28.7075 380.904 28.9605 380.726C29.2134 380.548 29.405 380.296 29.5091 380.004L29.6891 379.5H35.0609L35.2409 380.004C35.345 380.296 35.5366 380.548 35.7895 380.726C36.0425 380.904 36.3443 381 36.6537 381H37.8463C38.1557 381 38.4575 380.904 38.7105 380.726C38.9634 380.548 39.155 380.296 39.2591 380.004L40.7787 375.75H41C41.5967 375.75 42.169 375.513 42.591 375.091C43.0129 374.669 43.25 374.097 43.25 373.5V370.5C43.2501 369.935 43.0381 369.392 42.6561 368.976C42.274 368.561 41.7499 368.304 41.1875 368.257ZM34.25 366.75H30.5C30.3011 366.75 30.1103 366.671 29.9697 366.53C29.829 366.39 29.75 366.199 29.75 366C29.75 365.801 29.829 365.61 29.9697 365.469C30.1103 365.329 30.3011 365.25 30.5 365.25H34.25C34.4489 365.25 34.6397 365.329 34.7803 365.469C34.921 365.61 35 365.801 35 366C35 366.199 34.921 366.39 34.7803 366.53C34.6397 366.671 34.4489 366.75 34.25 366.75ZM36.875 372C36.6525 372 36.435 371.934 36.25 371.81C36.065 371.687 35.9208 371.511 35.8356 371.305C35.7505 371.1 35.7282 370.874 35.7716 370.655C35.815 370.437 35.9222 370.237 36.0795 370.079C36.2368 369.922 36.4373 369.815 36.6555 369.771C36.8738 369.728 37.1 369.75 37.3055 369.835C37.5111 369.921 37.6868 370.065 37.8104 370.25C37.934 370.435 38 370.652 38 370.875C38 371.173 37.8815 371.459 37.6705 371.67C37.4595 371.881 37.1734 372 36.875 372Z" fill="black" fill-opacity="0.34"/>
<circle cx="32" cy="425" r="11" fill="black" fill-opacity="0.34"/>
<path d="M39.2278 427.416L39.5303 428.394C38.979 428.643 38.4076 428.767 37.8161 428.767C36.9758 428.767 36.3002 428.522 35.7893 428.031C35.2785 427.54 35.023 426.878 35.023 426.045C35.023 425.191 35.2684 424.526 35.7591 424.048C36.2565 423.564 36.9422 423.322 37.8161 423.322C38.4076 423.322 38.979 423.447 39.5303 423.695L39.2278 424.694C38.8043 424.452 38.3539 424.331 37.8766 424.331C37.3993 424.331 37.0262 424.478 36.7573 424.774C36.4952 425.07 36.3641 425.494 36.3641 426.045C36.3641 426.583 36.5019 427.006 36.7775 427.315C37.0598 427.624 37.4262 427.779 37.8766 427.779C38.3606 427.779 38.811 427.658 39.2278 427.416Z" fill="white"/>
<path d="M32.2759 423.625H34.0808V424.603H32.2759V426.751C32.2759 427.147 32.3263 427.416 32.4272 427.557C32.528 427.692 32.7095 427.759 32.9717 427.759C33.2943 427.759 33.5968 427.702 33.8792 427.588L34.0506 428.566C33.6338 428.7 33.1834 428.767 32.6994 428.767C32.081 428.767 31.6306 428.63 31.3482 428.354C31.0726 428.078 30.9348 427.621 30.9348 426.983V424.603H29.8458V423.625H30.9348V421.709H32.2759V423.625Z" fill="white"/>
<path d="M25.4037 425.621H27.864C27.8573 425.184 27.7464 424.852 27.5313 424.623C27.3229 424.388 27.0271 424.27 26.6439 424.27C26.2742 424.27 25.9784 424.388 25.7566 424.623C25.5415 424.858 25.4238 425.191 25.4037 425.621ZM25.4037 426.519C25.4373 426.915 25.5885 427.231 25.8574 427.467C26.133 427.695 26.4792 427.809 26.896 427.809C27.3934 427.809 27.8875 427.685 28.3783 427.436L28.6808 428.364C28.0758 428.633 27.4371 428.767 26.7649 428.767C25.9717 428.767 25.3264 428.522 24.8289 428.031C24.3382 427.54 24.0928 426.878 24.0928 426.045C24.0928 425.198 24.3214 424.532 24.7785 424.048C25.2356 423.564 25.8541 423.322 26.6338 423.322C27.4136 423.322 28.0186 423.554 28.4488 424.018C28.8858 424.482 29.1043 425.147 29.1043 426.015C29.1043 426.183 29.0942 426.351 29.074 426.519H25.4037Z" fill="white"/>
<g filter="url(#filter1_d_988_6592)">
<path d="M0 745C0 736.716 6.71573 730 15 730H345C353.284 730 360 736.716 360 745V800H0V745Z" fill="white"/>
</g>
<path d="M0 745C0 736.716 6.71573 730 15 730H72V800H0V745Z" fill="white"/>
<path d="M72 730H144V800H72V730Z" fill="white"/>
<path d="M144 730H216V800H144V730Z" fill="white"/>
<path d="M216 730H288V800H216V730Z" fill="white"/>
<path d="M288 730H345C353.284 730 360 736.716 360 745V800H288V730Z" fill="white"/>
<path d="M32.8904 781.08H39.0604V783.66H32.8904V781.08ZM38.2504 781.72H33.7104V783.03H38.2504V781.72ZM32.3204 775.48H39.5904V776.13H32.3204V775.48ZM35.9804 776.49C37.8404 776.49 38.9004 776.93 38.9004 777.77C38.9004 778.61 37.8404 779.05 35.9804 779.05C34.1104 779.05 33.0604 778.61 33.0604 777.77C33.0604 776.93 34.1104 776.49 35.9804 776.49ZM35.9804 777.07C34.6704 777.07 33.9404 777.32 33.9404 777.77C33.9404 778.22 34.6704 778.47 35.9804 778.47C37.2804 778.47 38.0104 778.22 38.0104 777.77C38.0104 777.32 37.2804 777.07 35.9804 777.07ZM35.5704 774.61H36.3904V775.9H35.5704V774.61ZM31.8904 779.74H40.0604V780.39H31.8904V779.74ZM35.5704 778.85H36.3904V780.1H35.5704V778.85Z" fill="black" fill-opacity="0.87"/>
<path d="M92.3912 775.06H93.1212V775.56C93.1212 777.29 91.3612 778.53 89.4812 778.85L89.1512 778.18C90.8012 777.93 92.3912 776.85 92.3912 775.56V775.06ZM92.5412 775.06H93.2612V775.56C93.2612 776.82 94.8712 777.93 96.5012 778.18L96.1712 778.85C94.3112 778.53 92.5412 777.27 92.5412 775.56V775.06ZM92.3912 780.34H93.2112V783.78H92.3912V780.34ZM88.7412 779.83H96.9112V780.52H88.7412V779.83ZM104.51 774.74H105.35V779.59H104.51V774.74ZM99.5204 780.04H100.34V781.14H104.53V780.04H105.35V783.66H99.5204V780.04ZM100.34 781.8V782.99H104.53V781.8H100.34ZM100.5 775.17C101.87 775.17 102.85 776.02 102.85 777.25C102.85 778.49 101.87 779.34 100.5 779.34C99.1304 779.34 98.1404 778.49 98.1404 777.25C98.1404 776.02 99.1304 775.17 100.5 775.17ZM100.5 775.86C99.6004 775.86 98.9504 776.43 98.9504 777.25C98.9504 778.07 99.6004 778.64 100.5 778.64C101.4 778.64 102.05 778.07 102.05 777.25C102.05 776.43 101.4 775.86 100.5 775.86ZM110.26 775.86L107.6 783H106.74L109.4 775.86H110.26ZM113.25 776.03H113.92V777.5C113.92 779.41 112.77 781.33 111.33 782.04L110.85 781.38C112.16 780.76 113.25 779.06 113.25 777.5V776.03ZM113.41 776.03H114.08V777.5C114.08 779.03 115.17 780.59 116.5 781.16L116.03 781.82C114.57 781.14 113.41 779.38 113.41 777.5V776.03ZM111.15 775.66H116.2V776.36H111.15V775.66ZM117.42 774.74H118.25V783.78H117.42V774.74ZM123.72 779.24H124.55V780.61H123.72V779.24ZM120.06 778.75H128.22V779.39H120.06V778.75ZM123.73 774.68H124.55V775.78H123.73V774.68ZM123.69 775.86H124.42V776C124.42 777.42 122.73 778.18 120.73 778.35L120.49 777.71C122.27 777.6 123.69 776.97 123.69 776V775.86ZM123.86 775.86H124.59V776C124.59 776.97 126.01 777.6 127.78 777.71L127.54 778.35C125.54 778.18 123.86 777.42 123.86 776V775.86ZM120.89 775.53H127.39V776.16H120.89V775.53ZM121.04 780.21H127.18V782.2H121.88V783.29H121.06V781.61H126.36V780.84H121.04V780.21ZM121.06 783.05H127.45V783.68H121.06V783.05Z" fill="#D0D0D0"/>
<path d="M175.301 777.25H177.311V777.92H175.301V777.25ZM175.231 779.52H177.291V780.19H175.231V779.52ZM178.681 774.74H179.481V783.78H178.681V774.74ZM176.871 774.97H177.651V783.32H176.871V774.97ZM174.851 775.88H175.651C175.651 778.25 174.701 780.38 172.271 781.83L171.791 781.24C173.901 779.96 174.851 778.16 174.851 776.03V775.88ZM172.191 775.88H175.181V776.56H172.191V775.88ZM181.33 775.56H186.62V776.18H181.33V775.56ZM183.98 776.53C185.28 776.53 186.13 777.05 186.13 777.87C186.13 778.7 185.28 779.22 183.98 779.22C182.69 779.22 181.84 778.7 181.84 777.87C181.84 777.05 182.69 776.53 183.98 776.53ZM183.98 777.11C183.17 777.11 182.62 777.4 182.62 777.87C182.62 778.33 183.17 778.64 183.98 778.64C184.81 778.64 185.34 778.33 185.34 777.87C185.34 777.4 184.81 777.11 183.98 777.11ZM183.56 774.68H184.4V775.89H183.56V774.68ZM183.56 778.89H184.4V780.12H183.56V778.89ZM187.56 774.75H188.39V780.8H187.56V774.75ZM182.33 781.22H188.39V783.78H187.56V781.88H182.33V781.22ZM181.15 780.52L181.04 779.85C182.7 779.85 184.94 779.84 186.84 779.58L186.9 780.16C184.93 780.49 182.78 780.52 181.15 780.52Z" fill="black" fill-opacity="0.87"/>
<path d="M239.191 775.62H242.461V776.3H239.191V775.62ZM242.031 775.62H242.801V776.22C242.801 776.98 242.801 777.97 242.491 779.34L241.721 779.25C242.031 777.9 242.031 776.97 242.031 776.22V775.62ZM242.401 777.21V777.81L239.061 778.09L238.931 777.41L242.401 777.21ZM245.551 774.74H246.351V783.78H245.551V774.74ZM243.851 774.94H244.631V783.28H243.851V774.94ZM242.161 780.55H244.131V781.2H242.161V780.55ZM240.511 779.49H241.301V783.05H240.511V779.49ZM238.681 779.9L238.581 779.19C239.861 779.18 241.861 779.13 243.301 778.93L243.351 779.56C241.881 779.82 239.941 779.9 238.681 779.9ZM251.52 775.36H252.24V776.05C252.24 778.02 250.41 779.55 248.6 779.96L248.23 779.27C249.82 778.97 251.52 777.59 251.52 776.05V775.36ZM251.67 775.36H252.39V776.05C252.39 777.6 254.1 778.97 255.68 779.27L255.31 779.96C253.51 779.55 251.67 778.03 251.67 776.05V775.36ZM247.9 781.88H256.09V782.56H247.9V781.88ZM258.15 779.61H264.36V780.28H258.15V779.61ZM257.1 781.93H265.29V782.62H257.1V781.93ZM258.15 775.51H264.26V776.19H258.99V779.82H258.15V775.51ZM258.72 777.53H264.07V778.19H258.72V777.53Z" fill="black" fill-opacity="0.87"/>
<path d="M301.852 775.64H306.002V781.49H301.852V775.64ZM305.192 776.31H302.662V780.82H305.192V776.31ZM307.612 774.74H308.452V783.78H307.612V774.74ZM308.252 778.35H309.932V779.05H308.252V778.35ZM317.261 774.73H318.091V783.79H317.261V774.73ZM313.321 775.43C314.661 775.43 315.621 776.66 315.621 778.58C315.621 780.51 314.661 781.74 313.321 781.74C311.991 781.74 311.031 780.51 311.031 778.58C311.031 776.66 311.991 775.43 313.321 775.43ZM313.321 776.18C312.441 776.18 311.821 777.12 311.821 778.58C311.821 780.05 312.441 781.01 313.321 781.01C314.211 781.01 314.821 780.05 314.821 778.58C314.821 777.12 314.211 776.18 313.321 776.18ZM326.82 774.74H327.62V783.78H326.82V774.74ZM323.84 778.18H325.34V778.91H323.84V778.18ZM325.07 774.96H325.86V783.31H325.07V774.96ZM319.98 775.88H324.11V776.56H319.98V775.88ZM319.9 781.56L319.8 780.86C320.97 780.86 322.93 780.82 324.3 780.64L324.36 781.25C322.95 781.52 321.06 781.56 319.9 781.56ZM320.72 776.32H321.48V781.05H320.72V776.32ZM322.6 776.32H323.36V781.05H322.6V776.32ZM335.66 774.73H336.49V783.79H335.66V774.73ZM331.72 775.43C333.06 775.43 334.02 776.66 334.02 778.58C334.02 780.51 333.06 781.74 331.72 781.74C330.39 781.74 329.43 780.51 329.43 778.58C329.43 776.66 330.39 775.43 331.72 775.43ZM331.72 776.18C330.84 776.18 330.22 777.12 330.22 778.58C330.22 780.05 330.84 781.01 331.72 781.01C332.61 781.01 333.22 780.05 333.22 778.58C333.22 777.12 332.61 776.18 331.72 776.18ZM340.689 776.03H341.359V777.5C341.359 779.41 340.209 781.33 338.769 782.04L338.289 781.38C339.599 780.76 340.689 779.06 340.689 777.5V776.03ZM340.849 776.03H341.519V777.5C341.519 779.03 342.609 780.59 343.939 781.16L343.469 781.82C342.009 781.14 340.849 779.38 340.849 777.5V776.03ZM338.589 775.66H343.639V776.36H338.589V775.66ZM344.859 774.74H345.689V783.78H344.859V774.74Z" fill="black" fill-opacity="0.87"/>
<path d="M46.1836 754.836L36.5297 745.189C36.4602 745.119 36.3776 745.064 36.2867 745.026C36.1958 744.989 36.0984 744.969 36 744.969C35.9016 744.969 35.8042 744.989 35.7133 745.026C35.6224 745.064 35.5398 745.119 35.4703 745.189L25.8164 754.836C25.5352 755.117 25.3758 755.499 25.3758 755.898C25.3758 756.725 26.0484 757.398 26.8758 757.398H27.893V764.281C27.893 764.696 28.2281 765.031 28.643 765.031H34.5V759.781H37.125V765.031H43.357C43.7719 765.031 44.107 764.696 44.107 764.281V757.398H45.1242C45.5227 757.398 45.9047 757.241 46.1859 756.957C46.7695 756.371 46.7695 755.422 46.1836 754.836Z" fill="black" fill-opacity="0.87"/>
<path d="M98 760.832V762.5C98 763.879 101.359 765 105.5 765C109.641 765 113 763.879 113 762.5V760.832C111.387 761.969 108.438 762.5 105.5 762.5C102.562 762.5 99.6133 761.969 98 760.832ZM110.5 750C114.641 750 118 748.879 118 747.5C118 746.121 114.641 745 110.5 745C106.359 745 103 746.121 103 747.5C103 748.879 106.359 750 110.5 750ZM98 756.734V758.75C98 760.129 101.359 761.25 105.5 761.25C109.641 761.25 113 760.129 113 758.75V756.734C111.387 758.062 108.434 758.75 105.5 758.75C102.566 758.75 99.6133 758.062 98 756.734ZM114.25 757.164C116.488 756.73 118 755.926 118 755V753.332C117.094 753.973 115.762 754.41 114.25 754.68V757.164ZM105.5 751.25C101.359 751.25 98 752.648 98 754.375C98 756.102 101.359 757.5 105.5 757.5C109.641 757.5 113 756.102 113 754.375C113 752.648 109.641 751.25 105.5 751.25ZM114.066 753.449C116.41 753.027 118 752.199 118 751.25V749.582C116.613 750.562 114.23 751.09 111.723 751.215C112.875 751.773 113.723 752.523 114.066 753.449Z" fill="black" fill-opacity="0.1"/>
<path d="M189.789 744.48L190.379 745.07C191.192 745.884 191.069 747.327 190.102 748.293L177.935 760.46L173.993 761.902C173.498 762.084 173.016 761.848 172.918 761.377C172.885 761.206 172.9 761.029 172.963 760.867L174.433 756.891L186.566 744.757C187.533 743.791 188.976 743.666 189.789 744.48ZM177.404 745.69C177.535 745.69 177.665 745.716 177.787 745.766C177.908 745.816 178.018 745.89 178.111 745.983C178.204 746.076 178.278 746.186 178.328 746.307C178.378 746.428 178.404 746.558 178.404 746.69C178.404 746.821 178.378 746.951 178.328 747.072C178.278 747.194 178.204 747.304 178.111 747.397C178.018 747.49 177.908 747.563 177.787 747.614C177.665 747.664 177.535 747.69 177.404 747.69H173.404C172.874 747.69 172.365 747.9 171.99 748.276C171.615 748.651 171.404 749.159 171.404 749.69V761.69C171.404 762.22 171.615 762.729 171.99 763.104C172.365 763.479 172.874 763.69 173.404 763.69H185.404C185.934 763.69 186.443 763.479 186.818 763.104C187.193 762.729 187.404 762.22 187.404 761.69V757.69C187.404 757.425 187.509 757.17 187.697 756.983C187.884 756.795 188.139 756.69 188.404 756.69C188.669 756.69 188.924 756.795 189.111 756.983C189.299 757.17 189.404 757.425 189.404 757.69V761.69C189.404 762.751 188.983 763.768 188.232 764.518C187.482 765.268 186.465 765.69 185.404 765.69H173.404C172.343 765.69 171.326 765.268 170.576 764.518C169.825 763.768 169.404 762.751 169.404 761.69V749.69C169.404 748.629 169.825 747.611 170.576 746.861C171.326 746.111 172.343 745.69 173.404 745.69H177.404Z" fill="black" fill-opacity="0.87"/>
<g clip-path="url(#clip1_988_6592)">
<path d="M252 743C245.37 743 240 748.37 240 755C240 761.63 245.37 767 252 767C258.63 767 264 761.63 264 755C264 748.37 258.63 743 252 743ZM252 761.73C248.28 761.73 245.27 758.72 245.27 755C245.27 751.28 248.28 748.27 252 748.27C255.72 748.27 258.73 751.28 258.73 755C258.73 758.72 255.72 761.73 252 761.73Z" fill="black" fill-opacity="0.1"/>
<path d="M263.1 759.55C263.21 759.26 263.27 758.96 263.27 758.64C263.27 757.19 262.09 756.01 260.64 756.01C259.57 756.01 258.66 756.65 258.24 757.56H258.23C257.22 760 254.82 761.73 252.01 761.73C248.29 761.73 245.28 758.72 245.28 755C245.28 751.28 248.29 748.27 252.01 748.27C252.16 748.27 252.3 748.28 252.45 748.29V748.27C252.53 748.27 252.6 748.29 252.67 748.29C254.12 748.29 255.3 747.11 255.3 745.66C255.3 744.21 254.18 743.1 252.78 743.04C252.52 743 252.26 743 252 743C245.42 743 240 748.42 240 755C240 761.58 245.42 767 252 767C256.78 767 261.11 764.14 263.01 759.76C263.04 759.71 263.06 759.65 263.08 759.6C263.08 759.58 263.1 759.57 263.1 759.55Z" fill="black" fill-opacity="0.87"/>
</g>
<path d="M333.65 763.625C333.584 763.739 333.489 763.834 333.375 763.9C333.261 763.965 333.132 764 333 764H315C314.868 764 314.739 763.965 314.625 763.899C314.511 763.833 314.417 763.739 314.351 763.625C314.285 763.511 314.251 763.382 314.251 763.25C314.251 763.118 314.285 762.989 314.351 762.875C315.779 760.407 317.979 758.637 320.547 757.798C319.277 757.041 318.29 755.889 317.738 754.518C317.186 753.147 317.1 751.632 317.492 750.207C317.884 748.782 318.733 747.525 319.909 746.629C321.084 745.733 322.522 745.248 324 745.248C325.478 745.248 326.915 745.733 328.091 746.629C329.267 747.525 330.116 748.782 330.508 750.207C330.9 751.632 330.814 753.147 330.262 754.518C329.71 755.889 328.723 757.041 327.453 757.798C330.021 758.637 332.221 760.407 333.649 762.875C333.715 762.989 333.75 763.118 333.75 763.25C333.75 763.382 333.715 763.511 333.65 763.625Z" fill="black" fill-opacity="0.87"/>
<rect x="20" y="106" width="24" height="24" fill="#D9D9D9"/>
<rect x="20" y="156" width="24" height="24" fill="#D9D9D9"/>
<rect x="20" y="206" width="24" height="24" fill="#D9D9D9"/>
<rect x="20" y="258" width="24" height="24" fill="#D9D9D9"/>
<rect x="20" y="309" width="24" height="24" fill="#D9D9D9"/>
<rect x="20" y="360" width="24" height="24" fill="#D9D9D9"/>
<rect x="20" y="414" width="24" height="24" fill="#D9D9D9"/>
</g>
<defs>
<filter id="filter0_d_988_6592" x="280" y="650" width="70" height="70" filterUnits="userSpaceOnUse" color-interpolation-filters="sRGB">
<feFlood flood-opacity="0" result="BackgroundImageFix"/>
<feColorMatrix in="SourceAlpha" type="matrix" values="0 0 0 0 0 0 0 0 0 0 0 0 0 0 0 0 0 0 127 0" result="hardAlpha"/>
<feMorphology radius="3" operator="dilate" in="SourceAlpha" result="effect1_dropShadow_988_6592"/>
<feOffset/>
<feGaussianBlur stdDeviation="3.5"/>
<feComposite in2="hardAlpha" operator="out"/>
<feColorMatrix type="matrix" values="0 0 0 0 0 0 0 0 0 0 0 0 0 0 0 0 0 0 0.1 0"/>
<feBlend mode="normal" in2="BackgroundImageFix" result="effect1_dropShadow_988_6592"/>
<feBlend mode="normal" in="SourceGraphic" in2="effect1_dropShadow_988_6592" result="shape"/>
</filter>
<filter id="filter1_d_988_6592" x="-5" y="724" width="370" height="80" filterUnits="userSpaceOnUse" color-interpolation-filters="sRGB">
<feFlood flood-opacity="0" result="BackgroundImageFix"/>
<feColorMatrix in="SourceAlpha" type="matrix" values="0 0 0 0 0 0 0 0 0 0 0 0 0 0 0 0 0 0 127 0" result="hardAlpha"/>
<feMorphology radius="1" operator="dilate" in="SourceAlpha" result="effect1_dropShadow_988_6592"/>
<feOffset dy="-1"/>
<feGaussianBlur stdDeviation="2"/>
<feComposite in2="hardAlpha" operator="out"/>
<feColorMatrix type="matrix" values="0 0 0 0 0 0 0 0 0 0 0 0 0 0 0 0 0 0 0.1 0"/>
<feBlend mode="normal" in2="BackgroundImageFix" result="effect1_dropShadow_988_6592"/>
<feBlend mode="normal" in="SourceGraphic" in2="effect1_dropShadow_988_6592" result="shape"/>
</filter>
<clipPath id="clip0_988_6592">
<rect width="360" height="800" fill="white"/>
</clipPath>
<clipPath id="clip1_988_6592">
<rect width="24" height="24" fill="white" transform="translate(240 743)"/>
</clipPath>
</defs>
</svg>
