<svg width="258" height="800" viewBox="0 0 258 800" fill="none" xmlns="http://www.w3.org/2000/svg">
<g clip-path="url(#clip0_988_6536)">
<rect width="360" height="800" transform="translate(-102)" fill="white"/>
<g filter="url(#filter0_d_988_6536)">
<path d="M-102 0H258V210C258 221.046 249.046 230 238 230H-82C-93.0457 230 -102 221.046 -102 210V0Z" fill="white"/>
</g>
<path d="M-79 131H235V174H-79V131Z" fill="white"/>
<path d="M-34 131H11V174H-34V131Z" fill="white"/>
<path d="M11 131H56V174H11V131Z" fill="white"/>
<path d="M56 131H101V174H56V131Z" fill="white"/>
<path d="M101 131H146V174H101V131Z" fill="white"/>
<path d="M146 131H191V174H146V131Z" fill="white"/>
<path d="M191 131H235V174H191V131Z" fill="white"/>
<path d="M197.233 17.2332L195.833 15.7998C196.522 15.1109 197.311 14.5832 198.2 14.2165C199.089 13.8498 200.022 13.6665 201 13.6665C201.978 13.6665 202.914 13.8527 203.809 14.2252C204.703 14.5976 205.489 15.1336 206.167 15.8332L204.767 17.2332C204.267 16.7332 203.692 16.3472 203.041 16.0752C202.391 15.8032 201.711 15.6669 201 15.6665C200.289 15.6665 199.608 15.8027 198.959 16.0752C198.309 16.3476 197.734 16.7336 197.233 17.2332ZM194.4 14.3998L193 12.9998C194.056 11.9221 195.275 11.0969 196.659 10.5245C198.042 9.95206 199.489 9.66606 201 9.6665C202.511 9.6665 203.958 9.95273 205.342 10.5252C206.726 11.0976 207.945 11.9225 209 12.9998L207.6 14.3998C206.722 13.5221 205.714 12.8472 204.575 12.3752C203.436 11.9032 202.244 11.6669 201 11.6665C199.756 11.6665 198.564 11.9027 197.425 12.3752C196.286 12.8476 195.277 13.5225 194.4 14.3998ZM201 20.9998L198.65 18.6332C198.961 18.3221 199.32 18.0832 199.725 17.9165C200.131 17.7498 200.556 17.6665 201 17.6665C201.444 17.6665 201.87 17.7498 202.275 17.9165C202.681 18.0832 203.039 18.3221 203.35 18.6332L201 20.9998Z" fill="black"/>
<rect x="217.35" y="11.35" width="16.4905" height="7.44286" rx="1.65" stroke="black" stroke-width="0.7"/>
<rect x="218" y="12" width="12" height="6" rx="2" fill="black"/>
<rect x="234.44" y="13.0596" width="1.30952" height="4.02381" rx="0.25" fill="black" stroke="black" stroke-width="0.5"/>
<rect x="169" y="15" width="3" height="6" rx="0.5" fill="black"/>
<rect x="173" y="13" width="3" height="8" rx="0.5" fill="black"/>
<rect x="177" y="11" width="3" height="10" rx="0.5" fill="black"/>
<rect x="181" y="9" width="3" height="12" rx="0.5" fill="black"/>
<path d="M-74.22 44.8H-71.88V45.66C-71.88 49.22 -74.68 52.24 -79.54 52.96L-80.58 50.82C-76.32 50.26 -74.22 47.84 -74.22 45.66V44.8ZM-73.72 44.8H-71.4V45.66C-71.4 47.82 -69.28 50.26 -65.04 50.82L-66.06 52.96C-70.92 52.24 -73.72 49.22 -73.72 45.66V44.8ZM-74.2 56H-71.56V62.78H-74.2V56ZM-81.18 54.32H-64.44V56.48H-81.18V54.32ZM-50.0816 44.26H-47.4016V54.22H-50.0816V44.26ZM-59.7216 55.02H-57.1016V56.74H-50.0416V55.02H-47.4016V62.58H-59.7216V55.02ZM-57.1016 58.78V60.46H-50.0416V58.78H-57.1016ZM-57.4816 45.02C-54.6016 45.02 -52.4616 46.84 -52.4616 49.4C-52.4616 51.96 -54.6016 53.78 -57.4816 53.78C-60.3616 53.78 -62.5216 51.96 -62.5216 49.4C-62.5216 46.84 -60.3616 45.02 -57.4816 45.02ZM-57.4816 47.22C-58.9016 47.22 -59.9216 48.04 -59.9216 49.4C-59.9216 50.78 -58.9016 51.58 -57.4816 51.58C-56.0816 51.58 -55.0616 50.78 -55.0616 49.4C-55.0616 48.04 -56.0816 47.22 -57.4816 47.22ZM-40.7231 58.9C-40.8431 59.3667 -40.9965 59.8733 -41.1831 60.42C-41.3698 60.9533 -41.5698 61.4867 -41.7831 62.02C-41.9965 62.5667 -42.2165 63.0867 -42.4431 63.58H-44.5831C-44.4498 63.0467 -44.3231 62.4867 -44.2031 61.9C-44.0831 61.3267 -43.9698 60.76 -43.8631 60.2C-43.7565 59.64 -43.6698 59.1333 -43.6031 58.68H-40.8631L-40.7231 58.9ZM-34.24 47.18H-32.12V49.26C-32.12 53.54 -33.86 57.72 -37.34 59.3L-38.84 57.2C-35.74 55.82 -34.24 52.4 -34.24 49.26V47.18ZM-33.64 47.18H-31.54V49.26C-31.54 52.26 -30.06 55.46 -26.96 56.74L-28.4 58.84C-31.92 57.32 -33.64 53.38 -33.64 49.26V47.18ZM-38.1 46.04H-27.72V48.22H-38.1V46.04ZM-26 44.26H-23.32V62.78H-26V44.26ZM-13.2616 53.68H-10.6016V56.36H-13.2616V53.68ZM-20.2616 52.12H-3.58156V54.06H-20.2616V52.12ZM-13.2616 44.24H-10.6216V46.48H-13.2616V44.24ZM-13.4216 46.6H-11.0816V46.96C-11.0816 49.62 -13.7816 51.38 -18.9016 51.66L-19.6416 49.68C-15.1216 49.5 -13.4216 48.24 -13.4216 46.96V46.6ZM-12.8016 46.6H-10.4616V46.96C-10.4616 48.24 -8.76156 49.5 -4.26156 49.68L-5.00156 51.66C-10.1016 51.38 -12.8016 49.62 -12.8016 46.96V46.6ZM-18.7016 45.7H-5.16156V47.64H-18.7016V45.7ZM-18.3816 55.18H-5.58156V59.76H-15.7416V61.52H-18.3616V57.98H-8.20156V57.1H-18.3816V55.18ZM-18.3616 60.72H-5.10156V62.66H-18.3616V60.72ZM10.8569 44.26H13.5369V62.78H10.8569V44.26ZM5.39688 46.18H8.03688C8.03688 51.84 6.11688 56.48 -0.463125 59.66L-1.84312 57.54C3.47688 54.98 5.39688 51.62 5.39688 46.66V46.18ZM-0.863125 46.18H6.65688V48.28H-0.863125V46.18ZM16.4953 54.18H33.2753V56.3H16.4953V54.18ZM18.5553 44.62H31.2353V49.64H21.2153V51.64H18.5753V47.76H28.6153V46.64H18.5553V44.62ZM18.5753 50.84H31.5953V52.86H18.5753V50.84ZM23.5553 51.82H26.2153V55.34H23.5553V51.82ZM18.3553 57.34H31.3553V62.72H28.6953V59.44H18.3553V57.34Z" fill="black" fill-opacity="0.87"/>
<path d="M-75.98 254.8C-73.16 254.8 -71.04 256.56 -71.04 259.04C-71.04 261.5 -73.16 263.26 -75.98 263.26C-78.8 263.26 -80.92 261.5 -80.92 259.04C-80.92 256.56 -78.8 254.8 -75.98 254.8ZM-75.98 256.96C-77.34 256.96 -78.36 257.72 -78.36 259.04C-78.36 260.36 -77.34 261.12 -75.98 261.12C-74.62 261.12 -73.62 260.36 -73.62 259.04C-73.62 257.72 -74.62 256.96 -75.98 256.96ZM-68.48 254.26H-65.8V263.52H-68.48V254.26ZM-78.16 264.28H-65.8V269.36H-75.52V271.6H-78.12V267.44H-68.44V266.34H-78.16V264.28ZM-78.12 270.52H-65.34V272.58H-78.12V270.52ZM-55.9416 256.32H-53.6416V256.86C-53.6416 260.12 -56.3016 262.78 -61.0016 263.42L-61.9816 261.34C-57.9016 260.84 -55.9416 258.76 -55.9416 256.86V256.32ZM-55.1816 256.32H-52.8816V256.86C-52.8816 258.76 -50.9216 260.84 -46.8416 261.34L-47.8016 263.42C-52.5216 262.78 -55.1816 260.12 -55.1816 256.86V256.32ZM-55.8016 266H-53.1616V272.8H-55.8016V266ZM-62.7816 264.48H-46.0416V266.6H-62.7816V264.48ZM-61.3016 255.2H-47.5616V257.3H-61.3016V255.2ZM-39.1831 254.8C-36.3631 254.8 -34.2431 256.56 -34.2431 259.04C-34.2431 261.5 -36.3631 263.26 -39.1831 263.26C-42.0031 263.26 -44.1231 261.5 -44.1231 259.04C-44.1231 256.56 -42.0031 254.8 -39.1831 254.8ZM-39.1831 256.96C-40.5431 256.96 -41.5631 257.72 -41.5631 259.04C-41.5631 260.36 -40.5431 261.12 -39.1831 261.12C-37.8231 261.12 -36.8231 260.36 -36.8231 259.04C-36.8231 257.72 -37.8231 256.96 -39.1831 256.96ZM-31.6831 254.26H-29.0031V263.52H-31.6831V254.26ZM-41.3631 264.28H-29.0031V269.36H-38.7231V271.6H-41.3231V267.44H-31.6431V266.34H-41.3631V264.28ZM-41.3231 270.52H-28.5431V272.58H-41.3231V270.52ZM-13.4494 258.34H-10.3694V260.48H-13.4494V258.34ZM-13.4494 264.06H-10.3694V266.22H-13.4494V264.06ZM-7.42937 254.26H-4.88937V272.78H-7.42937V254.26ZM-11.1294 254.54H-8.64937V271.94H-11.1294V254.54ZM-16.6494 255.56C-14.1894 255.56 -12.6094 258.1 -12.6094 262.28C-12.6094 266.48 -14.1894 269.02 -16.6494 269.02C-19.0894 269.02 -20.6494 266.48 -20.6494 262.28C-20.6494 258.1 -19.0894 255.56 -16.6494 255.56ZM-16.6494 258.06C-17.6694 258.06 -18.2694 259.46 -18.2694 262.28C-18.2694 265.12 -17.6694 266.5 -16.6494 266.5C-15.6094 266.5 -15.0094 265.12 -15.0094 262.28C-15.0094 259.46 -15.6094 258.06 -16.6494 258.06ZM1.74906 255.4H3.92906V257.4C3.92906 261.08 2.26906 264.24 -1.27094 265.46L-2.69094 263.38C0.449063 262.38 1.74906 259.9 1.74906 257.4V255.4ZM2.26906 255.4H4.42906V257.42C4.42906 259.74 5.68906 262.06 8.66906 263.04L7.30906 265.1C3.86906 263.96 2.26906 260.9 2.26906 257.42V255.4ZM9.50906 254.26H12.1691V267.8H9.50906V254.26ZM11.4091 259.62H14.6291V261.82H11.4091V259.62ZM0.229063 270.34H12.8291V272.46H0.229063V270.34ZM0.229063 266.52H2.90906V271.46H0.229063V266.52ZM24.3675 254.52C28.5875 254.52 31.0675 255.64 31.0675 257.68C31.0675 259.72 28.5875 260.84 24.3675 260.84C20.1275 260.84 17.6675 259.72 17.6675 257.68C17.6675 255.64 20.1275 254.52 24.3675 254.52ZM24.3675 256.46C21.6875 256.46 20.4275 256.86 20.4275 257.68C20.4275 258.54 21.6875 258.9 24.3675 258.9C27.0475 258.9 28.3075 258.54 28.3075 257.68C28.3075 256.86 27.0475 256.46 24.3675 256.46ZM15.9875 261.7H32.7275V263.8H15.9875V261.7ZM17.9075 264.84H30.7075V269.6H20.5475V271.24H17.9275V267.76H28.0875V266.82H17.9075V264.84ZM17.9275 270.66H31.1875V272.66H17.9275V270.66ZM-73.9 287.48H-70.84V289.64H-73.9V287.48ZM-77.86 282.86H-75.82V285.98C-75.82 290.18 -76.98 294.28 -79.94 296.1L-81.54 294.1C-78.82 292.42 -77.86 289.12 -77.86 285.98V282.86ZM-77.28 282.86H-75.28V285.86C-75.28 288.88 -74.5 291.96 -71.98 293.6L-73.42 295.68C-76.36 293.86 -77.28 289.86 -77.28 285.86V282.86ZM-67.82 281.26H-65.28V299.78H-67.82V281.26ZM-71.58 281.54H-69.1V298.94H-71.58V281.54ZM-58.3216 291.7H-55.6616V299.22H-58.3216V291.7ZM-49.7816 281.26H-47.1016V299.78H-49.7816V281.26ZM-62.5416 292.82L-62.8616 290.66C-59.4216 290.66 -54.8816 290.64 -50.9416 290.1L-50.8016 292.04C-54.8416 292.76 -59.1616 292.82 -62.5416 292.82ZM-53.4816 293.72H-49.2416V295.72H-53.4816V293.72ZM-56.8616 282.02C-54.1416 282.02 -52.1616 283.58 -52.1616 285.82C-52.1616 288.08 -54.1416 289.62 -56.8616 289.62C-59.6216 289.62 -61.5816 288.08 -61.5816 285.82C-61.5816 283.58 -59.6216 282.02 -56.8616 282.02ZM-56.8616 284.02C-58.1816 284.02 -59.1016 284.7 -59.1016 285.82C-59.1016 286.96 -58.1816 287.6 -56.8616 287.6C-55.5816 287.6 -54.6616 286.96 -54.6616 285.82C-54.6616 284.7 -55.5816 284.02 -56.8616 284.02ZM-44.3831 295.48H-27.6231V297.64H-44.3831V295.48ZM-37.3631 291.52H-34.7031V296H-37.3631V291.52ZM-42.6231 282.44H-39.9831V285.28H-32.0831V282.44H-29.4431V292.08H-42.6231V282.44ZM-39.9831 287.36V289.96H-32.0831V287.36H-39.9831ZM-18.7047 287.48H-15.6447V289.64H-18.7047V287.48ZM-22.6647 282.86H-20.6247V285.98C-20.6247 290.18 -21.7847 294.28 -24.7447 296.1L-26.3447 294.1C-23.6247 292.42 -22.6647 289.12 -22.6647 285.98V282.86ZM-22.0847 282.86H-20.0847V285.86C-20.0847 288.88 -19.3047 291.96 -16.7847 293.6L-18.2247 295.68C-21.1647 293.86 -22.0847 289.86 -22.0847 285.86V282.86ZM-12.6247 281.26H-10.0847V299.78H-12.6247V281.26ZM-16.3847 281.54H-13.9047V298.94H-16.3847V281.54ZM-3.90625 290.66H-1.26625V295.86H-3.90625V290.66ZM2.81375 290.66H5.47375V295.86H2.81375V290.66ZM-7.58625 295.48H9.17375V297.64H-7.58625V295.48ZM0.77375 282.16C4.75375 282.16 7.69375 284.12 7.69375 287.14C7.69375 290.16 4.75375 292.1 0.77375 292.1C-3.22625 292.1 -6.14625 290.16 -6.14625 287.14C-6.14625 284.12 -3.22625 282.16 0.77375 282.16ZM0.77375 284.24C-1.80625 284.24 -3.52625 285.3 -3.52625 287.14C-3.52625 288.96 -1.80625 290.04 0.77375 290.04C3.35375 290.04 5.07375 288.96 5.07375 287.14C5.07375 285.3 3.35375 284.24 0.77375 284.24ZM14.0522 293.26H11.6722L11.1722 283.72H14.5522L14.0522 293.26ZM11.1322 296.6C11.1322 295.987 11.2989 295.56 11.6322 295.32C11.9655 295.067 12.3722 294.94 12.8522 294.94C13.3189 294.94 13.7189 295.067 14.0522 295.32C14.3855 295.56 14.5522 295.987 14.5522 296.6C14.5522 297.187 14.3855 297.613 14.0522 297.88C13.7189 298.133 13.3189 298.26 12.8522 298.26C12.3722 298.26 11.9655 298.133 11.6322 297.88C11.2989 297.613 11.1322 297.187 11.1322 296.6Z" fill="black" fill-opacity="0.87"/>
<path d="M-74.16 403.68H-71.5V407.9H-74.16V403.68ZM-72.82 394.2C-68.86 394.2 -65.9 396.22 -65.9 399.3C-65.9 402.42 -68.86 404.42 -72.82 404.42C-76.78 404.42 -79.74 402.42 -79.74 399.3C-79.74 396.22 -76.78 394.2 -72.82 394.2ZM-72.82 396.3C-75.36 396.3 -77.12 397.42 -77.12 399.3C-77.12 401.22 -75.36 402.32 -72.82 402.32C-70.28 402.32 -68.52 401.22 -68.52 399.3C-68.52 397.42 -70.28 396.3 -72.82 396.3ZM-81.18 407.48H-64.42V409.64H-81.18V407.48ZM-60.7216 396.96H-47.9416V399.06H-60.7216V396.96ZM-62.8016 400.26H-46.0216V402.36H-62.8016V400.26ZM-60.7216 393.46H-58.0816V398.08H-60.7216V393.46ZM-60.9016 403.48H-48.0016V408.4H-58.2216V410.04H-60.8816V406.52H-50.6616V405.48H-60.9016V403.48ZM-60.8816 409.56H-47.4616V411.58H-60.8816V409.56ZM-26.4878 393.26H-23.8078V402.62H-26.4878V393.26ZM-36.1678 403.44H-23.8078V408.46H-33.5278V410.32H-36.1278V406.54H-26.4478V405.46H-36.1678V403.44ZM-36.1278 409.6H-23.3478V411.66H-36.1278V409.6ZM-34.8678 393.68H-32.6678V395.08C-32.6678 398.5 -34.3878 401.6 -38.0078 402.7L-39.2878 400.6C-36.1878 399.66 -34.8678 397.34 -34.8678 395.08V393.68ZM-34.3278 393.68H-32.1478V395.08C-32.1478 397.28 -30.8478 399.44 -27.8278 400.3L-29.1078 402.36C-32.6678 401.32 -34.3278 398.42 -34.3278 395.08V393.68ZM-16.6494 396.88H-14.4894V397.6C-14.4894 400.98 -16.1294 404 -19.6494 405.1L-20.9294 403.02C-17.9294 402.08 -16.6494 399.84 -16.6494 397.6V396.88ZM-16.1694 396.88H-13.9894V397.6C-13.9894 399.68 -12.6894 401.82 -9.68937 402.72L-10.9694 404.8C-14.4694 403.76 -16.1694 400.84 -16.1694 397.6V396.88ZM-20.2894 395.44H-10.3494V397.52H-20.2894V395.44ZM-16.6494 393.4H-13.9894V396.22H-16.6494V393.4ZM-10.9294 398.64H-6.62937V400.82H-10.9294V398.64ZM-7.96937 393.28H-5.30937V406.98H-7.96937V393.28ZM-17.5294 409.34H-4.88937V411.46H-17.5294V409.34ZM-17.5294 405.84H-14.8694V410.74H-17.5294V405.84ZM9.50906 393.28H12.1691V407.12H9.50906V393.28ZM11.4091 398.92H14.6291V401.1H11.4091V398.92ZM-2.41094 395.2H8.48906V397.28H-2.41094V395.2ZM3.04906 397.94C5.70906 397.94 7.58906 399.4 7.58906 401.52C7.58906 403.64 5.70906 405.08 3.04906 405.08C0.369063 405.08 -1.51094 403.64 -1.51094 401.52C-1.51094 399.4 0.369063 397.94 3.04906 397.94ZM3.04906 399.96C1.86906 399.96 1.04906 400.52 1.04906 401.52C1.04906 402.52 1.86906 403.06 3.04906 403.06C4.22906 403.06 5.04906 402.52 5.04906 401.52C5.04906 400.52 4.22906 399.96 3.04906 399.96ZM1.70906 393.24H4.36906V396.22H1.70906V393.24ZM0.229063 409.34H12.8291V411.46H0.229063V409.34ZM0.229063 406.08H2.88906V410.26H0.229063V406.08ZM28.3228 398.14H32.0828V400.26H28.3228V398.14ZM28.2228 402.76H32.0028V404.88H28.2228V402.76ZM34.6028 393.26H37.1428V411.78H34.6028V393.26ZM30.7828 393.66H33.2628V410.96H30.7828V393.66ZM26.6028 395.44H29.1628C29.1628 400.7 27.5828 404.9 22.4228 407.94L20.9228 406.08C25.1028 403.54 26.6028 400.46 26.6028 395.98V395.44ZM21.9828 395.44H27.5028V397.56H21.9828V395.44ZM40.2013 394.62H51.0813V396.52H40.2013V394.62ZM45.6413 396.96C48.4013 396.96 50.2413 398.06 50.2413 399.74C50.2413 401.44 48.4013 402.52 45.6413 402.52C42.8813 402.52 41.0413 401.44 41.0413 399.74C41.0413 398.06 42.8813 396.96 45.6413 396.96ZM45.6413 398.72C44.4013 398.72 43.5813 399.06 43.5813 399.74C43.5813 400.4 44.4013 400.76 45.6413 400.76C46.9013 400.76 47.7013 400.4 47.7013 399.74C47.7013 399.06 46.9013 398.72 45.6413 398.72ZM44.3013 393.14H46.9813V395.58H44.3013V393.14ZM44.3013 401.54H46.9813V404.12H44.3013V401.54ZM52.3413 393.28H55.0213V405.82H52.3413V393.28ZM42.2213 406.54H55.0213V411.78H52.3413V408.58H42.2213V406.54ZM40.0013 405.46L39.6813 403.44C43.0213 403.44 47.4613 403.42 51.2413 402.94L51.4413 404.72C47.5213 405.4 43.2613 405.46 40.0013 405.46ZM66.3597 393.52C70.5797 393.52 73.0597 394.64 73.0597 396.68C73.0597 398.72 70.5797 399.84 66.3597 399.84C62.1197 399.84 59.6597 398.72 59.6597 396.68C59.6597 394.64 62.1197 393.52 66.3597 393.52ZM66.3597 395.46C63.6797 395.46 62.4197 395.86 62.4197 396.68C62.4197 397.54 63.6797 397.9 66.3597 397.9C69.0397 397.9 70.2997 397.54 70.2997 396.68C70.2997 395.86 69.0397 395.46 66.3597 395.46ZM57.9797 400.7H74.7197V402.8H57.9797V400.7ZM59.8997 403.84H72.6997V408.6H62.5397V410.24H59.9197V406.76H70.0797V405.82H59.8997V403.84ZM59.9197 409.66H73.1797V411.66H59.9197V409.66ZM-73.66 430.28H-70.72V432.42H-73.66V430.28ZM-77.96 428.4H-75.96V428.88C-75.96 432.74 -77.08 436.6 -80.04 438.3L-81.54 436.3C-78.9 434.76 -77.96 431.72 -77.96 428.88V428.4ZM-77.44 428.4H-75.44V428.88C-75.44 431.68 -74.48 434.5 -71.86 435.9L-73.3 437.86C-76.3 436.3 -77.44 432.68 -77.44 428.88V428.4ZM-80.84 426.36H-72.58V428.5H-80.84V426.36ZM-77.96 423.88H-75.44V428.1H-77.96V423.88ZM-67.82 423.26H-65.3V441.78H-67.82V423.26ZM-71.56 423.56H-69.08V440.94H-71.56V423.56ZM-60.9016 424.88H-49.2416V427H-60.9016V424.88ZM-62.7816 437.42H-46.0416V439.6H-62.7816V437.42ZM-50.3616 424.88H-47.7416V427.02C-47.7416 429.72 -47.7416 432.28 -48.6016 436.32L-51.2216 436.08C-50.3616 432.34 -50.3616 429.64 -50.3616 427.02V424.88ZM-49.8016 429.96V431.92L-61.1216 432.48L-61.4416 430.34L-49.8016 429.96ZM-44.4231 426.04H-35.5631V428.16H-44.4231V426.04ZM-39.9631 428.98C-37.6031 428.98 -35.9031 430.8 -35.9031 433.4C-35.9031 435.98 -37.6031 437.8 -39.9631 437.8C-42.3031 437.8 -44.0231 435.98 -44.0231 433.4C-44.0231 430.8 -42.3031 428.98 -39.9631 428.98ZM-39.9631 431.2C-40.9631 431.2 -41.6631 432 -41.6631 433.4C-41.6631 434.8 -40.9631 435.58 -39.9631 435.58C-38.9631 435.58 -38.2431 434.8 -38.2431 433.4C-38.2431 432 -38.9631 431.2 -39.9631 431.2ZM-31.0231 423.26H-28.4831V441.78H-31.0231V423.26ZM-33.2431 430.78H-30.1831V432.92H-33.2431V430.78ZM-34.9031 423.6H-32.4231V441H-34.9031V423.6ZM-41.2631 423.76H-38.6431V427.38H-41.2631V423.76ZM-19.1447 425.32H-16.8447V425.86C-16.8447 429.12 -19.5047 431.78 -24.2047 432.42L-25.1847 430.34C-21.1047 429.84 -19.1447 427.76 -19.1447 425.86V425.32ZM-18.3847 425.32H-16.0847V425.86C-16.0847 427.76 -14.1247 429.84 -10.0447 430.34L-11.0047 432.42C-15.7247 431.78 -18.3847 429.12 -18.3847 425.86V425.32ZM-19.0047 435H-16.3647V441.8H-19.0047V435ZM-25.9847 433.48H-9.24469V435.6H-25.9847V433.48ZM-24.5047 424.2H-10.7647V426.3H-24.5047V424.2ZM-0.306249 429.48H2.75375V431.64H-0.306249V429.48ZM-4.26625 424.86H-2.22625V427.98C-2.22625 432.18 -3.38625 436.28 -6.34625 438.1L-7.94625 436.1C-5.22625 434.42 -4.26625 431.12 -4.26625 427.98V424.86ZM-3.68625 424.86H-1.68625V427.86C-1.68625 430.88 -0.906249 433.96 1.61375 435.6L0.17375 437.68C-2.76625 435.86 -3.68625 431.86 -3.68625 427.86V424.86ZM5.77375 423.26H8.31375V441.78H5.77375V423.26ZM2.01375 423.54H4.49375V440.94H2.01375V423.54ZM14.4922 432.66H17.1322V437.86H14.4922V432.66ZM21.2122 432.66H23.8722V437.86H21.2122V432.66ZM10.8122 437.48H27.5722V439.64H10.8122V437.48ZM19.1722 424.16C23.1522 424.16 26.0922 426.12 26.0922 429.14C26.0922 432.16 23.1522 434.1 19.1722 434.1C15.1722 434.1 12.2522 432.16 12.2522 429.14C12.2522 426.12 15.1722 424.16 19.1722 424.16ZM19.1722 426.24C16.5922 426.24 14.8722 427.3 14.8722 429.14C14.8722 430.96 16.5922 432.04 19.1722 432.04C21.7522 432.04 23.4722 430.96 23.4722 429.14C23.4722 427.3 21.7522 426.24 19.1722 426.24ZM32.4506 435.26H30.0706L29.5706 425.72H32.9506L32.4506 435.26ZM29.5306 438.6C29.5306 437.987 29.6973 437.56 30.0306 437.32C30.364 437.067 30.7706 436.94 31.2506 436.94C31.7173 436.94 32.1173 437.067 32.4506 437.32C32.784 437.56 32.9506 437.987 32.9506 438.6C32.9506 439.187 32.784 439.613 32.4506 439.88C32.1173 440.133 31.7173 440.26 31.2506 440.26C30.7706 440.26 30.364 440.133 30.0306 439.88C29.6973 439.613 29.5306 439.187 29.5306 438.6Z" fill="black" fill-opacity="0.87"/>
<path d="M52.0925 93H42.1125V90.9L45.6925 87.28C46.4125 86.5333 46.9925 85.9133 47.4325 85.42C47.8725 84.9133 48.1925 84.46 48.3925 84.06C48.5925 83.6467 48.6925 83.2067 48.6925 82.74C48.6925 82.1667 48.5325 81.74 48.2125 81.46C47.9058 81.18 47.4858 81.04 46.9525 81.04C46.4058 81.04 45.8725 81.1667 45.3525 81.42C44.8325 81.6733 44.2858 82.0333 43.7125 82.5L42.0725 80.56C42.4858 80.2 42.9192 79.8667 43.3725 79.56C43.8392 79.2533 44.3725 79.0067 44.9725 78.82C45.5858 78.62 46.3192 78.52 47.1725 78.52C48.1058 78.52 48.9058 78.6933 49.5725 79.04C50.2525 79.3733 50.7725 79.8333 51.1325 80.42C51.5058 80.9933 51.6925 81.6467 51.6925 82.38C51.6925 82.98 51.5992 83.5333 51.4125 84.04C51.2392 84.5467 50.9792 85.04 50.6325 85.52C50.2992 85.9867 49.8858 86.4733 49.3925 86.98C48.8992 87.4733 48.3392 88.0133 47.7125 88.6L45.8725 90.32V90.46H52.0925V93ZM63.4578 85.86C63.4578 87.0067 63.3645 88.0333 63.1778 88.94C63.0045 89.8467 62.7178 90.62 62.3178 91.26C61.9311 91.8867 61.4178 92.3667 60.7778 92.7C60.1511 93.0333 59.3778 93.2 58.4578 93.2C57.3111 93.2 56.3711 92.9067 55.6378 92.32C54.9045 91.7333 54.3578 90.8933 53.9978 89.8C53.6511 88.7067 53.4778 87.3933 53.4778 85.86C53.4778 84.3133 53.6378 82.9933 53.9578 81.9C54.2778 80.8067 54.8045 79.9667 55.5378 79.38C56.2711 78.7933 57.2445 78.5 58.4578 78.5C59.6045 78.5 60.5445 78.7933 61.2778 79.38C62.0111 79.9533 62.5578 80.7933 62.9178 81.9C63.2778 82.9933 63.4578 84.3133 63.4578 85.86ZM56.4778 85.86C56.4778 86.94 56.5378 87.8467 56.6578 88.58C56.7778 89.3 56.9778 89.8467 57.2578 90.22C57.5511 90.58 57.9511 90.76 58.4578 90.76C58.9645 90.76 59.3578 90.58 59.6378 90.22C59.9311 89.86 60.1378 89.32 60.2578 88.6C60.3911 87.8667 60.4578 86.9533 60.4578 85.86C60.4578 84.7667 60.3911 83.86 60.2578 83.14C60.1378 82.4067 59.9311 81.86 59.6378 81.5C59.3578 81.1267 58.9645 80.94 58.4578 80.94C57.9511 80.94 57.5511 81.1267 57.2578 81.5C56.9778 81.86 56.7778 82.4067 56.6578 83.14C56.5378 83.86 56.4778 84.7667 56.4778 85.86ZM74.9831 93H65.0031V90.9L68.5831 87.28C69.3031 86.5333 69.8831 85.9133 70.3231 85.42C70.7631 84.9133 71.0831 84.46 71.2831 84.06C71.4831 83.6467 71.5831 83.2067 71.5831 82.74C71.5831 82.1667 71.4231 81.74 71.1031 81.46C70.7965 81.18 70.3765 81.04 69.8431 81.04C69.2965 81.04 68.7631 81.1667 68.2431 81.42C67.7231 81.6733 67.1765 82.0333 66.6031 82.5L64.9631 80.56C65.3765 80.2 65.8098 79.8667 66.2631 79.56C66.7298 79.2533 67.2631 79.0067 67.8631 78.82C68.4765 78.62 69.2098 78.52 70.0631 78.52C70.9965 78.52 71.7965 78.6933 72.4631 79.04C73.1431 79.3733 73.6631 79.8333 74.0231 80.42C74.3965 80.9933 74.5831 81.6467 74.5831 82.38C74.5831 82.98 74.4898 83.5333 74.3031 84.04C74.1298 84.5467 73.8698 85.04 73.5231 85.52C73.1898 85.9867 72.7765 86.4733 72.2831 86.98C71.7898 87.4733 71.2298 88.0133 70.6031 88.6L68.7631 90.32V90.46H74.9831V93ZM86.7484 90.04H85.0284V93H82.0884V90.04H75.9884V87.94L82.2484 78.72H85.0284V87.7H86.7484V90.04ZM82.0884 85.28C82.0884 85.0533 82.0884 84.7867 82.0884 84.48C82.1018 84.16 82.1151 83.8467 82.1284 83.54C82.1418 83.22 82.1551 82.94 82.1684 82.7C82.1818 82.4467 82.1951 82.2733 82.2084 82.18H82.1284C82.0084 82.4467 81.8818 82.7067 81.7484 82.96C81.6151 83.2133 81.4551 83.4733 81.2684 83.74L78.6484 87.7H82.0884V85.28ZM88.2338 91.6C88.2338 90.9867 88.4004 90.56 88.7338 90.32C89.0671 90.0667 89.4738 89.94 89.9538 89.94C90.4204 89.94 90.8204 90.0667 91.1538 90.32C91.4871 90.56 91.6538 90.9867 91.6538 91.6C91.6538 92.1867 91.4871 92.6133 91.1538 92.88C90.8204 93.1333 90.4204 93.26 89.9538 93.26C89.4738 93.26 89.0671 93.1333 88.7338 92.88C88.4004 92.6133 88.2338 92.1867 88.2338 91.6ZM103.497 85.86C103.497 87.0067 103.404 88.0333 103.217 88.94C103.044 89.8467 102.757 90.62 102.357 91.26C101.97 91.8867 101.457 92.3667 100.817 92.7C100.19 93.0333 99.4169 93.2 98.4969 93.2C97.3502 93.2 96.4102 92.9067 95.6769 92.32C94.9435 91.7333 94.3969 90.8933 94.0369 89.8C93.6902 88.7067 93.5169 87.3933 93.5169 85.86C93.5169 84.3133 93.6769 82.9933 93.9969 81.9C94.3169 80.8067 94.8435 79.9667 95.5769 79.38C96.3102 78.7933 97.2835 78.5 98.4969 78.5C99.6435 78.5 100.584 78.7933 101.317 79.38C102.05 79.9533 102.597 80.7933 102.957 81.9C103.317 82.9933 103.497 84.3133 103.497 85.86ZM96.5169 85.86C96.5169 86.94 96.5769 87.8467 96.6969 88.58C96.8169 89.3 97.0169 89.8467 97.2969 90.22C97.5902 90.58 97.9902 90.76 98.4969 90.76C99.0035 90.76 99.3969 90.58 99.6769 90.22C99.9702 89.86 100.177 89.32 100.297 88.6C100.43 87.8667 100.497 86.9533 100.497 85.86C100.497 84.7667 100.43 83.86 100.297 83.14C100.177 82.4067 99.9702 81.86 99.6769 81.5C99.3969 81.1267 99.0035 80.94 98.4969 80.94C97.9902 80.94 97.5902 81.1267 97.2969 81.5C97.0169 81.86 96.8169 82.4067 96.6969 83.14C96.5769 83.86 96.5169 84.7667 96.5169 85.86ZM115.022 93H105.042V90.9L108.622 87.28C109.342 86.5333 109.922 85.9133 110.362 85.42C110.802 84.9133 111.122 84.46 111.322 84.06C111.522 83.6467 111.622 83.2067 111.622 82.74C111.622 82.1667 111.462 81.74 111.142 81.46C110.836 81.18 110.416 81.04 109.882 81.04C109.336 81.04 108.802 81.1667 108.282 81.42C107.762 81.6733 107.216 82.0333 106.642 82.5L105.002 80.56C105.416 80.2 105.849 79.8667 106.302 79.56C106.769 79.2533 107.302 79.0067 107.902 78.82C108.516 78.62 109.249 78.52 110.102 78.52C111.036 78.52 111.836 78.6933 112.502 79.04C113.182 79.3733 113.702 79.8333 114.062 80.42C114.436 80.9933 114.622 81.6467 114.622 82.38C114.622 82.98 114.529 83.5333 114.342 84.04C114.169 84.5467 113.909 85.04 113.562 85.52C113.229 85.9867 112.816 86.4733 112.322 86.98C111.829 87.4733 111.269 88.0133 110.642 88.6L108.802 90.32V90.46H115.022V93Z" fill="black" fill-opacity="0.87"/>
<path d="M32.2404 122.13H33.0704V123.6H32.2404V122.13ZM36.0404 116.74H36.8704V125.78H36.0404V116.74ZM36.6004 120.58H38.2704V121.28H36.6004V120.58ZM29.9104 124.06L29.7904 123.37C31.4104 123.37 33.6204 123.35 35.4904 123.08L35.5604 123.7C33.6104 124.05 31.4904 124.06 29.9104 124.06ZM29.9404 117.83H35.3504V118.5H29.9404V117.83ZM32.6504 119.03C33.9104 119.03 34.7804 119.69 34.7804 120.7C34.7804 121.72 33.9104 122.37 32.6504 122.37C31.3904 122.37 30.5304 121.72 30.5304 120.7C30.5304 119.69 31.3904 119.03 32.6504 119.03ZM32.6504 119.67C31.8404 119.67 31.3104 120.08 31.3104 120.7C31.3104 121.32 31.8404 121.73 32.6504 121.73C33.4604 121.73 34.0004 121.32 34.0004 120.7C34.0004 120.08 33.4604 119.67 32.6504 119.67ZM32.2404 116.75H33.0704V118.28H32.2404V116.75Z" fill="black" fill-opacity="0.87"/>
<path d="M30.6963 148H29.2263V141.364C29.2263 141.131 29.2263 140.916 29.2263 140.72C29.2356 140.515 29.2449 140.319 29.2543 140.132C29.2636 139.936 29.2729 139.749 29.2823 139.572C29.1609 139.693 29.0349 139.81 28.9043 139.922C28.7736 140.034 28.6243 140.165 28.4563 140.314L27.3643 141.196L26.6083 140.244L29.4643 138.004H30.6963V148ZM40.472 140.314C40.472 140.762 40.3833 141.154 40.206 141.49C40.038 141.817 39.7953 142.083 39.478 142.288C39.1607 142.493 38.7967 142.643 38.386 142.736V142.792C39.1887 142.885 39.786 143.137 40.178 143.548C40.5793 143.949 40.78 144.481 40.78 145.144C40.78 145.723 40.64 146.241 40.36 146.698C40.0893 147.146 39.6647 147.501 39.086 147.762C38.5167 148.014 37.784 148.14 36.888 148.14C36.356 148.14 35.8613 148.098 35.404 148.014C34.9467 147.93 34.5127 147.79 34.102 147.594V146.25C34.522 146.465 34.97 146.628 35.446 146.74C35.9313 146.852 36.3933 146.908 36.832 146.908C37.6813 146.908 38.2927 146.749 38.666 146.432C39.0393 146.105 39.226 145.653 39.226 145.074C39.226 144.701 39.128 144.397 38.932 144.164C38.736 143.921 38.4373 143.744 38.036 143.632C37.6347 143.511 37.1353 143.45 36.538 143.45H35.628V142.232H36.552C37.1213 142.232 37.5833 142.162 37.938 142.022C38.2927 141.873 38.554 141.667 38.722 141.406C38.89 141.145 38.974 140.846 38.974 140.51C38.974 140.062 38.8247 139.717 38.526 139.474C38.2367 139.222 37.8167 139.096 37.266 139.096C36.93 139.096 36.6173 139.133 36.328 139.208C36.048 139.283 35.7913 139.381 35.558 139.502C35.3247 139.623 35.096 139.759 34.872 139.908L34.144 138.886C34.396 138.699 34.676 138.527 34.984 138.368C35.3013 138.209 35.6513 138.088 36.034 138.004C36.426 137.911 36.8507 137.864 37.308 137.864C38.344 137.864 39.128 138.093 39.66 138.55C40.2013 138.998 40.472 139.586 40.472 140.314Z" fill="black" fill-opacity="0.87"/>
<path d="M78.5504 117.06H79.2804V117.56C79.2804 119.29 77.5204 120.53 75.6404 120.85L75.3104 120.18C76.9604 119.93 78.5504 118.85 78.5504 117.56V117.06ZM78.7004 117.06H79.4204V117.56C79.4204 118.82 81.0304 119.93 82.6604 120.18L82.3304 120.85C80.4704 120.53 78.7004 119.27 78.7004 117.56V117.06ZM78.5504 122.34H79.3704V125.78H78.5504V122.34ZM74.9004 121.83H83.0704V122.52H74.9004V121.83Z" fill="black" fill-opacity="0.87"/>
<path d="M75.6963 148H74.2263V141.364C74.2263 141.131 74.2263 140.916 74.2263 140.72C74.2356 140.515 74.2449 140.319 74.2543 140.132C74.2636 139.936 74.2729 139.749 74.2823 139.572C74.1609 139.693 74.0349 139.81 73.9043 139.922C73.7736 140.034 73.6243 140.165 73.4563 140.314L72.3643 141.196L71.6083 140.244L74.4643 138.004H75.6963V148ZM86.242 145.788H84.856V148H83.414V145.788H78.78V144.612L83.386 137.962H84.856V144.528H86.242V145.788ZM83.414 141.812C83.414 141.588 83.414 141.373 83.414 141.168C83.4233 140.963 83.4327 140.767 83.442 140.58C83.4513 140.384 83.456 140.207 83.456 140.048C83.4653 139.88 83.4747 139.731 83.484 139.6H83.428C83.3533 139.787 83.26 139.978 83.148 140.174C83.0453 140.37 82.938 140.543 82.826 140.692L80.18 144.528H83.414V141.812Z" fill="black" fill-opacity="0.87"/>
<path d="M120.94 117.11H127.02V120.19H120.94V117.11ZM126.2 117.78H121.75V119.52H126.2V117.78ZM119.89 121.32H128.06V121.99H119.89V121.32ZM123.57 120.01H124.39V121.57H123.57V120.01ZM120.8 122.92H127.05V125.78H126.22V123.6H120.8V122.92Z" fill="black" fill-opacity="0.87"/>
<path d="M120.696 148H119.226V141.364C119.226 141.131 119.226 140.916 119.226 140.72C119.236 140.515 119.245 140.319 119.254 140.132C119.264 139.936 119.273 139.749 119.282 139.572C119.161 139.693 119.035 139.81 118.904 139.922C118.774 140.034 118.624 140.165 118.456 140.314L117.364 141.196L116.608 140.244L119.464 138.004H120.696V148ZM127.448 141.798C128.111 141.798 128.689 141.915 129.184 142.148C129.679 142.381 130.061 142.717 130.332 143.156C130.612 143.595 130.752 144.131 130.752 144.766C130.752 145.466 130.603 146.068 130.304 146.572C130.005 147.076 129.571 147.463 129.002 147.734C128.442 148.005 127.756 148.14 126.944 148.14C126.431 148.14 125.945 148.093 125.488 148C125.031 147.907 124.643 147.771 124.326 147.594V146.236C124.662 146.432 125.068 146.591 125.544 146.712C126.029 146.833 126.491 146.894 126.93 146.894C127.406 146.894 127.812 146.824 128.148 146.684C128.493 146.535 128.759 146.315 128.946 146.026C129.142 145.727 129.24 145.354 129.24 144.906C129.24 144.299 129.049 143.837 128.666 143.52C128.293 143.193 127.7 143.03 126.888 143.03C126.627 143.03 126.333 143.053 126.006 143.1C125.689 143.147 125.432 143.193 125.236 143.24L124.55 142.834L124.928 138.004H130.066V139.32H126.216L125.992 141.938C126.151 141.91 126.351 141.882 126.594 141.854C126.837 141.817 127.121 141.798 127.448 141.798Z" fill="black" fill-opacity="0.34"/>
<path d="M165.94 117.21H171.76V117.89H165.94V117.21ZM164.9 120.54H173.09V121.22H164.9V120.54ZM171.22 117.21H172.03V117.88C172.03 118.65 172.03 119.53 171.73 120.78L170.92 120.74C171.22 119.5 171.22 118.63 171.22 117.88V117.21ZM165.9 122.45H172.06V125.66H165.9V122.45ZM171.25 123.11H166.71V124.99H171.25V123.11Z" fill="black" fill-opacity="0.87"/>
<path d="M165.696 148H164.226V141.364C164.226 141.131 164.226 140.916 164.226 140.72C164.236 140.515 164.245 140.319 164.254 140.132C164.264 139.936 164.273 139.749 164.282 139.572C164.161 139.693 164.035 139.81 163.904 139.922C163.774 140.034 163.624 140.165 163.456 140.314L162.364 141.196L161.608 140.244L164.464 138.004H165.696V148ZM169.186 143.744C169.186 143.165 169.223 142.596 169.298 142.036C169.382 141.476 169.522 140.949 169.718 140.454C169.923 139.95 170.203 139.507 170.558 139.124C170.913 138.732 171.361 138.429 171.902 138.214C172.453 137.99 173.115 137.878 173.89 137.878C174.086 137.878 174.305 137.887 174.548 137.906C174.8 137.915 175.005 137.943 175.164 137.99V139.236C174.987 139.18 174.791 139.138 174.576 139.11C174.371 139.082 174.165 139.068 173.96 139.068C173.316 139.068 172.784 139.166 172.364 139.362C171.944 139.558 171.613 139.829 171.37 140.174C171.127 140.519 170.95 140.921 170.838 141.378C170.726 141.826 170.656 142.316 170.628 142.848H170.712C170.852 142.624 171.025 142.423 171.23 142.246C171.435 142.069 171.687 141.929 171.986 141.826C172.285 141.723 172.63 141.672 173.022 141.672C173.601 141.672 174.105 141.793 174.534 142.036C174.973 142.279 175.309 142.629 175.542 143.086C175.785 143.543 175.906 144.099 175.906 144.752C175.906 145.452 175.771 146.059 175.5 146.572C175.239 147.076 174.865 147.463 174.38 147.734C173.904 148.005 173.33 148.14 172.658 148.14C172.173 148.14 171.72 148.051 171.3 147.874C170.88 147.697 170.511 147.426 170.194 147.062C169.877 146.698 169.629 146.241 169.452 145.69C169.275 145.13 169.186 144.481 169.186 143.744ZM172.644 146.908C173.176 146.908 173.61 146.735 173.946 146.39C174.282 146.035 174.45 145.489 174.45 144.752C174.45 144.164 174.301 143.697 174.002 143.352C173.713 143.007 173.274 142.834 172.686 142.834C172.285 142.834 171.935 142.918 171.636 143.086C171.337 143.254 171.104 143.469 170.936 143.73C170.768 143.991 170.684 144.257 170.684 144.528C170.684 144.817 170.726 145.102 170.81 145.382C170.894 145.662 171.015 145.919 171.174 146.152C171.342 146.385 171.547 146.572 171.79 146.712C172.033 146.843 172.317 146.908 172.644 146.908Z" fill="black" fill-opacity="0.87"/>
<path d="M210.95 121.43H217.16V122.1H210.95V121.43ZM209.9 123.97H218.09V124.66H209.9V123.97ZM213.57 121.78H214.39V124.29H213.57V121.78ZM210.95 117.47H217.06V118.15H211.79V121.68H210.95V117.47ZM211.52 119.41H216.87V120.08H211.52V119.41Z" fill="black" fill-opacity="0.34"/>
<path d="M209.696 148H208.226V141.364C208.226 141.131 208.226 140.916 208.226 140.72C208.236 140.515 208.245 140.319 208.254 140.132C208.264 139.936 208.273 139.749 208.282 139.572C208.161 139.693 208.035 139.81 207.904 139.922C207.774 140.034 207.624 140.165 207.456 140.314L206.364 141.196L205.608 140.244L208.464 138.004H209.696V148ZM214.306 148L218.296 139.32H213.046V138.004H219.892V139.068L215.916 148H214.306Z" fill="black" fill-opacity="0.87"/>
<circle cx="118" cy="158" r="5" fill="black" fill-opacity="0.34"/>
<circle cx="130" cy="158" r="5" fill="black" fill-opacity="0.34"/>
<circle cx="27" cy="158" r="5" fill="black" fill-opacity="0.25"/>
<circle cx="39" cy="158" r="5" fill="black" fill-opacity="0.34"/>
<circle cx="72" cy="158" r="5" fill="black" fill-opacity="0.34"/>
<circle cx="84" cy="158" r="5" fill="black" fill-opacity="0.34"/>
<circle cx="162" cy="158" r="5" fill="black" fill-opacity="0.25"/>
<circle cx="174" cy="158" r="5" fill="black" fill-opacity="0.25"/>
<circle cx="207" cy="158" r="5" fill="black" fill-opacity="0.25"/>
<circle cx="219" cy="158" r="5" fill="black" fill-opacity="0.25"/>
<line x1="-82" y1="368.5" x2="238" y2="368.5" stroke="black" stroke-opacity="0.1"/>
<path d="M87.1236 221.334L95.172 213.296C95.2501 213.218 95.3432 213.156 95.4458 213.114C95.5484 213.072 95.6583 213.051 95.7691 213.052C95.8798 213.054 95.9892 213.077 96.0907 213.122C96.1922 213.166 96.2838 213.23 96.36 213.311C96.5161 213.475 96.602 213.694 96.5993 213.921C96.5966 214.148 96.5056 214.364 96.3456 214.525L87.702 223.157C87.6245 223.235 87.5321 223.297 87.4304 223.339C87.3286 223.381 87.2196 223.402 87.1095 223.401C86.9994 223.4 86.8906 223.378 86.7894 223.335C86.6882 223.291 86.5966 223.228 86.52 223.149L77.646 214.064C77.489 213.902 77.4012 213.684 77.4012 213.458C77.4012 213.232 77.489 213.015 77.646 212.852C77.7232 212.773 77.8155 212.71 77.9176 212.666C78.0196 212.623 78.1292 212.601 78.24 212.601C78.3508 212.601 78.4604 212.623 78.5625 212.666C78.6645 212.71 78.7568 212.773 78.834 212.852L87.1236 221.334Z" fill="black" fill-opacity="0.64"/>
<rect x="-82" y="314" width="320" height="35" rx="5" fill="black" fill-opacity="0.34"/>
<path d="M48.74 328.488H51.204V329.454H48.74V328.488ZM48.74 332.338H51.204V333.304H48.74V332.338ZM53.332 325.436H54.452V338.092H53.332V325.436ZM50.854 325.702H51.946V337.462H50.854V325.702ZM46.542 326.486C48.18 326.486 49.244 328.18 49.244 330.896C49.244 333.612 48.18 335.306 46.542 335.306C44.904 335.306 43.854 333.612 43.854 330.896C43.854 328.18 44.904 326.486 46.542 326.486ZM46.542 327.564C45.548 327.564 44.904 328.852 44.904 330.896C44.904 332.94 45.548 334.228 46.542 334.228C47.55 334.228 48.18 332.94 48.18 330.896C48.18 328.852 47.55 327.564 46.542 327.564ZM59.6869 326.206H60.6389V327.76C60.6389 330.238 59.2669 332.212 57.1389 333.038L56.5229 332.114C58.4549 331.428 59.6869 329.72 59.6869 327.76V326.206ZM59.8829 326.206H60.8349V327.802C60.8349 329.524 62.0949 331.148 63.9429 331.806L63.3689 332.716C61.2829 331.96 59.8829 330.028 59.8829 327.802V326.206ZM65.2309 325.422H66.3929V334.774H65.2309V325.422ZM66.0289 329.314H68.2689V330.28H66.0289V329.314ZM58.5389 336.86H66.9529V337.812H58.5389V336.86ZM58.5389 333.892H59.7009V337.322H58.5389V333.892ZM78.0785 329.958H80.5005V330.924H78.0785V329.958ZM75.7125 326.626H76.6225V329.034C76.6225 331.68 75.5165 334.242 73.6685 335.376L72.9405 334.494C74.6765 333.472 75.7125 331.204 75.7125 329.034V326.626ZM75.9365 326.626H76.8325V328.992C76.8325 331.022 77.7845 333.178 79.4505 334.186L78.7785 335.096C76.9585 333.976 75.9365 331.456 75.9365 328.992V326.626ZM82.7265 325.436H83.8465V338.092H82.7265V325.436ZM80.1645 325.702H81.2565V337.462H80.1645V325.702ZM85.9594 332.688H97.4394V333.64H85.9594V332.688ZM91.0834 333.276H92.2314V338.092H91.0834V333.276ZM91.6714 325.94C94.3174 325.94 96.0954 327.018 96.0954 328.712C96.0954 330.406 94.3174 331.484 91.6714 331.484C89.0394 331.484 87.2474 330.406 87.2474 328.712C87.2474 327.018 89.0394 325.94 91.6714 325.94ZM91.6714 326.878C89.7394 326.878 88.4234 327.592 88.4234 328.712C88.4234 329.832 89.7394 330.546 91.6714 330.546C93.6034 330.546 94.9054 329.832 94.9054 328.712C94.9054 327.592 93.6034 326.878 91.6714 326.878ZM108.064 325.436H109.226V338.092H108.064V325.436ZM104.354 326.794H105.502C105.502 330.462 103.85 333.668 99.6223 335.74L99.0063 334.802C102.66 333.038 104.354 330.35 104.354 326.99V326.794ZM99.5803 326.794H104.858V327.746H99.5803V326.794Z" fill="white"/>
<rect x="-82" y="456" width="320" height="70" rx="10" fill="white"/>
<rect x="-81.65" y="456.35" width="319.3" height="69.3" rx="9.65" stroke="black" stroke-opacity="0.25" stroke-width="0.7"/>
<path d="M-9.844 486.108H-1.766V487.046H-9.844V486.108ZM-11.3 491.008H0.166V491.946H-11.3V491.008ZM-6.106 491.582H-4.944V494.998H-6.106V491.582ZM-2.452 486.108H-1.318V487.116C-1.318 488.264 -1.318 489.608 -1.738 491.512L-2.872 491.358C-2.452 489.538 -2.452 488.236 -2.452 487.116V486.108ZM-9.858 496.86H-1.066V497.812H-9.858V496.86ZM-9.858 493.864H-8.696V497.112H-9.858V493.864ZM10.8189 485.436H11.9809V494.004H10.8189V485.436ZM8.10291 489.006H11.0569V489.958H8.10291V489.006ZM6.84291 486.43H8.06091C8.06091 489.706 5.90491 492.03 2.27891 493.206L1.78891 492.282C4.99491 491.274 6.84291 489.37 6.84291 486.892V486.43ZM2.39091 486.43H7.66891V487.382H2.39091V486.43ZM7.31891 492.912H8.31291V493.486C8.31291 495.908 6.10091 497.546 3.56691 498.064L3.10491 497.14C5.34491 496.734 7.31891 495.334 7.31891 493.486V492.912ZM7.48691 492.912H8.48091V493.486C8.48091 495.306 10.4269 496.706 12.6809 497.112L12.1909 498.036C9.67091 497.532 7.48691 495.894 7.48691 493.486V492.912ZM23.6558 485.436H24.8178V491.988H23.6558V485.436ZM16.6418 492.604H24.8318V495.642H17.8038V497.448H16.6698V494.802H23.6838V493.528H16.6418V492.604ZM16.6698 497.028H25.2518V497.952H16.6698V497.028ZM17.8178 486.556H18.7698V487.214C18.7698 489.454 17.3138 491.302 15.1718 492.016L14.6258 491.106C16.5158 490.49 17.8178 488.936 17.8178 487.214V486.556ZM18.0558 486.556H19.0078V487.214C19.0078 488.824 20.3238 490.28 22.1998 490.854L21.6538 491.75C19.5258 491.092 18.0558 489.342 18.0558 487.214V486.556ZM14.9338 486.15H21.8638V487.088H14.9338V486.15ZM39.6254 485.45H40.7874V494.942H39.6254V485.45ZM40.4234 489.594H42.6634V490.574H40.4234V489.594ZM31.0014 486.976H38.4774V487.914H31.0014V486.976ZM34.7394 488.614C36.5314 488.614 37.7634 489.552 37.7634 490.98C37.7634 492.394 36.5314 493.332 34.7394 493.332C32.9334 493.332 31.7014 492.394 31.7014 490.98C31.7014 489.552 32.9334 488.614 34.7394 488.614ZM34.7394 489.524C33.5914 489.524 32.8074 490.098 32.8074 490.98C32.8074 491.848 33.5914 492.422 34.7394 492.422C35.8734 492.422 36.6574 491.848 36.6574 490.98C36.6574 490.098 35.8734 489.524 34.7394 489.524ZM34.1514 485.436H35.3134V487.466H34.1514V485.436ZM32.9054 496.86H41.3614V497.812H32.9054V496.86ZM32.9054 494.186H34.0674V497.266H32.9054V494.186ZM49.8163 489.006H53.4563V489.958H49.8163V489.006ZM53.0923 485.45H54.2543V494.816H53.0923V485.45ZM46.1203 496.86H54.5623V497.812H46.1203V496.86ZM46.1203 493.906H47.2823V497.35H46.1203V493.906ZM44.4683 486.276H45.6163V488.516H49.0463V486.276H50.1803V492.66H44.4683V486.276ZM45.6163 489.426V491.708H49.0463V489.426H45.6163ZM57.2493 486.57H63.0593V492.436H57.2493V486.57ZM61.9253 487.508H58.3833V491.498H61.9253V487.508ZM65.3833 485.422H66.5453V494.704H65.3833V485.422ZM66.1813 489.286H68.4213V490.252H66.1813V489.286ZM58.6633 496.86H67.1193V497.812H58.6633V496.86ZM58.6633 493.822H59.8253V497.266H58.6633V493.822ZM81.8149 485.436H82.9769V498.092H81.8149V485.436ZM82.6969 490.63H85.0489V491.61H82.6969V490.63ZM73.1769 487.452H80.6389V488.404H73.1769V487.452ZM76.9569 489.454C78.7489 489.454 80.0369 490.658 80.0369 492.366C80.0369 494.074 78.7489 495.278 76.9569 495.278C75.1789 495.278 73.8769 494.074 73.8769 492.366C73.8769 490.658 75.1789 489.454 76.9569 489.454ZM76.9569 490.42C75.8089 490.42 74.9829 491.218 74.9829 492.366C74.9829 493.5 75.8089 494.312 76.9569 494.312C78.1049 494.312 78.9309 493.5 78.9309 492.366C78.9309 491.218 78.1049 490.42 76.9569 490.42ZM76.3549 485.59H77.5169V487.886H76.3549V485.59ZM95.3378 485.436H96.4998V498.092H95.3378V485.436ZM91.6278 486.794H92.7758C92.7758 490.462 91.1238 493.668 86.8958 495.74L86.2798 494.802C89.9338 493.038 91.6278 490.35 91.6278 486.99V486.794ZM86.8538 486.794H92.1318V487.746H86.8538V486.794Z" fill="black" fill-opacity="0.87"/>
<circle cx="211" cy="491" r="12" fill="white"/>
<circle cx="211" cy="491" r="11.5" stroke="black" stroke-opacity="0.34"/>
<path d="M218.347 487.659L209.347 496.659C209.269 496.738 209.175 496.8 209.073 496.843C208.97 496.885 208.86 496.907 208.749 496.907C208.638 496.907 208.528 496.885 208.426 496.843C208.323 496.8 208.23 496.738 208.152 496.659L204.214 492.722C204.136 492.643 204.073 492.55 204.031 492.448C203.988 492.345 203.967 492.235 203.967 492.124C203.967 492.013 203.988 491.903 204.031 491.801C204.073 491.698 204.136 491.605 204.214 491.526C204.293 491.448 204.386 491.386 204.488 491.343C204.591 491.301 204.701 491.279 204.812 491.279C204.923 491.279 205.033 491.301 205.135 491.343C205.238 491.386 205.331 491.448 205.409 491.526L208.75 494.867L217.153 486.465C217.312 486.307 217.527 486.218 217.751 486.218C217.975 486.218 218.19 486.307 218.348 486.465C218.507 486.624 218.596 486.839 218.596 487.063C218.596 487.287 218.507 487.502 218.348 487.661L218.347 487.659Z" fill="black" fill-opacity="0.34"/>
<rect x="-82" y="536" width="320" height="70" rx="10" fill="white"/>
<rect x="-81.65" y="536.35" width="319.3" height="69.3" rx="9.65" stroke="black" stroke-opacity="0.25" stroke-width="0.7"/>
<path d="M-5.378 571.162L-5.266 572.086C-6.708 572.38 -7.898 572.436 -9.914 572.436H-10.712V566.402H-5.868V567.326H-9.606V568.908H-6.008V569.79H-9.606V571.498C-7.814 571.498 -6.694 571.428 -5.378 571.162ZM-9.102 574.676V573.752H-0.659999V578.036H-1.808V574.676H-9.102ZM-1.766 565.492H-0.659999V573.094H-1.766V569.692H-3.446V573.01H-4.538V565.716H-3.446V568.754H-1.766V565.492ZM6.07291 566.57V568.824C6.07291 571.12 7.57091 573.43 9.43291 574.27L8.74691 575.194C7.31891 574.494 6.11491 573.01 5.51291 571.218C4.93891 573.108 3.73491 574.676 2.26491 575.432L1.56491 574.494C3.41291 573.612 4.93891 571.204 4.93891 568.824V566.57H6.07291ZM10.7489 565.478H11.8969V578.064H10.7489V565.478ZM19.7185 567.942V573.99C21.3985 573.976 22.5885 573.906 23.9605 573.612L24.0585 574.564C22.5605 574.886 21.2865 574.942 19.4105 574.942H18.5845V567.004H23.2605V567.942H19.7185ZM27.6985 565.478H28.8045V578.036H27.6985V571.456H25.9205V577.406H24.8425V565.758H25.9205V570.518H27.6985V565.478ZM41.3194 565.478V574.69H40.1714V565.478H41.3194ZM38.5754 571.736L37.9734 572.646C36.5454 572.1 35.4394 570.966 34.8794 569.538C34.3474 571.064 33.2134 572.282 31.7434 572.898L31.1414 571.96C33.0314 571.232 34.2914 569.412 34.2914 567.452V566.178H35.4394V567.452C35.4394 569.342 36.7134 571.05 38.5754 571.736ZM34.3894 576.818H41.6974V577.756H33.2414V573.836H34.3894V576.818ZM56.7151 571.918V569.426H53.9851V568.502H56.7151V565.478H57.8771V571.918H56.7151ZM48.3851 566.094H53.9011C53.9011 569.216 51.7311 571.274 48.1331 572.17L47.7131 571.26C50.7091 570.532 52.4731 569.02 52.6691 567.018H48.3851V566.094ZM50.9471 577H58.2971V577.91H49.8131V574.676H56.7291V573.374H49.7851V572.464H57.8771V575.544H50.9471V577ZM63.77 574.186C64.96 574.186 65.8 572.87 65.8 570.826C65.8 568.796 64.96 567.48 63.77 567.48C62.566 567.48 61.726 568.796 61.726 570.826C61.726 572.87 62.566 574.186 63.77 574.186ZM69.608 565.478H70.756V578.064H69.608V571.204H66.878C66.766 573.668 65.52 575.208 63.77 575.208C61.936 575.208 60.634 573.5 60.634 570.826C60.634 568.152 61.936 566.444 63.77 566.444C65.464 566.444 66.696 567.914 66.878 570.266H69.608V565.478ZM74.9689 567.634V573.948C77.1949 573.948 78.8049 573.85 80.6249 573.528L80.7509 574.48C78.8329 574.844 77.1809 574.928 74.8149 574.928H73.8209V566.682H79.6589V567.634H74.9689ZM85.0209 570.434V571.386H82.9489V578.064H81.8009V565.478H82.9489V570.434H85.0209ZM88.0998 566.696V573.808C89.9898 573.808 91.9358 573.64 94.0218 573.22L94.1478 574.2C91.9638 574.648 89.9898 574.788 87.9878 574.788H86.9518V566.696H88.0998ZM95.3098 565.478H96.4578V578.022H95.3098V565.478ZM99.7887 566.836H105.669C105.669 570.462 104.003 573.654 99.8307 575.698L99.2147 574.76C102.589 573.15 104.269 570.742 104.507 567.76H99.7887V566.836ZM108.203 565.478H109.351V578.036H108.203V565.478Z" fill="black" fill-opacity="0.87"/>
<circle cx="211" cy="571" r="12" fill="white"/>
<circle cx="211" cy="571" r="11.5" stroke="black" stroke-opacity="0.34"/>
<path d="M218.347 567.659L209.347 576.659C209.269 576.738 209.175 576.8 209.073 576.843C208.97 576.885 208.86 576.907 208.749 576.907C208.638 576.907 208.528 576.885 208.426 576.843C208.323 576.8 208.23 576.738 208.152 576.659L204.214 572.722C204.136 572.643 204.073 572.55 204.031 572.448C203.988 572.345 203.967 572.235 203.967 572.124C203.967 572.013 203.988 571.903 204.031 571.801C204.073 571.698 204.136 571.605 204.214 571.526C204.293 571.448 204.386 571.386 204.488 571.343C204.591 571.301 204.701 571.279 204.812 571.279C204.923 571.279 205.033 571.301 205.135 571.343C205.238 571.386 205.331 571.448 205.409 571.526L208.75 574.867L217.153 566.465C217.312 566.307 217.527 566.218 217.751 566.218C217.975 566.218 218.19 566.307 218.348 566.465C218.507 566.624 218.596 566.839 218.596 567.063C218.596 567.287 218.507 567.502 218.348 567.661L218.347 567.659Z" fill="black" fill-opacity="0.34"/>
<rect x="-82" y="616" width="320" height="70" rx="10" fill="white"/>
<rect x="-81.65" y="616.35" width="319.3" height="69.3" rx="9.65" stroke="black" stroke-opacity="0.25" stroke-width="0.7"/>
<path d="M-2.074 654.816V651.204H-4.174V650.266H-2.074V648.796H-4.174V647.872H-2.074V645.492H-0.911999V654.816H-2.074ZM-8.528 647.424V651.946C-7.912 651.932 -7.268 651.904 -6.638 651.876V647.424H-8.528ZM-3.88 651.652L-3.81 652.506C-6.218 652.884 -9.06 652.926 -11.09 652.926L-11.216 651.974C-10.74 651.974 -10.194 651.974 -9.634 651.96V647.424H-10.88V646.5H-4.272V647.424H-5.518V651.806C-4.958 651.764 -4.398 651.708 -3.88 651.652ZM-7.814 656.818H-0.589999V657.756H-8.962V654.06H-7.814V656.818ZM5.69491 646.402C7.65491 646.402 9.05491 647.592 9.05491 649.356C9.05491 651.106 7.65491 652.31 5.69491 652.31C3.74891 652.31 2.33491 651.106 2.33491 649.356C2.33491 647.592 3.74891 646.402 5.69491 646.402ZM5.69491 647.382C4.40691 647.382 3.45491 648.18 3.45491 649.356C3.45491 650.518 4.40691 651.33 5.69491 651.33C6.99691 651.33 7.93491 650.518 7.93491 649.356C7.93491 648.18 6.99691 647.382 5.69491 647.382ZM10.7069 645.478H11.8549V658.064H10.7069V645.478ZM1.84491 655.306L1.70491 654.34C3.98691 654.34 7.13691 654.326 9.88091 653.906L9.97891 654.76C7.15091 655.278 4.11291 655.306 1.84491 655.306ZM21.9058 651.526L21.3318 652.422C19.9318 651.918 18.8538 650.868 18.3078 649.58C17.7618 651.022 16.6138 652.17 15.1438 652.702L14.5418 651.806C16.4038 651.134 17.7058 649.468 17.7058 647.69V647.214H14.9058V646.276H21.6118V647.214H18.8538V647.676C18.8538 649.314 20.0858 650.882 21.9058 651.526ZM17.8038 654.354V656.944H23.7258V654.354H17.8038ZM16.6838 657.868V653.444H24.8458V657.868H16.6838ZM23.6838 645.478H24.8458V652.828H23.6838V649.58H21.2058V648.628H23.6838V645.478ZM31.7014 646.78H37.3434C37.3434 650.42 36.0694 653.738 31.6594 655.978L31.0154 655.068C33.2974 653.948 34.6834 652.506 35.4534 650.84L31.2674 651.232L31.0574 650.238L35.8034 649.93C36.0414 649.23 36.1534 648.488 36.2094 647.718H31.7014V646.78ZM40.1994 645.492H41.3474V658.036H40.1994V651.456H37.3014V650.518H40.1994V645.492ZM46.7083 647.76V653.934C47.3943 653.92 48.0943 653.892 48.8083 653.864V647.76H46.7083ZM49.9283 647.76V653.794C50.6143 653.766 51.3003 653.696 51.9583 653.612L52.0283 654.452C49.3263 654.886 46.3023 654.914 44.0203 654.928L43.8943 653.962C44.4263 653.962 45.0003 653.962 45.6023 653.948V647.76H44.2023V646.836H51.3143V647.76H49.9283ZM53.0503 645.492H54.1983V658.036H53.0503V645.492ZM62.034 647.662V653.92H65.548V647.662H62.034ZM60.914 654.844V646.738H66.668V654.844H60.914ZM72.142 650.49V651.456H70.07V658.036H68.922V645.492H70.07V650.49H72.142ZM77.7409 646.57V648.824C77.7409 651.12 79.2389 653.43 81.1009 654.27L80.4149 655.194C78.9869 654.494 77.7829 653.01 77.1809 651.218C76.6069 653.108 75.4029 654.676 73.9329 655.432L73.2329 654.494C75.0809 653.612 76.6069 651.204 76.6069 648.824V646.57H77.7409ZM82.4169 645.478H83.5649V658.064H82.4169V645.478ZM86.9098 646.836H92.7898C92.7898 650.462 91.1238 653.654 86.9518 655.698L86.3358 654.76C89.7098 653.15 91.3898 650.742 91.6278 647.76H86.9098V646.836ZM95.3238 645.478H96.4718V658.036H95.3238V645.478Z" fill="black" fill-opacity="0.87"/>
<circle cx="211" cy="651" r="12" fill="white"/>
<circle cx="211" cy="651" r="11.5" stroke="black" stroke-opacity="0.34"/>
<path d="M218.347 647.659L209.347 656.659C209.269 656.738 209.175 656.8 209.073 656.843C208.97 656.885 208.86 656.907 208.749 656.907C208.638 656.907 208.528 656.885 208.426 656.843C208.323 656.8 208.23 656.738 208.152 656.659L204.214 652.722C204.136 652.643 204.073 652.55 204.031 652.448C203.988 652.345 203.967 652.235 203.967 652.124C203.967 652.013 203.988 651.903 204.031 651.801C204.073 651.698 204.136 651.605 204.214 651.526C204.293 651.448 204.386 651.386 204.488 651.343C204.591 651.301 204.701 651.279 204.812 651.279C204.923 651.279 205.033 651.301 205.135 651.343C205.238 651.386 205.331 651.448 205.409 651.526L208.75 654.867L217.153 646.465C217.312 646.307 217.527 646.218 217.751 646.218C217.975 646.218 218.19 646.307 218.348 646.465C218.507 646.624 218.596 646.839 218.596 647.063C218.596 647.287 218.507 647.502 218.348 647.661L218.347 647.659Z" fill="black" fill-opacity="0.34"/>
<rect x="-82" y="696" width="320" height="70" rx="10" fill="white"/>
<rect x="-81.65" y="696.35" width="319.3" height="69.3" rx="9.65" stroke="black" stroke-opacity="0.25" stroke-width="0.7"/>
<path d="M-8.15 734.172C-7.184 734.172 -6.484 733.374 -6.484 732.254C-6.484 731.162 -7.184 730.364 -8.15 730.364C-9.13 730.364 -9.816 731.162 -9.816 732.254C-9.816 733.374 -9.13 734.172 -8.15 734.172ZM-8.15 729.398C-6.596 729.398 -5.462 730.574 -5.462 732.254C-5.462 733.962 -6.596 735.124 -8.15 735.124C-9.704 735.124 -10.838 733.962 -10.838 732.254C-10.838 730.574 -9.704 729.398 -8.15 729.398ZM-7.59 725.842V727.62H-5.042V728.558H-11.272V727.62H-8.724V725.842H-7.59ZM-1.724 725.464H-0.618V738.022H-1.724V731.708H-3.334V737.42H-4.412V725.758H-3.334V730.77H-1.724V725.464ZM11.9109 725.492V734.732H10.7629V725.492H11.9109ZM9.26491 731.596L9.37691 732.534C7.37491 732.87 5.69491 732.954 3.28691 732.954H2.27891V729.132H6.81491V727.298H2.23691V726.374H7.94891V730H3.39891V732.016C5.69491 732.016 7.33291 731.932 9.26491 731.596ZM4.86891 736.818H12.2609V737.756H3.72091V734.018H4.86891V736.818ZM23.6278 725.478H24.7758V738.064H23.6278V725.478ZM18.1538 726.444C20.0158 726.444 21.3458 728.152 21.3458 730.826C21.3458 733.5 20.0158 735.208 18.1538 735.208C16.2918 735.208 14.9618 733.5 14.9618 730.826C14.9618 728.152 16.2918 726.444 18.1538 726.444ZM18.1538 727.48C16.9218 727.48 16.0538 728.796 16.0538 730.826C16.0538 732.87 16.9218 734.186 18.1538 734.186C19.3718 734.186 20.2398 732.87 20.2398 730.826C20.2398 728.796 19.3718 727.48 18.1538 727.48ZM34.8267 727.018V727.942H27.4207V727.018H30.5427V725.478H31.6907V727.018H34.8267ZM29.2127 730.966C29.2127 731.848 29.9827 732.408 31.1167 732.408C32.2507 732.408 33.0347 731.848 33.0347 730.966C33.0347 730.098 32.2507 729.538 31.1167 729.538C29.9827 729.538 29.2127 730.098 29.2127 730.966ZM34.1267 730.966C34.1267 732.38 32.8947 733.304 31.1167 733.304C29.3387 733.304 28.1207 732.38 28.1207 730.966C28.1207 729.566 29.3387 728.642 31.1167 728.642C32.8947 728.642 34.1267 729.566 34.1267 730.966ZM30.4587 734.158V736.818H37.6827V737.756H29.3107V734.158H30.4587ZM37.1227 729.622H38.9707V730.588H37.1227V734.9H35.9747V725.478H37.1227V729.622ZM41.8256 731.288V734.074C43.5896 734.074 44.6816 734.018 46.0116 733.752L46.1096 734.69C44.6816 734.97 43.5056 735.012 41.5316 735.012H40.7196V726.976H45.3956V727.914H41.8256V730.378H44.8076V731.288H41.8256ZM47.2996 730.238V725.786H48.3776V737.392H47.2996V731.176H45.4936V730.238H47.2996ZM49.8196 725.464H50.9116V738.022H49.8196V725.464ZM67.0633 725.492V732.044H65.9153V725.492H67.0633ZM62.1773 730.56V728.684H58.5653V730.56H62.1773ZM63.3113 725.982V731.484H57.4313V725.982H58.5653V727.802H62.1773V725.982H63.3113ZM60.1053 737H67.4973V737.896H58.9713V734.816H65.9433V733.584H58.9433V732.688H67.0773V735.656H60.1053V737ZM79.9422 725.492V734.732H78.7942V725.492H79.9422ZM77.2962 731.596L77.4082 732.534C75.4062 732.87 73.7262 732.954 71.3182 732.954H70.3102V729.132H74.8462V727.298H70.2682V726.374H75.9802V730H71.4302V732.016C73.7262 732.016 75.3642 731.932 77.2962 731.596ZM72.9002 736.818H80.2922V737.756H71.7522V734.018H72.9002V736.818ZM88.7718 734.144V736.818H96.3318V737.756H87.6238V734.144H88.7718ZM92.4258 732.086H97.5358V733.01H86.1678V732.086H91.2778V730.448H87.5958V726.122H96.1218V727.046H88.7438V729.51H96.2338V730.448H92.4258V732.086ZM103.803 731.582L103.369 730.672C105.553 730.35 107.723 728.908 107.723 727.256V727.186H103.761V726.262H112.931V727.186H108.997V727.256C108.997 728.908 111.167 730.35 113.379 730.672L112.931 731.582C110.985 731.246 109.123 730.196 108.367 728.712C107.597 730.196 105.749 731.246 103.803 731.582ZM114.037 732.632L114.051 733.57H108.913V738.036H107.765V733.57H102.697V732.632H114.037ZM116.304 726.836H122.184C122.184 730.462 120.518 733.654 116.346 735.698L115.73 734.76C119.104 733.15 120.784 730.742 121.022 727.76H116.304V726.836ZM124.718 725.478H125.866V738.036H124.718V725.478Z" fill="black" fill-opacity="0.87"/>
<circle cx="211" cy="731" r="12" fill="white"/>
<circle cx="211" cy="731" r="11.5" stroke="black" stroke-opacity="0.34"/>
<path d="M218.347 727.659L209.347 736.659C209.269 736.738 209.175 736.8 209.073 736.843C208.97 736.885 208.86 736.907 208.749 736.907C208.638 736.907 208.528 736.885 208.426 736.843C208.323 736.8 208.23 736.738 208.152 736.659L204.214 732.722C204.136 732.643 204.073 732.55 204.031 732.448C203.988 732.345 203.967 732.235 203.967 732.124C203.967 732.013 203.988 731.903 204.031 731.801C204.073 731.698 204.136 731.605 204.214 731.526C204.293 731.448 204.386 731.386 204.488 731.343C204.591 731.301 204.701 731.279 204.812 731.279C204.923 731.279 205.033 731.301 205.135 731.343C205.238 731.386 205.331 731.448 205.409 731.526L208.75 734.867L217.153 726.465C217.312 726.307 217.527 726.218 217.751 726.218C217.975 726.218 218.19 726.307 218.348 726.465C218.507 726.624 218.596 726.839 218.596 727.063C218.596 727.287 218.507 727.502 218.348 727.661L218.347 727.659Z" fill="black" fill-opacity="0.34"/>
<rect x="-82" y="776" width="320" height="70" rx="10" fill="white"/>
<rect x="-81.65" y="776.35" width="319.3" height="69.3" rx="9.65" stroke="black" stroke-opacity="0.25" stroke-width="0.7"/>
<circle cx="211" cy="811" r="12" fill="white"/>
<circle cx="211" cy="811" r="11.5" stroke="black" stroke-opacity="0.34"/>
<g filter="url(#filter1_d_988_6536)">
<path d="M-102 745C-102 736.716 -95.2843 730 -87 730H243C251.284 730 258 736.716 258 745V800H-102V745Z" fill="white"/>
</g>
<path d="M-30 730H42V800H-30V730Z" fill="white"/>
<path d="M42 730H114V800H42V730Z" fill="white"/>
<path d="M114 730H186V800H114V730Z" fill="white"/>
<path d="M186 730H243C251.284 730 258 736.716 258 745V800H186V730Z" fill="white"/>
<path d="M-9.60879 775.06H-8.87879V775.56C-8.87879 777.29 -10.6388 778.53 -12.5188 778.85L-12.8488 778.18C-11.1988 777.93 -9.60879 776.85 -9.60879 775.56V775.06ZM-9.45879 775.06H-8.73879V775.56C-8.73879 776.82 -7.12879 777.93 -5.49879 778.18L-5.82879 778.85C-7.68879 778.53 -9.45879 777.27 -9.45879 775.56V775.06ZM-9.60879 780.34H-8.78879V783.78H-9.60879V780.34ZM-13.2588 779.83H-5.08879V780.52H-13.2588V779.83ZM2.51043 774.74H3.35043V779.59H2.51043V774.74ZM-2.47957 780.04H-1.65957V781.14H2.53043V780.04H3.35043V783.66H-2.47957V780.04ZM-1.65957 781.8V782.99H2.53043V781.8H-1.65957ZM-1.49957 775.17C-0.12957 775.17 0.85043 776.02 0.85043 777.25C0.85043 778.49 -0.12957 779.34 -1.49957 779.34C-2.86957 779.34 -3.85957 778.49 -3.85957 777.25C-3.85957 776.02 -2.86957 775.17 -1.49957 775.17ZM-1.49957 775.86C-2.39957 775.86 -3.04957 776.43 -3.04957 777.25C-3.04957 778.07 -2.39957 778.64 -1.49957 778.64C-0.59957 778.64 0.0504299 778.07 0.0504299 777.25C0.0504299 776.43 -0.59957 775.86 -1.49957 775.86ZM8.25965 775.86L5.59965 783H4.73965L7.39965 775.86H8.25965ZM11.2504 776.03H11.9204V777.5C11.9204 779.41 10.7704 781.33 9.33035 782.04L8.85035 781.38C10.1604 780.76 11.2504 779.06 11.2504 777.5V776.03ZM11.4104 776.03H12.0804V777.5C12.0804 779.03 13.1704 780.59 14.5004 781.16L14.0304 781.82C12.5704 781.14 11.4104 779.38 11.4104 777.5V776.03ZM9.15035 775.66H14.2004V776.36H9.15035V775.66ZM15.4204 774.74H16.2504V783.78H15.4204V774.74ZM21.7196 779.24H22.5496V780.61H21.7196V779.24ZM18.0596 778.75H26.2196V779.39H18.0596V778.75ZM21.7296 774.68H22.5496V775.78H21.7296V774.68ZM21.6896 775.86H22.4196V776C22.4196 777.42 20.7296 778.18 18.7296 778.35L18.4896 777.71C20.2696 777.6 21.6896 776.97 21.6896 776V775.86ZM21.8596 775.86H22.5896V776C22.5896 776.97 24.0096 777.6 25.7796 777.71L25.5396 778.35C23.5396 778.18 21.8596 777.42 21.8596 776V775.86ZM18.8896 775.53H25.3896V776.16H18.8896V775.53ZM19.0396 780.21H25.1796V782.2H19.8796V783.29H19.0596V781.61H24.3596V780.84H19.0396V780.21ZM19.0596 783.05H25.4496V783.68H19.0596V783.05Z" fill="black" fill-opacity="0.87"/>
<path d="M73.3008 777.25H75.3108V777.92H73.3008V777.25ZM73.2308 779.52H75.2908V780.19H73.2308V779.52ZM76.6808 774.74H77.4808V783.78H76.6808V774.74ZM74.8708 774.97H75.6508V783.32H74.8708V774.97ZM72.8508 775.88H73.6508C73.6508 778.25 72.7008 780.38 70.2708 781.83L69.7908 781.24C71.9008 779.96 72.8508 778.16 72.8508 776.03V775.88ZM70.1908 775.88H73.1808V776.56H70.1908V775.88ZM79.33 775.56H84.62V776.18H79.33V775.56ZM81.98 776.53C83.28 776.53 84.13 777.05 84.13 777.87C84.13 778.7 83.28 779.22 81.98 779.22C80.69 779.22 79.84 778.7 79.84 777.87C79.84 777.05 80.69 776.53 81.98 776.53ZM81.98 777.11C81.17 777.11 80.62 777.4 80.62 777.87C80.62 778.33 81.17 778.64 81.98 778.64C82.81 778.64 83.34 778.33 83.34 777.87C83.34 777.4 82.81 777.11 81.98 777.11ZM81.56 774.68H82.4V775.89H81.56V774.68ZM81.56 778.89H82.4V780.12H81.56V778.89ZM85.56 774.75H86.39V780.8H85.56V774.75ZM80.33 781.22H86.39V783.78H85.56V781.88H80.33V781.22ZM79.15 780.52L79.04 779.85C80.7 779.85 82.94 779.84 84.84 779.58L84.9 780.16C82.93 780.49 80.78 780.52 79.15 780.52Z" fill="black" fill-opacity="0.87"/>
<path d="M137.191 775.62H140.461V776.3H137.191V775.62ZM140.031 775.62H140.801V776.22C140.801 776.98 140.801 777.97 140.491 779.34L139.721 779.25C140.031 777.9 140.031 776.97 140.031 776.22V775.62ZM140.401 777.21V777.81L137.061 778.09L136.931 777.41L140.401 777.21ZM143.551 774.74H144.351V783.78H143.551V774.74ZM141.851 774.94H142.631V783.28H141.851V774.94ZM140.161 780.55H142.131V781.2H140.161V780.55ZM138.511 779.49H139.301V783.05H138.511V779.49ZM136.681 779.9L136.581 779.19C137.861 779.18 139.861 779.13 141.301 778.93L141.351 779.56C139.881 779.82 137.941 779.9 136.681 779.9ZM149.52 775.36H150.24V776.05C150.24 778.02 148.41 779.55 146.6 779.96L146.23 779.27C147.82 778.97 149.52 777.59 149.52 776.05V775.36ZM149.67 775.36H150.39V776.05C150.39 777.6 152.1 778.97 153.68 779.27L153.31 779.96C151.51 779.55 149.67 778.03 149.67 776.05V775.36ZM145.9 781.88H154.09V782.56H145.9V781.88ZM156.15 779.61H162.36V780.28H156.15V779.61ZM155.1 781.93H163.29V782.62H155.1V781.93ZM156.15 775.51H162.26V776.19H156.99V779.82H156.15V775.51ZM156.72 777.53H162.07V778.19H156.72V777.53Z" fill="black" fill-opacity="0.87"/>
<path d="M199.852 775.64H204.002V781.49H199.852V775.64ZM203.192 776.31H200.662V780.82H203.192V776.31ZM205.612 774.74H206.452V783.78H205.612V774.74ZM206.252 778.35H207.932V779.05H206.252V778.35ZM215.261 774.73H216.091V783.79H215.261V774.73ZM211.321 775.43C212.661 775.43 213.621 776.66 213.621 778.58C213.621 780.51 212.661 781.74 211.321 781.74C209.991 781.74 209.031 780.51 209.031 778.58C209.031 776.66 209.991 775.43 211.321 775.43ZM211.321 776.18C210.441 776.18 209.821 777.12 209.821 778.58C209.821 780.05 210.441 781.01 211.321 781.01C212.211 781.01 212.821 780.05 212.821 778.58C212.821 777.12 212.211 776.18 211.321 776.18ZM224.82 774.74H225.62V783.78H224.82V774.74ZM221.84 778.18H223.34V778.91H221.84V778.18ZM223.07 774.96H223.86V783.31H223.07V774.96ZM217.98 775.88H222.11V776.56H217.98V775.88ZM217.9 781.56L217.8 780.86C218.97 780.86 220.93 780.82 222.3 780.64L222.36 781.25C220.95 781.52 219.06 781.56 217.9 781.56ZM218.72 776.32H219.48V781.05H218.72V776.32ZM220.6 776.32H221.36V781.05H220.6V776.32ZM233.66 774.73H234.49V783.79H233.66V774.73ZM229.72 775.43C231.06 775.43 232.02 776.66 232.02 778.58C232.02 780.51 231.06 781.74 229.72 781.74C228.39 781.74 227.43 780.51 227.43 778.58C227.43 776.66 228.39 775.43 229.72 775.43ZM229.72 776.18C228.84 776.18 228.22 777.12 228.22 778.58C228.22 780.05 228.84 781.01 229.72 781.01C230.61 781.01 231.22 780.05 231.22 778.58C231.22 777.12 230.61 776.18 229.72 776.18ZM238.689 776.03H239.359V777.5C239.359 779.41 238.209 781.33 236.769 782.04L236.289 781.38C237.599 780.76 238.689 779.06 238.689 777.5V776.03ZM238.849 776.03H239.519V777.5C239.519 779.03 240.609 780.59 241.939 781.16L241.469 781.82C240.009 781.14 238.849 779.38 238.849 777.5V776.03ZM236.589 775.66H241.639V776.36H236.589V775.66ZM242.859 774.74H243.689V783.78H242.859V774.74Z" fill="black" fill-opacity="0.87"/>
<path d="M-4 760.832V762.5C-4 763.879 -0.640625 765 3.5 765C7.64062 765 11 763.879 11 762.5V760.832C9.38672 761.969 6.4375 762.5 3.5 762.5C0.5625 762.5 -2.38672 761.969 -4 760.832ZM8.5 750C12.6406 750 16 748.879 16 747.5C16 746.121 12.6406 745 8.5 745C4.35938 745 1 746.121 1 747.5C1 748.879 4.35938 750 8.5 750ZM-4 756.734V758.75C-4 760.129 -0.640625 761.25 3.5 761.25C7.64062 761.25 11 760.129 11 758.75V756.734C9.38672 758.062 6.43359 758.75 3.5 758.75C0.566406 758.75 -2.38672 758.062 -4 756.734ZM12.25 757.164C14.4883 756.73 16 755.926 16 755V753.332C15.0938 753.973 13.7617 754.41 12.25 754.68V757.164ZM3.5 751.25C-0.640625 751.25 -4 752.648 -4 754.375C-4 756.102 -0.640625 757.5 3.5 757.5C7.64062 757.5 11 756.102 11 754.375C11 752.648 7.64062 751.25 3.5 751.25ZM12.0664 753.449C14.4102 753.027 16 752.199 16 751.25V749.582C14.6133 750.562 12.2305 751.09 9.72266 751.215C10.875 751.773 11.7227 752.523 12.0664 753.449Z" fill="black" fill-opacity="0.87"/>
<path d="M87.789 744.48L88.379 745.07C89.192 745.884 89.069 747.327 88.102 748.293L75.935 760.46L71.993 761.902C71.498 762.084 71.016 761.848 70.918 761.377C70.8849 761.206 70.9005 761.029 70.963 760.867L72.433 756.891L84.566 744.757C85.533 743.791 86.976 743.666 87.789 744.48ZM75.404 745.69C75.5353 745.69 75.6653 745.716 75.7867 745.766C75.908 745.816 76.0182 745.89 76.1111 745.983C76.204 746.076 76.2776 746.186 76.3279 746.307C76.3781 746.428 76.404 746.558 76.404 746.69C76.404 746.821 76.3781 746.951 76.3279 747.072C76.2776 747.194 76.204 747.304 76.1111 747.397C76.0182 747.49 75.908 747.563 75.7867 747.614C75.6653 747.664 75.5353 747.69 75.404 747.69H71.404C70.8736 747.69 70.3649 747.9 69.9898 748.276C69.6147 748.651 69.404 749.159 69.404 749.69V761.69C69.404 762.22 69.6147 762.729 69.9898 763.104C70.3649 763.479 70.8736 763.69 71.404 763.69H83.404C83.9344 763.69 84.4431 763.479 84.8182 763.104C85.1933 762.729 85.404 762.22 85.404 761.69V757.69C85.404 757.425 85.5093 757.17 85.6969 756.983C85.8844 756.795 86.1388 756.69 86.404 756.69C86.6692 756.69 86.9236 756.795 87.1111 756.983C87.2986 757.17 87.404 757.425 87.404 757.69V761.69C87.404 762.751 86.9826 763.768 86.2324 764.518C85.4823 765.268 84.4649 765.69 83.404 765.69H71.404C70.3431 765.69 69.3257 765.268 68.5756 764.518C67.8254 763.768 67.404 762.751 67.404 761.69V749.69C67.404 748.629 67.8254 747.611 68.5756 746.861C69.3257 746.111 70.3431 745.69 71.404 745.69H75.404Z" fill="black" fill-opacity="0.87"/>
<g clip-path="url(#clip1_988_6536)">
<path d="M150 743C143.37 743 138 748.37 138 755C138 761.63 143.37 767 150 767C156.63 767 162 761.63 162 755C162 748.37 156.63 743 150 743ZM150 761.73C146.28 761.73 143.27 758.72 143.27 755C143.27 751.28 146.28 748.27 150 748.27C153.72 748.27 156.73 751.28 156.73 755C156.73 758.72 153.72 761.73 150 761.73Z" fill="black" fill-opacity="0.1"/>
<path d="M161.1 759.55C161.21 759.26 161.27 758.96 161.27 758.64C161.27 757.19 160.09 756.01 158.64 756.01C157.57 756.01 156.66 756.65 156.24 757.56H156.23C155.22 760 152.82 761.73 150.01 761.73C146.29 761.73 143.28 758.72 143.28 755C143.28 751.28 146.29 748.27 150.01 748.27C150.16 748.27 150.3 748.28 150.45 748.29V748.27C150.53 748.27 150.6 748.29 150.67 748.29C152.12 748.29 153.3 747.11 153.3 745.66C153.3 744.21 152.18 743.1 150.78 743.04C150.52 743 150.26 743 150 743C143.42 743 138 748.42 138 755C138 761.58 143.42 767 150 767C154.78 767 159.11 764.14 161.01 759.76C161.04 759.71 161.06 759.65 161.08 759.6C161.08 759.58 161.1 759.57 161.1 759.55Z" fill="black" fill-opacity="0.87"/>
</g>
<path d="M231.65 763.625C231.584 763.739 231.489 763.834 231.375 763.9C231.261 763.965 231.132 764 231 764H213C212.868 764 212.739 763.965 212.625 763.899C212.511 763.833 212.417 763.739 212.351 763.625C212.285 763.511 212.251 763.382 212.251 763.25C212.251 763.118 212.285 762.989 212.351 762.875C213.779 760.407 215.979 758.637 218.547 757.798C217.277 757.041 216.29 755.889 215.738 754.518C215.186 753.147 215.1 751.632 215.492 750.207C215.884 748.782 216.733 747.525 217.909 746.629C219.085 745.733 220.522 745.248 222 745.248C223.478 745.248 224.916 745.733 226.091 746.629C227.267 747.525 228.116 748.782 228.508 750.207C228.9 751.632 228.814 753.147 228.262 754.518C227.71 755.889 226.723 757.041 225.453 757.798C228.021 758.637 230.221 760.407 231.649 762.875C231.715 762.989 231.75 763.118 231.75 763.25C231.75 763.382 231.715 763.511 231.65 763.625Z" fill="black" fill-opacity="0.87"/>
</g>
<defs>
<filter id="filter0_d_988_6536" x="-116" y="-14" width="388" height="258" filterUnits="userSpaceOnUse" color-interpolation-filters="sRGB">
<feFlood flood-opacity="0" result="BackgroundImageFix"/>
<feColorMatrix in="SourceAlpha" type="matrix" values="0 0 0 0 0 0 0 0 0 0 0 0 0 0 0 0 0 0 127 0" result="hardAlpha"/>
<feMorphology radius="4" operator="dilate" in="SourceAlpha" result="effect1_dropShadow_988_6536"/>
<feOffset/>
<feGaussianBlur stdDeviation="5"/>
<feComposite in2="hardAlpha" operator="out"/>
<feColorMatrix type="matrix" values="0 0 0 0 0 0 0 0 0 0 0 0 0 0 0 0 0 0 0.13 0"/>
<feBlend mode="normal" in2="BackgroundImageFix" result="effect1_dropShadow_988_6536"/>
<feBlend mode="normal" in="SourceGraphic" in2="effect1_dropShadow_988_6536" result="shape"/>
</filter>
<filter id="filter1_d_988_6536" x="-107" y="724" width="370" height="80" filterUnits="userSpaceOnUse" color-interpolation-filters="sRGB">
<feFlood flood-opacity="0" result="BackgroundImageFix"/>
<feColorMatrix in="SourceAlpha" type="matrix" values="0 0 0 0 0 0 0 0 0 0 0 0 0 0 0 0 0 0 127 0" result="hardAlpha"/>
<feMorphology radius="1" operator="dilate" in="SourceAlpha" result="effect1_dropShadow_988_6536"/>
<feOffset dy="-1"/>
<feGaussianBlur stdDeviation="2"/>
<feComposite in2="hardAlpha" operator="out"/>
<feColorMatrix type="matrix" values="0 0 0 0 0 0 0 0 0 0 0 0 0 0 0 0 0 0 0.1 0"/>
<feBlend mode="normal" in2="BackgroundImageFix" result="effect1_dropShadow_988_6536"/>
<feBlend mode="normal" in="SourceGraphic" in2="effect1_dropShadow_988_6536" result="shape"/>
</filter>
<clipPath id="clip0_988_6536">
<rect width="360" height="800" fill="white" transform="translate(-102)"/>
</clipPath>
<clipPath id="clip1_988_6536">
<rect width="24" height="24" fill="white" transform="translate(138 743)"/>
</clipPath>
</defs>
</svg>
