<svg width="360" height="800" viewBox="0 0 360 800" fill="none" xmlns="http://www.w3.org/2000/svg">
<g clip-path="url(#clip0_988_6730)">
<rect width="360" height="800" fill="white"/>
<rect width="360" height="602" fill="black" fill-opacity="0.05"/>
<path d="M24.836 20H23.471V13.838C23.471 13.6213 23.471 13.422 23.471 13.24C23.4797 13.0493 23.4883 12.8673 23.497 12.694C23.5057 12.512 23.5143 12.3387 23.523 12.174C23.4103 12.2867 23.2933 12.395 23.172 12.499C23.0507 12.603 22.912 12.7243 22.756 12.863L21.742 13.682L21.04 12.798L23.692 10.718H24.836V20ZM34.2905 15.346C34.2905 16.1 34.2298 16.7717 34.1085 17.361C33.9958 17.9503 33.8138 18.453 33.5625 18.869C33.3198 19.2763 32.9948 19.5883 32.5875 19.805C32.1888 20.0217 31.7078 20.13 31.1445 20.13C30.4338 20.13 29.8488 19.9393 29.3895 19.558C28.9301 19.1767 28.5878 18.6307 28.3625 17.92C28.1371 17.2007 28.0245 16.3427 28.0245 15.346C28.0245 14.3407 28.1241 13.4827 28.3235 12.772C28.5315 12.0613 28.8651 11.5197 29.3245 11.147C29.7838 10.7657 30.3905 10.575 31.1445 10.575C31.8551 10.575 32.4401 10.7657 32.8995 11.147C33.3675 11.5197 33.7141 12.0613 33.9395 12.772C34.1735 13.4827 34.2905 14.3407 34.2905 15.346ZM29.4025 15.346C29.4025 16.152 29.4588 16.8237 29.5715 17.361C29.6841 17.8983 29.8661 18.3013 30.1175 18.57C30.3775 18.8387 30.7198 18.973 31.1445 18.973C31.5691 18.973 31.9071 18.843 32.1585 18.583C32.4185 18.3143 32.6048 17.9113 32.7175 17.374C32.8388 16.828 32.8995 16.152 32.8995 15.346C32.8995 14.54 32.8388 13.8727 32.7175 13.344C32.6048 12.8067 32.4185 12.4037 32.1585 12.135C31.9071 11.8663 31.5691 11.732 31.1445 11.732C30.7198 11.732 30.3775 11.8663 30.1175 12.135C29.8661 12.4037 29.6841 12.8067 29.5715 13.344C29.4588 13.8727 29.4025 14.54 29.4025 15.346ZM35.7629 19.233C35.7629 18.895 35.8496 18.6567 36.0229 18.518C36.1962 18.3793 36.4042 18.31 36.6469 18.31C36.8982 18.31 37.1106 18.3793 37.2839 18.518C37.4572 18.6567 37.5439 18.895 37.5439 19.233C37.5439 19.571 37.4572 19.8137 37.2839 19.961C37.1106 20.1083 36.8982 20.182 36.6469 20.182C36.4042 20.182 36.1962 20.1083 36.0229 19.961C35.8496 19.8137 35.7629 19.571 35.7629 19.233ZM35.7629 13.773C35.7629 13.4177 35.8496 13.1707 36.0229 13.032C36.1962 12.8933 36.4042 12.824 36.6469 12.824C36.8982 12.824 37.1106 12.8933 37.2839 13.032C37.4572 13.1707 37.5439 13.4177 37.5439 13.773C37.5439 14.1023 37.4572 14.3407 37.2839 14.488C37.1106 14.6353 36.8982 14.709 36.6469 14.709C36.4042 14.709 36.1962 14.6353 36.0229 14.488C35.8496 14.3407 35.7629 14.1023 35.7629 13.773ZM45.2716 20H39.0316V18.934L41.4236 16.503C41.8916 16.0263 42.2816 15.6147 42.5936 15.268C42.9056 14.9127 43.1396 14.5747 43.2956 14.254C43.4516 13.9247 43.5296 13.5693 43.5296 13.188C43.5296 12.7113 43.3909 12.356 43.1136 12.122C42.8363 11.8793 42.4766 11.758 42.0346 11.758C41.6099 11.758 41.2286 11.8403 40.8906 12.005C40.5526 12.161 40.2016 12.382 39.8376 12.668L39.0966 11.745C39.3479 11.5283 39.6166 11.3333 39.9026 11.16C40.1973 10.9867 40.5223 10.848 40.8776 10.744C41.2416 10.64 41.6403 10.588 42.0736 10.588C42.6629 10.588 43.1699 10.692 43.5946 10.9C44.0193 11.0993 44.3443 11.3853 44.5696 11.758C44.8036 12.1307 44.9206 12.5683 44.9206 13.071C44.9206 13.4437 44.8643 13.7947 44.7516 14.124C44.6389 14.4447 44.4743 14.761 44.2576 15.073C44.0496 15.385 43.7939 15.7013 43.4906 16.022C43.1873 16.3427 42.8536 16.6807 42.4896 17.036L40.7606 18.713V18.778H45.2716V20ZM52.711 20H46.471V18.934L48.863 16.503C49.331 16.0263 49.721 15.6147 50.033 15.268C50.345 14.9127 50.579 14.5747 50.735 14.254C50.891 13.9247 50.969 13.5693 50.969 13.188C50.969 12.7113 50.8304 12.356 50.553 12.122C50.2757 11.8793 49.916 11.758 49.474 11.758C49.0494 11.758 48.668 11.8403 48.33 12.005C47.992 12.161 47.641 12.382 47.277 12.668L46.536 11.745C46.7874 11.5283 47.056 11.3333 47.342 11.16C47.6367 10.9867 47.9617 10.848 48.317 10.744C48.681 10.64 49.0797 10.588 49.513 10.588C50.1024 10.588 50.6094 10.692 51.034 10.9C51.4587 11.0993 51.7837 11.3853 52.009 11.758C52.243 12.1307 52.36 12.5683 52.36 13.071C52.36 13.4437 52.3037 13.7947 52.191 14.124C52.0784 14.4447 51.9137 14.761 51.697 15.073C51.489 15.385 51.2334 15.7013 50.93 16.022C50.6267 16.3427 50.293 16.6807 49.929 17.036L48.2 18.713V18.778H52.711V20Z" fill="black"/>
<path d="M299.233 17.2332L297.833 15.7998C298.522 15.1109 299.311 14.5832 300.2 14.2165C301.089 13.8498 302.022 13.6665 303 13.6665C303.978 13.6665 304.914 13.8527 305.809 14.2252C306.703 14.5976 307.489 15.1336 308.167 15.8332L306.767 17.2332C306.267 16.7332 305.692 16.3472 305.041 16.0752C304.391 15.8032 303.711 15.6669 303 15.6665C302.289 15.6665 301.608 15.8027 300.959 16.0752C300.309 16.3476 299.734 16.7336 299.233 17.2332ZM296.4 14.3998L295 12.9998C296.056 11.9221 297.275 11.0969 298.659 10.5245C300.042 9.95206 301.489 9.66606 303 9.6665C304.511 9.6665 305.958 9.95273 307.342 10.5252C308.726 11.0976 309.945 11.9225 311 12.9998L309.6 14.3998C308.722 13.5221 307.714 12.8472 306.575 12.3752C305.436 11.9032 304.244 11.6669 303 11.6665C301.756 11.6665 300.564 11.9027 299.425 12.3752C298.286 12.8476 297.277 13.5225 296.4 14.3998ZM303 20.9998L300.65 18.6332C300.961 18.3221 301.32 18.0832 301.725 17.9165C302.131 17.7498 302.556 17.6665 303 17.6665C303.444 17.6665 303.87 17.7498 304.275 17.9165C304.681 18.0832 305.039 18.3221 305.35 18.6332L303 20.9998Z" fill="black"/>
<rect x="319.35" y="11.35" width="16.4905" height="7.44286" rx="1.65" stroke="black" stroke-width="0.7"/>
<rect x="320" y="12" width="12" height="6" rx="2" fill="black"/>
<rect x="336.44" y="13.0596" width="1.30952" height="4.02381" rx="0.25" fill="black" stroke="black" stroke-width="0.5"/>
<rect x="271" y="15" width="3" height="6" rx="0.5" fill="black"/>
<rect x="275" y="13" width="3" height="8" rx="0.5" fill="black"/>
<rect x="279" y="11" width="3" height="10" rx="0.5" fill="black"/>
<rect x="283" y="9" width="3" height="12" rx="0.5" fill="black"/>
<rect x="19" y="82" width="320" height="28" fill="black" fill-opacity="0.1"/>
<rect x="19" y="82" width="80" height="28" fill="black" fill-opacity="0.34"/>
<rect x="100" y="82" width="80" height="28" fill="white"/>
<rect x="181" y="82" width="80" height="28" fill="white"/>
<rect x="262" y="82" width="80" height="28" fill="white"/>
<path d="M49.26 101H48.228V95.012C48.228 94.78 48.228 94.584 48.228 94.424C48.236 94.264 48.244 94.116 48.252 93.98C48.26 93.836 48.268 93.688 48.276 93.536C48.148 93.664 48.032 93.772 47.928 93.86C47.824 93.948 47.692 94.06 47.532 94.196L46.62 94.94L46.068 94.232L48.384 92.432H49.26V101ZM56.8112 92.156H57.6752V92.612C57.6752 94.556 55.6112 95.984 53.4272 96.356L53.0432 95.564C54.9512 95.288 56.8112 94.04 56.8112 92.612V92.156ZM57.0632 92.156H57.9152V92.612C57.9152 94.04 59.7872 95.288 61.6832 95.564L61.3112 96.356C59.1152 95.984 57.0632 94.556 57.0632 92.612V92.156ZM56.8472 97.796H57.8312V101.936H56.8472V97.796ZM52.4672 97.268H62.2712V98.084H52.4672V97.268ZM53.3792 91.76H61.3232V92.564H53.3792V91.76ZM66.5423 91.484C68.1623 91.484 69.3503 92.468 69.3503 93.896C69.3503 95.312 68.1623 96.296 66.5423 96.296C64.9343 96.296 63.7463 95.312 63.7463 93.896C63.7463 92.468 64.9343 91.484 66.5423 91.484ZM66.5423 92.3C65.4983 92.3 64.7063 92.96 64.7063 93.896C64.7063 94.832 65.4983 95.48 66.5423 95.48C67.5983 95.48 68.3783 94.832 68.3783 93.896C68.3783 92.96 67.5983 92.3 66.5423 92.3ZM71.3903 91.088H72.3983V96.644H71.3903V91.088ZM65.3783 97.172H72.3983V99.812H66.3743V101.444H65.4023V99.068H71.4143V97.976H65.3783V97.172ZM65.4023 101H72.7583V101.792H65.4023V101Z" fill="white"/>
<path d="M132.24 101H126.576V100.124L128.82 97.856C129.252 97.424 129.616 97.04 129.912 96.704C130.208 96.368 130.432 96.04 130.584 95.72C130.736 95.392 130.812 95.036 130.812 94.652C130.812 94.18 130.672 93.824 130.392 93.584C130.112 93.336 129.748 93.212 129.3 93.212C128.884 93.212 128.516 93.284 128.196 93.428C127.884 93.572 127.564 93.772 127.236 94.028L126.672 93.32C126.896 93.128 127.14 92.956 127.404 92.804C127.676 92.652 127.968 92.532 128.28 92.444C128.6 92.356 128.94 92.312 129.3 92.312C129.836 92.312 130.296 92.404 130.68 92.588C131.064 92.772 131.36 93.036 131.568 93.38C131.784 93.716 131.892 94.12 131.892 94.592C131.892 94.928 131.84 95.248 131.736 95.552C131.632 95.848 131.484 96.14 131.292 96.428C131.1 96.716 130.868 97.008 130.596 97.304C130.324 97.6 130.024 97.908 129.696 98.228L127.908 99.992V100.04H132.24V101ZM137.811 92.156H138.675V92.612C138.675 94.556 136.611 95.984 134.427 96.356L134.043 95.564C135.951 95.288 137.811 94.04 137.811 92.612V92.156ZM138.063 92.156H138.915V92.612C138.915 94.04 140.787 95.288 142.683 95.564L142.311 96.356C140.115 95.984 138.063 94.556 138.063 92.612V92.156ZM137.847 97.796H138.831V101.936H137.847V97.796ZM133.467 97.268H143.271V98.084H133.467V97.268ZM134.379 91.76H142.323V92.564H134.379V91.76ZM147.542 91.484C149.162 91.484 150.35 92.468 150.35 93.896C150.35 95.312 149.162 96.296 147.542 96.296C145.934 96.296 144.746 95.312 144.746 93.896C144.746 92.468 145.934 91.484 147.542 91.484ZM147.542 92.3C146.498 92.3 145.706 92.96 145.706 93.896C145.706 94.832 146.498 95.48 147.542 95.48C148.598 95.48 149.378 94.832 149.378 93.896C149.378 92.96 148.598 92.3 147.542 92.3ZM152.39 91.088H153.398V96.644H152.39V91.088ZM146.378 97.172H153.398V99.812H147.374V101.444H146.402V99.068H152.414V97.976H146.378V97.172ZM146.402 101H153.758V101.792H146.402V101Z" fill="black" fill-opacity="0.34"/>
<path d="M212.916 94.436C212.916 94.82 212.844 95.152 212.7 95.432C212.556 95.712 212.348 95.94 212.076 96.116C211.812 96.292 211.5 96.416 211.14 96.488V96.536C211.828 96.616 212.34 96.832 212.676 97.184C213.012 97.536 213.18 97.996 213.18 98.564C213.18 99.06 213.064 99.504 212.832 99.896C212.6 100.28 212.24 100.58 211.752 100.796C211.272 101.012 210.652 101.12 209.892 101.12C209.444 101.12 209.028 101.084 208.644 101.012C208.26 100.948 207.892 100.828 207.54 100.652V99.668C207.9 99.844 208.288 99.984 208.704 100.088C209.12 100.184 209.52 100.232 209.904 100.232C210.672 100.232 211.224 100.084 211.56 99.788C211.904 99.484 212.076 99.068 212.076 98.54C212.076 98.18 211.98 97.892 211.788 97.676C211.604 97.452 211.332 97.288 210.972 97.184C210.612 97.08 210.18 97.028 209.676 97.028H208.848V96.128H209.688C210.16 96.128 210.552 96.06 210.864 95.924C211.184 95.788 211.424 95.6 211.584 95.36C211.752 95.112 211.836 94.828 211.836 94.508C211.836 94.092 211.696 93.772 211.416 93.548C211.136 93.316 210.756 93.2 210.276 93.2C209.972 93.2 209.696 93.232 209.448 93.296C209.2 93.352 208.968 93.436 208.752 93.548C208.544 93.652 208.332 93.776 208.116 93.92L207.588 93.2C207.796 93.04 208.032 92.892 208.296 92.756C208.568 92.62 208.868 92.512 209.196 92.432C209.524 92.352 209.88 92.312 210.264 92.312C211.16 92.312 211.824 92.512 212.256 92.912C212.696 93.312 212.916 93.82 212.916 94.436ZM218.811 92.156H219.675V92.612C219.675 94.556 217.611 95.984 215.427 96.356L215.043 95.564C216.951 95.288 218.811 94.04 218.811 92.612V92.156ZM219.063 92.156H219.915V92.612C219.915 94.04 221.787 95.288 223.683 95.564L223.311 96.356C221.115 95.984 219.063 94.556 219.063 92.612V92.156ZM218.847 97.796H219.831V101.936H218.847V97.796ZM214.467 97.268H224.271V98.084H214.467V97.268ZM215.379 91.76H223.323V92.564H215.379V91.76ZM228.542 91.484C230.162 91.484 231.35 92.468 231.35 93.896C231.35 95.312 230.162 96.296 228.542 96.296C226.934 96.296 225.746 95.312 225.746 93.896C225.746 92.468 226.934 91.484 228.542 91.484ZM228.542 92.3C227.498 92.3 226.706 92.96 226.706 93.896C226.706 94.832 227.498 95.48 228.542 95.48C229.598 95.48 230.378 94.832 230.378 93.896C230.378 92.96 229.598 92.3 228.542 92.3ZM233.39 91.088H234.398V96.644H233.39V91.088ZM227.378 97.172H234.398V99.812H228.374V101.444H227.402V99.068H233.414V97.976H227.378V97.172ZM227.402 101H234.758V101.792H227.402V101Z" fill="black" fill-opacity="0.34"/>
<path d="M294.624 99.056H293.376V101H292.356V99.056H288.252V98.156L292.284 92.384H293.376V98.108H294.624V99.056ZM292.356 95.408C292.356 95.2 292.356 95.012 292.356 94.844C292.364 94.668 292.372 94.504 292.38 94.352C292.388 94.2 292.392 94.056 292.392 93.92C292.4 93.776 292.408 93.64 292.416 93.512H292.368C292.304 93.664 292.224 93.828 292.128 94.004C292.032 94.18 291.94 94.328 291.852 94.448L289.284 98.108H292.356V95.408ZM299.811 92.156H300.675V92.612C300.675 94.556 298.611 95.984 296.427 96.356L296.043 95.564C297.951 95.288 299.811 94.04 299.811 92.612V92.156ZM300.063 92.156H300.915V92.612C300.915 94.04 302.787 95.288 304.683 95.564L304.311 96.356C302.115 95.984 300.063 94.556 300.063 92.612V92.156ZM299.847 97.796H300.831V101.936H299.847V97.796ZM295.467 97.268H305.271V98.084H295.467V97.268ZM296.379 91.76H304.323V92.564H296.379V91.76ZM309.542 91.484C311.162 91.484 312.35 92.468 312.35 93.896C312.35 95.312 311.162 96.296 309.542 96.296C307.934 96.296 306.746 95.312 306.746 93.896C306.746 92.468 307.934 91.484 309.542 91.484ZM309.542 92.3C308.498 92.3 307.706 92.96 307.706 93.896C307.706 94.832 308.498 95.48 309.542 95.48C310.598 95.48 311.378 94.832 311.378 93.896C311.378 92.96 310.598 92.3 309.542 92.3ZM314.39 91.088H315.398V96.644H314.39V91.088ZM308.378 97.172H315.398V99.812H309.374V101.444H308.402V99.068H314.414V97.976H308.378V97.172ZM308.402 101H315.758V101.792H308.402V101Z" fill="black" fill-opacity="0.34"/>
<path d="M33.5 304.24H36.18V322.82H33.5V304.24ZM26.2 305.54C29 305.54 31.06 308.1 31.06 312.14C31.06 316.22 29 318.78 26.2 318.78C23.4 318.78 21.34 316.22 21.34 312.14C21.34 308.1 23.4 305.54 26.2 305.54ZM26.2 307.96C24.82 307.96 23.88 309.42 23.88 312.14C23.88 314.9 24.82 316.38 26.2 316.38C27.58 316.38 28.5 314.9 28.5 312.14C28.5 309.42 27.58 307.96 26.2 307.96ZM47.9584 309.18H52.7184V311.3H47.9584V309.18ZM52.0384 304.28H54.6984V317.94H52.0384V304.28ZM42.4384 320.34H55.0984V322.46H42.4384V320.34ZM42.4384 316.6H45.1184V321.56H42.4384V316.6ZM39.9784 305.48H42.6184V308.3H46.1384V305.48H48.7384V315.04H39.9784V305.48ZM42.6184 310.32V312.94H46.1384V310.32H42.6184ZM64.4569 306.32H66.7569V306.86C66.7569 310.12 64.0969 312.78 59.3969 313.42L58.4169 311.34C62.4969 310.84 64.4569 308.76 64.4569 306.86V306.32ZM65.2169 306.32H67.5169V306.86C67.5169 308.76 69.4769 310.84 73.5569 311.34L72.5969 313.42C67.8769 312.78 65.2169 310.12 65.2169 306.86V306.32ZM64.5969 316H67.2369V322.8H64.5969V316ZM57.6169 314.48H74.3569V316.6H57.6169V314.48ZM59.0969 305.2H72.8369V307.3H59.0969V305.2ZM81.9553 305.48C84.8753 305.48 87.0553 307.38 87.0553 310.04C87.0553 312.72 84.8753 314.62 81.9553 314.62C79.0553 314.62 76.8353 312.72 76.8353 310.04C76.8353 307.38 79.0553 305.48 81.9553 305.48ZM81.9553 307.76C80.5353 307.76 79.4553 308.6 79.4553 310.04C79.4553 311.5 80.5353 312.34 81.9553 312.34C83.3753 312.34 84.4553 311.5 84.4553 310.04C84.4553 308.6 83.3753 307.76 81.9553 307.76ZM88.7953 304.24H91.4553V322.82H88.7953V304.24ZM76.3953 319.06L76.0753 316.92C79.3353 316.92 83.8753 316.88 87.7753 316.3L87.9753 318.22C83.9553 319.02 79.5953 319.06 76.3953 319.06ZM106.729 309.14H110.489V311.26H106.729V309.14ZM106.629 313.76H110.409V315.88H106.629V313.76ZM113.009 304.26H115.549V322.78H113.009V304.26ZM109.189 304.66H111.669V321.96H109.189V304.66ZM105.009 306.44H107.569C107.569 311.7 105.989 315.9 100.829 318.94L99.3291 317.08C103.509 314.54 105.009 311.46 105.009 306.98V306.44ZM100.389 306.44H105.909V308.56H100.389V306.44ZM118.608 305.62H129.488V307.52H118.608V305.62ZM124.048 307.96C126.808 307.96 128.648 309.06 128.648 310.74C128.648 312.44 126.808 313.52 124.048 313.52C121.288 313.52 119.448 312.44 119.448 310.74C119.448 309.06 121.288 307.96 124.048 307.96ZM124.048 309.72C122.808 309.72 121.988 310.06 121.988 310.74C121.988 311.4 122.808 311.76 124.048 311.76C125.308 311.76 126.108 311.4 126.108 310.74C126.108 310.06 125.308 309.72 124.048 309.72ZM122.708 304.14H125.388V306.58H122.708V304.14ZM122.708 312.54H125.388V315.12H122.708V312.54ZM130.748 304.28H133.428V316.82H130.748V304.28ZM120.628 317.54H133.428V322.78H130.748V319.58H120.628V317.54ZM118.408 316.46L118.088 314.44C121.428 314.44 125.868 314.42 129.648 313.94L129.848 315.72C125.928 316.4 121.668 316.46 118.408 316.46ZM149.086 304.24H151.766V322.82H149.086V304.24ZM141.786 305.54C144.586 305.54 146.646 308.1 146.646 312.14C146.646 316.22 144.586 318.78 141.786 318.78C138.986 318.78 136.926 316.22 136.926 312.14C136.926 308.1 138.986 305.54 141.786 305.54ZM141.786 307.96C140.406 307.96 139.466 309.42 139.466 312.14C139.466 314.9 140.406 316.38 141.786 316.38C143.166 316.38 144.086 314.9 144.086 312.14C144.086 309.42 143.166 307.96 141.786 307.96ZM162.184 311.08H165.224V313.22H162.184V311.08ZM168.164 304.26H170.704V322.78H168.164V304.26ZM164.384 304.54H166.884V321.94H164.384V304.54ZM158.944 305.56C161.404 305.56 162.984 308.1 162.984 312.28C162.984 316.48 161.404 319.02 158.944 319.02C156.504 319.02 154.944 316.48 154.944 312.28C154.944 308.1 156.504 305.56 158.944 305.56ZM158.944 308.06C157.944 308.06 157.364 309.46 157.364 312.28C157.364 315.12 157.944 316.5 158.944 316.5C159.984 316.5 160.564 315.12 160.564 312.28C160.564 309.46 159.984 308.06 158.944 308.06ZM176.883 313.66H179.523V318.86H176.883V313.66ZM183.603 313.66H186.263V318.86H183.603V313.66ZM173.203 318.48H189.963V320.64H173.203V318.48ZM181.563 305.16C185.543 305.16 188.483 307.12 188.483 310.14C188.483 313.16 185.543 315.1 181.563 315.1C177.563 315.1 174.643 313.16 174.643 310.14C174.643 307.12 177.563 305.16 181.563 305.16ZM181.563 307.24C178.983 307.24 177.263 308.3 177.263 310.14C177.263 311.96 178.983 313.04 181.563 313.04C184.143 313.04 185.863 311.96 185.863 310.14C185.863 308.3 184.143 307.24 181.563 307.24ZM194.841 316.26H192.461L191.961 306.72H195.341L194.841 316.26ZM191.921 319.6C191.921 318.987 192.088 318.56 192.421 318.32C192.755 318.067 193.161 317.94 193.641 317.94C194.108 317.94 194.508 318.067 194.841 318.32C195.175 318.56 195.341 318.987 195.341 319.6C195.341 320.187 195.175 320.613 194.841 320.88C194.508 321.133 194.108 321.26 193.641 321.26C193.161 321.26 192.755 321.133 192.421 320.88C192.088 320.613 191.921 320.187 191.921 319.6Z" fill="black" fill-opacity="0.87"/>
<path d="M24.06 626.04V636C26.38 635.94 28.88 635.74 31.46 635.24L31.72 637.4C28.66 638.04 25.7 638.2 23.02 638.2H21.42V626.04H24.06ZM37.86 631.24V633.42H35.28V642.68H32.64V624.28H35.28V631.24H37.86ZM42.2384 629.9C42.2384 631.34 43.2784 632.2 44.6784 632.2C46.0784 632.2 47.1384 631.34 47.1384 629.9C47.1384 628.46 46.0784 627.62 44.6784 627.62C43.2784 627.62 42.2384 628.46 42.2384 629.9ZM46.0184 634.28V636.8C47.4584 636.74 48.8584 636.62 50.1984 636.46L50.4184 638.36C46.5784 639.08 42.4784 639.08 39.3784 639.06L39.0584 636.92C40.3584 636.92 41.8584 636.92 43.3984 636.9V634.3C41.2184 633.84 39.6784 632.14 39.6784 629.9C39.6784 627.26 41.8384 625.36 44.6784 625.36C47.5384 625.36 49.6984 627.26 49.6984 629.9C49.6984 632.12 48.1784 633.8 46.0184 634.28ZM56.2184 631.52V633.7H53.7984V642.7H51.1584V624.28H53.7984V631.52H56.2184ZM63.6722 625.52H72.3922C72.3922 630.44 69.4322 633.22 63.8122 634.28L62.7922 632.18C67.2522 631.44 69.1922 629.64 69.4522 627.62H63.6722V625.52ZM67.9122 639.5V640.6H77.8122V642.5H65.2922V634.66H77.4322V636.58H67.9122V637.66H77.2322V639.5H67.9122ZM77.3522 628.06H79.7922V630.24H77.3522V633.92H74.7122V624.28H77.3522V628.06ZM89.5706 626.92C87.1106 626.92 85.6306 627.52 85.6306 628.64C85.6306 629.78 87.1106 630.34 89.5706 630.34C92.0506 630.34 93.5306 629.78 93.5306 628.64C93.5306 627.52 92.0506 626.92 89.5706 626.92ZM89.5706 632.44C85.5706 632.44 82.9106 630.98 82.9106 628.64C82.9106 626.3 85.5706 624.84 89.5706 624.84C93.5906 624.84 96.2506 626.3 96.2506 628.64C96.2506 630.98 93.5906 632.44 89.5706 632.44ZM85.9106 637.04V640.3H96.0306V642.4H83.2706V637.04H85.9106ZM81.2506 633.7H97.8906V635.8H81.2506V633.7ZM116.324 632.76L114.984 634.78C112.944 634.14 111.544 632.82 110.704 631.18C109.884 632.98 108.404 634.42 106.264 635.12L104.924 633.06C107.924 632.1 109.284 629.76 109.324 627.48H105.624V625.4H115.644V627.48H112.004C112.044 629.64 113.404 631.8 116.324 632.76ZM107.604 638.32V636.22H120.144V642.74H117.484V638.32H107.604ZM117.484 624.3H120.144V635.4H117.484V624.3ZM124.843 631.96L123.943 629.88C127.383 629.6 129.183 628.4 129.643 627.16H124.763V625.06H138.383V627.16H133.483C133.943 628.4 135.743 629.6 139.183 629.88L138.263 631.96C134.803 631.62 132.523 630.34 131.563 628.58C130.583 630.34 128.323 631.62 124.843 631.96ZM131.523 640.76C134.003 640.76 135.243 640.38 135.243 639.48C135.243 638.6 134.003 638.2 131.523 638.2C129.043 638.2 127.803 638.6 127.803 639.48C127.803 640.38 129.043 640.76 131.523 640.76ZM131.523 636.22C135.523 636.22 137.923 637.4 137.923 639.48C137.923 641.56 135.523 642.72 131.523 642.72C127.523 642.72 125.143 641.56 125.143 639.48C125.143 637.4 127.523 636.22 131.523 636.22ZM132.863 633.12H139.883V635.22H123.243V633.12H130.223V630.92H132.863V633.12ZM149.961 626.92C147.501 626.92 146.021 627.52 146.021 628.64C146.021 629.78 147.501 630.34 149.961 630.34C152.441 630.34 153.921 629.78 153.921 628.64C153.921 627.52 152.441 626.92 149.961 626.92ZM149.961 632.44C145.961 632.44 143.301 630.98 143.301 628.64C143.301 626.3 145.961 624.84 149.961 624.84C153.981 624.84 156.641 626.3 156.641 628.64C156.641 630.98 153.981 632.44 149.961 632.44ZM146.301 637.04V640.3H156.421V642.4H143.661V637.04H146.301ZM141.641 633.7H158.281V635.8H141.641V633.7ZM177.855 624.28H180.495V642.76H177.855V624.28ZM170.595 625.58C173.375 625.58 175.435 628.1 175.435 632.14C175.435 636.2 173.375 638.74 170.595 638.74C167.815 638.74 165.755 636.2 165.755 632.14C165.755 628.1 167.815 625.58 170.595 625.58ZM170.595 627.96C169.235 627.96 168.295 629.42 168.295 632.14C168.295 634.88 169.235 636.34 170.595 636.34C171.955 636.34 172.895 634.88 172.895 632.14C172.895 629.42 171.955 627.96 170.595 627.96ZM196.393 634.24V629.54H193.533V627.46H196.393V624.3H199.033V634.24H196.393ZM193.853 630.9L194.073 632.9C191.573 633.32 189.353 633.38 185.833 633.38H184.333V628.24H190.013V627.04H184.313V625.04H192.613V630.1H186.953V631.38C189.773 631.36 191.653 631.28 193.853 630.9ZM192.853 640.94C194.733 640.94 195.553 640.72 195.553 640.18C195.553 639.62 194.733 639.4 192.853 639.4C190.953 639.4 190.133 639.62 190.133 640.18C190.133 640.72 190.953 640.94 192.853 640.94ZM192.853 637.6C196.213 637.6 198.113 638.48 198.113 640.18C198.113 641.86 196.213 642.74 192.853 642.74C189.473 642.74 187.593 641.86 187.593 640.18C187.593 638.48 189.473 637.6 192.853 637.6ZM194.173 635.12H199.313V637.08H186.353V635.12H191.513V633.76H194.173V635.12ZM211.492 631.34V624.7H213.952V641.9H211.492V633.46H208.612C207.572 635.56 205.892 637.38 203.292 638.9L201.792 637.04C205.472 634.84 207.092 632.18 207.412 628.58H202.812V626.48H210.032C210.032 628.22 209.872 629.84 209.432 631.34H211.492ZM215.372 624.28H217.872V642.7H215.372V624.28ZM30.7 659.2L28.12 658.9C28.42 657.18 28.5 655.84 28.52 654.74H21.66V652.64H31.12V653.78C31.12 655.06 31.12 656.88 30.7 659.2ZM31.92 659.94L32.08 661.82C28.28 662.52 24 662.6 20.84 662.62L20.6 660.52C21.62 660.52 22.76 660.52 23.96 660.5V656.92H26.54V660.4C28.36 660.32 30.2 660.18 31.92 659.94ZM25.92 663.86V667.3H36.14V669.4H23.28V663.86H25.92ZM35.56 656.9H37.76V659.08H35.56V665.08H32.92V651.28H35.56V656.9ZM42.9384 659.98V663.3C45.7384 663.28 48.0584 663.14 50.6584 662.7L50.9384 664.84C47.9384 665.36 45.2384 665.48 41.8984 665.48H40.2384V657.9H46.2184V654.96H40.2184V652.86H48.9184V659.98H42.9384ZM51.9384 651.28H54.5784V669.76H51.9384V651.28ZM62.0769 663.56C63.0769 663.56 63.7969 662.76 63.7969 661.38C63.7969 660 63.0769 659.18 62.0769 659.18C61.0769 659.18 60.3569 660 60.3569 661.38C60.3569 662.76 61.0769 663.56 62.0769 663.56ZM62.0769 656.98C64.4369 656.98 66.1169 658.8 66.1169 661.38C66.1169 663.94 64.4369 665.76 62.0769 665.76C59.7169 665.76 58.0369 663.94 58.0369 661.38C58.0369 658.8 59.7169 656.98 62.0769 656.98ZM63.3769 651.8V654.08H66.4369V656.18H57.6369V654.08H60.7769V651.8H63.3769ZM70.9569 651.28H73.4569V669.7H70.9569V660.92H69.5569V668.94H67.0969V651.64H69.5569V658.8H70.9569V651.28ZM82.3553 661.92V665.44H86.4153V661.92C85.7753 662.04 85.0953 662.1 84.3753 662.1C83.6553 662.1 82.9953 662.04 82.3553 661.92ZM84.3753 654.28C81.8153 654.28 80.1153 655.32 80.1153 657.16C80.1153 658.98 81.8153 660.04 84.3753 660.04C86.9353 660.04 88.6553 658.98 88.6553 657.16C88.6553 655.32 86.9353 654.28 84.3753 654.28ZM89.0353 665.44H92.7353V667.58H76.0553V665.44H79.7353V660.94C78.3353 660.08 77.4953 658.76 77.5153 657.16C77.5153 654.14 80.4153 652.2 84.3753 652.2C88.3553 652.2 91.2553 654.14 91.2553 657.16C91.2553 658.76 90.4153 660.08 89.0353 660.94V665.44ZM97.6538 663.26H95.2738L94.7738 653.72H98.1538L97.6538 663.26ZM94.7338 666.6C94.7338 665.987 94.9004 665.56 95.2338 665.32C95.5671 665.067 95.9738 664.94 96.4538 664.94C96.9204 664.94 97.3204 665.067 97.6538 665.32C97.9871 665.56 98.1538 665.987 98.1538 666.6C98.1538 667.187 97.9871 667.613 97.6538 667.88C97.3204 668.133 96.9204 668.26 96.4538 668.26C95.9738 668.26 95.5671 668.133 95.2338 667.88C94.9004 667.613 94.7338 667.187 94.7338 666.6Z" fill="black" fill-opacity="0.87"/>
<rect x="20" y="689" width="105" height="135" rx="10" fill="white"/>
<rect x="20.5" y="689.5" width="104" height="134" rx="9.5" stroke="black" stroke-opacity="0.1"/>
<path d="M33.2308 785.564C32.3788 785.564 31.7668 786.068 31.7668 786.8C31.7668 787.52 32.3788 788.036 33.2308 788.036C34.0828 788.036 34.6828 787.52 34.6828 786.8C34.6828 786.068 34.0828 785.564 33.2308 785.564ZM33.2308 788.78C31.8748 788.78 30.8908 787.964 30.8908 786.8C30.8908 785.624 31.8748 784.82 33.2308 784.82C34.5748 784.82 35.5708 785.624 35.5708 786.8C35.5708 787.964 34.5748 788.78 33.2308 788.78ZM35.9788 789.332L36.0508 790.052C35.2948 790.208 34.4668 790.292 33.6508 790.34V794.024H32.7148V790.4C31.8988 790.436 31.1188 790.436 30.4948 790.436L30.3748 789.608C31.8508 789.608 34.2388 789.596 35.9788 789.332ZM36.6628 791.192V784.388H37.5868V794.336H36.6628V791.96H34.6468V791.192H36.6628ZM38.6908 784.136H39.6388V794.888H38.6908V784.136ZM49.3819 784.124H50.3659V794.912H49.3819V784.124ZM44.6899 784.952C46.2859 784.952 47.4259 786.416 47.4259 788.708C47.4259 791 46.2859 792.464 44.6899 792.464C43.0939 792.464 41.9539 791 41.9539 788.708C41.9539 786.416 43.0939 784.952 44.6899 784.952ZM44.6899 785.84C43.6339 785.84 42.8899 786.968 42.8899 788.708C42.8899 790.46 43.6339 791.588 44.6899 791.588C45.7339 791.588 46.4779 790.46 46.4779 788.708C46.4779 786.968 45.7339 785.84 44.6899 785.84ZM61.2249 789.284V790.088H53.8329V785.108H61.1169V785.924H54.8049V789.284H61.2249ZM52.5849 792.62H62.3529V793.436H52.5849V792.62ZM66.348 785.564C65.496 785.564 64.884 786.068 64.884 786.8C64.884 787.52 65.496 788.036 66.348 788.036C67.2 788.036 67.8 787.52 67.8 786.8C67.8 786.068 67.2 785.564 66.348 785.564ZM66.348 788.78C64.992 788.78 64.008 787.964 64.008 786.8C64.008 785.624 64.992 784.82 66.348 784.82C67.692 784.82 68.688 785.624 68.688 786.8C68.688 787.964 67.692 788.78 66.348 788.78ZM69.096 789.332L69.168 790.052C68.412 790.208 67.584 790.292 66.768 790.34V794.024H65.832V790.4C65.016 790.436 64.236 790.436 63.612 790.436L63.492 789.608C64.968 789.608 67.356 789.596 69.096 789.332ZM69.78 791.192V784.388H70.704V794.336H69.78V791.96H67.764V791.192H69.78ZM71.808 784.136H72.756V794.888H71.808V784.136ZM82.4991 784.124H83.4831V794.912H82.4991V784.124ZM77.8071 784.952C79.4031 784.952 80.5431 786.416 80.5431 788.708C80.5431 791 79.4031 792.464 77.8071 792.464C76.2111 792.464 75.0711 791 75.0711 788.708C75.0711 786.416 76.2111 784.952 77.8071 784.952ZM77.8071 785.84C76.7511 785.84 76.0071 786.968 76.0071 788.708C76.0071 790.46 76.7511 791.588 77.8071 791.588C78.8511 791.588 79.5951 790.46 79.5951 788.708C79.5951 786.968 78.8511 785.84 77.8071 785.84ZM94.3421 789.284V790.088H86.9501V785.108H94.2341V785.924H87.9221V789.284H94.3421ZM85.7021 792.62H95.4701V793.436H85.7021V792.62Z" fill="black" fill-opacity="0.34"/>
<circle cx="74" cy="740" r="36" fill="#C4C4C4"/>
<rect x="140" y="689" width="105" height="135" rx="10" fill="white"/>
<rect x="140.5" y="689.5" width="104" height="134" rx="9.5" stroke="black" stroke-opacity="0.1"/>
<path d="M153.418 791.588C154.438 791.588 155.158 790.46 155.158 788.708C155.158 786.968 154.438 785.84 153.418 785.84C152.386 785.84 151.666 786.968 151.666 788.708C151.666 790.46 152.386 791.588 153.418 791.588ZM158.422 784.124H159.406V794.912H158.422V789.032H156.082C155.986 791.144 154.918 792.464 153.418 792.464C151.846 792.464 150.73 791 150.73 788.708C150.73 786.416 151.846 784.952 153.418 784.952C154.87 784.952 155.926 786.212 156.082 788.228H158.422V784.124ZM169.401 784.124H170.385V794.912H169.401V784.124ZM164.709 784.952C166.305 784.952 167.445 786.416 167.445 788.708C167.445 791 166.305 792.464 164.709 792.464C163.113 792.464 161.973 791 161.973 788.708C161.973 786.416 163.113 784.952 164.709 784.952ZM164.709 785.84C163.653 785.84 162.909 786.968 162.909 788.708C162.909 790.46 163.653 791.588 164.709 791.588C165.753 791.588 166.497 790.46 166.497 788.708C166.497 786.968 165.753 785.84 164.709 785.84ZM173.084 785.288H177.992C177.992 788.348 176.72 791.072 173.144 792.836L172.604 792.068C175.496 790.652 176.828 788.6 177.008 786.08H173.084V785.288ZM180.488 784.136H181.472V794.888H180.488V789.248H177.968V788.444H180.488V784.136ZM184.292 785.288H189.332C189.332 788.396 187.904 791.132 184.328 792.884L183.8 792.08C186.692 790.7 188.132 788.636 188.336 786.08H184.292V785.288ZM191.504 784.124H192.488V794.888H191.504V784.124ZM196.267 785.324V791.48C197.863 791.468 199.327 791.36 200.911 791.036L201.043 791.876C199.339 792.2 197.827 792.308 196.123 792.308H195.283V785.324H196.267ZM202.579 784.124H203.563V794.912H202.579V788.492H199.279V787.676H202.579V784.124Z" fill="black" fill-opacity="0.34"/>
<circle cx="194" cy="740" r="36" fill="#C4C4C4"/>
<rect x="260" y="689" width="105" height="135" rx="10" fill="white"/>
<rect x="260.5" y="689.5" width="104" height="134" rx="9.5" stroke="black" stroke-opacity="0.1"/>
<path d="M278.294 786.08V791.372C278.87 791.36 279.47 791.336 280.058 791.312V786.08H278.294ZM281.018 786.08V791.252C281.582 791.216 282.134 791.168 282.662 791.096L282.734 791.828C280.478 792.188 277.922 792.224 276.026 792.224L275.906 791.396C276.35 791.396 276.83 791.396 277.334 791.384V786.08H276.182V785.288H282.17V786.08H281.018ZM286.094 788.432V789.248H284.318V794.888H283.334V784.136H284.318V788.432H286.094ZM290.545 785.42C289.501 785.42 288.769 785.972 288.769 786.776C288.769 787.604 289.501 788.144 290.545 788.144C291.589 788.144 292.321 787.604 292.321 786.776C292.321 785.972 291.589 785.42 290.545 785.42ZM290.545 788.9C288.949 788.9 287.845 788.048 287.845 786.776C287.845 785.516 288.949 784.664 290.545 784.664C292.141 784.664 293.245 785.516 293.245 786.776C293.245 788.048 292.141 788.9 290.545 788.9ZM294.121 789.44L294.181 790.172C293.125 790.352 292.045 790.46 290.989 790.52V794.564H290.005V790.568C288.985 790.604 288.013 790.616 287.161 790.616L287.041 789.788C289.069 789.788 291.781 789.776 294.121 789.44ZM294.937 784.136H295.921V794.9H294.937V792.248H292.501V791.48H294.937V784.136ZM305.988 792.176V787.472H303.636V786.656H305.988V784.136H306.984V792.176H305.988ZM304.404 789.632L303.888 790.388C302.7 789.92 301.776 788.996 301.32 787.832C300.864 789.116 299.904 790.136 298.644 790.64L298.128 789.86C299.736 789.272 300.816 787.748 300.816 786.104V784.772H301.8V786.14C301.8 787.64 302.856 789.056 304.404 789.632ZM301.044 793.844H307.236V794.648H300.06V791.288H301.044V793.844ZM315.924 788.156V791.876H314.988V784.328H315.924V787.352H317.292V784.136H318.24V792.248H317.292V788.156H315.924ZM314.532 789.584L313.992 790.328C312.996 789.896 312.276 789.092 311.892 788.132C311.508 789.2 310.764 790.148 309.732 790.652L309.18 789.908C310.584 789.224 311.412 787.736 311.412 786.428V784.88H312.36V786.428C312.36 787.7 313.152 788.984 314.532 789.584ZM312.204 793.844H318.552V794.648H311.22V791.228H312.204V793.844ZM326.867 788.096L326.999 788.912C325.211 789.272 323.591 789.404 321.731 789.404H320.855V784.748H321.839V788.576C323.603 788.576 325.175 788.444 326.867 788.096ZM323.015 791.516V793.94H328.055V791.516H323.015ZM322.055 794.732V790.736H329.015V794.732H322.055ZM328.031 784.112H329.015V790.22H328.031V784.112Z" fill="black" fill-opacity="0.34"/>
<circle cx="314" cy="740" r="36" fill="#C4C4C4"/>
<path d="M178.103 589.778L184.81 583.08C184.875 583.014 184.953 582.963 185.038 582.928C185.124 582.893 185.215 582.875 185.308 582.876C185.4 582.878 185.491 582.897 185.576 582.934C185.66 582.971 185.736 583.025 185.8 583.092C185.93 583.229 186.002 583.411 185.999 583.6C185.997 583.789 185.921 583.97 185.788 584.104L178.585 591.297C178.52 591.362 178.443 591.413 178.359 591.448C178.274 591.483 178.183 591.501 178.091 591.501C178 591.5 177.909 591.481 177.825 591.445C177.74 591.409 177.664 591.357 177.6 591.291L170.205 583.72C170.074 583.584 170.001 583.403 170.001 583.215C170.001 583.026 170.074 582.845 170.205 582.71C170.269 582.644 170.346 582.591 170.431 582.555C170.516 582.519 170.608 582.5 170.7 582.5C170.792 582.5 170.884 582.519 170.969 582.555C171.054 582.591 171.131 582.644 171.195 582.71L178.103 589.778Z" fill="black" fill-opacity="0.87"/>
<g filter="url(#filter0_d_988_6730)">
<circle cx="315" cy="807" r="25" fill="#A8A8A8"/>
<path fill-rule="evenodd" clip-rule="evenodd" d="M324.486 796.687C323.83 796.031 322.94 795.662 322.012 795.662C321.084 795.662 320.194 796.031 319.537 796.687L318.712 797.513L324.487 803.288L325.311 802.463C325.636 802.138 325.894 801.752 326.07 801.327C326.246 800.903 326.336 800.448 326.336 799.988C326.336 799.528 326.246 799.073 326.07 798.648C325.894 798.224 325.636 797.838 325.311 797.513L324.486 796.687ZM322.837 804.938L317.062 799.163L306.456 809.769C306.224 810.001 306.062 810.294 305.989 810.613L304.788 815.811C304.743 816.004 304.749 816.205 304.803 816.395C304.858 816.586 304.96 816.759 305.1 816.899C305.24 817.039 305.413 817.141 305.604 817.196C305.794 817.25 305.995 817.256 306.188 817.211L311.387 816.012C311.706 815.938 311.999 815.776 312.23 815.544L322.837 804.938Z" fill="white"/>
</g>
<rect x="20" y="422" width="320" height="70" rx="10" fill="white"/>
<rect x="20.35" y="422.35" width="319.3" height="69.3" rx="9.65" stroke="black" stroke-opacity="0.25" stroke-width="0.7"/>
<path d="M96.622 457.162L96.734 458.086C95.292 458.38 94.102 458.436 92.086 458.436H91.288V452.402H96.132V453.326H92.394V454.908H95.992V455.79H92.394V457.498C94.186 457.498 95.306 457.428 96.622 457.162ZM92.898 460.676V459.752H101.34V464.036H100.192V460.676H92.898ZM100.234 451.492H101.34V459.094H100.234V455.692H98.554V459.01H97.462V451.716H98.554V454.754H100.234V451.492ZM108.073 452.57V454.824C108.073 457.12 109.571 459.43 111.433 460.27L110.747 461.194C109.319 460.494 108.115 459.01 107.513 457.218C106.939 459.108 105.735 460.676 104.265 461.432L103.565 460.494C105.413 459.612 106.939 457.204 106.939 454.824V452.57H108.073ZM112.749 451.478H113.897V464.064H112.749V451.478ZM121.719 453.942V459.99C123.399 459.976 124.589 459.906 125.961 459.612L126.059 460.564C124.561 460.886 123.287 460.942 121.411 460.942H120.585V453.004H125.261V453.942H121.719ZM129.699 451.478H130.805V464.036H129.699V457.456H127.921V463.406H126.843V451.758H127.921V456.518H129.699V451.478ZM143.319 451.478V460.69H142.171V451.478H143.319ZM140.575 457.736L139.973 458.646C138.545 458.1 137.439 456.966 136.879 455.538C136.347 457.064 135.213 458.282 133.743 458.898L133.141 457.96C135.031 457.232 136.291 455.412 136.291 453.452V452.178H137.439V453.452C137.439 455.342 138.713 457.05 140.575 457.736ZM136.389 462.818H143.697V463.756H135.241V459.836H136.389V462.818ZM158.715 457.918V455.426H155.985V454.502H158.715V451.478H159.877V457.918H158.715ZM150.385 452.094H155.901C155.901 455.216 153.731 457.274 150.133 458.17L149.713 457.26C152.709 456.532 154.473 455.02 154.669 453.018H150.385V452.094ZM152.947 463H160.297V463.91H151.813V460.676H158.729V459.374H151.785V458.464H159.877V461.544H152.947V463ZM165.77 460.186C166.96 460.186 167.8 458.87 167.8 456.826C167.8 454.796 166.96 453.48 165.77 453.48C164.566 453.48 163.726 454.796 163.726 456.826C163.726 458.87 164.566 460.186 165.77 460.186ZM171.608 451.478H172.756V464.064H171.608V457.204H168.878C168.766 459.668 167.52 461.208 165.77 461.208C163.936 461.208 162.634 459.5 162.634 456.826C162.634 454.152 163.936 452.444 165.77 452.444C167.464 452.444 168.696 453.914 168.878 456.266H171.608V451.478ZM176.969 453.634V459.948C179.195 459.948 180.805 459.85 182.625 459.528L182.751 460.48C180.833 460.844 179.181 460.928 176.815 460.928H175.821V452.682H181.659V453.634H176.969ZM187.021 456.434V457.386H184.949V464.064H183.801V451.478H184.949V456.434H187.021ZM190.1 452.696V459.808C191.99 459.808 193.936 459.64 196.022 459.22L196.148 460.2C193.964 460.648 191.99 460.788 189.988 460.788H188.952V452.696H190.1ZM197.31 451.478H198.458V464.022H197.31V451.478ZM201.789 452.836H207.669C207.669 456.462 206.003 459.654 201.831 461.698L201.215 460.76C204.589 459.15 206.269 456.742 206.507 453.76H201.789V452.836ZM210.203 451.478H211.351V464.036H210.203V451.478Z" fill="black" fill-opacity="0.87"/>
<rect x="35" y="437" width="40" height="40" rx="20" fill="black" fill-opacity="0.25"/>
<path d="M308.208 463H306.738V456.364C306.738 456.131 306.738 455.916 306.738 455.72C306.747 455.515 306.757 455.319 306.766 455.132C306.775 454.936 306.785 454.749 306.794 454.572C306.673 454.693 306.547 454.81 306.416 454.922C306.285 455.034 306.136 455.165 305.968 455.314L304.876 456.196L304.12 455.244L306.976 453.004H308.208V463ZM316.276 453.004L312.552 463H311.138L314.862 453.004H316.276ZM318.191 463L322.181 454.32H316.931V453.004H323.777V454.068L319.801 463H318.191Z" fill="black" fill-opacity="0.87"/>
<rect x="20" y="502" width="320" height="70" rx="10" fill="white"/>
<rect x="20.35" y="502.35" width="319.3" height="69.3" rx="9.65" stroke="black" stroke-opacity="0.25" stroke-width="0.7"/>
<path d="M99.926 540.816V537.204H97.826V536.266H99.926V534.796H97.826V533.872H99.926V531.492H101.088V540.816H99.926ZM93.472 533.424V537.946C94.088 537.932 94.732 537.904 95.362 537.876V533.424H93.472ZM98.12 537.652L98.19 538.506C95.782 538.884 92.94 538.926 90.91 538.926L90.784 537.974C91.26 537.974 91.806 537.974 92.366 537.96V533.424H91.12V532.5H97.728V533.424H96.482V537.806C97.042 537.764 97.602 537.708 98.12 537.652ZM94.186 542.818H101.41V543.756H93.038V540.06H94.186V542.818ZM107.695 532.402C109.655 532.402 111.055 533.592 111.055 535.356C111.055 537.106 109.655 538.31 107.695 538.31C105.749 538.31 104.335 537.106 104.335 535.356C104.335 533.592 105.749 532.402 107.695 532.402ZM107.695 533.382C106.407 533.382 105.455 534.18 105.455 535.356C105.455 536.518 106.407 537.33 107.695 537.33C108.997 537.33 109.935 536.518 109.935 535.356C109.935 534.18 108.997 533.382 107.695 533.382ZM112.707 531.478H113.855V544.064H112.707V531.478ZM103.845 541.306L103.705 540.34C105.987 540.34 109.137 540.326 111.881 539.906L111.979 540.76C109.151 541.278 106.113 541.306 103.845 541.306ZM123.906 537.526L123.332 538.422C121.932 537.918 120.854 536.868 120.308 535.58C119.762 537.022 118.614 538.17 117.144 538.702L116.542 537.806C118.404 537.134 119.706 535.468 119.706 533.69V533.214H116.906V532.276H123.612V533.214H120.854V533.676C120.854 535.314 122.086 536.882 123.906 537.526ZM119.804 540.354V542.944H125.726V540.354H119.804ZM118.684 543.868V539.444H126.846V543.868H118.684ZM125.684 531.478H126.846V538.828H125.684V535.58H123.206V534.628H125.684V531.478ZM133.701 532.78H139.343C139.343 536.42 138.069 539.738 133.659 541.978L133.015 541.068C135.297 539.948 136.683 538.506 137.453 536.84L133.267 537.232L133.057 536.238L137.803 535.93C138.041 535.23 138.153 534.488 138.209 533.718H133.701V532.78ZM142.199 531.492H143.347V544.036H142.199V537.456H139.301V536.518H142.199V531.492ZM148.708 533.76V539.934C149.394 539.92 150.094 539.892 150.808 539.864V533.76H148.708ZM151.928 533.76V539.794C152.614 539.766 153.3 539.696 153.958 539.612L154.028 540.452C151.326 540.886 148.302 540.914 146.02 540.928L145.894 539.962C146.426 539.962 147 539.962 147.602 539.948V533.76H146.202V532.836H153.314V533.76H151.928ZM155.05 531.492H156.198V544.036H155.05V531.492ZM164.034 533.662V539.92H167.548V533.662H164.034ZM162.914 540.844V532.738H168.668V540.844H162.914ZM174.142 536.49V537.456H172.07V544.036H170.922V531.492H172.07V536.49H174.142ZM179.741 532.57V534.824C179.741 537.12 181.239 539.43 183.101 540.27L182.415 541.194C180.987 540.494 179.783 539.01 179.181 537.218C178.607 539.108 177.403 540.676 175.933 541.432L175.233 540.494C177.081 539.612 178.607 537.204 178.607 534.824V532.57H179.741ZM184.417 531.478H185.565V544.064H184.417V531.478ZM188.91 532.836H194.79C194.79 536.462 193.124 539.654 188.952 541.698L188.336 540.76C191.71 539.15 193.39 536.742 193.628 533.76H188.91V532.836ZM197.324 531.478H198.472V544.036H197.324V531.478Z" fill="black" fill-opacity="0.87"/>
<rect x="35" y="517" width="40" height="40" rx="20" fill="black" fill-opacity="0.25"/>
<path d="M309.972 535.314C309.972 535.762 309.883 536.154 309.706 536.49C309.538 536.817 309.295 537.083 308.978 537.288C308.661 537.493 308.297 537.643 307.886 537.736V537.792C308.689 537.885 309.286 538.137 309.678 538.548C310.079 538.949 310.28 539.481 310.28 540.144C310.28 540.723 310.14 541.241 309.86 541.698C309.589 542.146 309.165 542.501 308.586 542.762C308.017 543.014 307.284 543.14 306.388 543.14C305.856 543.14 305.361 543.098 304.904 543.014C304.447 542.93 304.013 542.79 303.602 542.594V541.25C304.022 541.465 304.47 541.628 304.946 541.74C305.431 541.852 305.893 541.908 306.332 541.908C307.181 541.908 307.793 541.749 308.166 541.432C308.539 541.105 308.726 540.653 308.726 540.074C308.726 539.701 308.628 539.397 308.432 539.164C308.236 538.921 307.937 538.744 307.536 538.632C307.135 538.511 306.635 538.45 306.038 538.45H305.128V537.232H306.052C306.621 537.232 307.083 537.162 307.438 537.022C307.793 536.873 308.054 536.667 308.222 536.406C308.39 536.145 308.474 535.846 308.474 535.51C308.474 535.062 308.325 534.717 308.026 534.474C307.737 534.222 307.317 534.096 306.766 534.096C306.43 534.096 306.117 534.133 305.828 534.208C305.548 534.283 305.291 534.381 305.058 534.502C304.825 534.623 304.596 534.759 304.372 534.908L303.644 533.886C303.896 533.699 304.176 533.527 304.484 533.368C304.801 533.209 305.151 533.088 305.534 533.004C305.926 532.911 306.351 532.864 306.808 532.864C307.844 532.864 308.628 533.093 309.16 533.55C309.701 533.998 309.972 534.586 309.972 535.314ZM316.276 533.004L312.552 543H311.138L314.862 533.004H316.276ZM318.191 543L322.181 534.32H316.931V533.004H323.777V534.068L319.801 543H318.191Z" fill="black" fill-opacity="0.87"/>
<g filter="url(#filter1_d_988_6730)">
<rect x="20" y="130" width="320" height="150" rx="10" fill="white"/>
</g>
<path d="M272 184C272 180.134 275.134 177 279 177H312C315.866 177 319 180.134 319 184V256H272V184Z" fill="black" fill-opacity="0.25"/>
<path d="M40 236C40 232.134 43.134 229 47 229H80C83.866 229 87 232.134 87 236V256H40V236Z" fill="black" fill-opacity="0.25"/>
<path d="M98 226C98 222.134 101.134 219 105 219H138C141.866 219 145 222.134 145 226V256H98V226Z" fill="black" fill-opacity="0.25"/>
<path fill-rule="evenodd" clip-rule="evenodd" d="M163 207C159.134 207 156 210.134 156 214V231.5V256H203V231.5V214C203 210.134 199.866 207 196 207H163Z" fill="black" fill-opacity="0.25"/>
<path fill-rule="evenodd" clip-rule="evenodd" d="M221 193C217.134 193 214 196.134 214 200V214V235V256H261V235V214V200C261 196.134 257.866 193 254 193H221Z" fill="black" fill-opacity="0.25"/>
<path d="M61.3808 263.74H62.2108V272.78H61.3808V263.74ZM58.7308 264.71H59.5508C59.5508 267.33 58.3708 269.62 55.3508 271.1L54.9108 270.43C57.5208 269.17 58.7308 267.25 58.7308 264.85V264.71ZM55.3208 264.71H59.0908V265.39H55.3208V264.71ZM64.38 269.92H65.09C66.76 269.92 67.91 269.88 69.27 269.64L69.36 270.32C67.96 270.56 66.78 270.61 65.09 270.61H64.38V269.92ZM64.38 264.56H68.59V265.25H65.21V270.16H64.38V264.56ZM65 267.09H68.39V267.76H65V267.09ZM70.11 263.74H70.95V272.78H70.11V263.74ZM70.75 267.37H72.43V268.07H70.75V267.37Z" fill="black" fill-opacity="0.87"/>
<path d="M104.442 264.64H110.262V265.33H104.442V264.64ZM103.602 270.83H111.772V271.52H103.602V270.83ZM105.602 267.84H106.422V271.08H105.602V267.84ZM109.992 264.64H110.812V265.64C110.812 266.79 110.812 267.97 110.502 269.66L109.672 269.56C109.992 267.96 109.992 266.76 109.992 265.64V264.64ZM107.832 267.84H108.652V271.08H107.832V267.84ZM112.791 268.53H120.961V269.2H112.791V268.53ZM116.461 267.36H117.281V268.81H116.461V267.36ZM113.871 266.99H120.001V267.64H113.871V266.99ZM113.871 264H119.961V264.65H114.691V267.34H113.871V264ZM114.451 265.48H119.721V266.12H114.451V265.48ZM116.871 269.87C118.841 269.87 119.971 270.37 119.971 271.32C119.971 272.26 118.841 272.76 116.871 272.76C114.901 272.76 113.771 272.26 113.771 271.32C113.771 270.37 114.901 269.87 116.871 269.87ZM116.871 270.5C115.421 270.5 114.611 270.79 114.611 271.32C114.611 271.86 115.421 272.14 116.871 272.14C118.321 272.14 119.131 271.86 119.131 271.32C119.131 270.79 118.321 270.5 116.871 270.5ZM125.65 264.06H126.38V264.56C126.38 266.29 124.62 267.53 122.74 267.85L122.41 267.18C124.06 266.93 125.65 265.85 125.65 264.56V264.06ZM125.8 264.06H126.52V264.56C126.52 265.82 128.13 266.93 129.76 267.18L129.43 267.85C127.57 267.53 125.8 266.27 125.8 264.56V264.06ZM125.65 269.34H126.47V272.78H125.65V269.34ZM122 268.83H130.17V269.52H122V268.83ZM137.379 263.73H138.209V270.28H137.379V263.73ZM137.959 266.42H139.549V267.11H137.959V266.42ZM131.609 268H132.309C134.169 268 135.219 267.95 136.429 267.7L136.519 268.37C135.279 268.63 134.209 268.69 132.309 268.69H131.609V268ZM131.609 264.51H135.599V265.2H132.429V268.37H131.609V264.51ZM132.579 271.9H138.619V272.58H132.579V271.9ZM132.579 269.63H133.409V272.21H132.579V269.63Z" fill="black" fill-opacity="0.87"/>
<path d="M161.592 268.36H169.782V269.04H161.592V268.36ZM165.332 268.78H166.162V270.86H165.332V268.78ZM162.642 264.16H168.722V267.34H162.642V264.16ZM167.902 264.83H163.452V266.67H167.902V264.83ZM162.632 271.9H168.872V272.58H162.632V271.9ZM162.632 269.99H163.452V272.14H162.632V269.99ZM173.141 269.13H173.971V270.6H173.141V269.13ZM176.941 263.74H177.771V272.78H176.941V263.74ZM177.501 267.58H179.171V268.28H177.501V267.58ZM170.811 271.06L170.691 270.37C172.311 270.37 174.521 270.35 176.391 270.08L176.461 270.7C174.511 271.05 172.391 271.06 170.811 271.06ZM170.841 264.83H176.251V265.5H170.841V264.83ZM173.551 266.03C174.811 266.03 175.681 266.69 175.681 267.7C175.681 268.72 174.811 269.37 173.551 269.37C172.291 269.37 171.431 268.72 171.431 267.7C171.431 266.69 172.291 266.03 173.551 266.03ZM173.551 266.67C172.741 266.67 172.211 267.08 172.211 267.7C172.211 268.32 172.741 268.73 173.551 268.73C174.361 268.73 174.901 268.32 174.901 267.7C174.901 267.08 174.361 266.67 173.551 266.67ZM173.141 263.75H173.971V265.28H173.141V263.75ZM181.89 264.3H182.55V265.51C182.55 266.86 181.77 268.28 180.44 268.87L179.99 268.22C181.18 267.7 181.89 266.53 181.89 265.51V264.3ZM182.02 264.3H182.68V265.51C182.68 266.51 183.36 267.53 184.52 267.98L184.07 268.61C182.77 268.09 182.02 266.84 182.02 265.51V264.3ZM186.82 263.75H187.61V269.32H186.82V263.75ZM185.38 266.16H187.09V266.84H185.38V266.16ZM184.88 263.92H185.67V269.03H184.88V263.92ZM184.64 269.52C186.5 269.52 187.66 270.12 187.66 271.15C187.66 272.17 186.5 272.76 184.64 272.76C182.77 272.76 181.63 272.17 181.63 271.15C181.63 270.12 182.77 269.52 184.64 269.52ZM184.64 270.17C183.28 270.17 182.44 270.53 182.44 271.15C182.44 271.76 183.28 272.12 184.64 272.12C186 272.12 186.83 271.76 186.83 271.15C186.83 270.53 186 270.17 184.64 270.17ZM195.369 263.74H196.199V269.07H195.369V263.74ZM195.849 266.05H197.519V266.74H195.849V266.05ZM190.349 269.48H196.199V271.31H191.179V272.27H190.369V270.76H195.389V270.07H190.349V269.48ZM190.369 272.09H196.549V272.68H190.369V272.09ZM191.559 267.45H192.389V268.6H191.559V267.45ZM189.239 268.87L189.139 268.26C190.749 268.26 192.969 268.25 194.829 267.99L194.899 268.52C192.969 268.86 190.819 268.87 189.239 268.87ZM189.369 264.43H194.559V265.02H189.369V264.43ZM191.969 265.3C193.249 265.3 194.069 265.74 194.069 266.49C194.069 267.24 193.249 267.68 191.969 267.68C190.679 267.68 189.859 267.24 189.859 266.49C189.859 265.74 190.679 265.3 191.969 265.3ZM191.969 265.85C191.159 265.85 190.639 266.09 190.639 266.49C190.639 266.89 191.159 267.14 191.969 267.14C192.779 267.14 193.289 266.89 193.289 266.49C193.289 266.09 192.779 265.85 191.969 265.85ZM191.559 263.65H192.389V264.74H191.559V263.65Z" fill="black" fill-opacity="0.87"/>
<path d="M229.841 264.21H235.661V264.89H229.841V264.21ZM228.801 267.54H236.991V268.22H228.801V267.54ZM235.121 264.21H235.931V264.88C235.931 265.65 235.931 266.53 235.631 267.78L234.821 267.74C235.121 266.5 235.121 265.63 235.121 264.88V264.21ZM229.801 269.45H235.961V272.66H229.801V269.45ZM235.151 270.11H230.611V271.99H235.151V270.11ZM240.05 268.3H240.88V270.09H240.05V268.3ZM243.3 268.3H244.13V270.09H243.3V268.3ZM237.99 267.97H246.16V268.64H237.99V267.97ZM242.07 269.56C244.01 269.56 245.17 270.14 245.17 271.17C245.17 272.19 244.01 272.77 242.07 272.77C240.13 272.77 238.97 272.19 238.97 271.17C238.97 270.14 240.13 269.56 242.07 269.56ZM242.07 270.21C240.66 270.21 239.81 270.56 239.81 271.17C239.81 271.78 240.66 272.12 242.07 272.12C243.49 272.12 244.33 271.78 244.33 271.17C244.33 270.56 243.49 270.21 242.07 270.21ZM242.08 263.92C244.04 263.92 245.26 264.55 245.26 265.61C245.26 266.67 244.04 267.3 242.08 267.3C240.11 267.3 238.9 266.67 238.9 265.61C238.9 264.55 240.11 263.92 242.08 263.92ZM242.08 264.57C240.64 264.57 239.75 264.95 239.75 265.61C239.75 266.27 240.64 266.65 242.08 266.65C243.51 266.65 244.41 266.27 244.41 265.61C244.41 264.95 243.51 264.57 242.08 264.57Z" fill="black" fill-opacity="0.87"/>
<path d="M289.151 264.17H289.841V265.05C289.841 266.76 288.821 268.23 287.291 268.81L286.871 268.15C288.241 267.65 289.151 266.4 289.151 265.05V264.17ZM289.301 264.17H289.981V265.05C289.981 266.35 290.911 267.52 292.251 267.99L291.831 268.64C290.321 268.09 289.301 266.71 289.301 265.05V264.17ZM288.171 269.64H294.211V272.78H293.371V270.32H288.171V269.64ZM293.371 263.74H294.211V269.18H293.371V263.74ZM302.56 263.73H303.39V272.79H302.56V263.73ZM296.51 264.5H297.33V266.89H299.94V264.5H300.77V270.61H296.51V264.5ZM297.33 267.55V269.93H299.94V267.55H297.33Z" fill="black" fill-opacity="0.87"/>
<path d="M45.504 148.145V156.946H43.775V148.145H45.504ZM38.666 150.498V153.956C39.082 153.943 39.511 153.93 39.927 153.904V150.498H38.666ZM42.969 153.683L43.086 154.931C40.707 155.321 38.003 155.373 35.949 155.373L35.767 153.982C36.157 153.982 36.573 153.982 37.015 153.982V150.498H36.066V149.133H42.514V150.498H41.578V153.813C42.059 153.774 42.514 153.735 42.969 153.683ZM39.225 158.545H45.777V159.91H37.496V156.153H39.225V158.545ZM57.463 148.145V156.946H55.734V148.145H57.463ZM50.625 150.498V153.956C51.041 153.943 51.47 153.93 51.886 153.904V150.498H50.625ZM54.928 153.683L55.045 154.931C52.666 155.321 49.962 155.373 47.908 155.373L47.726 153.982C48.116 153.982 48.532 153.982 48.974 153.982V150.498H48.025V149.133H54.473V150.498H53.537V153.813C54.018 153.774 54.473 153.735 54.928 153.683ZM51.184 158.545H57.736V159.91H49.455V156.153H51.184V158.545ZM67.68 148.132H69.396V160.144H67.68V148.132ZM62.961 148.977C64.768 148.977 66.107 150.615 66.107 153.241C66.107 155.88 64.768 157.531 62.961 157.531C61.154 157.531 59.815 155.88 59.815 153.241C59.815 150.615 61.154 148.977 62.961 148.977ZM62.961 150.524C62.077 150.524 61.466 151.473 61.466 153.241C61.466 155.022 62.077 155.971 62.961 155.971C63.845 155.971 64.456 155.022 64.456 153.241C64.456 151.473 63.845 150.524 62.961 150.524ZM78.677 152.37L78.885 153.761C77.052 154.151 75.297 154.281 73.152 154.281H72.112V148.834H73.815V152.864C75.596 152.838 77.104 152.721 78.677 152.37ZM75.102 156.699V158.636H79.691V156.699H75.102ZM73.412 159.975V155.347H81.368V159.975H73.412ZM79.652 148.132H81.368V154.84H79.652V148.132ZM94.1039 153.358L93.2719 154.71C91.9329 154.281 91.0099 153.436 90.4769 152.357C89.9309 153.514 88.9689 154.45 87.5649 154.905L86.7199 153.553C88.7219 152.916 89.5799 151.356 89.5799 149.835V148.691H91.3219V149.835C91.3219 151.33 92.1669 152.76 94.1039 153.358ZM88.5529 157.167V155.802H96.7169V160.131H94.9879V157.167H88.5529ZM94.9879 148.145H96.7169V155.282H94.9879V148.145ZM106.934 148.132H108.65V160.144H106.934V148.132ZM99.3159 149.094H101.019V151.993H103.515V149.094H105.218V157.349H99.3159V149.094ZM101.019 153.332V155.984H103.515V153.332H101.019ZM113.381 156.075C114.044 156.075 114.421 155.178 114.421 153.332C114.421 151.499 114.044 150.602 113.381 150.602C112.731 150.602 112.341 151.499 112.341 153.332C112.341 155.178 112.731 156.075 113.381 156.075ZM116.904 152.552V148.34H118.503V159.585H116.904V153.943H115.968C115.812 156.283 114.837 157.687 113.381 157.687C111.795 157.687 110.794 156.049 110.794 153.332C110.794 150.628 111.795 148.99 113.381 148.99C114.798 148.99 115.76 150.316 115.955 152.552H116.904ZM119.335 148.132H120.96V160.105H119.335V148.132ZM136.92 153.969L136.036 155.23C134.931 154.762 134.229 153.93 133.813 152.903C133.397 153.995 132.643 154.931 131.434 155.412C130.225 154.931 129.471 153.995 129.055 152.89C128.639 153.917 127.937 154.762 126.845 155.23L125.961 153.969C127.573 153.254 128.21 151.759 128.21 150.355V149.003H129.913V150.355C129.913 151.525 130.329 152.812 131.434 153.644C132.539 152.812 132.942 151.538 132.942 150.355V149.003H134.671V150.355C134.671 151.811 135.295 153.267 136.92 153.969ZM126.026 158.649V157.258H136.855V158.649H126.026ZM147.631 151.382V152.747H139.324V148.574H141.04V151.382H147.631ZM140.936 156.296V158.493H147.696V159.858H139.207V156.296H140.936ZM137.985 153.969H148.827V155.347H137.985V153.969ZM156.324 156.413V158.545H163.058V159.91H154.608V156.413H156.324ZM159.6 154.255H164.163V155.62H153.334V154.255H157.884V153.085H154.647V148.717H162.863V150.082H156.35V151.72H162.967V153.085H159.6V154.255ZM170.688 149.575C168.959 149.575 168.14 149.822 168.14 150.355C168.14 150.914 168.959 151.148 170.688 151.148C172.43 151.148 173.249 150.914 173.249 150.355C173.249 149.822 172.43 149.575 170.688 149.575ZM170.688 152.396C167.958 152.396 166.359 151.681 166.359 150.355C166.359 149.042 167.958 148.314 170.688 148.314C173.431 148.314 175.03 149.042 175.03 150.355C175.03 151.681 173.431 152.396 170.688 152.396ZM168.231 158.064V158.74H175.095V160.027H166.528V156.881H173.093V156.244H166.515V154.983H174.783V158.064H168.231ZM165.28 152.968H176.096V154.307H165.28V152.968ZM36.573 170.578L36.04 169.291C38.224 169.148 39.42 168.498 39.81 167.796H36.547V166.457H45.4V167.796H42.137C42.514 168.498 43.697 169.148 45.894 169.291L45.374 170.578C43.177 170.422 41.669 169.733 40.967 168.732C40.265 169.72 38.77 170.422 36.573 170.578ZM46.375 172.242H41.825V172.996H45.062V176.077H38.51V176.753H45.374V178.027H36.807V174.907H43.372V174.244H36.794V172.996H40.109V172.242H35.559V170.903H46.375V172.242ZM53.81 172.307H55.851V169.967H53.771C53.849 170.357 53.888 170.786 53.888 171.241C53.888 171.618 53.862 171.982 53.81 172.307ZM50.794 173.971C51.678 173.971 52.276 173.022 52.276 171.241C52.276 169.473 51.678 168.524 50.794 168.524C49.923 168.524 49.325 169.473 49.325 171.241C49.325 173.022 49.923 173.971 50.794 173.971ZM55.851 166.132H57.567V178.144H55.851V173.698H53.407C52.874 174.868 51.951 175.544 50.794 175.531C49.013 175.531 47.7 173.88 47.7 171.241C47.7 168.615 49.013 166.977 50.794 166.977C51.873 166.977 52.77 167.562 53.303 168.589H55.851V166.132ZM62.324 170.097V171.774H67.446V170.097H62.324ZM65.743 175.336H70.319V176.727H59.477V175.336H64.027V173.139H60.621V166.886H62.324V168.745H67.446V166.886H69.136V173.139H65.743V175.336ZM81.082 169.382V170.747H72.775V166.574H74.491V169.382H81.082ZM74.387 174.296V176.493H81.147V177.858H72.658V174.296H74.387ZM71.436 171.969H82.278V173.347H71.436V171.969ZM92.9989 169.629H95.0659V166.145H96.7819V174.894H95.0659V171.02H92.9989V169.629ZM87.5389 167.042H93.1029C93.1029 170.279 91.1009 172.645 87.6169 173.75L86.9149 172.372C89.4109 171.592 90.9839 170.162 91.2699 168.407H87.5389V167.042ZM90.6719 176.545H97.0809V177.91H88.9559V174.036H90.6719V176.545ZM105.384 173.971C106.268 173.971 106.853 173.022 106.853 171.241C106.853 169.473 106.268 168.524 105.384 168.524C104.513 168.524 103.928 169.473 103.928 171.241C103.928 173.022 104.513 173.971 105.384 173.971ZM110.441 166.132H112.157V178.144H110.441V171.839H108.452C108.27 174.127 107.048 175.531 105.384 175.531C103.603 175.531 102.29 173.88 102.29 171.241C102.29 168.615 103.603 166.977 105.384 166.977C106.996 166.977 108.205 168.29 108.439 170.448H110.441V166.132ZM120.814 168.589H122.491V166.145H124.207V172.229H122.491V169.876H120.814V168.589ZM121.555 170.422L121.685 171.722C120.853 171.93 120.177 171.943 118.578 171.943H117.941V166.717H121.269V168.056H119.631V170.617C120.463 170.591 120.983 170.552 121.555 170.422ZM117.486 170.435L117.616 171.735C116.641 171.93 115.861 171.943 114.847 171.943H114.236V166.717H117.369V168.056H115.926V170.604C116.433 170.578 116.927 170.526 117.486 170.435ZM117.59 176.649H124.532V177.975H115.861V174.686H122.478V174.023H115.848V172.697H124.207V175.921H117.59V176.649ZM126.312 167.367H129.549C129.549 170.669 129.25 173.243 127.118 175.609L125.779 174.634C127.365 172.879 127.833 171.15 127.924 168.745H126.312V167.367ZM129.965 167.367H132.851C132.851 170.825 132.578 173.776 130.485 176.363L129.133 175.414C130.719 173.412 131.148 171.41 131.239 168.745H129.965V167.367ZM137.089 170.825V172.242H135.542V178.105H133.813V166.132H135.542V170.825H137.089ZM142.08 173.048V175.336H144.719V173.048C144.303 173.126 143.861 173.165 143.393 173.165C142.925 173.165 142.496 173.126 142.08 173.048ZM143.393 168.082C141.729 168.082 140.624 168.758 140.624 169.954C140.624 171.137 141.729 171.826 143.393 171.826C145.057 171.826 146.175 171.137 146.175 169.954C146.175 168.758 145.057 168.082 143.393 168.082ZM146.422 175.336H148.827V176.727H137.985V175.336H140.377V172.411C139.467 171.852 138.921 170.994 138.934 169.954C138.934 167.991 140.819 166.73 143.393 166.73C145.98 166.73 147.865 167.991 147.865 169.954C147.865 170.994 147.319 171.852 146.422 172.411V175.336ZM151.14 173.451C151.14 173.165 151.179 172.909 151.257 172.684C151.335 172.459 151.46 172.246 151.634 172.047C151.816 171.848 152.054 171.644 152.349 171.436C152.609 171.245 152.817 171.076 152.973 170.929C153.137 170.782 153.254 170.634 153.324 170.487C153.402 170.34 153.441 170.175 153.441 169.993C153.441 169.716 153.337 169.508 153.129 169.369C152.929 169.222 152.648 169.148 152.284 169.148C151.92 169.148 151.56 169.204 151.205 169.317C150.849 169.43 150.485 169.581 150.113 169.772L149.424 168.381C149.848 168.147 150.308 167.956 150.802 167.809C151.296 167.662 151.837 167.588 152.427 167.588C153.328 167.588 154.026 167.805 154.52 168.238C155.022 168.671 155.274 169.222 155.274 169.889C155.274 170.244 155.217 170.552 155.105 170.812C154.992 171.072 154.823 171.315 154.598 171.54C154.372 171.757 154.091 171.991 153.753 172.242C153.501 172.424 153.306 172.58 153.168 172.71C153.029 172.84 152.934 172.966 152.882 173.087C152.838 173.208 152.817 173.36 152.817 173.542V173.919H151.14V173.451ZM150.932 176.09C150.932 175.691 151.04 175.414 151.257 175.258C151.473 175.093 151.738 175.011 152.05 175.011C152.353 175.011 152.613 175.093 152.83 175.258C153.046 175.414 153.155 175.691 153.155 176.09C153.155 176.471 153.046 176.749 152.83 176.922C152.613 177.087 152.353 177.169 152.05 177.169C151.738 177.169 151.473 177.087 151.257 176.922C151.04 176.749 150.932 176.471 150.932 176.09Z" fill="black" fill-opacity="0.87"/>
<path d="M294.98 311.472H295.856V312.072C295.856 314.148 293.744 315.636 291.488 316.02L291.092 315.216C293.072 314.916 294.98 313.62 294.98 312.072V311.472ZM295.16 311.472H296.024V312.072C296.024 313.584 297.956 314.916 299.912 315.216L299.516 316.02C297.284 315.636 295.16 314.124 295.16 312.072V311.472ZM294.98 317.808H295.964V321.936H294.98V317.808ZM290.6 317.196H300.404V318.024H290.6V317.196ZM307.423 313.896H309.871V314.724H307.423V313.896ZM309.559 311.088H310.555V317.556H309.559V311.088ZM306.991 317.88C309.223 317.88 310.603 318.636 310.603 319.908C310.603 321.192 309.223 321.924 306.991 321.924C304.747 321.924 303.367 321.192 303.367 319.908C303.367 318.636 304.747 317.88 306.991 317.88ZM306.991 318.66C305.359 318.66 304.363 319.116 304.363 319.908C304.363 320.688 305.359 321.144 306.991 321.144C308.623 321.144 309.619 320.688 309.619 319.908C309.619 319.116 308.623 318.66 306.991 318.66ZM304.399 312.18H305.215V313.056C305.215 315.06 303.991 316.776 302.191 317.448L301.675 316.656C303.283 316.068 304.399 314.616 304.399 313.056V312.18ZM304.591 312.18H305.395V313.056C305.395 314.46 306.451 315.804 308.023 316.356L307.519 317.148C305.755 316.512 304.591 314.88 304.591 313.056V312.18ZM301.975 311.88H307.771V312.696H301.975V311.88ZM320.022 311.088H321.018V321.936H320.022V311.088ZM320.778 315.54H322.794V316.38H320.778V315.54ZM312.618 312.816H319.014V313.632H312.618V312.816ZM315.858 314.532C317.394 314.532 318.498 315.564 318.498 317.028C318.498 318.492 317.394 319.524 315.858 319.524C314.334 319.524 313.218 318.492 313.218 317.028C313.218 315.564 314.334 314.532 315.858 314.532ZM315.858 315.36C314.874 315.36 314.166 316.044 314.166 317.028C314.166 318 314.874 318.696 315.858 318.696C316.842 318.696 317.55 318 317.55 317.028C317.55 316.044 316.842 315.36 315.858 315.36ZM315.342 311.22H316.338V313.188H315.342V311.22ZM331.613 311.088H332.609V321.936H331.613V311.088ZM328.433 312.252H329.417C329.417 315.396 328.001 318.144 324.377 319.92L323.849 319.116C326.981 317.604 328.433 315.3 328.433 312.42V312.252ZM324.341 312.252H328.865V313.068H324.341V312.252Z" fill="black" fill-opacity="0.87"/>
<path d="M33.64 44.28H36.3V58.38H33.64V44.28ZM31.22 48.86H34.64V50.98H31.22V48.86ZM31.22 52.84H34.64V54.94H31.22V52.84ZM20.86 46.2H31.02V48.28H20.86V46.2ZM26.06 48.94C28.58 48.94 30.4 50.44 30.4 52.58C30.4 54.72 28.58 56.22 26.06 56.22C23.54 56.22 21.72 54.72 21.72 52.58C21.72 50.44 23.54 48.94 26.06 48.94ZM26.06 50.98C24.98 50.98 24.22 51.56 24.22 52.58C24.22 53.62 24.98 54.18 26.06 54.18C27.14 54.18 27.9 53.62 27.9 52.58C27.9 51.56 27.14 50.98 26.06 50.98ZM24.74 44.22H27.4V47.48H24.74V44.22ZM24.04 60.34H36.7V62.46H24.04V60.34ZM24.04 57.22H26.72V61.32H24.04V57.22ZM51.2384 44.28H53.8984V56.76H51.2384V44.28ZM52.9584 49.5H56.2184V51.7H52.9584V49.5ZM47.6984 56.94C51.6984 56.94 53.9984 57.98 53.9984 59.88C53.9984 61.78 51.6984 62.8 47.6984 62.8C43.6984 62.8 41.3984 61.78 41.3984 59.88C41.3984 57.98 43.6984 56.94 47.6984 56.94ZM47.6984 58.86C45.1784 58.86 44.0584 59.16 44.0584 59.88C44.0584 60.58 45.1784 60.88 47.6984 60.88C50.1784 60.88 51.3184 60.58 51.3184 59.88C51.3184 59.16 50.1784 58.86 47.6984 58.86ZM43.3984 52.42H46.0584V55.14H43.3984V52.42ZM39.2784 56.28L38.9784 54.28C42.2784 54.28 46.6784 54.26 50.4184 53.76L50.6184 55.56C46.7384 56.24 42.4984 56.28 39.2784 56.28ZM39.4584 45.58H49.9584V47.5H39.4584V45.58ZM44.7184 47.96C47.4584 47.96 49.2184 48.96 49.2184 50.6C49.2184 52.24 47.4584 53.24 44.7184 53.24C41.9784 53.24 40.1984 52.24 40.1984 50.6C40.1984 48.96 41.9784 47.96 44.7184 47.96ZM44.7184 49.66C43.4584 49.66 42.7184 49.98 42.7184 50.6C42.7184 51.24 43.4584 51.54 44.7184 51.54C45.9784 51.54 46.6984 51.24 46.6984 50.6C46.6984 49.98 45.9784 49.66 44.7184 49.66ZM43.3984 44.12H46.0584V46.42H43.3984V44.12ZM65.9769 44.52C70.1969 44.52 72.6769 45.64 72.6769 47.68C72.6769 49.72 70.1969 50.84 65.9769 50.84C61.7369 50.84 59.2769 49.72 59.2769 47.68C59.2769 45.64 61.7369 44.52 65.9769 44.52ZM65.9769 46.46C63.2969 46.46 62.0369 46.86 62.0369 47.68C62.0369 48.54 63.2969 48.9 65.9769 48.9C68.6569 48.9 69.9169 48.54 69.9169 47.68C69.9169 46.86 68.6569 46.46 65.9769 46.46ZM57.5969 51.7H74.3369V53.8H57.5969V51.7ZM59.5169 54.84H72.3169V59.6H62.1569V61.24H59.5369V57.76H69.6969V56.82H59.5169V54.84ZM59.5369 60.66H72.7969V62.66H59.5369V60.66ZM85.2906 44.9H87.4506V46.08C87.4506 49.6 85.8106 52.64 82.2306 53.76L80.9506 51.64C84.0106 50.72 85.2906 48.46 85.2906 46.08V44.9ZM85.8306 44.9H87.9706V46.02C87.9706 48.28 89.2106 50.38 92.1706 51.24L90.8306 53.3C87.3906 52.24 85.8306 49.4 85.8306 46.02V44.9ZM93.1106 44.26H95.7706V53.76H93.1106V44.26ZM94.6906 47.86H98.2106V50.04H94.6906V47.86ZM83.5306 54.48H95.7706V59.48H86.2106V61.74H83.5706V57.56H93.1506V56.52H83.5306V54.48ZM83.5706 60.6H96.3106V62.66H83.5706V60.6ZM99.9691 45.82H110.129V47.94H99.9691V45.82ZM99.7691 58.72L99.5091 56.56C102.709 56.56 107.009 56.52 110.609 56.1L110.749 58.04C107.069 58.66 102.929 58.72 99.7691 58.72ZM101.509 47.62H104.089V56.96H101.509V47.62ZM105.909 47.62H108.489V56.96H105.909V47.62ZM112.489 44.26H115.129V62.78H112.489V44.26ZM109.869 48.86H114.509V50.98H109.869V48.86ZM109.869 52.96H114.509V55.06H109.869V52.96ZM118.008 58.48H134.768V60.64H118.008V58.48ZM125.028 54.52H127.688V59H125.028V54.52ZM119.768 45.44H122.408V48.28H130.308V45.44H132.948V55.08H119.768V45.44ZM122.408 50.36V52.96H130.308V50.36H122.408ZM143.686 50.48H146.746V52.64H143.686V50.48ZM139.726 45.86H141.766V48.98C141.766 53.18 140.606 57.28 137.646 59.1L136.046 57.1C138.766 55.42 139.726 52.12 139.726 48.98V45.86ZM140.306 45.86H142.306V48.86C142.306 51.88 143.086 54.96 145.606 56.6L144.166 58.68C141.226 56.86 140.306 52.86 140.306 48.86V45.86ZM149.766 44.26H152.306V62.78H149.766V44.26ZM146.006 44.54H148.486V61.94H146.006V44.54ZM158.484 53.66H161.124V58.86H158.484V53.66ZM165.204 53.66H167.864V58.86H165.204V53.66ZM154.804 58.48H171.564V60.64H154.804V58.48ZM163.164 45.16C167.144 45.16 170.084 47.12 170.084 50.14C170.084 53.16 167.144 55.1 163.164 55.1C159.164 55.1 156.244 53.16 156.244 50.14C156.244 47.12 159.164 45.16 163.164 45.16ZM163.164 47.24C160.584 47.24 158.864 48.3 158.864 50.14C158.864 51.96 160.584 53.04 163.164 53.04C165.744 53.04 167.464 51.96 167.464 50.14C167.464 48.3 165.744 47.24 163.164 47.24ZM176.443 56.26H174.063L173.563 46.72H176.943L176.443 56.26ZM173.523 59.6C173.523 58.9867 173.689 58.56 174.023 58.32C174.356 58.0667 174.763 57.94 175.243 57.94C175.709 57.94 176.109 58.0667 176.443 58.32C176.776 58.56 176.943 58.9867 176.943 59.6C176.943 60.1867 176.776 60.6133 176.443 60.88C176.109 61.1333 175.709 61.26 175.243 61.26C174.763 61.26 174.356 61.1333 174.023 60.88C173.689 60.6133 173.523 60.1867 173.523 59.6Z" fill="black" fill-opacity="0.87"/>
<rect x="20" y="341" width="320" height="70" rx="10" fill="white"/>
<rect x="20.35" y="341.35" width="319.3" height="69.3" rx="9.65" stroke="black" stroke-opacity="0.25" stroke-width="0.7"/>
<path d="M92.156 371.108H100.234V372.046H92.156V371.108ZM90.7 376.008H102.166V376.946H90.7V376.008ZM95.894 376.582H97.056V379.998H95.894V376.582ZM99.548 371.108H100.682V372.116C100.682 373.264 100.682 374.608 100.262 376.512L99.128 376.358C99.548 374.538 99.548 373.236 99.548 372.116V371.108ZM92.142 381.86H100.934V382.812H92.142V381.86ZM92.142 378.864H93.304V382.112H92.142V378.864ZM112.819 370.436H113.981V379.004H112.819V370.436ZM110.103 374.006H113.057V374.958H110.103V374.006ZM108.843 371.43H110.061C110.061 374.706 107.905 377.03 104.279 378.206L103.789 377.282C106.995 376.274 108.843 374.37 108.843 371.892V371.43ZM104.391 371.43H109.669V372.382H104.391V371.43ZM109.319 377.912H110.313V378.486C110.313 380.908 108.101 382.546 105.567 383.064L105.105 382.14C107.345 381.734 109.319 380.334 109.319 378.486V377.912ZM109.487 377.912H110.481V378.486C110.481 380.306 112.427 381.706 114.681 382.112L114.191 383.036C111.671 382.532 109.487 380.894 109.487 378.486V377.912ZM125.656 370.436H126.818V376.988H125.656V370.436ZM118.642 377.604H126.832V380.642H119.804V382.448H118.67V379.802H125.684V378.528H118.642V377.604ZM118.67 382.028H127.252V382.952H118.67V382.028ZM119.818 371.556H120.77V372.214C120.77 374.454 119.314 376.302 117.172 377.016L116.626 376.106C118.516 375.49 119.818 373.936 119.818 372.214V371.556ZM120.056 371.556H121.008V372.214C121.008 373.824 122.324 375.28 124.2 375.854L123.654 376.75C121.526 376.092 120.056 374.342 120.056 372.214V371.556ZM116.934 371.15H123.864V372.088H116.934V371.15ZM141.625 370.45H142.787V379.942H141.625V370.45ZM142.423 374.594H144.663V375.574H142.423V374.594ZM133.001 371.976H140.477V372.914H133.001V371.976ZM136.739 373.614C138.531 373.614 139.763 374.552 139.763 375.98C139.763 377.394 138.531 378.332 136.739 378.332C134.933 378.332 133.701 377.394 133.701 375.98C133.701 374.552 134.933 373.614 136.739 373.614ZM136.739 374.524C135.591 374.524 134.807 375.098 134.807 375.98C134.807 376.848 135.591 377.422 136.739 377.422C137.873 377.422 138.657 376.848 138.657 375.98C138.657 375.098 137.873 374.524 136.739 374.524ZM136.151 370.436H137.313V372.466H136.151V370.436ZM134.905 381.86H143.361V382.812H134.905V381.86ZM134.905 379.186H136.067V382.266H134.905V379.186ZM151.816 374.006H155.456V374.958H151.816V374.006ZM155.092 370.45H156.254V379.816H155.092V370.45ZM148.12 381.86H156.562V382.812H148.12V381.86ZM148.12 378.906H149.282V382.35H148.12V378.906ZM146.468 371.276H147.616V373.516H151.046V371.276H152.18V377.66H146.468V371.276ZM147.616 374.426V376.708H151.046V374.426H147.616ZM159.249 371.57H165.059V377.436H159.249V371.57ZM163.925 372.508H160.383V376.498H163.925V372.508ZM167.383 370.422H168.545V379.704H167.383V370.422ZM168.181 374.286H170.421V375.252H168.181V374.286ZM160.663 381.86H169.119V382.812H160.663V381.86ZM160.663 378.822H161.825V382.266H160.663V378.822ZM183.815 370.436H184.977V383.092H183.815V370.436ZM184.697 375.63H187.049V376.61H184.697V375.63ZM175.177 372.452H182.639V373.404H175.177V372.452ZM178.957 374.454C180.749 374.454 182.037 375.658 182.037 377.366C182.037 379.074 180.749 380.278 178.957 380.278C177.179 380.278 175.877 379.074 175.877 377.366C175.877 375.658 177.179 374.454 178.957 374.454ZM178.957 375.42C177.809 375.42 176.983 376.218 176.983 377.366C176.983 378.5 177.809 379.312 178.957 379.312C180.105 379.312 180.931 378.5 180.931 377.366C180.931 376.218 180.105 375.42 178.957 375.42ZM178.355 370.59H179.517V372.886H178.355V370.59ZM197.338 370.436H198.5V383.092H197.338V370.436ZM193.628 371.794H194.776C194.776 375.462 193.124 378.668 188.896 380.74L188.28 379.802C191.934 378.038 193.628 375.35 193.628 371.99V371.794ZM188.854 371.794H194.132V372.746H188.854V371.794Z" fill="black" fill-opacity="0.87"/>
<rect x="35" y="356" width="40" height="40" rx="20" fill="black" fill-opacity="0.25"/>
<path d="M306.948 375.798C307.611 375.798 308.189 375.915 308.684 376.148C309.179 376.381 309.561 376.717 309.832 377.156C310.112 377.595 310.252 378.131 310.252 378.766C310.252 379.466 310.103 380.068 309.804 380.572C309.505 381.076 309.071 381.463 308.502 381.734C307.942 382.005 307.256 382.14 306.444 382.14C305.931 382.14 305.445 382.093 304.988 382C304.531 381.907 304.143 381.771 303.826 381.594V380.236C304.162 380.432 304.568 380.591 305.044 380.712C305.529 380.833 305.991 380.894 306.43 380.894C306.906 380.894 307.312 380.824 307.648 380.684C307.993 380.535 308.259 380.315 308.446 380.026C308.642 379.727 308.74 379.354 308.74 378.906C308.74 378.299 308.549 377.837 308.166 377.52C307.793 377.193 307.2 377.03 306.388 377.03C306.127 377.03 305.833 377.053 305.506 377.1C305.189 377.147 304.932 377.193 304.736 377.24L304.05 376.834L304.428 372.004H309.566V373.32H305.716L305.492 375.938C305.651 375.91 305.851 375.882 306.094 375.854C306.337 375.817 306.621 375.798 306.948 375.798ZM316.276 372.004L312.552 382H311.138L314.862 372.004H316.276ZM318.191 382L322.181 373.32H316.931V372.004H323.777V373.068L319.801 382H318.191Z" fill="black" fill-opacity="0.87"/>
<g filter="url(#filter2_d_988_6730)">
<path d="M0 745C0 736.716 6.71573 730 15 730H345C353.284 730 360 736.716 360 745V800H0V745Z" fill="white"/>
</g>
<path d="M0 745C0 736.716 6.71573 730 15 730H72V800H0V745Z" fill="white"/>
<path d="M72 730H144V800H72V730Z" fill="white"/>
<path d="M144 730H216V800H144V730Z" fill="white"/>
<path d="M216 730H288V800H216V730Z" fill="white"/>
<path d="M288 730H345C353.284 730 360 736.716 360 745V800H288V730Z" fill="white"/>
<path d="M32.8904 781.08H39.0604V783.66H32.8904V781.08ZM38.2504 781.72H33.7104V783.03H38.2504V781.72ZM32.3204 775.48H39.5904V776.13H32.3204V775.48ZM35.9804 776.49C37.8404 776.49 38.9004 776.93 38.9004 777.77C38.9004 778.61 37.8404 779.05 35.9804 779.05C34.1104 779.05 33.0604 778.61 33.0604 777.77C33.0604 776.93 34.1104 776.49 35.9804 776.49ZM35.9804 777.07C34.6704 777.07 33.9404 777.32 33.9404 777.77C33.9404 778.22 34.6704 778.47 35.9804 778.47C37.2804 778.47 38.0104 778.22 38.0104 777.77C38.0104 777.32 37.2804 777.07 35.9804 777.07ZM35.5704 774.61H36.3904V775.9H35.5704V774.61ZM31.8904 779.74H40.0604V780.39H31.8904V779.74ZM35.5704 778.85H36.3904V780.1H35.5704V778.85Z" fill="black" fill-opacity="0.87"/>
<path d="M92.3912 775.06H93.1212V775.56C93.1212 777.29 91.3612 778.53 89.4812 778.85L89.1512 778.18C90.8012 777.93 92.3912 776.85 92.3912 775.56V775.06ZM92.5412 775.06H93.2612V775.56C93.2612 776.82 94.8712 777.93 96.5012 778.18L96.1712 778.85C94.3112 778.53 92.5412 777.27 92.5412 775.56V775.06ZM92.3912 780.34H93.2112V783.78H92.3912V780.34ZM88.7412 779.83H96.9112V780.52H88.7412V779.83ZM104.51 774.74H105.35V779.59H104.51V774.74ZM99.5204 780.04H100.34V781.14H104.53V780.04H105.35V783.66H99.5204V780.04ZM100.34 781.8V782.99H104.53V781.8H100.34ZM100.5 775.17C101.87 775.17 102.85 776.02 102.85 777.25C102.85 778.49 101.87 779.34 100.5 779.34C99.1304 779.34 98.1404 778.49 98.1404 777.25C98.1404 776.02 99.1304 775.17 100.5 775.17ZM100.5 775.86C99.6004 775.86 98.9504 776.43 98.9504 777.25C98.9504 778.07 99.6004 778.64 100.5 778.64C101.4 778.64 102.05 778.07 102.05 777.25C102.05 776.43 101.4 775.86 100.5 775.86ZM110.26 775.86L107.6 783H106.74L109.4 775.86H110.26ZM113.25 776.03H113.92V777.5C113.92 779.41 112.77 781.33 111.33 782.04L110.85 781.38C112.16 780.76 113.25 779.06 113.25 777.5V776.03ZM113.41 776.03H114.08V777.5C114.08 779.03 115.17 780.59 116.5 781.16L116.03 781.82C114.57 781.14 113.41 779.38 113.41 777.5V776.03ZM111.15 775.66H116.2V776.36H111.15V775.66ZM117.42 774.74H118.25V783.78H117.42V774.74ZM123.72 779.24H124.55V780.61H123.72V779.24ZM120.06 778.75H128.22V779.39H120.06V778.75ZM123.73 774.68H124.55V775.78H123.73V774.68ZM123.69 775.86H124.42V776C124.42 777.42 122.73 778.18 120.73 778.35L120.49 777.71C122.27 777.6 123.69 776.97 123.69 776V775.86ZM123.86 775.86H124.59V776C124.59 776.97 126.01 777.6 127.78 777.71L127.54 778.35C125.54 778.18 123.86 777.42 123.86 776V775.86ZM120.89 775.53H127.39V776.16H120.89V775.53ZM121.04 780.21H127.18V782.2H121.88V783.29H121.06V781.61H126.36V780.84H121.04V780.21ZM121.06 783.05H127.45V783.68H121.06V783.05Z" fill="black" fill-opacity="0.87"/>
<path d="M175.301 777.25H177.311V777.92H175.301V777.25ZM175.231 779.52H177.291V780.19H175.231V779.52ZM178.681 774.74H179.481V783.78H178.681V774.74ZM176.871 774.97H177.651V783.32H176.871V774.97ZM174.851 775.88H175.651C175.651 778.25 174.701 780.38 172.271 781.83L171.791 781.24C173.901 779.96 174.851 778.16 174.851 776.03V775.88ZM172.191 775.88H175.181V776.56H172.191V775.88ZM181.33 775.56H186.62V776.18H181.33V775.56ZM183.98 776.53C185.28 776.53 186.13 777.05 186.13 777.87C186.13 778.7 185.28 779.22 183.98 779.22C182.69 779.22 181.84 778.7 181.84 777.87C181.84 777.05 182.69 776.53 183.98 776.53ZM183.98 777.11C183.17 777.11 182.62 777.4 182.62 777.87C182.62 778.33 183.17 778.64 183.98 778.64C184.81 778.64 185.34 778.33 185.34 777.87C185.34 777.4 184.81 777.11 183.98 777.11ZM183.56 774.68H184.4V775.89H183.56V774.68ZM183.56 778.89H184.4V780.12H183.56V778.89ZM187.56 774.75H188.39V780.8H187.56V774.75ZM182.33 781.22H188.39V783.78H187.56V781.88H182.33V781.22ZM181.15 780.52L181.04 779.85C182.7 779.85 184.94 779.84 186.84 779.58L186.9 780.16C184.93 780.49 182.78 780.52 181.15 780.52Z" fill="#D0D0D0"/>
<path d="M239.191 775.62H242.461V776.3H239.191V775.62ZM242.031 775.62H242.801V776.22C242.801 776.98 242.801 777.97 242.491 779.34L241.721 779.25C242.031 777.9 242.031 776.97 242.031 776.22V775.62ZM242.401 777.21V777.81L239.061 778.09L238.931 777.41L242.401 777.21ZM245.551 774.74H246.351V783.78H245.551V774.74ZM243.851 774.94H244.631V783.28H243.851V774.94ZM242.161 780.55H244.131V781.2H242.161V780.55ZM240.511 779.49H241.301V783.05H240.511V779.49ZM238.681 779.9L238.581 779.19C239.861 779.18 241.861 779.13 243.301 778.93L243.351 779.56C241.881 779.82 239.941 779.9 238.681 779.9ZM251.52 775.36H252.24V776.05C252.24 778.02 250.41 779.55 248.6 779.96L248.23 779.27C249.82 778.97 251.52 777.59 251.52 776.05V775.36ZM251.67 775.36H252.39V776.05C252.39 777.6 254.1 778.97 255.68 779.27L255.31 779.96C253.51 779.55 251.67 778.03 251.67 776.05V775.36ZM247.9 781.88H256.09V782.56H247.9V781.88ZM258.15 779.61H264.36V780.28H258.15V779.61ZM257.1 781.93H265.29V782.62H257.1V781.93ZM258.15 775.51H264.26V776.19H258.99V779.82H258.15V775.51ZM258.72 777.53H264.07V778.19H258.72V777.53Z" fill="black" fill-opacity="0.87"/>
<path d="M301.852 775.64H306.002V781.49H301.852V775.64ZM305.192 776.31H302.662V780.82H305.192V776.31ZM307.612 774.74H308.452V783.78H307.612V774.74ZM308.252 778.35H309.932V779.05H308.252V778.35ZM317.261 774.73H318.091V783.79H317.261V774.73ZM313.321 775.43C314.661 775.43 315.621 776.66 315.621 778.58C315.621 780.51 314.661 781.74 313.321 781.74C311.991 781.74 311.031 780.51 311.031 778.58C311.031 776.66 311.991 775.43 313.321 775.43ZM313.321 776.18C312.441 776.18 311.821 777.12 311.821 778.58C311.821 780.05 312.441 781.01 313.321 781.01C314.211 781.01 314.821 780.05 314.821 778.58C314.821 777.12 314.211 776.18 313.321 776.18ZM326.82 774.74H327.62V783.78H326.82V774.74ZM323.84 778.18H325.34V778.91H323.84V778.18ZM325.07 774.96H325.86V783.31H325.07V774.96ZM319.98 775.88H324.11V776.56H319.98V775.88ZM319.9 781.56L319.8 780.86C320.97 780.86 322.93 780.82 324.3 780.64L324.36 781.25C322.95 781.52 321.06 781.56 319.9 781.56ZM320.72 776.32H321.48V781.05H320.72V776.32ZM322.6 776.32H323.36V781.05H322.6V776.32ZM335.66 774.73H336.49V783.79H335.66V774.73ZM331.72 775.43C333.06 775.43 334.02 776.66 334.02 778.58C334.02 780.51 333.06 781.74 331.72 781.74C330.39 781.74 329.43 780.51 329.43 778.58C329.43 776.66 330.39 775.43 331.72 775.43ZM331.72 776.18C330.84 776.18 330.22 777.12 330.22 778.58C330.22 780.05 330.84 781.01 331.72 781.01C332.61 781.01 333.22 780.05 333.22 778.58C333.22 777.12 332.61 776.18 331.72 776.18ZM340.689 776.03H341.359V777.5C341.359 779.41 340.209 781.33 338.769 782.04L338.289 781.38C339.599 780.76 340.689 779.06 340.689 777.5V776.03ZM340.849 776.03H341.519V777.5C341.519 779.03 342.609 780.59 343.939 781.16L343.469 781.82C342.009 781.14 340.849 779.38 340.849 777.5V776.03ZM338.589 775.66H343.639V776.36H338.589V775.66ZM344.859 774.74H345.689V783.78H344.859V774.74Z" fill="black" fill-opacity="0.87"/>
<path d="M46.1836 754.836L36.5297 745.189C36.4602 745.119 36.3776 745.064 36.2867 745.026C36.1958 744.989 36.0984 744.969 36 744.969C35.9016 744.969 35.8042 744.989 35.7133 745.026C35.6224 745.064 35.5398 745.119 35.4703 745.189L25.8164 754.836C25.5352 755.117 25.3758 755.499 25.3758 755.898C25.3758 756.725 26.0484 757.398 26.8758 757.398H27.893V764.281C27.893 764.696 28.2281 765.031 28.643 765.031H34.5V759.781H37.125V765.031H43.357C43.7719 765.031 44.107 764.696 44.107 764.281V757.398H45.1242C45.5227 757.398 45.9047 757.241 46.1859 756.957C46.7695 756.371 46.7695 755.422 46.1836 754.836Z" fill="black" fill-opacity="0.87"/>
<path d="M98 760.832V762.5C98 763.879 101.359 765 105.5 765C109.641 765 113 763.879 113 762.5V760.832C111.387 761.969 108.438 762.5 105.5 762.5C102.562 762.5 99.6133 761.969 98 760.832ZM110.5 750C114.641 750 118 748.879 118 747.5C118 746.121 114.641 745 110.5 745C106.359 745 103 746.121 103 747.5C103 748.879 106.359 750 110.5 750ZM98 756.734V758.75C98 760.129 101.359 761.25 105.5 761.25C109.641 761.25 113 760.129 113 758.75V756.734C111.387 758.062 108.434 758.75 105.5 758.75C102.566 758.75 99.6133 758.062 98 756.734ZM114.25 757.164C116.488 756.73 118 755.926 118 755V753.332C117.094 753.973 115.762 754.41 114.25 754.68V757.164ZM105.5 751.25C101.359 751.25 98 752.648 98 754.375C98 756.102 101.359 757.5 105.5 757.5C109.641 757.5 113 756.102 113 754.375C113 752.648 109.641 751.25 105.5 751.25ZM114.066 753.449C116.41 753.027 118 752.199 118 751.25V749.582C116.613 750.562 114.23 751.09 111.723 751.215C112.875 751.773 113.723 752.523 114.066 753.449Z" fill="black" fill-opacity="0.87"/>
<path d="M189.789 744.48L190.379 745.07C191.192 745.884 191.069 747.327 190.102 748.293L177.935 760.46L173.993 761.902C173.498 762.084 173.016 761.848 172.918 761.377C172.885 761.206 172.9 761.029 172.963 760.867L174.433 756.891L186.566 744.757C187.533 743.791 188.976 743.666 189.789 744.48ZM177.404 745.69C177.535 745.69 177.665 745.716 177.787 745.766C177.908 745.816 178.018 745.89 178.111 745.983C178.204 746.076 178.278 746.186 178.328 746.307C178.378 746.428 178.404 746.558 178.404 746.69C178.404 746.821 178.378 746.951 178.328 747.072C178.278 747.194 178.204 747.304 178.111 747.397C178.018 747.49 177.908 747.563 177.787 747.614C177.665 747.664 177.535 747.69 177.404 747.69H173.404C172.874 747.69 172.365 747.9 171.99 748.276C171.615 748.651 171.404 749.159 171.404 749.69V761.69C171.404 762.22 171.615 762.729 171.99 763.104C172.365 763.479 172.874 763.69 173.404 763.69H185.404C185.934 763.69 186.443 763.479 186.818 763.104C187.193 762.729 187.404 762.22 187.404 761.69V757.69C187.404 757.425 187.509 757.17 187.697 756.983C187.884 756.795 188.139 756.69 188.404 756.69C188.669 756.69 188.924 756.795 189.111 756.983C189.299 757.17 189.404 757.425 189.404 757.69V761.69C189.404 762.751 188.983 763.768 188.232 764.518C187.482 765.268 186.465 765.69 185.404 765.69H173.404C172.343 765.69 171.326 765.268 170.576 764.518C169.825 763.768 169.404 762.751 169.404 761.69V749.69C169.404 748.629 169.825 747.611 170.576 746.861C171.326 746.111 172.343 745.69 173.404 745.69H177.404Z" fill="#D0D0D0"/>
<g clip-path="url(#clip1_988_6730)">
<path d="M252 743C245.37 743 240 748.37 240 755C240 761.63 245.37 767 252 767C258.63 767 264 761.63 264 755C264 748.37 258.63 743 252 743ZM252 761.73C248.28 761.73 245.27 758.72 245.27 755C245.27 751.28 248.28 748.27 252 748.27C255.72 748.27 258.73 751.28 258.73 755C258.73 758.72 255.72 761.73 252 761.73Z" fill="black" fill-opacity="0.1"/>
<path d="M263.1 759.55C263.21 759.26 263.27 758.96 263.27 758.64C263.27 757.19 262.09 756.01 260.64 756.01C259.57 756.01 258.66 756.65 258.24 757.56H258.23C257.22 760 254.82 761.73 252.01 761.73C248.29 761.73 245.28 758.72 245.28 755C245.28 751.28 248.29 748.27 252.01 748.27C252.16 748.27 252.3 748.28 252.45 748.29V748.27C252.53 748.27 252.6 748.29 252.67 748.29C254.12 748.29 255.3 747.11 255.3 745.66C255.3 744.21 254.18 743.1 252.78 743.04C252.52 743 252.26 743 252 743C245.42 743 240 748.42 240 755C240 761.58 245.42 767 252 767C256.78 767 261.11 764.14 263.01 759.76C263.04 759.71 263.06 759.65 263.08 759.6C263.08 759.58 263.1 759.57 263.1 759.55Z" fill="black" fill-opacity="0.87"/>
</g>
<path d="M333.65 763.625C333.584 763.739 333.489 763.834 333.375 763.9C333.261 763.965 333.132 764 333 764H315C314.868 764 314.739 763.965 314.625 763.899C314.511 763.833 314.417 763.739 314.351 763.625C314.285 763.511 314.251 763.382 314.251 763.25C314.251 763.118 314.285 762.989 314.351 762.875C315.779 760.407 317.979 758.637 320.547 757.798C319.277 757.041 318.29 755.889 317.738 754.518C317.186 753.147 317.1 751.632 317.492 750.207C317.884 748.782 318.733 747.525 319.909 746.629C321.084 745.733 322.522 745.248 324 745.248C325.478 745.248 326.916 745.733 328.091 746.629C329.267 747.525 330.116 748.782 330.508 750.207C330.9 751.632 330.814 753.147 330.262 754.518C329.71 755.889 328.723 757.041 327.453 757.798C330.021 758.637 332.221 760.407 333.649 762.875C333.715 762.989 333.75 763.118 333.75 763.25C333.75 763.382 333.715 763.511 333.65 763.625Z" fill="black" fill-opacity="0.87"/>
</g>
<defs>
<filter id="filter0_d_988_6730" x="280" y="772" width="70" height="70" filterUnits="userSpaceOnUse" color-interpolation-filters="sRGB">
<feFlood flood-opacity="0" result="BackgroundImageFix"/>
<feColorMatrix in="SourceAlpha" type="matrix" values="0 0 0 0 0 0 0 0 0 0 0 0 0 0 0 0 0 0 127 0" result="hardAlpha"/>
<feMorphology radius="3" operator="dilate" in="SourceAlpha" result="effect1_dropShadow_988_6730"/>
<feOffset/>
<feGaussianBlur stdDeviation="3.5"/>
<feComposite in2="hardAlpha" operator="out"/>
<feColorMatrix type="matrix" values="0 0 0 0 0 0 0 0 0 0 0 0 0 0 0 0 0 0 0.1 0"/>
<feBlend mode="normal" in2="BackgroundImageFix" result="effect1_dropShadow_988_6730"/>
<feBlend mode="normal" in="SourceGraphic" in2="effect1_dropShadow_988_6730" result="shape"/>
</filter>
<filter id="filter1_d_988_6730" x="16" y="126" width="328" height="158" filterUnits="userSpaceOnUse" color-interpolation-filters="sRGB">
<feFlood flood-opacity="0" result="BackgroundImageFix"/>
<feColorMatrix in="SourceAlpha" type="matrix" values="0 0 0 0 0 0 0 0 0 0 0 0 0 0 0 0 0 0 127 0" result="hardAlpha"/>
<feMorphology radius="1" operator="dilate" in="SourceAlpha" result="effect1_dropShadow_988_6730"/>
<feOffset/>
<feGaussianBlur stdDeviation="1.5"/>
<feComposite in2="hardAlpha" operator="out"/>
<feColorMatrix type="matrix" values="0 0 0 0 0 0 0 0 0 0 0 0 0 0 0 0 0 0 0.1 0"/>
<feBlend mode="normal" in2="BackgroundImageFix" result="effect1_dropShadow_988_6730"/>
<feBlend mode="normal" in="SourceGraphic" in2="effect1_dropShadow_988_6730" result="shape"/>
</filter>
<filter id="filter2_d_988_6730" x="-5" y="724" width="370" height="80" filterUnits="userSpaceOnUse" color-interpolation-filters="sRGB">
<feFlood flood-opacity="0" result="BackgroundImageFix"/>
<feColorMatrix in="SourceAlpha" type="matrix" values="0 0 0 0 0 0 0 0 0 0 0 0 0 0 0 0 0 0 127 0" result="hardAlpha"/>
<feMorphology radius="1" operator="dilate" in="SourceAlpha" result="effect1_dropShadow_988_6730"/>
<feOffset dy="-1"/>
<feGaussianBlur stdDeviation="2"/>
<feComposite in2="hardAlpha" operator="out"/>
<feColorMatrix type="matrix" values="0 0 0 0 0 0 0 0 0 0 0 0 0 0 0 0 0 0 0.1 0"/>
<feBlend mode="normal" in2="BackgroundImageFix" result="effect1_dropShadow_988_6730"/>
<feBlend mode="normal" in="SourceGraphic" in2="effect1_dropShadow_988_6730" result="shape"/>
</filter>
<clipPath id="clip0_988_6730">
<rect width="360" height="800" fill="white"/>
</clipPath>
<clipPath id="clip1_988_6730">
<rect width="24" height="24" fill="white" transform="translate(240 743)"/>
</clipPath>
</defs>
</svg>
