<svg width="360" height="800" viewBox="0 0 360 800" fill="none" xmlns="http://www.w3.org/2000/svg">
<g clip-path="url(#clip0_988_7869)">
<rect width="360" height="800" fill="#D0D0D0"/>
<circle cx="-10.2213" cy="509.779" r="449" transform="rotate(28.8033 -10.2213 509.779)" fill="black" fill-opacity="0.1"/>
<path d="M24.836 20H23.471V13.838C23.471 13.6213 23.471 13.422 23.471 13.24C23.4797 13.0493 23.4883 12.8673 23.497 12.694C23.5057 12.512 23.5143 12.3387 23.523 12.174C23.4103 12.2867 23.2933 12.395 23.172 12.499C23.0507 12.603 22.912 12.7243 22.756 12.863L21.742 13.682L21.04 12.798L23.692 10.718H24.836V20ZM34.2905 15.346C34.2905 16.1 34.2298 16.7717 34.1085 17.361C33.9958 17.9503 33.8138 18.453 33.5625 18.869C33.3198 19.2763 32.9948 19.5883 32.5875 19.805C32.1888 20.0217 31.7078 20.13 31.1445 20.13C30.4338 20.13 29.8488 19.9393 29.3895 19.558C28.9301 19.1767 28.5878 18.6307 28.3625 17.92C28.1371 17.2007 28.0245 16.3427 28.0245 15.346C28.0245 14.3407 28.1241 13.4827 28.3235 12.772C28.5315 12.0613 28.8651 11.5197 29.3245 11.147C29.7838 10.7657 30.3905 10.575 31.1445 10.575C31.8551 10.575 32.4401 10.7657 32.8995 11.147C33.3675 11.5197 33.7141 12.0613 33.9395 12.772C34.1735 13.4827 34.2905 14.3407 34.2905 15.346ZM29.4025 15.346C29.4025 16.152 29.4588 16.8237 29.5715 17.361C29.6841 17.8983 29.8661 18.3013 30.1175 18.57C30.3775 18.8387 30.7198 18.973 31.1445 18.973C31.5691 18.973 31.9071 18.843 32.1585 18.583C32.4185 18.3143 32.6048 17.9113 32.7175 17.374C32.8388 16.828 32.8995 16.152 32.8995 15.346C32.8995 14.54 32.8388 13.8727 32.7175 13.344C32.6048 12.8067 32.4185 12.4037 32.1585 12.135C31.9071 11.8663 31.5691 11.732 31.1445 11.732C30.7198 11.732 30.3775 11.8663 30.1175 12.135C29.8661 12.4037 29.6841 12.8067 29.5715 13.344C29.4588 13.8727 29.4025 14.54 29.4025 15.346ZM35.7629 19.233C35.7629 18.895 35.8496 18.6567 36.0229 18.518C36.1962 18.3793 36.4042 18.31 36.6469 18.31C36.8982 18.31 37.1106 18.3793 37.2839 18.518C37.4572 18.6567 37.5439 18.895 37.5439 19.233C37.5439 19.571 37.4572 19.8137 37.2839 19.961C37.1106 20.1083 36.8982 20.182 36.6469 20.182C36.4042 20.182 36.1962 20.1083 36.0229 19.961C35.8496 19.8137 35.7629 19.571 35.7629 19.233ZM35.7629 13.773C35.7629 13.4177 35.8496 13.1707 36.0229 13.032C36.1962 12.8933 36.4042 12.824 36.6469 12.824C36.8982 12.824 37.1106 12.8933 37.2839 13.032C37.4572 13.1707 37.5439 13.4177 37.5439 13.773C37.5439 14.1023 37.4572 14.3407 37.2839 14.488C37.1106 14.6353 36.8982 14.709 36.6469 14.709C36.4042 14.709 36.1962 14.6353 36.0229 14.488C35.8496 14.3407 35.7629 14.1023 35.7629 13.773ZM45.2716 20H39.0316V18.934L41.4236 16.503C41.8916 16.0263 42.2816 15.6147 42.5936 15.268C42.9056 14.9127 43.1396 14.5747 43.2956 14.254C43.4516 13.9247 43.5296 13.5693 43.5296 13.188C43.5296 12.7113 43.3909 12.356 43.1136 12.122C42.8363 11.8793 42.4766 11.758 42.0346 11.758C41.6099 11.758 41.2286 11.8403 40.8906 12.005C40.5526 12.161 40.2016 12.382 39.8376 12.668L39.0966 11.745C39.3479 11.5283 39.6166 11.3333 39.9026 11.16C40.1973 10.9867 40.5223 10.848 40.8776 10.744C41.2416 10.64 41.6403 10.588 42.0736 10.588C42.6629 10.588 43.1699 10.692 43.5946 10.9C44.0193 11.0993 44.3443 11.3853 44.5696 11.758C44.8036 12.1307 44.9206 12.5683 44.9206 13.071C44.9206 13.4437 44.8643 13.7947 44.7516 14.124C44.6389 14.4447 44.4743 14.761 44.2576 15.073C44.0496 15.385 43.7939 15.7013 43.4906 16.022C43.1873 16.3427 42.8536 16.6807 42.4896 17.036L40.7606 18.713V18.778H45.2716V20ZM52.711 20H46.471V18.934L48.863 16.503C49.331 16.0263 49.721 15.6147 50.033 15.268C50.345 14.9127 50.579 14.5747 50.735 14.254C50.891 13.9247 50.969 13.5693 50.969 13.188C50.969 12.7113 50.8304 12.356 50.553 12.122C50.2757 11.8793 49.916 11.758 49.474 11.758C49.0494 11.758 48.668 11.8403 48.33 12.005C47.992 12.161 47.641 12.382 47.277 12.668L46.536 11.745C46.7874 11.5283 47.056 11.3333 47.342 11.16C47.6367 10.9867 47.9617 10.848 48.317 10.744C48.681 10.64 49.0797 10.588 49.513 10.588C50.1024 10.588 50.6094 10.692 51.034 10.9C51.4587 11.0993 51.7837 11.3853 52.009 11.758C52.243 12.1307 52.36 12.5683 52.36 13.071C52.36 13.4437 52.3037 13.7947 52.191 14.124C52.0784 14.4447 51.9137 14.761 51.697 15.073C51.489 15.385 51.2334 15.7013 50.93 16.022C50.6267 16.3427 50.293 16.6807 49.929 17.036L48.2 18.713V18.778H52.711V20Z" fill="black"/>
<path d="M299.233 17.2332L297.833 15.7998C298.522 15.1109 299.311 14.5832 300.2 14.2165C301.089 13.8498 302.022 13.6665 303 13.6665C303.978 13.6665 304.914 13.8527 305.809 14.2252C306.703 14.5976 307.489 15.1336 308.167 15.8332L306.767 17.2332C306.267 16.7332 305.692 16.3472 305.041 16.0752C304.391 15.8032 303.711 15.6669 303 15.6665C302.289 15.6665 301.608 15.8027 300.959 16.0752C300.309 16.3476 299.734 16.7336 299.233 17.2332ZM296.4 14.3998L295 12.9998C296.056 11.9221 297.275 11.0969 298.659 10.5245C300.042 9.95206 301.489 9.66606 303 9.6665C304.511 9.6665 305.958 9.95273 307.342 10.5252C308.726 11.0976 309.945 11.9225 311 12.9998L309.6 14.3998C308.722 13.5221 307.714 12.8472 306.575 12.3752C305.436 11.9032 304.244 11.6669 303 11.6665C301.756 11.6665 300.564 11.9027 299.425 12.3752C298.286 12.8476 297.277 13.5225 296.4 14.3998ZM303 20.9998L300.65 18.6332C300.961 18.3221 301.32 18.0832 301.725 17.9165C302.131 17.7498 302.556 17.6665 303 17.6665C303.444 17.6665 303.87 17.7498 304.275 17.9165C304.681 18.0832 305.039 18.3221 305.35 18.6332L303 20.9998Z" fill="black"/>
<rect x="319.35" y="11.35" width="16.4905" height="7.44286" rx="1.65" stroke="black" stroke-width="0.7"/>
<rect x="320" y="12" width="12" height="6" rx="2" fill="black"/>
<rect x="336.44" y="13.0596" width="1.30952" height="4.02381" rx="0.25" fill="black" stroke="black" stroke-width="0.5"/>
<rect x="271" y="15" width="3" height="6" rx="0.5" fill="black"/>
<rect x="275" y="13" width="3" height="8" rx="0.5" fill="black"/>
<rect x="279" y="11" width="3" height="10" rx="0.5" fill="black"/>
<rect x="283" y="9" width="3" height="12" rx="0.5" fill="black"/>
<path d="M103.133 104H92.1554V101.69L96.0934 97.708C96.8854 96.8867 97.5234 96.2047 98.0074 95.662C98.4914 95.1047 98.8434 94.606 99.0634 94.166C99.2834 93.7113 99.3934 93.2273 99.3934 92.714C99.3934 92.0833 99.2174 91.614 98.8654 91.306C98.5281 90.998 98.0661 90.844 97.4794 90.844C96.8781 90.844 96.2914 90.9833 95.7194 91.262C95.1474 91.5407 94.5461 91.9367 93.9154 92.45L92.1114 90.316C92.5661 89.92 93.0427 89.5533 93.5414 89.216C94.0547 88.8787 94.6414 88.6073 95.3014 88.402C95.9761 88.182 96.7827 88.072 97.7214 88.072C98.7481 88.072 99.6281 88.2627 100.361 88.644C101.109 89.0107 101.681 89.5167 102.077 90.162C102.488 90.7927 102.693 91.5113 102.693 92.318C102.693 92.978 102.591 93.5867 102.385 94.144C102.195 94.7013 101.909 95.244 101.527 95.772C101.161 96.2853 100.706 96.8207 100.163 97.378C99.6207 97.9207 99.0047 98.5147 98.3154 99.16L96.2914 101.052V101.206H103.133V104ZM115.635 96.146C115.635 97.4073 115.533 98.5367 115.327 99.534C115.137 100.531 114.821 101.382 114.381 102.086C113.956 102.775 113.391 103.303 112.687 103.67C111.998 104.037 111.147 104.22 110.135 104.22C108.874 104.22 107.84 103.897 107.033 103.252C106.227 102.607 105.625 101.683 105.229 100.48C104.848 99.2773 104.657 97.8327 104.657 96.146C104.657 94.4447 104.833 92.9927 105.185 91.79C105.537 90.5873 106.117 89.6633 106.923 89.018C107.73 88.3727 108.801 88.05 110.135 88.05C111.397 88.05 112.431 88.3727 113.237 89.018C114.044 89.6487 114.645 90.5727 115.041 91.79C115.437 92.9927 115.635 94.4447 115.635 96.146ZM107.957 96.146C107.957 97.334 108.023 98.3313 108.155 99.138C108.287 99.93 108.507 100.531 108.815 100.942C109.138 101.338 109.578 101.536 110.135 101.536C110.693 101.536 111.125 101.338 111.433 100.942C111.756 100.546 111.983 99.952 112.115 99.16C112.262 98.3533 112.335 97.3487 112.335 96.146C112.335 94.9433 112.262 93.946 112.115 93.154C111.983 92.3473 111.756 91.746 111.433 91.35C111.125 90.9393 110.693 90.734 110.135 90.734C109.578 90.734 109.138 90.9393 108.815 91.35C108.507 91.746 108.287 92.3473 108.155 93.154C108.023 93.946 107.957 94.9433 107.957 96.146ZM120.833 88.072C122.065 88.072 122.996 88.5047 123.627 89.37C124.272 90.2207 124.595 91.4233 124.595 92.978C124.595 94.5327 124.294 95.75 123.693 96.63C123.092 97.4953 122.138 97.928 120.833 97.928C120.026 97.928 119.344 97.73 118.787 97.334C118.244 96.938 117.834 96.3733 117.555 95.64C117.276 94.892 117.137 94.0047 117.137 92.978C117.137 91.4233 117.43 90.2207 118.017 89.37C118.604 88.5047 119.542 88.072 120.833 88.072ZM120.855 90.316C120.503 90.316 120.246 90.536 120.085 90.976C119.924 91.416 119.843 92.0907 119.843 93C119.843 93.8947 119.924 94.5693 120.085 95.024C120.246 95.4787 120.503 95.706 120.855 95.706C121.207 95.706 121.464 95.4787 121.625 95.024C121.801 94.5693 121.889 93.8947 121.889 93C121.889 92.0907 121.801 91.416 121.625 90.976C121.464 90.536 121.207 90.316 120.855 90.316ZM131.987 88.292L123.275 104H120.701L129.413 88.292H131.987ZM131.833 94.342C132.654 94.342 133.344 94.54 133.901 94.936C134.458 95.3173 134.876 95.8747 135.155 96.608C135.448 97.3267 135.595 98.2067 135.595 99.248C135.595 100.803 135.294 102.02 134.693 102.9C134.092 103.765 133.138 104.198 131.833 104.198C131.026 104.198 130.344 104 129.787 103.604C129.244 103.208 128.834 102.643 128.555 101.91C128.276 101.162 128.137 100.275 128.137 99.248C128.137 97.6933 128.43 96.4907 129.017 95.64C129.604 94.7747 130.542 94.342 131.833 94.342ZM131.855 96.586C131.503 96.586 131.246 96.806 131.085 97.246C130.924 97.686 130.843 98.3607 130.843 99.27C130.843 100.165 130.924 100.839 131.085 101.294C131.246 101.749 131.503 101.976 131.855 101.976C132.207 101.976 132.464 101.756 132.625 101.316C132.801 100.861 132.889 100.179 132.889 99.27C132.889 98.3607 132.801 97.686 132.625 97.246C132.464 96.806 132.207 96.586 131.855 96.586ZM146.444 91.218H148.644V91.746C148.644 95.97 147.412 100.216 144.156 102.086L142.506 99.886C145.41 98.192 146.444 94.87 146.444 91.746V91.218ZM147.016 91.218H149.216V91.746C149.216 94.804 150.272 97.906 153.154 99.446L151.57 101.602C148.27 99.886 147.016 95.904 147.016 91.746V91.218ZM143.188 89.018H152.45V91.372H143.188V89.018ZM146.444 86.268H149.216V90.91H146.444V86.268ZM157.752 85.586H160.524V105.958H157.752V85.586ZM155.31 93.396H158.698V95.772H155.31V93.396ZM153.374 85.894H156.102V105.034H153.374V85.894ZM168.046 97.07H170.972V105.342H168.046V97.07ZM177.44 85.586H180.388V105.958H177.44V85.586ZM163.404 98.302L163.052 95.926C166.836 95.926 171.83 95.904 176.164 95.31L176.318 97.444C171.874 98.236 167.122 98.302 163.404 98.302ZM173.37 99.292H178.034V101.492H173.37V99.292ZM169.652 86.422C172.644 86.422 174.822 88.138 174.822 90.602C174.822 93.088 172.644 94.782 169.652 94.782C166.616 94.782 164.46 93.088 164.46 90.602C164.46 88.138 166.616 86.422 169.652 86.422ZM169.652 88.622C168.2 88.622 167.188 89.37 167.188 90.602C167.188 91.856 168.2 92.56 169.652 92.56C171.06 92.56 172.072 91.856 172.072 90.602C172.072 89.37 171.06 88.622 169.652 88.622ZM197.481 85.586H200.407V97.356H197.481V85.586ZM188.087 87.918H190.485V89.216C190.485 93.044 188.659 96.476 184.765 97.752L183.291 95.442C186.657 94.364 188.087 91.768 188.087 89.216V87.918ZM188.725 87.918H191.079V89.194C191.079 91.614 192.443 94.056 195.677 95.09L194.247 97.356C190.441 96.146 188.725 92.868 188.725 89.194V87.918ZM194.599 89.106H198.383V91.438H194.599V89.106ZM184.127 86.774H194.973V89.106H184.127V86.774ZM194.599 92.736H198.383V95.046H194.599V92.736ZM188.175 98.016H190.397V98.544C190.397 101.668 189.033 104.528 185.843 105.694L184.413 103.56C187.075 102.636 188.175 100.568 188.175 98.544V98.016ZM188.923 98.016H191.035V98.544C191.035 100.568 192.003 102.702 194.533 103.758L193.323 105.892C190.089 104.682 188.923 101.58 188.923 98.544V98.016ZM195.611 98.016H197.701V98.544C197.701 101.382 196.513 104.616 193.323 105.892L192.113 103.758C194.621 102.592 195.611 100.37 195.611 98.544V98.016ZM196.293 98.016H198.493V98.544C198.493 100.7 199.571 102.702 202.299 103.56L200.825 105.694C197.613 104.572 196.293 101.8 196.293 98.544V98.016ZM205.751 97.796H208.633V99.512H216.795V97.796H219.699V105.738H205.751V97.796ZM208.633 101.69V103.45H216.795V101.69H208.633ZM203.595 94.474H222.009V96.784H203.595V94.474ZM211.317 85.806H213.825V86.422C213.825 89.964 210.789 92.89 205.531 93.572L204.497 91.306C209.095 90.756 211.317 88.49 211.317 86.422V85.806ZM211.801 85.806H214.309V86.422C214.309 88.468 216.531 90.756 221.107 91.306L220.073 93.572C214.815 92.89 211.801 89.942 211.801 86.422V85.806ZM237.935 85.586H240.861V105.958H237.935V85.586ZM224.911 87.522H227.815V100.172H224.911V87.522ZM224.911 98.456H226.715C229.685 98.456 232.985 98.236 236.351 97.576L236.681 99.996C233.183 100.722 229.817 100.942 226.715 100.942H224.911V98.456ZM257.095 85.564H260.043V106.002H257.095V85.564ZM259.383 93.11H262.991V95.508H259.383V93.11ZM244.863 98.676H246.579C250.011 98.676 252.717 98.566 255.709 98.038L255.995 100.458C252.915 101.008 250.121 101.096 246.579 101.096H244.863V98.676ZM244.863 87.456H254.367V89.81H247.767V99.842H244.863V87.456ZM267.896 98.786H265.278L264.728 88.292H268.446L267.896 98.786ZM264.684 102.46C264.684 101.785 264.867 101.316 265.234 101.052C265.6 100.773 266.048 100.634 266.576 100.634C267.089 100.634 267.529 100.773 267.896 101.052C268.262 101.316 268.446 101.785 268.446 102.46C268.446 103.105 268.262 103.575 267.896 103.868C267.529 104.147 267.089 104.286 266.576 104.286C266.048 104.286 265.6 104.147 265.234 103.868C264.867 103.575 264.684 103.105 264.684 102.46Z" fill="black" fill-opacity="0.87"/>
<path d="M134.638 118.436H135.8V125.59H134.638V118.436ZM135.436 121.516H137.676V122.482H135.436V121.516ZM127.736 126.276H136.136V127.228H127.736V126.276ZM127.624 129.958H136.29V130.896H127.624V129.958ZM129.486 126.5H130.634V130.406H129.486V126.5ZM133.252 126.5H134.386V130.406H133.252V126.5ZM129.514 119.164C131.432 119.164 132.818 120.382 132.818 122.132C132.818 123.882 131.432 125.1 129.514 125.1C127.596 125.1 126.21 123.882 126.21 122.132C126.21 120.382 127.596 119.164 129.514 119.164ZM129.514 120.13C128.254 120.13 127.344 120.956 127.344 122.132C127.344 123.308 128.254 124.134 129.514 124.134C130.774 124.134 131.684 123.308 131.684 122.132C131.684 120.956 130.774 120.13 129.514 120.13ZM144.577 119.234C147.209 119.234 149.169 120.634 149.169 122.734C149.169 124.848 147.209 126.234 144.577 126.234C141.945 126.234 139.971 124.848 139.971 122.734C139.971 120.634 141.945 119.234 144.577 119.234ZM144.577 120.186C142.575 120.186 141.091 121.208 141.091 122.734C141.091 124.246 142.575 125.282 144.577 125.282C146.579 125.282 148.063 124.246 148.063 122.734C148.063 121.208 146.579 120.186 144.577 120.186ZM138.865 128.446H150.331V129.426H138.865V128.446ZM151.744 128.572H163.21V129.538H151.744V128.572ZM156.868 125.856H158.03V128.978H156.868V125.856ZM153.13 119.374H161.796V123.21H154.32V125.744H153.172V122.272H160.648V120.312H153.13V119.374ZM153.172 125.254H162.09V126.206H153.172V125.254ZM177.458 118.436H178.634V126.094H177.458V118.436ZM170.458 126.766H178.634V130.924H170.458V126.766ZM177.486 127.704H171.592V129.986H177.486V127.704ZM168.442 119.78H176.128V120.718H168.442V119.78ZM172.278 121.334C174.14 121.334 175.372 122.216 175.372 123.602C175.372 124.988 174.14 125.842 172.278 125.842C170.43 125.842 169.198 124.988 169.198 123.602C169.198 122.216 170.43 121.334 172.278 121.334ZM172.278 122.23C171.088 122.23 170.29 122.748 170.29 123.602C170.29 124.442 171.088 124.96 172.278 124.96C173.482 124.96 174.266 124.442 174.266 123.602C174.266 122.748 173.482 122.23 172.278 122.23ZM171.704 118.324H172.866V120.284H171.704V118.324ZM190.742 118.436H191.862V131.092H190.742V118.436ZM188.614 123.588H191.05V124.54H188.614V123.588ZM187.872 118.716H188.964V130.448H187.872V118.716ZM181.74 119.962H182.902V127.27H181.74V119.962ZM181.74 126.808H182.552C183.854 126.808 185.31 126.724 186.962 126.402L187.088 127.41C185.366 127.746 183.91 127.816 182.552 127.816H181.74V126.808ZM194.017 128.516H205.483V129.482H194.017V128.516ZM199.141 125.492H200.303V128.796H199.141V125.492ZM195.361 119.332H196.509V121.586H202.963V119.332H204.111V125.8H195.361V119.332ZM196.509 122.524V124.848H202.963V122.524H196.509ZM211.88 122.958H214.302V123.924H211.88V122.958ZM209.514 119.626H210.424V122.034C210.424 124.68 209.318 127.242 207.47 128.376L206.742 127.494C208.478 126.472 209.514 124.204 209.514 122.034V119.626ZM209.738 119.626H210.634V121.992C210.634 124.022 211.586 126.178 213.252 127.186L212.58 128.096C210.76 126.976 209.738 124.456 209.738 121.992V119.626ZM216.528 118.436H217.648V131.092H216.528V118.436ZM213.966 118.702H215.058V130.462H213.966V118.702ZM222.575 124.946H223.723V128.74H222.575V124.946ZM227.251 124.946H228.413V128.74H227.251V124.946ZM219.775 128.516H231.241V129.482H219.775V128.516ZM225.487 119.234C228.161 119.234 230.079 120.508 230.079 122.496C230.079 124.47 228.161 125.744 225.487 125.744C222.799 125.744 220.881 124.47 220.881 122.496C220.881 120.508 222.799 119.234 225.487 119.234ZM225.487 120.158C223.457 120.158 222.001 121.082 222.001 122.496C222.001 123.896 223.457 124.82 225.487 124.82C227.517 124.82 228.959 123.896 228.959 122.496C228.959 121.082 227.517 120.158 225.487 120.158ZM234.236 127.186H233.438L233.088 120.004H234.586L234.236 127.186ZM232.962 129.244C232.962 128.899 233.046 128.656 233.214 128.516C233.382 128.376 233.587 128.306 233.83 128.306C234.063 128.306 234.264 128.376 234.432 128.516C234.609 128.656 234.698 128.899 234.698 129.244C234.698 129.58 234.609 129.823 234.432 129.972C234.264 130.121 234.063 130.196 233.83 130.196C233.587 130.196 233.382 130.121 233.214 129.972C233.046 129.823 232.962 129.58 232.962 129.244Z" fill="black" fill-opacity="0.34"/>
<path d="M140.636 476.934H143.048V493.656H140.636V476.934ZM130.214 487.68H131.654C135.164 487.68 137.144 487.608 139.376 487.194L139.592 489.156C137.342 489.606 135.236 489.678 131.654 489.678H130.214V487.68ZM130.214 478.41H138.26V480.336H132.59V488.436H130.214V478.41ZM152.083 482.208H154.459V484.422H152.083V482.208ZM153.307 477.096C157.105 477.096 159.337 478.086 159.337 479.922C159.337 481.758 157.105 482.766 153.307 482.766C149.491 482.766 147.277 481.758 147.277 479.922C147.277 478.086 149.491 477.096 153.307 477.096ZM153.307 478.842C150.895 478.842 149.761 479.184 149.761 479.922C149.761 480.696 150.895 481.02 153.307 481.02C155.719 481.02 156.853 480.696 156.853 479.922C156.853 479.184 155.719 478.842 153.307 478.842ZM145.765 483.684H160.831V485.574H145.765V483.684ZM147.493 486.456H159.013V490.74H149.869V492.216H147.511V489.084H156.655V488.238H147.493V486.456ZM147.511 491.694H159.445V493.494H147.511V491.694ZM167.449 487.752H168.637C170.653 487.752 172.435 487.698 174.505 487.338L174.703 489.264C172.561 489.66 170.725 489.714 168.637 489.714H167.449V487.752ZM167.431 478.572H173.317V484.944H169.771V488.508H167.449V483.072H171.013V480.462H167.431V478.572ZM179.041 476.934H181.309V493.602H179.041V476.934ZM174.001 482.604H176.593V484.566H174.001V482.604ZM175.657 477.24H177.871V492.81H175.657V477.24ZM194.988 476.916H197.4V493.638H194.988V476.916ZM188.418 478.086C190.938 478.086 192.792 480.39 192.792 484.026C192.792 487.698 190.938 490.002 188.418 490.002C185.898 490.002 184.044 487.698 184.044 484.026C184.044 480.39 185.898 478.086 188.418 478.086ZM188.418 480.264C187.176 480.264 186.33 481.578 186.33 484.026C186.33 486.51 187.176 487.842 188.418 487.842C189.66 487.842 190.488 486.51 190.488 484.026C190.488 481.578 189.66 480.264 188.418 480.264ZM211.546 476.934H213.958V493.656H211.546V476.934ZM201.124 487.68H202.564C206.074 487.68 208.054 487.608 210.286 487.194L210.502 489.156C208.252 489.606 206.146 489.678 202.564 489.678H201.124V487.68ZM201.124 478.41H209.17V480.336H203.5V488.436H201.124V478.41ZM217.251 477.996H219.501V480.336H221.625V477.996H223.857V486.06H217.251V477.996ZM219.501 482.172V484.188H221.625V482.172H219.501ZM228.609 476.952H230.877V486.978H228.609V476.952ZM226.611 481.002H229.257V482.946H226.611V481.002ZM225.081 477.24H227.313V486.906H225.081V477.24ZM219.429 487.734H230.877V493.602H228.501V489.642H219.429V487.734Z" fill="black" fill-opacity="0.87"/>
<g filter="url(#filter0_d_988_7869)">
<circle cx="180" cy="324" r="140" fill="white"/>
</g>
<circle cx="180" cy="324" r="129" fill="black" fill-opacity="0.1"/>
<path d="M180 195C207.242 195 233.785 203.624 255.824 219.637C277.864 235.649 294.268 258.228 302.686 284.137L180 324L180 195Z" fill="black" fill-opacity="0.34"/>
<circle cx="180" cy="324" r="108" fill="white"/>
<circle cx="177.5" cy="205.5" r="10.5" fill="#989898"/>
<circle cx="177.5" cy="205.5" r="4.5" fill="white"/>
<circle cx="292.5" cy="288.5" r="13.5" fill="#989898"/>
<circle cx="292.5" cy="288.5" r="8.5" fill="white"/>
<rect x="128" y="576" width="105" height="135" rx="10" fill="white"/>
<rect x="128.5" y="576.5" width="104" height="134" rx="9.5" stroke="black" stroke-opacity="0.1"/>
<path d="M166.69 678.504H167.554C169.582 678.504 170.998 678.444 172.666 678.168L172.762 678.972C171.058 679.272 169.618 679.332 167.554 679.332H166.69V678.504ZM166.69 672.072H171.946V672.9H167.674V678.792H166.69V672.072ZM167.434 675.108H171.55V675.912H167.434V675.108ZM173.902 671.088H174.898V681.936H173.902V671.088ZM184.965 671.076H185.973V681.948H184.965V671.076ZM182.625 673.44H185.505V674.268H182.625V673.44ZM182.625 676.14H185.505V676.98H182.625V676.14ZM179.841 672.024H180.645V673.956C180.645 676.392 179.373 678.72 177.657 679.644L177.021 678.852C178.617 678.06 179.841 675.972 179.841 673.956V672.024ZM180.033 672.024H180.837V673.956C180.837 675.948 182.061 677.94 183.633 678.684L183.033 679.488C181.293 678.588 180.033 676.344 180.033 673.956V672.024ZM188.084 679.728H197.912V680.556H188.084V679.728ZM192.488 673.392H193.364V673.632C193.364 675.924 191.384 677.46 189.056 677.928L188.66 677.112C190.736 676.74 192.488 675.384 192.488 673.632V673.392ZM192.62 673.392H193.484V673.632C193.484 675.384 195.236 676.74 197.312 677.112L196.916 677.928C194.588 677.46 192.62 675.924 192.62 673.632V673.392ZM188.984 672.816H196.976V673.632H188.984V672.816ZM192.488 671.34H193.484V673.116H192.488V671.34Z" fill="black" fill-opacity="0.34"/>
<path d="M150.621 695H146.845V694.416L148.341 692.904C148.629 692.616 148.872 692.36 149.069 692.136C149.266 691.912 149.416 691.693 149.517 691.48C149.618 691.261 149.669 691.024 149.669 690.768C149.669 690.453 149.576 690.216 149.389 690.056C149.202 689.891 148.96 689.808 148.661 689.808C148.384 689.808 148.138 689.856 147.925 689.952C147.717 690.048 147.504 690.181 147.285 690.352L146.909 689.88C147.058 689.752 147.221 689.637 147.397 689.536C147.578 689.435 147.773 689.355 147.981 689.296C148.194 689.237 148.421 689.208 148.661 689.208C149.018 689.208 149.325 689.269 149.581 689.392C149.837 689.515 150.034 689.691 150.173 689.92C150.317 690.144 150.389 690.413 150.389 690.728C150.389 690.952 150.354 691.165 150.285 691.368C150.216 691.565 150.117 691.76 149.989 691.952C149.861 692.144 149.706 692.339 149.525 692.536C149.344 692.733 149.144 692.939 148.925 693.152L147.733 694.328V694.36H150.621V695ZM154.983 690.624C154.983 690.88 154.935 691.101 154.839 691.288C154.743 691.475 154.604 691.627 154.423 691.744C154.247 691.861 154.039 691.944 153.799 691.992V692.024C154.258 692.077 154.599 692.221 154.823 692.456C155.047 692.691 155.159 692.997 155.159 693.376C155.159 693.707 155.082 694.003 154.927 694.264C154.772 694.52 154.532 694.72 154.207 694.864C153.887 695.008 153.474 695.08 152.967 695.08C152.668 695.08 152.391 695.056 152.135 695.008C151.879 694.965 151.634 694.885 151.399 694.768V694.112C151.639 694.229 151.898 694.323 152.175 694.392C152.452 694.456 152.719 694.488 152.975 694.488C153.487 694.488 153.855 694.389 154.079 694.192C154.308 693.989 154.423 693.712 154.423 693.36C154.423 693.12 154.359 692.928 154.231 692.784C154.108 692.635 153.927 692.525 153.687 692.456C153.447 692.387 153.159 692.352 152.823 692.352H152.271V691.752H152.831C153.146 691.752 153.407 691.707 153.615 691.616C153.828 691.525 153.988 691.4 154.095 691.24C154.207 691.075 154.263 690.885 154.263 690.672C154.263 690.395 154.17 690.181 153.983 690.032C153.796 689.877 153.543 689.8 153.223 689.8C153.02 689.8 152.836 689.821 152.671 689.864C152.506 689.901 152.351 689.957 152.207 690.032C152.068 690.101 151.927 690.184 151.783 690.28L151.431 689.8C151.57 689.693 151.727 689.595 151.903 689.504C152.084 689.413 152.284 689.341 152.503 689.288C152.722 689.235 152.959 689.208 153.215 689.208C153.812 689.208 154.255 689.341 154.543 689.608C154.836 689.875 154.983 690.213 154.983 690.624ZM156.193 694.568C156.193 694.371 156.241 694.232 156.337 694.152C156.433 694.072 156.548 694.032 156.681 694.032C156.82 694.032 156.937 694.072 157.033 694.152C157.135 694.232 157.185 694.371 157.185 694.568C157.185 694.76 157.135 694.899 157.033 694.984C156.937 695.069 156.82 695.112 156.681 695.112C156.548 695.112 156.433 695.069 156.337 694.984C156.241 694.899 156.193 694.76 156.193 694.568ZM160.598 695H159.91V691.008C159.91 690.853 159.91 690.723 159.91 690.616C159.915 690.509 159.92 690.411 159.926 690.32C159.931 690.224 159.936 690.125 159.942 690.024C159.856 690.109 159.779 690.181 159.71 690.24C159.64 690.299 159.552 690.373 159.446 690.464L158.838 690.96L158.47 690.488L160.014 689.288H160.598V695ZM166.52 692.136C166.52 692.6 166.485 693.013 166.416 693.376C166.347 693.739 166.235 694.048 166.08 694.304C165.931 694.555 165.733 694.747 165.488 694.88C165.248 695.013 164.957 695.08 164.616 695.08C164.189 695.08 163.835 694.963 163.552 694.728C163.275 694.493 163.067 694.157 162.928 693.72C162.795 693.277 162.728 692.749 162.728 692.136C162.728 691.517 162.789 690.989 162.912 690.552C163.04 690.115 163.243 689.781 163.52 689.552C163.797 689.317 164.163 689.2 164.616 689.2C165.043 689.2 165.397 689.317 165.68 689.552C165.963 689.781 166.173 690.115 166.312 690.552C166.451 690.989 166.52 691.517 166.52 692.136ZM163.432 692.136C163.432 692.659 163.469 693.093 163.544 693.44C163.624 693.787 163.749 694.048 163.92 694.224C164.096 694.395 164.328 694.48 164.616 694.48C164.904 694.48 165.133 694.395 165.304 694.224C165.48 694.053 165.608 693.795 165.688 693.448C165.768 693.096 165.808 692.659 165.808 692.136C165.808 691.613 165.768 691.181 165.688 690.84C165.608 690.493 165.48 690.235 165.304 690.064C165.133 689.888 164.904 689.8 164.616 689.8C164.328 689.8 164.096 689.888 163.92 690.064C163.749 690.235 163.624 690.493 163.544 690.84C163.469 691.181 163.432 691.613 163.432 692.136ZM167.49 694.568C167.49 694.371 167.538 694.232 167.634 694.152C167.73 694.072 167.845 694.032 167.978 694.032C168.117 694.032 168.234 694.072 168.33 694.152C168.431 694.232 168.482 694.371 168.482 694.568C168.482 694.76 168.431 694.899 168.33 694.984C168.234 695.069 168.117 695.112 167.978 695.112C167.845 695.112 167.73 695.069 167.634 694.984C167.538 694.899 167.49 694.76 167.49 694.568ZM171.895 695H171.207V691.008C171.207 690.853 171.207 690.723 171.207 690.616C171.212 690.509 171.217 690.411 171.223 690.32C171.228 690.224 171.233 690.125 171.239 690.024C171.153 690.109 171.076 690.181 171.007 690.24C170.937 690.299 170.849 690.373 170.743 690.464L170.135 690.96L169.767 690.488L171.311 689.288H171.895V695ZM177.817 692.136C177.817 692.6 177.782 693.013 177.713 693.376C177.643 693.739 177.531 694.048 177.377 694.304C177.227 694.555 177.03 694.747 176.785 694.88C176.545 695.013 176.254 695.08 175.913 695.08C175.486 695.08 175.131 694.963 174.849 694.728C174.571 694.493 174.363 694.157 174.225 693.72C174.091 693.277 174.025 692.749 174.025 692.136C174.025 691.517 174.086 690.989 174.209 690.552C174.337 690.115 174.539 689.781 174.817 689.552C175.094 689.317 175.459 689.2 175.913 689.2C176.339 689.2 176.694 689.317 176.977 689.552C177.259 689.781 177.47 690.115 177.609 690.552C177.747 690.989 177.817 691.517 177.817 692.136ZM174.729 692.136C174.729 692.659 174.766 693.093 174.841 693.44C174.921 693.787 175.046 694.048 175.217 694.224C175.393 694.395 175.625 694.48 175.913 694.48C176.201 694.48 176.43 694.395 176.601 694.224C176.777 694.053 176.905 693.795 176.985 693.448C177.065 693.096 177.105 692.659 177.105 692.136C177.105 691.613 177.065 691.181 176.985 690.84C176.905 690.493 176.777 690.235 176.601 690.064C176.43 689.888 176.201 689.8 175.913 689.8C175.625 689.8 175.393 689.888 175.217 690.064C175.046 690.235 174.921 690.493 174.841 690.84C174.766 691.181 174.729 691.613 174.729 692.136ZM180.363 692.448C180.171 692.363 180.011 692.307 179.883 692.28C179.76 692.248 179.64 692.232 179.523 692.232C179.374 692.232 179.216 692.277 179.051 692.368C178.886 692.459 178.739 692.571 178.611 692.704V692.08C178.739 691.941 178.883 691.837 179.043 691.768C179.203 691.693 179.379 691.656 179.571 691.656C179.726 691.656 179.878 691.672 180.027 691.704C180.182 691.736 180.382 691.805 180.627 691.912C180.819 691.997 180.976 692.056 181.099 692.088C181.227 692.115 181.347 692.128 181.459 692.128C181.614 692.128 181.774 692.083 181.939 691.992C182.104 691.901 182.251 691.789 182.379 691.656V692.272C182.251 692.411 182.107 692.517 181.947 692.592C181.787 692.667 181.611 692.704 181.419 692.704C181.27 692.704 181.115 692.688 180.955 692.656C180.8 692.619 180.603 692.549 180.363 692.448ZM186.949 695H183.173V694.416L184.669 692.904C184.957 692.616 185.2 692.36 185.397 692.136C185.594 691.912 185.744 691.693 185.845 691.48C185.946 691.261 185.997 691.024 185.997 690.768C185.997 690.453 185.904 690.216 185.717 690.056C185.53 689.891 185.288 689.808 184.989 689.808C184.712 689.808 184.466 689.856 184.253 689.952C184.045 690.048 183.832 690.181 183.613 690.352L183.237 689.88C183.386 689.752 183.549 689.637 183.725 689.536C183.906 689.435 184.101 689.355 184.309 689.296C184.522 689.237 184.749 689.208 184.989 689.208C185.346 689.208 185.653 689.269 185.909 689.392C186.165 689.515 186.362 689.691 186.501 689.92C186.645 690.144 186.717 690.413 186.717 690.728C186.717 690.952 186.682 691.165 186.613 691.368C186.544 691.565 186.445 691.76 186.317 691.952C186.189 692.144 186.034 692.339 185.853 692.536C185.672 692.733 185.472 692.939 185.253 693.152L184.061 694.328V694.36H186.949V695ZM191.311 690.624C191.311 690.88 191.263 691.101 191.167 691.288C191.071 691.475 190.933 691.627 190.751 691.744C190.575 691.861 190.367 691.944 190.127 691.992V692.024C190.586 692.077 190.927 692.221 191.151 692.456C191.375 692.691 191.487 692.997 191.487 693.376C191.487 693.707 191.41 694.003 191.255 694.264C191.101 694.52 190.861 694.72 190.535 694.864C190.215 695.008 189.802 695.08 189.295 695.08C188.997 695.08 188.719 695.056 188.463 695.008C188.207 694.965 187.962 694.885 187.727 694.768V694.112C187.967 694.229 188.226 694.323 188.503 694.392C188.781 694.456 189.047 694.488 189.303 694.488C189.815 694.488 190.183 694.389 190.407 694.192C190.637 693.989 190.751 693.712 190.751 693.36C190.751 693.12 190.687 692.928 190.559 692.784C190.437 692.635 190.255 692.525 190.015 692.456C189.775 692.387 189.487 692.352 189.151 692.352H188.599V691.752H189.159C189.474 691.752 189.735 691.707 189.943 691.616C190.157 691.525 190.317 691.4 190.423 691.24C190.535 691.075 190.591 690.885 190.591 690.672C190.591 690.395 190.498 690.181 190.311 690.032C190.125 689.877 189.871 689.8 189.551 689.8C189.349 689.8 189.165 689.821 188.999 689.864C188.834 689.901 188.679 689.957 188.535 690.032C188.397 690.101 188.255 690.184 188.111 690.28L187.759 689.8C187.898 689.693 188.055 689.595 188.231 689.504C188.413 689.413 188.613 689.341 188.831 689.288C189.05 689.235 189.287 689.208 189.543 689.208C190.141 689.208 190.583 689.341 190.871 689.608C191.165 689.875 191.311 690.213 191.311 690.624ZM192.521 694.568C192.521 694.371 192.569 694.232 192.665 694.152C192.761 694.072 192.876 694.032 193.009 694.032C193.148 694.032 193.265 694.072 193.361 694.152C193.463 694.232 193.513 694.371 193.513 694.568C193.513 694.76 193.463 694.899 193.361 694.984C193.265 695.069 193.148 695.112 193.009 695.112C192.876 695.112 192.761 695.069 192.665 694.984C192.569 694.899 192.521 694.76 192.521 694.568ZM196.926 695H196.238V691.008C196.238 690.853 196.238 690.723 196.238 690.616C196.243 690.509 196.249 690.411 196.254 690.32C196.259 690.224 196.265 690.125 196.27 690.024C196.185 690.109 196.107 690.181 196.038 690.24C195.969 690.299 195.881 690.373 195.774 690.464L195.166 690.96L194.798 690.488L196.342 689.288H196.926V695ZM201.504 695H200.816V691.008C200.816 690.853 200.816 690.723 200.816 690.616C200.821 690.509 200.827 690.411 200.832 690.32C200.837 690.224 200.843 690.125 200.848 690.024C200.763 690.109 200.685 690.181 200.616 690.24C200.547 690.299 200.459 690.373 200.352 690.464L199.744 690.96L199.376 690.488L200.92 689.288H201.504V695ZM203.818 694.568C203.818 694.371 203.866 694.232 203.962 694.152C204.058 694.072 204.173 694.032 204.306 694.032C204.445 694.032 204.562 694.072 204.658 694.152C204.76 694.232 204.81 694.371 204.81 694.568C204.81 694.76 204.76 694.899 204.658 694.984C204.562 695.069 204.445 695.112 204.306 695.112C204.173 695.112 204.058 695.069 203.962 694.984C203.866 694.899 203.818 694.76 203.818 694.568ZM208.223 695H207.535V691.008C207.535 690.853 207.535 690.723 207.535 690.616C207.54 690.509 207.545 690.411 207.551 690.32C207.556 690.224 207.561 690.125 207.567 690.024C207.481 690.109 207.404 690.181 207.335 690.24C207.265 690.299 207.177 690.373 207.071 690.464L206.463 690.96L206.095 690.488L207.639 689.288H208.223V695ZM212.801 695H212.113V691.008C212.113 690.853 212.113 690.723 212.113 690.616C212.118 690.509 212.124 690.411 212.129 690.32C212.134 690.224 212.14 690.125 212.145 690.024C212.06 690.109 211.982 690.181 211.913 690.24C211.844 690.299 211.756 690.373 211.649 690.464L211.041 690.96L210.673 690.488L212.217 689.288H212.801V695Z" fill="black" fill-opacity="0.87"/>
<g filter="url(#filter1_d_988_7869)">
<circle cx="182" cy="627" r="36" fill="white"/>
</g>
<g filter="url(#filter2_d_988_7869)">
<path d="M0 745C0 736.716 6.71573 730 15 730H345C353.284 730 360 736.716 360 745V800H0V745Z" fill="white"/>
</g>
<path d="M0 745C0 736.716 6.71573 730 15 730H72V800H0V745Z" fill="white"/>
<path d="M72 730H144V800H72V730Z" fill="white"/>
<path d="M144 730H216V800H144V730Z" fill="white"/>
<path d="M216 730H288V800H216V730Z" fill="white"/>
<path d="M288 730H345C353.284 730 360 736.716 360 745V800H288V730Z" fill="white"/>
<path d="M32.8904 781.08H39.0604V783.66H32.8904V781.08ZM38.2504 781.72H33.7104V783.03H38.2504V781.72ZM32.3204 775.48H39.5904V776.13H32.3204V775.48ZM35.9804 776.49C37.8404 776.49 38.9004 776.93 38.9004 777.77C38.9004 778.61 37.8404 779.05 35.9804 779.05C34.1104 779.05 33.0604 778.61 33.0604 777.77C33.0604 776.93 34.1104 776.49 35.9804 776.49ZM35.9804 777.07C34.6704 777.07 33.9404 777.32 33.9404 777.77C33.9404 778.22 34.6704 778.47 35.9804 778.47C37.2804 778.47 38.0104 778.22 38.0104 777.77C38.0104 777.32 37.2804 777.07 35.9804 777.07ZM35.5704 774.61H36.3904V775.9H35.5704V774.61ZM31.8904 779.74H40.0604V780.39H31.8904V779.74ZM35.5704 778.85H36.3904V780.1H35.5704V778.85Z" fill="black" fill-opacity="0.87"/>
<path d="M92.3912 775.06H93.1212V775.56C93.1212 777.29 91.3612 778.53 89.4812 778.85L89.1512 778.18C90.8012 777.93 92.3912 776.85 92.3912 775.56V775.06ZM92.5412 775.06H93.2612V775.56C93.2612 776.82 94.8712 777.93 96.5012 778.18L96.1712 778.85C94.3112 778.53 92.5412 777.27 92.5412 775.56V775.06ZM92.3912 780.34H93.2112V783.78H92.3912V780.34ZM88.7412 779.83H96.9112V780.52H88.7412V779.83ZM104.51 774.74H105.35V779.59H104.51V774.74ZM99.5204 780.04H100.34V781.14H104.53V780.04H105.35V783.66H99.5204V780.04ZM100.34 781.8V782.99H104.53V781.8H100.34ZM100.5 775.17C101.87 775.17 102.85 776.02 102.85 777.25C102.85 778.49 101.87 779.34 100.5 779.34C99.1304 779.34 98.1404 778.49 98.1404 777.25C98.1404 776.02 99.1304 775.17 100.5 775.17ZM100.5 775.86C99.6004 775.86 98.9504 776.43 98.9504 777.25C98.9504 778.07 99.6004 778.64 100.5 778.64C101.4 778.64 102.05 778.07 102.05 777.25C102.05 776.43 101.4 775.86 100.5 775.86ZM110.26 775.86L107.6 783H106.74L109.4 775.86H110.26ZM113.25 776.03H113.92V777.5C113.92 779.41 112.77 781.33 111.33 782.04L110.85 781.38C112.16 780.76 113.25 779.06 113.25 777.5V776.03ZM113.41 776.03H114.08V777.5C114.08 779.03 115.17 780.59 116.5 781.16L116.03 781.82C114.57 781.14 113.41 779.38 113.41 777.5V776.03ZM111.15 775.66H116.2V776.36H111.15V775.66ZM117.42 774.74H118.25V783.78H117.42V774.74ZM123.72 779.24H124.55V780.61H123.72V779.24ZM120.06 778.75H128.22V779.39H120.06V778.75ZM123.73 774.68H124.55V775.78H123.73V774.68ZM123.69 775.86H124.42V776C124.42 777.42 122.73 778.18 120.73 778.35L120.49 777.71C122.27 777.6 123.69 776.97 123.69 776V775.86ZM123.86 775.86H124.59V776C124.59 776.97 126.01 777.6 127.78 777.71L127.54 778.35C125.54 778.18 123.86 777.42 123.86 776V775.86ZM120.89 775.53H127.39V776.16H120.89V775.53ZM121.04 780.21H127.18V782.2H121.88V783.29H121.06V781.61H126.36V780.84H121.04V780.21ZM121.06 783.05H127.45V783.68H121.06V783.05Z" fill="black" fill-opacity="0.87"/>
<path d="M175.301 777.25H177.311V777.92H175.301V777.25ZM175.231 779.52H177.291V780.19H175.231V779.52ZM178.681 774.74H179.481V783.78H178.681V774.74ZM176.871 774.97H177.651V783.32H176.871V774.97ZM174.851 775.88H175.651C175.651 778.25 174.701 780.38 172.271 781.83L171.791 781.24C173.901 779.96 174.851 778.16 174.851 776.03V775.88ZM172.191 775.88H175.181V776.56H172.191V775.88ZM181.33 775.56H186.62V776.18H181.33V775.56ZM183.98 776.53C185.28 776.53 186.13 777.05 186.13 777.87C186.13 778.7 185.28 779.22 183.98 779.22C182.69 779.22 181.84 778.7 181.84 777.87C181.84 777.05 182.69 776.53 183.98 776.53ZM183.98 777.11C183.17 777.11 182.62 777.4 182.62 777.87C182.62 778.33 183.17 778.64 183.98 778.64C184.81 778.64 185.34 778.33 185.34 777.87C185.34 777.4 184.81 777.11 183.98 777.11ZM183.56 774.68H184.4V775.89H183.56V774.68ZM183.56 778.89H184.4V780.12H183.56V778.89ZM187.56 774.75H188.39V780.8H187.56V774.75ZM182.33 781.22H188.39V783.78H187.56V781.88H182.33V781.22ZM181.15 780.52L181.04 779.85C182.7 779.85 184.94 779.84 186.84 779.58L186.9 780.16C184.93 780.49 182.78 780.52 181.15 780.52Z" fill="black" fill-opacity="0.87"/>
<path d="M239.191 775.62H242.461V776.3H239.191V775.62ZM242.031 775.62H242.801V776.22C242.801 776.98 242.801 777.97 242.491 779.34L241.721 779.25C242.031 777.9 242.031 776.97 242.031 776.22V775.62ZM242.401 777.21V777.81L239.061 778.09L238.931 777.41L242.401 777.21ZM245.551 774.74H246.351V783.78H245.551V774.74ZM243.851 774.94H244.631V783.28H243.851V774.94ZM242.161 780.55H244.131V781.2H242.161V780.55ZM240.511 779.49H241.301V783.05H240.511V779.49ZM238.681 779.9L238.581 779.19C239.861 779.18 241.861 779.13 243.301 778.93L243.351 779.56C241.881 779.82 239.941 779.9 238.681 779.9ZM251.52 775.36H252.24V776.05C252.24 778.02 250.41 779.55 248.6 779.96L248.23 779.27C249.82 778.97 251.52 777.59 251.52 776.05V775.36ZM251.67 775.36H252.39V776.05C252.39 777.6 254.1 778.97 255.68 779.27L255.31 779.96C253.51 779.55 251.67 778.03 251.67 776.05V775.36ZM247.9 781.88H256.09V782.56H247.9V781.88ZM258.15 779.61H264.36V780.28H258.15V779.61ZM257.1 781.93H265.29V782.62H257.1V781.93ZM258.15 775.51H264.26V776.19H258.99V779.82H258.15V775.51ZM258.72 777.53H264.07V778.19H258.72V777.53Z" fill="#D0D0D0"/>
<path d="M301.852 775.64H306.002V781.49H301.852V775.64ZM305.192 776.31H302.662V780.82H305.192V776.31ZM307.612 774.74H308.452V783.78H307.612V774.74ZM308.252 778.35H309.932V779.05H308.252V778.35ZM317.261 774.73H318.091V783.79H317.261V774.73ZM313.321 775.43C314.661 775.43 315.621 776.66 315.621 778.58C315.621 780.51 314.661 781.74 313.321 781.74C311.991 781.74 311.031 780.51 311.031 778.58C311.031 776.66 311.991 775.43 313.321 775.43ZM313.321 776.18C312.441 776.18 311.821 777.12 311.821 778.58C311.821 780.05 312.441 781.01 313.321 781.01C314.211 781.01 314.821 780.05 314.821 778.58C314.821 777.12 314.211 776.18 313.321 776.18ZM326.82 774.74H327.62V783.78H326.82V774.74ZM323.84 778.18H325.34V778.91H323.84V778.18ZM325.07 774.96H325.86V783.31H325.07V774.96ZM319.98 775.88H324.11V776.56H319.98V775.88ZM319.9 781.56L319.8 780.86C320.97 780.86 322.93 780.82 324.3 780.64L324.36 781.25C322.95 781.52 321.06 781.56 319.9 781.56ZM320.72 776.32H321.48V781.05H320.72V776.32ZM322.6 776.32H323.36V781.05H322.6V776.32ZM335.66 774.73H336.49V783.79H335.66V774.73ZM331.72 775.43C333.06 775.43 334.02 776.66 334.02 778.58C334.02 780.51 333.06 781.74 331.72 781.74C330.39 781.74 329.43 780.51 329.43 778.58C329.43 776.66 330.39 775.43 331.72 775.43ZM331.72 776.18C330.84 776.18 330.22 777.12 330.22 778.58C330.22 780.05 330.84 781.01 331.72 781.01C332.61 781.01 333.22 780.05 333.22 778.58C333.22 777.12 332.61 776.18 331.72 776.18ZM340.689 776.03H341.359V777.5C341.359 779.41 340.209 781.33 338.769 782.04L338.289 781.38C339.599 780.76 340.689 779.06 340.689 777.5V776.03ZM340.849 776.03H341.519V777.5C341.519 779.03 342.609 780.59 343.939 781.16L343.469 781.82C342.009 781.14 340.849 779.38 340.849 777.5V776.03ZM338.589 775.66H343.639V776.36H338.589V775.66ZM344.859 774.74H345.689V783.78H344.859V774.74Z" fill="black" fill-opacity="0.87"/>
<path d="M46.1836 754.836L36.5297 745.189C36.4602 745.119 36.3776 745.064 36.2867 745.026C36.1958 744.989 36.0984 744.969 36 744.969C35.9016 744.969 35.8042 744.989 35.7133 745.026C35.6224 745.064 35.5398 745.119 35.4703 745.189L25.8164 754.836C25.5352 755.117 25.3758 755.499 25.3758 755.898C25.3758 756.725 26.0484 757.398 26.8758 757.398H27.893V764.281C27.893 764.696 28.2281 765.031 28.643 765.031H34.5V759.781H37.125V765.031H43.357C43.7719 765.031 44.107 764.696 44.107 764.281V757.398H45.1242C45.5227 757.398 45.9047 757.241 46.1859 756.957C46.7695 756.371 46.7695 755.422 46.1836 754.836Z" fill="black" fill-opacity="0.87"/>
<path d="M98 760.832V762.5C98 763.879 101.359 765 105.5 765C109.641 765 113 763.879 113 762.5V760.832C111.387 761.969 108.438 762.5 105.5 762.5C102.562 762.5 99.6133 761.969 98 760.832ZM110.5 750C114.641 750 118 748.879 118 747.5C118 746.121 114.641 745 110.5 745C106.359 745 103 746.121 103 747.5C103 748.879 106.359 750 110.5 750ZM98 756.734V758.75C98 760.129 101.359 761.25 105.5 761.25C109.641 761.25 113 760.129 113 758.75V756.734C111.387 758.062 108.434 758.75 105.5 758.75C102.566 758.75 99.6133 758.062 98 756.734ZM114.25 757.164C116.488 756.73 118 755.926 118 755V753.332C117.094 753.973 115.762 754.41 114.25 754.68V757.164ZM105.5 751.25C101.359 751.25 98 752.648 98 754.375C98 756.102 101.359 757.5 105.5 757.5C109.641 757.5 113 756.102 113 754.375C113 752.648 109.641 751.25 105.5 751.25ZM114.066 753.449C116.41 753.027 118 752.199 118 751.25V749.582C116.613 750.562 114.23 751.09 111.723 751.215C112.875 751.773 113.723 752.523 114.066 753.449Z" fill="black" fill-opacity="0.87"/>
<path d="M189.789 744.48L190.379 745.07C191.192 745.884 191.069 747.327 190.102 748.293L177.935 760.46L173.993 761.902C173.498 762.084 173.016 761.848 172.918 761.377C172.885 761.206 172.9 761.029 172.963 760.867L174.433 756.891L186.566 744.757C187.533 743.791 188.976 743.666 189.789 744.48ZM177.404 745.69C177.535 745.69 177.665 745.716 177.787 745.766C177.908 745.816 178.018 745.89 178.111 745.983C178.204 746.076 178.278 746.186 178.328 746.307C178.378 746.428 178.404 746.558 178.404 746.69C178.404 746.821 178.378 746.951 178.328 747.072C178.278 747.194 178.204 747.304 178.111 747.397C178.018 747.49 177.908 747.563 177.787 747.614C177.665 747.664 177.535 747.69 177.404 747.69H173.404C172.874 747.69 172.365 747.9 171.99 748.276C171.615 748.651 171.404 749.159 171.404 749.69V761.69C171.404 762.22 171.615 762.729 171.99 763.104C172.365 763.479 172.874 763.69 173.404 763.69H185.404C185.934 763.69 186.443 763.479 186.818 763.104C187.193 762.729 187.404 762.22 187.404 761.69V757.69C187.404 757.425 187.509 757.17 187.697 756.983C187.884 756.795 188.139 756.69 188.404 756.69C188.669 756.69 188.924 756.795 189.111 756.983C189.299 757.17 189.404 757.425 189.404 757.69V761.69C189.404 762.751 188.983 763.768 188.232 764.518C187.482 765.268 186.465 765.69 185.404 765.69H173.404C172.343 765.69 171.326 765.268 170.576 764.518C169.825 763.768 169.404 762.751 169.404 761.69V749.69C169.404 748.629 169.825 747.611 170.576 746.861C171.326 746.111 172.343 745.69 173.404 745.69H177.404Z" fill="black" fill-opacity="0.87"/>
<g clip-path="url(#clip1_988_7869)">
<path d="M252 743C245.37 743 240 748.37 240 755C240 761.63 245.37 767 252 767C258.63 767 264 761.63 264 755C264 748.37 258.63 743 252 743ZM252 761.73C248.28 761.73 245.27 758.72 245.27 755C245.27 751.28 248.28 748.27 252 748.27C255.72 748.27 258.73 751.28 258.73 755C258.73 758.72 255.72 761.73 252 761.73Z" fill="#D0D0D0"/>
<path d="M263.1 759.55C263.21 759.26 263.27 758.96 263.27 758.64C263.27 757.19 262.09 756.01 260.64 756.01C259.57 756.01 258.66 756.65 258.24 757.56H258.23C257.22 760 254.82 761.73 252.01 761.73C248.29 761.73 245.28 758.72 245.28 755C245.28 751.28 248.29 748.27 252.01 748.27C252.16 748.27 252.3 748.28 252.45 748.29V748.27C252.53 748.27 252.6 748.29 252.67 748.29C254.12 748.29 255.3 747.11 255.3 745.66C255.3 744.21 254.18 743.1 252.78 743.04C252.52 743 252.26 743 252 743C245.42 743 240 748.42 240 755C240 761.58 245.42 767 252 767C256.78 767 261.11 764.14 263.01 759.76C263.04 759.71 263.06 759.65 263.08 759.6C263.08 759.58 263.1 759.57 263.1 759.55Z" fill="#D0D0D0"/>
</g>
<path d="M333.65 763.625C333.584 763.739 333.489 763.834 333.375 763.9C333.261 763.965 333.132 764 333 764H315C314.868 764 314.739 763.965 314.625 763.899C314.511 763.833 314.417 763.739 314.351 763.625C314.285 763.511 314.251 763.382 314.251 763.25C314.251 763.118 314.285 762.989 314.351 762.875C315.779 760.407 317.979 758.637 320.547 757.798C319.277 757.041 318.29 755.889 317.738 754.518C317.186 753.147 317.1 751.632 317.492 750.207C317.884 748.782 318.733 747.525 319.909 746.629C321.085 745.733 322.522 745.248 324 745.248C325.478 745.248 326.916 745.733 328.091 746.629C329.267 747.525 330.116 748.782 330.508 750.207C330.9 751.632 330.814 753.147 330.262 754.518C329.71 755.889 328.723 757.041 327.453 757.798C330.021 758.637 332.221 760.407 333.649 762.875C333.715 762.989 333.75 763.118 333.75 763.25C333.75 763.382 333.715 763.511 333.65 763.625Z" fill="black" fill-opacity="0.87"/>
<path d="M33.732 538.28H36.372V556.76H33.732V538.28ZM26.472 539.58C29.252 539.58 31.312 542.1 31.312 546.14C31.312 550.2 29.252 552.74 26.472 552.74C23.692 552.74 21.632 550.2 21.632 546.14C21.632 542.1 23.692 539.58 26.472 539.58ZM26.472 541.96C25.112 541.96 24.172 543.42 24.172 546.14C24.172 548.88 25.112 550.34 26.472 550.34C27.832 550.34 28.772 548.88 28.772 546.14C28.772 543.42 27.832 541.96 26.472 541.96ZM49.3904 543.06H52.2704V538.3H54.9104V551.74H52.2704V545.2H49.3904V543.06ZM50.6104 547.3L49.3304 549.36C47.3104 548.7 45.9504 547.38 45.1504 545.72C44.3304 547.54 42.8904 549 40.7504 549.72L39.4104 547.62C42.4304 546.64 43.7504 544.22 43.7504 541.9V541.64H40.1304V539.54H50.0304V541.64H46.4504V541.88C46.4504 544.06 47.7104 546.32 50.6104 547.3ZM45.4104 554.3H55.3304V556.4H42.7704V550.62H45.4104V554.3ZM64.9441 552.78V550.68H77.7441V556.74H75.1041V552.78H64.9441ZM67.7441 541.08V543.46H75.0441V541.08H67.7441ZM72.7241 547.26H79.7441V549.36H63.1041V547.26H70.0841V545.54H65.1441V539.02H77.6441V545.54H72.7241V547.26ZM88.2226 549.12V552.58H91.4026V549.12H88.2226ZM87.9226 541.86V547.04H91.6826V541.86H87.9226ZM94.0226 552.58H98.1826V554.7H81.4826V552.58H85.6026V549.12H82.9026V547.04H85.3026V541.86H82.8026V539.76H96.8026V541.86H94.3026V547.04H96.7626V549.12H94.0226V552.58ZM111.941 541.3V540.4H101.941V538.62H114.541V542.96H104.581V543.92H114.861V545.7H101.981V541.3H111.941ZM104.421 553.78V554.78H115.101V556.56H101.801V552.12H111.981V551.18H101.781V549.4H114.601V553.78H104.421ZM99.901 546.58H116.581V548.48H99.901V546.58ZM134.195 539.66V541.54H123.735V539.66H127.655V538.14H130.295V539.66H134.195ZM126.975 544.72C126.975 545.4 127.735 545.76 128.975 545.76C130.215 545.76 130.955 545.4 130.955 544.72C130.955 544.04 130.215 543.7 128.975 543.7C127.735 543.7 126.975 544.04 126.975 544.72ZM134.655 547.98L134.855 549.76C130.995 550.44 126.795 550.48 123.555 550.48L123.275 548.46C124.595 548.46 126.095 548.46 127.655 548.42V547.38C125.695 547.08 124.475 546.12 124.475 544.72C124.475 543.04 126.255 542 128.975 542C131.695 542 133.455 543.04 133.455 544.72C133.455 546.12 132.255 547.08 130.295 547.38V548.32C131.795 548.26 133.255 548.14 134.655 547.98ZM125.615 553.62V551.58H138.095V556.74H135.455V553.62H125.615ZM140.415 543.58V545.74H138.095V550.86H135.455V538.3H138.095V543.58H140.415ZM157.193 538.32V551.54H154.533V538.32H157.193ZM144.733 544.16C144.733 545.64 145.813 546.54 147.173 546.54C148.553 546.54 149.593 545.64 149.593 544.16C149.593 542.64 148.553 541.76 147.173 541.76C145.813 541.76 144.733 542.64 144.733 544.16ZM152.173 544.16C152.173 546.84 149.993 548.82 147.173 548.82C144.353 548.82 142.153 546.84 142.153 544.16C142.153 541.44 144.353 539.48 147.173 539.48C149.993 539.48 152.173 541.44 152.173 544.16ZM147.573 554.3H157.653V556.4H144.933V550.24H147.573V554.3ZM164.712 550.56C165.712 550.56 166.432 549.76 166.432 548.38C166.432 547 165.712 546.18 164.712 546.18C163.712 546.18 162.992 547 162.992 548.38C162.992 549.76 163.712 550.56 164.712 550.56ZM164.712 543.98C167.072 543.98 168.752 545.8 168.752 548.38C168.752 550.94 167.072 552.76 164.712 552.76C162.352 552.76 160.672 550.94 160.672 548.38C160.672 545.8 162.352 543.98 164.712 543.98ZM166.012 538.8V541.08H169.072V543.18H160.272V541.08H163.412V538.8H166.012ZM173.592 538.28H176.092V556.7H173.592V547.92H172.192V555.94H169.732V538.64H172.192V545.8H173.592V538.28ZM183.07 544.38V546.96H190.95V544.38H183.07ZM188.33 552.44H195.37V554.58H178.69V552.44H185.69V549.06H180.45V539.44H183.07V542.3H190.95V539.44H193.55V549.06H188.33V552.44ZM202.969 539.9V542.9C202.969 545.88 203.769 548.94 206.269 550.6L204.829 552.64C203.269 551.68 202.289 550.12 201.709 548.26C201.069 550.3 199.989 552.06 198.329 553.06L196.749 551.08C199.449 549.44 200.429 546.14 200.429 543V539.9H202.969ZM206.649 544.52V538.6H209.109V555.9H206.649V546.66H204.329V544.52H206.649ZM210.389 538.3H212.889V556.72H210.389V538.3ZM221.787 548.92V552.44H225.847V548.92C225.207 549.04 224.527 549.1 223.807 549.1C223.087 549.1 222.427 549.04 221.787 548.92ZM223.807 541.28C221.247 541.28 219.547 542.32 219.547 544.16C219.547 545.98 221.247 547.04 223.807 547.04C226.367 547.04 228.087 545.98 228.087 544.16C228.087 542.32 226.367 541.28 223.807 541.28ZM228.467 552.44H232.167V554.58H215.487V552.44H219.167V547.94C217.767 547.08 216.927 545.76 216.947 544.16C216.947 541.14 219.847 539.2 223.807 539.2C227.787 539.2 230.687 541.14 230.687 544.16C230.687 545.76 229.847 547.08 228.467 547.94V552.44ZM237.085 550.26H234.705L234.205 540.72H237.585L237.085 550.26ZM234.165 553.6C234.165 552.987 234.332 552.56 234.665 552.32C234.999 552.067 235.405 551.94 235.885 551.94C236.352 551.94 236.752 552.067 237.085 552.32C237.419 552.56 237.585 552.987 237.585 553.6C237.585 554.187 237.419 554.613 237.085 554.88C236.752 555.133 236.352 555.26 235.885 555.26C235.405 555.26 234.999 555.133 234.665 554.88C234.332 554.613 234.165 554.187 234.165 553.6Z" fill="black" fill-opacity="0.87"/>
<circle cx="164" cy="510" r="5" fill="white"/>
<circle cx="180" cy="510" r="5" fill="black" fill-opacity="0.87"/>
<circle cx="197" cy="510" r="5" fill="black" fill-opacity="0.87"/>
<rect x="301" y="40" width="39" height="22" rx="11" fill="white"/>
<rect x="301.35" y="40.35" width="38.3" height="21.3" rx="10.65" stroke="black" stroke-opacity="0.87" stroke-width="0.7"/>
<path d="M312.725 46.64H313.541V47.756C313.541 49.808 312.365 51.5 310.541 52.196L310.025 51.392C311.657 50.804 312.725 49.376 312.725 47.756V46.64ZM312.905 46.64H313.709V47.828C313.709 49.292 314.789 50.648 316.349 51.188L315.845 51.98C314.081 51.332 312.905 49.712 312.905 47.828V46.64ZM317.477 46.088H318.473V52.652H317.477V46.088ZM318.197 48.944H320.081V49.784H318.197V48.944ZM311.429 53.192H318.473V56.936H317.477V54.02H311.429V53.192ZM329.344 46.088H330.304V56.936H329.344V46.088ZM325.396 49.976H327.472V50.804H325.396V49.976ZM327.172 46.34H328.108V56.384H327.172V46.34ZM323.308 47.768H324.076V49.148C324.076 51.524 323.164 53.768 321.568 54.776L320.956 54.032C322.468 53.12 323.308 51.14 323.308 49.148V47.768ZM323.512 47.768H324.28V49.148C324.28 51.032 325.096 52.916 326.584 53.78L325.972 54.512C324.388 53.552 323.512 51.416 323.512 49.148V47.768ZM321.256 47.348H326.212V48.176H321.256V47.348Z" fill="black" fill-opacity="0.87"/>
<rect x="255" y="40" width="39" height="22" rx="11" fill="white"/>
<rect x="255.35" y="40.35" width="38.3" height="21.3" rx="10.65" stroke="black" stroke-opacity="0.87" stroke-width="0.7"/>
<path d="M268.441 46.472H269.317V47.072C269.317 49.148 267.205 50.636 264.949 51.02L264.553 50.216C266.533 49.916 268.441 48.62 268.441 47.072V46.472ZM268.621 46.472H269.485V47.072C269.485 48.584 271.417 49.916 273.373 50.216L272.977 51.02C270.745 50.636 268.621 49.124 268.621 47.072V46.472ZM268.441 52.808H269.425V56.936H268.441V52.808ZM264.061 52.196H273.865V53.024H264.061V52.196ZM280.884 48.896H283.332V49.724H280.884V48.896ZM283.02 46.088H284.016V52.556H283.02V46.088ZM280.452 52.88C282.684 52.88 284.064 53.636 284.064 54.908C284.064 56.192 282.684 56.924 280.452 56.924C278.208 56.924 276.828 56.192 276.828 54.908C276.828 53.636 278.208 52.88 280.452 52.88ZM280.452 53.66C278.82 53.66 277.824 54.116 277.824 54.908C277.824 55.688 278.82 56.144 280.452 56.144C282.084 56.144 283.08 55.688 283.08 54.908C283.08 54.116 282.084 53.66 280.452 53.66ZM277.86 47.18H278.676V48.056C278.676 50.06 277.452 51.776 275.652 52.448L275.136 51.656C276.744 51.068 277.86 49.616 277.86 48.056V47.18ZM278.052 47.18H278.856V48.056C278.856 49.46 279.912 50.804 281.484 51.356L280.98 52.148C279.216 51.512 278.052 49.88 278.052 48.056V47.18ZM275.436 46.88H281.232V47.696H275.436V46.88Z" fill="black" fill-opacity="0.87"/>
</g>
<defs>
<filter id="filter0_d_988_7869" x="30" y="174" width="300" height="300" filterUnits="userSpaceOnUse" color-interpolation-filters="sRGB">
<feFlood flood-opacity="0" result="BackgroundImageFix"/>
<feColorMatrix in="SourceAlpha" type="matrix" values="0 0 0 0 0 0 0 0 0 0 0 0 0 0 0 0 0 0 127 0" result="hardAlpha"/>
<feMorphology radius="3" operator="dilate" in="SourceAlpha" result="effect1_dropShadow_988_7869"/>
<feOffset/>
<feGaussianBlur stdDeviation="3.5"/>
<feComposite in2="hardAlpha" operator="out"/>
<feColorMatrix type="matrix" values="0 0 0 0 0 0 0 0 0 0 0 0 0 0 0 0 0 0 0.1 0"/>
<feBlend mode="normal" in2="BackgroundImageFix" result="effect1_dropShadow_988_7869"/>
<feBlend mode="normal" in="SourceGraphic" in2="effect1_dropShadow_988_7869" result="shape"/>
</filter>
<filter id="filter1_d_988_7869" x="142" y="587" width="80" height="80" filterUnits="userSpaceOnUse" color-interpolation-filters="sRGB">
<feFlood flood-opacity="0" result="BackgroundImageFix"/>
<feColorMatrix in="SourceAlpha" type="matrix" values="0 0 0 0 0 0 0 0 0 0 0 0 0 0 0 0 0 0 127 0" result="hardAlpha"/>
<feMorphology radius="1" operator="dilate" in="SourceAlpha" result="effect1_dropShadow_988_7869"/>
<feOffset/>
<feGaussianBlur stdDeviation="1.5"/>
<feComposite in2="hardAlpha" operator="out"/>
<feColorMatrix type="matrix" values="0 0 0 0 0 0 0 0 0 0 0 0 0 0 0 0 0 0 0.1 0"/>
<feBlend mode="normal" in2="BackgroundImageFix" result="effect1_dropShadow_988_7869"/>
<feBlend mode="normal" in="SourceGraphic" in2="effect1_dropShadow_988_7869" result="shape"/>
</filter>
<filter id="filter2_d_988_7869" x="-5" y="724" width="370" height="80" filterUnits="userSpaceOnUse" color-interpolation-filters="sRGB">
<feFlood flood-opacity="0" result="BackgroundImageFix"/>
<feColorMatrix in="SourceAlpha" type="matrix" values="0 0 0 0 0 0 0 0 0 0 0 0 0 0 0 0 0 0 127 0" result="hardAlpha"/>
<feMorphology radius="1" operator="dilate" in="SourceAlpha" result="effect1_dropShadow_988_7869"/>
<feOffset dy="-1"/>
<feGaussianBlur stdDeviation="2"/>
<feComposite in2="hardAlpha" operator="out"/>
<feColorMatrix type="matrix" values="0 0 0 0 0 0 0 0 0 0 0 0 0 0 0 0 0 0 0.1 0"/>
<feBlend mode="normal" in2="BackgroundImageFix" result="effect1_dropShadow_988_7869"/>
<feBlend mode="normal" in="SourceGraphic" in2="effect1_dropShadow_988_7869" result="shape"/>
</filter>
<clipPath id="clip0_988_7869">
<rect width="360" height="800" fill="white"/>
</clipPath>
<clipPath id="clip1_988_7869">
<rect width="24" height="24" fill="white" transform="translate(240 743)"/>
</clipPath>
</defs>
</svg>
