<svg width="342" height="800" viewBox="0 0 342 800" fill="none" xmlns="http://www.w3.org/2000/svg">
<g clip-path="url(#clip0_988_7849)">
<rect width="360" height="800" fill="white"/>
<g filter="url(#filter0_d_988_7849)">
<path d="M0 0H360V243C360 276.137 333.137 303 300 303H60C26.8629 303 0 276.137 0 243V0Z" fill="white"/>
</g>
<path d="M24.836 20H23.471V13.838C23.471 13.6213 23.471 13.422 23.471 13.24C23.4797 13.0493 23.4883 12.8673 23.497 12.694C23.5057 12.512 23.5143 12.3387 23.523 12.174C23.4103 12.2867 23.2933 12.395 23.172 12.499C23.0507 12.603 22.912 12.7243 22.756 12.863L21.742 13.682L21.04 12.798L23.692 10.718H24.836V20ZM34.2905 15.346C34.2905 16.1 34.2298 16.7717 34.1085 17.361C33.9958 17.9503 33.8138 18.453 33.5625 18.869C33.3198 19.2763 32.9948 19.5883 32.5875 19.805C32.1888 20.0217 31.7078 20.13 31.1445 20.13C30.4338 20.13 29.8488 19.9393 29.3895 19.558C28.9301 19.1767 28.5878 18.6307 28.3625 17.92C28.1371 17.2007 28.0245 16.3427 28.0245 15.346C28.0245 14.3407 28.1241 13.4827 28.3235 12.772C28.5315 12.0613 28.8651 11.5197 29.3245 11.147C29.7838 10.7657 30.3905 10.575 31.1445 10.575C31.8551 10.575 32.4401 10.7657 32.8995 11.147C33.3675 11.5197 33.7141 12.0613 33.9395 12.772C34.1735 13.4827 34.2905 14.3407 34.2905 15.346ZM29.4025 15.346C29.4025 16.152 29.4588 16.8237 29.5715 17.361C29.6841 17.8983 29.8661 18.3013 30.1175 18.57C30.3775 18.8387 30.7198 18.973 31.1445 18.973C31.5691 18.973 31.9071 18.843 32.1585 18.583C32.4185 18.3143 32.6048 17.9113 32.7175 17.374C32.8388 16.828 32.8995 16.152 32.8995 15.346C32.8995 14.54 32.8388 13.8727 32.7175 13.344C32.6048 12.8067 32.4185 12.4037 32.1585 12.135C31.9071 11.8663 31.5691 11.732 31.1445 11.732C30.7198 11.732 30.3775 11.8663 30.1175 12.135C29.8661 12.4037 29.6841 12.8067 29.5715 13.344C29.4588 13.8727 29.4025 14.54 29.4025 15.346ZM35.7629 19.233C35.7629 18.895 35.8496 18.6567 36.0229 18.518C36.1962 18.3793 36.4042 18.31 36.6469 18.31C36.8982 18.31 37.1106 18.3793 37.2839 18.518C37.4572 18.6567 37.5439 18.895 37.5439 19.233C37.5439 19.571 37.4572 19.8137 37.2839 19.961C37.1106 20.1083 36.8982 20.182 36.6469 20.182C36.4042 20.182 36.1962 20.1083 36.0229 19.961C35.8496 19.8137 35.7629 19.571 35.7629 19.233ZM35.7629 13.773C35.7629 13.4177 35.8496 13.1707 36.0229 13.032C36.1962 12.8933 36.4042 12.824 36.6469 12.824C36.8982 12.824 37.1106 12.8933 37.2839 13.032C37.4572 13.1707 37.5439 13.4177 37.5439 13.773C37.5439 14.1023 37.4572 14.3407 37.2839 14.488C37.1106 14.6353 36.8982 14.709 36.6469 14.709C36.4042 14.709 36.1962 14.6353 36.0229 14.488C35.8496 14.3407 35.7629 14.1023 35.7629 13.773ZM45.2716 20H39.0316V18.934L41.4236 16.503C41.8916 16.0263 42.2816 15.6147 42.5936 15.268C42.9056 14.9127 43.1396 14.5747 43.2956 14.254C43.4516 13.9247 43.5296 13.5693 43.5296 13.188C43.5296 12.7113 43.3909 12.356 43.1136 12.122C42.8363 11.8793 42.4766 11.758 42.0346 11.758C41.6099 11.758 41.2286 11.8403 40.8906 12.005C40.5526 12.161 40.2016 12.382 39.8376 12.668L39.0966 11.745C39.3479 11.5283 39.6166 11.3333 39.9026 11.16C40.1973 10.9867 40.5223 10.848 40.8776 10.744C41.2416 10.64 41.6403 10.588 42.0736 10.588C42.6629 10.588 43.1699 10.692 43.5946 10.9C44.0193 11.0993 44.3443 11.3853 44.5696 11.758C44.8036 12.1307 44.9206 12.5683 44.9206 13.071C44.9206 13.4437 44.8643 13.7947 44.7516 14.124C44.6389 14.4447 44.4743 14.761 44.2576 15.073C44.0496 15.385 43.7939 15.7013 43.4906 16.022C43.1873 16.3427 42.8536 16.6807 42.4896 17.036L40.7606 18.713V18.778H45.2716V20ZM52.711 20H46.471V18.934L48.863 16.503C49.331 16.0263 49.721 15.6147 50.033 15.268C50.345 14.9127 50.579 14.5747 50.735 14.254C50.891 13.9247 50.969 13.5693 50.969 13.188C50.969 12.7113 50.8304 12.356 50.553 12.122C50.2757 11.8793 49.916 11.758 49.474 11.758C49.0494 11.758 48.668 11.8403 48.33 12.005C47.992 12.161 47.641 12.382 47.277 12.668L46.536 11.745C46.7874 11.5283 47.056 11.3333 47.342 11.16C47.6367 10.9867 47.9617 10.848 48.317 10.744C48.681 10.64 49.0797 10.588 49.513 10.588C50.1024 10.588 50.6094 10.692 51.034 10.9C51.4587 11.0993 51.7837 11.3853 52.009 11.758C52.243 12.1307 52.36 12.5683 52.36 13.071C52.36 13.4437 52.3037 13.7947 52.191 14.124C52.0784 14.4447 51.9137 14.761 51.697 15.073C51.489 15.385 51.2334 15.7013 50.93 16.022C50.6267 16.3427 50.293 16.6807 49.929 17.036L48.2 18.713V18.778H52.711V20Z" fill="black"/>
<path d="M299.233 17.2332L297.833 15.7998C298.522 15.1109 299.311 14.5832 300.2 14.2165C301.089 13.8498 302.022 13.6665 303 13.6665C303.978 13.6665 304.914 13.8527 305.809 14.2252C306.703 14.5976 307.489 15.1336 308.167 15.8332L306.767 17.2332C306.267 16.7332 305.692 16.3472 305.041 16.0752C304.391 15.8032 303.711 15.6669 303 15.6665C302.289 15.6665 301.608 15.8027 300.959 16.0752C300.309 16.3476 299.734 16.7336 299.233 17.2332ZM296.4 14.3998L295 12.9998C296.056 11.9221 297.275 11.0969 298.659 10.5245C300.042 9.95206 301.489 9.66606 303 9.6665C304.511 9.6665 305.958 9.95273 307.342 10.5252C308.726 11.0976 309.945 11.9225 311 12.9998L309.6 14.3998C308.722 13.5221 307.714 12.8472 306.575 12.3752C305.436 11.9032 304.244 11.6669 303 11.6665C301.756 11.6665 300.564 11.9027 299.425 12.3752C298.286 12.8476 297.277 13.5225 296.4 14.3998ZM303 20.9998L300.65 18.6332C300.961 18.3221 301.32 18.0832 301.725 17.9165C302.131 17.7498 302.556 17.6665 303 17.6665C303.444 17.6665 303.87 17.7498 304.275 17.9165C304.681 18.0832 305.039 18.3221 305.35 18.6332L303 20.9998Z" fill="black"/>
<rect x="319.35" y="11.35" width="16.4905" height="7.44286" rx="1.65" stroke="black" stroke-width="0.7"/>
<rect x="320" y="12" width="12" height="6" rx="2" fill="black"/>
<rect x="336.44" y="13.0596" width="1.30952" height="4.02381" rx="0.25" fill="black" stroke="black" stroke-width="0.5"/>
<rect x="271" y="15" width="3" height="6" rx="0.5" fill="black"/>
<rect x="275" y="13" width="3" height="8" rx="0.5" fill="black"/>
<rect x="279" y="11" width="3" height="10" rx="0.5" fill="black"/>
<rect x="283" y="9" width="3" height="12" rx="0.5" fill="black"/>
<path d="M40.304 185.436H41.424V198.092H40.304V185.436ZM38.176 190.588H40.612V191.54H38.176V190.588ZM37.434 185.716H38.526V197.448H37.434V185.716ZM31.302 186.962H32.464V194.27H31.302V186.962ZM31.302 193.808H32.114C33.416 193.808 34.872 193.724 36.524 193.402L36.65 194.41C34.928 194.746 33.472 194.816 32.114 194.816H31.302V193.808ZM52.1329 185.422H53.3089V198.092H52.1329V185.422ZM52.9869 190.56H55.3249V191.526H52.9869V190.56ZM48.8989 186.794H50.0329C50.0329 190.392 48.3809 193.64 44.2929 195.698L43.6489 194.802C47.1489 193.024 48.8989 190.322 48.8989 186.976V186.794ZM44.2369 186.794H49.5009V187.746H44.2369V186.794ZM60.0945 195.516H71.5605V196.482H60.0945V195.516ZM65.2185 192.24H66.3805V195.782H65.2185V192.24ZM61.4245 186.486H70.1605V192.45H61.4245V186.486ZM69.0405 187.424H62.5585V191.512H69.0405V187.424ZM72.9594 192.086H84.3974V193.038H72.9594V192.086ZM74.4434 196.86H83.1374V197.812H74.4434V196.86ZM74.4434 194.144H75.6054V197.154H74.4434V194.144ZM78.6854 185.856C81.3874 185.856 83.1374 186.808 83.1374 188.39C83.1374 189.958 81.3874 190.91 78.6854 190.91C75.9694 190.91 74.2334 189.958 74.2334 188.39C74.2334 186.808 75.9694 185.856 78.6854 185.856ZM78.6854 186.808C76.6974 186.808 75.4234 187.396 75.4234 188.39C75.4234 189.384 76.6974 189.972 78.6854 189.972C80.6734 189.972 81.9474 189.384 81.9474 188.39C81.9474 187.396 80.6734 186.808 78.6854 186.808ZM95.3691 193.556H96.3491V193.962C96.3491 196.146 94.0391 197.644 91.4631 198.05L91.0431 197.14C93.2831 196.832 95.3691 195.558 95.3691 193.962V193.556ZM95.5231 193.556H96.5171V193.962C96.5171 195.558 98.6031 196.832 100.843 197.14L100.409 198.05C97.8611 197.644 95.5231 196.146 95.5231 193.962V193.556ZM90.0491 186.304H91.1411V188.292H93.8431V186.304H94.9491V192.198H90.0491V186.304ZM91.1411 189.202V191.26H93.8431V189.202H91.1411ZM99.0511 185.45H100.157V194.046H99.0511V185.45ZM97.0491 188.712H99.4431V189.678H97.0491V188.712ZM96.3211 185.688H97.4271V192.926H96.3211V185.688ZM105.714 187.242H106.652V189.3C106.652 191.974 105.042 194.662 103.026 195.656L102.354 194.732C104.188 193.864 105.714 191.484 105.714 189.3V187.242ZM105.938 187.242H106.876V189.3C106.876 191.442 108.402 193.626 110.264 194.424L109.606 195.348C107.562 194.396 105.938 191.932 105.938 189.3V187.242ZM102.774 186.724H109.844V187.704H102.774V186.724ZM111.552 185.436H112.714V198.092H111.552V185.436ZM115.233 191.316H126.713V192.198H115.233V191.316ZM116.591 193.22H125.271V195.922H117.781V197.406H116.633V195.124H124.137V194.046H116.591V193.22ZM116.633 197.098H125.677V197.938H116.633V197.098ZM116.689 185.8H125.229V188.432H117.865V189.804H116.717V187.648H124.095V186.626H116.689V185.8ZM116.717 189.524H125.467V190.364H116.717V189.524ZM135.067 191.372H136.229V192.996H135.067V191.372ZM140.401 185.45H141.563V193.934H140.401V185.45ZM141.073 189.272H143.411V190.238H141.073V189.272ZM131.833 193.57L131.679 192.618C133.947 192.618 137.027 192.618 139.645 192.24L139.743 193.066C137.041 193.542 134.045 193.556 131.833 193.57ZM133.247 194.564H141.563V198.092H140.401V195.488H133.247V194.564ZM132.001 186.584H139.267V187.452H132.001V186.584ZM135.641 187.942C137.419 187.942 138.581 188.656 138.581 189.818C138.581 190.98 137.419 191.694 135.641 191.694C133.849 191.694 132.687 190.98 132.687 189.818C132.687 188.656 133.849 187.942 135.641 187.942ZM135.641 188.74C134.507 188.74 133.779 189.146 133.779 189.818C133.779 190.462 134.507 190.882 135.641 190.882C136.761 190.882 137.489 190.462 137.489 189.818C137.489 189.146 136.761 188.74 135.641 188.74ZM135.067 185.338H136.229V187.004H135.067V185.338ZM153.839 185.45H155.015V194.69H153.839V185.45ZM146.881 196.86H155.393V197.812H146.881V196.86ZM146.881 193.738H148.029V197.182H146.881V193.738ZM148.225 186.318C150.115 186.318 151.515 187.606 151.515 189.44C151.515 191.26 150.115 192.562 148.225 192.562C146.335 192.562 144.921 191.26 144.921 189.44C144.921 187.606 146.335 186.318 148.225 186.318ZM148.225 187.326C146.993 187.326 146.055 188.194 146.055 189.44C146.055 190.672 146.993 191.54 148.225 191.54C149.457 191.54 150.395 190.672 150.395 189.44C150.395 188.194 149.457 187.326 148.225 187.326ZM157.492 187.592H163.764V188.544H157.492V187.592ZM160.628 189.384C162.21 189.384 163.358 190.574 163.358 192.282C163.358 193.976 162.21 195.166 160.628 195.166C159.06 195.166 157.912 193.976 157.912 192.282C157.912 190.574 159.06 189.384 160.628 189.384ZM160.628 190.378C159.662 190.378 158.962 191.162 158.962 192.282C158.962 193.402 159.662 194.186 160.628 194.186C161.608 194.186 162.322 193.402 162.322 192.282C162.322 191.162 161.608 190.378 160.628 190.378ZM167.11 185.436H168.23V198.092H167.11V185.436ZM165.094 190.756H167.488V191.722H165.094V190.756ZM164.408 185.716H165.5V197.476H164.408V185.716ZM160.068 185.8H161.216V188.18H160.068V185.8ZM170.399 195.516H181.865V196.482H170.399V195.516ZM175.523 192.492H176.685V195.796H175.523V192.492ZM171.743 186.332H172.891V188.586H179.345V186.332H180.493V192.8H171.743V186.332ZM172.891 189.524V191.848H179.345V189.524H172.891ZM188.262 189.958H190.684V190.924H188.262V189.958ZM185.896 186.626H186.806V189.034C186.806 191.68 185.7 194.242 183.852 195.376L183.124 194.494C184.86 193.472 185.896 191.204 185.896 189.034V186.626ZM186.12 186.626H187.016V188.992C187.016 191.022 187.968 193.178 189.634 194.186L188.962 195.096C187.142 193.976 186.12 191.456 186.12 188.992V186.626ZM192.91 185.436H194.03V198.092H192.91V185.436ZM190.348 185.702H191.44V197.462H190.348V185.702ZM198.957 191.946H200.105V195.74H198.957V191.946ZM203.633 191.946H204.795V195.74H203.633V191.946ZM196.157 195.516H207.623V196.482H196.157V195.516ZM201.869 186.234C204.543 186.234 206.461 187.508 206.461 189.496C206.461 191.47 204.543 192.744 201.869 192.744C199.181 192.744 197.263 191.47 197.263 189.496C197.263 187.508 199.181 186.234 201.869 186.234ZM201.869 187.158C199.839 187.158 198.383 188.082 198.383 189.496C198.383 190.896 199.839 191.82 201.869 191.82C203.899 191.82 205.341 190.896 205.341 189.496C205.341 188.082 203.899 187.158 201.869 187.158ZM210.618 194.186H209.82L209.47 187.004H210.968L210.618 194.186ZM209.344 196.244C209.344 195.899 209.428 195.656 209.596 195.516C209.764 195.376 209.969 195.306 210.212 195.306C210.445 195.306 210.646 195.376 210.814 195.516C210.991 195.656 211.08 195.899 211.08 196.244C211.08 196.58 210.991 196.823 210.814 196.972C210.646 197.121 210.445 197.196 210.212 197.196C209.969 197.196 209.764 197.121 209.596 196.972C209.428 196.823 209.344 196.58 209.344 196.244Z" fill="black" fill-opacity="0.87"/>
<line y1="596.5" x2="360" y2="596.5" stroke="black" stroke-opacity="0.1"/>
<rect y="526" width="360" height="70" fill="white"/>
<line y1="525.5" x2="360" y2="525.5" stroke="black" stroke-opacity="0.1"/>
<path d="M31.776 553.784H33.056V568.248H31.776V553.784ZM29.344 559.672H32.128V560.76H29.344V559.672ZM28.496 554.104H29.744V567.512H28.496V554.104ZM21.488 555.528H22.816V563.88H21.488V555.528ZM21.488 563.352H22.416C23.904 563.352 25.568 563.256 27.456 562.888L27.6 564.04C25.632 564.424 23.968 564.504 22.416 564.504H21.488V563.352ZM47.387 557.528H50.651V558.632H47.387V557.528ZM50.235 553.784H51.563V562.408H50.235V553.784ZM46.811 562.84C49.787 562.84 51.627 563.848 51.627 565.544C51.627 567.256 49.787 568.232 46.811 568.232C43.819 568.232 41.979 567.256 41.979 565.544C41.979 563.848 43.819 562.84 46.811 562.84ZM46.811 563.88C44.635 563.88 43.307 564.488 43.307 565.544C43.307 566.584 44.635 567.192 46.811 567.192C48.987 567.192 50.315 566.584 50.315 565.544C50.315 564.488 48.987 563.88 46.811 563.88ZM43.355 555.24H44.443V556.408C44.443 559.08 42.811 561.368 40.411 562.264L39.723 561.208C41.867 560.424 43.355 558.488 43.355 556.408V555.24ZM43.611 555.24H44.683V556.408C44.683 558.28 46.091 560.072 48.187 560.808L47.515 561.864C45.163 561.016 43.611 558.84 43.611 556.408V555.24ZM40.123 554.84H47.851V555.928H40.123V554.84ZM54.3938 565.304H67.4978V566.408H54.3938V565.304ZM60.2498 561.848H61.5778V565.624H60.2498V561.848ZM55.9298 554.808H57.2418V557.384H64.6178V554.808H65.9298V562.2H55.9298V554.808ZM57.2418 558.456V561.112H64.6178V558.456H57.2418Z" fill="black" fill-opacity="0.87"/>
<path d="M332.778 560.897L326.08 554.19C326.015 554.125 325.963 554.047 325.928 553.962C325.893 553.876 325.876 553.785 325.877 553.692C325.878 553.6 325.897 553.509 325.934 553.424C325.971 553.34 326.025 553.264 326.092 553.2C326.229 553.07 326.411 552.998 326.6 553.001C326.789 553.003 326.97 553.079 327.104 553.212L334.297 560.415C334.362 560.48 334.414 560.557 334.449 560.641C334.484 560.726 334.501 560.817 334.501 560.909C334.5 561 334.481 561.091 334.445 561.175C334.409 561.26 334.357 561.336 334.291 561.4L326.72 568.795C326.584 568.926 326.403 568.999 326.215 568.999C326.027 568.999 325.846 568.926 325.71 568.795C325.644 568.731 325.591 568.654 325.555 568.569C325.519 568.484 325.501 568.392 325.501 568.3C325.501 568.208 325.519 568.116 325.555 568.031C325.591 567.946 325.644 567.869 325.71 567.805L332.778 560.897Z" fill="black" fill-opacity="0.87"/>
<line y1="738.5" x2="360" y2="738.5" stroke="black" stroke-opacity="0.1"/>
<rect y="668" width="360" height="70" fill="white"/>
<path d="M28 707.336H33.872V708.408H20.832V707.336H26.672V704.632H22.464V700.2H30.976V697.96H22.432V696.888H32.256V701.256H23.76V703.576H32.592V704.632H28V707.336ZM45.5188 698.792V698.424H36.9748V697.352H46.8148V698.792C46.8148 700.616 46.8148 702.68 46.2548 705.784L44.9428 705.64C45.5188 702.712 45.5188 700.568 45.5188 698.792ZM35.5828 707H48.5588V708.088H35.5828V707ZM54.1095 705.784C55.4855 705.784 56.4615 704.28 56.4615 701.944C56.4615 699.624 55.4855 698.12 54.1095 698.12C52.7175 698.12 51.7415 699.624 51.7415 701.944C51.7415 704.28 52.7175 705.784 54.1095 705.784ZM54.1095 696.936C56.2215 696.936 57.7095 698.888 57.7095 701.944C57.7095 705 56.2215 706.952 54.1095 706.952C51.9975 706.952 50.4935 705 50.4935 701.944C50.4935 698.888 51.9975 696.936 54.1095 696.936ZM63.6935 701.56V702.664H61.3255V710.184H60.0135V695.848H61.3255V701.56H63.6935ZM71.4843 697.048C69.1963 697.048 67.7883 697.656 67.7883 698.664C67.7883 699.688 69.1963 700.28 71.4843 700.28C73.7723 700.28 75.1803 699.688 75.1803 698.664C75.1803 697.656 73.7723 697.048 71.4843 697.048ZM71.4843 701.304C68.3643 701.304 66.4443 700.344 66.4443 698.664C66.4443 697 68.3643 696.04 71.4843 696.04C74.6043 696.04 76.5243 697 76.5243 698.664C76.5243 700.344 74.6043 701.304 71.4843 701.304ZM72.1562 705.704V706.152C72.1562 707.72 74.3643 708.872 76.9883 709.128L76.5563 710.136C74.3163 709.864 72.3163 709.016 71.4843 707.656C70.6043 709 68.6203 709.88 66.3803 710.136L65.9483 709.128C68.5403 708.856 70.7963 707.688 70.7963 706.152V705.704H72.1562ZM65.0043 702.392H78.0123V703.464H72.1243V705.048H70.8283V703.464H65.0043V702.392Z" fill="black" fill-opacity="0.87"/>
<line y1="667.5" x2="360" y2="667.5" stroke="black" stroke-opacity="0.1"/>
<rect y="597" width="360" height="70" fill="white"/>
<path d="M22.864 626.576V634.32C24.24 634.304 25.76 634.208 27.472 633.872L27.6 635.008C25.664 635.376 24.016 635.456 22.464 635.456H21.552V626.576H22.864ZM31.76 624.832H33.024V639.168H31.76V631.76H29.728V638.448H28.496V625.152H29.728V630.672H31.76V624.832ZM48.747 629.632V633.328H47.499V625.12H48.747V628.56H50.587V624.848H51.835V634.592H50.587V629.632H48.747ZM44.699 631.44V629.104H41.611V631.44H44.699ZM45.931 625.824V632.496H40.363V625.824H41.611V628.064H44.699V625.824H45.931ZM47.707 634.048V634.512C47.707 636.32 50.075 637.76 52.619 638.128L52.123 639.136C49.963 638.8 47.915 637.76 47.051 636.208C46.171 637.76 44.139 638.8 41.979 639.136L41.483 638.128C44.027 637.76 46.379 636.32 46.379 634.512V634.048H47.707ZM59.5618 627.392V629.216C59.5618 631.648 61.2898 634.128 63.4018 635.024L62.6658 636.08C61.0018 635.312 59.5938 633.664 58.9058 631.696C58.2498 633.792 56.8418 635.6 55.2098 636.432L54.4418 635.376C56.5058 634.4 58.2498 631.696 58.2498 629.216V627.392H54.9218V626.304H62.9378V627.392H59.5618ZM64.8738 624.848H66.1858V639.184H64.8738V624.848Z" fill="black" fill-opacity="0.87"/>
<path d="M159.363 149.3V162.84H156.703V149.3H159.363ZM148.843 152.92V158.24C149.483 158.22 150.143 158.2 150.783 158.16V152.92H148.843ZM155.463 157.82L155.643 159.74C151.983 160.34 147.823 160.42 144.663 160.42L144.383 158.28C144.983 158.28 145.623 158.28 146.303 158.28V152.92H144.843V150.82H154.763V152.92H153.323V158.02C154.063 157.96 154.763 157.9 155.463 157.82ZM149.703 165.3H159.783V167.4H147.043V161.62H149.703V165.3ZM177.762 149.3V162.84H175.102V149.3H177.762ZM167.242 152.92V158.24C167.882 158.22 168.542 158.2 169.182 158.16V152.92H167.242ZM173.862 157.82L174.042 159.74C170.382 160.34 166.222 160.42 163.062 160.42L162.782 158.28C163.382 158.28 164.022 158.28 164.702 158.28V152.92H163.242V150.82H173.162V152.92H171.722V158.02C172.462 157.96 173.162 157.9 173.862 157.82ZM168.102 165.3H178.182V167.4H165.442V161.62H168.102V165.3ZM193.48 149.28H196.12V167.76H193.48V149.28ZM186.22 150.58C189 150.58 191.06 153.1 191.06 157.14C191.06 161.2 189 163.74 186.22 163.74C183.44 163.74 181.38 161.2 181.38 157.14C181.38 153.1 183.44 150.58 186.22 150.58ZM186.22 152.96C184.86 152.96 183.92 154.42 183.92 157.14C183.92 159.88 184.86 161.34 186.22 161.34C187.58 161.34 188.52 159.88 188.52 157.14C188.52 154.42 187.58 152.96 186.22 152.96ZM210.398 155.8L210.718 157.94C207.898 158.54 205.198 158.74 201.898 158.74H200.298V150.36H202.918V156.56C205.658 156.52 207.978 156.34 210.398 155.8ZM204.898 162.46V165.44H211.958V162.46H204.898ZM202.298 167.5V160.38H214.538V167.5H202.298ZM211.898 149.28H214.538V159.6H211.898V149.28Z" fill="black" fill-opacity="0.87"/>
<g filter="url(#filter1_d_988_7849)">
<rect x="135" y="50" width="90" height="90" rx="23" fill="#C4C4C4"/>
</g>
<g filter="url(#filter2_d_988_7849)">
<rect x="20" y="355" width="320" height="156" rx="10" fill="#C4C4C4"/>
</g>
<path d="M34.62 329.26H37.88V331.44H34.62V329.26ZM32.64 322.24H35.32V340.76H32.64V322.24ZM21.36 324.02H24.02V335.52H21.36V324.02ZM21.36 334.04H22.96C25.6 334.04 28.46 333.86 31.44 333.26L31.72 335.44C28.66 336.08 25.68 336.24 22.96 336.24H21.36V334.04ZM45.1584 323.48C48.0784 323.48 50.2584 325.38 50.2584 328.04C50.2584 330.72 48.0784 332.62 45.1584 332.62C42.2584 332.62 40.0384 330.72 40.0384 328.04C40.0384 325.38 42.2584 323.48 45.1584 323.48ZM45.1584 325.76C43.7384 325.76 42.6584 326.6 42.6584 328.04C42.6584 329.5 43.7384 330.34 45.1584 330.34C46.5784 330.34 47.6584 329.5 47.6584 328.04C47.6584 326.6 46.5784 325.76 45.1584 325.76ZM51.9984 322.24H54.6584V340.82H51.9984V322.24ZM39.5984 337.06L39.2784 334.92C42.5384 334.92 47.0784 334.88 50.9784 334.3L51.1784 336.22C47.1584 337.02 42.7984 337.06 39.5984 337.06ZM63.5722 324.1H71.5522V326.2H63.5722V324.1ZM65.9522 329.4H68.5722V335.68H65.9522V329.4ZM70.4922 324.1H73.1122V325.6C73.1122 327.4 73.1122 329.64 72.6122 332.72L70.0122 332.48C70.4922 329.52 70.4922 327.38 70.4922 325.6V324.1ZM74.6922 322.26H77.3522V340.78H74.6922V322.26ZM76.5722 329.7H79.8322V331.9H76.5722V329.7ZM62.8722 337.04L62.6322 334.9C65.8922 334.9 70.2122 334.84 73.8522 334.38L73.9922 336.32C70.2522 336.96 66.0922 337.04 62.8722 337.04ZM81.2106 336.44H97.9706V338.62H81.2106V336.44ZM88.1706 332.32H90.8106V337.02H88.1706V332.32ZM88.0706 323.28H90.3906V324.62C90.3906 328.56 87.5306 332.04 82.6906 332.92L81.5906 330.7C85.8106 330.02 88.0706 327.18 88.0706 324.62V323.28ZM88.5906 323.28H90.9106V324.62C90.9106 327.24 93.1706 330.02 97.4106 330.7L96.3106 332.92C91.4506 332.02 88.5906 328.62 88.5906 324.62V323.28ZM112.289 322.24H114.969V340.82H112.289V322.24ZM100.509 323.72H103.149V328.22H106.969V323.72H109.609V336.5H100.509V323.72ZM103.149 330.28V334.36H106.969V330.28H103.149ZM127.643 325.18H129.763V327.26C129.763 331.54 128.023 335.72 124.543 337.3L123.043 335.2C126.143 333.82 127.643 330.4 127.643 327.26V325.18ZM128.243 325.18H130.343V327.26C130.343 330.26 131.823 333.46 134.923 334.74L133.483 336.84C129.963 335.32 128.243 331.38 128.243 327.26V325.18ZM123.783 324.04H134.163V326.22H123.783V324.04ZM135.883 322.26H138.563V340.78H135.883V322.26ZM148.561 322.8H150.901V323.66C150.901 327.22 148.101 330.24 143.241 330.96L142.201 328.82C146.461 328.26 148.561 325.84 148.561 323.66V322.8ZM149.061 322.8H151.381V323.66C151.381 325.82 153.501 328.26 157.741 328.82L156.721 330.96C151.861 330.24 149.061 327.22 149.061 323.66V322.8ZM148.581 334H151.221V340.78H148.581V334ZM141.601 332.32H158.341V334.48H141.601V332.32ZM159.98 330.56H176.76V332.5H159.98V330.56ZM161.86 333.42H174.76V337.82H164.54V339.4H161.9V336.14H172.14V335.22H161.86V333.42ZM161.9 338.84H175.28V340.64H161.9V338.84ZM162.04 322.58H174.72V326.94H164.7V328.46H162.06V325.28H172.1V324.36H162.04V322.58ZM162.06 327.9H175.06V329.7H162.06V327.9ZM195.493 322.26H198.153V331.5H195.493V322.26ZM197.073 325.8H200.593V327.98H197.073V325.8ZM185.913 332.24H198.153V337.32H188.593V339.52H185.953V335.4H195.533V334.28H185.913V332.24ZM185.953 338.5H198.693V340.58H185.953V338.5ZM188.633 322.8C191.473 322.8 193.573 324.54 193.573 327C193.573 329.44 191.473 331.2 188.633 331.2C185.813 331.2 183.693 329.44 183.693 327C183.693 324.54 185.813 322.8 188.633 322.8ZM188.633 324.94C187.273 324.94 186.273 325.7 186.273 327C186.273 328.3 187.273 329.08 188.633 329.08C190.013 329.08 191.013 328.3 191.013 327C191.013 325.7 190.013 324.94 188.633 324.94ZM206.932 323.54C209.752 323.54 211.792 326.1 211.792 330.14C211.792 334.22 209.752 336.78 206.932 336.78C204.112 336.78 202.072 334.22 202.072 330.14C202.072 326.1 204.112 323.54 206.932 323.54ZM206.932 325.96C205.552 325.96 204.632 327.42 204.632 330.14C204.632 332.9 205.552 334.38 206.932 334.38C208.312 334.38 209.252 332.9 209.252 330.14C209.252 327.42 208.312 325.96 206.932 325.96ZM213.812 322.26H216.492V340.78H213.812V322.26ZM215.892 329.24H219.172V331.44H215.892V329.24ZM220.39 336.48H237.15V338.64H220.39V336.48ZM227.41 332.52H230.07V337H227.41V332.52ZM222.15 323.44H224.79V326.28H232.69V323.44H235.33V333.08H222.15V323.44ZM224.79 328.36V330.96H232.69V328.36H224.79ZM246.069 328.48H249.129V330.64H246.069V328.48ZM242.109 323.86H244.149V326.98C244.149 331.18 242.989 335.28 240.029 337.1L238.429 335.1C241.149 333.42 242.109 330.12 242.109 326.98V323.86ZM242.689 323.86H244.689V326.86C244.689 329.88 245.469 332.96 247.989 334.6L246.549 336.68C243.609 334.86 242.689 330.86 242.689 326.86V323.86ZM252.149 322.26H254.689V340.78H252.149V322.26ZM248.389 322.54H250.869V339.94H248.389V322.54ZM260.867 331.66H263.507V336.86H260.867V331.66ZM267.587 331.66H270.247V336.86H267.587V331.66ZM257.187 336.48H273.947V338.64H257.187V336.48ZM265.547 323.16C269.527 323.16 272.467 325.12 272.467 328.14C272.467 331.16 269.527 333.1 265.547 333.1C261.547 333.1 258.627 331.16 258.627 328.14C258.627 325.12 261.547 323.16 265.547 323.16ZM265.547 325.24C262.967 325.24 261.247 326.3 261.247 328.14C261.247 329.96 262.967 331.04 265.547 331.04C268.127 331.04 269.847 329.96 269.847 328.14C269.847 326.3 268.127 325.24 265.547 325.24ZM278.826 334.26H276.446L275.946 324.72H279.326L278.826 334.26ZM275.906 337.6C275.906 336.987 276.072 336.56 276.406 336.32C276.739 336.067 277.146 335.94 277.626 335.94C278.092 335.94 278.492 336.067 278.826 336.32C279.159 336.56 279.326 336.987 279.326 337.6C279.326 338.187 279.159 338.613 278.826 338.88C278.492 339.133 278.092 339.26 277.626 339.26C277.146 339.26 276.739 339.133 276.406 338.88C276.072 338.613 275.906 338.187 275.906 337.6Z" fill="black" fill-opacity="0.87"/>
<path d="M332.778 631.897L326.08 625.19C326.015 625.125 325.963 625.047 325.928 624.962C325.893 624.876 325.876 624.785 325.877 624.692C325.878 624.6 325.897 624.509 325.934 624.424C325.971 624.34 326.025 624.264 326.092 624.2C326.229 624.07 326.411 623.998 326.6 624.001C326.789 624.003 326.97 624.079 327.104 624.212L334.297 631.415C334.362 631.48 334.414 631.557 334.449 631.641C334.484 631.726 334.501 631.817 334.501 631.909C334.5 632 334.481 632.091 334.445 632.175C334.409 632.26 334.357 632.336 334.291 632.4L326.72 639.795C326.584 639.926 326.403 639.999 326.215 639.999C326.027 639.999 325.846 639.926 325.71 639.795C325.644 639.731 325.591 639.654 325.555 639.569C325.519 639.484 325.501 639.392 325.501 639.3C325.501 639.208 325.519 639.116 325.555 639.031C325.591 638.946 325.644 638.869 325.71 638.805L332.778 631.897Z" fill="black" fill-opacity="0.87"/>
<g filter="url(#filter3_d_988_7849)">
<path d="M0 745C0 736.716 6.71573 730 15 730H345C353.284 730 360 736.716 360 745V800H0V745Z" fill="white"/>
</g>
<path d="M0 745C0 736.716 6.71573 730 15 730H72V800H0V745Z" fill="white"/>
<path d="M72 730H144V800H72V730Z" fill="white"/>
<path d="M144 730H216V800H144V730Z" fill="white"/>
<path d="M216 730H288V800H216V730Z" fill="white"/>
<path d="M288 730H345C353.284 730 360 736.716 360 745V800H288V730Z" fill="white"/>
<path d="M32.8904 781.08H39.0604V783.66H32.8904V781.08ZM38.2504 781.72H33.7104V783.03H38.2504V781.72ZM32.3204 775.48H39.5904V776.13H32.3204V775.48ZM35.9804 776.49C37.8404 776.49 38.9004 776.93 38.9004 777.77C38.9004 778.61 37.8404 779.05 35.9804 779.05C34.1104 779.05 33.0604 778.61 33.0604 777.77C33.0604 776.93 34.1104 776.49 35.9804 776.49ZM35.9804 777.07C34.6704 777.07 33.9404 777.32 33.9404 777.77C33.9404 778.22 34.6704 778.47 35.9804 778.47C37.2804 778.47 38.0104 778.22 38.0104 777.77C38.0104 777.32 37.2804 777.07 35.9804 777.07ZM35.5704 774.61H36.3904V775.9H35.5704V774.61ZM31.8904 779.74H40.0604V780.39H31.8904V779.74ZM35.5704 778.85H36.3904V780.1H35.5704V778.85Z" fill="black" fill-opacity="0.87"/>
<path d="M92.3912 775.06H93.1212V775.56C93.1212 777.29 91.3612 778.53 89.4812 778.85L89.1512 778.18C90.8012 777.93 92.3912 776.85 92.3912 775.56V775.06ZM92.5412 775.06H93.2612V775.56C93.2612 776.82 94.8712 777.93 96.5012 778.18L96.1712 778.85C94.3112 778.53 92.5412 777.27 92.5412 775.56V775.06ZM92.3912 780.34H93.2112V783.78H92.3912V780.34ZM88.7412 779.83H96.9112V780.52H88.7412V779.83ZM104.51 774.74H105.35V779.59H104.51V774.74ZM99.5204 780.04H100.34V781.14H104.53V780.04H105.35V783.66H99.5204V780.04ZM100.34 781.8V782.99H104.53V781.8H100.34ZM100.5 775.17C101.87 775.17 102.85 776.02 102.85 777.25C102.85 778.49 101.87 779.34 100.5 779.34C99.1304 779.34 98.1404 778.49 98.1404 777.25C98.1404 776.02 99.1304 775.17 100.5 775.17ZM100.5 775.86C99.6004 775.86 98.9504 776.43 98.9504 777.25C98.9504 778.07 99.6004 778.64 100.5 778.64C101.4 778.64 102.05 778.07 102.05 777.25C102.05 776.43 101.4 775.86 100.5 775.86ZM110.26 775.86L107.6 783H106.74L109.4 775.86H110.26ZM113.25 776.03H113.92V777.5C113.92 779.41 112.77 781.33 111.33 782.04L110.85 781.38C112.16 780.76 113.25 779.06 113.25 777.5V776.03ZM113.41 776.03H114.08V777.5C114.08 779.03 115.17 780.59 116.5 781.16L116.03 781.82C114.57 781.14 113.41 779.38 113.41 777.5V776.03ZM111.15 775.66H116.2V776.36H111.15V775.66ZM117.42 774.74H118.25V783.78H117.42V774.74ZM123.72 779.24H124.55V780.61H123.72V779.24ZM120.06 778.75H128.22V779.39H120.06V778.75ZM123.73 774.68H124.55V775.78H123.73V774.68ZM123.69 775.86H124.42V776C124.42 777.42 122.73 778.18 120.73 778.35L120.49 777.71C122.27 777.6 123.69 776.97 123.69 776V775.86ZM123.86 775.86H124.59V776C124.59 776.97 126.01 777.6 127.78 777.71L127.54 778.35C125.54 778.18 123.86 777.42 123.86 776V775.86ZM120.89 775.53H127.39V776.16H120.89V775.53ZM121.04 780.21H127.18V782.2H121.88V783.29H121.06V781.61H126.36V780.84H121.04V780.21ZM121.06 783.05H127.45V783.68H121.06V783.05Z" fill="black" fill-opacity="0.87"/>
<path d="M175.301 777.25H177.311V777.92H175.301V777.25ZM175.231 779.52H177.291V780.19H175.231V779.52ZM178.681 774.74H179.481V783.78H178.681V774.74ZM176.871 774.97H177.651V783.32H176.871V774.97ZM174.851 775.88H175.651C175.651 778.25 174.701 780.38 172.271 781.83L171.791 781.24C173.901 779.96 174.851 778.16 174.851 776.03V775.88ZM172.191 775.88H175.181V776.56H172.191V775.88ZM181.33 775.56H186.62V776.18H181.33V775.56ZM183.98 776.53C185.28 776.53 186.13 777.05 186.13 777.87C186.13 778.7 185.28 779.22 183.98 779.22C182.69 779.22 181.84 778.7 181.84 777.87C181.84 777.05 182.69 776.53 183.98 776.53ZM183.98 777.11C183.17 777.11 182.62 777.4 182.62 777.87C182.62 778.33 183.17 778.64 183.98 778.64C184.81 778.64 185.34 778.33 185.34 777.87C185.34 777.4 184.81 777.11 183.98 777.11ZM183.56 774.68H184.4V775.89H183.56V774.68ZM183.56 778.89H184.4V780.12H183.56V778.89ZM187.56 774.75H188.39V780.8H187.56V774.75ZM182.33 781.22H188.39V783.78H187.56V781.88H182.33V781.22ZM181.15 780.52L181.04 779.85C182.7 779.85 184.94 779.84 186.84 779.58L186.9 780.16C184.93 780.49 182.78 780.52 181.15 780.52Z" fill="black" fill-opacity="0.87"/>
<path d="M239.191 775.62H242.461V776.3H239.191V775.62ZM242.031 775.62H242.801V776.22C242.801 776.98 242.801 777.97 242.491 779.34L241.721 779.25C242.031 777.9 242.031 776.97 242.031 776.22V775.62ZM242.401 777.21V777.81L239.061 778.09L238.931 777.41L242.401 777.21ZM245.551 774.74H246.351V783.78H245.551V774.74ZM243.851 774.94H244.631V783.28H243.851V774.94ZM242.161 780.55H244.131V781.2H242.161V780.55ZM240.511 779.49H241.301V783.05H240.511V779.49ZM238.681 779.9L238.581 779.19C239.861 779.18 241.861 779.13 243.301 778.93L243.351 779.56C241.881 779.82 239.941 779.9 238.681 779.9ZM251.52 775.36H252.24V776.05C252.24 778.02 250.41 779.55 248.6 779.96L248.23 779.27C249.82 778.97 251.52 777.59 251.52 776.05V775.36ZM251.67 775.36H252.39V776.05C252.39 777.6 254.1 778.97 255.68 779.27L255.31 779.96C253.51 779.55 251.67 778.03 251.67 776.05V775.36ZM247.9 781.88H256.09V782.56H247.9V781.88ZM258.15 779.61H264.36V780.28H258.15V779.61ZM257.1 781.93H265.29V782.62H257.1V781.93ZM258.15 775.51H264.26V776.19H258.99V779.82H258.15V775.51ZM258.72 777.53H264.07V778.19H258.72V777.53Z" fill="black" fill-opacity="0.87"/>
<path d="M301.852 775.64H306.002V781.49H301.852V775.64ZM305.192 776.31H302.662V780.82H305.192V776.31ZM307.612 774.74H308.452V783.78H307.612V774.74ZM308.252 778.35H309.932V779.05H308.252V778.35ZM317.261 774.73H318.091V783.79H317.261V774.73ZM313.321 775.43C314.661 775.43 315.621 776.66 315.621 778.58C315.621 780.51 314.661 781.74 313.321 781.74C311.991 781.74 311.031 780.51 311.031 778.58C311.031 776.66 311.991 775.43 313.321 775.43ZM313.321 776.18C312.441 776.18 311.821 777.12 311.821 778.58C311.821 780.05 312.441 781.01 313.321 781.01C314.211 781.01 314.821 780.05 314.821 778.58C314.821 777.12 314.211 776.18 313.321 776.18ZM326.82 774.74H327.62V783.78H326.82V774.74ZM323.84 778.18H325.34V778.91H323.84V778.18ZM325.07 774.96H325.86V783.31H325.07V774.96ZM319.98 775.88H324.11V776.56H319.98V775.88ZM319.9 781.56L319.8 780.86C320.97 780.86 322.93 780.82 324.3 780.64L324.36 781.25C322.95 781.52 321.06 781.56 319.9 781.56ZM320.72 776.32H321.48V781.05H320.72V776.32ZM322.6 776.32H323.36V781.05H322.6V776.32ZM335.66 774.73H336.49V783.79H335.66V774.73ZM331.72 775.43C333.06 775.43 334.02 776.66 334.02 778.58C334.02 780.51 333.06 781.74 331.72 781.74C330.39 781.74 329.43 780.51 329.43 778.58C329.43 776.66 330.39 775.43 331.72 775.43ZM331.72 776.18C330.84 776.18 330.22 777.12 330.22 778.58C330.22 780.05 330.84 781.01 331.72 781.01C332.61 781.01 333.22 780.05 333.22 778.58C333.22 777.12 332.61 776.18 331.72 776.18ZM340.689 776.03H341.359V777.5C341.359 779.41 340.209 781.33 338.769 782.04L338.289 781.38C339.599 780.76 340.689 779.06 340.689 777.5V776.03ZM340.849 776.03H341.519V777.5C341.519 779.03 342.609 780.59 343.939 781.16L343.469 781.82C342.009 781.14 340.849 779.38 340.849 777.5V776.03ZM338.589 775.66H343.639V776.36H338.589V775.66ZM344.859 774.74H345.689V783.78H344.859V774.74Z" fill="#D0D0D0"/>
<path d="M46.1836 754.836L36.5297 745.189C36.4602 745.119 36.3776 745.064 36.2867 745.026C36.1958 744.989 36.0984 744.969 36 744.969C35.9016 744.969 35.8042 744.989 35.7133 745.026C35.6224 745.064 35.5398 745.119 35.4703 745.189L25.8164 754.836C25.5352 755.117 25.3758 755.499 25.3758 755.898C25.3758 756.725 26.0484 757.398 26.8758 757.398H27.893V764.281C27.893 764.696 28.2281 765.031 28.643 765.031H34.5V759.781H37.125V765.031H43.357C43.7719 765.031 44.107 764.696 44.107 764.281V757.398H45.1242C45.5227 757.398 45.9047 757.241 46.1859 756.957C46.7695 756.371 46.7695 755.422 46.1836 754.836Z" fill="black" fill-opacity="0.87"/>
<path d="M98 760.832V762.5C98 763.879 101.359 765 105.5 765C109.641 765 113 763.879 113 762.5V760.832C111.387 761.969 108.438 762.5 105.5 762.5C102.562 762.5 99.6133 761.969 98 760.832ZM110.5 750C114.641 750 118 748.879 118 747.5C118 746.121 114.641 745 110.5 745C106.359 745 103 746.121 103 747.5C103 748.879 106.359 750 110.5 750ZM98 756.734V758.75C98 760.129 101.359 761.25 105.5 761.25C109.641 761.25 113 760.129 113 758.75V756.734C111.387 758.062 108.434 758.75 105.5 758.75C102.566 758.75 99.6133 758.062 98 756.734ZM114.25 757.164C116.488 756.73 118 755.926 118 755V753.332C117.094 753.973 115.762 754.41 114.25 754.68V757.164ZM105.5 751.25C101.359 751.25 98 752.648 98 754.375C98 756.102 101.359 757.5 105.5 757.5C109.641 757.5 113 756.102 113 754.375C113 752.648 109.641 751.25 105.5 751.25ZM114.066 753.449C116.41 753.027 118 752.199 118 751.25V749.582C116.613 750.562 114.23 751.09 111.723 751.215C112.875 751.773 113.723 752.523 114.066 753.449Z" fill="black" fill-opacity="0.87"/>
<path d="M189.789 744.48L190.379 745.07C191.192 745.884 191.069 747.327 190.102 748.293L177.935 760.46L173.993 761.902C173.498 762.084 173.016 761.848 172.918 761.377C172.885 761.206 172.9 761.029 172.963 760.867L174.433 756.891L186.566 744.757C187.533 743.791 188.976 743.666 189.789 744.48ZM177.404 745.69C177.535 745.69 177.665 745.716 177.787 745.766C177.908 745.816 178.018 745.89 178.111 745.983C178.204 746.076 178.278 746.186 178.328 746.307C178.378 746.428 178.404 746.558 178.404 746.69C178.404 746.821 178.378 746.951 178.328 747.072C178.278 747.194 178.204 747.304 178.111 747.397C178.018 747.49 177.908 747.563 177.787 747.614C177.665 747.664 177.535 747.69 177.404 747.69H173.404C172.874 747.69 172.365 747.9 171.99 748.276C171.615 748.651 171.404 749.159 171.404 749.69V761.69C171.404 762.22 171.615 762.729 171.99 763.104C172.365 763.479 172.874 763.69 173.404 763.69H185.404C185.934 763.69 186.443 763.479 186.818 763.104C187.193 762.729 187.404 762.22 187.404 761.69V757.69C187.404 757.425 187.509 757.17 187.697 756.983C187.884 756.795 188.139 756.69 188.404 756.69C188.669 756.69 188.924 756.795 189.111 756.983C189.299 757.17 189.404 757.425 189.404 757.69V761.69C189.404 762.751 188.983 763.768 188.232 764.518C187.482 765.268 186.465 765.69 185.404 765.69H173.404C172.343 765.69 171.326 765.268 170.576 764.518C169.825 763.768 169.404 762.751 169.404 761.69V749.69C169.404 748.629 169.825 747.611 170.576 746.861C171.326 746.111 172.343 745.69 173.404 745.69H177.404Z" fill="black" fill-opacity="0.87"/>
<g clip-path="url(#clip1_988_7849)">
<path d="M252 743C245.37 743 240 748.37 240 755C240 761.63 245.37 767 252 767C258.63 767 264 761.63 264 755C264 748.37 258.63 743 252 743ZM252 761.73C248.28 761.73 245.27 758.72 245.27 755C245.27 751.28 248.28 748.27 252 748.27C255.72 748.27 258.73 751.28 258.73 755C258.73 758.72 255.72 761.73 252 761.73Z" fill="black" fill-opacity="0.1"/>
<path d="M263.1 759.55C263.21 759.26 263.27 758.96 263.27 758.64C263.27 757.19 262.09 756.01 260.64 756.01C259.57 756.01 258.66 756.65 258.24 757.56H258.23C257.22 760 254.82 761.73 252.01 761.73C248.29 761.73 245.28 758.72 245.28 755C245.28 751.28 248.29 748.27 252.01 748.27C252.16 748.27 252.3 748.28 252.45 748.29V748.27C252.53 748.27 252.6 748.29 252.67 748.29C254.12 748.29 255.3 747.11 255.3 745.66C255.3 744.21 254.18 743.1 252.78 743.04C252.52 743 252.26 743 252 743C245.42 743 240 748.42 240 755C240 761.58 245.42 767 252 767C256.78 767 261.11 764.14 263.01 759.76C263.04 759.71 263.06 759.65 263.08 759.6C263.08 759.58 263.1 759.57 263.1 759.55Z" fill="black" fill-opacity="0.87"/>
</g>
<path d="M333.65 763.625C333.584 763.739 333.489 763.834 333.375 763.9C333.261 763.965 333.132 764 333 764H315C314.868 764 314.739 763.965 314.625 763.899C314.511 763.833 314.417 763.739 314.351 763.625C314.285 763.511 314.251 763.382 314.251 763.25C314.251 763.118 314.285 762.989 314.351 762.875C315.779 760.407 317.979 758.637 320.547 757.798C319.277 757.041 318.29 755.889 317.738 754.518C317.186 753.147 317.1 751.632 317.492 750.207C317.884 748.782 318.733 747.525 319.909 746.629C321.085 745.733 322.522 745.248 324 745.248C325.478 745.248 326.916 745.733 328.091 746.629C329.267 747.525 330.116 748.782 330.508 750.207C330.9 751.632 330.814 753.147 330.262 754.518C329.71 755.889 328.723 757.041 327.453 757.798C330.021 758.637 332.221 760.407 333.649 762.875C333.715 762.989 333.75 763.118 333.75 763.25C333.75 763.382 333.715 763.511 333.65 763.625Z" fill="#D0D0D0"/>
</g>
<defs>
<filter id="filter0_d_988_7849" x="-13" y="-13" width="386" height="329" filterUnits="userSpaceOnUse" color-interpolation-filters="sRGB">
<feFlood flood-opacity="0" result="BackgroundImageFix"/>
<feColorMatrix in="SourceAlpha" type="matrix" values="0 0 0 0 0 0 0 0 0 0 0 0 0 0 0 0 0 0 127 0" result="hardAlpha"/>
<feMorphology radius="5" operator="dilate" in="SourceAlpha" result="effect1_dropShadow_988_7849"/>
<feOffset/>
<feGaussianBlur stdDeviation="4"/>
<feComposite in2="hardAlpha" operator="out"/>
<feColorMatrix type="matrix" values="0 0 0 0 0 0 0 0 0 0 0 0 0 0 0 0 0 0 0.08 0"/>
<feBlend mode="normal" in2="BackgroundImageFix" result="effect1_dropShadow_988_7849"/>
<feBlend mode="normal" in="SourceGraphic" in2="effect1_dropShadow_988_7849" result="shape"/>
</filter>
<filter id="filter1_d_988_7849" x="131" y="46" width="98" height="98" filterUnits="userSpaceOnUse" color-interpolation-filters="sRGB">
<feFlood flood-opacity="0" result="BackgroundImageFix"/>
<feColorMatrix in="SourceAlpha" type="matrix" values="0 0 0 0 0 0 0 0 0 0 0 0 0 0 0 0 0 0 127 0" result="hardAlpha"/>
<feMorphology radius="1" operator="dilate" in="SourceAlpha" result="effect1_dropShadow_988_7849"/>
<feOffset/>
<feGaussianBlur stdDeviation="1.5"/>
<feComposite in2="hardAlpha" operator="out"/>
<feColorMatrix type="matrix" values="0 0 0 0 0 0 0 0 0 0 0 0 0 0 0 0 0 0 0.1 0"/>
<feBlend mode="normal" in2="BackgroundImageFix" result="effect1_dropShadow_988_7849"/>
<feBlend mode="normal" in="SourceGraphic" in2="effect1_dropShadow_988_7849" result="shape"/>
</filter>
<filter id="filter2_d_988_7849" x="16" y="351" width="328" height="164" filterUnits="userSpaceOnUse" color-interpolation-filters="sRGB">
<feFlood flood-opacity="0" result="BackgroundImageFix"/>
<feColorMatrix in="SourceAlpha" type="matrix" values="0 0 0 0 0 0 0 0 0 0 0 0 0 0 0 0 0 0 127 0" result="hardAlpha"/>
<feMorphology radius="1" operator="dilate" in="SourceAlpha" result="effect1_dropShadow_988_7849"/>
<feOffset/>
<feGaussianBlur stdDeviation="1.5"/>
<feComposite in2="hardAlpha" operator="out"/>
<feColorMatrix type="matrix" values="0 0 0 0 0 0 0 0 0 0 0 0 0 0 0 0 0 0 0.1 0"/>
<feBlend mode="normal" in2="BackgroundImageFix" result="effect1_dropShadow_988_7849"/>
<feBlend mode="normal" in="SourceGraphic" in2="effect1_dropShadow_988_7849" result="shape"/>
</filter>
<filter id="filter3_d_988_7849" x="-5" y="724" width="370" height="80" filterUnits="userSpaceOnUse" color-interpolation-filters="sRGB">
<feFlood flood-opacity="0" result="BackgroundImageFix"/>
<feColorMatrix in="SourceAlpha" type="matrix" values="0 0 0 0 0 0 0 0 0 0 0 0 0 0 0 0 0 0 127 0" result="hardAlpha"/>
<feMorphology radius="1" operator="dilate" in="SourceAlpha" result="effect1_dropShadow_988_7849"/>
<feOffset dy="-1"/>
<feGaussianBlur stdDeviation="2"/>
<feComposite in2="hardAlpha" operator="out"/>
<feColorMatrix type="matrix" values="0 0 0 0 0 0 0 0 0 0 0 0 0 0 0 0 0 0 0.1 0"/>
<feBlend mode="normal" in2="BackgroundImageFix" result="effect1_dropShadow_988_7849"/>
<feBlend mode="normal" in="SourceGraphic" in2="effect1_dropShadow_988_7849" result="shape"/>
</filter>
<clipPath id="clip0_988_7849">
<rect width="360" height="800" fill="white"/>
</clipPath>
<clipPath id="clip1_988_7849">
<rect width="24" height="24" fill="white" transform="translate(240 743)"/>
</clipPath>
</defs>
</svg>
