<svg width="355" height="888" viewBox="0 0 355 888" fill="none" xmlns="http://www.w3.org/2000/svg">
<g filter="url(#filter0_d_991_6771)">
<rect x="45" y="45.6328" width="358.531" height="796.735" rx="19.9184" fill="white" shape-rendering="crispEdges"/>
<path d="M69.7347 65.6084H68.3752V59.4715C68.3752 59.2558 68.3752 59.0572 68.3752 58.876C68.3839 58.6861 68.3925 58.5048 68.4011 58.3322C68.4098 58.151 68.4184 57.9783 68.427 57.8143C68.3148 57.9265 68.1983 58.0344 68.0774 58.138C67.9566 58.2416 67.8185 58.3624 67.6631 58.5005L66.6533 59.3162L65.9542 58.4358L68.5953 56.3643H69.7347V65.6084ZM79.1505 60.9734C79.1505 61.7243 79.0901 62.3932 78.9693 62.9802C78.8571 63.5671 78.6758 64.0677 78.4255 64.482C78.1838 64.8877 77.8601 65.1984 77.4545 65.4142C77.0574 65.63 76.5784 65.7379 76.0174 65.7379C75.3096 65.7379 74.727 65.548 74.2695 65.1682C73.8121 64.7884 73.4711 64.2447 73.2467 63.5369C73.0223 62.8205 72.9101 61.966 72.9101 60.9734C72.9101 59.9722 73.0094 59.1177 73.2079 58.4099C73.415 57.7021 73.7473 57.1627 74.2048 56.7915C74.6622 56.4118 75.2664 56.2219 76.0174 56.2219C76.7251 56.2219 77.3077 56.4118 77.7652 56.7915C78.2313 57.1627 78.5765 57.7021 78.801 58.4099C79.034 59.1177 79.1505 59.9722 79.1505 60.9734ZM74.2825 60.9734C74.2825 61.7761 74.3386 62.445 74.4508 62.9802C74.563 63.5153 74.7442 63.9167 74.9946 64.1842C75.2535 64.4518 75.5944 64.5856 76.0174 64.5856C76.4403 64.5856 76.7769 64.4561 77.0272 64.1972C77.2862 63.9296 77.4717 63.5283 77.5839 62.9931C77.7048 62.4493 77.7652 61.7761 77.7652 60.9734C77.7652 60.1707 77.7048 59.5061 77.5839 58.9796C77.4717 58.4444 77.2862 58.0431 77.0272 57.7755C76.7769 57.5079 76.4403 57.3741 76.0174 57.3741C75.5944 57.3741 75.2535 57.5079 74.9946 57.7755C74.7442 58.0431 74.563 58.4444 74.4508 58.9796C74.3386 59.5061 74.2825 60.1707 74.2825 60.9734ZM80.617 64.8445C80.617 64.5079 80.7033 64.2705 80.8759 64.1324C81.0485 63.9943 81.2557 63.9253 81.4974 63.9253C81.7477 63.9253 81.9591 63.9943 82.1318 64.1324C82.3044 64.2705 82.3907 64.5079 82.3907 64.8445C82.3907 65.1811 82.3044 65.4228 82.1318 65.5696C81.9591 65.7163 81.7477 65.7897 81.4974 65.7897C81.2557 65.7897 81.0485 65.7163 80.8759 65.5696C80.7033 65.4228 80.617 65.1811 80.617 64.8445ZM80.617 59.4068C80.617 59.0529 80.7033 58.8069 80.8759 58.6688C81.0485 58.5307 81.2557 58.4617 81.4974 58.4617C81.7477 58.4617 81.9591 58.5307 82.1318 58.6688C82.3044 58.8069 82.3907 59.0529 82.3907 59.4068C82.3907 59.7348 82.3044 59.9722 82.1318 60.1189C81.9591 60.2656 81.7477 60.339 81.4974 60.339C81.2557 60.339 81.0485 60.2656 80.8759 60.1189C80.7033 59.9722 80.617 59.7348 80.617 59.4068ZM90.0868 65.6084H83.8723V64.5467L86.2545 62.1257C86.7206 61.651 87.109 61.241 87.4198 60.8957C87.7305 60.5418 87.9635 60.2052 88.1189 59.8859C88.2743 59.5579 88.352 59.204 88.352 58.8242C88.352 58.3495 88.2139 57.9956 87.9377 57.7626C87.6614 57.5209 87.3033 57.4 86.8631 57.4C86.4401 57.4 86.0603 57.482 85.7237 57.646C85.3871 57.8014 85.0375 58.0215 84.675 58.3063L83.937 57.3871C84.1874 57.1713 84.4549 56.9771 84.7398 56.8045C85.0332 56.6319 85.3569 56.4938 85.7108 56.3902C86.0733 56.2866 86.4703 56.2348 86.9019 56.2348C87.4888 56.2348 87.9938 56.3384 88.4167 56.5455C88.8396 56.7441 89.1633 57.0289 89.3877 57.4C89.6208 57.7712 89.7373 58.2071 89.7373 58.7077C89.7373 59.0788 89.6812 59.4284 89.569 59.7564C89.4568 60.0757 89.2928 60.3908 89.077 60.7015C88.8698 61.0122 88.6152 61.3273 88.3131 61.6466C88.011 61.966 87.6787 62.3026 87.3162 62.6565L85.5943 64.3267V64.3914H90.0868V65.6084ZM97.4959 65.6084H91.2814V64.5467L93.6636 62.1257C94.1297 61.651 94.5181 61.241 94.8289 60.8957C95.1396 60.5418 95.3726 60.2052 95.528 59.8859C95.6834 59.5579 95.761 59.204 95.761 58.8242C95.761 58.3495 95.6229 57.9956 95.3467 57.7626C95.0705 57.5209 94.7123 57.4 94.2721 57.4C93.8492 57.4 93.4694 57.482 93.1328 57.646C92.7962 57.8014 92.4466 58.0215 92.0841 58.3063L91.3461 57.3871C91.5964 57.1713 91.864 56.9771 92.1488 56.8045C92.4423 56.6319 92.766 56.4938 93.1199 56.3902C93.4824 56.2866 93.8794 56.2348 94.311 56.2348C94.8979 56.2348 95.4028 56.3384 95.8258 56.5455C96.2487 56.7441 96.5724 57.0289 96.7968 57.4C97.0298 57.7712 97.1464 58.2071 97.1464 58.7077C97.1464 59.0788 97.0903 59.4284 96.9781 59.7564C96.8658 60.0757 96.7019 60.3908 96.4861 60.7015C96.2789 61.0122 96.0243 61.3273 95.7222 61.6466C95.4201 61.966 95.0878 62.3026 94.7253 62.6565L93.0033 64.3267V64.3914H97.4959V65.6084Z" fill="black"/>
<g clip-path="url(#clip0_991_6771)">
<path d="M343.012 62.7955L341.618 61.3681C342.304 60.682 343.089 60.1564 343.975 59.7912C344.86 59.426 345.79 59.2434 346.763 59.2434C347.737 59.2434 348.669 59.4289 349.561 59.7998C350.452 60.1708 351.234 60.7046 351.909 61.4013L350.515 62.7955C350.017 62.2976 349.444 61.9132 348.796 61.6423C348.149 61.3714 347.471 61.2357 346.763 61.2353C346.055 61.2353 345.377 61.3709 344.73 61.6423C344.083 61.9136 343.51 62.298 343.012 62.7955ZM340.19 59.9738L338.796 58.5795C339.847 57.5061 341.062 56.6844 342.44 56.1143C343.818 55.5442 345.259 55.2593 346.763 55.2598C348.268 55.2598 349.71 55.5448 351.088 56.1149C352.465 56.685 353.68 57.5066 354.731 58.5795L353.336 59.9738C352.462 59.0996 351.458 58.4275 350.323 57.9574C349.189 57.4873 348.002 57.252 346.763 57.2516C345.524 57.2516 344.337 57.4869 343.203 57.9574C342.068 58.4279 341.064 59.1 340.19 59.9738ZM346.763 66.5468L344.423 64.1898C344.733 63.88 345.09 63.6421 345.494 63.4761C345.898 63.3101 346.321 63.2271 346.763 63.2271C347.206 63.2271 347.629 63.3101 348.033 63.4761C348.438 63.6421 348.794 63.88 349.104 64.1898L346.763 66.5468Z" fill="black"/>
</g>
<rect x="314.894" y="60.5728" width="2.98776" height="5.97551" rx="0.497959" fill="black"/>
<rect x="318.878" y="58.5811" width="2.98776" height="7.96735" rx="0.497959" fill="black"/>
<rect x="322.861" y="56.5889" width="2.98776" height="9.95918" rx="0.497959" fill="black"/>
<rect x="326.845" y="54.5972" width="2.98776" height="11.951" rx="0.497959" fill="black"/>
<rect x="45" y="75.5098" width="358.531" height="39.8367" fill="white"/>
<path d="M63.5902 95.5509L71.595 103.566C71.6733 103.644 71.7351 103.737 71.7768 103.839C71.8185 103.941 71.8394 104.051 71.838 104.161C71.8367 104.271 71.8132 104.38 71.769 104.481C71.7248 104.583 71.6608 104.674 71.5807 104.75C71.4169 104.905 71.1989 104.991 70.9731 104.988C70.7472 104.985 70.5313 104.895 70.3712 104.735L61.7749 96.1269C61.6971 96.0497 61.6355 95.9577 61.5937 95.8564C61.5519 95.7551 61.5307 95.6465 61.5314 95.5369C61.5321 95.4273 61.5546 95.3189 61.5976 95.2181C61.6406 95.1173 61.7033 95.0261 61.782 94.9498L70.8302 86.112C70.9921 85.9556 71.2085 85.8682 71.4337 85.8682C71.6589 85.8682 71.8752 85.9556 72.0372 86.112C72.1164 86.1889 72.1793 86.2808 72.2223 86.3824C72.2652 86.484 72.2874 86.5932 72.2874 86.7036C72.2874 86.8139 72.2652 86.9231 72.2223 87.0247C72.1793 87.1263 72.1164 87.2183 72.0372 87.2951L63.5902 95.5509Z" fill="black" fill-opacity="0.87"/>
<path d="M199.401 97.9433H200.74V100.318H199.401V97.9433ZM205.711 89.3067H207.034V103.712H205.711V89.3067ZM195.561 100.971L195.386 99.8714C198.11 99.8555 201.696 99.8236 204.803 99.4252L204.899 100.397C201.696 100.939 198.222 100.971 195.561 100.971ZM195.688 91.0595H204.437V92.1271H195.688V91.0595ZM200.054 92.9557C202.126 92.9557 203.528 94.0074 203.528 95.6168C203.528 97.2422 202.126 98.2779 200.054 98.2779C197.999 98.2779 196.597 97.2422 196.597 95.6168C196.597 94.0074 197.999 92.9557 200.054 92.9557ZM200.054 93.9756C198.764 93.9756 197.855 94.6289 197.855 95.6168C197.855 96.6048 198.764 97.2581 200.054 97.2581C201.361 97.2581 202.269 96.6048 202.269 95.6168C202.269 94.6289 201.361 93.9756 200.054 93.9756ZM199.401 89.3067H200.724V91.6491H199.401V89.3067ZM214.044 96.557H215.366V99.7599H214.044V96.557ZM220.434 89.3067H221.756V100.27H220.434V89.3067ZM211.925 102.309H222.107V103.393H211.925V102.309ZM211.925 99.2021H213.247V102.612H211.925V99.2021ZM210.06 97.051L209.885 95.9674C212.546 95.9674 216.115 95.9355 219.175 95.5372L219.27 96.5092C216.163 97.0031 212.673 97.051 210.06 97.051ZM217.502 97.8158H220.768V98.7878H217.502V97.8158ZM214.57 89.8963C216.673 89.8963 218.107 90.8842 218.107 92.398C218.107 93.9278 216.673 94.9157 214.57 94.9157C212.45 94.9157 211.016 93.9278 211.016 92.398C211.016 90.8842 212.45 89.8963 214.57 89.8963ZM214.57 90.8842C213.215 90.8842 212.275 91.4738 212.275 92.398C212.275 93.3222 213.215 93.9118 214.57 93.9118C215.908 93.9118 216.848 93.3222 216.848 92.398C216.848 91.4738 215.908 90.8842 214.57 90.8842ZM234.359 89.2908H235.698V103.712H234.359V89.2908ZM235.331 95.1388H237.992V96.2383H235.331V95.1388ZM230.678 90.8524H231.969C231.969 94.9476 230.089 98.6444 225.436 100.987L224.703 99.967C228.687 97.9433 230.678 94.8679 230.678 91.0595V90.8524ZM225.372 90.8524H231.364V91.9359H225.372V90.8524ZM249.751 89.3067H251.09V97.035H249.751V89.3067ZM241.8 97.7521H243.106V99.5049H249.783V97.7521H251.09V103.52H241.8V97.7521ZM243.106 100.557V102.453H249.783V100.557H243.106ZM243.361 89.9919C245.544 89.9919 247.106 91.3463 247.106 93.3063C247.106 95.2822 245.544 96.6367 243.361 96.6367C241.178 96.6367 239.601 95.2822 239.601 93.3063C239.601 91.3463 241.178 89.9919 243.361 89.9919ZM243.361 91.0914C241.927 91.0914 240.891 91.9997 240.891 93.3063C240.891 94.6129 241.927 95.5212 243.361 95.5212C244.795 95.5212 245.831 94.6129 245.831 93.3063C245.831 91.9997 244.795 91.0914 243.361 91.0914Z" fill="black" fill-opacity="0.87"/>
<rect x="45" y="115.347" width="358.531" height="0.995918" fill="black" fill-opacity="0.1"/>
<rect x="45" y="115.347" width="358.531" height="0.995918" fill="black" fill-opacity="0.64"/>
<path d="M65.735 154.732H82.4266V156.903H65.735V154.732ZM67.0098 142.183H81.0523V144.294H67.0098V142.183ZM67.0895 149.812H80.9925V151.943H67.0895V149.812ZM69.5195 144.135H72.1687V150.011H69.5195V144.135ZM75.9133 144.135H78.5426V150.011H75.9133V144.135ZM84.0584 154.851H100.75V157.002H84.0584V154.851ZM91.0497 151.365H93.6989V155.728H91.0497V151.365ZM85.9307 141.785H98.8777V147.92H88.5998V151.027H85.9706V145.848H96.2484V143.876H85.9307V141.785ZM85.9706 149.971H99.2959V152.102H85.9706V149.971ZM115.07 140.59H117.739V150.031H115.07V140.59ZM105.25 150.768H117.739V155.747H107.899V157.978H105.29V153.855H115.11V152.8H105.25V150.768ZM105.29 156.863H118.237V158.914H105.29V156.863ZM103.159 141.705H113.098V143.737H103.159V141.705ZM102.939 149.712L102.681 147.621C105.907 147.621 110.21 147.561 113.775 147.123L113.914 149.015C110.269 149.613 106.126 149.692 102.939 149.712ZM104.613 142.621H107.142V148.656H104.613V142.621ZM109.074 142.621H111.644V148.656H109.074V142.621ZM130.002 142.004H132.153V144.693C132.153 149.254 130.56 153.536 127.074 155.249L125.481 153.118C128.588 151.664 130.002 148.119 130.002 144.693V142.004ZM130.54 142.004H132.651V144.693C132.651 147.999 133.966 151.365 136.914 152.8L135.32 154.911C131.994 153.218 130.54 149.115 130.54 144.693V142.004ZM137.651 140.59H140.32V159.034H137.651V140.59ZM139.722 147.68H142.989V149.891H139.722V147.68ZM148.664 142.641H150.855V144.195C150.855 147.68 149.162 150.828 145.617 151.983L144.262 149.911C147.33 148.915 148.664 146.525 148.664 144.195V142.641ZM149.202 142.641H151.373V144.195C151.373 146.386 152.688 148.637 155.695 149.593L154.341 151.644C150.875 150.549 149.202 147.541 149.202 144.195V142.641ZM144.959 141.904H154.998V143.996H144.959V141.904ZM156.851 140.609H159.52V153.915H156.851V140.609ZM147.23 156.604H159.978V158.715H147.23V156.604ZM147.23 152.72H149.879V157.66H147.23V152.72ZM170.852 140.848C175.055 140.848 177.524 141.964 177.524 143.996C177.524 146.027 175.055 147.143 170.852 147.143C166.629 147.143 164.179 146.027 164.179 143.996C164.179 141.964 166.629 140.848 170.852 140.848ZM170.852 142.781C168.183 142.781 166.928 143.179 166.928 143.996C166.928 144.852 168.183 145.211 170.852 145.211C173.521 145.211 174.776 144.852 174.776 143.996C174.776 143.179 173.521 142.781 170.852 142.781ZM162.506 147.999H179.178V150.091H162.506V147.999ZM164.418 151.126H177.166V155.867H167.047V157.5H164.438V154.034H174.557V153.098H164.418V151.126ZM164.438 156.923H177.644V158.914H164.438V156.923ZM195.425 143.279H199.966V145.39H195.425V143.279ZM198.791 140.59H201.44V149.951H198.791V140.59ZM189.25 150.728H201.44V155.688H191.899V157.998H189.29V153.776H198.811V152.76H189.25V150.728ZM189.29 156.783H201.958V158.835H189.29V156.783ZM190.226 141.187H192.377V142.502C192.377 145.987 190.744 148.995 187.218 150.111L185.864 148.019C188.931 147.103 190.226 144.852 190.226 142.502V141.187ZM190.744 141.187H192.895V142.502C192.895 144.693 194.13 146.824 197.038 147.7L195.684 149.752C192.318 148.656 190.744 145.808 190.744 142.502V141.187ZM214.326 145.051H217.831V147.202H214.326V145.051ZM217.114 140.59H219.763V151.545H217.114V140.59ZM213.509 151.943C217.413 151.943 219.823 153.278 219.823 155.508C219.823 157.759 217.413 159.054 213.509 159.054C209.605 159.054 207.195 157.759 207.195 155.508C207.195 153.278 209.605 151.943 213.509 151.943ZM213.509 153.955C211.119 153.955 209.844 154.453 209.844 155.508C209.844 156.544 211.119 157.042 213.509 157.042C215.919 157.042 217.194 156.544 217.194 155.508C217.194 154.453 215.919 153.955 213.509 153.955ZM208.589 142.442H210.74V143.597C210.74 147.123 209.107 150.35 205.582 151.545L204.227 149.453C207.275 148.417 208.589 145.968 208.589 143.597V142.442ZM209.147 142.442H211.278V143.597C211.278 145.768 212.533 148.019 215.441 148.995L214.146 151.087C210.721 149.951 209.147 146.884 209.147 143.597V142.442ZM204.944 141.705H214.864V143.816H204.944V141.705ZM222.63 143.358H231.454V145.47H222.63V143.358ZM227.072 146.286C229.422 146.286 231.115 148.099 231.115 150.688C231.115 153.258 229.422 155.07 227.072 155.07C224.742 155.07 223.029 153.258 223.029 150.688C223.029 148.099 224.742 146.286 227.072 146.286ZM227.072 148.497C226.076 148.497 225.379 149.294 225.379 150.688C225.379 152.082 226.076 152.859 227.072 152.859C228.068 152.859 228.785 152.082 228.785 150.688C228.785 149.294 228.068 148.497 227.072 148.497ZM235.975 140.59H238.505V159.034H235.975V140.59ZM233.765 148.079H236.812V150.21H233.765V148.079ZM232.111 140.928H234.581V158.257H232.111V140.928ZM225.777 141.088H228.387V144.693H225.777V141.088ZM247.805 142.641H250.096V143.179C250.096 146.426 247.447 149.075 242.766 149.712L241.79 147.641C245.853 147.143 247.805 145.071 247.805 143.179V142.641ZM248.562 142.641H250.853V143.179C250.853 145.071 252.805 147.143 256.868 147.641L255.912 149.712C251.211 149.075 248.562 146.426 248.562 143.179V142.641ZM247.945 152.282H250.574V159.054H247.945V152.282ZM240.993 150.768H257.665V152.879H240.993V150.768ZM242.467 141.526H256.151V143.617H242.467V141.526ZM266.567 146.784H269.614V148.935H266.567V146.784ZM262.623 142.183H264.655V145.29C264.655 149.473 263.5 153.556 260.552 155.369L258.958 153.377C261.667 151.704 262.623 148.417 262.623 145.29V142.183ZM263.201 142.183H265.193V145.171C265.193 148.178 265.969 151.246 268.479 152.879L267.045 154.951C264.117 153.138 263.201 149.154 263.201 145.171V142.183ZM272.622 140.59H275.152V159.034H272.622V140.59ZM268.878 140.868H271.347V158.197H268.878V140.868ZM281.305 149.951H283.934V155.13H281.305V149.951ZM287.998 149.951H290.647V155.13H287.998V149.951ZM277.64 154.752H294.332V156.903H277.64V154.752ZM285.966 141.486C289.93 141.486 292.858 143.438 292.858 146.446C292.858 149.453 289.93 151.385 285.966 151.385C281.982 151.385 279.074 149.453 279.074 146.446C279.074 143.438 281.982 141.486 285.966 141.486ZM285.966 143.557C283.396 143.557 281.683 144.613 281.683 146.446C281.683 148.258 283.396 149.334 285.966 149.334C288.535 149.334 290.248 148.258 290.248 146.446C290.248 144.613 288.535 143.557 285.966 143.557Z" fill="black" fill-opacity="0.87"/>
<path d="M189.363 398.911H199.302V401.042H189.363V398.911ZM189.164 407.914L188.885 405.763C191.972 405.763 196.355 405.703 199.98 405.225L200.179 407.137C196.474 407.834 192.211 407.914 189.164 407.914ZM190.817 400.604H193.347V406.759H190.817V400.604ZM195.279 400.604H197.848V406.759H195.279V400.604ZM201.235 397.556H203.904V408.651H201.235V397.556ZM197.689 409.009C201.593 409.009 204.023 410.284 204.023 412.475C204.023 414.706 201.593 415.981 197.689 415.981C193.785 415.981 191.395 414.706 191.395 412.475C191.395 410.284 193.785 409.009 197.689 409.009ZM197.689 411.021C195.279 411.021 194.024 411.499 194.024 412.475C194.024 413.491 195.279 413.969 197.689 413.969C200.119 413.969 201.374 413.491 201.374 412.475C201.374 411.499 200.119 411.021 197.689 411.021ZM207.687 398.911H217.626V401.042H207.687V398.911ZM207.487 407.914L207.208 405.763C210.296 405.763 214.678 405.703 218.303 405.225L218.502 407.137C214.797 407.834 210.535 407.914 207.487 407.914ZM209.141 400.604H211.67V406.759H209.141V400.604ZM213.602 400.604H216.172V406.759H213.602V400.604ZM219.558 397.556H222.227V408.651H219.558V397.556ZM216.012 409.009C219.916 409.009 222.346 410.284 222.346 412.475C222.346 414.706 219.916 415.981 216.012 415.981C212.108 415.981 209.718 414.706 209.718 412.475C209.718 410.284 212.108 409.009 216.012 409.009ZM216.012 411.021C213.602 411.021 212.347 411.499 212.347 412.475C212.347 413.491 213.602 413.969 216.012 413.969C218.442 413.969 219.697 413.491 219.697 412.475C219.697 411.499 218.442 411.021 216.012 411.021ZM237.861 397.516H240.53V416.021H237.861V397.516ZM230.591 398.811C233.38 398.811 235.431 401.361 235.431 405.384C235.431 409.448 233.38 411.997 230.591 411.997C227.803 411.997 225.751 409.448 225.751 405.384C225.751 401.361 227.803 398.811 230.591 398.811ZM230.591 401.221C229.217 401.221 228.281 402.675 228.281 405.384C228.281 408.133 229.217 409.607 230.591 409.607C231.965 409.607 232.882 408.133 232.882 405.384C232.882 402.675 231.965 401.221 230.591 401.221ZM256.205 397.536H258.874V407.874H256.205V397.536ZM244.592 398.592H247.221V406.201H244.592V398.592ZM244.592 404.807H246.186C249.392 404.807 252.002 404.627 254.711 404.05L255.029 406.181C252.221 406.798 249.492 406.998 246.186 406.998H244.592V404.807ZM246.604 408.651H258.874V415.782H246.604V408.651ZM256.264 410.722H249.193V413.69H256.264V410.722Z" fill="#38D6B8"/>
<rect x="64.9184" y="762.693" width="318.694" height="39.8367" rx="4.97959" fill="#D0D0D0"/>
<path d="M214.438 782.36H215.595V784.27H214.438V782.36ZM214.982 777.703C216.808 777.703 218.091 778.707 218.091 780.199C218.091 781.691 216.808 782.681 214.982 782.681C213.169 782.681 211.886 781.691 211.886 780.199C211.886 778.707 213.169 777.703 214.982 777.703ZM214.982 778.596C213.797 778.596 212.974 779.251 212.974 780.199C212.974 781.161 213.797 781.802 214.982 781.802C216.181 781.802 217.003 781.161 217.003 780.199C217.003 779.251 216.181 778.596 214.982 778.596ZM219.792 777.146H220.949V786.78H219.792V777.146ZM220.461 781.398H222.79V782.36H220.461V781.398ZM212.974 788.495H221.395V789.457H212.974V788.495ZM212.974 785.957H214.131V788.913H212.974V785.957ZM211.315 784.912L211.161 783.964C213.378 783.964 216.446 783.936 219.011 783.545L219.095 784.396C216.46 784.884 213.476 784.912 211.315 784.912ZM227.195 784.521H228.338V787.617H227.195V784.521ZM231.224 784.493H232.353V787.603H231.224V784.493ZM224.016 787.226H235.435V788.188H224.016V787.226ZM225.396 778.066H234.027V781.872H226.581V784.41H225.438V780.952H232.883V779H225.396V778.066ZM225.438 783.894H234.319V784.842H225.438V783.894Z" fill="white"/>
<g filter="url(#filter1_d_991_6771)">
<circle cx="224.265" cy="307.559" r="64.7347" fill="#38D6B8"/>
</g>
<path d="M236.714 309.629H226.34V320.004C226.34 320.554 226.122 321.082 225.732 321.471C225.343 321.86 224.816 322.078 224.265 322.078C223.715 322.078 223.187 321.86 222.798 321.471C222.409 321.082 222.19 320.554 222.19 320.004V309.629H211.816C211.266 309.629 210.738 309.411 210.349 309.022C209.96 308.633 209.742 308.105 209.742 307.555C209.742 307.004 209.96 306.477 210.349 306.087C210.738 305.698 211.266 305.48 211.816 305.48H222.19V295.106C222.19 294.555 222.409 294.028 222.798 293.638C223.187 293.249 223.715 293.031 224.265 293.031C224.816 293.031 225.343 293.249 225.732 293.638C226.122 294.028 226.34 294.555 226.34 295.106V305.48H236.714C237.265 305.48 237.792 305.698 238.181 306.087C238.571 306.477 238.789 307.004 238.789 307.555C238.789 308.105 238.571 308.633 238.181 309.022C237.792 309.411 237.265 309.629 236.714 309.629Z" fill="white"/>
</g>
<defs>
<filter id="filter0_d_991_6771" x="0.183672" y="0.816484" width="448.163" height="886.368" filterUnits="userSpaceOnUse" color-interpolation-filters="sRGB">
<feFlood flood-opacity="0" result="BackgroundImageFix"/>
<feColorMatrix in="SourceAlpha" type="matrix" values="0 0 0 0 0 0 0 0 0 0 0 0 0 0 0 0 0 0 127 0" result="hardAlpha"/>
<feMorphology radius="14.9388" operator="dilate" in="SourceAlpha" result="effect1_dropShadow_991_6771"/>
<feOffset/>
<feGaussianBlur stdDeviation="14.9388"/>
<feComposite in2="hardAlpha" operator="out"/>
<feColorMatrix type="matrix" values="0 0 0 0 0.502083 0 0 0 0 0.502083 0 0 0 0 0.502083 0 0 0 0.05 0"/>
<feBlend mode="normal" in2="BackgroundImageFix" result="effect1_dropShadow_991_6771"/>
<feBlend mode="normal" in="SourceGraphic" in2="effect1_dropShadow_991_6771" result="shape"/>
</filter>
<filter id="filter1_d_991_6771" x="155.547" y="238.841" width="137.437" height="137.437" filterUnits="userSpaceOnUse" color-interpolation-filters="sRGB">
<feFlood flood-opacity="0" result="BackgroundImageFix"/>
<feColorMatrix in="SourceAlpha" type="matrix" values="0 0 0 0 0 0 0 0 0 0 0 0 0 0 0 0 0 0 127 0" result="hardAlpha"/>
<feMorphology radius="0.995918" operator="dilate" in="SourceAlpha" result="effect1_dropShadow_991_6771"/>
<feOffset/>
<feGaussianBlur stdDeviation="1.49388"/>
<feComposite in2="hardAlpha" operator="out"/>
<feColorMatrix type="matrix" values="0 0 0 0 0 0 0 0 0 0 0 0 0 0 0 0 0 0 0.1 0"/>
<feBlend mode="normal" in2="BackgroundImageFix" result="effect1_dropShadow_991_6771"/>
<feBlend mode="normal" in="SourceGraphic" in2="effect1_dropShadow_991_6771" result="shape"/>
</filter>
<clipPath id="clip0_991_6771">
<rect width="15.9347" height="15.9347" fill="white" transform="translate(338.796 52.604)"/>
</clipPath>
</defs>
</svg>
