<svg width="449" height="888" viewBox="0 0 449 888" fill="none" xmlns="http://www.w3.org/2000/svg">
<g filter="url(#filter0_d_1041_6574)">
<g clip-path="url(#clip0_1041_6574)">
<rect x="45" y="45.6328" width="358.531" height="796.735" rx="19.9184" fill="white"/>
<path d="M69.7347 65.6084H68.3753V59.4715C68.3753 59.2558 68.3753 59.0572 68.3753 58.876C68.3839 58.6861 68.3926 58.5048 68.4012 58.3322C68.4098 58.151 68.4184 57.9783 68.4271 57.8143C68.3149 57.9265 68.1983 58.0344 68.0775 58.138C67.9567 58.2416 67.8186 58.3624 67.6632 58.5005L66.6533 59.3162L65.9542 58.4358L68.5954 56.3643H69.7347V65.6084ZM79.1506 60.9734C79.1506 61.7243 79.0902 62.3932 78.9693 62.9802C78.8571 63.5671 78.6759 64.0677 78.4256 64.482C78.1839 64.8877 77.8602 65.1984 77.4545 65.4142C77.0575 65.63 76.5785 65.7379 76.0174 65.7379C75.3097 65.7379 74.727 65.548 74.2696 65.1682C73.8121 64.7884 73.4712 64.2447 73.2468 63.5369C73.0224 62.8205 72.9102 61.966 72.9102 60.9734C72.9102 59.9722 73.0094 59.1177 73.2079 58.4099C73.4151 57.7021 73.7474 57.1627 74.2049 56.7915C74.6623 56.4118 75.2665 56.2219 76.0174 56.2219C76.7252 56.2219 77.3078 56.4118 77.7653 56.7915C78.2314 57.1627 78.5766 57.7021 78.801 58.4099C79.0341 59.1177 79.1506 59.9722 79.1506 60.9734ZM74.2825 60.9734C74.2825 61.7761 74.3386 62.445 74.4508 62.9802C74.5631 63.5153 74.7443 63.9167 74.9946 64.1842C75.2536 64.4518 75.5945 64.5856 76.0174 64.5856C76.4404 64.5856 76.777 64.4561 77.0273 64.1972C77.2862 63.9296 77.4718 63.5283 77.584 62.9931C77.7048 62.4493 77.7653 61.7761 77.7653 60.9734C77.7653 60.1707 77.7048 59.5061 77.584 58.9796C77.4718 58.4444 77.2862 58.0431 77.0273 57.7755C76.777 57.5079 76.4404 57.3741 76.0174 57.3741C75.5945 57.3741 75.2536 57.5079 74.9946 57.7755C74.7443 58.0431 74.5631 58.4444 74.4508 58.9796C74.3386 59.5061 74.2825 60.1707 74.2825 60.9734ZM80.617 64.8445C80.617 64.5079 80.7033 64.2705 80.876 64.1324C81.0486 63.9943 81.2557 63.9253 81.4974 63.9253C81.7477 63.9253 81.9592 63.9943 82.1318 64.1324C82.3044 64.2705 82.3908 64.5079 82.3908 64.8445C82.3908 65.1811 82.3044 65.4228 82.1318 65.5696C81.9592 65.7163 81.7477 65.7897 81.4974 65.7897C81.2557 65.7897 81.0486 65.7163 80.876 65.5696C80.7033 65.4228 80.617 65.1811 80.617 64.8445ZM80.617 59.4068C80.617 59.0529 80.7033 58.8069 80.876 58.6688C81.0486 58.5307 81.2557 58.4617 81.4974 58.4617C81.7477 58.4617 81.9592 58.5307 82.1318 58.6688C82.3044 58.8069 82.3908 59.0529 82.3908 59.4068C82.3908 59.7348 82.3044 59.9722 82.1318 60.1189C81.9592 60.2656 81.7477 60.339 81.4974 60.339C81.2557 60.339 81.0486 60.2656 80.876 60.1189C80.7033 59.9722 80.617 59.7348 80.617 59.4068ZM90.0869 65.6084H83.8724V64.5467L86.2546 62.1257C86.7207 61.651 87.1091 61.241 87.4198 60.8957C87.7306 60.5418 87.9636 60.2052 88.119 59.8859C88.2743 59.5579 88.352 59.204 88.352 58.8242C88.352 58.3495 88.2139 57.9956 87.9377 57.7626C87.6615 57.5209 87.3033 57.4 86.8631 57.4C86.4402 57.4 86.0604 57.482 85.7238 57.646C85.3872 57.8014 85.0376 58.0215 84.6751 58.3063L83.9371 57.3871C84.1874 57.1713 84.455 56.9771 84.7398 56.8045C85.0333 56.6319 85.357 56.4938 85.7108 56.3902C86.0734 56.2866 86.4704 56.2348 86.902 56.2348C87.4889 56.2348 87.9938 56.3384 88.4167 56.5455C88.8397 56.7441 89.1634 57.0289 89.3878 57.4C89.6208 57.7712 89.7373 58.2071 89.7373 58.7077C89.7373 59.0788 89.6812 59.4284 89.569 59.7564C89.4568 60.0757 89.2928 60.3908 89.077 60.7015C88.8699 61.0122 88.6153 61.3273 88.3132 61.6466C88.0111 61.966 87.6788 62.3026 87.3163 62.6565L85.5943 64.3267V64.3914H90.0869V65.6084ZM97.496 65.6084H91.2815V64.5467L93.6637 62.1257C94.1298 61.651 94.5182 61.241 94.8289 60.8957C95.1396 60.5418 95.3727 60.2052 95.5281 59.8859C95.6834 59.5579 95.7611 59.204 95.7611 58.8242C95.7611 58.3495 95.623 57.9956 95.3468 57.7626C95.0706 57.5209 94.7124 57.4 94.2722 57.4C93.8493 57.4 93.4695 57.482 93.1329 57.646C92.7963 57.8014 92.4467 58.0215 92.0842 58.3063L91.3462 57.3871C91.5965 57.1713 91.8641 56.9771 92.1489 56.8045C92.4424 56.6319 92.766 56.4938 93.1199 56.3902C93.4824 56.2866 93.8795 56.2348 94.311 56.2348C94.898 56.2348 95.4029 56.3384 95.8258 56.5455C96.2488 56.7441 96.5724 57.0289 96.7969 57.4C97.0299 57.7712 97.1464 58.2071 97.1464 58.7077C97.1464 59.0788 97.0903 59.4284 96.9781 59.7564C96.8659 60.0757 96.7019 60.3908 96.4861 60.7015C96.279 61.0122 96.0244 61.3273 95.7223 61.6466C95.4202 61.966 95.0879 62.3026 94.7253 62.6565L93.0034 64.3267V64.3914H97.496V65.6084Z" fill="black"/>
<g clip-path="url(#clip1_1041_6574)">
<path d="M343.012 62.7955L341.618 61.3681C342.304 60.682 343.09 60.1564 343.975 59.7912C344.86 59.426 345.79 59.2434 346.763 59.2434C347.737 59.2434 348.67 59.4289 349.561 59.7998C350.452 60.1708 351.234 60.7046 351.909 61.4013L350.515 62.7955C350.017 62.2976 349.444 61.9132 348.796 61.6423C348.149 61.3714 347.471 61.2357 346.763 61.2353C346.055 61.2353 345.377 61.3709 344.73 61.6423C344.083 61.9136 343.51 62.298 343.012 62.7955ZM340.19 59.9738L338.796 58.5795C339.847 57.5061 341.062 56.6844 342.44 56.1143C343.818 55.5442 345.259 55.2593 346.763 55.2598C348.268 55.2598 349.71 55.5448 351.088 56.1149C352.466 56.685 353.68 57.5066 354.731 58.5795L353.336 59.9738C352.462 59.0996 351.458 58.4275 350.323 57.9574C349.189 57.4873 348.002 57.252 346.763 57.2516C345.524 57.2516 344.337 57.4869 343.203 57.9574C342.068 58.4279 341.064 59.1 340.19 59.9738ZM346.763 66.5468L344.423 64.1898C344.733 63.88 345.09 63.6421 345.494 63.4761C345.898 63.3101 346.321 63.2271 346.763 63.2271C347.206 63.2271 347.629 63.3101 348.033 63.4761C348.438 63.6421 348.794 63.88 349.104 64.1898L346.763 66.5468Z" fill="black"/>
</g>
<rect x="363.047" y="56.937" width="16.4232" height="7.41248" rx="1.64327" stroke="black" stroke-width="0.697143"/>
<rect x="363.694" y="57.5845" width="11.951" height="5.97551" rx="1.99184" fill="black"/>
<rect x="380.067" y="58.6396" width="1.30418" height="4.00739" rx="0.24898" fill="black" stroke="black" stroke-width="0.497959"/>
<rect x="314.894" y="60.5728" width="2.98776" height="5.97551" rx="0.497959" fill="black"/>
<rect x="318.878" y="58.5811" width="2.98776" height="7.96735" rx="0.497959" fill="black"/>
<rect x="322.861" y="56.5889" width="2.98776" height="9.95918" rx="0.497959" fill="black"/>
<rect x="326.845" y="54.5972" width="2.98776" height="11.951" rx="0.497959" fill="black"/>
<rect x="45.0001" y="75.5098" width="358.531" height="39.8367" fill="white"/>
<path d="M63.5903 95.5509L71.5951 103.566C71.6733 103.644 71.7351 103.737 71.7769 103.839C71.8186 103.941 71.8394 104.051 71.8381 104.161C71.8367 104.271 71.8133 104.38 71.7691 104.481C71.7249 104.583 71.6608 104.674 71.5808 104.75C71.4169 104.905 71.199 104.991 70.9731 104.988C70.7473 104.985 70.5314 104.895 70.3713 104.735L61.7749 96.1269C61.6972 96.0497 61.6356 95.9577 61.5938 95.8564C61.552 95.7551 61.5308 95.6465 61.5314 95.5369C61.5321 95.4273 61.5546 95.3189 61.5977 95.2181C61.6407 95.1173 61.7034 95.0261 61.7821 94.9498L70.8302 86.112C70.9922 85.9556 71.2086 85.8682 71.4338 85.8682C71.6589 85.8682 71.8753 85.9556 72.0373 86.112C72.1164 86.1889 72.1793 86.2808 72.2223 86.3824C72.2653 86.484 72.2874 86.5932 72.2874 86.7036C72.2874 86.8139 72.2653 86.9231 72.2223 87.0247C72.1793 87.1263 72.1164 87.2183 72.0373 87.2951L63.5903 95.5509Z" fill="black" fill-opacity="0.87"/>
<path d="M199.401 97.9433H200.74V100.318H199.401V97.9433ZM205.711 89.3067H207.034V103.712H205.711V89.3067ZM195.561 100.971L195.386 99.8714C198.11 99.8555 201.696 99.8236 204.803 99.4252L204.899 100.397C201.696 100.939 198.222 100.971 195.561 100.971ZM195.688 91.0595H204.437V92.1271H195.688V91.0595ZM200.055 92.9557C202.126 92.9557 203.528 94.0074 203.528 95.6168C203.528 97.2422 202.126 98.2779 200.055 98.2779C197.999 98.2779 196.597 97.2422 196.597 95.6168C196.597 94.0074 197.999 92.9557 200.055 92.9557ZM200.055 93.9756C198.764 93.9756 197.856 94.6289 197.856 95.6168C197.856 96.6048 198.764 97.2581 200.055 97.2581C201.361 97.2581 202.269 96.6048 202.269 95.6168C202.269 94.6289 201.361 93.9756 200.055 93.9756ZM199.401 89.3067H200.724V91.6491H199.401V89.3067ZM214.044 96.557H215.367V99.7599H214.044V96.557ZM220.434 89.3067H221.756V100.27H220.434V89.3067ZM211.925 102.309H222.107V103.393H211.925V102.309ZM211.925 99.2021H213.247V102.612H211.925V99.2021ZM210.06 97.051L209.885 95.9674C212.546 95.9674 216.115 95.9355 219.175 95.5372L219.271 96.5092C216.163 97.0031 212.674 97.051 210.06 97.051ZM217.502 97.8158H220.768V98.7878H217.502V97.8158ZM214.57 89.8963C216.673 89.8963 218.107 90.8842 218.107 92.398C218.107 93.9278 216.673 94.9157 214.57 94.9157C212.45 94.9157 211.016 93.9278 211.016 92.398C211.016 90.8842 212.45 89.8963 214.57 89.8963ZM214.57 90.8842C213.215 90.8842 212.275 91.4738 212.275 92.398C212.275 93.3222 213.215 93.9118 214.57 93.9118C215.908 93.9118 216.848 93.3222 216.848 92.398C216.848 91.4738 215.908 90.8842 214.57 90.8842ZM234.359 89.2908H235.698V103.712H234.359V89.2908ZM235.331 95.1388H237.993V96.2383H235.331V95.1388ZM230.679 90.8524H231.969C231.969 94.9476 230.089 98.6444 225.436 100.987L224.703 99.967C228.687 97.9433 230.679 94.8679 230.679 91.0595V90.8524ZM225.372 90.8524H231.364V91.9359H225.372V90.8524ZM249.751 89.3067H251.09V97.035H249.751V89.3067ZM241.8 97.7521H243.106V99.5049H249.783V97.7521H251.09V103.52H241.8V97.7521ZM243.106 100.557V102.453H249.783V100.557H243.106ZM243.361 89.9919C245.544 89.9919 247.106 91.3463 247.106 93.3063C247.106 95.2822 245.544 96.6367 243.361 96.6367C241.178 96.6367 239.601 95.2822 239.601 93.3063C239.601 91.3463 241.178 89.9919 243.361 89.9919ZM243.361 91.0914C241.927 91.0914 240.891 91.9997 240.891 93.3063C240.891 94.6129 241.927 95.5212 243.361 95.5212C244.795 95.5212 245.831 94.6129 245.831 93.3063C245.831 91.9997 244.795 91.0914 243.361 91.0914Z" fill="black" fill-opacity="0.87"/>
<rect x="45.0001" y="115.347" width="358.531" height="0.995918" fill="black" fill-opacity="0.1"/>
<rect x="45.0001" y="115.347" width="143.412" height="0.995918" fill="black" fill-opacity="0.64"/>
<path d="M78.3633 140.57H81.0324V159.074H78.3633V140.57ZM71.0931 141.864C73.8817 141.864 75.9333 144.414 75.9333 148.437C75.9333 152.501 73.8817 155.05 71.0931 155.05C68.3045 155.05 66.2529 152.501 66.2529 148.437C66.2529 144.414 68.3045 141.864 71.0931 141.864ZM71.0931 144.274C69.7187 144.274 68.7826 145.728 68.7826 148.437C68.7826 151.186 69.7187 152.66 71.0931 152.66C72.4675 152.66 73.3837 151.186 73.3837 148.437C73.3837 145.728 72.4675 144.274 71.0931 144.274ZM84.5563 142.482H91.8465V154.433H84.5563V142.482ZM89.3766 144.553H87.0262V152.361H89.3766V144.553ZM97.3639 140.59H99.8935V159.034H97.3639V140.59ZM90.5119 147.282H94.655V149.413H90.5119V147.282ZM93.5993 140.868H96.0891V158.197H93.5993V140.868ZM107.561 141.127C110.369 141.127 112.48 142.88 112.48 145.35C112.48 147.8 110.369 149.553 107.561 149.553C104.752 149.553 102.641 147.8 102.641 145.35C102.641 142.88 104.752 141.127 107.561 141.127ZM107.561 143.279C106.206 143.279 105.19 144.035 105.19 145.35C105.19 146.665 106.206 147.422 107.561 147.422C108.915 147.422 109.911 146.665 109.911 145.35C109.911 144.035 108.915 143.279 107.561 143.279ZM115.03 140.59H117.699V149.812H115.03V140.59ZM105.389 150.569H117.699V155.628H108.019V157.859H105.429V153.716H115.07V152.62H105.389V150.569ZM105.429 156.783H118.157V158.835H105.429V156.783ZM129.031 140.848C133.234 140.848 135.704 141.964 135.704 143.996C135.704 146.027 133.234 147.143 129.031 147.143C124.808 147.143 122.358 146.027 122.358 143.996C122.358 141.964 124.808 140.848 129.031 140.848ZM129.031 142.781C126.362 142.781 125.107 143.179 125.107 143.996C125.107 144.852 126.362 145.211 129.031 145.211C131.7 145.211 132.955 144.852 132.955 143.996C132.955 143.179 131.7 142.781 129.031 142.781ZM120.685 147.999H137.357V150.091H120.685V147.999ZM122.597 151.126H135.345V155.867H125.227V157.5H122.617V154.034H132.736V153.098H122.597V151.126ZM122.617 156.923H135.823V158.914H122.617V156.923ZM156.851 140.59H159.52V150.509H156.851V140.59ZM147.25 151.306H149.859V153.019H156.891V151.306H159.52V158.835H147.25V151.306ZM149.859 155.05V156.723H156.891V155.05H149.859ZM149.481 141.346C152.349 141.346 154.48 143.159 154.48 145.709C154.48 148.258 152.349 150.071 149.481 150.071C146.613 150.071 144.461 148.258 144.461 145.709C144.461 143.159 146.613 141.346 149.481 141.346ZM149.481 143.537C148.067 143.537 147.051 144.354 147.051 145.709C147.051 147.083 148.067 147.88 149.481 147.88C150.875 147.88 151.891 147.083 151.891 145.709C151.891 144.354 150.875 143.537 149.481 143.537ZM163.203 149.374H164.617C168.043 149.374 169.836 149.314 171.927 148.935L172.186 151.027C170.035 151.425 168.143 151.485 164.617 151.485H163.203V149.374ZM163.183 141.645H171.29V147.461H165.832V150.768H163.203V145.489H168.661V143.737H163.183V141.645ZM175.294 140.609H177.943V151.963H175.294V140.609ZM172.346 143.139H175.772V145.25H172.346V143.139ZM172.346 147.063H175.772V149.174H172.346V147.063ZM165.314 152.8H177.943V159.054H175.294V154.911H165.314V152.8ZM180.809 143.358H189.633V145.47H180.809V143.358ZM185.251 146.286C187.602 146.286 189.295 148.099 189.295 150.688C189.295 153.258 187.602 155.07 185.251 155.07C182.921 155.07 181.208 153.258 181.208 150.688C181.208 148.099 182.921 146.286 185.251 146.286ZM185.251 148.497C184.255 148.497 183.558 149.294 183.558 150.688C183.558 152.082 184.255 152.859 185.251 152.859C186.247 152.859 186.964 152.082 186.964 150.688C186.964 149.294 186.247 148.497 185.251 148.497ZM194.155 140.59H196.684V159.034H194.155V140.59ZM191.944 148.079H194.991V150.21H191.944V148.079ZM190.291 140.928H192.76V158.257H190.291V140.928ZM183.956 141.088H186.566V144.693H183.956V141.088ZM205.985 142.641H208.275V143.179C208.275 146.426 205.626 149.075 200.945 149.712L199.969 147.641C204.033 147.143 205.985 145.071 205.985 143.179V142.641ZM206.742 142.641H209.032V143.179C209.032 145.071 210.984 147.143 215.047 147.641L214.091 149.712C209.391 149.075 206.742 146.426 206.742 143.179V142.641ZM206.124 152.282H208.753V159.054H206.124V152.282ZM199.173 150.768H215.844V152.879H199.173V150.768ZM200.647 141.526H214.33V143.617H200.647V141.526ZM224.746 146.784H227.794V148.935H224.746V146.784ZM220.802 142.183H222.834V145.29C222.834 149.473 221.679 153.556 218.731 155.369L217.137 153.377C219.846 151.704 220.802 148.417 220.802 145.29V142.183ZM221.38 142.183H223.372V145.171C223.372 148.178 224.149 151.246 226.658 152.879L225.224 154.951C222.296 153.138 221.38 149.154 221.38 145.171V142.183ZM230.801 140.59H233.331V159.034H230.801V140.59ZM227.057 140.868H229.527V158.197H227.057V140.868ZM239.484 149.951H242.113V155.13H239.484V149.951ZM246.177 149.951H248.826V155.13H246.177V149.951ZM235.819 154.752H252.511V156.903H235.819V154.752ZM244.145 141.486C248.109 141.486 251.037 143.438 251.037 146.446C251.037 149.453 248.109 151.385 244.145 151.385C240.161 151.385 237.253 149.453 237.253 146.446C237.253 143.438 240.161 141.486 244.145 141.486ZM244.145 143.557C241.576 143.557 239.863 144.613 239.863 146.446C239.863 148.258 241.576 149.334 244.145 149.334C246.715 149.334 248.428 148.258 248.428 146.446C248.428 144.613 246.715 143.557 244.145 143.557Z" fill="black" fill-opacity="0.87"/>
<rect x="65.4164" y="183.567" width="317.698" height="38.8408" rx="4.48163" fill="white" stroke="#5EDCC4" stroke-width="0.995918"/>
<path d="M89.5774 201.412C90.4976 201.412 91.2366 201.732 91.7943 202.374C92.3613 203.015 92.6448 203.982 92.6448 205.274C92.6448 206.12 92.5147 206.835 92.2544 207.421C92.0034 207.997 91.6456 208.434 91.1808 208.732C90.7253 209.02 90.1862 209.164 89.5634 209.164C89.1823 209.164 88.843 209.113 88.5456 209.01C88.2481 208.908 87.9925 208.778 87.7787 208.62C87.5742 208.453 87.3976 208.271 87.2489 208.076H87.1652C87.1838 208.234 87.2024 208.434 87.221 208.676C87.2396 208.918 87.2489 209.127 87.2489 209.303V212.371H86.0219V201.551H87.0258L87.1931 202.569H87.2489C87.3976 202.355 87.5742 202.16 87.7787 201.983C87.9925 201.807 88.2435 201.667 88.5316 201.565C88.8291 201.463 89.1777 201.412 89.5774 201.412ZM89.3543 202.443C88.8523 202.443 88.448 202.541 88.1412 202.736C87.8345 202.922 87.6114 203.206 87.472 203.587C87.3326 203.968 87.2582 204.451 87.2489 205.037V205.274C87.2489 205.887 87.314 206.408 87.4441 206.835C87.5742 207.263 87.7927 207.588 88.0994 207.811C88.4155 208.034 88.843 208.146 89.3822 208.146C89.8376 208.146 90.2094 208.021 90.4976 207.77C90.795 207.519 91.0135 207.179 91.1529 206.752C91.3016 206.315 91.376 205.818 91.376 205.26C91.376 204.405 91.2087 203.721 90.874 203.21C90.5487 202.699 90.0421 202.443 89.3543 202.443ZM95.827 201.551V209.024H94.6001V201.551H95.827ZM95.2275 198.749C95.4134 198.749 95.5761 198.814 95.7155 198.944C95.8642 199.065 95.9386 199.26 95.9386 199.529C95.9386 199.79 95.8642 199.985 95.7155 200.115C95.5761 200.245 95.4134 200.31 95.2275 200.31C95.023 200.31 94.851 200.245 94.7116 200.115C94.5722 199.985 94.5025 199.79 94.5025 199.529C94.5025 199.26 94.5722 199.065 94.7116 198.944C94.851 198.814 95.023 198.749 95.2275 198.749ZM101.792 201.412C102.684 201.412 103.358 201.63 103.814 202.067C104.269 202.495 104.497 203.192 104.497 204.158V209.024H103.284V204.242C103.284 203.638 103.149 203.187 102.88 202.89C102.61 202.592 102.187 202.443 101.611 202.443C100.783 202.443 100.212 202.676 99.8957 203.141C99.5797 203.605 99.4217 204.275 99.4217 205.148V209.024H98.1947V201.551H99.1846L99.3659 202.569H99.4356C99.6029 202.309 99.8074 202.095 100.049 201.927C100.3 201.751 100.574 201.621 100.872 201.537C101.169 201.453 101.476 201.412 101.792 201.412ZM110.369 201.412C111.289 201.412 112.028 201.732 112.586 202.374C113.153 203.015 113.437 203.982 113.437 205.274C113.437 206.12 113.306 206.835 113.046 207.421C112.795 207.997 112.437 208.434 111.973 208.732C111.517 209.02 110.978 209.164 110.355 209.164C109.974 209.164 109.635 209.113 109.337 209.01C109.04 208.908 108.784 208.778 108.57 208.62C108.366 208.453 108.189 208.271 108.041 208.076H107.957C107.976 208.234 107.994 208.434 108.013 208.676C108.031 208.918 108.041 209.127 108.041 209.303V212.371H106.814V201.551H107.818L107.985 202.569H108.041C108.189 202.355 108.366 202.16 108.57 201.983C108.784 201.807 109.035 201.667 109.323 201.565C109.621 201.463 109.969 201.412 110.369 201.412ZM110.146 202.443C109.644 202.443 109.24 202.541 108.933 202.736C108.626 202.922 108.403 203.206 108.264 203.587C108.124 203.968 108.05 204.451 108.041 205.037V205.274C108.041 205.887 108.106 206.408 108.236 206.835C108.366 207.263 108.584 207.588 108.891 207.811C109.207 208.034 109.635 208.146 110.174 208.146C110.629 208.146 111.001 208.021 111.289 207.77C111.587 207.519 111.805 207.179 111.945 206.752C112.093 206.315 112.168 205.818 112.168 205.26C112.168 204.405 112 203.721 111.666 203.21C111.34 202.699 110.834 202.443 110.146 202.443ZM116.619 201.551V209.024H115.392V201.551H116.619ZM116.019 198.749C116.205 198.749 116.368 198.814 116.507 198.944C116.656 199.065 116.73 199.26 116.73 199.529C116.73 199.79 116.656 199.985 116.507 200.115C116.368 200.245 116.205 200.31 116.019 200.31C115.815 200.31 115.643 200.245 115.503 200.115C115.364 199.985 115.294 199.79 115.294 199.529C115.294 199.26 115.364 199.065 115.503 198.944C115.643 198.814 115.815 198.749 116.019 198.749ZM122.584 201.412C123.476 201.412 124.15 201.63 124.605 202.067C125.061 202.495 125.289 203.192 125.289 204.158V209.024H124.076V204.242C124.076 203.638 123.941 203.187 123.671 202.89C123.402 202.592 122.979 202.443 122.402 202.443C121.575 202.443 121.004 202.676 120.687 203.141C120.371 203.605 120.213 204.275 120.213 205.148V209.024H118.986V201.551H119.976L120.158 202.569H120.227C120.395 202.309 120.599 202.095 120.841 201.927C121.092 201.751 121.366 201.621 121.663 201.537C121.961 201.453 122.268 201.412 122.584 201.412ZM138.146 204.047C138.146 204.474 138.095 204.893 137.993 205.302C137.9 205.711 137.751 206.082 137.547 206.417C137.342 206.742 137.091 207.007 136.794 207.212C136.496 207.407 136.143 207.505 135.734 207.505C135.307 207.505 134.967 207.384 134.716 207.142C134.475 206.891 134.326 206.608 134.27 206.292H134.2C134.033 206.636 133.787 206.924 133.461 207.156C133.136 207.388 132.727 207.505 132.234 207.505C131.528 207.505 130.98 207.268 130.589 206.794C130.208 206.319 130.018 205.692 130.018 204.911C130.018 204.298 130.138 203.759 130.38 203.294C130.622 202.82 130.961 202.448 131.398 202.178C131.844 201.909 132.369 201.774 132.973 201.774C133.382 201.774 133.782 201.811 134.173 201.886C134.572 201.951 134.884 202.025 135.107 202.109L134.967 204.939C134.958 205.106 134.953 205.227 134.953 205.302C134.953 205.367 134.953 205.413 134.953 205.441C134.953 205.924 135.037 206.245 135.204 206.403C135.381 206.561 135.585 206.64 135.818 206.64C136.106 206.64 136.348 206.524 136.543 206.292C136.747 206.05 136.901 205.734 137.003 205.343C137.114 204.944 137.17 204.507 137.17 204.033C137.17 203.168 136.994 202.439 136.64 201.844C136.296 201.24 135.818 200.78 135.204 200.463C134.6 200.147 133.912 199.989 133.141 199.989C132.351 199.989 131.649 200.115 131.035 200.366C130.422 200.617 129.906 200.97 129.488 201.426C129.079 201.881 128.767 202.42 128.554 203.043C128.34 203.656 128.233 204.335 128.233 205.079C128.233 205.99 128.396 206.766 128.721 207.407C129.046 208.039 129.52 208.522 130.143 208.857C130.775 209.182 131.547 209.345 132.458 209.345C133.025 209.345 133.564 209.28 134.075 209.15C134.595 209.029 135.056 208.894 135.455 208.746V209.694C135.056 209.861 134.605 209.996 134.103 210.098C133.61 210.21 133.062 210.265 132.458 210.265C131.361 210.265 130.422 210.061 129.641 209.652C128.86 209.243 128.261 208.657 127.842 207.895C127.433 207.124 127.229 206.199 127.229 205.12C127.229 204.256 127.364 203.457 127.633 202.722C127.903 201.979 128.293 201.337 128.805 200.798C129.316 200.25 129.934 199.827 130.659 199.529C131.393 199.223 132.221 199.069 133.141 199.069C133.866 199.069 134.53 199.185 135.135 199.418C135.748 199.641 136.278 199.971 136.724 200.408C137.18 200.835 137.528 201.356 137.77 201.969C138.021 202.583 138.146 203.275 138.146 204.047ZM131.105 204.939C131.105 205.534 131.221 205.966 131.454 206.236C131.695 206.505 132.016 206.64 132.416 206.64C132.936 206.64 133.308 206.445 133.531 206.055C133.764 205.664 133.898 205.158 133.935 204.535L134.019 202.792C133.898 202.755 133.745 202.722 133.559 202.694C133.373 202.666 133.183 202.653 132.987 202.653C132.532 202.653 132.165 202.764 131.886 202.987C131.607 203.21 131.407 203.498 131.286 203.852C131.165 204.196 131.105 204.558 131.105 204.939ZM142.795 201.412C143.288 201.412 143.729 201.505 144.12 201.69C144.519 201.876 144.859 202.16 145.137 202.541H145.207L145.374 201.551H146.35V209.15C146.35 209.856 146.23 210.447 145.988 210.921C145.746 211.404 145.379 211.767 144.886 212.008C144.394 212.25 143.766 212.371 143.004 212.371C142.465 212.371 141.968 212.329 141.512 212.245C141.066 212.171 140.666 212.055 140.313 211.897V210.767C140.555 210.888 140.82 210.99 141.108 211.074C141.396 211.167 141.707 211.237 142.042 211.283C142.377 211.33 142.721 211.353 143.074 211.353C143.715 211.353 144.217 211.162 144.58 210.781C144.951 210.409 145.137 209.898 145.137 209.247V208.955C145.137 208.843 145.142 208.685 145.151 208.481C145.161 208.267 145.17 208.118 145.179 208.034H145.123C144.863 208.416 144.538 208.699 144.147 208.885C143.766 209.071 143.32 209.164 142.809 209.164C141.842 209.164 141.085 208.825 140.536 208.146C139.997 207.467 139.728 206.519 139.728 205.302C139.728 204.502 139.848 203.814 140.09 203.238C140.341 202.653 140.694 202.202 141.15 201.886C141.605 201.57 142.154 201.412 142.795 201.412ZM142.962 202.443C142.544 202.443 142.186 202.555 141.889 202.778C141.601 203.001 141.377 203.326 141.219 203.754C141.071 204.182 140.996 204.702 140.996 205.316C140.996 206.236 141.164 206.942 141.498 207.435C141.842 207.918 142.339 208.16 142.99 208.16C143.371 208.16 143.697 208.113 143.966 208.021C144.236 207.918 144.459 207.765 144.635 207.56C144.812 207.347 144.942 207.077 145.026 206.752C145.109 206.426 145.151 206.041 145.151 205.594V205.302C145.151 204.623 145.072 204.075 144.914 203.656C144.766 203.238 144.529 202.931 144.203 202.736C143.878 202.541 143.464 202.443 142.962 202.443ZM156.922 201.412C157.768 201.412 158.4 201.63 158.819 202.067C159.237 202.495 159.446 203.192 159.446 204.158V209.024H158.233V204.214C158.233 203.629 158.107 203.187 157.857 202.89C157.615 202.592 157.234 202.443 156.713 202.443C155.988 202.443 155.468 202.653 155.152 203.071C154.845 203.489 154.691 204.098 154.691 204.897V209.024H153.478V204.214C153.478 203.824 153.423 203.498 153.311 203.238C153.2 202.969 153.032 202.769 152.809 202.639C152.586 202.508 152.298 202.443 151.945 202.443C151.443 202.443 151.048 202.55 150.76 202.764C150.471 202.969 150.262 203.271 150.132 203.67C150.011 204.07 149.951 204.563 149.951 205.148V209.024H148.724V201.551H149.714L149.895 202.569H149.965C150.123 202.309 150.313 202.095 150.537 201.927C150.769 201.751 151.025 201.621 151.303 201.537C151.582 201.453 151.87 201.412 152.168 201.412C152.744 201.412 153.223 201.514 153.604 201.718C153.994 201.923 154.278 202.239 154.454 202.666H154.524C154.775 202.239 155.114 201.923 155.542 201.718C155.979 201.514 156.439 201.412 156.922 201.412ZM164.585 201.426C165.496 201.426 166.17 201.625 166.607 202.025C167.044 202.425 167.262 203.062 167.262 203.935V209.024H166.37L166.133 207.965H166.077C165.863 208.234 165.64 208.462 165.408 208.648C165.184 208.825 164.924 208.955 164.627 209.038C164.339 209.122 163.985 209.164 163.567 209.164C163.121 209.164 162.717 209.085 162.354 208.927C162.001 208.769 161.722 208.527 161.517 208.202C161.313 207.867 161.211 207.449 161.211 206.947C161.211 206.203 161.504 205.632 162.089 205.232C162.675 204.823 163.576 204.6 164.794 204.563L166.063 204.521V204.075C166.063 203.452 165.928 203.02 165.659 202.778C165.389 202.536 165.008 202.415 164.515 202.415C164.125 202.415 163.753 202.476 163.4 202.597C163.047 202.708 162.717 202.838 162.41 202.987L162.033 202.067C162.359 201.89 162.744 201.742 163.191 201.621C163.637 201.491 164.102 201.426 164.585 201.426ZM164.947 205.413C164.018 205.45 163.372 205.599 163.009 205.859C162.656 206.12 162.48 206.487 162.48 206.961C162.48 207.379 162.605 207.686 162.856 207.881C163.116 208.076 163.446 208.174 163.846 208.174C164.478 208.174 165.003 208.002 165.421 207.658C165.84 207.305 166.049 206.766 166.049 206.041V205.371L164.947 205.413ZM170.797 201.551V209.024H169.57V201.551H170.797ZM170.198 198.749C170.383 198.749 170.546 198.814 170.686 198.944C170.834 199.065 170.909 199.26 170.909 199.529C170.909 199.79 170.834 199.985 170.686 200.115C170.546 200.245 170.383 200.31 170.198 200.31C169.993 200.31 169.821 200.245 169.682 200.115C169.542 199.985 169.473 199.79 169.473 199.529C169.473 199.26 169.542 199.065 169.682 198.944C169.821 198.814 169.993 198.749 170.198 198.749ZM174.392 209.024H173.165V198.428H174.392V209.024ZM176.578 208.271C176.578 207.928 176.662 207.686 176.829 207.546C176.996 207.407 177.196 207.337 177.429 207.337C177.67 207.337 177.875 207.407 178.042 207.546C178.219 207.686 178.307 207.928 178.307 208.271C178.307 208.606 178.219 208.848 178.042 208.997C177.875 209.145 177.67 209.22 177.429 209.22C177.196 209.22 176.996 209.145 176.829 208.997C176.662 208.848 176.578 208.606 176.578 208.271ZM183.488 209.164C182.828 209.164 182.238 209.029 181.717 208.759C181.206 208.49 180.802 208.072 180.504 207.505C180.216 206.938 180.072 206.213 180.072 205.33C180.072 204.409 180.225 203.661 180.532 203.085C180.839 202.508 181.252 202.086 181.773 201.816C182.303 201.546 182.902 201.412 183.572 201.412C183.953 201.412 184.32 201.453 184.673 201.537C185.026 201.611 185.314 201.704 185.538 201.816L185.161 202.834C184.938 202.75 184.678 202.671 184.38 202.597C184.083 202.522 183.804 202.485 183.544 202.485C183.042 202.485 182.628 202.592 182.303 202.806C181.977 203.02 181.736 203.336 181.578 203.754C181.42 204.172 181.341 204.693 181.341 205.316C181.341 205.911 181.42 206.417 181.578 206.835C181.736 207.254 181.973 207.57 182.289 207.783C182.605 207.997 183 208.104 183.474 208.104C183.883 208.104 184.241 208.062 184.548 207.979C184.864 207.895 185.152 207.793 185.412 207.672V208.759C185.161 208.89 184.882 208.987 184.576 209.052C184.278 209.127 183.916 209.164 183.488 209.164ZM193.687 205.274C193.687 205.897 193.603 206.45 193.436 206.933C193.278 207.407 193.045 207.811 192.739 208.146C192.441 208.481 192.074 208.736 191.637 208.913C191.21 209.08 190.731 209.164 190.201 209.164C189.708 209.164 189.253 209.08 188.835 208.913C188.416 208.736 188.054 208.481 187.747 208.146C187.44 207.811 187.199 207.407 187.022 206.933C186.855 206.45 186.771 205.897 186.771 205.274C186.771 204.447 186.91 203.749 187.189 203.182C187.468 202.606 187.868 202.169 188.388 201.872C188.909 201.565 189.527 201.412 190.243 201.412C190.921 201.412 191.516 201.565 192.028 201.872C192.548 202.169 192.952 202.606 193.241 203.182C193.538 203.749 193.687 204.447 193.687 205.274ZM188.04 205.274C188.04 205.859 188.114 206.371 188.263 206.807C188.421 207.235 188.663 207.565 188.988 207.797C189.313 208.03 189.727 208.146 190.229 208.146C190.731 208.146 191.144 208.03 191.47 207.797C191.795 207.565 192.032 207.235 192.181 206.807C192.339 206.371 192.418 205.859 192.418 205.274C192.418 204.679 192.339 204.172 192.181 203.754C192.023 203.336 191.781 203.015 191.456 202.792C191.14 202.56 190.726 202.443 190.215 202.443C189.453 202.443 188.9 202.694 188.556 203.196C188.212 203.698 188.04 204.391 188.04 205.274ZM203.83 201.412C204.676 201.412 205.308 201.63 205.726 202.067C206.144 202.495 206.353 203.192 206.353 204.158V209.024H205.14V204.214C205.14 203.629 205.015 203.187 204.764 202.89C204.522 202.592 204.141 202.443 203.621 202.443C202.896 202.443 202.375 202.653 202.059 203.071C201.752 203.489 201.599 204.098 201.599 204.897V209.024H200.386V204.214C200.386 203.824 200.33 203.498 200.219 203.238C200.107 202.969 199.94 202.769 199.717 202.639C199.493 202.508 199.205 202.443 198.852 202.443C198.35 202.443 197.955 202.55 197.667 202.764C197.379 202.969 197.17 203.271 197.04 203.67C196.919 204.07 196.858 204.563 196.858 205.148V209.024H195.631V201.551H196.621L196.803 202.569H196.872C197.03 202.309 197.221 202.095 197.444 201.927C197.676 201.751 197.932 201.621 198.211 201.537C198.49 201.453 198.778 201.412 199.075 201.412C199.652 201.412 200.13 201.514 200.511 201.718C200.902 201.923 201.185 202.239 201.362 202.666H201.432C201.683 202.239 202.022 201.923 202.449 201.718C202.886 201.514 203.346 201.412 203.83 201.412Z" fill="black" fill-opacity="0.87"/>
<rect x="64.9184" y="762.693" width="318.694" height="39.8367" rx="4.97959" fill="#5EDCC4"/>
<path d="M214.48 783.043H215.637V784.661H214.48V783.043ZM219.792 777.146H220.949V785.595H219.792V777.146ZM220.461 780.952H222.79V781.914H220.461V780.952ZM211.259 785.232L211.106 784.284C213.364 784.284 216.432 784.284 219.039 783.908L219.137 784.73C216.446 785.205 213.462 785.218 211.259 785.232ZM212.667 786.222H220.949V789.736H219.792V787.143H212.667V786.222ZM211.426 778.275H218.663V779.139H211.426V778.275ZM215.051 779.627C216.822 779.627 217.979 780.338 217.979 781.496C217.979 782.653 216.822 783.364 215.051 783.364C213.267 783.364 212.109 782.653 212.109 781.496C212.109 780.338 213.267 779.627 215.051 779.627ZM215.051 780.422C213.922 780.422 213.197 780.826 213.197 781.496C213.197 782.137 213.922 782.555 215.051 782.555C216.167 782.555 216.892 782.137 216.892 781.496C216.892 780.826 216.167 780.422 215.051 780.422ZM214.48 777.034H215.637V778.693H214.48V777.034ZM233.176 777.146H234.347V786.348H233.176V777.146ZM226.246 788.509H234.724V789.457H226.246V788.509ZM226.246 785.4H227.39V788.83H226.246V785.4ZM227.585 778.01C229.467 778.01 230.862 779.293 230.862 781.119C230.862 782.932 229.467 784.229 227.585 784.229C225.703 784.229 224.294 782.932 224.294 781.119C224.294 779.293 225.703 778.01 227.585 778.01ZM227.585 779.014C226.358 779.014 225.424 779.878 225.424 781.119C225.424 782.346 226.358 783.211 227.585 783.211C228.812 783.211 229.746 782.346 229.746 781.119C229.746 779.878 228.812 779.014 227.585 779.014Z" fill="white"/>
<path d="M69.0614 233.637H69.8781V234.852H69.0614V233.637ZM69.4797 230.769C71.4616 230.769 72.6467 231.317 72.6467 232.323C72.6467 233.329 71.4616 233.886 69.4797 233.886C67.4879 233.886 66.3127 233.329 66.3127 232.323C66.3127 231.317 67.4879 230.769 69.4797 230.769ZM69.4797 231.396C68.0057 231.396 67.1592 231.735 67.1592 232.323C67.1592 232.92 68.0057 233.259 69.4797 233.259C70.9437 233.259 71.7902 232.92 71.7902 232.323C71.7902 231.735 70.9437 231.396 69.4797 231.396ZM65.4064 234.553H73.543V235.231H65.4064V234.553ZM66.3924 235.968H72.5073V238.009H67.2289V239.105H66.4123V237.402H71.6906V236.615H66.3924V235.968ZM66.4123 238.916H72.7762V239.563H66.4123V238.916ZM80.6631 230.659H81.4997V239.663H80.6631V230.659ZM81.3005 234.195H82.9736V234.902H81.3005V234.195ZM74.9266 231.416H75.7433V233.797H78.3127V231.416H79.1294V237.501H74.9266V231.416ZM75.7433 234.454V236.824H78.3127V234.454H75.7433ZM83.7297 235.649H91.8963V236.316H83.7297V235.649ZM84.8053 238.786H91.0398V239.463H84.8053V238.786ZM84.8053 237.023H85.6319V239.045H84.8053V237.023ZM84.7655 230.958H90.8406V233.189H85.6021V234.404H84.7854V232.582H90.0339V231.606H84.7655V230.958ZM84.7854 234.185H91.0398V234.832H84.7854V234.185ZM102.022 230.649H102.848V239.673H102.022V230.649ZM98.0977 231.347C99.4323 231.347 100.388 232.572 100.388 234.484C100.388 236.406 99.4323 237.631 98.0977 237.631C96.7732 237.631 95.8171 236.406 95.8171 234.484C95.8171 232.572 96.7732 231.347 98.0977 231.347ZM98.0977 232.094C97.2213 232.094 96.6038 233.03 96.6038 234.484C96.6038 235.948 97.2213 236.904 98.0977 236.904C98.9841 236.904 99.5916 235.948 99.5916 234.484C99.5916 233.03 98.9841 232.094 98.0977 232.094ZM104.969 231.695H108.405V237.252H104.969V231.695ZM107.628 232.353H105.746V236.595H107.628V232.353ZM111.502 230.659H112.299V239.663H111.502V230.659ZM107.986 234.046H110.058V234.733H107.986V234.046ZM109.719 230.849H110.506V239.214H109.719V230.849ZM116.331 230.988C117.676 230.988 118.662 231.805 118.662 232.99C118.662 234.165 117.676 234.982 116.331 234.982C114.997 234.982 114.011 234.165 114.011 232.99C114.011 231.805 114.997 230.988 116.331 230.988ZM116.331 231.665C115.465 231.665 114.808 232.213 114.808 232.99C114.808 233.767 115.465 234.305 116.331 234.305C117.208 234.305 117.855 233.767 117.855 232.99C117.855 232.213 117.208 231.665 116.331 231.665ZM120.355 230.659H121.192V235.271H120.355V230.659ZM115.365 235.709H121.192V237.9H116.192V239.254H115.385V237.282H120.375V236.376H115.365V235.709ZM115.385 238.886H121.49V239.543H115.385V238.886ZM129.517 230.659H130.353V235.49H129.517V230.659ZM124.547 235.938H125.364V237.033H129.537V235.938H130.353V239.543H124.547V235.938ZM125.364 237.691V238.876H129.537V237.691H125.364ZM125.523 231.088C126.887 231.088 127.863 231.934 127.863 233.159C127.863 234.394 126.887 235.241 125.523 235.241C124.159 235.241 123.173 234.394 123.173 233.159C123.173 231.934 124.159 231.088 125.523 231.088ZM125.523 231.775C124.627 231.775 123.979 232.343 123.979 233.159C123.979 233.976 124.627 234.544 125.523 234.544C126.419 234.544 127.067 233.976 127.067 233.159C127.067 232.343 126.419 231.775 125.523 231.775ZM138.678 230.659H139.505V239.663H138.678V230.659ZM132.703 231.536H133.519V237.113H132.703V231.536ZM132.703 236.625H133.44C134.804 236.625 136.228 236.525 137.752 236.207L137.852 236.914C136.288 237.233 134.864 237.342 133.44 237.342H132.703V236.625ZM147.382 230.649H148.218V239.673H147.382V230.649ZM148.019 234.205H149.692V234.902H148.019V234.205ZM141.675 236.735H142.382C144.046 236.735 145.211 236.675 146.555 236.426L146.645 237.123C145.261 237.382 144.075 237.432 142.382 237.432H141.675V236.735ZM141.675 231.526H145.858V232.203H142.492V237.043H141.675V231.526Z" fill="black" fill-opacity="0.64"/>
</g>
</g>
<defs>
<filter id="filter0_d_1041_6574" x="0.183672" y="0.816484" width="448.163" height="886.368" filterUnits="userSpaceOnUse" color-interpolation-filters="sRGB">
<feFlood flood-opacity="0" result="BackgroundImageFix"/>
<feColorMatrix in="SourceAlpha" type="matrix" values="0 0 0 0 0 0 0 0 0 0 0 0 0 0 0 0 0 0 127 0" result="hardAlpha"/>
<feMorphology radius="14.9388" operator="dilate" in="SourceAlpha" result="effect1_dropShadow_1041_6574"/>
<feOffset/>
<feGaussianBlur stdDeviation="14.9388"/>
<feComposite in2="hardAlpha" operator="out"/>
<feColorMatrix type="matrix" values="0 0 0 0 0.502083 0 0 0 0 0.502083 0 0 0 0 0.502083 0 0 0 0.05 0"/>
<feBlend mode="normal" in2="BackgroundImageFix" result="effect1_dropShadow_1041_6574"/>
<feBlend mode="normal" in="SourceGraphic" in2="effect1_dropShadow_1041_6574" result="shape"/>
</filter>
<clipPath id="clip0_1041_6574">
<rect x="45" y="45.6328" width="358.531" height="796.735" rx="19.9184" fill="white"/>
</clipPath>
<clipPath id="clip1_1041_6574">
<rect width="15.9347" height="15.9347" fill="white" transform="translate(338.796 52.604)"/>
</clipPath>
</defs>
</svg>
