<svg width="449" height="888" viewBox="0 0 449 888" fill="none" xmlns="http://www.w3.org/2000/svg">
<g filter="url(#filter0_d_991_6747)">
<rect x="45" y="45.6328" width="358.531" height="796.735" rx="19.9184" fill="white" shape-rendering="crispEdges"/>
<path d="M69.7346 65.6084H68.3752V59.4715C68.3752 59.2558 68.3752 59.0572 68.3752 58.876C68.3838 58.6861 68.3925 58.5048 68.4011 58.3322C68.4097 58.151 68.4184 57.9783 68.427 57.8143C68.3148 57.9265 68.1983 58.0344 68.0774 58.138C67.9566 58.2416 67.8185 58.3624 67.6631 58.5005L66.6533 59.3162L65.9541 58.4358L68.5953 56.3643H69.7346V65.6084ZM79.1505 60.9734C79.1505 61.7243 79.0901 62.3932 78.9692 62.9802C78.857 63.5671 78.6758 64.0677 78.4255 64.482C78.1838 64.8877 77.8601 65.1984 77.4544 65.4142C77.0574 65.63 76.5784 65.7379 76.0173 65.7379C75.3096 65.7379 74.727 65.548 74.2695 65.1682C73.812 64.7884 73.4711 64.2447 73.2467 63.5369C73.0223 62.8205 72.9101 61.966 72.9101 60.9734C72.9101 59.9722 73.0093 59.1177 73.2078 58.4099C73.415 57.7021 73.7473 57.1627 74.2048 56.7915C74.6622 56.4118 75.2664 56.2219 76.0173 56.2219C76.7251 56.2219 77.3077 56.4118 77.7652 56.7915C78.2313 57.1627 78.5765 57.7021 78.8009 58.4099C79.034 59.1177 79.1505 59.9722 79.1505 60.9734ZM74.2824 60.9734C74.2824 61.7761 74.3385 62.445 74.4508 62.9802C74.563 63.5153 74.7442 63.9167 74.9945 64.1842C75.2535 64.4518 75.5944 64.5856 76.0173 64.5856C76.4403 64.5856 76.7769 64.4561 77.0272 64.1972C77.2861 63.9296 77.4717 63.5283 77.5839 62.9931C77.7047 62.4493 77.7652 61.7761 77.7652 60.9734C77.7652 60.1707 77.7047 59.5061 77.5839 58.9796C77.4717 58.4444 77.2861 58.0431 77.0272 57.7755C76.7769 57.5079 76.4403 57.3741 76.0173 57.3741C75.5944 57.3741 75.2535 57.5079 74.9945 57.7755C74.7442 58.0431 74.563 58.4444 74.4508 58.9796C74.3385 59.5061 74.2824 60.1707 74.2824 60.9734ZM80.6169 64.8445C80.6169 64.5079 80.7032 64.2705 80.8759 64.1324C81.0485 63.9943 81.2557 63.9253 81.4973 63.9253C81.7476 63.9253 81.9591 63.9943 82.1317 64.1324C82.3044 64.2705 82.3907 64.5079 82.3907 64.8445C82.3907 65.1811 82.3044 65.4228 82.1317 65.5696C81.9591 65.7163 81.7476 65.7897 81.4973 65.7897C81.2557 65.7897 81.0485 65.7163 80.8759 65.5696C80.7032 65.4228 80.6169 65.1811 80.6169 64.8445ZM80.6169 59.4068C80.6169 59.0529 80.7032 58.8069 80.8759 58.6688C81.0485 58.5307 81.2557 58.4617 81.4973 58.4617C81.7476 58.4617 81.9591 58.5307 82.1317 58.6688C82.3044 58.8069 82.3907 59.0529 82.3907 59.4068C82.3907 59.7348 82.3044 59.9722 82.1317 60.1189C81.9591 60.2656 81.7476 60.339 81.4973 60.339C81.2557 60.339 81.0485 60.2656 80.8759 60.1189C80.7032 59.9722 80.6169 59.7348 80.6169 59.4068ZM90.0868 65.6084H83.8723V64.5467L86.2545 62.1257C86.7206 61.651 87.109 61.241 87.4197 60.8957C87.7305 60.5418 87.9635 60.2052 88.1189 59.8859C88.2742 59.5579 88.3519 59.204 88.3519 58.8242C88.3519 58.3495 88.2138 57.9956 87.9376 57.7626C87.6614 57.5209 87.3032 57.4 86.863 57.4C86.4401 57.4 86.0603 57.482 85.7237 57.646C85.3871 57.8014 85.0375 58.0215 84.675 58.3063L83.937 57.3871C84.1873 57.1713 84.4549 56.9771 84.7397 56.8045C85.0332 56.6319 85.3569 56.4938 85.7107 56.3902C86.0733 56.2866 86.4703 56.2348 86.9019 56.2348C87.4888 56.2348 87.9937 56.3384 88.4167 56.5455C88.8396 56.7441 89.1633 57.0289 89.3877 57.4C89.6207 57.7712 89.7372 58.2071 89.7372 58.7077C89.7372 59.0788 89.6811 59.4284 89.5689 59.7564C89.4567 60.0757 89.2927 60.3908 89.077 60.7015C88.8698 61.0122 88.6152 61.3273 88.3131 61.6466C88.011 61.966 87.6787 62.3026 87.3162 62.6565L85.5942 64.3267V64.3914H90.0868V65.6084ZM97.4959 65.6084H91.2814V64.5467L93.6636 62.1257C94.1297 61.651 94.5181 61.241 94.8288 60.8957C95.1396 60.5418 95.3726 60.2052 95.528 59.8859C95.6833 59.5579 95.761 59.204 95.761 58.8242C95.761 58.3495 95.6229 57.9956 95.3467 57.7626C95.0705 57.5209 94.7123 57.4 94.2721 57.4C93.8492 57.4 93.4694 57.482 93.1328 57.646C92.7962 57.8014 92.4466 58.0215 92.0841 58.3063L91.3461 57.3871C91.5964 57.1713 91.864 56.9771 92.1488 56.8045C92.4423 56.6319 92.766 56.4938 93.1198 56.3902C93.4823 56.2866 93.8794 56.2348 94.311 56.2348C94.8979 56.2348 95.4028 56.3384 95.8257 56.5455C96.2487 56.7441 96.5724 57.0289 96.7968 57.4C97.0298 57.7712 97.1463 58.2071 97.1463 58.7077C97.1463 59.0788 97.0902 59.4284 96.978 59.7564C96.8658 60.0757 96.7018 60.3908 96.486 60.7015C96.2789 61.0122 96.0243 61.3273 95.7222 61.6466C95.4201 61.966 95.0878 62.3026 94.7253 62.6565L93.0033 64.3267V64.3914H97.4959V65.6084Z" fill="black"/>
<g clip-path="url(#clip0_991_6747)">
<path d="M343.012 62.7955L341.618 61.3681C342.304 60.682 343.089 60.1564 343.975 59.7912C344.86 59.426 345.79 59.2434 346.763 59.2434C347.737 59.2434 348.669 59.4289 349.561 59.7998C350.452 60.1708 351.234 60.7046 351.909 61.4013L350.515 62.7955C350.017 62.2976 349.444 61.9132 348.796 61.6423C348.149 61.3714 347.471 61.2357 346.763 61.2353C346.055 61.2353 345.377 61.3709 344.73 61.6423C344.083 61.9136 343.51 62.298 343.012 62.7955ZM340.19 59.9738L338.796 58.5795C339.847 57.5061 341.062 56.6844 342.44 56.1143C343.818 55.5442 345.259 55.2593 346.763 55.2598C348.268 55.2598 349.71 55.5448 351.088 56.1149C352.465 56.685 353.68 57.5066 354.731 58.5795L353.336 59.9738C352.462 59.0996 351.458 58.4275 350.323 57.9574C349.189 57.4873 348.002 57.252 346.763 57.2516C345.524 57.2516 344.337 57.4869 343.203 57.9574C342.068 58.4279 341.064 59.1 340.19 59.9738ZM346.763 66.5468L344.423 64.1898C344.733 63.88 345.09 63.6421 345.494 63.4761C345.898 63.3101 346.321 63.2271 346.763 63.2271C347.206 63.2271 347.629 63.3101 348.033 63.4761C348.438 63.6421 348.794 63.88 349.104 64.1898L346.763 66.5468Z" fill="black"/>
</g>
<rect x="363.047" y="56.937" width="16.4232" height="7.41248" rx="1.64327" stroke="black" stroke-width="0.697143"/>
<rect x="363.694" y="57.5845" width="11.951" height="5.97551" rx="1.99184" fill="black"/>
<rect x="380.067" y="58.6396" width="1.30418" height="4.00739" rx="0.24898" fill="black" stroke="black" stroke-width="0.497959"/>
<rect x="314.894" y="60.5728" width="2.98776" height="5.97551" rx="0.497959" fill="black"/>
<rect x="318.878" y="58.5811" width="2.98776" height="7.96735" rx="0.497959" fill="black"/>
<rect x="322.861" y="56.5889" width="2.98776" height="9.95918" rx="0.497959" fill="black"/>
<rect x="326.845" y="54.5972" width="2.98776" height="11.951" rx="0.497959" fill="black"/>
<rect x="45" y="75.5098" width="358.531" height="39.8367" fill="white"/>
<path d="M63.5902 95.5509L71.595 103.566C71.6732 103.644 71.735 103.737 71.7768 103.839C71.8185 103.941 71.8393 104.051 71.838 104.161C71.8367 104.271 71.8132 104.38 71.769 104.481C71.7248 104.583 71.6607 104.674 71.5807 104.75C71.4169 104.905 71.1989 104.991 70.973 104.988C70.7472 104.985 70.5313 104.895 70.3712 104.735L61.7748 96.1269C61.6971 96.0497 61.6355 95.9577 61.5937 95.8564C61.5519 95.7551 61.5307 95.6465 61.5314 95.5369C61.532 95.4273 61.5545 95.3189 61.5976 95.2181C61.6406 95.1173 61.7033 95.0261 61.782 94.9498L70.8301 86.112C70.9921 85.9556 71.2085 85.8682 71.4337 85.8682C71.6588 85.8682 71.8752 85.9556 72.0372 86.112C72.1163 86.1889 72.1793 86.2808 72.2222 86.3824C72.2652 86.484 72.2873 86.5932 72.2873 86.7036C72.2873 86.8139 72.2652 86.9231 72.2222 87.0247C72.1793 87.1263 72.1163 87.2183 72.0372 87.2951L63.5902 95.5509Z" fill="black" fill-opacity="0.87"/>
<path d="M199.401 97.9433H200.74V100.318H199.401V97.9433ZM205.711 89.3067H207.034V103.712H205.711V89.3067ZM195.561 100.971L195.386 99.8714C198.11 99.8555 201.696 99.8236 204.803 99.4252L204.899 100.397C201.696 100.939 198.222 100.971 195.561 100.971ZM195.688 91.0595H204.437V92.1271H195.688V91.0595ZM200.054 92.9557C202.126 92.9557 203.528 94.0074 203.528 95.6168C203.528 97.2422 202.126 98.2779 200.054 98.2779C197.999 98.2779 196.597 97.2422 196.597 95.6168C196.597 94.0074 197.999 92.9557 200.054 92.9557ZM200.054 93.9756C198.764 93.9756 197.855 94.6289 197.855 95.6168C197.855 96.6048 198.764 97.2581 200.054 97.2581C201.361 97.2581 202.269 96.6048 202.269 95.6168C202.269 94.6289 201.361 93.9756 200.054 93.9756ZM199.401 89.3067H200.724V91.6491H199.401V89.3067ZM214.044 96.557H215.366V99.7599H214.044V96.557ZM220.434 89.3067H221.756V100.27H220.434V89.3067ZM211.925 102.309H222.107V103.393H211.925V102.309ZM211.925 99.2021H213.247V102.612H211.925V99.2021ZM210.06 97.051L209.885 95.9674C212.546 95.9674 216.115 95.9355 219.175 95.5372L219.27 96.5092C216.163 97.0031 212.673 97.051 210.06 97.051ZM217.502 97.8158H220.768V98.7878H217.502V97.8158ZM214.57 89.8963C216.673 89.8963 218.107 90.8842 218.107 92.398C218.107 93.9278 216.673 94.9157 214.57 94.9157C212.45 94.9157 211.016 93.9278 211.016 92.398C211.016 90.8842 212.45 89.8963 214.57 89.8963ZM214.57 90.8842C213.215 90.8842 212.275 91.4738 212.275 92.398C212.275 93.3222 213.215 93.9118 214.57 93.9118C215.908 93.9118 216.848 93.3222 216.848 92.398C216.848 91.4738 215.908 90.8842 214.57 90.8842ZM234.359 89.2908H235.698V103.712H234.359V89.2908ZM235.331 95.1388H237.992V96.2383H235.331V95.1388ZM230.678 90.8524H231.969C231.969 94.9476 230.089 98.6444 225.436 100.987L224.703 99.967C228.687 97.9433 230.678 94.8679 230.678 91.0595V90.8524ZM225.372 90.8524H231.364V91.9359H225.372V90.8524ZM249.751 89.3067H251.09V97.035H249.751V89.3067ZM241.8 97.7521H243.106V99.5049H249.783V97.7521H251.09V103.52H241.8V97.7521ZM243.106 100.557V102.453H249.783V100.557H243.106ZM243.361 89.9919C245.544 89.9919 247.106 91.3463 247.106 93.3063C247.106 95.2822 245.544 96.6367 243.361 96.6367C241.178 96.6367 239.601 95.2822 239.601 93.3063C239.601 91.3463 241.178 89.9919 243.361 89.9919ZM243.361 91.0914C241.927 91.0914 240.891 91.9997 240.891 93.3063C240.891 94.6129 241.927 95.5212 243.361 95.5212C244.795 95.5212 245.831 94.6129 245.831 93.3063C245.831 91.9997 244.795 91.0914 243.361 91.0914Z" fill="black" fill-opacity="0.87"/>
<rect x="45" y="115.347" width="358.531" height="0.995918" fill="black" fill-opacity="0.1"/>
<rect x="45" y="115.347" width="286.824" height="0.995918" fill="black" fill-opacity="0.64"/>
<path d="M69.8581 142.004H72.0093V144.693C72.0093 149.254 70.4158 153.536 66.9301 155.249L65.3367 153.118C68.4439 151.664 69.8581 148.119 69.8581 144.693V142.004ZM70.3959 142.004H72.5073V144.693C72.5073 147.999 73.8219 151.365 76.7698 152.8L75.1763 154.911C71.85 153.218 70.3959 149.115 70.3959 144.693V142.004ZM77.5068 140.59H80.1758V159.034H77.5068V140.59ZM79.5783 147.68H82.8449V149.891H79.5783V147.68ZM87.7831 146.764H90.4322V150.15H87.7831V146.764ZM94.2765 146.764H96.9057V150.15H94.2765V146.764ZM84.0384 149.334H100.71V151.425H84.0384V149.334ZM92.3444 152.361C96.3281 152.361 98.7382 153.556 98.7382 155.688C98.7382 157.839 96.3281 159.034 92.3444 159.034C88.3408 159.034 85.9307 157.839 85.9307 155.688C85.9307 153.556 88.3408 152.361 92.3444 152.361ZM92.3444 154.353C89.8745 154.353 88.6197 154.771 88.6197 155.688C88.6197 156.624 89.8745 157.042 92.3444 157.042C94.8143 157.042 96.0691 156.624 96.0691 155.688C96.0691 154.771 94.8143 154.353 92.3444 154.353ZM92.3842 140.848C96.4476 140.848 99.0569 142.203 99.0569 144.414C99.0569 146.605 96.4476 147.92 92.3842 147.92C88.301 147.92 85.7116 146.605 85.7116 144.414C85.7116 142.203 88.301 140.848 92.3842 140.848ZM92.3842 142.88C89.8546 142.88 88.4404 143.378 88.4404 144.414C88.4404 145.43 89.8546 145.928 92.3842 145.928C94.9139 145.928 96.3281 145.43 96.3281 144.414C96.3281 143.378 94.9139 142.88 92.3842 142.88ZM106.505 143.498H108.596V145.569C108.596 149.732 106.843 153.975 103.457 155.568L101.963 153.477C105.011 152.043 106.505 148.597 106.505 145.569V143.498ZM107.063 143.498H109.154V145.569C109.154 148.358 110.588 151.624 113.616 153.019L112.162 155.11C108.775 153.536 107.063 149.493 107.063 145.569V143.498ZM102.68 142.362H112.799V144.533H102.68V142.362ZM114.153 140.59H116.823V159.034H114.153V140.59ZM116.225 147.621H119.492V149.812H116.225V147.621ZM135.858 145.051H139.364V147.202H135.858V145.051ZM138.647 140.59H141.296V151.545H138.647V140.59ZM135.042 151.943C138.946 151.943 141.356 153.278 141.356 155.508C141.356 157.759 138.946 159.054 135.042 159.054C131.138 159.054 128.727 157.759 128.727 155.508C128.727 153.278 131.138 151.943 135.042 151.943ZM135.042 153.955C132.651 153.955 131.377 154.453 131.377 155.508C131.377 156.544 132.651 157.042 135.042 157.042C137.452 157.042 138.726 156.544 138.726 155.508C138.726 154.453 137.452 153.955 135.042 153.955ZM130.122 142.442H132.273V143.597C132.273 147.123 130.64 150.35 127.114 151.545L125.76 149.453C128.807 148.417 130.122 145.968 130.122 143.597V142.442ZM130.679 142.442H132.811V143.597C132.811 145.768 134.066 148.019 136.974 148.995L135.679 151.087C132.253 149.951 130.679 146.884 130.679 143.597V142.442ZM126.477 141.705H136.396V143.816H126.477V141.705ZM144.202 154.752H160.894V156.903H144.202V154.752ZM151.194 150.808H153.843V155.269H151.194V150.808ZM145.955 141.765H148.585V144.593H156.452V141.765H159.082V151.365H145.955V141.765ZM148.585 146.665V149.254H156.452V146.665H148.585ZM162.506 148.856H179.217V150.788H162.506V148.856ZM164.378 151.704H177.226V156.086H167.047V157.66H164.418V154.413H174.616V153.497H164.378V151.704ZM164.418 157.102H177.743V158.895H164.418V157.102ZM164.558 140.908H177.186V145.25H167.207V146.764H164.577V143.597H174.576V142.681H164.558V140.908ZM164.577 146.207H177.524V147.999H164.577V146.207ZM198.671 140.59H201.341V150.509H198.671V140.59ZM189.071 151.306H191.68V153.019H198.711V151.306H201.341V158.835H189.071V151.306ZM191.68 155.05V156.723H198.711V155.05H191.68ZM191.302 141.346C194.17 141.346 196.301 143.159 196.301 145.709C196.301 148.258 194.17 150.071 191.302 150.071C188.433 150.071 186.282 148.258 186.282 145.709C186.282 143.159 188.433 141.346 191.302 141.346ZM191.302 143.537C189.887 143.537 188.872 144.354 188.872 145.709C188.872 147.083 189.887 147.88 191.302 147.88C192.696 147.88 193.712 147.083 193.712 145.709C193.712 144.354 192.696 143.537 191.302 143.537ZM205.024 149.374H206.438C209.864 149.374 211.657 149.314 213.748 148.935L214.007 151.027C211.856 151.425 209.964 151.485 206.438 151.485H205.024V149.374ZM205.004 141.645H213.111V147.461H207.653V150.768H205.024V145.489H210.481V143.737H205.004V141.645ZM217.114 140.609H219.763V151.963H217.114V140.609ZM214.166 143.139H217.592V145.25H214.166V143.139ZM214.166 147.063H217.592V149.174H214.166V147.063ZM207.135 152.8H219.763V159.054H217.114V154.911H207.135V152.8ZM222.63 143.358H231.454V145.47H222.63V143.358ZM227.072 146.286C229.422 146.286 231.115 148.099 231.115 150.688C231.115 153.258 229.422 155.07 227.072 155.07C224.741 155.07 223.029 153.258 223.029 150.688C223.029 148.099 224.741 146.286 227.072 146.286ZM227.072 148.497C226.076 148.497 225.379 149.294 225.379 150.688C225.379 152.082 226.076 152.859 227.072 152.859C228.068 152.859 228.785 152.082 228.785 150.688C228.785 149.294 228.068 148.497 227.072 148.497ZM235.975 140.59H238.505V159.034H235.975V140.59ZM233.765 148.079H236.812V150.21H233.765V148.079ZM232.111 140.928H234.581V158.257H232.111V140.928ZM225.777 141.088H228.387V144.693H225.777V141.088ZM247.805 142.641H250.096V143.179C250.096 146.426 247.447 149.075 242.766 149.712L241.79 147.641C245.853 147.143 247.805 145.071 247.805 143.179V142.641ZM248.562 142.641H250.853V143.179C250.853 145.071 252.805 147.143 256.868 147.641L255.912 149.712C251.211 149.075 248.562 146.426 248.562 143.179V142.641ZM247.945 152.282H250.574V159.054H247.945V152.282ZM240.993 150.768H257.665V152.879H240.993V150.768ZM242.467 141.526H256.151V143.617H242.467V141.526ZM266.567 146.784H269.614V148.935H266.567V146.784ZM262.623 142.183H264.655V145.29C264.655 149.473 263.5 153.556 260.552 155.369L258.958 153.377C261.667 151.704 262.623 148.417 262.623 145.29V142.183ZM263.201 142.183H265.193V145.171C265.193 148.178 265.969 151.246 268.479 152.879L267.045 154.951C264.117 153.138 263.201 149.154 263.201 145.171V142.183ZM272.622 140.59H275.152V159.034H272.622V140.59ZM268.877 140.868H271.347V158.197H268.877V140.868ZM281.305 149.951H283.934V155.13H281.305V149.951ZM287.998 149.951H290.647V155.13H287.998V149.951ZM277.64 154.752H294.332V156.903H277.64V154.752ZM285.966 141.486C289.93 141.486 292.858 143.438 292.858 146.446C292.858 149.453 289.93 151.385 285.966 151.385C281.982 151.385 279.074 149.453 279.074 146.446C279.074 143.438 281.982 141.486 285.966 141.486ZM285.966 143.557C283.396 143.557 281.683 144.613 281.683 146.446C281.683 148.258 283.396 149.334 285.966 149.334C288.535 149.334 290.248 148.258 290.248 146.446C290.248 144.613 288.535 143.557 285.966 143.557Z" fill="black" fill-opacity="0.87"/>
<rect x="65.4163" y="183.567" width="317.698" height="38.8408" rx="4.48163" fill="white" stroke="#5EDCC4" stroke-width="0.995918"/>
<path d="M86.0916 198.581H92.8539V199.543H86.0916V198.581ZM85.8824 204.34L85.743 203.364C87.9042 203.364 90.9437 203.336 93.4534 203.015L93.551 203.866C90.9855 204.298 88.0018 204.34 85.8824 204.34ZM87.3325 199.25H88.4479V203.81H87.3325V199.25ZM90.4836 199.25H91.613V203.81H90.4836V199.25ZM94.6943 197.522H95.8655V205.232H94.6943V197.522ZM91.7106 205.511C94.3318 205.511 95.9492 206.347 95.9492 207.783C95.9492 209.247 94.3318 210.084 91.7106 210.084C89.0754 210.084 87.4859 209.247 87.4859 207.783C87.4859 206.347 89.0754 205.511 91.7106 205.511ZM91.7106 206.417C89.7864 206.417 88.6292 206.933 88.6292 207.783C88.6292 208.676 89.7864 209.178 91.7106 209.178C93.6347 209.178 94.7919 208.676 94.7919 207.783C94.7919 206.933 93.6347 206.417 91.7106 206.417ZM98.9179 198.581H105.68V199.543H98.9179V198.581ZM98.7088 204.34L98.5694 203.364C100.73 203.364 103.77 203.336 106.28 203.015L106.377 203.866C103.812 204.298 100.828 204.34 98.7088 204.34ZM100.159 199.25H101.274V203.81H100.159V199.25ZM103.31 199.25H104.439V203.81H103.31V199.25ZM107.521 197.522H108.692V205.232H107.521V197.522ZM104.537 205.511C107.158 205.511 108.776 206.347 108.776 207.783C108.776 209.247 107.158 210.084 104.537 210.084C101.902 210.084 100.312 209.247 100.312 207.783C100.312 206.347 101.902 205.511 104.537 205.511ZM104.537 206.417C102.613 206.417 101.456 206.933 101.456 207.783C101.456 208.676 102.613 209.178 104.537 209.178C106.461 209.178 107.618 208.676 107.618 207.783C107.618 206.933 106.461 206.417 104.537 206.417ZM120.333 197.494H121.49V210.126H120.333V197.494ZM114.84 198.47C116.708 198.47 118.046 200.185 118.046 202.862C118.046 205.553 116.708 207.268 114.84 207.268C112.985 207.268 111.647 205.553 111.647 202.862C111.647 200.185 112.985 198.47 114.84 198.47ZM114.84 199.515C113.613 199.515 112.748 200.826 112.748 202.862C112.748 204.911 113.613 206.25 114.84 206.25C116.08 206.25 116.931 204.911 116.931 202.862C116.931 200.826 116.08 199.515 114.84 199.515Z" fill="black" fill-opacity="0.87"/>
<rect x="64.9184" y="237.845" width="318.694" height="39.8367" rx="4.97959" fill="white"/>
<rect x="65.4163" y="238.343" width="317.698" height="38.8408" rx="4.48163" stroke="black" stroke-opacity="0.34" stroke-width="0.995918"/>
<path d="M88.8802 253.58H89.8422V254.584C89.8422 256.898 88.42 258.836 86.3007 259.589L85.7012 258.683C87.5974 258.014 88.8802 256.368 88.8802 254.584V253.58ZM89.1032 253.58H90.0653V254.584C90.0653 256.285 91.3759 257.818 93.2443 258.446L92.6447 259.352C90.5533 258.641 89.1032 256.787 89.1032 254.584V253.58ZM94.6943 252.283H95.8655V259.91H94.6943V252.283ZM87.444 260.579H95.8655V264.887H94.6943V261.527H87.444V260.579ZM86.0079 253.161H92.9096V254.096H86.0079V253.161ZM104.69 255.281H108.078V256.243H104.69V255.281ZM101.79 252.855C103.672 252.855 105.039 254.054 105.039 255.783C105.039 257.512 103.672 258.697 101.79 258.697C99.9079 258.697 98.5415 257.512 98.5415 255.783C98.5415 254.054 99.9079 252.855 101.79 252.855ZM101.79 253.831C100.549 253.831 99.6569 254.625 99.6569 255.783C99.6569 256.926 100.549 257.735 101.79 257.735C103.031 257.735 103.923 256.926 103.923 255.783C103.923 254.625 103.031 253.831 101.79 253.831ZM107.563 252.283H108.72V259.045H107.563V252.283ZM100.647 259.673H101.804V261.262H107.576V259.673H108.72V264.72H100.647V259.673ZM101.804 262.182V263.786H107.576V262.182H101.804Z" fill="black" fill-opacity="0.34"/>
<rect x="64.9184" y="292.62" width="318.694" height="39.8367" rx="4.97959" fill="white"/>
<rect x="65.4163" y="293.118" width="317.698" height="38.8408" rx="4.48163" stroke="black" stroke-opacity="0.34" stroke-width="0.995918"/>
<path d="M88.908 312.273H90.0653V314.518H88.908V312.273ZM94.6943 307.058H95.8516V314.476H94.6943V307.058ZM85.6315 312.663L85.492 311.799C87.9181 311.799 90.9995 311.785 93.6904 311.478L93.7602 312.231C90.9995 312.636 87.9878 312.663 85.6315 312.663ZM87.4022 314.936H95.8516V317.557H88.5595V318.98H87.4301V316.791H94.7083V315.773H87.4022V314.936ZM87.4301 318.687H96.2699V319.523H87.4301V318.687ZM92.1846 313.054H95.0568V313.807H92.1846V313.054ZM89.5634 307.295C91.4317 307.295 92.6587 308.02 92.6587 309.192C92.6587 310.363 91.4317 311.088 89.5634 311.088C87.6811 311.088 86.4541 310.363 86.4541 309.192C86.4541 308.02 87.6811 307.295 89.5634 307.295ZM89.5634 308.104C88.3224 308.104 87.5277 308.522 87.5277 309.192C87.5277 309.861 88.3224 310.279 89.5634 310.279C90.7764 310.279 91.5711 309.861 91.5711 309.192C91.5711 308.522 90.7764 308.104 89.5634 308.104ZM99.8382 314.267H100.981V315.926H107.144V314.267H108.301V319.495H99.8382V314.267ZM100.981 316.846V318.561H107.144V316.846H100.981ZM99.8103 307.63H107.925V308.578H99.8103V307.63ZM98.3602 312.189H109.779V313.151H98.3602V312.189ZM107.172 307.63H108.301V308.55C108.301 309.582 108.301 310.767 107.911 312.454L106.754 312.468C107.172 310.781 107.172 309.582 107.172 308.55V307.63Z" fill="black" fill-opacity="0.34"/>
<rect x="64.9184" y="347.396" width="318.694" height="39.8367" rx="4.97959" fill="white"/>
<rect x="65.4163" y="347.893" width="317.698" height="38.8408" rx="4.48163" stroke="black" stroke-opacity="0.34" stroke-width="0.995918"/>
<path d="M94.7501 361.82H95.8934V374.452H94.7501V361.82ZM92.0312 366.421H95.0847V367.369H92.0312V366.421ZM88.7268 363.632H89.661V365.515C89.661 368.234 88.0994 370.925 86.1055 371.956L85.4223 371.036C87.2349 370.144 88.7268 367.759 88.7268 365.515V363.632ZM88.9638 363.632H89.884V365.515C89.884 367.62 91.348 369.921 93.1746 370.785L92.4914 371.691C90.4975 370.701 88.9638 368.108 88.9638 365.515V363.632ZM85.8824 363.117H92.7423V364.079H85.8824V363.117ZM103.477 368.847H104.621V370.827H103.477V368.847ZM98.3463 368.178H109.738V369.112H98.3463V368.178ZM99.6151 370.534H108.329V374.396H107.172V371.482H99.6151V370.534ZM103.477 361.764H104.621V363.521H103.477V361.764ZM103.421 363.674H104.439V363.883C104.439 365.961 102.139 367.174 99.392 367.467L99.0295 366.588C101.469 366.365 103.421 365.333 103.421 363.883V363.674ZM103.658 363.674H104.676V363.883C104.676 365.333 106.628 366.365 109.068 366.588L108.706 367.467C105.945 367.174 103.658 365.961 103.658 363.883V363.674ZM99.5175 363.061H108.58V363.995H99.5175V363.061Z" fill="black" fill-opacity="0.34"/>
<rect x="64.9184" y="402.172" width="318.694" height="39.8367" rx="4.97959" fill="white"/>
<rect x="65.4163" y="402.67" width="317.698" height="38.8408" rx="4.48163" stroke="black" stroke-opacity="0.34" stroke-width="0.995918"/>
<path d="M94.9035 421.63H97.2319V422.606H94.9035V421.63ZM94.053 416.596H95.2242V429.214H94.053V416.596ZM86.0219 417.837H87.1791V425.645H86.0219V417.837ZM86.0219 425.046H87.0258C88.8941 425.046 90.8043 424.92 92.8818 424.488L93.0212 425.45C90.874 425.896 88.9359 426.022 87.0258 426.022H86.0219V425.046ZM107.507 416.596H108.664V429.228H107.507V416.596ZM102.013 417.572C103.882 417.572 105.22 419.287 105.22 421.964C105.22 424.655 103.882 426.37 102.013 426.37C100.159 426.37 98.8203 424.655 98.8203 421.964C98.8203 419.287 100.159 417.572 102.013 417.572ZM102.013 418.618C100.786 418.618 99.9218 419.929 99.9218 421.964C99.9218 424.014 100.786 425.352 102.013 425.352C103.254 425.352 104.105 424.014 104.105 421.964C104.105 419.929 103.254 418.618 102.013 418.618ZM120.765 416.61H121.881V429.214H120.765V416.61ZM118.632 421.657H121.058V422.62H118.632V421.657ZM117.907 416.889H118.995V428.573H117.907V416.889ZM111.633 425.143H112.455C114.296 425.143 115.551 425.073 117.015 424.767L117.126 425.729C115.62 426.049 114.352 426.105 112.455 426.105H111.633V425.143ZM111.633 418.144H116.318V419.092H112.776V425.575H111.633V418.144Z" fill="black" fill-opacity="0.34"/>
<rect x="64.9184" y="456.947" width="318.694" height="39.8367" rx="4.97959" fill="white"/>
<rect x="65.4163" y="457.445" width="317.698" height="38.8408" rx="4.48163" stroke="black" stroke-opacity="0.34" stroke-width="0.995918"/>
<path d="M94.1506 471.399H95.3078V480.853H94.1506V471.399ZM94.9453 475.527H97.1762V476.503H94.9453V475.527ZM85.5618 472.919H93.0072V473.853H85.5618V472.919ZM89.2845 474.551C91.0692 474.551 92.2962 475.485 92.2962 476.907C92.2962 478.315 91.0692 479.249 89.2845 479.249C87.4859 479.249 86.2589 478.315 86.2589 476.907C86.2589 475.485 87.4859 474.551 89.2845 474.551ZM89.2845 475.457C88.1412 475.457 87.3604 476.029 87.3604 476.907C87.3604 477.771 88.1412 478.343 89.2845 478.343C90.4139 478.343 91.1947 477.771 91.1947 476.907C91.1947 476.029 90.4139 475.457 89.2845 475.457ZM88.6989 471.386H89.8562V473.407H88.6989V471.386ZM87.458 482.763H95.8795V483.711H87.458V482.763ZM87.458 480.1H88.6152V483.167H87.458V480.1ZM107.085 477.311H108.242V479.249H107.085V477.311ZM101.968 476.642H113.359V477.576H101.968V476.642ZM103.348 478.817H111.909V481.717H104.52V483.195H103.376V480.881H110.766V479.695H103.348V478.817ZM103.376 482.958H112.286V483.85H103.376V482.958ZM107.002 472.166H108.019V472.557C108.019 474.495 105.649 475.764 102.958 476.029L102.582 475.136C104.91 474.941 107.002 473.909 107.002 472.557V472.166ZM107.336 472.166H108.34V472.557C108.34 473.909 110.431 474.941 112.76 475.136L112.383 476.029C109.706 475.764 107.336 474.495 107.336 472.557V472.166ZM103.014 471.804H112.342V472.738H103.014V471.804ZM118.43 481.397H129.85V482.359H118.43V481.397ZM123.506 478.343H124.649V481.717H123.506V478.343ZM123.478 472.222H124.482V473.198C124.482 475.889 121.902 477.967 119.364 478.496L118.876 477.534C121.093 477.13 123.478 475.276 123.478 473.198V472.222ZM123.687 472.222H124.691V473.198C124.691 475.29 127.089 477.13 129.306 477.534L128.804 478.496C126.266 477.967 123.687 475.889 123.687 473.198V472.222ZM140.821 471.386H141.937V483.99H140.821V471.386ZM138.786 476.447H141.198V477.395H138.786V476.447ZM135.523 473.003H136.639C136.639 476.252 135.523 479.263 131.926 481.285L131.243 480.462C134.408 478.692 135.523 476.14 135.523 473.226V473.003ZM131.731 473.003H135.914V473.965H131.731V473.003ZM138.019 471.72H139.12V483.376H138.019V471.72Z" fill="black" fill-opacity="0.34"/>
<rect x="64.9184" y="762.693" width="318.694" height="39.8367" rx="4.97959" fill="#D0D0D0"/>
<path d="M214.48 783.043H215.637V784.661H214.48V783.043ZM219.792 777.146H220.949V785.595H219.792V777.146ZM220.461 780.952H222.79V781.914H220.461V780.952ZM211.259 785.232L211.106 784.284C213.364 784.284 216.432 784.284 219.039 783.908L219.137 784.73C216.446 785.205 213.462 785.218 211.259 785.232ZM212.667 786.222H220.949V789.736H219.792V787.143H212.667V786.222ZM211.426 778.275H218.663V779.139H211.426V778.275ZM215.051 779.627C216.822 779.627 217.979 780.338 217.979 781.496C217.979 782.653 216.822 783.364 215.051 783.364C213.267 783.364 212.109 782.653 212.109 781.496C212.109 780.338 213.267 779.627 215.051 779.627ZM215.051 780.422C213.922 780.422 213.197 780.826 213.197 781.496C213.197 782.137 213.922 782.555 215.051 782.555C216.167 782.555 216.892 782.137 216.892 781.496C216.892 780.826 216.167 780.422 215.051 780.422ZM214.48 777.034H215.637V778.693H214.48V777.034ZM233.176 777.146H234.347V786.348H233.176V777.146ZM226.246 788.509H234.724V789.457H226.246V788.509ZM226.246 785.4H227.39V788.83H226.246V785.4ZM227.585 778.01C229.467 778.01 230.861 779.293 230.861 781.119C230.861 782.932 229.467 784.229 227.585 784.229C225.703 784.229 224.294 782.932 224.294 781.119C224.294 779.293 225.703 778.01 227.585 778.01ZM227.585 779.014C226.358 779.014 225.424 779.878 225.424 781.119C225.424 782.346 226.358 783.211 227.585 783.211C228.812 783.211 229.746 782.346 229.746 781.119C229.746 779.878 228.812 779.014 227.585 779.014Z" fill="white"/>
<path d="M359.803 260.253L365.814 254.249C365.873 254.191 365.942 254.144 366.019 254.113C366.095 254.082 366.177 254.066 366.26 254.067C366.343 254.068 366.425 254.086 366.5 254.119C366.576 254.152 366.645 254.2 366.702 254.26C366.818 254.383 366.882 254.546 366.88 254.716C366.878 254.885 366.81 255.047 366.691 255.167L360.235 261.614C360.177 261.673 360.108 261.719 360.032 261.75C359.956 261.782 359.874 261.797 359.792 261.797C359.71 261.796 359.629 261.78 359.553 261.747C359.477 261.715 359.409 261.668 359.352 261.609L352.723 254.823C352.606 254.701 352.541 254.539 352.541 254.37C352.541 254.201 352.606 254.039 352.723 253.918C352.781 253.858 352.85 253.811 352.926 253.779C353.002 253.747 353.084 253.73 353.167 253.73C353.25 253.73 353.332 253.747 353.408 253.779C353.484 253.811 353.553 253.858 353.611 253.918L359.803 260.253Z" fill="black" fill-opacity="0.87"/>
<path d="M359.803 424.58L365.814 418.576C365.873 418.518 365.942 418.471 366.019 418.44C366.095 418.409 366.177 418.393 366.26 418.394C366.343 418.395 366.425 418.413 366.5 418.446C366.576 418.479 366.645 418.527 366.702 418.587C366.818 418.71 366.882 418.873 366.88 419.043C366.878 419.212 366.81 419.374 366.691 419.494L360.235 425.941C360.177 426 360.108 426.046 360.032 426.077C359.956 426.109 359.874 426.125 359.792 426.124C359.71 426.124 359.629 426.107 359.553 426.074C359.477 426.042 359.409 425.995 359.352 425.936L352.723 419.15C352.606 419.029 352.541 418.866 352.541 418.697C352.541 418.528 352.606 418.366 352.723 418.245C352.781 418.185 352.85 418.138 352.926 418.106C353.002 418.074 353.084 418.057 353.167 418.057C353.25 418.057 353.332 418.074 353.408 418.106C353.484 418.138 353.553 418.185 353.611 418.245L359.803 424.58Z" fill="black" fill-opacity="0.87"/>
</g>
<defs>
<filter id="filter0_d_991_6747" x="0.183657" y="0.816484" width="448.163" height="886.368" filterUnits="userSpaceOnUse" color-interpolation-filters="sRGB">
<feFlood flood-opacity="0" result="BackgroundImageFix"/>
<feColorMatrix in="SourceAlpha" type="matrix" values="0 0 0 0 0 0 0 0 0 0 0 0 0 0 0 0 0 0 127 0" result="hardAlpha"/>
<feMorphology radius="14.9388" operator="dilate" in="SourceAlpha" result="effect1_dropShadow_991_6747"/>
<feOffset/>
<feGaussianBlur stdDeviation="14.9388"/>
<feComposite in2="hardAlpha" operator="out"/>
<feColorMatrix type="matrix" values="0 0 0 0 0.502083 0 0 0 0 0.502083 0 0 0 0 0.502083 0 0 0 0.05 0"/>
<feBlend mode="normal" in2="BackgroundImageFix" result="effect1_dropShadow_991_6747"/>
<feBlend mode="normal" in="SourceGraphic" in2="effect1_dropShadow_991_6747" result="shape"/>
</filter>
<clipPath id="clip0_991_6747">
<rect width="15.9347" height="15.9347" fill="white" transform="translate(338.796 52.604)"/>
</clipPath>
</defs>
</svg>
