<svg width="449" height="888" viewBox="0 0 449 888" fill="none" xmlns="http://www.w3.org/2000/svg">
<g filter="url(#filter0_d_991_6851)">
<g clip-path="url(#clip0_991_6851)">
<rect x="45" y="45.6328" width="358.531" height="796.735" rx="19.9184" fill="white"/>
<path d="M69.7346 65.6084H68.3752V59.4715C68.3752 59.2558 68.3752 59.0572 68.3752 58.876C68.3838 58.6861 68.3925 58.5048 68.4011 58.3322C68.4097 58.151 68.4184 57.9783 68.427 57.8143C68.3148 57.9265 68.1983 58.0344 68.0774 58.138C67.9566 58.2416 67.8185 58.3624 67.6631 58.5005L66.6533 59.3162L65.9541 58.4358L68.5953 56.3643H69.7346V65.6084ZM79.1505 60.9734C79.1505 61.7243 79.0901 62.3932 78.9692 62.9802C78.857 63.5671 78.6758 64.0677 78.4255 64.482C78.1838 64.8877 77.8601 65.1984 77.4545 65.4142C77.0574 65.63 76.5784 65.7379 76.0173 65.7379C75.3096 65.7379 74.727 65.548 74.2695 65.1682C73.8121 64.7884 73.4711 64.2447 73.2467 63.5369C73.0223 62.8205 72.9101 61.966 72.9101 60.9734C72.9101 59.9722 73.0093 59.1177 73.2079 58.4099C73.415 57.7021 73.7473 57.1627 74.2048 56.7915C74.6622 56.4118 75.2664 56.2219 76.0173 56.2219C76.7251 56.2219 77.3077 56.4118 77.7652 56.7915C78.2313 57.1627 78.5765 57.7021 78.8009 58.4099C79.034 59.1177 79.1505 59.9722 79.1505 60.9734ZM74.2825 60.9734C74.2825 61.7761 74.3386 62.445 74.4508 62.9802C74.563 63.5153 74.7442 63.9167 74.9945 64.1842C75.2535 64.4518 75.5944 64.5856 76.0173 64.5856C76.4403 64.5856 76.7769 64.4561 77.0272 64.1972C77.2861 63.9296 77.4717 63.5283 77.5839 62.9931C77.7048 62.4493 77.7652 61.7761 77.7652 60.9734C77.7652 60.1707 77.7048 59.5061 77.5839 58.9796C77.4717 58.4444 77.2861 58.0431 77.0272 57.7755C76.7769 57.5079 76.4403 57.3741 76.0173 57.3741C75.5944 57.3741 75.2535 57.5079 74.9945 57.7755C74.7442 58.0431 74.563 58.4444 74.4508 58.9796C74.3386 59.5061 74.2825 60.1707 74.2825 60.9734ZM80.6169 64.8445C80.6169 64.5079 80.7033 64.2705 80.8759 64.1324C81.0485 63.9943 81.2557 63.9253 81.4973 63.9253C81.7476 63.9253 81.9591 63.9943 82.1317 64.1324C82.3044 64.2705 82.3907 64.5079 82.3907 64.8445C82.3907 65.1811 82.3044 65.4228 82.1317 65.5696C81.9591 65.7163 81.7476 65.7897 81.4973 65.7897C81.2557 65.7897 81.0485 65.7163 80.8759 65.5696C80.7033 65.4228 80.6169 65.1811 80.6169 64.8445ZM80.6169 59.4068C80.6169 59.0529 80.7033 58.8069 80.8759 58.6688C81.0485 58.5307 81.2557 58.4617 81.4973 58.4617C81.7476 58.4617 81.9591 58.5307 82.1317 58.6688C82.3044 58.8069 82.3907 59.0529 82.3907 59.4068C82.3907 59.7348 82.3044 59.9722 82.1317 60.1189C81.9591 60.2656 81.7476 60.339 81.4973 60.339C81.2557 60.339 81.0485 60.2656 80.8759 60.1189C80.7033 59.9722 80.6169 59.7348 80.6169 59.4068ZM90.0868 65.6084H83.8723V64.5467L86.2545 62.1257C86.7206 61.651 87.109 61.241 87.4198 60.8957C87.7305 60.5418 87.9635 60.2052 88.1189 59.8859C88.2743 59.5579 88.3519 59.204 88.3519 58.8242C88.3519 58.3495 88.2138 57.9956 87.9376 57.7626C87.6614 57.5209 87.3032 57.4 86.863 57.4C86.4401 57.4 86.0603 57.482 85.7237 57.646C85.3871 57.8014 85.0375 58.0215 84.675 58.3063L83.937 57.3871C84.1873 57.1713 84.4549 56.9771 84.7397 56.8045C85.0332 56.6319 85.3569 56.4938 85.7108 56.3902C86.0733 56.2866 86.4703 56.2348 86.9019 56.2348C87.4888 56.2348 87.9937 56.3384 88.4167 56.5455C88.8396 56.7441 89.1633 57.0289 89.3877 57.4C89.6207 57.7712 89.7373 58.2071 89.7373 58.7077C89.7373 59.0788 89.6812 59.4284 89.569 59.7564C89.4567 60.0757 89.2927 60.3908 89.077 60.7015C88.8698 61.0122 88.6152 61.3273 88.3131 61.6466C88.011 61.966 87.6787 62.3026 87.3162 62.6565L85.5942 64.3267V64.3914H90.0868V65.6084ZM97.4959 65.6084H91.2814V64.5467L93.6636 62.1257C94.1297 61.651 94.5181 61.241 94.8288 60.8957C95.1396 60.5418 95.3726 60.2052 95.528 59.8859C95.6833 59.5579 95.761 59.204 95.761 58.8242C95.761 58.3495 95.6229 57.9956 95.3467 57.7626C95.0705 57.5209 94.7123 57.4 94.2721 57.4C93.8492 57.4 93.4694 57.482 93.1328 57.646C92.7962 57.8014 92.4466 58.0215 92.0841 58.3063L91.3461 57.3871C91.5964 57.1713 91.864 56.9771 92.1488 56.8045C92.4423 56.6319 92.766 56.4938 93.1199 56.3902C93.4824 56.2866 93.8794 56.2348 94.311 56.2348C94.8979 56.2348 95.4028 56.3384 95.8258 56.5455C96.2487 56.7441 96.5724 57.0289 96.7968 57.4C97.0298 57.7712 97.1463 58.2071 97.1463 58.7077C97.1463 59.0788 97.0902 59.4284 96.978 59.7564C96.8658 60.0757 96.7018 60.3908 96.4861 60.7015C96.2789 61.0122 96.0243 61.3273 95.7222 61.6466C95.4201 61.966 95.0878 62.3026 94.7253 62.6565L93.0033 64.3267V64.3914H97.4959V65.6084Z" fill="black"/>
<g clip-path="url(#clip1_991_6851)">
<path d="M343.012 62.7955L341.618 61.3681C342.304 60.682 343.089 60.1564 343.975 59.7912C344.86 59.426 345.79 59.2434 346.763 59.2434C347.737 59.2434 348.669 59.4289 349.56 59.7998C350.452 60.1708 351.234 60.7046 351.909 61.4013L350.515 62.7955C350.017 62.2976 349.444 61.9132 348.796 61.6423C348.149 61.3714 347.471 61.2357 346.763 61.2353C346.055 61.2353 345.377 61.3709 344.73 61.6423C344.083 61.9136 343.51 62.298 343.012 62.7955ZM340.19 59.9738L338.796 58.5795C339.847 57.5061 341.062 56.6844 342.44 56.1143C343.818 55.5442 345.259 55.2593 346.763 55.2598C348.268 55.2598 349.71 55.5448 351.088 56.1149C352.465 56.685 353.68 57.5066 354.731 58.5795L353.336 59.9738C352.462 59.0996 351.458 58.4275 350.323 57.9574C349.189 57.4873 348.002 57.252 346.763 57.2516C345.524 57.2516 344.337 57.4869 343.203 57.9574C342.068 58.4279 341.064 59.1 340.19 59.9738ZM346.763 66.5468L344.423 64.1898C344.733 63.88 345.09 63.6421 345.494 63.4761C345.898 63.3101 346.321 63.2271 346.763 63.2271C347.206 63.2271 347.629 63.3101 348.033 63.4761C348.438 63.6421 348.794 63.88 349.104 64.1898L346.763 66.5468Z" fill="black"/>
</g>
<rect x="363.047" y="56.937" width="16.4232" height="7.41248" rx="1.64327" stroke="black" stroke-width="0.697143"/>
<rect x="363.694" y="57.5845" width="11.951" height="5.97551" rx="1.99184" fill="black"/>
<rect x="380.067" y="58.6396" width="1.30418" height="4.00739" rx="0.24898" fill="black" stroke="black" stroke-width="0.497959"/>
<rect x="314.894" y="60.5728" width="2.98776" height="5.97551" rx="0.497959" fill="black"/>
<rect x="318.878" y="58.5811" width="2.98776" height="7.96735" rx="0.497959" fill="black"/>
<rect x="322.861" y="56.5889" width="2.98776" height="9.95918" rx="0.497959" fill="black"/>
<rect x="326.845" y="54.5972" width="2.98776" height="11.951" rx="0.497959" fill="black"/>
<rect x="45" y="75.5098" width="358.531" height="39.8367" fill="white"/>
<path d="M63.5902 95.5509L71.595 103.566C71.6732 103.644 71.735 103.737 71.7768 103.839C71.8185 103.941 71.8393 104.051 71.838 104.161C71.8367 104.271 71.8132 104.38 71.769 104.481C71.7248 104.583 71.6608 104.674 71.5807 104.75C71.4169 104.905 71.1989 104.991 70.973 104.988C70.7472 104.985 70.5313 104.895 70.3712 104.735L61.7749 96.1269C61.6971 96.0497 61.6355 95.9577 61.5937 95.8564C61.5519 95.7551 61.5307 95.6465 61.5314 95.5369C61.532 95.4273 61.5546 95.3189 61.5976 95.2181C61.6406 95.1173 61.7033 95.0261 61.782 94.9498L70.8302 86.112C70.9921 85.9556 71.2085 85.8682 71.4337 85.8682C71.6589 85.8682 71.8752 85.9556 72.0372 86.112C72.1164 86.1889 72.1793 86.2808 72.2222 86.3824C72.2652 86.484 72.2873 86.5932 72.2873 86.7036C72.2873 86.8139 72.2652 86.9231 72.2222 87.0247C72.1793 87.1263 72.1164 87.2183 72.0372 87.2951L63.5902 95.5509Z" fill="black" fill-opacity="0.87"/>
<path d="M199.401 97.9433H200.74V100.318H199.401V97.9433ZM205.711 89.3067H207.034V103.712H205.711V89.3067ZM195.561 100.971L195.386 99.8714C198.11 99.8555 201.696 99.8236 204.803 99.4252L204.899 100.397C201.696 100.939 198.222 100.971 195.561 100.971ZM195.688 91.0595H204.437V92.1271H195.688V91.0595ZM200.054 92.9557C202.126 92.9557 203.528 94.0074 203.528 95.6168C203.528 97.2422 202.126 98.2779 200.054 98.2779C197.999 98.2779 196.597 97.2422 196.597 95.6168C196.597 94.0074 197.999 92.9557 200.054 92.9557ZM200.054 93.9756C198.764 93.9756 197.855 94.6289 197.855 95.6168C197.855 96.6048 198.764 97.2581 200.054 97.2581C201.361 97.2581 202.269 96.6048 202.269 95.6168C202.269 94.6289 201.361 93.9756 200.054 93.9756ZM199.401 89.3067H200.724V91.6491H199.401V89.3067ZM214.044 96.557H215.366V99.7599H214.044V96.557ZM220.434 89.3067H221.756V100.27H220.434V89.3067ZM211.925 102.309H222.107V103.393H211.925V102.309ZM211.925 99.2021H213.247V102.612H211.925V99.2021ZM210.06 97.051L209.885 95.9674C212.546 95.9674 216.115 95.9355 219.175 95.5372L219.27 96.5092C216.163 97.0031 212.674 97.051 210.06 97.051ZM217.502 97.8158H220.768V98.7878H217.502V97.8158ZM214.57 89.8963C216.673 89.8963 218.107 90.8842 218.107 92.398C218.107 93.9278 216.673 94.9157 214.57 94.9157C212.45 94.9157 211.016 93.9278 211.016 92.398C211.016 90.8842 212.45 89.8963 214.57 89.8963ZM214.57 90.8842C213.215 90.8842 212.275 91.4738 212.275 92.398C212.275 93.3222 213.215 93.9118 214.57 93.9118C215.908 93.9118 216.848 93.3222 216.848 92.398C216.848 91.4738 215.908 90.8842 214.57 90.8842ZM234.359 89.2908H235.698V103.712H234.359V89.2908ZM235.331 95.1388H237.992V96.2383H235.331V95.1388ZM230.678 90.8524H231.969C231.969 94.9476 230.089 98.6444 225.436 100.987L224.703 99.967C228.687 97.9433 230.678 94.8679 230.678 91.0595V90.8524ZM225.372 90.8524H231.364V91.9359H225.372V90.8524ZM249.751 89.3067H251.09V97.035H249.751V89.3067ZM241.8 97.7521H243.106V99.5049H249.783V97.7521H251.09V103.52H241.8V97.7521ZM243.106 100.557V102.453H249.783V100.557H243.106ZM243.361 89.9919C245.544 89.9919 247.106 91.3463 247.106 93.3063C247.106 95.2822 245.544 96.6367 243.361 96.6367C241.178 96.6367 239.601 95.2822 239.601 93.3063C239.601 91.3463 241.178 89.9919 243.361 89.9919ZM243.361 91.0914C241.927 91.0914 240.891 91.9997 240.891 93.3063C240.891 94.6129 241.927 95.5212 243.361 95.5212C244.795 95.5212 245.831 94.6129 245.831 93.3063C245.831 91.9997 244.795 91.0914 243.361 91.0914Z" fill="black" fill-opacity="0.87"/>
<rect x="45" y="115.347" width="358.531" height="0.995918" fill="black" fill-opacity="0.1"/>
<rect x="45" y="115.347" width="215.118" height="0.995918" fill="black" fill-opacity="0.64"/>
<path d="M78.3633 140.57H81.0323V159.074H78.3633V140.57ZM66.6314 142.044H69.2606V146.525H73.065V142.044H75.6942V154.771H66.6314V142.044ZM69.2606 148.577V152.64H73.065V148.577H69.2606ZM84.9746 141.506H93.918V149.314H84.9746V141.506ZM91.3286 143.577H87.564V147.242H91.3286V143.577ZM96.7065 140.59H99.3756V149.891H96.7065V140.59ZM87.066 150.688H99.3756V155.708H89.6953V157.58H87.086V153.815H96.7464V152.72H87.066V150.688ZM87.086 156.863H99.8337V158.914H87.086V156.863ZM111.086 145.489H115.827V147.601H111.086V145.489ZM115.149 140.609H117.799V154.214H115.149V140.609ZM105.589 156.604H118.197V158.715H105.589V156.604ZM105.589 152.879H108.258V157.819H105.589V152.879ZM103.139 141.805H105.768V144.613H109.273V141.805H111.863V151.326H103.139V141.805ZM105.768 146.625V149.234H109.273V146.625H105.768ZM121.402 142.88H136.62V144.992H121.402V142.88ZM120.705 155.05H137.397V157.182H120.705V155.05ZM127.696 152.62H130.326V155.887H127.696V152.62ZM128.991 145.788C132.835 145.788 135.245 147.123 135.245 149.393C135.245 151.664 132.835 152.999 128.991 152.999C125.147 152.999 122.737 151.664 122.737 149.393C122.737 147.123 125.147 145.788 128.991 145.788ZM128.991 147.84C126.681 147.84 125.446 148.338 125.446 149.393C125.446 150.449 126.681 150.927 128.991 150.927C131.302 150.927 132.537 150.449 132.537 149.393C132.537 148.338 131.302 147.84 128.991 147.84ZM127.696 140.789H130.326V144.195H127.696V140.789ZM139.008 148.856H155.72V150.788H139.008V148.856ZM140.881 151.704H153.728V156.086H143.55V157.66H140.921V154.413H151.119V153.497H140.881V151.704ZM140.921 157.102H154.246V158.895H140.921V157.102ZM141.06 140.908H153.688V145.25H143.709V146.764H141.08V143.597H151.079V142.681H141.06V140.908ZM141.08 146.207H154.027V147.999H141.08V146.207ZM165.832 141.705H167.904V143.836C167.904 146.963 166.649 150.091 163.641 151.365L162.247 149.314C164.816 148.178 165.832 145.908 165.832 143.836V141.705ZM166.31 141.705H168.382V143.836C168.382 145.808 169.378 147.8 171.808 148.756L170.394 150.768C167.525 149.632 166.31 146.844 166.31 143.836V141.705ZM175.712 140.609H178.222V151.863H175.712V140.609ZM173.501 145.071H176.429V147.202H173.501V145.071ZM171.808 140.948H174.278V151.286H171.808V140.948ZM171.967 152.122C175.831 152.122 178.321 153.417 178.321 155.588C178.321 157.739 175.831 159.034 171.967 159.034C168.083 159.034 165.633 157.739 165.633 155.588C165.633 153.417 168.083 152.122 171.967 152.122ZM171.967 154.114C169.597 154.114 168.262 154.612 168.262 155.588C168.262 156.564 169.597 157.042 171.967 157.042C174.337 157.042 175.652 156.564 175.652 155.588C175.652 154.612 174.337 154.114 171.967 154.114ZM185.112 141.546H187.323V143.199C187.323 146.904 185.669 150.15 182.044 151.365L180.67 149.234C183.817 148.218 185.112 145.728 185.112 143.199V141.546ZM185.669 141.546H187.801V143.079C187.801 145.529 188.996 147.8 191.924 148.736L190.549 150.808C187.143 149.632 185.669 146.665 185.669 143.079V141.546ZM193.617 140.59H196.266V151.385H193.617V140.59ZM190.012 151.863C193.916 151.863 196.326 153.198 196.326 155.449C196.326 157.719 193.916 159.034 190.012 159.034C186.108 159.034 183.698 157.719 183.698 155.449C183.698 153.198 186.108 151.863 190.012 151.863ZM190.012 153.915C187.621 153.915 186.347 154.413 186.347 155.449C186.347 156.484 187.621 157.002 190.012 157.002C192.422 157.002 193.697 156.484 193.697 155.449C193.697 154.413 192.422 153.915 190.012 153.915ZM190.251 143.936H193.995V146.087H190.251V143.936ZM199.133 143.358H207.957V145.47H199.133V143.358ZM203.574 146.286C205.925 146.286 207.618 148.099 207.618 150.688C207.618 153.258 205.925 155.07 203.574 155.07C201.244 155.07 199.531 153.258 199.531 150.688C199.531 148.099 201.244 146.286 203.574 146.286ZM203.574 148.497C202.579 148.497 201.881 149.294 201.881 150.688C201.881 152.082 202.579 152.859 203.574 152.859C204.57 152.859 205.287 152.082 205.287 150.688C205.287 149.294 204.57 148.497 203.574 148.497ZM212.478 140.59H215.008V159.034H212.478V140.59ZM210.267 148.079H213.315V150.21H210.267V148.079ZM208.614 140.928H211.084V158.257H208.614V140.928ZM202.28 141.088H204.889V144.693H202.28V141.088ZM224.308 142.641H226.599V143.179C226.599 146.426 223.949 149.075 219.269 149.712L218.293 147.641C222.356 147.143 224.308 145.071 224.308 143.179V142.641ZM225.065 142.641H227.355V143.179C227.355 145.071 229.307 147.143 233.371 147.641L232.415 149.712C227.714 149.075 225.065 146.426 225.065 143.179V142.641ZM224.447 152.282H227.077V159.054H224.447V152.282ZM217.496 150.768H234.168V152.879H217.496V150.768ZM218.97 141.526H232.654V143.617H218.97V141.526ZM243.07 146.784H246.117V148.935H243.07V146.784ZM239.126 142.183H241.157V145.29C241.157 149.473 240.002 153.556 237.054 155.369L235.461 153.377C238.17 151.704 239.126 148.417 239.126 145.29V142.183ZM239.703 142.183H241.695V145.171C241.695 148.178 242.472 151.246 244.982 152.879L243.548 154.951C240.62 153.138 239.703 149.154 239.703 145.171V142.183ZM249.125 140.59H251.654V159.034H249.125V140.59ZM245.38 140.868H247.85V158.197H245.38V140.868ZM257.808 149.951H260.437V155.13H257.808V149.951ZM264.5 149.951H267.149V155.13H264.5V149.951ZM254.143 154.752H270.834V156.903H254.143V154.752ZM262.468 141.486C266.432 141.486 269.36 143.438 269.36 146.446C269.36 149.453 266.432 151.385 262.468 151.385C258.485 151.385 255.577 149.453 255.577 146.446C255.577 143.438 258.485 141.486 262.468 141.486ZM262.468 143.557C259.899 143.557 258.186 144.613 258.186 146.446C258.186 148.258 259.899 149.334 262.468 149.334C265.038 149.334 266.751 148.258 266.751 146.446C266.751 144.613 265.038 143.557 262.468 143.557Z" fill="black" fill-opacity="0.87"/>
<rect x="65.4163" y="183.567" width="317.698" height="38.8408" rx="4.48163" fill="white" stroke="#5EDCC4" stroke-width="0.995918"/>
<path d="M89.5773 201.412C90.4975 201.412 91.2365 201.732 91.7942 202.374C92.3612 203.015 92.6447 203.982 92.6447 205.274C92.6447 206.12 92.5146 206.835 92.2543 207.421C92.0034 207.997 91.6455 208.434 91.1807 208.732C90.7253 209.02 90.1862 209.164 89.5634 209.164C89.1823 209.164 88.843 209.113 88.5455 209.01C88.2481 208.908 87.9925 208.778 87.7787 208.62C87.5742 208.453 87.3976 208.271 87.2489 208.076H87.1652C87.1838 208.234 87.2024 208.434 87.221 208.676C87.2396 208.918 87.2489 209.127 87.2489 209.303V212.371H86.0219V201.551H87.0258L87.1931 202.569H87.2489C87.3976 202.355 87.5742 202.16 87.7787 201.983C87.9925 201.807 88.2435 201.667 88.5316 201.565C88.8291 201.463 89.1776 201.412 89.5773 201.412ZM89.3542 202.443C88.8523 202.443 88.4479 202.541 88.1412 202.736C87.8345 202.922 87.6114 203.206 87.4719 203.587C87.3325 203.968 87.2582 204.451 87.2489 205.037V205.274C87.2489 205.887 87.3139 206.408 87.4441 206.835C87.5742 207.263 87.7926 207.588 88.0994 207.811C88.4154 208.034 88.843 208.146 89.3821 208.146C89.8376 208.146 90.2094 208.021 90.4975 207.77C90.795 207.519 91.0134 207.179 91.1529 206.752C91.3016 206.315 91.3759 205.818 91.3759 205.26C91.3759 204.405 91.2086 203.721 90.874 203.21C90.5487 202.699 90.0421 202.443 89.3542 202.443ZM95.827 201.551V209.024H94.6V201.551H95.827ZM95.2274 198.749C95.4133 198.749 95.576 198.814 95.7154 198.944C95.8642 199.065 95.9385 199.26 95.9385 199.529C95.9385 199.79 95.8642 199.985 95.7154 200.115C95.576 200.245 95.4133 200.31 95.2274 200.31C95.0229 200.31 94.851 200.245 94.7116 200.115C94.5721 199.985 94.5024 199.79 94.5024 199.529C94.5024 199.26 94.5721 199.065 94.7116 198.944C94.851 198.814 95.0229 198.749 95.2274 198.749ZM101.792 201.412C102.684 201.412 103.358 201.63 103.814 202.067C104.269 202.495 104.497 203.192 104.497 204.158V209.024H103.284V204.242C103.284 203.638 103.149 203.187 102.879 202.89C102.61 202.592 102.187 202.443 101.611 202.443C100.783 202.443 100.212 202.676 99.8957 203.141C99.5796 203.605 99.4216 204.275 99.4216 205.148V209.024H98.1947V201.551H99.1846L99.3659 202.569H99.4356C99.6029 202.309 99.8074 202.095 100.049 201.927C100.3 201.751 100.574 201.621 100.872 201.537C101.169 201.453 101.476 201.412 101.792 201.412ZM110.369 201.412C111.289 201.412 112.028 201.732 112.586 202.374C113.153 203.015 113.436 203.982 113.436 205.274C113.436 206.12 113.306 206.835 113.046 207.421C112.795 207.997 112.437 208.434 111.972 208.732C111.517 209.02 110.978 209.164 110.355 209.164C109.974 209.164 109.635 209.113 109.337 209.01C109.04 208.908 108.784 208.778 108.57 208.62C108.366 208.453 108.189 208.271 108.041 208.076H107.957C107.976 208.234 107.994 208.434 108.013 208.676C108.031 208.918 108.041 209.127 108.041 209.303V212.371H106.814V201.551H107.818L107.985 202.569H108.041C108.189 202.355 108.366 202.16 108.57 201.983C108.784 201.807 109.035 201.667 109.323 201.565C109.621 201.463 109.969 201.412 110.369 201.412ZM110.146 202.443C109.644 202.443 109.24 202.541 108.933 202.736C108.626 202.922 108.403 203.206 108.264 203.587C108.124 203.968 108.05 204.451 108.041 205.037V205.274C108.041 205.887 108.106 206.408 108.236 206.835C108.366 207.263 108.584 207.588 108.891 207.811C109.207 208.034 109.635 208.146 110.174 208.146C110.629 208.146 111.001 208.021 111.289 207.77C111.587 207.519 111.805 207.179 111.945 206.752C112.093 206.315 112.168 205.818 112.168 205.26C112.168 204.405 112 203.721 111.666 203.21C111.34 202.699 110.834 202.443 110.146 202.443ZM116.619 201.551V209.024H115.392V201.551H116.619ZM116.019 198.749C116.205 198.749 116.368 198.814 116.507 198.944C116.656 199.065 116.73 199.26 116.73 199.529C116.73 199.79 116.656 199.985 116.507 200.115C116.368 200.245 116.205 200.31 116.019 200.31C115.815 200.31 115.643 200.245 115.503 200.115C115.364 199.985 115.294 199.79 115.294 199.529C115.294 199.26 115.364 199.065 115.503 198.944C115.643 198.814 115.815 198.749 116.019 198.749ZM122.584 201.412C123.476 201.412 124.15 201.63 124.605 202.067C125.061 202.495 125.289 203.192 125.289 204.158V209.024H124.076V204.242C124.076 203.638 123.941 203.187 123.671 202.89C123.402 202.592 122.979 202.443 122.402 202.443C121.575 202.443 121.003 202.676 120.687 203.141C120.371 203.605 120.213 204.275 120.213 205.148V209.024H118.986V201.551H119.976L120.158 202.569H120.227C120.395 202.309 120.599 202.095 120.841 201.927C121.092 201.751 121.366 201.621 121.663 201.537C121.961 201.453 122.268 201.412 122.584 201.412ZM133.671 209.024H127.089V208.007L129.697 205.371C130.199 204.869 130.622 204.423 130.966 204.033C131.31 203.642 131.57 203.261 131.746 202.89C131.923 202.508 132.011 202.095 132.011 201.649C132.011 201.1 131.849 200.687 131.523 200.408C131.198 200.12 130.775 199.975 130.255 199.975C129.771 199.975 129.344 200.059 128.972 200.226C128.609 200.394 128.237 200.626 127.856 200.924L127.201 200.101C127.461 199.878 127.745 199.678 128.052 199.501C128.368 199.325 128.707 199.185 129.069 199.083C129.441 198.981 129.836 198.93 130.255 198.93C130.877 198.93 131.412 199.037 131.858 199.25C132.304 199.464 132.648 199.771 132.89 200.171C133.141 200.561 133.266 201.031 133.266 201.579C133.266 201.969 133.206 202.341 133.085 202.694C132.964 203.038 132.792 203.378 132.569 203.712C132.346 204.047 132.076 204.386 131.76 204.73C131.444 205.074 131.096 205.432 130.715 205.804L128.637 207.853V207.909H133.671V209.024ZM141.65 209.024H135.069V208.007L137.676 205.371C138.178 204.869 138.601 204.423 138.945 204.033C139.289 203.642 139.549 203.261 139.725 202.89C139.902 202.508 139.99 202.095 139.99 201.649C139.99 201.1 139.828 200.687 139.502 200.408C139.177 200.12 138.754 199.975 138.234 199.975C137.75 199.975 137.323 200.059 136.951 200.226C136.588 200.394 136.216 200.626 135.835 200.924L135.18 200.101C135.44 199.878 135.724 199.678 136.031 199.501C136.347 199.325 136.686 199.185 137.048 199.083C137.42 198.981 137.815 198.93 138.234 198.93C138.856 198.93 139.391 199.037 139.837 199.25C140.283 199.464 140.627 199.771 140.869 200.171C141.12 200.561 141.245 201.031 141.245 201.579C141.245 201.969 141.185 202.341 141.064 202.694C140.943 203.038 140.771 203.378 140.548 203.712C140.325 204.047 140.055 204.386 139.739 204.73C139.423 205.074 139.075 205.432 138.694 205.804L136.616 207.853V207.909H141.65V209.024ZM149.629 209.024H143.048V208.007L145.655 205.371C146.157 204.869 146.58 204.423 146.924 204.033C147.268 203.642 147.528 203.261 147.704 202.89C147.881 202.508 147.969 202.095 147.969 201.649C147.969 201.1 147.807 200.687 147.481 200.408C147.156 200.12 146.733 199.975 146.213 199.975C145.729 199.975 145.302 200.059 144.93 200.226C144.567 200.394 144.195 200.626 143.814 200.924L143.159 200.101C143.419 199.878 143.703 199.678 144.01 199.501C144.326 199.325 144.665 199.185 145.027 199.083C145.399 198.981 145.794 198.93 146.213 198.93C146.835 198.93 147.37 199.037 147.816 199.25C148.262 199.464 148.606 199.771 148.848 200.171C149.099 200.561 149.224 201.031 149.224 201.579C149.224 201.969 149.164 202.341 149.043 202.694C148.922 203.038 148.75 203.378 148.527 203.712C148.304 204.047 148.034 204.386 147.718 204.73C147.402 205.074 147.054 205.432 146.673 205.804L144.595 207.853V207.909H149.629V209.024ZM157.608 209.024H151.027V208.007L153.634 205.371C154.136 204.869 154.559 204.423 154.903 204.033C155.247 203.642 155.507 203.261 155.683 202.89C155.86 202.508 155.948 202.095 155.948 201.649C155.948 201.1 155.786 200.687 155.46 200.408C155.135 200.12 154.712 199.975 154.192 199.975C153.708 199.975 153.281 200.059 152.909 200.226C152.546 200.394 152.175 200.626 151.793 200.924L151.138 200.101C151.398 199.878 151.682 199.678 151.989 199.501C152.305 199.325 152.644 199.185 153.006 199.083C153.378 198.981 153.773 198.93 154.192 198.93C154.814 198.93 155.349 199.037 155.795 199.25C156.241 199.464 156.585 199.771 156.827 200.171C157.078 200.561 157.203 201.031 157.203 201.579C157.203 201.969 157.143 202.341 157.022 202.694C156.901 203.038 156.729 203.378 156.506 203.712C156.283 204.047 156.013 204.386 155.697 204.73C155.381 205.074 155.033 205.432 154.652 205.804L152.574 207.853V207.909H157.608V209.024ZM160.609 206.222H159.814L159.466 199.069H160.958L160.609 206.222ZM159.34 208.271C159.34 207.928 159.424 207.686 159.591 207.546C159.758 207.407 159.963 207.337 160.205 207.337C160.437 207.337 160.637 207.407 160.804 207.546C160.981 207.686 161.069 207.928 161.069 208.271C161.069 208.606 160.981 208.848 160.804 208.997C160.637 209.145 160.437 209.22 160.205 209.22C159.963 209.22 159.758 209.145 159.591 208.997C159.424 208.848 159.34 208.606 159.34 208.271Z" fill="black" fill-opacity="0.87"/>
<rect x="64.9184" y="762.693" width="318.694" height="39.8367" rx="4.97959" fill="#5EDCC4"/>
<path d="M214.48 783.043H215.637V784.661H214.48V783.043ZM219.792 777.146H220.949V785.595H219.792V777.146ZM220.461 780.952H222.79V781.914H220.461V780.952ZM211.259 785.232L211.106 784.284C213.364 784.284 216.432 784.284 219.039 783.908L219.137 784.73C216.446 785.205 213.462 785.218 211.259 785.232ZM212.667 786.222H220.949V789.736H219.792V787.143H212.667V786.222ZM211.426 778.275H218.663V779.139H211.426V778.275ZM215.051 779.627C216.822 779.627 217.979 780.338 217.979 781.496C217.979 782.653 216.822 783.364 215.051 783.364C213.267 783.364 212.109 782.653 212.109 781.496C212.109 780.338 213.267 779.627 215.051 779.627ZM215.051 780.422C213.922 780.422 213.197 780.826 213.197 781.496C213.197 782.137 213.922 782.555 215.051 782.555C216.167 782.555 216.892 782.137 216.892 781.496C216.892 780.826 216.167 780.422 215.051 780.422ZM214.48 777.034H215.637V778.693H214.48V777.034ZM233.176 777.146H234.347V786.348H233.176V777.146ZM226.246 788.509H234.724V789.457H226.246V788.509ZM226.246 785.4H227.39V788.83H226.246V785.4ZM227.585 778.01C229.467 778.01 230.861 779.293 230.861 781.119C230.861 782.932 229.467 784.229 227.585 784.229C225.703 784.229 224.294 782.932 224.294 781.119C224.294 779.293 225.703 778.01 227.585 778.01ZM227.585 779.014C226.358 779.014 225.424 779.878 225.424 781.119C225.424 782.346 226.358 783.211 227.585 783.211C228.812 783.211 229.746 782.346 229.746 781.119C229.746 779.878 228.812 779.014 227.585 779.014Z" fill="white"/>
<path d="M65.4163 237.82H73.5729V238.507H65.4163V237.82ZM69.0813 235.639H69.898V238.049H69.0813V235.639ZM69.0614 231.795H69.7585V232.353C69.7585 234.195 67.9161 235.589 66.1434 235.958L65.8047 235.3C67.3584 235.041 69.0614 233.777 69.0614 232.353V231.795ZM69.2108 231.795H69.9079V232.353C69.9079 233.777 71.6209 235.012 73.1945 235.271L72.8658 235.928C71.0632 235.569 69.2108 234.195 69.2108 232.353V231.795ZM66.0836 231.476H72.8857V232.153H66.0836V231.476ZM81.1511 230.659H81.9777V237.312H81.1511V230.659ZM79.209 233.438H81.3104V234.125H79.209V233.438ZM78.3725 231.357H79.2389C79.2389 233.677 77.6056 235.44 75.066 236.286L74.7075 235.619C76.9085 234.882 78.3725 233.468 78.3725 231.685V231.357ZM75.1556 231.357H78.9103V232.034H75.1556V231.357ZM76.291 238.786H82.2067V239.463H76.291V238.786ZM76.291 236.645H77.1176V239.125H76.291V236.645ZM87.3847 234.155H89.0878V234.842H87.3847V234.155ZM90.5916 230.659H91.3883V239.663H90.5916V230.659ZM88.8089 230.849H89.5957V239.214H88.8089V230.849ZM85.7614 231.406C86.9266 231.406 87.6835 232.611 87.6835 234.544C87.6835 236.476 86.9266 237.681 85.7614 237.681C84.5962 237.681 83.8492 236.476 83.8492 234.544C83.8492 232.611 84.5962 231.406 85.7614 231.406ZM85.7614 232.173C85.0543 232.173 84.6061 233.089 84.6061 234.544C84.6061 235.998 85.0543 236.914 85.7614 236.914C86.4785 236.914 86.9266 235.998 86.9266 234.544C86.9266 233.089 86.4785 232.173 85.7614 232.173ZM95.8569 231.267H99.99V235.131H95.8569V231.267ZM99.1833 231.934H96.6636V234.464H99.1833V231.934ZM101.643 230.659H102.47V235.788H101.643V230.659ZM102.241 232.821H103.804V233.508H102.241V232.821ZM99.243 236.635H99.9501V236.874C99.9501 238.288 98.4662 239.334 96.6935 239.633L96.3748 238.995C97.9284 238.756 99.243 237.88 99.243 236.874V236.635ZM99.4024 236.635H100.109V236.874C100.109 237.86 101.444 238.756 102.968 239.005L102.659 239.643C100.896 239.344 99.4024 238.258 99.4024 236.874V236.635ZM96.7233 236.326H102.629V236.984H96.7233V236.326ZM105.746 233.358H111.861V234.036H105.746V233.358ZM104.64 235.241H112.807V235.918H104.64V235.241ZM105.746 230.988H106.562V233.697H105.746V230.988ZM105.686 238.766H111.91V239.443H105.686V238.766ZM105.686 236.814H106.502V238.945H105.686V236.814ZM122.932 230.649H123.759V239.673H122.932V230.649ZM116.907 231.416H117.723V233.797H120.323V231.416H121.149V237.501H116.907V231.416ZM117.723 234.454V236.824H120.323V234.454H117.723ZM126.029 231.157H130.221V234.842H126.029V231.157ZM129.425 231.815H126.825V234.175H129.425V231.815ZM132.104 230.659H132.93V235.29H132.104V230.659ZM127.104 235.739H132.93V237.92H127.931V239.185H127.124V237.302H132.114V236.396H127.104V235.739ZM127.124 238.906H133.239V239.563H127.124V238.906ZM138.965 233.199H141.554V233.876H138.965V233.199ZM141.295 230.669H142.122V237.332H141.295V230.669ZM136.336 238.786H142.341V239.463H136.336V238.786ZM136.336 236.685H137.162V239.135H136.336V236.685ZM135.16 231.257H135.977V232.85H138.417V231.257H139.224V235.798H135.16V231.257ZM135.977 233.498V235.121H138.417V233.498H135.977ZM144.282 231.974H151.592V232.651H144.282V231.974ZM143.884 237.93H152.04V238.617H143.884V237.93ZM147.539 236.505H148.355V238.199H147.539V236.505ZM147.937 233.259C149.76 233.259 150.885 233.886 150.885 234.972C150.885 236.057 149.76 236.685 147.937 236.685C146.125 236.685 144.999 236.057 144.999 234.972C144.999 233.886 146.125 233.259 147.937 233.259ZM147.937 233.906C146.633 233.906 145.826 234.305 145.826 234.972C145.826 235.639 146.633 236.027 147.937 236.027C149.252 236.027 150.049 235.639 150.049 234.972C150.049 234.305 149.252 233.906 147.937 233.906ZM147.539 230.809H148.355V232.392H147.539V230.809ZM159.589 230.659H160.425V235.49H159.589V230.659ZM154.619 235.938H155.436V237.033H159.609V235.938H160.425V239.543H154.619V235.938ZM155.436 237.691V238.876H159.609V237.691H155.436ZM155.595 231.088C156.959 231.088 157.935 231.934 157.935 233.159C157.935 234.394 156.959 235.241 155.595 235.241C154.231 235.241 153.245 234.394 153.245 233.159C153.245 231.934 154.231 231.088 155.595 231.088ZM155.595 231.775C154.699 231.775 154.051 232.343 154.051 233.159C154.051 233.976 154.699 234.544 155.595 234.544C156.491 234.544 157.139 233.976 157.139 233.159C157.139 232.343 156.491 231.775 155.595 231.775ZM168.75 230.659H169.577V239.663H168.75V230.659ZM162.775 231.536H163.591V237.113H162.775V231.536ZM162.775 236.625H163.512C164.876 236.625 166.3 236.525 167.824 236.207L167.924 236.914C166.36 237.233 164.936 237.342 163.512 237.342H162.775V236.625ZM177.454 230.649H178.29V239.673H177.454V230.649ZM178.091 234.205H179.764V234.902H178.091V234.205ZM171.747 236.735H172.454C174.118 236.735 175.283 236.675 176.627 236.426L176.717 237.123C175.333 237.382 174.147 237.432 172.454 237.432H171.747V236.735ZM171.747 231.526H175.93V232.203H172.564V237.043H171.747V231.526Z" fill="black" fill-opacity="0.64"/>
<rect x="65.4163" y="247.307" width="317.698" height="38.8408" rx="4.48163" fill="white" stroke="#5EDCC4" stroke-width="0.995918"/>
<path d="M89.5773 265.151C90.4975 265.151 91.2365 265.472 91.7942 266.113C92.3612 266.754 92.6447 267.721 92.6447 269.013C92.6447 269.859 92.5146 270.575 92.2543 271.16C92.0034 271.737 91.6455 272.173 91.1807 272.471C90.7253 272.759 90.1862 272.903 89.5634 272.903C89.1823 272.903 88.843 272.852 88.5455 272.75C88.2481 272.647 87.9925 272.517 87.7787 272.359C87.5742 272.192 87.3976 272.011 87.2489 271.816H87.1652C87.1838 271.974 87.2024 272.173 87.221 272.415C87.2396 272.657 87.2489 272.866 87.2489 273.043V276.11H86.0219V265.29H87.0258L87.1931 266.308H87.2489C87.3976 266.094 87.5742 265.899 87.7787 265.723C87.9925 265.546 88.2435 265.406 88.5316 265.304C88.8291 265.202 89.1776 265.151 89.5773 265.151ZM89.3542 266.183C88.8523 266.183 88.4479 266.28 88.1412 266.475C87.8345 266.661 87.6114 266.945 87.4719 267.326C87.3325 267.707 87.2582 268.19 87.2489 268.776V269.013C87.2489 269.627 87.3139 270.147 87.4441 270.575C87.5742 271.002 87.7926 271.328 88.0994 271.551C88.4154 271.774 88.843 271.885 89.3821 271.885C89.8376 271.885 90.2094 271.76 90.4975 271.509C90.795 271.258 91.0134 270.919 91.1529 270.491C91.3016 270.054 91.3759 269.557 91.3759 268.999C91.3759 268.144 91.2086 267.461 90.874 266.949C90.5487 266.438 90.0421 266.183 89.3542 266.183ZM95.827 265.29V272.764H94.6V265.29H95.827ZM95.2274 262.488C95.4133 262.488 95.576 262.553 95.7154 262.683C95.8642 262.804 95.9385 262.999 95.9385 263.269C95.9385 263.529 95.8642 263.724 95.7154 263.854C95.576 263.984 95.4133 264.049 95.2274 264.049C95.0229 264.049 94.851 263.984 94.7116 263.854C94.5721 263.724 94.5024 263.529 94.5024 263.269C94.5024 262.999 94.5721 262.804 94.7116 262.683C94.851 262.553 95.0229 262.488 95.2274 262.488ZM101.792 265.151C102.684 265.151 103.358 265.369 103.814 265.806C104.269 266.234 104.497 266.931 104.497 267.898V272.764H103.284V267.981C103.284 267.377 103.149 266.926 102.879 266.629C102.61 266.331 102.187 266.183 101.611 266.183C100.783 266.183 100.212 266.415 99.8957 266.88C99.5796 267.345 99.4216 268.014 99.4216 268.888V272.764H98.1947V265.29H99.1846L99.3659 266.308H99.4356C99.6029 266.048 99.8074 265.834 100.049 265.667C100.3 265.49 100.574 265.36 100.872 265.276C101.169 265.193 101.476 265.151 101.792 265.151ZM110.369 265.151C111.289 265.151 112.028 265.472 112.586 266.113C113.153 266.754 113.436 267.721 113.436 269.013C113.436 269.859 113.306 270.575 113.046 271.16C112.795 271.737 112.437 272.173 111.972 272.471C111.517 272.759 110.978 272.903 110.355 272.903C109.974 272.903 109.635 272.852 109.337 272.75C109.04 272.647 108.784 272.517 108.57 272.359C108.366 272.192 108.189 272.011 108.041 271.816H107.957C107.976 271.974 107.994 272.173 108.013 272.415C108.031 272.657 108.041 272.866 108.041 273.043V276.11H106.814V265.29H107.818L107.985 266.308H108.041C108.189 266.094 108.366 265.899 108.57 265.723C108.784 265.546 109.035 265.406 109.323 265.304C109.621 265.202 109.969 265.151 110.369 265.151ZM110.146 266.183C109.644 266.183 109.24 266.28 108.933 266.475C108.626 266.661 108.403 266.945 108.264 267.326C108.124 267.707 108.05 268.19 108.041 268.776V269.013C108.041 269.627 108.106 270.147 108.236 270.575C108.366 271.002 108.584 271.328 108.891 271.551C109.207 271.774 109.635 271.885 110.174 271.885C110.629 271.885 111.001 271.76 111.289 271.509C111.587 271.258 111.805 270.919 111.945 270.491C112.093 270.054 112.168 269.557 112.168 268.999C112.168 268.144 112 267.461 111.666 266.949C111.34 266.438 110.834 266.183 110.146 266.183ZM116.619 265.29V272.764H115.392V265.29H116.619ZM116.019 262.488C116.205 262.488 116.368 262.553 116.507 262.683C116.656 262.804 116.73 262.999 116.73 263.269C116.73 263.529 116.656 263.724 116.507 263.854C116.368 263.984 116.205 264.049 116.019 264.049C115.815 264.049 115.643 263.984 115.503 263.854C115.364 263.724 115.294 263.529 115.294 263.269C115.294 262.999 115.364 262.804 115.503 262.683C115.643 262.553 115.815 262.488 116.019 262.488ZM122.584 265.151C123.476 265.151 124.15 265.369 124.605 265.806C125.061 266.234 125.289 266.931 125.289 267.898V272.764H124.076V267.981C124.076 267.377 123.941 266.926 123.671 266.629C123.402 266.331 122.979 266.183 122.402 266.183C121.575 266.183 121.003 266.415 120.687 266.88C120.371 267.345 120.213 268.014 120.213 268.888V272.764H118.986V265.29H119.976L120.158 266.308H120.227C120.395 266.048 120.599 265.834 120.841 265.667C121.092 265.49 121.366 265.36 121.663 265.276C121.961 265.193 122.268 265.151 122.584 265.151ZM133.671 272.764H127.089V271.746L129.697 269.111C130.199 268.609 130.622 268.163 130.966 267.772C131.31 267.382 131.57 267.001 131.746 266.629C131.923 266.248 132.011 265.834 132.011 265.388C132.011 264.839 131.849 264.426 131.523 264.147C131.198 263.859 130.775 263.715 130.255 263.715C129.771 263.715 129.344 263.798 128.972 263.966C128.609 264.133 128.237 264.365 127.856 264.663L127.201 263.84C127.461 263.617 127.745 263.417 128.052 263.241C128.368 263.064 128.707 262.925 129.069 262.822C129.441 262.72 129.836 262.669 130.255 262.669C130.877 262.669 131.412 262.776 131.858 262.99C132.304 263.204 132.648 263.51 132.89 263.91C133.141 264.3 133.266 264.77 133.266 265.318C133.266 265.709 133.206 266.08 133.085 266.434C132.964 266.778 132.792 267.117 132.569 267.451C132.346 267.786 132.076 268.125 131.76 268.469C131.444 268.813 131.096 269.171 130.715 269.543L128.637 271.592V271.648H133.671V272.764ZM141.65 272.764H135.069V271.746L137.676 269.111C138.178 268.609 138.601 268.163 138.945 267.772C139.289 267.382 139.549 267.001 139.725 266.629C139.902 266.248 139.99 265.834 139.99 265.388C139.99 264.839 139.828 264.426 139.502 264.147C139.177 263.859 138.754 263.715 138.234 263.715C137.75 263.715 137.323 263.798 136.951 263.966C136.588 264.133 136.216 264.365 135.835 264.663L135.18 263.84C135.44 263.617 135.724 263.417 136.031 263.241C136.347 263.064 136.686 262.925 137.048 262.822C137.42 262.72 137.815 262.669 138.234 262.669C138.856 262.669 139.391 262.776 139.837 262.99C140.283 263.204 140.627 263.51 140.869 263.91C141.12 264.3 141.245 264.77 141.245 265.318C141.245 265.709 141.185 266.08 141.064 266.434C140.943 266.778 140.771 267.117 140.548 267.451C140.325 267.786 140.055 268.125 139.739 268.469C139.423 268.813 139.075 269.171 138.694 269.543L136.616 271.592V271.648H141.65V272.764ZM149.629 272.764H143.048V271.746L145.655 269.111C146.157 268.609 146.58 268.163 146.924 267.772C147.268 267.382 147.528 267.001 147.704 266.629C147.881 266.248 147.969 265.834 147.969 265.388C147.969 264.839 147.807 264.426 147.481 264.147C147.156 263.859 146.733 263.715 146.213 263.715C145.729 263.715 145.302 263.798 144.93 263.966C144.567 264.133 144.195 264.365 143.814 264.663L143.159 263.84C143.419 263.617 143.703 263.417 144.01 263.241C144.326 263.064 144.665 262.925 145.027 262.822C145.399 262.72 145.794 262.669 146.213 262.669C146.835 262.669 147.37 262.776 147.816 262.99C148.262 263.204 148.606 263.51 148.848 263.91C149.099 264.3 149.224 264.77 149.224 265.318C149.224 265.709 149.164 266.08 149.043 266.434C148.922 266.778 148.75 267.117 148.527 267.451C148.304 267.786 148.034 268.125 147.718 268.469C147.402 268.813 147.054 269.171 146.673 269.543L144.595 271.592V271.648H149.629V272.764ZM157.608 272.764H151.027V271.746L153.634 269.111C154.136 268.609 154.559 268.163 154.903 267.772C155.247 267.382 155.507 267.001 155.683 266.629C155.86 266.248 155.948 265.834 155.948 265.388C155.948 264.839 155.786 264.426 155.46 264.147C155.135 263.859 154.712 263.715 154.192 263.715C153.708 263.715 153.281 263.798 152.909 263.966C152.546 264.133 152.175 264.365 151.793 264.663L151.138 263.84C151.398 263.617 151.682 263.417 151.989 263.241C152.305 263.064 152.644 262.925 153.006 262.822C153.378 262.72 153.773 262.669 154.192 262.669C154.814 262.669 155.349 262.776 155.795 262.99C156.241 263.204 156.585 263.51 156.827 263.91C157.078 264.3 157.203 264.77 157.203 265.318C157.203 265.709 157.143 266.08 157.022 266.434C156.901 266.778 156.729 267.117 156.506 267.451C156.283 267.786 156.013 268.125 155.697 268.469C155.381 268.813 155.033 269.171 154.652 269.543L152.574 271.592V271.648H157.608V272.764Z" fill="black" fill-opacity="0.87"/>
<path d="M67.936 294.727C69.2805 294.727 70.2665 295.544 70.2665 296.729C70.2665 297.904 69.2805 298.721 67.936 298.721C66.6015 298.721 65.6155 297.904 65.6155 296.729C65.6155 295.544 66.6015 294.727 67.936 294.727ZM67.936 295.404C67.0696 295.404 66.4123 295.952 66.4123 296.729C66.4123 297.505 67.0696 298.043 67.936 298.043C68.8124 298.043 69.4598 297.505 69.4598 296.729C69.4598 295.952 68.8124 295.404 67.936 295.404ZM71.9595 294.398H72.7961V299.009H71.9595V294.398ZM66.97 299.448H72.7961V301.639H67.7966V302.993H66.9899V301.021H71.9794V300.115H66.97V299.448ZM66.9899 302.625H73.0949V303.282H66.9899V302.625ZM81.1212 294.398H81.9478V303.401H81.1212V294.398ZM77.0678 296.539H77.7351V297.306C77.7351 299.228 76.6495 300.971 75.2054 301.668L74.7374 301.031C76.0719 300.414 77.0678 298.88 77.0678 297.306V296.539ZM77.2272 296.539H77.8845V297.306C77.8845 298.81 78.9103 300.274 80.2547 300.862L79.7867 301.509C78.3326 300.852 77.2272 299.169 77.2272 297.306V296.539ZM74.9863 295.962H79.946V296.629H74.9863V295.962ZM77.0678 294.558H77.8944V296.33H77.0678V294.558ZM89.8347 294.398H90.6613V303.401H89.8347V294.398ZM90.4621 298.093H92.1353V298.79H90.4621V298.093ZM83.6899 295.832H88.9981V296.51H83.6899V295.832ZM86.3789 297.257C87.6536 297.257 88.5699 298.113 88.5699 299.328C88.5699 300.543 87.6536 301.4 86.3789 301.4C85.114 301.4 84.1878 300.543 84.1878 299.328C84.1878 298.113 85.114 297.257 86.3789 297.257ZM86.3789 297.944C85.5622 297.944 84.9746 298.511 84.9746 299.328C84.9746 300.135 85.5622 300.712 86.3789 300.712C87.1955 300.712 87.7831 300.135 87.7831 299.328C87.7831 298.511 87.1955 297.944 86.3789 297.944ZM85.9506 294.508H86.7772V296.141H85.9506V294.508ZM93.9969 297.097H100.112V297.774H93.9969V297.097ZM92.8914 298.979H101.058V299.657H92.8914V298.979ZM93.9969 294.727H94.8135V297.436H93.9969V294.727ZM93.9371 302.505H100.162V303.182H93.9371V302.505ZM93.9371 300.553H94.7538V302.684H93.9371V300.553ZM111.183 294.388H112.01V303.411H111.183V294.388ZM105.158 295.155H105.975V297.535H108.574V295.155H109.401V301.24H105.158V295.155ZM105.975 298.193V300.563H108.574V298.193H105.975ZM114.28 294.896H118.473V298.581H114.28V294.896ZM117.676 295.553H115.077V297.914H117.676V295.553ZM120.355 294.398H121.182V299.029H120.355V294.398ZM115.355 299.477H121.182V301.658H116.182V302.923H115.375V301.041H120.365V300.135H115.355V299.477ZM115.375 302.644H121.49V303.302H115.375V302.644ZM127.216 296.938H129.805V297.615H127.216V296.938ZM129.546 294.408H130.373V301.071H129.546V294.408ZM124.587 302.525H130.592V303.202H124.587V302.525ZM124.587 300.424H125.413V302.873H124.587V300.424ZM123.412 294.996H124.228V296.589H126.668V294.996H127.475V299.537H123.412V294.996ZM124.228 297.237V298.86H126.668V297.237H124.228ZM132.533 295.713H139.843V296.39H132.533V295.713ZM132.135 301.668H140.292V302.356H132.135V301.668ZM135.79 300.244H136.607V301.937H135.79V300.244ZM136.188 296.998C138.011 296.998 139.136 297.625 139.136 298.711C139.136 299.796 138.011 300.424 136.188 300.424C134.376 300.424 133.251 299.796 133.251 298.711C133.251 297.625 134.376 296.998 136.188 296.998ZM136.188 297.645C134.884 297.645 134.077 298.043 134.077 298.711C134.077 299.378 134.884 299.766 136.188 299.766C137.503 299.766 138.3 299.378 138.3 298.711C138.3 298.043 137.503 297.645 136.188 297.645ZM135.79 294.548H136.607V296.131H135.79V294.548ZM147.84 294.398H148.677V299.228H147.84V294.398ZM142.87 299.677H143.687V300.772H147.86V299.677H148.677V303.282H142.87V299.677ZM143.687 301.429V302.615H147.86V301.429H143.687ZM143.846 294.826C145.211 294.826 146.187 295.673 146.187 296.898C146.187 298.133 145.211 298.979 143.846 298.979C142.482 298.979 141.496 298.133 141.496 296.898C141.496 295.673 142.482 294.826 143.846 294.826ZM143.846 295.514C142.95 295.514 142.303 296.081 142.303 296.898C142.303 297.715 142.95 298.282 143.846 298.282C144.743 298.282 145.39 297.715 145.39 296.898C145.39 296.081 144.743 295.514 143.846 295.514ZM157.002 294.398H157.828V303.401H157.002V294.398ZM151.026 295.275H151.843V300.852H151.026V295.275ZM151.026 300.364H151.763C153.127 300.364 154.552 300.264 156.075 299.945L156.175 300.653C154.611 300.971 153.187 301.081 151.763 301.081H151.026V300.364ZM165.705 294.388H166.542V303.411H165.705V294.388ZM166.343 297.944H168.016V298.641H166.343V297.944ZM159.999 300.473H160.706C162.369 300.473 163.534 300.414 164.879 300.165L164.968 300.862C163.584 301.121 162.399 301.17 160.706 301.17H159.999V300.473ZM159.999 295.265H164.181V295.942H160.815V300.782H159.999V295.265Z" fill="black" fill-opacity="0.64"/>
</g>
</g>
<defs>
<filter id="filter0_d_991_6851" x="0.183672" y="0.816484" width="448.163" height="886.368" filterUnits="userSpaceOnUse" color-interpolation-filters="sRGB">
<feFlood flood-opacity="0" result="BackgroundImageFix"/>
<feColorMatrix in="SourceAlpha" type="matrix" values="0 0 0 0 0 0 0 0 0 0 0 0 0 0 0 0 0 0 127 0" result="hardAlpha"/>
<feMorphology radius="14.9388" operator="dilate" in="SourceAlpha" result="effect1_dropShadow_991_6851"/>
<feOffset/>
<feGaussianBlur stdDeviation="14.9388"/>
<feComposite in2="hardAlpha" operator="out"/>
<feColorMatrix type="matrix" values="0 0 0 0 0.502083 0 0 0 0 0.502083 0 0 0 0 0.502083 0 0 0 0.05 0"/>
<feBlend mode="normal" in2="BackgroundImageFix" result="effect1_dropShadow_991_6851"/>
<feBlend mode="normal" in="SourceGraphic" in2="effect1_dropShadow_991_6851" result="shape"/>
</filter>
<clipPath id="clip0_991_6851">
<rect x="45" y="45.6328" width="358.531" height="796.735" rx="19.9184" fill="white"/>
</clipPath>
<clipPath id="clip1_991_6851">
<rect width="15.9347" height="15.9347" fill="white" transform="translate(338.796 52.604)"/>
</clipPath>
</defs>
</svg>
