<svg width="521" height="256" viewBox="0 0 521 256" fill="none" xmlns="http://www.w3.org/2000/svg">
<g clip-path="url(#clip0_1093_7964)">
<path d="M187.776 172.243C193.531 145.212 185.749 120.649 170.394 117.38C155.039 114.11 137.926 133.373 132.171 160.403C126.415 187.434 134.197 211.997 149.552 215.266C164.907 218.536 182.02 199.273 187.776 172.243Z" fill="#59EACE"/>
<path d="M171.981 108.564C180.112 108.564 186.704 101.972 186.704 93.8412C186.704 85.7101 180.112 79.1186 171.981 79.1186C163.85 79.1186 157.258 85.7101 157.258 93.8412C157.258 101.972 163.85 108.564 171.981 108.564Z" fill="#59EACE"/>
<path d="M292.372 123.817C279.77 110.358 262.723 106.402 246.899 108.115C246.899 108.115 246.532 108.115 246.369 108.156C246.206 108.156 246.002 108.156 245.839 108.197C230.015 109.787 214.15 117.21 204.607 132.993C184.542 166.19 223.897 253.261 242.943 187.642C243.963 183.155 246.369 174.346 253.261 173.612C260.153 172.919 264.313 180.994 266.23 185.195C298.448 245.472 318.921 152.12 292.412 123.776L292.372 123.817Z" fill="#59EACE"/>
<path d="M400.936 136.989C391.596 123.49 377.078 117.781 362.967 117.251C362.967 117.251 362.64 117.251 362.477 117.251C362.314 117.251 362.151 117.251 361.988 117.251C347.877 116.598 332.91 121.043 322.469 133.686C300.447 160.317 323.734 242.087 349.06 186.826C350.528 182.992 353.831 175.57 359.949 175.815C366.107 176.1 368.717 183.767 369.859 187.723C390.373 244.982 420.552 165.497 400.936 137.071V136.989Z" fill="#59EACE"/>
<path d="M519.491 172.593C522.958 159.298 519.817 150.978 516.595 144.616C511.579 134.665 502.403 127.609 491.433 126.549C477.933 125.244 465.454 133.319 459.173 145.962C449.345 128.629 435.642 118.474 425.895 122.471C414.271 127.202 412.64 150.162 422.265 173.775C428.26 188.498 437.232 199.958 445.919 205.382C444.614 214.028 423.733 221.777 423.733 221.777C409.581 224.876 409.908 239.028 419.41 247.796C430.054 257.666 452.199 260.847 478.3 234.297C489.597 222.796 498.243 212.927 504.116 203.955C511.865 192.168 516.065 185.847 519.532 172.552L519.491 172.593Z" fill="#59EACE"/>
<path d="M95.9211 120.309C102.569 117.251 130.79 105.097 141.639 92.6179C154.2 78.1808 159.991 60.5218 155.872 43.393C148.082 10.726 107.096 -7.38152 64.3961 2.85496C25.6116 12.1942 -1.22343 41.7617 0.0408336 71.5332C-0.0407319 97.6341 5.54651 121.003 24.225 159.909C42.9443 198.775 88.5394 220.717 100.815 210.766C113.091 200.815 95.2686 177.446 84.4612 153.466C73.6537 129.486 95.9211 120.269 95.9211 120.269V120.309ZM59.9915 70.4728C57.5853 64.6409 63.9474 56.4843 74.2247 52.2021C84.502 47.9199 94.82 49.1842 97.2262 54.9754C99.6324 60.8073 93.2703 68.9638 82.993 73.246C72.7157 77.5282 62.3977 76.264 59.9915 70.4728Z" fill="#59EACE"/>
</g>
<defs>
<clipPath id="clip0_1093_7964">
<rect width="521" height="255.015" fill="white"/>
</clipPath>
</defs>
</svg>
