<svg width="320" height="70" viewBox="0 0 320 70" fill="none" xmlns="http://www.w3.org/2000/svg">
<rect x="0.35" y="0.35" width="319.3" height="69.3" rx="9.65" fill="white" stroke="#38D6B8" stroke-width="0.7"/>
<path d="M79.534 34.476V32.628H73.304V34.476H79.534ZM80.682 29.982V35.414H72.17V29.982H73.304V31.704H79.534V29.982H80.682ZM82.124 36.926V37.85H76.972V42.05H75.824V37.85H70.728V36.926H82.124ZM86.0709 31.438V35.512H92.4969V31.438H86.0709ZM89.8789 39.474H95.0029V40.426H83.6209V39.474H88.7169V36.422H84.9649V30.528H93.6169V36.422H89.8789V39.474ZM104.284 34.112L104.438 35.064C102.352 35.484 100.462 35.638 98.2918 35.638H97.2698V30.206H98.4178V34.672C100.476 34.672 102.31 34.518 104.284 34.112ZM99.7898 38.102V40.93H105.67V38.102H99.7898ZM98.6698 41.854V37.192H106.79V41.854H98.6698ZM105.642 29.464H106.79V36.59H105.642V29.464ZM118.685 41.14C120.645 41.14 121.821 40.65 121.821 39.796C121.821 38.942 120.645 38.452 118.685 38.452C116.711 38.452 115.549 38.942 115.549 39.796C115.549 40.65 116.711 41.14 118.685 41.14ZM118.685 37.556C121.387 37.556 122.983 38.354 122.983 39.796C122.983 41.238 121.387 42.022 118.685 42.022C115.997 42.022 114.387 41.238 114.387 39.796C114.387 38.354 115.997 37.556 118.685 37.556ZM116.949 34.224V35.694H120.435V34.224C119.917 34.308 119.329 34.364 118.685 34.364C118.055 34.364 117.467 34.308 116.949 34.224ZM115.451 32.04C115.451 32.936 116.683 33.482 118.685 33.482C120.687 33.482 121.919 32.936 121.919 32.04C121.919 31.13 120.687 30.598 118.685 30.598C116.683 30.598 115.451 31.13 115.451 32.04ZM121.569 35.694H124.369V36.618H113.001V35.694H115.815V33.93C114.821 33.524 114.275 32.894 114.275 32.04C114.275 30.57 115.969 29.702 118.685 29.702C121.415 29.702 123.095 30.57 123.095 32.04C123.095 32.88 122.535 33.524 121.569 33.916V35.694ZM128.498 38.144V40.818H136.058V41.756H127.35V38.144H128.498ZM132.152 36.086H137.262V37.01H125.894V36.086H131.004V34.448H127.322V30.122H135.848V31.046H128.47V33.51H135.96V34.448H132.152V36.086ZM152.476 35.498V36.436H143.852V30.626H152.35V31.578H144.986V35.498H152.476ZM142.396 39.39H153.792V40.342H142.396V39.39ZM157.165 35.12V38.06C159.223 38.06 161.071 37.962 163.269 37.612L163.381 38.55C161.113 38.928 159.209 39.012 157.053 39.012H156.017V34.196H160.637V31.578H155.975V30.64H161.799V35.12H157.165ZM164.445 29.464H165.593V42.05H164.445V29.464ZM168.91 30.836H174.79C174.79 34.462 173.124 37.654 168.952 39.698L168.336 38.76C171.71 37.15 173.39 34.742 173.628 31.76H168.91V30.836ZM177.324 29.478H178.472V42.036H177.324V29.478Z" fill="black" fill-opacity="0.87"/>
<circle cx="293" cy="35" r="12" fill="#38D6B8"/>
<path d="M300.347 31.6592L291.347 40.6592C291.269 40.7379 291.175 40.8003 291.073 40.8429C290.97 40.8855 290.86 40.9074 290.749 40.9074C290.638 40.9074 290.528 40.8855 290.426 40.8429C290.323 40.8003 290.23 40.7379 290.152 40.6592L286.214 36.7217C286.136 36.6433 286.073 36.5501 286.031 36.4475C285.988 36.345 285.967 36.2351 285.967 36.1241C285.967 36.0131 285.988 35.9032 286.031 35.8006C286.073 35.6981 286.136 35.6049 286.214 35.5264C286.293 35.4479 286.386 35.3857 286.488 35.3432C286.591 35.3007 286.701 35.2789 286.812 35.2789C286.923 35.2789 287.033 35.3007 287.135 35.3432C287.238 35.3857 287.331 35.4479 287.409 35.5264L290.75 38.867L299.153 30.4653C299.312 30.3068 299.527 30.2178 299.751 30.2178C299.975 30.2178 300.19 30.3068 300.348 30.4653C300.507 30.6238 300.596 30.8388 300.596 31.063C300.596 31.2872 300.507 31.5021 300.348 31.6606L300.347 31.6592Z" fill="white"/>
<rect x="15" y="15" width="40" height="40" rx="20" fill="#A9E9DD"/>
<path d="M47.0879 38.4598L47.5893 40.0811C46.6756 40.4934 45.7284 40.6995 44.7479 40.6995C43.355 40.6995 42.2352 40.2928 41.3883 39.4794C40.5414 38.666 40.118 37.5684 40.118 36.1867C40.118 34.7715 40.5247 33.6684 41.3382 32.8773C42.1627 32.075 43.2993 31.6738 44.7479 31.6738C45.7284 31.6738 46.6756 31.88 47.5893 32.2923L47.0879 33.947C46.3859 33.5458 45.6393 33.3453 44.8482 33.3453C44.057 33.3453 43.4386 33.5904 42.9929 34.0807C42.5583 34.571 42.341 35.273 42.341 36.1867C42.341 37.0781 42.5694 37.7801 43.0263 38.2927C43.4943 38.8053 44.1016 39.0615 44.8482 39.0615C45.6504 39.0615 46.397 38.861 47.0879 38.4598Z" fill="white"/>
<path d="M35.5644 32.1757H38.5563V33.797H35.5644V37.3571C35.5644 38.0146 35.648 38.4603 35.8151 38.6943C35.9823 38.9171 36.2831 39.0286 36.7177 39.0286C37.2526 39.0286 37.754 38.9339 38.222 38.7444L38.5061 40.3657C37.8153 40.5886 37.0687 40.7 36.2664 40.7C35.2413 40.7 34.4947 40.4716 34.0267 40.0147C33.5699 39.5579 33.3414 38.8001 33.3414 37.7416V33.797H31.5363V32.1757H33.3414V29H35.5644V32.1757Z" fill="white"/>
<path d="M24.1729 35.4847H28.2511C28.24 34.7604 28.0561 34.2088 27.6996 33.83C27.3541 33.44 26.8639 33.245 26.2287 33.245C25.6159 33.245 25.1256 33.44 24.7579 33.83C24.4013 34.22 24.2063 34.7715 24.1729 35.4847ZM24.1729 36.9723C24.2286 37.6297 24.4793 38.1534 24.925 38.5434C25.3819 38.9223 25.9557 39.1117 26.6466 39.1117C27.4711 39.1117 28.2901 38.9055 29.1036 38.4933L29.605 40.031C28.6021 40.4767 27.5436 40.6995 26.4293 40.6995C25.1144 40.6995 24.0447 40.2928 23.2201 39.4794C22.4067 38.666 22 37.5684 22 36.1867C22 34.7827 22.3789 33.6795 23.1366 32.8773C23.8943 32.075 24.9194 31.6738 26.212 31.6738C27.5046 31.6738 28.5074 32.0583 29.2206 32.8271C29.9449 33.596 30.307 34.6991 30.307 36.1365C30.307 36.4151 30.2903 36.6937 30.2569 36.9723H24.1729Z" fill="white"/>
</svg>
