<svg width="138" height="221" viewBox="0 0 138 221" fill="none" xmlns="http://www.w3.org/2000/svg">
<path d="M57.5 2H59C59 1.17157 58.3284 0.5 57.5 0.5V2ZM57.5 212.5H56C56 213.328 56.6716 214 57.5 214V212.5ZM122 212.5C122 216.918 125.582 220.5 130 220.5C134.418 220.5 138 216.918 138 212.5C138 208.082 134.418 204.5 130 204.5C125.582 204.5 122 208.082 122 212.5ZM3.59375 3.5C4.42218 3.5 5.09375 2.82843 5.09375 2C5.09375 1.17157 4.42218 0.5 3.59375 0.5V3.5ZM10.7812 0.5C9.95282 0.5 9.28125 1.17157 9.28125 2C9.28125 2.82843 9.95282 3.5 10.7812 3.5V0.5ZM17.9688 3.5C18.7972 3.5 19.4688 2.82843 19.4688 2C19.4688 1.17157 18.7972 0.5 17.9688 0.5V3.5ZM25.1562 0.5C24.3278 0.5 23.6562 1.17157 23.6562 2C23.6562 2.82843 24.3278 3.5 25.1562 3.5V0.5ZM32.3438 3.5C33.1722 3.5 33.8438 2.82843 33.8438 2C33.8438 1.17157 33.1722 0.5 32.3438 0.5V3.5ZM39.5312 0.5C38.7028 0.5 38.0312 1.17157 38.0312 2C38.0312 2.82843 38.7028 3.5 39.5312 3.5V0.5ZM46.7188 3.5C47.5472 3.5 48.2188 2.82843 48.2188 2C48.2188 1.17157 47.5472 0.5 46.7188 0.5V3.5ZM53.9062 0.5C53.0778 0.5 52.4062 1.17157 52.4062 2C52.4062 2.82843 53.0778 3.5 53.9062 3.5V0.5ZM56 5.50833C56 6.33676 56.6716 7.00833 57.5 7.00833C58.3284 7.00833 59 6.33676 59 5.50833H56ZM59 12.525C59 11.6966 58.3284 11.025 57.5 11.025C56.6716 11.025 56 11.6966 56 12.525H59ZM56 19.5417C56 20.3701 56.6716 21.0417 57.5 21.0417C58.3284 21.0417 59 20.3701 59 19.5417H56ZM59 26.5583C59 25.7299 58.3284 25.0583 57.5 25.0583C56.6716 25.0583 56 25.7299 56 26.5583H59ZM56 33.575C56 34.4034 56.6716 35.075 57.5 35.075C58.3284 35.075 59 34.4034 59 33.575H56ZM59 40.5917C59 39.7632 58.3284 39.0917 57.5 39.0917C56.6716 39.0917 56 39.7632 56 40.5917H59ZM56 47.6083C56 48.4368 56.6716 49.1083 57.5 49.1083C58.3284 49.1083 59 48.4368 59 47.6083H56ZM59 54.625C59 53.7966 58.3284 53.125 57.5 53.125C56.6716 53.125 56 53.7966 56 54.625H59ZM56 61.6417C56 62.4701 56.6716 63.1417 57.5 63.1417C58.3284 63.1417 59 62.4701 59 61.6417H56ZM59 68.6583C59 67.8299 58.3284 67.1583 57.5 67.1583C56.6716 67.1583 56 67.8299 56 68.6583H59ZM56 75.675C56 76.5034 56.6716 77.175 57.5 77.175C58.3284 77.175 59 76.5034 59 75.675H56ZM59 82.6917C59 81.8632 58.3284 81.1917 57.5 81.1917C56.6716 81.1917 56 81.8632 56 82.6917H59ZM56 89.7083C56 90.5368 56.6716 91.2083 57.5 91.2083C58.3284 91.2083 59 90.5368 59 89.7083H56ZM59 96.725C59 95.8966 58.3284 95.225 57.5 95.225C56.6716 95.225 56 95.8966 56 96.725H59ZM56 103.742C56 104.57 56.6716 105.242 57.5 105.242C58.3284 105.242 59 104.57 59 103.742H56ZM59 110.758C59 109.93 58.3284 109.258 57.5 109.258C56.6716 109.258 56 109.93 56 110.758H59ZM56 117.775C56 118.603 56.6716 119.275 57.5 119.275C58.3284 119.275 59 118.603 59 117.775H56ZM59 124.792C59 123.963 58.3284 123.292 57.5 123.292C56.6716 123.292 56 123.963 56 124.792H59ZM56 131.808C56 132.637 56.6716 133.308 57.5 133.308C58.3284 133.308 59 132.637 59 131.808H56ZM59 138.825C59 137.997 58.3284 137.325 57.5 137.325C56.6716 137.325 56 137.997 56 138.825H59ZM56 145.842C56 146.67 56.6716 147.342 57.5 147.342C58.3284 147.342 59 146.67 59 145.842H56ZM59 152.858C59 152.03 58.3284 151.358 57.5 151.358C56.6716 151.358 56 152.03 56 152.858H59ZM56 159.875C56 160.703 56.6716 161.375 57.5 161.375C58.3284 161.375 59 160.703 59 159.875H56ZM59 166.892C59 166.063 58.3284 165.392 57.5 165.392C56.6716 165.392 56 166.063 56 166.892H59ZM56 173.908C56 174.737 56.6716 175.408 57.5 175.408C58.3284 175.408 59 174.737 59 173.908H56ZM59 180.925C59 180.097 58.3284 179.425 57.5 179.425C56.6716 179.425 56 180.097 56 180.925H59ZM56 187.942C56 188.77 56.6716 189.442 57.5 189.442C58.3284 189.442 59 188.77 59 187.942H56ZM59 194.958C59 194.13 58.3284 193.458 57.5 193.458C56.6716 193.458 56 194.13 56 194.958H59ZM56 201.975C56 202.803 56.6716 203.475 57.5 203.475C58.3284 203.475 59 202.803 59 201.975H56ZM59 208.992C59 208.163 58.3284 207.492 57.5 207.492C56.6716 207.492 56 208.163 56 208.992H59ZM61.125 214C61.9534 214 62.625 213.328 62.625 212.5C62.625 211.672 61.9534 211 61.125 211V214ZM68.375 211C67.5466 211 66.875 211.672 66.875 212.5C66.875 213.328 67.5466 214 68.375 214V211ZM75.625 214C76.4534 214 77.125 213.328 77.125 212.5C77.125 211.672 76.4534 211 75.625 211V214ZM82.875 211C82.0466 211 81.375 211.672 81.375 212.5C81.375 213.328 82.0466 214 82.875 214V211ZM90.125 214C90.9534 214 91.625 213.328 91.625 212.5C91.625 211.672 90.9534 211 90.125 211V214ZM97.375 211C96.5466 211 95.875 211.672 95.875 212.5C95.875 213.328 96.5466 214 97.375 214V211ZM104.625 214C105.453 214 106.125 213.328 106.125 212.5C106.125 211.672 105.453 211 104.625 211V214ZM111.875 211C111.047 211 110.375 211.672 110.375 212.5C110.375 213.328 111.047 214 111.875 214V211ZM119.125 214C119.953 214 120.625 213.328 120.625 212.5C120.625 211.672 119.953 211 119.125 211V214ZM126.375 211C125.547 211 124.875 211.672 124.875 212.5C124.875 213.328 125.547 214 126.375 214V211ZM0 3.5H3.59375V0.5H0V3.5ZM10.7812 3.5H17.9688V0.5H10.7812V3.5ZM25.1562 3.5H32.3438V0.5H25.1562V3.5ZM39.5312 3.5H46.7188V0.5H39.5312V3.5ZM53.9062 3.5H57.5V0.5H53.9062V3.5ZM56 2V5.50833H59V2H56ZM56 12.525V19.5417H59V12.525H56ZM56 26.5583V33.575H59V26.5583H56ZM56 40.5917V47.6083H59V40.5917H56ZM56 54.625V61.6417H59V54.625H56ZM56 68.6583V75.675H59V68.6583H56ZM56 82.6917V89.7083H59V82.6917H56ZM56 96.725V103.742H59V96.725H56ZM56 110.758V117.775H59V110.758H56ZM56 124.792V131.808H59V124.792H56ZM56 138.825V145.842H59V138.825H56ZM56 152.858V159.875H59V152.858H56ZM56 166.892V173.908H59V166.892H56ZM56 180.925V187.942H59V180.925H56ZM56 194.958V201.975H59V194.958H56ZM56 208.992V212.5H59V208.992H56ZM57.5 214H61.125V211H57.5V214ZM68.375 214H75.625V211H68.375V214ZM82.875 214H90.125V211H82.875V214ZM97.375 214H104.625V211H97.375V214ZM111.875 214H119.125V211H111.875V214ZM126.375 214H130V211H126.375V214Z" fill="#22806E"/>
</svg>
