<svg width="139" height="17" viewBox="0 0 139 17" fill="none" xmlns="http://www.w3.org/2000/svg">
<path d="M122.5 8.5C122.5 12.9183 126.082 16.5 130.5 16.5C134.918 16.5 138.5 12.9183 138.5 8.5C138.5 4.08172 134.918 0.5 130.5 0.5C126.082 0.5 122.5 4.08172 122.5 8.5ZM4.07812 10C4.90655 10 5.57812 9.32843 5.57812 8.5C5.57812 7.67157 4.90655 7 4.07812 7V10ZM12.2344 7C11.4059 7 10.7344 7.67157 10.7344 8.5C10.7344 9.32843 11.4059 10 12.2344 10V7ZM20.3906 10C21.2191 10 21.8906 9.32843 21.8906 8.5C21.8906 7.67157 21.2191 7 20.3906 7V10ZM28.5469 7C27.7184 7 27.0469 7.67157 27.0469 8.5C27.0469 9.32843 27.7184 10 28.5469 10V7ZM36.7031 10C37.5316 10 38.2031 9.32843 38.2031 8.5C38.2031 7.67157 37.5316 7 36.7031 7V10ZM44.8594 7C44.0309 7 43.3594 7.67157 43.3594 8.5C43.3594 9.32843 44.0309 10 44.8594 10V7ZM53.0156 10C53.8441 10 54.5156 9.32843 54.5156 8.5C54.5156 7.67157 53.8441 7 53.0156 7V10ZM61.1719 7C60.3434 7 59.6719 7.67157 59.6719 8.5C59.6719 9.32843 60.3434 10 61.1719 10V7ZM69.3281 10C70.1566 10 70.8281 9.32843 70.8281 8.5C70.8281 7.67157 70.1566 7 69.3281 7V10ZM77.4844 7C76.6559 7 75.9844 7.67157 75.9844 8.5C75.9844 9.32843 76.6559 10 77.4844 10V7ZM85.6406 10C86.4691 10 87.1406 9.32843 87.1406 8.5C87.1406 7.67157 86.4691 7 85.6406 7V10ZM93.7969 7C92.9684 7 92.2969 7.67157 92.2969 8.5C92.2969 9.32843 92.9684 10 93.7969 10V7ZM101.953 10C102.782 10 103.453 9.32843 103.453 8.5C103.453 7.67157 102.782 7 101.953 7V10ZM110.109 7C109.281 7 108.609 7.67157 108.609 8.5C108.609 9.32843 109.281 10 110.109 10V7ZM118.266 10C119.094 10 119.766 9.32843 119.766 8.5C119.766 7.67157 119.094 7 118.266 7V10ZM126.422 7C125.593 7 124.922 7.67157 124.922 8.5C124.922 9.32843 125.593 10 126.422 10V7ZM0 10H4.07812V7H0V10ZM12.2344 10H20.3906V7H12.2344V10ZM28.5469 10H36.7031V7H28.5469V10ZM44.8594 10H53.0156V7H44.8594V10ZM61.1719 10H69.3281V7H61.1719V10ZM77.4844 10H85.6406V7H77.4844V10ZM93.7969 10H101.953V7H93.7969V10ZM110.109 10H118.266V7H110.109V10ZM126.422 10H130.5V7H126.422V10Z" fill="#22806E"/>
</svg>
