<svg width="385" height="342" viewBox="0 0 385 342" fill="none" xmlns="http://www.w3.org/2000/svg">
<path d="M383 16.5V18H384.5V16.5H383ZM71 16.5V15H69.5V16.5H71ZM71 334V335.5H72.5V334H71ZM0 334C0 338.418 3.58172 342 8 342C12.4183 342 16 338.418 16 334C16 329.582 12.4183 326 8 326C3.58172 326 0 329.582 0 334ZM11.15 335.5C11.9784 335.5 12.65 334.828 12.65 334C12.65 333.172 11.9784 332.5 11.15 332.5V335.5ZM17.45 332.5C16.6216 332.5 15.95 333.172 15.95 334C15.95 334.828 16.6216 335.5 17.45 335.5V332.5ZM23.75 335.5C24.5784 335.5 25.25 334.828 25.25 334C25.25 333.172 24.5784 332.5 23.75 332.5V335.5ZM30.05 332.5C29.2216 332.5 28.55 333.172 28.55 334C28.55 334.828 29.2216 335.5 30.05 335.5V332.5ZM36.35 335.5C37.1784 335.5 37.85 334.828 37.85 334C37.85 333.172 37.1784 332.5 36.35 332.5V335.5ZM42.65 332.5C41.8216 332.5 41.15 333.172 41.15 334C41.15 334.828 41.8216 335.5 42.65 335.5V332.5ZM48.95 335.5C49.7784 335.5 50.45 334.828 50.45 334C50.45 333.172 49.7784 332.5 48.95 332.5V335.5ZM55.25 332.5C54.4216 332.5 53.75 333.172 53.75 334C53.75 334.828 54.4216 335.5 55.25 335.5V332.5ZM61.55 335.5C62.3784 335.5 63.05 334.828 63.05 334C63.05 333.172 62.3784 332.5 61.55 332.5V335.5ZM67.85 332.5C67.0216 332.5 66.35 333.172 66.35 334C66.35 334.828 67.0216 335.5 67.85 335.5V332.5ZM72.5 330.549C72.5 329.72 71.8284 329.049 71 329.049C70.1716 329.049 69.5 329.72 69.5 330.549H72.5ZM69.5 323.647C69.5 324.475 70.1716 325.147 71 325.147C71.8284 325.147 72.5 324.475 72.5 323.647H69.5ZM72.5 316.745C72.5 315.916 71.8284 315.245 71 315.245C70.1716 315.245 69.5 315.916 69.5 316.745H72.5ZM69.5 309.842C69.5 310.671 70.1716 311.342 71 311.342C71.8284 311.342 72.5 310.671 72.5 309.842H69.5ZM72.5 302.94C72.5 302.112 71.8284 301.44 71 301.44C70.1716 301.44 69.5 302.112 69.5 302.94H72.5ZM69.5 296.038C69.5 296.866 70.1716 297.538 71 297.538C71.8284 297.538 72.5 296.866 72.5 296.038H69.5ZM72.5 289.136C72.5 288.307 71.8284 287.636 71 287.636C70.1716 287.636 69.5 288.307 69.5 289.136H72.5ZM69.5 282.234C69.5 283.062 70.1716 283.734 71 283.734C71.8284 283.734 72.5 283.062 72.5 282.234H69.5ZM72.5 275.332C72.5 274.503 71.8284 273.832 71 273.832C70.1716 273.832 69.5 274.503 69.5 275.332H72.5ZM69.5 268.429C69.5 269.258 70.1716 269.929 71 269.929C71.8284 269.929 72.5 269.258 72.5 268.429H69.5ZM72.5 261.527C72.5 260.699 71.8284 260.027 71 260.027C70.1716 260.027 69.5 260.699 69.5 261.527H72.5ZM69.5 254.625C69.5 255.453 70.1716 256.125 71 256.125C71.8284 256.125 72.5 255.453 72.5 254.625H69.5ZM72.5 247.723C72.5 246.894 71.8284 246.223 71 246.223C70.1716 246.223 69.5 246.894 69.5 247.723H72.5ZM69.5 240.821C69.5 241.649 70.1716 242.321 71 242.321C71.8284 242.321 72.5 241.649 72.5 240.821H69.5ZM72.5 233.918C72.5 233.09 71.8284 232.418 71 232.418C70.1716 232.418 69.5 233.09 69.5 233.918H72.5ZM69.5 227.016C69.5 227.845 70.1716 228.516 71 228.516C71.8284 228.516 72.5 227.845 72.5 227.016H69.5ZM72.5 220.114C72.5 219.286 71.8284 218.614 71 218.614C70.1716 218.614 69.5 219.286 69.5 220.114H72.5ZM69.5 213.212C69.5 214.04 70.1716 214.712 71 214.712C71.8284 214.712 72.5 214.04 72.5 213.212H69.5ZM72.5 206.31C72.5 205.481 71.8284 204.81 71 204.81C70.1716 204.81 69.5 205.481 69.5 206.31H72.5ZM69.5 199.408C69.5 200.236 70.1716 200.908 71 200.908C71.8284 200.908 72.5 200.236 72.5 199.408H69.5ZM72.5 192.505C72.5 191.677 71.8284 191.005 71 191.005C70.1716 191.005 69.5 191.677 69.5 192.505H72.5ZM69.5 185.603C69.5 186.432 70.1716 187.103 71 187.103C71.8284 187.103 72.5 186.432 72.5 185.603H69.5ZM72.5 178.701C72.5 177.873 71.8284 177.201 71 177.201C70.1716 177.201 69.5 177.873 69.5 178.701H72.5ZM69.5 171.799C69.5 172.627 70.1716 173.299 71 173.299C71.8284 173.299 72.5 172.627 72.5 171.799H69.5ZM72.5 164.897C72.5 164.068 71.8284 163.397 71 163.397C70.1716 163.397 69.5 164.068 69.5 164.897H72.5ZM69.5 157.995C69.5 158.823 70.1716 159.495 71 159.495C71.8284 159.495 72.5 158.823 72.5 157.995H69.5ZM72.5 151.092C72.5 150.264 71.8284 149.592 71 149.592C70.1716 149.592 69.5 150.264 69.5 151.092H72.5ZM69.5 144.19C69.5 145.019 70.1716 145.69 71 145.69C71.8284 145.69 72.5 145.019 72.5 144.19H69.5ZM72.5 137.288C72.5 136.46 71.8284 135.788 71 135.788C70.1716 135.788 69.5 136.46 69.5 137.288H72.5ZM69.5 130.386C69.5 131.214 70.1716 131.886 71 131.886C71.8284 131.886 72.5 131.214 72.5 130.386H69.5ZM72.5 123.484C72.5 122.655 71.8284 121.984 71 121.984C70.1716 121.984 69.5 122.655 69.5 123.484H72.5ZM69.5 116.581C69.5 117.41 70.1716 118.081 71 118.081C71.8284 118.081 72.5 117.41 72.5 116.581H69.5ZM72.5 109.679C72.5 108.851 71.8284 108.179 71 108.179C70.1716 108.179 69.5 108.851 69.5 109.679H72.5ZM69.5 102.777C69.5 103.606 70.1716 104.277 71 104.277C71.8284 104.277 72.5 103.606 72.5 102.777H69.5ZM72.5 95.8749C72.5 95.0465 71.8284 94.3749 71 94.3749C70.1716 94.3749 69.5 95.0465 69.5 95.8749H72.5ZM69.5 88.9728C69.5 89.8012 70.1716 90.4728 71 90.4728C71.8284 90.4728 72.5 89.8012 72.5 88.9728H69.5ZM72.5 82.0706C72.5 81.2421 71.8284 80.5706 71 80.5706C70.1716 80.5706 69.5 81.2421 69.5 82.0706H72.5ZM69.5 75.1684C69.5 75.9969 70.1716 76.6684 71 76.6684C71.8284 76.6684 72.5 75.9969 72.5 75.1684H69.5ZM72.5 68.2663C72.5 67.4378 71.8284 66.7663 71 66.7663C70.1716 66.7663 69.5 67.4378 69.5 68.2663H72.5ZM69.5 61.3641C69.5 62.1925 70.1716 62.8641 71 62.8641C71.8284 62.8641 72.5 62.1925 72.5 61.3641H69.5ZM72.5 54.4619C72.5 53.6335 71.8284 52.9619 71 52.9619C70.1716 52.9619 69.5 53.6335 69.5 54.4619H72.5ZM69.5 47.5598C69.5 48.3882 70.1716 49.0598 71 49.0598C71.8284 49.0598 72.5 48.3882 72.5 47.5598H69.5ZM72.5 40.6576C72.5 39.8292 71.8284 39.1576 71 39.1576C70.1716 39.1576 69.5 39.8292 69.5 40.6576H72.5ZM69.5 33.7555C69.5 34.5839 70.1716 35.2555 71 35.2555C71.8284 35.2555 72.5 34.5839 72.5 33.7555H69.5ZM72.5 26.8533C72.5 26.0249 71.8284 25.3533 71 25.3533C70.1716 25.3533 69.5 26.0249 69.5 26.8533H72.5ZM69.5 19.9511C69.5 20.7796 70.1716 21.4511 71 21.4511C71.8284 21.4511 72.5 20.7796 72.5 19.9511H69.5ZM74.5455 18C75.3739 18 76.0455 17.3284 76.0455 16.5C76.0455 15.6716 75.3739 15 74.5455 15V18ZM81.6364 15C80.8079 15 80.1364 15.6716 80.1364 16.5C80.1364 17.3284 80.8079 18 81.6364 18V15ZM88.7273 18C89.5557 18 90.2273 17.3284 90.2273 16.5C90.2273 15.6716 89.5557 15 88.7273 15V18ZM95.8182 15C94.9898 15 94.3182 15.6716 94.3182 16.5C94.3182 17.3284 94.9898 18 95.8182 18V15ZM102.909 18C103.738 18 104.409 17.3284 104.409 16.5C104.409 15.6716 103.738 15 102.909 15V18ZM110 15C109.172 15 108.5 15.6716 108.5 16.5C108.5 17.3284 109.172 18 110 18V15ZM117.091 18C117.919 18 118.591 17.3284 118.591 16.5C118.591 15.6716 117.919 15 117.091 15V18ZM124.182 15C123.353 15 122.682 15.6716 122.682 16.5C122.682 17.3284 123.353 18 124.182 18V15ZM131.273 18C132.101 18 132.773 17.3284 132.773 16.5C132.773 15.6716 132.101 15 131.273 15V18ZM138.364 15C137.535 15 136.864 15.6716 136.864 16.5C136.864 17.3284 137.535 18 138.364 18V15ZM145.455 18C146.283 18 146.955 17.3284 146.955 16.5C146.955 15.6716 146.283 15 145.455 15V18ZM152.545 15C151.717 15 151.045 15.6716 151.045 16.5C151.045 17.3284 151.717 18 152.545 18V15ZM159.636 18C160.465 18 161.136 17.3284 161.136 16.5C161.136 15.6716 160.465 15 159.636 15V18ZM166.727 15C165.899 15 165.227 15.6716 165.227 16.5C165.227 17.3284 165.899 18 166.727 18V15ZM173.818 18C174.647 18 175.318 17.3284 175.318 16.5C175.318 15.6716 174.647 15 173.818 15V18ZM180.909 15C180.081 15 179.409 15.6716 179.409 16.5C179.409 17.3284 180.081 18 180.909 18V15ZM188 18C188.828 18 189.5 17.3284 189.5 16.5C189.5 15.6716 188.828 15 188 15V18ZM195.091 15C194.262 15 193.591 15.6716 193.591 16.5C193.591 17.3284 194.262 18 195.091 18V15ZM202.182 18C203.01 18 203.682 17.3284 203.682 16.5C203.682 15.6716 203.01 15 202.182 15V18ZM209.273 15C208.444 15 207.773 15.6716 207.773 16.5C207.773 17.3284 208.444 18 209.273 18V15ZM216.364 18C217.192 18 217.864 17.3284 217.864 16.5C217.864 15.6716 217.192 15 216.364 15V18ZM223.455 15C222.626 15 221.955 15.6716 221.955 16.5C221.955 17.3284 222.626 18 223.455 18V15ZM230.545 18C231.374 18 232.045 17.3284 232.045 16.5C232.045 15.6716 231.374 15 230.545 15V18ZM237.636 15C236.808 15 236.136 15.6716 236.136 16.5C236.136 17.3284 236.808 18 237.636 18V15ZM244.727 18C245.556 18 246.227 17.3284 246.227 16.5C246.227 15.6716 245.556 15 244.727 15V18ZM251.818 15C250.99 15 250.318 15.6716 250.318 16.5C250.318 17.3284 250.99 18 251.818 18V15ZM258.909 18C259.738 18 260.409 17.3284 260.409 16.5C260.409 15.6716 259.738 15 258.909 15V18ZM266 15C265.172 15 264.5 15.6716 264.5 16.5C264.5 17.3284 265.172 18 266 18V15ZM273.091 18C273.919 18 274.591 17.3284 274.591 16.5C274.591 15.6716 273.919 15 273.091 15V18ZM280.182 15C279.353 15 278.682 15.6716 278.682 16.5C278.682 17.3284 279.353 18 280.182 18V15ZM287.273 18C288.101 18 288.773 17.3284 288.773 16.5C288.773 15.6716 288.101 15 287.273 15V18ZM294.364 15C293.535 15 292.864 15.6716 292.864 16.5C292.864 17.3284 293.535 18 294.364 18V15ZM301.455 18C302.283 18 302.955 17.3284 302.955 16.5C302.955 15.6716 302.283 15 301.455 15V18ZM308.546 15C307.717 15 307.046 15.6716 307.046 16.5C307.046 17.3284 307.717 18 308.546 18V15ZM315.636 18C316.465 18 317.136 17.3284 317.136 16.5C317.136 15.6716 316.465 15 315.636 15V18ZM322.727 15C321.899 15 321.227 15.6716 321.227 16.5C321.227 17.3284 321.899 18 322.727 18V15ZM329.818 18C330.647 18 331.318 17.3284 331.318 16.5C331.318 15.6716 330.647 15 329.818 15V18ZM336.909 15C336.081 15 335.409 15.6716 335.409 16.5C335.409 17.3284 336.081 18 336.909 18V15ZM344 18C344.828 18 345.5 17.3284 345.5 16.5C345.5 15.6716 344.828 15 344 15V18ZM351.091 15C350.263 15 349.591 15.6716 349.591 16.5C349.591 17.3284 350.263 18 351.091 18V15ZM358.182 18C359.01 18 359.682 17.3284 359.682 16.5C359.682 15.6716 359.01 15 358.182 15V18ZM365.273 15C364.444 15 363.773 15.6716 363.773 16.5C363.773 17.3284 364.444 18 365.273 18V15ZM372.364 18C373.192 18 373.864 17.3284 373.864 16.5C373.864 15.6716 373.192 15 372.364 15V18ZM379.455 15C378.626 15 377.955 15.6716 377.955 16.5C377.955 17.3284 378.626 18 379.455 18V15ZM384.5 12.5C384.5 11.6716 383.828 11 383 11C382.172 11 381.5 11.6716 381.5 12.5H384.5ZM381.5 4.5C381.5 5.32843 382.172 6 383 6C383.828 6 384.5 5.32843 384.5 4.5H381.5ZM8 335.5H11.15V332.5H8V335.5ZM17.45 335.5H23.75V332.5H17.45V335.5ZM30.05 335.5H36.35V332.5H30.05V335.5ZM42.65 335.5H48.95V332.5H42.65V335.5ZM55.25 335.5H61.55V332.5H55.25V335.5ZM67.85 335.5H71V332.5H67.85V335.5ZM72.5 334V330.549H69.5V334H72.5ZM72.5 323.647V316.745H69.5V323.647H72.5ZM72.5 309.842V302.94H69.5V309.842H72.5ZM72.5 296.038V289.136H69.5V296.038H72.5ZM72.5 282.234V275.332H69.5V282.234H72.5ZM72.5 268.429V261.527H69.5V268.429H72.5ZM72.5 254.625V247.723H69.5V254.625H72.5ZM72.5 240.821V233.918H69.5V240.821H72.5ZM72.5 227.016V220.114H69.5V227.016H72.5ZM72.5 213.212V206.31H69.5V213.212H72.5ZM72.5 199.408V192.505H69.5V199.408H72.5ZM72.5 185.603V178.701H69.5V185.603H72.5ZM72.5 171.799V164.897H69.5V171.799H72.5ZM72.5 157.995V151.092H69.5V157.995H72.5ZM72.5 144.19V137.288H69.5V144.19H72.5ZM72.5 130.386V123.484H69.5V130.386H72.5ZM72.5 116.581V109.679H69.5V116.581H72.5ZM72.5 102.777V95.8749H69.5V102.777H72.5ZM72.5 88.9728V82.0706H69.5V88.9728H72.5ZM72.5 75.1684V68.2663H69.5V75.1684H72.5ZM72.5 61.3641V54.4619H69.5V61.3641H72.5ZM72.5 47.5598V40.6576H69.5V47.5598H72.5ZM72.5 33.7555V26.8533H69.5V33.7555H72.5ZM72.5 19.9511V16.5H69.5V19.9511H72.5ZM71 18H74.5455V15H71V18ZM81.6364 18H88.7273V15H81.6364V18ZM95.8182 18H102.909V15H95.8182V18ZM110 18H117.091V15H110V18ZM124.182 18H131.273V15H124.182V18ZM138.364 18H145.455V15H138.364V18ZM152.545 18H159.636V15H152.545V18ZM166.727 18H173.818V15H166.727V18ZM180.909 18H188V15H180.909V18ZM195.091 18H202.182V15H195.091V18ZM209.273 18H216.364V15H209.273V18ZM223.455 18H230.545V15H223.455V18ZM237.636 18H244.727V15H237.636V18ZM251.818 18H258.909V15H251.818V18ZM266 18H273.091V15H266V18ZM280.182 18H287.273V15H280.182V18ZM294.364 18H301.455V15H294.364V18ZM308.546 18H315.636V15H308.546V18ZM322.727 18H329.818V15H322.727V18ZM336.909 18H344V15H336.909V18ZM351.091 18H358.182V15H351.091V18ZM365.273 18H372.364V15H365.273V18ZM379.455 18H383V15H379.455V18ZM384.5 16.5V12.5H381.5V16.5H384.5ZM384.5 4.5V0.5H381.5V4.5H384.5Z" fill="#22806E"/>
</svg>
