<svg width="420" height="996" viewBox="0 0 420 996" fill="none" xmlns="http://www.w3.org/2000/svg">
<g filter="url(#filter0_d_1043_7151)">
<g clip-path="url(#clip0_1043_7151)">
<rect x="30" y="30" width="360" height="936" rx="20" fill="white"/>
<g filter="url(#filter1_d_1043_7151)">
<path d="M30 30H390V240C390 251.046 381.046 260 370 260H50C38.9543 260 30 251.046 30 240V30Z" fill="white"/>
</g>
<path d="M53 161H367V204H53V161Z" fill="white"/>
<path d="M53 161H98V204H53V161Z" fill="white"/>
<path d="M98 161H143V204H98V161Z" fill="white"/>
<path d="M143 161H188V204H143V161Z" fill="white"/>
<path d="M188 161H233V204H188V161Z" fill="white"/>
<path d="M233 161H278V204H233V161Z" fill="#CFEFE9"/>
<path d="M278 161H323V204H278V161Z" fill="white"/>
<path d="M323 161H367V204H323V161Z" fill="white"/>
<path d="M54.836 50H53.471V43.838C53.471 43.6213 53.471 43.422 53.471 43.24C53.4797 43.0493 53.4883 42.8673 53.497 42.694C53.5057 42.512 53.5143 42.3387 53.523 42.174C53.4103 42.2867 53.2933 42.395 53.172 42.499C53.0507 42.603 52.912 42.7243 52.756 42.863L51.742 43.682L51.04 42.798L53.692 40.718H54.836V50ZM64.2905 45.346C64.2905 46.1 64.2298 46.7717 64.1085 47.361C63.9958 47.9503 63.8138 48.453 63.5625 48.869C63.3198 49.2763 62.9948 49.5883 62.5875 49.805C62.1888 50.0217 61.7078 50.13 61.1445 50.13C60.4338 50.13 59.8488 49.9393 59.3895 49.558C58.9301 49.1767 58.5878 48.6307 58.3625 47.92C58.1371 47.2007 58.0245 46.3427 58.0245 45.346C58.0245 44.3407 58.1241 43.4827 58.3235 42.772C58.5315 42.0613 58.8651 41.5197 59.3245 41.147C59.7838 40.7657 60.3905 40.575 61.1445 40.575C61.8551 40.575 62.4401 40.7657 62.8995 41.147C63.3675 41.5197 63.7141 42.0613 63.9395 42.772C64.1735 43.4827 64.2905 44.3407 64.2905 45.346ZM59.4025 45.346C59.4025 46.152 59.4588 46.8237 59.5715 47.361C59.6841 47.8983 59.8661 48.3013 60.1175 48.57C60.3775 48.8387 60.7198 48.973 61.1445 48.973C61.5691 48.973 61.9071 48.843 62.1585 48.583C62.4185 48.3143 62.6048 47.9113 62.7175 47.374C62.8388 46.828 62.8995 46.152 62.8995 45.346C62.8995 44.54 62.8388 43.8727 62.7175 43.344C62.6048 42.8067 62.4185 42.4037 62.1585 42.135C61.9071 41.8663 61.5691 41.732 61.1445 41.732C60.7198 41.732 60.3775 41.8663 60.1175 42.135C59.8661 42.4037 59.6841 42.8067 59.5715 43.344C59.4588 43.8727 59.4025 44.54 59.4025 45.346ZM65.7629 49.233C65.7629 48.895 65.8496 48.6567 66.0229 48.518C66.1962 48.3793 66.4042 48.31 66.6469 48.31C66.8982 48.31 67.1106 48.3793 67.2839 48.518C67.4572 48.6567 67.5439 48.895 67.5439 49.233C67.5439 49.571 67.4572 49.8137 67.2839 49.961C67.1106 50.1083 66.8982 50.182 66.6469 50.182C66.4042 50.182 66.1962 50.1083 66.0229 49.961C65.8496 49.8137 65.7629 49.571 65.7629 49.233ZM65.7629 43.773C65.7629 43.4177 65.8496 43.1707 66.0229 43.032C66.1962 42.8933 66.4042 42.824 66.6469 42.824C66.8982 42.824 67.1106 42.8933 67.2839 43.032C67.4572 43.1707 67.5439 43.4177 67.5439 43.773C67.5439 44.1023 67.4572 44.3407 67.2839 44.488C67.1106 44.6353 66.8982 44.709 66.6469 44.709C66.4042 44.709 66.1962 44.6353 66.0229 44.488C65.8496 44.3407 65.7629 44.1023 65.7629 43.773ZM75.2716 50H69.0316V48.934L71.4236 46.503C71.8916 46.0263 72.2816 45.6147 72.5936 45.268C72.9056 44.9127 73.1396 44.5747 73.2956 44.254C73.4516 43.9247 73.5296 43.5693 73.5296 43.188C73.5296 42.7113 73.3909 42.356 73.1136 42.122C72.8363 41.8793 72.4766 41.758 72.0346 41.758C71.6099 41.758 71.2286 41.8403 70.8906 42.005C70.5526 42.161 70.2016 42.382 69.8376 42.668L69.0966 41.745C69.3479 41.5283 69.6166 41.3333 69.9026 41.16C70.1973 40.9867 70.5223 40.848 70.8776 40.744C71.2416 40.64 71.6403 40.588 72.0736 40.588C72.6629 40.588 73.1699 40.692 73.5946 40.9C74.0193 41.0993 74.3443 41.3853 74.5696 41.758C74.8036 42.1307 74.9206 42.5683 74.9206 43.071C74.9206 43.4437 74.8643 43.7947 74.7516 44.124C74.6389 44.4447 74.4743 44.761 74.2576 45.073C74.0496 45.385 73.7939 45.7013 73.4906 46.022C73.1873 46.3427 72.8536 46.6807 72.4896 47.036L70.7606 48.713V48.778H75.2716V50ZM82.711 50H76.471V48.934L78.863 46.503C79.331 46.0263 79.721 45.6147 80.033 45.268C80.345 44.9127 80.579 44.5747 80.735 44.254C80.891 43.9247 80.969 43.5693 80.969 43.188C80.969 42.7113 80.8304 42.356 80.553 42.122C80.2757 41.8793 79.916 41.758 79.474 41.758C79.0494 41.758 78.668 41.8403 78.33 42.005C77.992 42.161 77.641 42.382 77.277 42.668L76.536 41.745C76.7874 41.5283 77.056 41.3333 77.342 41.16C77.6367 40.9867 77.9617 40.848 78.317 40.744C78.681 40.64 79.0797 40.588 79.513 40.588C80.1024 40.588 80.6094 40.692 81.034 40.9C81.4587 41.0993 81.7837 41.3853 82.009 41.758C82.243 42.1307 82.36 42.5683 82.36 43.071C82.36 43.4437 82.3037 43.7947 82.191 44.124C82.0784 44.4447 81.9137 44.761 81.697 45.073C81.489 45.385 81.2334 45.7013 80.93 46.022C80.6267 46.3427 80.293 46.6807 79.929 47.036L78.2 48.713V48.778H82.711V50Z" fill="black"/>
<path d="M329.233 47.2337L327.833 45.8003C328.522 45.1114 329.311 44.5837 330.2 44.217C331.089 43.8503 332.022 43.667 333 43.667C333.978 43.667 334.914 43.8532 335.809 44.2257C336.703 44.5981 337.489 45.1341 338.167 45.8337L336.767 47.2337C336.267 46.7337 335.692 46.3477 335.041 46.0757C334.391 45.8037 333.711 45.6674 333 45.667C332.289 45.667 331.608 45.8032 330.959 46.0757C330.309 46.3481 329.734 46.7341 329.233 47.2337ZM326.4 44.4003L325 43.0003C326.056 41.9225 327.275 41.0974 328.659 40.525C330.042 39.9525 331.489 39.6665 333 39.667C334.511 39.667 335.958 39.9532 337.342 40.5257C338.726 41.0981 339.945 41.923 341 43.0003L339.6 44.4003C338.722 43.5225 337.714 42.8477 336.575 42.3757C335.436 41.9037 334.244 41.6674 333 41.667C331.756 41.667 330.564 41.9032 329.425 42.3757C328.286 42.8481 327.277 43.523 326.4 44.4003ZM333 51.0003L330.65 48.6337C330.961 48.3225 331.32 48.0837 331.725 47.917C332.131 47.7503 332.556 47.667 333 47.667C333.444 47.667 333.87 47.7503 334.275 47.917C334.681 48.0837 335.039 48.3225 335.35 48.6337L333 51.0003Z" fill="black"/>
<rect x="349.35" y="41.35" width="16.4905" height="7.44286" rx="1.65" stroke="black" stroke-width="0.7"/>
<rect x="350" y="42" width="12" height="6" rx="2" fill="black"/>
<rect x="366.44" y="43.0596" width="1.30952" height="4.02381" rx="0.25" fill="black" stroke="black" stroke-width="0.5"/>
<rect x="301" y="45" width="3" height="6" rx="0.5" fill="black"/>
<rect x="305" y="43" width="3" height="8" rx="0.5" fill="black"/>
<rect x="309" y="41" width="3" height="10" rx="0.5" fill="black"/>
<rect x="313" y="39" width="3" height="12" rx="0.5" fill="black"/>
<path d="M57.78 74.8H60.12V75.66C60.12 79.22 57.32 82.24 52.46 82.96L51.42 80.82C55.68 80.26 57.78 77.84 57.78 75.66V74.8ZM58.28 74.8H60.6V75.66C60.6 77.82 62.72 80.26 66.96 80.82L65.94 82.96C61.08 82.24 58.28 79.22 58.28 75.66V74.8ZM57.8 86H60.44V92.78H57.8V86ZM50.82 84.32H67.56V86.48H50.82V84.32ZM81.9184 74.26H84.5984V84.22H81.9184V74.26ZM72.2784 85.02H74.8984V86.74H81.9584V85.02H84.5984V92.58H72.2784V85.02ZM74.8984 88.78V90.46H81.9584V88.78H74.8984ZM74.5184 75.02C77.3984 75.02 79.5384 76.84 79.5384 79.4C79.5384 81.96 77.3984 83.78 74.5184 83.78C71.6384 83.78 69.4784 81.96 69.4784 79.4C69.4784 76.84 71.6384 75.02 74.5184 75.02ZM74.5184 77.22C73.0984 77.22 72.0784 78.04 72.0784 79.4C72.0784 80.78 73.0984 81.58 74.5184 81.58C75.9184 81.58 76.9384 80.78 76.9384 79.4C76.9384 78.04 75.9184 77.22 74.5184 77.22ZM91.2769 88.9C91.1569 89.3667 91.0035 89.8733 90.8169 90.42C90.6302 90.9533 90.4302 91.4867 90.2169 92.02C90.0035 92.5667 89.7835 93.0867 89.5569 93.58H87.4169C87.5502 93.0467 87.6769 92.4867 87.7969 91.9C87.9169 91.3267 88.0302 90.76 88.1369 90.2C88.2435 89.64 88.3302 89.1333 88.3969 88.68H91.1369L91.2769 88.9ZM97.76 77.18H99.88V79.26C99.88 83.54 98.14 87.72 94.66 89.3L93.16 87.2C96.26 85.82 97.76 82.4 97.76 79.26V77.18ZM98.36 77.18H100.46V79.26C100.46 82.26 101.94 85.46 105.04 86.74L103.6 88.84C100.08 87.32 98.36 83.38 98.36 79.26V77.18ZM93.9 76.04H104.28V78.22H93.9V76.04ZM106 74.26H108.68V92.78H106V74.26ZM118.738 83.68H121.398V86.36H118.738V83.68ZM111.738 82.12H128.418V84.06H111.738V82.12ZM118.738 74.24H121.378V76.48H118.738V74.24ZM118.578 76.6H120.918V76.96C120.918 79.62 118.218 81.38 113.098 81.66L112.358 79.68C116.878 79.5 118.578 78.24 118.578 76.96V76.6ZM119.198 76.6H121.538V76.96C121.538 78.24 123.238 79.5 127.738 79.68L126.998 81.66C121.898 81.38 119.198 79.62 119.198 76.96V76.6ZM113.298 75.7H126.838V77.64H113.298V75.7ZM113.618 85.18H126.418V89.76H116.258V91.52H113.638V87.98H123.798V87.1H113.618V85.18ZM113.638 90.72H126.898V92.66H113.638V90.72ZM142.857 74.26H145.537V92.78H142.857V74.26ZM137.397 76.18H140.037C140.037 81.84 138.117 86.48 131.537 89.66L130.157 87.54C135.477 84.98 137.397 81.62 137.397 76.66V76.18ZM131.137 76.18H138.657V78.28H131.137V76.18ZM148.495 84.18H165.275V86.3H148.495V84.18ZM150.555 74.62H163.235V79.64H153.215V81.64H150.575V77.76H160.615V76.64H150.555V74.62ZM150.575 80.84H163.595V82.86H150.575V80.84ZM155.555 81.82H158.215V85.34H155.555V81.82ZM150.355 87.34H163.355V92.72H160.695V89.44H150.355V87.34Z" fill="black" fill-opacity="0.87"/>
<path d="M56.02 284.8C58.84 284.8 60.96 286.56 60.96 289.04C60.96 291.5 58.84 293.26 56.02 293.26C53.2 293.26 51.08 291.5 51.08 289.04C51.08 286.56 53.2 284.8 56.02 284.8ZM56.02 286.96C54.66 286.96 53.64 287.72 53.64 289.04C53.64 290.36 54.66 291.12 56.02 291.12C57.38 291.12 58.38 290.36 58.38 289.04C58.38 287.72 57.38 286.96 56.02 286.96ZM63.52 284.26H66.2V293.52H63.52V284.26ZM53.84 294.28H66.2V299.36H56.48V301.6H53.88V297.44H63.56V296.34H53.84V294.28ZM53.88 300.52H66.66V302.58H53.88V300.52ZM76.0584 286.32H78.3584V286.86C78.3584 290.12 75.6984 292.78 70.9984 293.42L70.0184 291.34C74.0984 290.84 76.0584 288.76 76.0584 286.86V286.32ZM76.8184 286.32H79.1184V286.86C79.1184 288.76 81.0784 290.84 85.1584 291.34L84.1984 293.42C79.4784 292.78 76.8184 290.12 76.8184 286.86V286.32ZM76.1984 296H78.8384V302.8H76.1984V296ZM69.2184 294.48H85.9584V296.6H69.2184V294.48ZM70.6984 285.2H84.4384V287.3H70.6984V285.2ZM92.8169 284.8C95.6369 284.8 97.7569 286.56 97.7569 289.04C97.7569 291.5 95.6369 293.26 92.8169 293.26C89.9969 293.26 87.8769 291.5 87.8769 289.04C87.8769 286.56 89.9969 284.8 92.8169 284.8ZM92.8169 286.96C91.4569 286.96 90.4369 287.72 90.4369 289.04C90.4369 290.36 91.4569 291.12 92.8169 291.12C94.1769 291.12 95.1769 290.36 95.1769 289.04C95.1769 287.72 94.1769 286.96 92.8169 286.96ZM100.317 284.26H102.997V293.52H100.317V284.26ZM90.6369 294.28H102.997V299.36H93.2769V301.6H90.6769V297.44H100.357V296.34H90.6369V294.28ZM90.6769 300.52H103.457V302.58H90.6769V300.52ZM118.551 288.34H121.631V290.48H118.551V288.34ZM118.551 294.06H121.631V296.22H118.551V294.06ZM124.571 284.26H127.111V302.78H124.571V284.26ZM120.871 284.54H123.351V301.94H120.871V284.54ZM115.351 285.56C117.811 285.56 119.391 288.1 119.391 292.28C119.391 296.48 117.811 299.02 115.351 299.02C112.911 299.02 111.351 296.48 111.351 292.28C111.351 288.1 112.911 285.56 115.351 285.56ZM115.351 288.06C114.331 288.06 113.731 289.46 113.731 292.28C113.731 295.12 114.331 296.5 115.351 296.5C116.391 296.5 116.991 295.12 116.991 292.28C116.991 289.46 116.391 288.06 115.351 288.06ZM133.749 285.4H135.929V287.4C135.929 291.08 134.269 294.24 130.729 295.46L129.309 293.38C132.449 292.38 133.749 289.9 133.749 287.4V285.4ZM134.269 285.4H136.429V287.42C136.429 289.74 137.689 292.06 140.669 293.04L139.309 295.1C135.869 293.96 134.269 290.9 134.269 287.42V285.4ZM141.509 284.26H144.169V297.8H141.509V284.26ZM143.409 289.62H146.629V291.82H143.409V289.62ZM132.229 300.34H144.829V302.46H132.229V300.34ZM132.229 296.52H134.909V301.46H132.229V296.52Z" fill="#38D6B8"/>
<path d="M156.368 284.52C160.588 284.52 163.068 285.64 163.068 287.68C163.068 289.72 160.588 290.84 156.368 290.84C152.128 290.84 149.668 289.72 149.668 287.68C149.668 285.64 152.128 284.52 156.368 284.52ZM156.368 286.46C153.688 286.46 152.428 286.86 152.428 287.68C152.428 288.54 153.688 288.9 156.368 288.9C159.048 288.9 160.308 288.54 160.308 287.68C160.308 286.86 159.048 286.46 156.368 286.46ZM147.988 291.7H164.728V293.8H147.988V291.7ZM149.908 294.84H162.708V299.6H152.548V301.24H149.928V297.76H160.088V296.82H149.908V294.84ZM149.928 300.66H163.188V302.66H149.928V300.66ZM58.1 317.48H61.16V319.64H58.1V317.48ZM54.14 312.86H56.18V315.98C56.18 320.18 55.02 324.28 52.06 326.1L50.46 324.1C53.18 322.42 54.14 319.12 54.14 315.98V312.86ZM54.72 312.86H56.72V315.86C56.72 318.88 57.5 321.96 60.02 323.6L58.58 325.68C55.64 323.86 54.72 319.86 54.72 315.86V312.86ZM64.18 311.26H66.72V329.78H64.18V311.26ZM60.42 311.54H62.9V328.94H60.42V311.54ZM73.6784 321.7H76.3384V329.22H73.6784V321.7ZM82.2184 311.26H84.8984V329.78H82.2184V311.26ZM69.4584 322.82L69.1384 320.66C72.5784 320.66 77.1184 320.64 81.0584 320.1L81.1984 322.04C77.1584 322.76 72.8384 322.82 69.4584 322.82ZM78.5184 323.72H82.7584V325.72H78.5184V323.72ZM75.1384 312.02C77.8584 312.02 79.8384 313.58 79.8384 315.82C79.8384 318.08 77.8584 319.62 75.1384 319.62C72.3784 319.62 70.4184 318.08 70.4184 315.82C70.4184 313.58 72.3784 312.02 75.1384 312.02ZM75.1384 314.02C73.8184 314.02 72.8984 314.7 72.8984 315.82C72.8984 316.96 73.8184 317.6 75.1384 317.6C76.4184 317.6 77.3384 316.96 77.3384 315.82C77.3384 314.7 76.4184 314.02 75.1384 314.02ZM87.6169 325.48H104.377V327.64H87.6169V325.48ZM94.6369 321.52H97.2969V326H94.6369V321.52ZM89.3769 312.44H92.0169V315.28H99.9169V312.44H102.557V322.08H89.3769V312.44ZM92.0169 317.36V319.96H99.9169V317.36H92.0169ZM113.295 317.48H116.355V319.64H113.295V317.48ZM109.335 312.86H111.375V315.98C111.375 320.18 110.215 324.28 107.255 326.1L105.655 324.1C108.375 322.42 109.335 319.12 109.335 315.98V312.86ZM109.915 312.86H111.915V315.86C111.915 318.88 112.695 321.96 115.215 323.6L113.775 325.68C110.835 323.86 109.915 319.86 109.915 315.86V312.86ZM119.375 311.26H121.915V329.78H119.375V311.26ZM115.615 311.54H118.095V328.94H115.615V311.54ZM128.094 320.66H130.734V325.86H128.094V320.66ZM134.814 320.66H137.474V325.86H134.814V320.66ZM124.414 325.48H141.174V327.64H124.414V325.48ZM132.774 312.16C136.754 312.16 139.694 314.12 139.694 317.14C139.694 320.16 136.754 322.1 132.774 322.1C128.774 322.1 125.854 320.16 125.854 317.14C125.854 314.12 128.774 312.16 132.774 312.16ZM132.774 314.24C130.194 314.24 128.474 315.3 128.474 317.14C128.474 318.96 130.194 320.04 132.774 320.04C135.354 320.04 137.074 318.96 137.074 317.14C137.074 315.3 135.354 314.24 132.774 314.24ZM146.052 323.26H143.672L143.172 313.72H146.552L146.052 323.26ZM143.132 326.6C143.132 325.987 143.299 325.56 143.632 325.32C143.966 325.067 144.372 324.94 144.852 324.94C145.319 324.94 145.719 325.067 146.052 325.32C146.386 325.56 146.552 325.987 146.552 326.6C146.552 327.187 146.386 327.613 146.052 327.88C145.719 328.133 145.319 328.26 144.852 328.26C144.372 328.26 143.966 328.133 143.632 327.88C143.299 327.613 143.132 327.187 143.132 326.6Z" fill="black" fill-opacity="0.87"/>
<path d="M57.84 433.68H60.5V437.9H57.84V433.68ZM59.18 424.2C63.14 424.2 66.1 426.22 66.1 429.3C66.1 432.42 63.14 434.42 59.18 434.42C55.22 434.42 52.26 432.42 52.26 429.3C52.26 426.22 55.22 424.2 59.18 424.2ZM59.18 426.3C56.64 426.3 54.88 427.42 54.88 429.3C54.88 431.22 56.64 432.32 59.18 432.32C61.72 432.32 63.48 431.22 63.48 429.3C63.48 427.42 61.72 426.3 59.18 426.3ZM50.82 437.48H67.58V439.64H50.82V437.48ZM71.2784 426.96H84.0584V429.06H71.2784V426.96ZM69.1984 430.26H85.9784V432.36H69.1984V430.26ZM71.2784 423.46H73.9184V428.08H71.2784V423.46ZM71.0984 433.48H83.9984V438.4H73.7784V440.04H71.1184V436.52H81.3384V435.48H71.0984V433.48ZM71.1184 439.56H84.5384V441.58H71.1184V439.56ZM198.36 423.52C202.58 423.52 205.06 424.64 205.06 426.68C205.06 428.72 202.58 429.84 198.36 429.84C194.12 429.84 191.66 428.72 191.66 426.68C191.66 424.64 194.12 423.52 198.36 423.52ZM198.36 425.46C195.68 425.46 194.42 425.86 194.42 426.68C194.42 427.54 195.68 427.9 198.36 427.9C201.04 427.9 202.3 427.54 202.3 426.68C202.3 425.86 201.04 425.46 198.36 425.46ZM189.98 430.7H206.72V432.8H189.98V430.7ZM191.9 433.84H204.7V438.6H194.54V440.24H191.92V436.76H202.08V435.82H191.9V433.84ZM191.92 439.66H205.18V441.66H191.92V439.66ZM58.34 460.28H61.28V462.42H58.34V460.28ZM54.04 458.4H56.04V458.88C56.04 462.74 54.92 466.6 51.96 468.3L50.46 466.3C53.1 464.76 54.04 461.72 54.04 458.88V458.4ZM54.56 458.4H56.56V458.88C56.56 461.68 57.52 464.5 60.14 465.9L58.7 467.86C55.7 466.3 54.56 462.68 54.56 458.88V458.4ZM51.16 456.36H59.42V458.5H51.16V456.36ZM54.04 453.88H56.56V458.1H54.04V453.88ZM64.18 453.26H66.7V471.78H64.18V453.26ZM60.44 453.56H62.92V470.94H60.44V453.56ZM71.0984 454.88H82.7584V457H71.0984V454.88ZM69.2184 467.42H85.9584V469.6H69.2184V467.42ZM81.6384 454.88H84.2584V457.02C84.2584 459.72 84.2584 462.28 83.3984 466.32L80.7784 466.08C81.6384 462.34 81.6384 459.64 81.6384 457.02V454.88ZM82.1984 459.96V461.92L70.8784 462.48L70.5584 460.34L82.1984 459.96ZM87.5769 456.04H96.4369V458.16H87.5769V456.04ZM92.0369 458.98C94.3969 458.98 96.0969 460.8 96.0969 463.4C96.0969 465.98 94.3969 467.8 92.0369 467.8C89.6969 467.8 87.9769 465.98 87.9769 463.4C87.9769 460.8 89.6969 458.98 92.0369 458.98ZM92.0369 461.2C91.0369 461.2 90.3369 462 90.3369 463.4C90.3369 464.8 91.0369 465.58 92.0369 465.58C93.0369 465.58 93.7569 464.8 93.7569 463.4C93.7569 462 93.0369 461.2 92.0369 461.2ZM100.977 453.26H103.517V471.78H100.977V453.26ZM98.7569 460.78H101.817V462.92H98.7569V460.78ZM97.0969 453.6H99.5769V471H97.0969V453.6ZM90.7369 453.76H93.3569V457.38H90.7369V453.76ZM112.855 455.32H115.155V455.86C115.155 459.12 112.495 461.78 107.795 462.42L106.815 460.34C110.895 459.84 112.855 457.76 112.855 455.86V455.32ZM113.615 455.32H115.915V455.86C115.915 457.76 117.875 459.84 121.955 460.34L120.995 462.42C116.275 461.78 113.615 459.12 113.615 455.86V455.32ZM112.995 465H115.635V471.8H112.995V465ZM106.015 463.48H122.755V465.6H106.015V463.48ZM107.495 454.2H121.235V456.3H107.495V454.2ZM131.694 459.48H134.754V461.64H131.694V459.48ZM127.734 454.86H129.774V457.98C129.774 462.18 128.614 466.28 125.654 468.1L124.054 466.1C126.774 464.42 127.734 461.12 127.734 457.98V454.86ZM128.314 454.86H130.314V457.86C130.314 460.88 131.094 463.96 133.614 465.6L132.174 467.68C129.234 465.86 128.314 461.86 128.314 457.86V454.86ZM137.774 453.26H140.314V471.78H137.774V453.26ZM134.014 453.54H136.494V470.94H134.014V453.54ZM146.492 462.66H149.132V467.86H146.492V462.66ZM153.212 462.66H155.872V467.86H153.212V462.66ZM142.812 467.48H159.572V469.64H142.812V467.48ZM151.172 454.16C155.152 454.16 158.092 456.12 158.092 459.14C158.092 462.16 155.152 464.1 151.172 464.1C147.172 464.1 144.252 462.16 144.252 459.14C144.252 456.12 147.172 454.16 151.172 454.16ZM151.172 456.24C148.592 456.24 146.872 457.3 146.872 459.14C146.872 460.96 148.592 462.04 151.172 462.04C153.752 462.04 155.472 460.96 155.472 459.14C155.472 457.3 153.752 456.24 151.172 456.24ZM164.451 465.26H162.071L161.571 455.72H164.951L164.451 465.26ZM161.531 468.6C161.531 467.987 161.697 467.56 162.031 467.32C162.364 467.067 162.771 466.94 163.251 466.94C163.717 466.94 164.117 467.067 164.451 467.32C164.784 467.56 164.951 467.987 164.951 468.6C164.951 469.187 164.784 469.613 164.451 469.88C164.117 470.133 163.717 470.26 163.251 470.26C162.771 470.26 162.364 470.133 162.031 469.88C161.697 469.613 161.531 469.187 161.531 468.6Z" fill="black" fill-opacity="0.87"/>
<path d="M105.512 423.26H108.192V432.62H105.512V423.26ZM95.8322 433.44H108.192V438.46H98.4722V440.32H95.8722V436.54H105.552V435.46H95.8322V433.44ZM95.8722 439.6H108.652V441.66H95.8722V439.6ZM97.1322 423.68H99.3322V425.08C99.3322 428.5 97.6122 431.6 93.9922 432.7L92.7122 430.6C95.8122 429.66 97.1322 427.34 97.1322 425.08V423.68ZM97.6722 423.68H99.8522V425.08C99.8522 427.28 101.152 429.44 104.172 430.3L102.892 432.36C99.3322 431.32 97.6722 428.42 97.6722 425.08V423.68ZM115.351 426.88H117.511V427.6C117.511 430.98 115.871 434 112.351 435.1L111.071 433.02C114.071 432.08 115.351 429.84 115.351 427.6V426.88ZM115.831 426.88H118.011V427.6C118.011 429.68 119.311 431.82 122.311 432.72L121.031 434.8C117.531 433.76 115.831 430.84 115.831 427.6V426.88ZM111.711 425.44H121.651V427.52H111.711V425.44ZM115.351 423.4H118.011V426.22H115.351V423.4ZM121.071 428.64H125.371V430.82H121.071V428.64ZM124.031 423.28H126.691V436.98H124.031V423.28ZM114.471 439.34H127.111V441.46H114.471V439.34ZM114.471 435.84H117.131V440.74H114.471V435.84ZM141.509 423.28H144.169V437.12H141.509V423.28ZM143.409 428.92H146.629V431.1H143.409V428.92ZM129.589 425.2H140.489V427.28H129.589V425.2ZM135.049 427.94C137.709 427.94 139.589 429.4 139.589 431.52C139.589 433.64 137.709 435.08 135.049 435.08C132.369 435.08 130.489 433.64 130.489 431.52C130.489 429.4 132.369 427.94 135.049 427.94ZM135.049 429.96C133.869 429.96 133.049 430.52 133.049 431.52C133.049 432.52 133.869 433.06 135.049 433.06C136.229 433.06 137.049 432.52 137.049 431.52C137.049 430.52 136.229 429.96 135.049 429.96ZM133.709 423.24H136.369V426.22H133.709V423.24ZM132.229 439.34H144.829V441.46H132.229V439.34ZM132.229 436.08H134.889V440.26H132.229V436.08ZM160.323 428.14H164.083V430.26H160.323V428.14ZM160.223 432.76H164.003V434.88H160.223V432.76ZM166.603 423.26H169.143V441.78H166.603V423.26ZM162.783 423.66H165.263V440.96H162.783V423.66ZM158.603 425.44H161.163C161.163 430.7 159.583 434.9 154.423 437.94L152.923 436.08C157.103 433.54 158.603 430.46 158.603 425.98V425.44ZM153.983 425.44H159.503V427.56H153.983V425.44ZM172.201 424.62H183.081V426.52H172.201V424.62ZM177.641 426.96C180.401 426.96 182.241 428.06 182.241 429.74C182.241 431.44 180.401 432.52 177.641 432.52C174.881 432.52 173.041 431.44 173.041 429.74C173.041 428.06 174.881 426.96 177.641 426.96ZM177.641 428.72C176.401 428.72 175.581 429.06 175.581 429.74C175.581 430.4 176.401 430.76 177.641 430.76C178.901 430.76 179.701 430.4 179.701 429.74C179.701 429.06 178.901 428.72 177.641 428.72ZM176.301 423.14H178.981V425.58H176.301V423.14ZM176.301 431.54H178.981V434.12H176.301V431.54ZM184.341 423.28H187.021V435.82H184.341V423.28ZM174.221 436.54H187.021V441.78H184.341V438.58H174.221V436.54ZM172.001 435.46L171.681 433.44C175.021 433.44 179.461 433.42 183.241 432.94L183.441 434.72C179.521 435.4 175.261 435.46 172.001 435.46Z" fill="#38D6B8"/>
<path d="M184.093 123H174.113V120.9L177.693 117.28C178.413 116.533 178.993 115.913 179.433 115.42C179.873 114.913 180.193 114.46 180.393 114.06C180.593 113.647 180.693 113.207 180.693 112.74C180.693 112.167 180.533 111.74 180.213 111.46C179.906 111.18 179.486 111.04 178.953 111.04C178.406 111.04 177.873 111.167 177.353 111.42C176.833 111.673 176.286 112.033 175.713 112.5L174.073 110.56C174.486 110.2 174.919 109.867 175.373 109.56C175.839 109.253 176.373 109.007 176.973 108.82C177.586 108.62 178.319 108.52 179.173 108.52C180.106 108.52 180.906 108.693 181.573 109.04C182.253 109.373 182.773 109.833 183.133 110.42C183.506 110.993 183.693 111.647 183.693 112.38C183.693 112.98 183.599 113.533 183.412 114.04C183.239 114.547 182.979 115.04 182.633 115.52C182.299 115.987 181.886 116.473 181.393 116.98C180.899 117.473 180.339 118.013 179.713 118.6L177.873 120.32V120.46H184.093V123ZM195.458 115.86C195.458 117.007 195.364 118.033 195.178 118.94C195.004 119.847 194.718 120.62 194.318 121.26C193.931 121.887 193.418 122.367 192.778 122.7C192.151 123.033 191.378 123.2 190.458 123.2C189.311 123.2 188.371 122.907 187.638 122.32C186.904 121.733 186.358 120.893 185.998 119.8C185.651 118.707 185.478 117.393 185.478 115.86C185.478 114.313 185.638 112.993 185.958 111.9C186.278 110.807 186.804 109.967 187.538 109.38C188.271 108.793 189.244 108.5 190.458 108.5C191.604 108.5 192.544 108.793 193.278 109.38C194.011 109.953 194.558 110.793 194.918 111.9C195.278 112.993 195.458 114.313 195.458 115.86ZM188.478 115.86C188.478 116.94 188.538 117.847 188.658 118.58C188.778 119.3 188.978 119.847 189.258 120.22C189.551 120.58 189.951 120.76 190.458 120.76C190.964 120.76 191.358 120.58 191.638 120.22C191.931 119.86 192.138 119.32 192.258 118.6C192.391 117.867 192.458 116.953 192.458 115.86C192.458 114.767 192.391 113.86 192.258 113.14C192.138 112.407 191.931 111.86 191.638 111.5C191.358 111.127 190.964 110.94 190.458 110.94C189.951 110.94 189.551 111.127 189.258 111.5C188.978 111.86 188.778 112.407 188.658 113.14C188.538 113.86 188.478 114.767 188.478 115.86ZM206.983 123H197.003V120.9L200.583 117.28C201.303 116.533 201.883 115.913 202.323 115.42C202.763 114.913 203.083 114.46 203.283 114.06C203.483 113.647 203.583 113.207 203.583 112.74C203.583 112.167 203.423 111.74 203.103 111.46C202.796 111.18 202.376 111.04 201.843 111.04C201.296 111.04 200.763 111.167 200.243 111.42C199.723 111.673 199.176 112.033 198.603 112.5L196.963 110.56C197.376 110.2 197.81 109.867 198.263 109.56C198.73 109.253 199.263 109.007 199.863 108.82C200.476 108.62 201.21 108.52 202.063 108.52C202.996 108.52 203.796 108.693 204.463 109.04C205.143 109.373 205.663 109.833 206.023 110.42C206.396 110.993 206.583 111.647 206.583 112.38C206.583 112.98 206.49 113.533 206.303 114.04C206.13 114.547 205.87 115.04 205.523 115.52C205.19 115.987 204.776 116.473 204.283 116.98C203.79 117.473 203.23 118.013 202.603 118.6L200.763 120.32V120.46H206.983V123ZM218.748 120.04H217.028V123H214.088V120.04H207.988V117.94L214.248 108.72H217.028V117.7H218.748V120.04ZM214.088 115.28C214.088 115.053 214.088 114.787 214.088 114.48C214.102 114.16 214.115 113.847 214.128 113.54C214.142 113.22 214.155 112.94 214.168 112.7C214.182 112.447 214.195 112.273 214.208 112.18H214.128C214.008 112.447 213.882 112.707 213.748 112.96C213.615 113.213 213.455 113.473 213.268 113.74L210.648 117.7H214.088V115.28ZM220.234 121.6C220.234 120.987 220.4 120.56 220.734 120.32C221.067 120.067 221.474 119.94 221.954 119.94C222.42 119.94 222.82 120.067 223.154 120.32C223.487 120.56 223.654 120.987 223.654 121.6C223.654 122.187 223.487 122.613 223.154 122.88C222.82 123.133 222.42 123.26 221.954 123.26C221.474 123.26 221.067 123.133 220.734 122.88C220.4 122.613 220.234 122.187 220.234 121.6ZM235.497 115.86C235.497 117.007 235.404 118.033 235.217 118.94C235.044 119.847 234.757 120.62 234.357 121.26C233.97 121.887 233.457 122.367 232.817 122.7C232.19 123.033 231.417 123.2 230.497 123.2C229.35 123.2 228.41 122.907 227.677 122.32C226.944 121.733 226.397 120.893 226.037 119.8C225.69 118.707 225.517 117.393 225.517 115.86C225.517 114.313 225.677 112.993 225.997 111.9C226.317 110.807 226.844 109.967 227.577 109.38C228.31 108.793 229.284 108.5 230.497 108.5C231.644 108.5 232.584 108.793 233.317 109.38C234.05 109.953 234.597 110.793 234.957 111.9C235.317 112.993 235.497 114.313 235.497 115.86ZM228.517 115.86C228.517 116.94 228.577 117.847 228.697 118.58C228.817 119.3 229.017 119.847 229.297 120.22C229.59 120.58 229.99 120.76 230.497 120.76C231.004 120.76 231.397 120.58 231.677 120.22C231.97 119.86 232.177 119.32 232.297 118.6C232.43 117.867 232.497 116.953 232.497 115.86C232.497 114.767 232.43 113.86 232.297 113.14C232.177 112.407 231.97 111.86 231.677 111.5C231.397 111.127 231.004 110.94 230.497 110.94C229.99 110.94 229.59 111.127 229.297 111.5C229.017 111.86 228.817 112.407 228.697 113.14C228.577 113.86 228.517 114.767 228.517 115.86ZM247.022 123H237.042V120.9L240.622 117.28C241.342 116.533 241.922 115.913 242.362 115.42C242.802 114.913 243.122 114.46 243.322 114.06C243.522 113.647 243.622 113.207 243.622 112.74C243.622 112.167 243.462 111.74 243.142 111.46C242.836 111.18 242.416 111.04 241.882 111.04C241.336 111.04 240.802 111.167 240.282 111.42C239.762 111.673 239.216 112.033 238.642 112.5L237.002 110.56C237.416 110.2 237.849 109.867 238.302 109.56C238.769 109.253 239.302 109.007 239.902 108.82C240.516 108.62 241.249 108.52 242.102 108.52C243.036 108.52 243.836 108.693 244.502 109.04C245.182 109.373 245.702 109.833 246.062 110.42C246.436 110.993 246.622 111.647 246.622 112.38C246.622 112.98 246.529 113.533 246.342 114.04C246.169 114.547 245.909 115.04 245.562 115.52C245.229 115.987 244.816 116.473 244.322 116.98C243.829 117.473 243.269 118.013 242.642 118.6L240.802 120.32V120.46H247.022V123Z" fill="black" fill-opacity="0.87"/>
<path d="M73.4304 147.07C74.7804 147.07 75.7704 147.89 75.7704 149.08C75.7704 150.26 74.7804 151.08 73.4304 151.08C72.0904 151.08 71.1004 150.26 71.1004 149.08C71.1004 147.89 72.0904 147.07 73.4304 147.07ZM73.4304 147.75C72.5604 147.75 71.9004 148.3 71.9004 149.08C71.9004 149.86 72.5604 150.4 73.4304 150.4C74.3104 150.4 74.9604 149.86 74.9604 149.08C74.9604 148.3 74.3104 147.75 73.4304 147.75ZM77.4704 146.74H78.3104V151.37H77.4704V146.74ZM72.4604 151.81H78.3104V154.01H73.2904V155.37H72.4804V153.39H77.4904V152.48H72.4604V151.81ZM72.4804 155H78.6104V155.66H72.4804V155Z" fill="#F04D4D"/>
<path d="M72.6963 178H71.2263V171.364C71.2263 171.131 71.2263 170.916 71.2263 170.72C71.2356 170.515 71.2449 170.319 71.2543 170.132C71.2636 169.936 71.2729 169.749 71.2823 169.572C71.1609 169.693 71.0349 169.81 70.9043 169.922C70.7736 170.034 70.6243 170.165 70.4563 170.314L69.3643 171.196L68.6083 170.244L71.4643 168.004H72.6963V178ZM80.708 178H79.238V171.364C79.238 171.131 79.238 170.916 79.238 170.72C79.2473 170.515 79.2567 170.319 79.266 170.132C79.2753 169.936 79.2847 169.749 79.294 169.572C79.1727 169.693 79.0467 169.81 78.916 169.922C78.7853 170.034 78.636 170.165 78.468 170.314L77.376 171.196L76.62 170.244L79.476 168.004H80.708V178Z" fill="black" fill-opacity="0.87"/>
<path d="M118.32 150.48H119.15V152.09H118.32V150.48ZM122.47 146.74H123.3V152.06H122.47V146.74ZM115.97 150.76L115.87 150.14C117.61 150.14 119.82 150.13 121.75 149.91L121.8 150.45C119.82 150.74 117.66 150.76 115.97 150.76ZM117.24 152.39H123.3V154.27H118.07V155.29H117.26V153.72H122.48V152.99H117.24V152.39ZM117.26 155.08H123.6V155.68H117.26V155.08ZM120.67 151.04H122.73V151.58H120.67V151.04ZM118.79 146.91C120.13 146.91 121.01 147.43 121.01 148.27C121.01 149.11 120.13 149.63 118.79 149.63C117.44 149.63 116.56 149.11 116.56 148.27C116.56 147.43 117.44 146.91 118.79 146.91ZM118.79 147.49C117.9 147.49 117.33 147.79 117.33 148.27C117.33 148.75 117.9 149.05 118.79 149.05C119.66 149.05 120.23 148.75 120.23 148.27C120.23 147.79 119.66 147.49 118.79 147.49Z" fill="black" fill-opacity="0.87"/>
<path d="M117.696 178H116.226V171.364C116.226 171.131 116.226 170.916 116.226 170.72C116.236 170.515 116.245 170.319 116.254 170.132C116.264 169.936 116.273 169.749 116.282 169.572C116.161 169.693 116.035 169.81 115.904 169.922C115.774 170.034 115.624 170.165 115.456 170.314L114.364 171.196L113.608 170.244L116.464 168.004H117.696V178ZM127.864 178H121.144V176.852L123.72 174.234C124.224 173.721 124.644 173.277 124.98 172.904C125.316 172.521 125.568 172.157 125.736 171.812C125.904 171.457 125.988 171.075 125.988 170.664C125.988 170.151 125.839 169.768 125.54 169.516C125.241 169.255 124.854 169.124 124.378 169.124C123.921 169.124 123.51 169.213 123.146 169.39C122.782 169.558 122.404 169.796 122.012 170.104L121.214 169.11C121.485 168.877 121.774 168.667 122.082 168.48C122.399 168.293 122.749 168.144 123.132 168.032C123.524 167.92 123.953 167.864 124.42 167.864C125.055 167.864 125.601 167.976 126.058 168.2C126.515 168.415 126.865 168.723 127.108 169.124C127.36 169.525 127.486 169.997 127.486 170.538C127.486 170.939 127.425 171.317 127.304 171.672C127.183 172.017 127.005 172.358 126.772 172.694C126.548 173.03 126.273 173.371 125.946 173.716C125.619 174.061 125.26 174.425 124.868 174.808L123.006 176.614V176.684H127.864V178Z" fill="black" fill-opacity="0.87"/>
<path d="M164.24 152.13H165.07V153.6H164.24V152.13ZM168.04 146.74H168.87V155.78H168.04V146.74ZM168.6 150.58H170.27V151.28H168.6V150.58ZM161.91 154.06L161.79 153.37C163.41 153.37 165.62 153.35 167.49 153.08L167.56 153.7C165.61 154.05 163.49 154.06 161.91 154.06ZM161.94 147.83H167.35V148.5H161.94V147.83ZM164.65 149.03C165.91 149.03 166.78 149.69 166.78 150.7C166.78 151.72 165.91 152.37 164.65 152.37C163.39 152.37 162.53 151.72 162.53 150.7C162.53 149.69 163.39 149.03 164.65 149.03ZM164.65 149.67C163.84 149.67 163.31 150.08 163.31 150.7C163.31 151.32 163.84 151.73 164.65 151.73C165.46 151.73 166 151.32 166 150.7C166 150.08 165.46 149.67 164.65 149.67ZM164.24 146.75H165.07V148.28H164.24V146.75Z" fill="black" fill-opacity="0.87"/>
<path d="M162.696 178H161.226V171.364C161.226 171.131 161.226 170.916 161.226 170.72C161.236 170.515 161.245 170.319 161.254 170.132C161.264 169.936 161.273 169.749 161.282 169.572C161.161 169.693 161.035 169.81 160.904 169.922C160.774 170.034 160.624 170.165 160.456 170.314L159.364 171.196L158.608 170.244L161.464 168.004H162.696V178ZM172.472 170.314C172.472 170.762 172.383 171.154 172.206 171.49C172.038 171.817 171.795 172.083 171.478 172.288C171.161 172.493 170.797 172.643 170.386 172.736V172.792C171.189 172.885 171.786 173.137 172.178 173.548C172.579 173.949 172.78 174.481 172.78 175.144C172.78 175.723 172.64 176.241 172.36 176.698C172.089 177.146 171.665 177.501 171.086 177.762C170.517 178.014 169.784 178.14 168.888 178.14C168.356 178.14 167.861 178.098 167.404 178.014C166.947 177.93 166.513 177.79 166.102 177.594V176.25C166.522 176.465 166.97 176.628 167.446 176.74C167.931 176.852 168.393 176.908 168.832 176.908C169.681 176.908 170.293 176.749 170.666 176.432C171.039 176.105 171.226 175.653 171.226 175.074C171.226 174.701 171.128 174.397 170.932 174.164C170.736 173.921 170.437 173.744 170.036 173.632C169.635 173.511 169.135 173.45 168.538 173.45H167.628V172.232H168.552C169.121 172.232 169.583 172.162 169.938 172.022C170.293 171.873 170.554 171.667 170.722 171.406C170.89 171.145 170.974 170.846 170.974 170.51C170.974 170.062 170.825 169.717 170.526 169.474C170.237 169.222 169.817 169.096 169.266 169.096C168.93 169.096 168.617 169.133 168.328 169.208C168.048 169.283 167.791 169.381 167.558 169.502C167.325 169.623 167.096 169.759 166.872 169.908L166.144 168.886C166.396 168.699 166.676 168.527 166.984 168.368C167.301 168.209 167.651 168.088 168.034 168.004C168.426 167.911 168.851 167.864 169.308 167.864C170.344 167.864 171.128 168.093 171.66 168.55C172.201 168.998 172.472 169.586 172.472 170.314Z" fill="black" fill-opacity="0.87"/>
<path d="M210.55 147.06H211.28V147.56C211.28 149.29 209.52 150.53 207.64 150.85L207.31 150.18C208.96 149.93 210.55 148.85 210.55 147.56V147.06ZM210.7 147.06H211.42V147.56C211.42 148.82 213.03 149.93 214.66 150.18L214.33 150.85C212.47 150.53 210.7 149.27 210.7 147.56V147.06ZM210.55 152.34H211.37V155.78H210.55V152.34ZM206.9 151.83H215.07V152.52H206.9V151.83Z" fill="black" fill-opacity="0.87"/>
<path d="M207.696 178H206.226V171.364C206.226 171.131 206.226 170.916 206.226 170.72C206.236 170.515 206.245 170.319 206.254 170.132C206.264 169.936 206.273 169.749 206.282 169.572C206.161 169.693 206.035 169.81 205.904 169.922C205.774 170.034 205.624 170.165 205.456 170.314L204.364 171.196L203.608 170.244L206.464 168.004H207.696V178ZM218.242 175.788H216.856V178H215.414V175.788H210.78V174.612L215.386 167.962H216.856V174.528H218.242V175.788ZM215.414 171.812C215.414 171.588 215.414 171.373 215.414 171.168C215.423 170.963 215.433 170.767 215.442 170.58C215.451 170.384 215.456 170.207 215.456 170.048C215.465 169.88 215.475 169.731 215.484 169.6H215.428C215.353 169.787 215.26 169.978 215.148 170.174C215.045 170.37 214.938 170.543 214.826 170.692L212.18 174.528H215.414V171.812Z" fill="black" fill-opacity="0.87"/>
<path d="M252.94 147.11H259.02V150.19H252.94V147.11ZM258.2 147.78H253.75V149.52H258.2V147.78ZM251.89 151.32H260.06V151.99H251.89V151.32ZM255.57 150.01H256.39V151.57H255.57V150.01ZM252.8 152.92H259.05V155.78H258.22V153.6H252.8V152.92Z" fill="black" fill-opacity="0.87"/>
<path d="M252.696 178H251.226V171.364C251.226 171.131 251.226 170.916 251.226 170.72C251.236 170.515 251.245 170.319 251.254 170.132C251.264 169.936 251.273 169.749 251.282 169.572C251.161 169.693 251.035 169.81 250.904 169.922C250.774 170.034 250.624 170.165 250.456 170.314L249.364 171.196L248.608 170.244L251.464 168.004H252.696V178ZM259.448 171.798C260.111 171.798 260.689 171.915 261.184 172.148C261.679 172.381 262.061 172.717 262.332 173.156C262.612 173.595 262.752 174.131 262.752 174.766C262.752 175.466 262.603 176.068 262.304 176.572C262.005 177.076 261.571 177.463 261.002 177.734C260.442 178.005 259.756 178.14 258.944 178.14C258.431 178.14 257.945 178.093 257.488 178C257.031 177.907 256.643 177.771 256.326 177.594V176.236C256.662 176.432 257.068 176.591 257.544 176.712C258.029 176.833 258.491 176.894 258.93 176.894C259.406 176.894 259.812 176.824 260.148 176.684C260.493 176.535 260.759 176.315 260.946 176.026C261.142 175.727 261.24 175.354 261.24 174.906C261.24 174.299 261.049 173.837 260.666 173.52C260.293 173.193 259.7 173.03 258.888 173.03C258.627 173.03 258.333 173.053 258.006 173.1C257.689 173.147 257.432 173.193 257.236 173.24L256.55 172.834L256.928 168.004H262.066V169.32H258.216L257.992 171.938C258.151 171.91 258.351 171.882 258.594 171.854C258.837 171.817 259.121 171.798 259.448 171.798Z" fill="#5EDCC4"/>
<path d="M297.94 147.21H303.76V147.89H297.94V147.21ZM296.9 150.54H305.09V151.22H296.9V150.54ZM303.22 147.21H304.03V147.88C304.03 148.65 304.03 149.53 303.73 150.78L302.92 150.74C303.22 149.5 303.22 148.63 303.22 147.88V147.21ZM297.9 152.45H304.06V155.66H297.9V152.45ZM303.25 153.11H298.71V154.99H303.25V153.11Z" fill="black" fill-opacity="0.87"/>
<path d="M297.696 178H296.226V171.364C296.226 171.131 296.226 170.916 296.226 170.72C296.236 170.515 296.245 170.319 296.254 170.132C296.264 169.936 296.273 169.749 296.282 169.572C296.161 169.693 296.035 169.81 295.904 169.922C295.774 170.034 295.624 170.165 295.456 170.314L294.364 171.196L293.608 170.244L296.464 168.004H297.696V178ZM301.186 173.744C301.186 173.165 301.223 172.596 301.298 172.036C301.382 171.476 301.522 170.949 301.718 170.454C301.923 169.95 302.203 169.507 302.558 169.124C302.913 168.732 303.361 168.429 303.902 168.214C304.453 167.99 305.115 167.878 305.89 167.878C306.086 167.878 306.305 167.887 306.548 167.906C306.8 167.915 307.005 167.943 307.164 167.99V169.236C306.987 169.18 306.791 169.138 306.576 169.11C306.371 169.082 306.165 169.068 305.96 169.068C305.316 169.068 304.784 169.166 304.364 169.362C303.944 169.558 303.613 169.829 303.37 170.174C303.127 170.519 302.95 170.921 302.838 171.378C302.726 171.826 302.656 172.316 302.628 172.848H302.712C302.852 172.624 303.025 172.423 303.23 172.246C303.435 172.069 303.687 171.929 303.986 171.826C304.285 171.723 304.63 171.672 305.022 171.672C305.601 171.672 306.105 171.793 306.534 172.036C306.973 172.279 307.309 172.629 307.542 173.086C307.785 173.543 307.906 174.099 307.906 174.752C307.906 175.452 307.771 176.059 307.5 176.572C307.239 177.076 306.865 177.463 306.38 177.734C305.904 178.005 305.33 178.14 304.658 178.14C304.173 178.14 303.72 178.051 303.3 177.874C302.88 177.697 302.511 177.426 302.194 177.062C301.877 176.698 301.629 176.241 301.452 175.69C301.275 175.13 301.186 174.481 301.186 173.744ZM304.644 176.908C305.176 176.908 305.61 176.735 305.946 176.39C306.282 176.035 306.45 175.489 306.45 174.752C306.45 174.164 306.301 173.697 306.002 173.352C305.713 173.007 305.274 172.834 304.686 172.834C304.285 172.834 303.935 172.918 303.636 173.086C303.337 173.254 303.104 173.469 302.936 173.73C302.768 173.991 302.684 174.257 302.684 174.528C302.684 174.817 302.726 175.102 302.81 175.382C302.894 175.662 303.015 175.919 303.174 176.152C303.342 176.385 303.547 176.572 303.79 176.712C304.033 176.843 304.317 176.908 304.644 176.908Z" fill="black" fill-opacity="0.87"/>
<path d="M342.95 151.43H349.16V152.1H342.95V151.43ZM341.9 153.97H350.09V154.66H341.9V153.97ZM345.57 151.78H346.39V154.29H345.57V151.78ZM342.95 147.47H349.06V148.15H343.79V151.68H342.95V147.47ZM343.52 149.41H348.87V150.08H343.52V149.41Z" fill="#0075FF"/>
<path d="M341.696 178H340.226V171.364C340.226 171.131 340.226 170.916 340.226 170.72C340.236 170.515 340.245 170.319 340.254 170.132C340.264 169.936 340.273 169.749 340.282 169.572C340.161 169.693 340.035 169.81 339.904 169.922C339.774 170.034 339.624 170.165 339.456 170.314L338.364 171.196L337.608 170.244L340.464 168.004H341.696V178ZM346.306 178L350.296 169.32H345.046V168.004H351.892V169.068L347.916 178H346.306Z" fill="black" fill-opacity="0.87"/>
<circle cx="250" cy="188" r="5" fill="#F04D4D"/>
<circle cx="262" cy="188" r="5" fill="#22E62A"/>
<circle cx="69" cy="188" r="5" fill="#F04D4D"/>
<circle cx="81" cy="188" r="5" fill="#22E62A"/>
<circle cx="114" cy="188" r="5" fill="#F04D4D"/>
<circle cx="126" cy="188" r="5" fill="black" fill-opacity="0.25"/>
<circle cx="159" cy="188" r="5" fill="black" fill-opacity="0.25"/>
<circle cx="171" cy="188" r="5" fill="#16E61F"/>
<circle cx="204" cy="188" r="5" fill="#F04D4D"/>
<circle cx="216" cy="188" r="5" fill="#16E61F"/>
<circle cx="294" cy="188" r="5" fill="black" fill-opacity="0.25"/>
<circle cx="306" cy="188" r="5" fill="black" fill-opacity="0.25"/>
<circle cx="339" cy="188" r="5" fill="black" fill-opacity="0.25"/>
<circle cx="351" cy="188" r="5" fill="black" fill-opacity="0.25"/>
<line x1="50" y1="398.5" x2="370" y2="398.5" stroke="black" stroke-opacity="0.1"/>
<path d="M219.124 251.333L227.172 243.296C227.25 243.217 227.343 243.155 227.446 243.113C227.548 243.071 227.658 243.05 227.769 243.052C227.88 243.053 227.989 243.077 228.091 243.121C228.192 243.165 228.284 243.23 228.36 243.31C228.516 243.475 228.602 243.693 228.599 243.92C228.597 244.147 228.506 244.364 228.346 244.525L219.702 253.156C219.624 253.234 219.532 253.296 219.43 253.338C219.329 253.38 219.22 253.401 219.109 253.401C218.999 253.4 218.891 253.377 218.789 253.334C218.688 253.291 218.597 253.228 218.52 253.149L209.646 244.064C209.489 243.901 209.401 243.684 209.401 243.458C209.401 243.232 209.489 243.014 209.646 242.852C209.723 242.772 209.816 242.709 209.918 242.666C210.02 242.623 210.129 242.601 210.24 242.601C210.351 242.601 210.46 242.623 210.562 242.666C210.664 242.709 210.757 242.772 210.834 242.852L219.124 251.333Z" fill="black" fill-opacity="0.64"/>
<rect x="50" y="344" width="320" height="35" rx="5" fill="#5EDCC4"/>
<path d="M180.74 358.488H183.204V359.454H180.74V358.488ZM180.74 362.338H183.204V363.304H180.74V362.338ZM185.332 355.436H186.452V368.092H185.332V355.436ZM182.854 355.702H183.946V367.462H182.854V355.702ZM178.542 356.486C180.18 356.486 181.244 358.18 181.244 360.896C181.244 363.612 180.18 365.306 178.542 365.306C176.904 365.306 175.854 363.612 175.854 360.896C175.854 358.18 176.904 356.486 178.542 356.486ZM178.542 357.564C177.548 357.564 176.904 358.852 176.904 360.896C176.904 362.94 177.548 364.228 178.542 364.228C179.55 364.228 180.18 362.94 180.18 360.896C180.18 358.852 179.55 357.564 178.542 357.564ZM191.687 356.206H192.639V357.76C192.639 360.238 191.267 362.212 189.139 363.038L188.523 362.114C190.455 361.428 191.687 359.72 191.687 357.76V356.206ZM191.883 356.206H192.835V357.802C192.835 359.524 194.095 361.148 195.943 361.806L195.369 362.716C193.283 361.96 191.883 360.028 191.883 357.802V356.206ZM197.231 355.422H198.393V364.774H197.231V355.422ZM198.029 359.314H200.269V360.28H198.029V359.314ZM190.539 366.86H198.953V367.812H190.539V366.86ZM190.539 363.892H191.701V367.322H190.539V363.892ZM210.079 359.958H212.501V360.924H210.079V359.958ZM207.713 356.626H208.623V359.034C208.623 361.68 207.517 364.242 205.669 365.376L204.941 364.494C206.677 363.472 207.713 361.204 207.713 359.034V356.626ZM207.937 356.626H208.833V358.992C208.833 361.022 209.785 363.178 211.451 364.186L210.779 365.096C208.959 363.976 207.937 361.456 207.937 358.992V356.626ZM214.727 355.436H215.847V368.092H214.727V355.436ZM212.165 355.702H213.257V367.462H212.165V355.702ZM217.959 362.688H229.439V363.64H217.959V362.688ZM223.083 363.276H224.231V368.092H223.083V363.276ZM223.671 355.94C226.317 355.94 228.095 357.018 228.095 358.712C228.095 360.406 226.317 361.484 223.671 361.484C221.039 361.484 219.247 360.406 219.247 358.712C219.247 357.018 221.039 355.94 223.671 355.94ZM223.671 356.878C221.739 356.878 220.423 357.592 220.423 358.712C220.423 359.832 221.739 360.546 223.671 360.546C225.603 360.546 226.905 359.832 226.905 358.712C226.905 357.592 225.603 356.878 223.671 356.878ZM240.064 355.436H241.226V368.092H240.064V355.436ZM236.354 356.794H237.502C237.502 360.462 235.85 363.668 231.622 365.74L231.006 364.802C234.66 363.038 236.354 360.35 236.354 356.99V356.794ZM231.58 356.794H236.858V357.746H231.58V356.794Z" fill="white"/>
<rect x="50" y="486" width="320" height="70" rx="10" fill="white"/>
<rect x="50.35" y="486.35" width="319.3" height="69.3" rx="9.65" stroke="black" stroke-opacity="0.25" stroke-width="0.7"/>
<path d="M122.156 516.108H130.234V517.046H122.156V516.108ZM120.7 521.008H132.166V521.946H120.7V521.008ZM125.894 521.582H127.056V524.998H125.894V521.582ZM129.548 516.108H130.682V517.116C130.682 518.264 130.682 519.608 130.262 521.512L129.128 521.358C129.548 519.538 129.548 518.236 129.548 517.116V516.108ZM122.142 526.86H130.934V527.812H122.142V526.86ZM122.142 523.864H123.304V527.112H122.142V523.864ZM142.819 515.436H143.981V524.004H142.819V515.436ZM140.103 519.006H143.057V519.958H140.103V519.006ZM138.843 516.43H140.061C140.061 519.706 137.905 522.03 134.279 523.206L133.789 522.282C136.995 521.274 138.843 519.37 138.843 516.892V516.43ZM134.391 516.43H139.669V517.382H134.391V516.43ZM139.319 522.912H140.313V523.486C140.313 525.908 138.101 527.546 135.567 528.064L135.105 527.14C137.345 526.734 139.319 525.334 139.319 523.486V522.912ZM139.487 522.912H140.481V523.486C140.481 525.306 142.427 526.706 144.681 527.112L144.191 528.036C141.671 527.532 139.487 525.894 139.487 523.486V522.912ZM155.656 515.436H156.818V521.988H155.656V515.436ZM148.642 522.604H156.832V525.642H149.804V527.448H148.67V524.802H155.684V523.528H148.642V522.604ZM148.67 527.028H157.252V527.952H148.67V527.028ZM149.818 516.556H150.77V517.214C150.77 519.454 149.314 521.302 147.172 522.016L146.626 521.106C148.516 520.49 149.818 518.936 149.818 517.214V516.556ZM150.056 516.556H151.008V517.214C151.008 518.824 152.324 520.28 154.2 520.854L153.654 521.75C151.526 521.092 150.056 519.342 150.056 517.214V516.556ZM146.934 516.15H153.864V517.088H146.934V516.15ZM171.625 515.45H172.787V524.942H171.625V515.45ZM172.423 519.594H174.663V520.574H172.423V519.594ZM163.001 516.976H170.477V517.914H163.001V516.976ZM166.739 518.614C168.531 518.614 169.763 519.552 169.763 520.98C169.763 522.394 168.531 523.332 166.739 523.332C164.933 523.332 163.701 522.394 163.701 520.98C163.701 519.552 164.933 518.614 166.739 518.614ZM166.739 519.524C165.591 519.524 164.807 520.098 164.807 520.98C164.807 521.848 165.591 522.422 166.739 522.422C167.873 522.422 168.657 521.848 168.657 520.98C168.657 520.098 167.873 519.524 166.739 519.524ZM166.151 515.436H167.313V517.466H166.151V515.436ZM164.905 526.86H173.361V527.812H164.905V526.86ZM164.905 524.186H166.067V527.266H164.905V524.186ZM181.816 519.006H185.456V519.958H181.816V519.006ZM185.092 515.45H186.254V524.816H185.092V515.45ZM178.12 526.86H186.562V527.812H178.12V526.86ZM178.12 523.906H179.282V527.35H178.12V523.906ZM176.468 516.276H177.616V518.516H181.046V516.276H182.18V522.66H176.468V516.276ZM177.616 519.426V521.708H181.046V519.426H177.616ZM189.249 516.57H195.059V522.436H189.249V516.57ZM193.925 517.508H190.383V521.498H193.925V517.508ZM197.383 515.422H198.545V524.704H197.383V515.422ZM198.181 519.286H200.421V520.252H198.181V519.286ZM190.663 526.86H199.119V527.812H190.663V526.86ZM190.663 523.822H191.825V527.266H190.663V523.822ZM213.815 515.436H214.977V528.092H213.815V515.436ZM214.697 520.63H217.049V521.61H214.697V520.63ZM205.177 517.452H212.639V518.404H205.177V517.452ZM208.957 519.454C210.749 519.454 212.037 520.658 212.037 522.366C212.037 524.074 210.749 525.278 208.957 525.278C207.179 525.278 205.877 524.074 205.877 522.366C205.877 520.658 207.179 519.454 208.957 519.454ZM208.957 520.42C207.809 520.42 206.983 521.218 206.983 522.366C206.983 523.5 207.809 524.312 208.957 524.312C210.105 524.312 210.931 523.5 210.931 522.366C210.931 521.218 210.105 520.42 208.957 520.42ZM208.355 515.59H209.517V517.886H208.355V515.59ZM227.338 515.436H228.5V528.092H227.338V515.436ZM223.628 516.794H224.776C224.776 520.462 223.124 523.668 218.896 525.74L218.28 524.802C221.934 523.038 223.628 520.35 223.628 516.99V516.794ZM218.854 516.794H224.132V517.746H218.854V516.794Z" fill="black" fill-opacity="0.87"/>
<rect x="65" y="501" width="40" height="40" rx="20" fill="#A9E9DD"/>
<path d="M92.07 533.834H94.0067C94.9867 533.834 95.7917 533.075 95.9083 532.119L97.8333 512.892H92V508.167H89.7017V512.892H83.9033L84.2533 515.622C86.2483 516.17 88.115 517.162 89.235 518.259C90.915 519.915 92.07 521.63 92.07 524.43V533.834ZM72.1667 532.667V531.5H89.7017V532.667C89.7017 533.297 89.1767 533.834 88.5 533.834H73.3333C72.6917 533.834 72.1667 533.297 72.1667 532.667ZM89.7017 524.5C89.7017 515.167 72.1667 515.167 72.1667 524.5H89.7017ZM72.1667 526.834H89.6667V529.167H72.1667V526.834Z" fill="white"/>
<circle cx="343" cy="521" r="12" fill="white"/>
<circle cx="343" cy="521" r="11.5" stroke="black" stroke-opacity="0.34"/>
<path d="M350.347 517.659L341.347 526.659C341.269 526.738 341.175 526.8 341.073 526.843C340.97 526.885 340.86 526.907 340.749 526.907C340.638 526.907 340.528 526.885 340.426 526.843C340.323 526.8 340.23 526.738 340.152 526.659L336.214 522.722C336.136 522.643 336.073 522.55 336.031 522.448C335.988 522.345 335.967 522.235 335.967 522.124C335.967 522.013 335.988 521.903 336.031 521.801C336.073 521.698 336.136 521.605 336.214 521.526C336.293 521.448 336.386 521.386 336.488 521.343C336.591 521.301 336.701 521.279 336.812 521.279C336.923 521.279 337.033 521.301 337.135 521.343C337.238 521.386 337.331 521.448 337.409 521.526L340.75 524.867L349.153 516.465C349.312 516.307 349.527 516.218 349.751 516.218C349.975 516.218 350.19 516.307 350.348 516.465C350.507 516.624 350.596 516.839 350.596 517.063C350.596 517.287 350.507 517.502 350.348 517.661L350.347 517.659Z" fill="black" fill-opacity="0.34"/>
<rect x="50" y="566" width="320" height="70" rx="10" fill="white"/>
<rect x="50.35" y="566.35" width="319.3" height="69.3" rx="9.65" stroke="black" stroke-opacity="0.25" stroke-width="0.7"/>
<path d="M121.232 601.484H122.044C124.032 601.484 125.208 601.442 126.622 601.162L126.734 602.114C125.278 602.394 124.074 602.45 122.044 602.45H121.232V601.484ZM121.232 596.36H126.132V597.312H122.352V602.002H121.232V596.36ZM122.002 598.88H125.978V599.79H122.002V598.88ZM130.248 595.436H131.354V603.108H130.248V595.436ZM128.204 598.74H130.598V599.692H128.204V598.74ZM127.462 595.674H128.554V603.038H127.462V595.674ZM122.87 603.78H131.354V608.092H130.206V604.732H122.87V603.78ZM136.911 596.528H137.863V598.796C137.863 601.708 136.295 604.41 134.223 605.46L133.509 604.508C135.385 603.612 136.911 601.19 136.911 598.796V596.528ZM137.107 596.528H138.059V598.796C138.059 601.106 139.571 603.43 141.447 604.298L140.747 605.222C138.689 604.214 137.107 601.61 137.107 598.796V596.528ZM142.763 595.422H143.925V608.106H142.763V595.422ZM159.713 595.436H160.833V608.092H159.713V595.436ZM157.571 600.504H160.007V601.47H157.571V600.504ZM156.843 595.716H157.935V607.448H156.843V595.716ZM150.543 604.004H151.369C153.217 604.004 154.477 603.934 155.947 603.626L156.059 604.592C154.547 604.914 153.273 604.97 151.369 604.97H150.543V604.004ZM150.543 596.976H155.247V597.928H151.691V604.438H150.543V596.976ZM172.171 595.45H173.347V604.718H172.171V595.45ZM165.213 606.86H173.725V607.812H165.213V606.86ZM165.213 603.864H166.361V607.308H165.213V603.864ZM166.263 596.136H167.229V597.424C167.229 599.888 165.829 602.044 163.701 602.912L163.099 601.974C165.003 601.232 166.263 599.384 166.263 597.424V596.136ZM166.473 596.136H167.425V597.424C167.425 599.328 168.699 601.05 170.589 601.736L169.973 602.674C167.873 601.862 166.473 599.832 166.473 597.424V596.136ZM188.729 595.436H189.891V601.918H188.729V595.436ZM185.985 598.474H188.911V599.412H185.985V598.474ZM184.669 596.052H185.887C185.887 599.202 183.703 601.26 180.077 602.184L179.671 601.246C182.877 600.462 184.669 598.796 184.669 596.57V596.052ZM180.343 596.052H185.607V596.99H180.343V596.052ZM181.743 602.464H189.891V605.586H182.933V607.588H181.785V604.69H188.743V603.402H181.743V602.464ZM181.785 607.042H190.311V607.966H181.785V607.042ZM195.742 596.402C197.576 596.402 198.892 598.124 198.892 600.812C198.892 603.514 197.576 605.236 195.742 605.236C193.894 605.236 192.592 603.514 192.592 600.812C192.592 598.124 193.894 596.402 195.742 596.402ZM195.742 597.452C194.524 597.452 193.698 598.768 193.698 600.812C193.698 602.87 194.524 604.214 195.742 604.214C196.96 604.214 197.786 602.87 197.786 600.812C197.786 598.768 196.96 597.452 195.742 597.452ZM201.636 595.422H202.784V608.106H201.636V595.422ZM198.514 600.252H202.14V601.204H198.514V600.252ZM213.801 595.422H214.977V608.106H213.801V595.422ZM214.697 600.42H217.049V601.4H214.697V600.42ZM205.779 603.976H206.773C209.111 603.976 210.749 603.892 212.639 603.542L212.765 604.522C210.819 604.886 209.153 604.956 206.773 604.956H205.779V603.976ZM205.779 596.654H211.659V597.606H206.927V604.41H205.779V596.654ZM227.324 595.436H228.486V608.092H227.324V595.436ZM218.924 596.668H220.072V604.508H218.924V596.668ZM218.924 603.822H219.96C221.878 603.822 223.88 603.682 226.022 603.234L226.162 604.228C223.964 604.676 221.962 604.83 219.96 604.83H218.924V603.822ZM240.217 595.436H241.379V608.092H240.217V595.436ZM236.507 596.794H237.655C237.655 600.462 236.003 603.668 231.775 605.74L231.159 604.802C234.813 603.038 236.507 600.35 236.507 596.99V596.794ZM231.733 596.794H237.011V597.746H231.733V596.794Z" fill="black" fill-opacity="0.87"/>
<rect x="65" y="581" width="40" height="40" rx="20" fill="#A9E9DD"/>
<path d="M76.8333 599.833L78.5833 594.583H91.4167L93.1667 599.833M91.4167 605.666C90.9525 605.666 90.5074 605.482 90.1792 605.154C89.851 604.826 89.6667 604.38 89.6667 603.916C89.6667 603.452 89.851 603.007 90.1792 602.679C90.5074 602.351 90.9525 602.166 91.4167 602.166C91.8808 602.166 92.3259 602.351 92.6541 602.679C92.9823 603.007 93.1667 603.452 93.1667 603.916C93.1667 604.38 92.9823 604.826 92.6541 605.154C92.3259 605.482 91.8808 605.666 91.4167 605.666ZM78.5833 605.666C78.1192 605.666 77.6741 605.482 77.3459 605.154C77.0177 604.826 76.8333 604.38 76.8333 603.916C76.8333 603.452 77.0177 603.007 77.3459 602.679C77.6741 602.351 78.1192 602.166 78.5833 602.166C79.0475 602.166 79.4926 602.351 79.8208 602.679C80.149 603.007 80.3333 603.452 80.3333 603.916C80.3333 604.38 80.149 604.826 79.8208 605.154C79.4926 605.482 79.0475 605.666 78.5833 605.666ZM93.0733 594C92.84 593.323 92.1867 592.833 91.4167 592.833H78.5833C77.8133 592.833 77.16 593.323 76.9267 594L74.5 601V610.333C74.5 610.642 74.6229 610.939 74.8417 611.158C75.0605 611.377 75.3572 611.5 75.6667 611.5H76.8333C77.1428 611.5 77.4395 611.377 77.6583 611.158C77.8771 610.939 78 610.642 78 610.333V609.166H92V610.333C92 610.642 92.1229 610.939 92.3417 611.158C92.5605 611.377 92.8572 611.5 93.1667 611.5H94.3333C94.6428 611.5 94.9395 611.377 95.1583 611.158C95.3771 610.939 95.5 610.642 95.5 610.333V601L93.0733 594Z" fill="white"/>
<circle cx="343" cy="601" r="12" fill="white"/>
<circle cx="343" cy="601" r="11.5" stroke="black" stroke-opacity="0.34"/>
<path d="M350.347 597.659L341.347 606.659C341.269 606.738 341.175 606.8 341.073 606.843C340.97 606.885 340.86 606.907 340.749 606.907C340.638 606.907 340.528 606.885 340.426 606.843C340.323 606.8 340.23 606.738 340.152 606.659L336.214 602.722C336.136 602.643 336.073 602.55 336.031 602.448C335.988 602.345 335.967 602.235 335.967 602.124C335.967 602.013 335.988 601.903 336.031 601.801C336.073 601.698 336.136 601.605 336.214 601.526C336.293 601.448 336.386 601.386 336.488 601.343C336.591 601.301 336.701 601.279 336.812 601.279C336.923 601.279 337.033 601.301 337.135 601.343C337.238 601.386 337.331 601.448 337.409 601.526L340.75 604.867L349.153 596.465C349.312 596.307 349.527 596.218 349.751 596.218C349.975 596.218 350.19 596.307 350.348 596.465C350.507 596.624 350.596 596.839 350.596 597.063C350.596 597.287 350.507 597.502 350.348 597.661L350.347 597.659Z" fill="black" fill-opacity="0.34"/>
<rect x="50" y="646" width="320" height="70" rx="10" fill="white"/>
<rect x="50.35" y="646.35" width="319.3" height="69.3" rx="9.65" stroke="black" stroke-opacity="0.25" stroke-width="0.7"/>
<path d="M129.94 675.436H131.102V684.858H129.94V675.436ZM121.064 676.458H127.728V677.41H121.064V676.458ZM120.854 682.954L120.728 681.96C122.8 681.96 125.754 681.932 128.12 681.652L128.19 682.52C125.754 682.912 122.912 682.954 120.854 682.954ZM122.324 677.27H123.444V682.128H122.324V677.27ZM125.348 677.27H126.468V682.128H125.348V677.27ZM127.84 677.83H130.556V678.782H127.84V677.83ZM127.84 680.252H130.556V681.204H127.84V680.252ZM123.01 686.86H131.438V687.812H123.01V686.86ZM123.01 684.088H124.172V687.462H123.01V684.088ZM137.681 676.346C139.655 676.346 141.069 677.564 141.069 679.328C141.069 681.106 139.655 682.324 137.681 682.324C135.707 682.324 134.279 681.106 134.279 679.328C134.279 677.564 135.707 676.346 137.681 676.346ZM137.681 677.354C136.365 677.354 135.413 678.152 135.413 679.328C135.413 680.504 136.365 681.316 137.681 681.316C138.983 681.316 139.935 680.504 139.935 679.328C139.935 678.152 138.983 677.354 137.681 677.354ZM142.721 675.422H143.883V688.106H142.721V675.422ZM133.803 685.334L133.635 684.368C135.945 684.368 139.137 684.354 141.895 683.92L141.993 684.774C139.151 685.32 136.057 685.334 133.803 685.334ZM153.206 678.6H156.02V679.566H153.206V678.6ZM155.698 675.436H156.86V682.842H155.698V675.436ZM148.656 683.458H156.86V687.924H148.656V683.458ZM155.726 684.382H149.79V686.986H155.726V684.382ZM149.678 676.64H150.63V677.662C150.63 679.972 149.202 681.946 147.088 682.73L146.486 681.806C148.376 681.134 149.678 679.454 149.678 677.662V676.64ZM149.902 676.64H150.84V677.648C150.84 679.286 152.072 680.868 153.906 681.512L153.318 682.436C151.26 681.694 149.902 679.776 149.902 677.648V676.64ZM146.85 676.248H153.612V677.186H146.85V676.248ZM168.223 676.752H169.343C169.343 680.406 168.083 683.766 163.631 686.006L162.973 685.11C166.879 683.15 168.223 680.336 168.223 676.878V676.752ZM163.659 676.752H168.923V677.69H163.659V676.752ZM168.153 679.888V680.77L163.211 681.232L163.015 680.224L168.153 679.888ZM172.213 675.436H173.375V688.092H172.213V675.436ZM169.315 680.504H172.773V681.47H169.315V680.504ZM185.064 675.436H186.226V688.092H185.064V675.436ZM176.16 676.794H183.328V677.746H176.16V676.794ZM175.964 684.97L175.824 683.976C178.176 683.976 181.284 683.948 183.972 683.626L184.042 684.48C181.312 684.914 178.274 684.956 175.964 684.97ZM177.56 677.508H178.68V684.242H177.56V677.508ZM180.794 677.508H181.928V684.242H180.794V677.508ZM192.858 676.696H198.668V684.886H192.858V676.696ZM197.534 677.634H193.992V683.948H197.534V677.634ZM200.922 675.436H202.098V688.092H200.922V675.436ZM201.818 680.49H204.17V681.47H201.818V680.49ZM208.579 676.528H209.531V678.796C209.531 681.708 207.963 684.41 205.891 685.46L205.177 684.508C207.053 683.612 208.579 681.19 208.579 678.796V676.528ZM208.775 676.528H209.727V678.796C209.727 681.106 211.239 683.43 213.115 684.298L212.415 685.222C210.357 684.214 208.775 681.61 208.775 678.796V676.528ZM214.431 675.422H215.593V688.106H214.431V675.422ZM227.338 675.436H228.5V688.092H227.338V675.436ZM223.628 676.794H224.776C224.776 680.462 223.124 683.668 218.896 685.74L218.28 684.802C221.934 683.038 223.628 680.35 223.628 676.99V676.794ZM218.854 676.794H224.132V677.746H218.854V676.794Z" fill="black" fill-opacity="0.87"/>
<rect x="65" y="661" width="40" height="40" rx="20" fill="#A9E9DD"/>
<path d="M92.07 693.834H94.0067C94.9867 693.834 95.7917 693.075 95.9083 692.119L97.8333 672.892H92V668.167H89.7017V672.892H83.9033L84.2533 675.622C86.2483 676.17 88.115 677.162 89.235 678.259C90.915 679.915 92.07 681.63 92.07 684.43V693.834ZM72.1667 692.667V691.5H89.7017V692.667C89.7017 693.297 89.1767 693.834 88.5 693.834H73.3333C72.6917 693.834 72.1667 693.297 72.1667 692.667ZM89.7017 684.5C89.7017 675.167 72.1667 675.167 72.1667 684.5H89.7017ZM72.1667 686.834H89.6667V689.167H72.1667V686.834Z" fill="white"/>
<circle cx="343" cy="681" r="12" fill="white"/>
<circle cx="343" cy="681" r="11.5" stroke="black" stroke-opacity="0.34"/>
<path d="M350.347 677.659L341.347 686.659C341.269 686.738 341.175 686.8 341.073 686.843C340.97 686.885 340.86 686.907 340.749 686.907C340.638 686.907 340.528 686.885 340.426 686.843C340.323 686.8 340.23 686.738 340.152 686.659L336.214 682.722C336.136 682.643 336.073 682.55 336.031 682.448C335.988 682.345 335.967 682.235 335.967 682.124C335.967 682.013 335.988 681.903 336.031 681.801C336.073 681.698 336.136 681.605 336.214 681.526C336.293 681.448 336.386 681.386 336.488 681.343C336.591 681.301 336.701 681.279 336.812 681.279C336.923 681.279 337.033 681.301 337.135 681.343C337.238 681.386 337.331 681.448 337.409 681.526L340.75 684.867L349.153 676.465C349.312 676.307 349.527 676.218 349.751 676.218C349.975 676.218 350.19 676.307 350.348 676.465C350.507 676.624 350.596 676.839 350.596 677.063C350.596 677.287 350.507 677.502 350.348 677.661L350.347 677.659Z" fill="black" fill-opacity="0.34"/>
<rect x="50" y="726" width="320" height="70" rx="10" fill="white"/>
<rect x="50.35" y="726.35" width="319.3" height="69.3" rx="9.65" stroke="black" stroke-opacity="0.25" stroke-width="0.7"/>
<path d="M120.672 757.592H126.944V758.544H120.672V757.592ZM123.808 759.384C125.39 759.384 126.538 760.574 126.538 762.282C126.538 763.976 125.39 765.166 123.808 765.166C122.24 765.166 121.092 763.976 121.092 762.282C121.092 760.574 122.24 759.384 123.808 759.384ZM123.808 760.378C122.842 760.378 122.142 761.162 122.142 762.282C122.142 763.402 122.842 764.186 123.808 764.186C124.788 764.186 125.502 763.402 125.502 762.282C125.502 761.162 124.788 760.378 123.808 760.378ZM130.29 755.436H131.41V768.092H130.29V755.436ZM128.274 760.756H130.668V761.722H128.274V760.756ZM127.588 755.716H128.68V767.476H127.588V755.716ZM123.248 755.8H124.396V758.18H123.248V755.8ZM142.777 755.45H143.939V764.774H142.777V755.45ZM135.693 766.86H144.289V767.812H135.693V766.86ZM135.693 764.032H136.855V767.336H135.693V764.032ZM134.223 762.016H135.245C137.639 762.016 139.305 761.932 141.265 761.596L141.391 762.548C139.375 762.898 137.695 762.968 135.245 762.968H134.223V762.016ZM134.195 756.332H139.935V760H135.357V762.31H134.223V759.104H138.801V757.284H134.195V756.332ZM155.642 755.422H156.804V768.106H155.642V755.422ZM150.126 756.402C152.002 756.402 153.346 758.124 153.346 760.812C153.346 763.514 152.002 765.236 150.126 765.236C148.264 765.236 146.92 763.514 146.92 760.812C146.92 758.124 148.264 756.402 150.126 756.402ZM150.126 757.452C148.894 757.452 148.026 758.768 148.026 760.812C148.026 762.87 148.894 764.214 150.126 764.214C151.372 764.214 152.226 762.87 152.226 760.812C152.226 758.768 151.372 757.452 150.126 757.452ZM167.989 755.45H169.151V764.942H167.989V755.45ZM168.787 759.594H171.027V760.574H168.787V759.594ZM159.365 756.976H166.841V757.914H159.365V756.976ZM163.103 758.614C164.895 758.614 166.127 759.552 166.127 760.98C166.127 762.394 164.895 763.332 163.103 763.332C161.297 763.332 160.065 762.394 160.065 760.98C160.065 759.552 161.297 758.614 163.103 758.614ZM163.103 759.524C161.955 759.524 161.171 760.098 161.171 760.98C161.171 761.848 161.955 762.422 163.103 762.422C164.237 762.422 165.021 761.848 165.021 760.98C165.021 760.098 164.237 759.524 163.103 759.524ZM162.515 755.436H163.677V757.466H162.515V755.436ZM161.269 766.86H169.725V767.812H161.269V766.86ZM161.269 764.186H162.431V767.266H161.269V764.186ZM177.466 760.224H179.846V761.19H177.466V760.224ZM172.678 764.102H173.49C175.436 764.102 176.598 764.06 177.998 763.78L178.11 764.732C176.668 765.012 175.464 765.054 173.49 765.054H172.678V764.102ZM172.678 756.962H177.368V757.9H173.784V764.424H172.678V756.962ZM173.448 760.378H176.794V761.302H173.448V760.378ZM181.834 755.436H182.954V768.092H181.834V755.436ZM179.286 755.73H180.392V767.448H179.286V755.73ZM197.929 755.436H199.091V762.03H197.929V755.436ZM190.915 762.688H199.105V765.698H192.077V767.476H190.943V764.83H197.957V763.612H190.915V762.688ZM190.943 767.042H199.525V767.952H190.943V767.042ZM189.389 755.94H190.523V757.774H194.163V755.94H195.311V761.484H189.389V755.94ZM190.523 758.67V760.546H194.163V758.67H190.523ZM210.808 755.45H211.97V764.774H210.808V755.45ZM203.724 766.86H212.32V767.812H203.724V766.86ZM203.724 764.032H204.886V767.336H203.724V764.032ZM202.254 762.016H203.276C205.67 762.016 207.336 761.932 209.296 761.596L209.422 762.548C207.406 762.898 205.726 762.968 203.276 762.968H202.254V762.016ZM202.226 756.332H207.966V760H203.388V762.31H202.254V759.104H206.832V757.284H202.226V756.332ZM218.126 762.1H229.564V763.038H218.126V762.1ZM223.264 760.028H224.412V762.576H223.264V760.028ZM219.568 759.496H228.248V760.448H219.568V759.496ZM219.568 756.066H228.136V757.018H220.73V759.902H219.568V756.066ZM219.582 766.86H228.36V767.812H219.582V766.86ZM219.582 764.172H220.744V767.182H219.582V764.172ZM239.709 756.682H240.717V757.214C240.717 759.482 238.309 761.148 235.761 761.582L235.313 760.658C237.539 760.336 239.709 758.88 239.709 757.214V756.682ZM240.003 756.682H240.997V757.214C240.997 758.88 243.181 760.336 245.393 760.658L244.959 761.582C242.397 761.148 240.003 759.482 240.003 757.214V756.682ZM239.751 763.262H240.899V768.092H239.751V763.262ZM234.641 762.646H246.079V763.598H234.641V762.646ZM235.705 756.22H244.973V757.158H235.705V756.22ZM256.732 755.436H257.894V768.092H256.732V755.436ZM253.022 756.794H254.17C254.17 760.462 252.518 763.668 248.29 765.74L247.674 764.802C251.328 763.038 253.022 760.35 253.022 756.99V756.794ZM248.248 756.794H253.526V757.746H248.248V756.794Z" fill="black" fill-opacity="0.87"/>
<circle cx="343" cy="761" r="12" fill="white"/>
<circle cx="343" cy="761" r="11.5" stroke="black" stroke-opacity="0.34"/>
<path d="M350.347 757.659L341.347 766.659C341.269 766.738 341.175 766.8 341.073 766.843C340.97 766.885 340.86 766.907 340.749 766.907C340.638 766.907 340.528 766.885 340.426 766.843C340.323 766.8 340.23 766.738 340.152 766.659L336.214 762.722C336.136 762.643 336.073 762.55 336.031 762.448C335.988 762.345 335.967 762.235 335.967 762.124C335.967 762.013 335.988 761.903 336.031 761.801C336.073 761.698 336.136 761.605 336.214 761.526C336.293 761.448 336.386 761.386 336.488 761.343C336.591 761.301 336.701 761.279 336.812 761.279C336.923 761.279 337.033 761.301 337.135 761.343C337.238 761.386 337.331 761.448 337.409 761.526L340.75 764.867L349.153 756.465C349.312 756.307 349.527 756.218 349.751 756.218C349.975 756.218 350.19 756.307 350.348 756.465C350.507 756.624 350.596 756.839 350.596 757.063C350.596 757.287 350.507 757.502 350.348 757.661L350.347 757.659Z" fill="black" fill-opacity="0.34"/>
<rect x="50" y="806" width="320" height="70" rx="10" fill="white"/>
<rect x="50.35" y="806.35" width="319.3" height="69.3" rx="9.65" stroke="black" stroke-opacity="0.25" stroke-width="0.7"/>
<path d="M120.686 842.926H132.166V843.878H120.686V842.926ZM125.81 843.374H126.958V848.092H125.81V843.374ZM122.128 835.94H123.29V837.676H129.548V835.94H130.696V841.414H122.128V835.94ZM123.29 838.614V840.476H129.548V838.614H123.29ZM133.579 845.516H145.045V846.482H133.579V845.516ZM138.703 842.24H139.865V845.782H138.703V842.24ZM134.909 836.486H143.645V842.45H134.909V836.486ZM142.525 837.424H136.043V841.512H142.525V837.424ZM155.656 835.436H156.818V842.604H155.656V835.436ZM147.242 836.164H148.39V841.316H147.242V836.164ZM147.242 840.672H148.264C150.378 840.672 152.268 840.532 154.284 840.112L154.452 841.064C152.352 841.512 150.448 841.652 148.264 841.652H147.242V840.672ZM148.642 843.22H156.818V847.924H148.642V843.22ZM155.684 844.144H149.776V846.972H155.684V844.144ZM165.787 839.72H166.935V842.114H165.787V839.72ZM170.435 839.72H171.583V842.114H170.435V839.72ZM162.959 841.694H174.397V842.632H162.959V841.694ZM168.671 843.584C171.387 843.584 173.011 844.382 173.011 845.824C173.011 847.266 171.387 848.078 168.671 848.078C165.955 848.078 164.331 847.266 164.331 845.824C164.331 844.382 165.955 843.584 168.671 843.584ZM168.671 844.48C166.697 844.48 165.507 844.97 165.507 845.824C165.507 846.692 166.697 847.168 168.671 847.168C170.659 847.168 171.835 846.692 171.835 845.824C171.835 844.97 170.659 844.48 168.671 844.48ZM168.685 835.66C171.429 835.66 173.137 836.542 173.137 838.026C173.137 839.496 171.429 840.364 168.685 840.364C165.927 840.364 164.233 839.496 164.233 838.026C164.233 836.542 165.927 835.66 168.685 835.66ZM168.685 836.57C166.669 836.57 165.423 837.102 165.423 838.026C165.423 838.936 166.669 839.468 168.685 839.468C170.701 839.468 171.947 838.936 171.947 838.026C171.947 837.102 170.701 836.57 168.685 836.57ZM175.852 842.1H187.29V843.038H175.852V842.1ZM180.99 840.028H182.138V842.576H180.99V840.028ZM177.294 839.496H185.974V840.448H177.294V839.496ZM177.294 836.066H185.862V837.018H178.456V839.902H177.294V836.066ZM177.308 846.86H186.086V847.812H177.308V846.86ZM177.308 844.172H178.47V847.182H177.308V844.172ZM193.81 841.498H202.504V842.45H193.81V841.498ZM192.368 845.418H203.834V846.384H192.368V845.418ZM193.81 836.598H202.378V837.564H194.972V841.918H193.81V836.598ZM214.459 835.422H215.621V848.106H214.459V835.422ZM205.975 844.088H207.025C209.139 844.088 211.029 844.004 213.269 843.64L213.395 844.592C211.099 844.97 209.195 845.054 207.025 845.054H205.975V844.088ZM205.947 836.612H211.799V841.134H207.137V844.452H205.975V840.182H210.623V837.564H205.947V836.612ZM227.338 835.436H228.5V848.092H227.338V835.436ZM223.628 836.794H224.776C224.776 840.462 223.124 843.668 218.896 845.74L218.28 844.802C221.934 843.038 223.628 840.35 223.628 836.99V836.794ZM218.854 836.794H224.132V837.746H218.854V836.794Z" fill="black" fill-opacity="0.87"/>
<circle cx="343" cy="841" r="12" fill="white"/>
<circle cx="343" cy="841" r="11.5" stroke="black" stroke-opacity="0.34"/>
<path d="M350.347 837.659L341.347 846.659C341.269 846.738 341.175 846.8 341.073 846.843C340.97 846.885 340.86 846.907 340.749 846.907C340.638 846.907 340.528 846.885 340.426 846.843C340.323 846.8 340.23 846.738 340.152 846.659L336.214 842.722C336.136 842.643 336.073 842.55 336.031 842.448C335.988 842.345 335.967 842.235 335.967 842.124C335.967 842.013 335.988 841.903 336.031 841.801C336.073 841.698 336.136 841.605 336.214 841.526C336.293 841.448 336.386 841.386 336.488 841.343C336.591 841.301 336.701 841.279 336.812 841.279C336.923 841.279 337.033 841.301 337.135 841.343C337.238 841.386 337.331 841.448 337.409 841.526L340.75 844.867L349.153 836.465C349.312 836.307 349.527 836.218 349.751 836.218C349.975 836.218 350.19 836.307 350.348 836.465C350.507 836.624 350.596 836.839 350.596 837.063C350.596 837.287 350.507 837.502 350.348 837.661L350.347 837.659Z" fill="black" fill-opacity="0.34"/>
<rect x="65" y="741" width="40" height="40" rx="20" fill="#A9E9DD"/>
<path d="M97.0879 764.46L97.5893 766.081C96.6756 766.493 95.7285 766.7 94.7479 766.7C93.355 766.7 92.2352 766.293 91.3883 765.479C90.5415 764.666 90.118 763.568 90.118 762.187C90.118 760.772 90.5247 759.668 91.3382 758.877C92.1627 758.075 93.2993 757.674 94.7479 757.674C95.7285 757.674 96.6756 757.88 97.5893 758.292L97.0879 759.947C96.3859 759.546 95.6393 759.345 94.8482 759.345C94.057 759.345 93.4386 759.59 92.9929 760.081C92.5583 760.571 92.341 761.273 92.341 762.187C92.341 763.078 92.5695 763.78 93.0263 764.293C93.4943 764.805 94.1016 765.062 94.8482 765.062C95.6505 765.062 96.397 764.861 97.0879 764.46Z" fill="white"/>
<path d="M85.5644 758.176H88.5563V759.797H85.5644V763.357C85.5644 764.015 85.648 764.46 85.8151 764.694C85.9823 764.917 86.2831 765.029 86.7177 765.029C87.2526 765.029 87.754 764.934 88.222 764.744L88.5061 766.366C87.8153 766.589 87.0687 766.7 86.2664 766.7C85.2413 766.7 84.4947 766.472 84.0267 766.015C83.5699 765.558 83.3414 764.8 83.3414 763.742V759.797H81.5363V758.176H83.3414V755H85.5644V758.176Z" fill="white"/>
<path d="M74.1729 761.485H78.2511C78.24 760.76 78.0561 760.209 77.6996 759.83C77.3541 759.44 76.8639 759.245 76.2287 759.245C75.6159 759.245 75.1256 759.44 74.7579 759.83C74.4013 760.22 74.2063 760.772 74.1729 761.485ZM74.1729 762.972C74.2286 763.63 74.4793 764.153 74.925 764.543C75.3819 764.922 75.9557 765.112 76.6466 765.112C77.4711 765.112 78.2901 764.906 79.1036 764.493L79.605 766.031C78.6021 766.477 77.5436 766.7 76.4293 766.7C75.1144 766.7 74.0447 766.293 73.2201 765.479C72.4067 764.666 72 763.568 72 762.187C72 760.783 72.3789 759.68 73.1366 758.877C73.8943 758.075 74.9194 757.674 76.212 757.674C77.5046 757.674 78.5074 758.058 79.2206 758.827C79.9449 759.596 80.307 760.699 80.307 762.137C80.307 762.415 80.2903 762.694 80.2569 762.972H74.1729Z" fill="white"/>
<rect x="65" y="821" width="40" height="40" rx="20" fill="#A9E9DD"/>
<path d="M97.0879 844.46L97.5893 846.081C96.6756 846.493 95.7285 846.7 94.7479 846.7C93.355 846.7 92.2352 846.293 91.3883 845.479C90.5415 844.666 90.118 843.568 90.118 842.187C90.118 840.772 90.5247 839.668 91.3382 838.877C92.1627 838.075 93.2993 837.674 94.7479 837.674C95.7285 837.674 96.6756 837.88 97.5893 838.292L97.0879 839.947C96.3859 839.546 95.6393 839.345 94.8482 839.345C94.057 839.345 93.4386 839.59 92.9929 840.081C92.5583 840.571 92.341 841.273 92.341 842.187C92.341 843.078 92.5695 843.78 93.0263 844.293C93.4943 844.805 94.1016 845.062 94.8482 845.062C95.6505 845.062 96.397 844.861 97.0879 844.46Z" fill="white"/>
<path d="M85.5644 838.176H88.5563V839.797H85.5644V843.357C85.5644 844.015 85.648 844.46 85.8151 844.694C85.9823 844.917 86.2831 845.029 86.7177 845.029C87.2526 845.029 87.754 844.934 88.222 844.744L88.5061 846.366C87.8153 846.589 87.0687 846.7 86.2664 846.7C85.2413 846.7 84.4947 846.472 84.0267 846.015C83.5699 845.558 83.3414 844.8 83.3414 843.742V839.797H81.5363V838.176H83.3414V835H85.5644V838.176Z" fill="white"/>
<path d="M74.1729 841.485H78.2511C78.24 840.76 78.0561 840.209 77.6996 839.83C77.3541 839.44 76.8639 839.245 76.2287 839.245C75.6159 839.245 75.1256 839.44 74.7579 839.83C74.4013 840.22 74.2063 840.772 74.1729 841.485ZM74.1729 842.972C74.2286 843.63 74.4793 844.153 74.925 844.543C75.3819 844.922 75.9557 845.112 76.6466 845.112C77.4711 845.112 78.2901 844.906 79.1036 844.493L79.605 846.031C78.6021 846.477 77.5436 846.7 76.4293 846.7C75.1144 846.7 74.0447 846.293 73.2201 845.479C72.4067 844.666 72 843.568 72 842.187C72 840.783 72.3789 839.68 73.1366 838.877C73.8943 838.075 74.9194 837.674 76.212 837.674C77.5046 837.674 78.5074 838.058 79.2206 838.827C79.9449 839.596 80.307 840.699 80.307 842.137C80.307 842.415 80.2903 842.694 80.2569 842.972H74.1729Z" fill="white"/>
<g filter="url(#filter2_d_1043_7151)">
<path d="M30 911C30 902.716 36.7157 896 45 896H375C383.284 896 390 902.716 390 911V966H30V911Z" fill="white"/>
</g>
<path d="M30 911C30 902.716 36.7157 896 45 896H102V966H30V911Z" fill="white"/>
<path d="M102 896H174V966H102V896Z" fill="white"/>
<path d="M174 896H246V966H174V896Z" fill="white"/>
<path d="M246 896H318V966H246V896Z" fill="white"/>
<path d="M318 896H375C383.284 896 390 902.716 390 911V966H318V896Z" fill="white"/>
<path d="M62.8904 947.08H69.0604V949.66H62.8904V947.08ZM68.2504 947.72H63.7104V949.03H68.2504V947.72ZM62.3204 941.48H69.5904V942.13H62.3204V941.48ZM65.9804 942.49C67.8404 942.49 68.9004 942.93 68.9004 943.77C68.9004 944.61 67.8404 945.05 65.9804 945.05C64.1104 945.05 63.0604 944.61 63.0604 943.77C63.0604 942.93 64.1104 942.49 65.9804 942.49ZM65.9804 943.07C64.6704 943.07 63.9404 943.32 63.9404 943.77C63.9404 944.22 64.6704 944.47 65.9804 944.47C67.2804 944.47 68.0104 944.22 68.0104 943.77C68.0104 943.32 67.2804 943.07 65.9804 943.07ZM65.5704 940.61H66.3904V941.9H65.5704V940.61ZM61.8904 945.74H70.0604V946.39H61.8904V945.74ZM65.5704 944.85H66.3904V946.1H65.5704V944.85Z" fill="#38D6B8"/>
<path d="M122.391 941.06H123.121V941.56C123.121 943.29 121.361 944.53 119.481 944.85L119.151 944.18C120.801 943.93 122.391 942.85 122.391 941.56V941.06ZM122.541 941.06H123.261V941.56C123.261 942.82 124.871 943.93 126.501 944.18L126.171 944.85C124.311 944.53 122.541 943.27 122.541 941.56V941.06ZM122.391 946.34H123.211V949.78H122.391V946.34ZM118.741 945.83H126.911V946.52H118.741V945.83ZM134.51 940.74H135.35V945.59H134.51V940.74ZM129.52 946.04H130.34V947.14H134.53V946.04H135.35V949.66H129.52V946.04ZM130.34 947.8V948.99H134.53V947.8H130.34ZM130.5 941.17C131.87 941.17 132.85 942.02 132.85 943.25C132.85 944.49 131.87 945.34 130.5 945.34C129.13 945.34 128.14 944.49 128.14 943.25C128.14 942.02 129.13 941.17 130.5 941.17ZM130.5 941.86C129.6 941.86 128.95 942.43 128.95 943.25C128.95 944.07 129.6 944.64 130.5 944.64C131.4 944.64 132.05 944.07 132.05 943.25C132.05 942.43 131.4 941.86 130.5 941.86ZM140.26 941.86L137.6 949H136.74L139.4 941.86H140.26ZM143.25 942.03H143.92V943.5C143.92 945.41 142.77 947.33 141.33 948.04L140.85 947.38C142.16 946.76 143.25 945.06 143.25 943.5V942.03ZM143.41 942.03H144.08V943.5C144.08 945.03 145.17 946.59 146.5 947.16L146.03 947.82C144.57 947.14 143.41 945.38 143.41 943.5V942.03ZM141.15 941.66H146.2V942.36H141.15V941.66ZM147.42 940.74H148.25V949.78H147.42V940.74ZM153.72 945.24H154.55V946.61H153.72V945.24ZM150.06 944.75H158.22V945.39H150.06V944.75ZM153.73 940.68H154.55V941.78H153.73V940.68ZM153.69 941.86H154.42V942C154.42 943.42 152.73 944.18 150.73 944.35L150.49 943.71C152.27 943.6 153.69 942.97 153.69 942V941.86ZM153.86 941.86H154.59V942C154.59 942.97 156.01 943.6 157.78 943.71L157.54 944.35C155.54 944.18 153.86 943.42 153.86 942V941.86ZM150.89 941.53H157.39V942.16H150.89V941.53ZM151.04 946.21H157.18V948.2H151.88V949.29H151.06V947.61H156.36V946.84H151.04V946.21ZM151.06 949.05H157.45V949.68H151.06V949.05Z" fill="black" fill-opacity="0.87"/>
<path d="M205.301 943.25H207.311V943.92H205.301V943.25ZM205.231 945.52H207.291V946.19H205.231V945.52ZM208.681 940.74H209.481V949.78H208.681V940.74ZM206.871 940.97H207.651V949.32H206.871V940.97ZM204.851 941.88H205.651C205.651 944.25 204.701 946.38 202.271 947.83L201.791 947.24C203.901 945.96 204.851 944.16 204.851 942.03V941.88ZM202.191 941.88H205.181V942.56H202.191V941.88ZM211.33 941.56H216.62V942.18H211.33V941.56ZM213.98 942.53C215.28 942.53 216.13 943.05 216.13 943.87C216.13 944.7 215.28 945.22 213.98 945.22C212.69 945.22 211.84 944.7 211.84 943.87C211.84 943.05 212.69 942.53 213.98 942.53ZM213.98 943.11C213.17 943.11 212.62 943.4 212.62 943.87C212.62 944.33 213.17 944.64 213.98 944.64C214.81 944.64 215.34 944.33 215.34 943.87C215.34 943.4 214.81 943.11 213.98 943.11ZM213.56 940.68H214.4V941.89H213.56V940.68ZM213.56 944.89H214.4V946.12H213.56V944.89ZM217.56 940.75H218.39V946.8H217.56V940.75ZM212.33 947.22H218.39V949.78H217.56V947.88H212.33V947.22ZM211.15 946.52L211.04 945.85C212.7 945.85 214.94 945.84 216.84 945.58L216.9 946.16C214.93 946.49 212.78 946.52 211.15 946.52Z" fill="black" fill-opacity="0.87"/>
<path d="M269.191 941.62H272.461V942.3H269.191V941.62ZM272.031 941.62H272.801V942.22C272.801 942.98 272.801 943.97 272.491 945.34L271.721 945.25C272.031 943.9 272.031 942.97 272.031 942.22V941.62ZM272.401 943.21V943.81L269.061 944.09L268.931 943.41L272.401 943.21ZM275.551 940.74H276.351V949.78H275.551V940.74ZM273.851 940.94H274.631V949.28H273.851V940.94ZM272.161 946.55H274.131V947.2H272.161V946.55ZM270.511 945.49H271.301V949.05H270.511V945.49ZM268.681 945.9L268.581 945.19C269.861 945.18 271.861 945.13 273.301 944.93L273.351 945.56C271.881 945.82 269.941 945.9 268.681 945.9ZM281.52 941.36H282.24V942.05C282.24 944.02 280.41 945.55 278.6 945.96L278.23 945.27C279.82 944.97 281.52 943.59 281.52 942.05V941.36ZM281.67 941.36H282.39V942.05C282.39 943.6 284.1 944.97 285.68 945.27L285.31 945.96C283.51 945.55 281.67 944.03 281.67 942.05V941.36ZM277.9 947.88H286.09V948.56H277.9V947.88ZM288.15 945.61H294.36V946.28H288.15V945.61ZM287.1 947.93H295.29V948.62H287.1V947.93ZM288.15 941.51H294.26V942.19H288.99V945.82H288.15V941.51ZM288.72 943.53H294.07V944.19H288.72V943.53Z" fill="black" fill-opacity="0.87"/>
<path d="M331.852 941.64H336.002V947.49H331.852V941.64ZM335.192 942.31H332.662V946.82H335.192V942.31ZM337.612 940.74H338.452V949.78H337.612V940.74ZM338.252 944.35H339.932V945.05H338.252V944.35ZM347.261 940.73H348.091V949.79H347.261V940.73ZM343.321 941.43C344.661 941.43 345.621 942.66 345.621 944.58C345.621 946.51 344.661 947.74 343.321 947.74C341.991 947.74 341.031 946.51 341.031 944.58C341.031 942.66 341.991 941.43 343.321 941.43ZM343.321 942.18C342.441 942.18 341.821 943.12 341.821 944.58C341.821 946.05 342.441 947.01 343.321 947.01C344.211 947.01 344.821 946.05 344.821 944.58C344.821 943.12 344.211 942.18 343.321 942.18ZM356.82 940.74H357.62V949.78H356.82V940.74ZM353.84 944.18H355.34V944.91H353.84V944.18ZM355.07 940.96H355.86V949.31H355.07V940.96ZM349.98 941.88H354.11V942.56H349.98V941.88ZM349.9 947.56L349.8 946.86C350.97 946.86 352.93 946.82 354.3 946.64L354.36 947.25C352.95 947.52 351.06 947.56 349.9 947.56ZM350.72 942.32H351.48V947.05H350.72V942.32ZM352.6 942.32H353.36V947.05H352.6V942.32ZM365.66 940.73H366.49V949.79H365.66V940.73ZM361.72 941.43C363.06 941.43 364.02 942.66 364.02 944.58C364.02 946.51 363.06 947.74 361.72 947.74C360.39 947.74 359.43 946.51 359.43 944.58C359.43 942.66 360.39 941.43 361.72 941.43ZM361.72 942.18C360.84 942.18 360.22 943.12 360.22 944.58C360.22 946.05 360.84 947.01 361.72 947.01C362.61 947.01 363.22 946.05 363.22 944.58C363.22 943.12 362.61 942.18 361.72 942.18ZM370.689 942.03H371.359V943.5C371.359 945.41 370.209 947.33 368.769 948.04L368.289 947.38C369.599 946.76 370.689 945.06 370.689 943.5V942.03ZM370.849 942.03H371.519V943.5C371.519 945.03 372.609 946.59 373.939 947.16L373.469 947.82C372.009 947.14 370.849 945.38 370.849 943.5V942.03ZM368.589 941.66H373.639V942.36H368.589V941.66ZM374.859 940.74H375.689V949.78H374.859V940.74Z" fill="black" fill-opacity="0.87"/>
<path d="M76.1836 920.836L66.5297 911.189C66.4602 911.12 66.3776 911.065 66.2867 911.027C66.1958 910.989 66.0984 910.97 66 910.97C65.9016 910.97 65.8042 910.989 65.7133 911.027C65.6224 911.065 65.5398 911.12 65.4703 911.189L55.8164 920.836C55.5352 921.118 55.3758 921.5 55.3758 921.898C55.3758 922.725 56.0484 923.398 56.8758 923.398H57.893V930.282C57.893 930.696 58.2281 931.032 58.643 931.032H64.5V925.782H67.125V931.032H73.357C73.7719 931.032 74.107 930.696 74.107 930.282V923.398H75.1242C75.5227 923.398 75.9047 923.241 76.1859 922.957C76.7695 922.371 76.7695 921.422 76.1836 920.836Z" fill="#38D6B8"/>
<path d="M128 926.832V928.5C128 929.879 131.359 931 135.5 931C139.641 931 143 929.879 143 928.5V926.832C141.387 927.969 138.438 928.5 135.5 928.5C132.562 928.5 129.613 927.969 128 926.832ZM140.5 916C144.641 916 148 914.879 148 913.5C148 912.121 144.641 911 140.5 911C136.359 911 133 912.121 133 913.5C133 914.879 136.359 916 140.5 916ZM128 922.734V924.75C128 926.129 131.359 927.25 135.5 927.25C139.641 927.25 143 926.129 143 924.75V922.734C141.387 924.062 138.434 924.75 135.5 924.75C132.566 924.75 129.613 924.062 128 922.734ZM144.25 923.164C146.488 922.73 148 921.926 148 921V919.332C147.094 919.973 145.762 920.41 144.25 920.68V923.164ZM135.5 917.25C131.359 917.25 128 918.648 128 920.375C128 922.102 131.359 923.5 135.5 923.5C139.641 923.5 143 922.102 143 920.375C143 918.648 139.641 917.25 135.5 917.25ZM144.066 919.449C146.41 919.027 148 918.199 148 917.25V915.582C146.613 916.562 144.23 917.09 141.723 917.215C142.875 917.773 143.723 918.523 144.066 919.449Z" fill="black" fill-opacity="0.87"/>
<path d="M219.789 910.48L220.379 911.07C221.192 911.884 221.069 913.327 220.102 914.293L207.935 926.46L203.993 927.902C203.498 928.084 203.016 927.848 202.918 927.377C202.885 927.206 202.9 927.03 202.963 926.867L204.433 922.891L216.566 910.757C217.533 909.791 218.976 909.666 219.789 910.48ZM207.404 911.69C207.535 911.69 207.665 911.716 207.787 911.766C207.908 911.817 208.018 911.89 208.111 911.983C208.204 912.076 208.278 912.186 208.328 912.308C208.378 912.429 208.404 912.559 208.404 912.69C208.404 912.822 208.378 912.952 208.328 913.073C208.278 913.194 208.204 913.305 208.111 913.397C208.018 913.49 207.908 913.564 207.787 913.614C207.665 913.664 207.535 913.69 207.404 913.69H203.404C202.874 913.69 202.365 913.901 201.99 914.276C201.615 914.651 201.404 915.16 201.404 915.69V927.69C201.404 928.221 201.615 928.729 201.99 929.104C202.365 929.48 202.874 929.69 203.404 929.69H215.404C215.934 929.69 216.443 929.48 216.818 929.104C217.193 928.729 217.404 928.221 217.404 927.69V923.69C217.404 923.425 217.509 923.171 217.697 922.983C217.884 922.796 218.139 922.69 218.404 922.69C218.669 922.69 218.924 922.796 219.111 922.983C219.299 923.171 219.404 923.425 219.404 923.69V927.69C219.404 928.751 218.983 929.769 218.232 930.519C217.482 931.269 216.465 931.69 215.404 931.69H203.404C202.343 931.69 201.326 931.269 200.576 930.519C199.825 929.769 199.404 928.751 199.404 927.69V915.69C199.404 914.629 199.825 913.612 200.576 912.862C201.326 912.112 202.343 911.69 203.404 911.69H207.404Z" fill="black" fill-opacity="0.87"/>
<g clip-path="url(#clip1_1043_7151)">
<path d="M282 909C275.37 909 270 914.37 270 921C270 927.63 275.37 933 282 933C288.63 933 294 927.63 294 921C294 914.37 288.63 909 282 909ZM282 927.73C278.28 927.73 275.27 924.72 275.27 921C275.27 917.28 278.28 914.27 282 914.27C285.72 914.27 288.73 917.28 288.73 921C288.73 924.72 285.72 927.73 282 927.73Z" fill="black" fill-opacity="0.1"/>
<path d="M293.1 925.55C293.21 925.26 293.27 924.96 293.27 924.64C293.27 923.19 292.09 922.01 290.64 922.01C289.57 922.01 288.66 922.65 288.24 923.56H288.23C287.22 926 284.82 927.73 282.01 927.73C278.29 927.73 275.28 924.72 275.28 921C275.28 917.28 278.29 914.27 282.01 914.27C282.16 914.27 282.3 914.28 282.45 914.29V914.27C282.53 914.27 282.6 914.29 282.67 914.29C284.12 914.29 285.3 913.11 285.3 911.66C285.3 910.21 284.18 909.1 282.78 909.04C282.52 909 282.26 909 282 909C275.42 909 270 914.42 270 921C270 927.58 275.42 933 282 933C286.78 933 291.11 930.14 293.01 925.76C293.04 925.71 293.06 925.65 293.08 925.6C293.08 925.58 293.1 925.57 293.1 925.55Z" fill="black" fill-opacity="0.87"/>
</g>
<path d="M363.65 929.625C363.584 929.739 363.489 929.833 363.375 929.899C363.261 929.965 363.132 930 363 930H345C344.868 929.999 344.739 929.965 344.625 929.899C344.511 929.833 344.417 929.738 344.351 929.624C344.285 929.51 344.251 929.381 344.251 929.249C344.251 929.118 344.285 928.989 344.351 928.875C345.779 926.406 347.979 924.636 350.547 923.797C349.277 923.041 348.29 921.889 347.738 920.518C347.186 919.146 347.1 917.632 347.492 916.207C347.884 914.781 348.733 913.524 349.909 912.628C351.084 911.732 352.522 911.247 354 911.247C355.478 911.247 356.915 911.732 358.091 912.628C359.267 913.524 360.116 914.781 360.508 916.207C360.9 917.632 360.814 919.146 360.262 920.518C359.71 921.889 358.723 923.041 357.453 923.797C360.021 924.636 362.221 926.406 363.649 928.875C363.715 928.989 363.75 929.118 363.75 929.249C363.75 929.381 363.715 929.511 363.65 929.625Z" fill="black" fill-opacity="0.87"/>
</g>
</g>
<defs>
<filter id="filter0_d_1043_7151" x="0" y="0" width="420" height="996" filterUnits="userSpaceOnUse" color-interpolation-filters="sRGB">
<feFlood flood-opacity="0" result="BackgroundImageFix"/>
<feColorMatrix in="SourceAlpha" type="matrix" values="0 0 0 0 0 0 0 0 0 0 0 0 0 0 0 0 0 0 127 0" result="hardAlpha"/>
<feMorphology radius="10" operator="dilate" in="SourceAlpha" result="effect1_dropShadow_1043_7151"/>
<feOffset/>
<feGaussianBlur stdDeviation="10"/>
<feComposite in2="hardAlpha" operator="out"/>
<feColorMatrix type="matrix" values="0 0 0 0 0.502083 0 0 0 0 0.502083 0 0 0 0 0.502083 0 0 0 0.1 0"/>
<feBlend mode="normal" in2="BackgroundImageFix" result="effect1_dropShadow_1043_7151"/>
<feBlend mode="normal" in="SourceGraphic" in2="effect1_dropShadow_1043_7151" result="shape"/>
</filter>
<filter id="filter1_d_1043_7151" x="16" y="16" width="388" height="258" filterUnits="userSpaceOnUse" color-interpolation-filters="sRGB">
<feFlood flood-opacity="0" result="BackgroundImageFix"/>
<feColorMatrix in="SourceAlpha" type="matrix" values="0 0 0 0 0 0 0 0 0 0 0 0 0 0 0 0 0 0 127 0" result="hardAlpha"/>
<feMorphology radius="4" operator="dilate" in="SourceAlpha" result="effect1_dropShadow_1043_7151"/>
<feOffset/>
<feGaussianBlur stdDeviation="5"/>
<feComposite in2="hardAlpha" operator="out"/>
<feColorMatrix type="matrix" values="0 0 0 0 0 0 0 0 0 0 0 0 0 0 0 0 0 0 0.13 0"/>
<feBlend mode="normal" in2="BackgroundImageFix" result="effect1_dropShadow_1043_7151"/>
<feBlend mode="normal" in="SourceGraphic" in2="effect1_dropShadow_1043_7151" result="shape"/>
</filter>
<filter id="filter2_d_1043_7151" x="25" y="890" width="370" height="80" filterUnits="userSpaceOnUse" color-interpolation-filters="sRGB">
<feFlood flood-opacity="0" result="BackgroundImageFix"/>
<feColorMatrix in="SourceAlpha" type="matrix" values="0 0 0 0 0 0 0 0 0 0 0 0 0 0 0 0 0 0 127 0" result="hardAlpha"/>
<feMorphology radius="1" operator="dilate" in="SourceAlpha" result="effect1_dropShadow_1043_7151"/>
<feOffset dy="-1"/>
<feGaussianBlur stdDeviation="2"/>
<feComposite in2="hardAlpha" operator="out"/>
<feColorMatrix type="matrix" values="0 0 0 0 0 0 0 0 0 0 0 0 0 0 0 0 0 0 0.1 0"/>
<feBlend mode="normal" in2="BackgroundImageFix" result="effect1_dropShadow_1043_7151"/>
<feBlend mode="normal" in="SourceGraphic" in2="effect1_dropShadow_1043_7151" result="shape"/>
</filter>
<clipPath id="clip0_1043_7151">
<rect x="30" y="30" width="360" height="936" rx="20" fill="white"/>
</clipPath>
<clipPath id="clip1_1043_7151">
<rect width="24" height="24" fill="white" transform="translate(270 909)"/>
</clipPath>
</defs>
</svg>
